<?xml version="1.0" encoding="utf-8" standalone="no"?>
<!DOCTYPE svg PUBLIC "-//W3C//DTD SVG 1.1//EN"
  "http://www.w3.org/Graphics/SVG/1.1/DTD/svg11.dtd">
<svg xmlns:xlink="http://www.w3.org/1999/xlink" width="576pt" height="576pt" viewBox="0 0 576 576" xmlns="http://www.w3.org/2000/svg" version="1.1">
 <metadata>
  <rdf:RDF xmlns:dc="http://purl.org/dc/elements/1.1/" xmlns:cc="http://creativecommons.org/ns#" xmlns:rdf="http://www.w3.org/1999/02/22-rdf-syntax-ns#">
   <cc:Work>
    <dc:type rdf:resource="http://purl.org/dc/dcmitype/StillImage"/>
    <dc:date>2023-11-26T21:33:56.006257</dc:date>
    <dc:format>image/svg+xml</dc:format>
    <dc:creator>
     <cc:Agent>
      <dc:title>Matplotlib v3.8.0, https://matplotlib.org/</dc:title>
     </cc:Agent>
    </dc:creator>
   </cc:Work>
  </rdf:RDF>
 </metadata>
 <defs>
  <style type="text/css">*{stroke-linejoin: round; stroke-linecap: butt}</style>
 </defs>
 <g id="figure_1">
  <g id="patch_1">
   <path d="M 0 576 
L 576 576 
L 576 0 
L 0 0 
L 0 576 
z
" style="fill: none"/>
  </g>
  <g id="patch_2">
   <path d="M 73.44 512.64 
L 516.96 512.64 
L 516.96 69.12 
L 73.44 69.12 
L 73.44 512.64 
z
" style="fill: none; opacity: 0"/>
  </g>
  <g id="axes_1">
   <g id="line2d_1">
    <path d="M 48.613097 463.178139 
L 341.24433 216.147364 
" clip-path="url(#p2907427d01)" style="fill: none; stroke: #202020; stroke-opacity: 0.75; stroke-width: 2; stroke-linecap: square"/>
   </g>
   <g id="line2d_2">
    <path d="M -1 265.716217 
L 452.619756 403.537536 
" clip-path="url(#p2907427d01)" style="fill: none; stroke: #202020; stroke-opacity: 0.75; stroke-width: 2; stroke-linecap: square"/>
   </g>
   <g id="line2d_3">
    <path d="M 210.013089 439.752817 
L 204.128644 181.765078 
" clip-path="url(#p2907427d01)" style="fill: none; stroke: #202020; stroke-opacity: 0.75; stroke-width: 2; stroke-linecap: square"/>
   </g>
   <g id="Poly3DCollection_1">
    <path d="M 247.974505 232.535876 
L 258.955327 235.620109 
L 265.509399 230.287082 
L 254.557263 227.227416 
z
" clip-path="url(#p2907427d01)" style="fill: #4682b4; fill-opacity: 0.8"/>
    <path d="M 258.955327 235.620109 
L 269.987127 238.71866 
L 276.512176 233.360895 
L 265.509399 230.287082 
z
" clip-path="url(#p2907427d01)" style="fill: #4682b4; fill-opacity: 0.8"/>
    <path d="M 241.338847 237.886995 
L 252.348463 240.996091 
L 258.955327 235.620109 
L 247.974505 232.535876 
z
" clip-path="url(#p2907427d01)" style="fill: #4682b4; fill-opacity: 0.8"/>
    <path d="M 269.987127 238.71866 
L 281.07026 241.831629 
L 287.565946 236.448955 
L 276.512176 233.360895 
z
" clip-path="url(#p2907427d01)" style="fill: #4682b4; fill-opacity: 0.8"/>
    <path d="M 252.348463 240.996091 
L 263.409397 244.11968 
L 269.987127 238.71866 
L 258.955327 235.620109 
z
" clip-path="url(#p2907427d01)" style="fill: #4682b4; fill-opacity: 0.8"/>
    <path d="M 281.07026 241.831629 
L 292.205087 244.959117 
L 298.671065 239.551359 
L 287.565946 236.448955 
z
" clip-path="url(#p2907427d01)" style="fill: #4682b4; fill-opacity: 0.8"/>
    <path d="M 234.649651 243.28129 
L 245.688169 246.415551 
L 252.348463 240.996091 
L 241.338847 237.886995 
z
" clip-path="url(#p2907427d01)" style="fill: #4682b4; fill-opacity: 0.8"/>
    <path d="M 263.409397 244.11968 
L 274.522009 247.257861 
L 281.07026 241.831629 
L 269.987127 238.71866 
z
" clip-path="url(#p2907427d01)" style="fill: #4682b4; fill-opacity: 0.8"/>
    <path d="M 292.205087 244.959117 
L 303.391969 248.101227 
L 309.827891 242.668209 
L 298.671065 239.551359 
z
" clip-path="url(#p2907427d01)" style="fill: #4682b4; fill-opacity: 0.8"/>
    <path d="M 245.688169 246.415551 
L 256.778348 249.564481 
L 263.409397 244.11968 
L 252.348463 240.996091 
z
" clip-path="url(#p2907427d01)" style="fill: #4682b4; fill-opacity: 0.8"/>
    <path d="M 274.522009 247.257861 
L 285.686662 250.410739 
L 292.205087 244.959117 
L 281.07026 241.831629 
z
" clip-path="url(#p2907427d01)" style="fill: #4682b4; fill-opacity: 0.8"/>
    <path d="M 303.391969 248.101227 
L 314.631272 251.25806 
L 321.036786 245.799605 
L 309.827891 242.668209 
z
" clip-path="url(#p2907427d01)" style="fill: #4682b4; fill-opacity: 0.8"/>
    <path d="M 227.906264 248.719283 
L 238.973792 251.879017 
L 245.688169 246.415551 
L 234.649651 243.28129 
z
" clip-path="url(#p2907427d01)" style="fill: #4682b4; fill-opacity: 0.8"/>
    <path d="M 256.778348 249.564481 
L 267.920553 252.728183 
L 274.522009 247.257861 
L 263.409397 244.11968 
z
" clip-path="url(#p2907427d01)" style="fill: #4682b4; fill-opacity: 0.8"/>
    <path d="M 285.686662 250.410739 
L 296.903721 253.578417 
L 303.391969 248.101227 
L 292.205087 244.959117 
z
" clip-path="url(#p2907427d01)" style="fill: #4682b4; fill-opacity: 0.8"/>
    <path d="M 314.631272 251.25806 
L 325.923366 254.429721 
L 332.298115 248.945649 
L 321.036786 245.799605 
z
" clip-path="url(#p2907427d01)" style="fill: #4682b4; fill-opacity: 0.8"/>
    <path d="M 238.973792 251.879017 
L 250.093328 255.053598 
L 256.778348 249.564481 
L 245.688169 246.415551 
z
" clip-path="url(#p2907427d01)" style="fill: #4682b4; fill-opacity: 0.8"/>
    <path d="M 267.920553 252.728183 
L 279.115149 255.90676 
L 285.686662 250.410739 
L 274.522009 247.257861 
z
" clip-path="url(#p2907427d01)" style="fill: #4682b4; fill-opacity: 0.8"/>
    <path d="M 296.903721 253.578417 
L 308.173557 256.760998 
L 314.631272 251.25806 
L 303.391969 248.101227 
z
" clip-path="url(#p2907427d01)" style="fill: #4682b4; fill-opacity: 0.8"/>
    <path d="M 221.108027 254.201509 
L 232.204673 257.387027 
L 238.973792 251.879017 
L 227.906264 248.719283 
z
" clip-path="url(#p2907427d01)" style="fill: #4682b4; fill-opacity: 0.8"/>
    <path d="M 325.923366 254.429721 
L 337.268623 257.616314 
L 343.612248 252.106445 
L 332.298115 248.945649 
z
" clip-path="url(#p2907427d01)" style="fill: #4682b4; fill-opacity: 0.8"/>
    <path d="M 250.093328 255.053598 
L 261.26524 258.243133 
L 267.920553 252.728183 
L 256.778348 249.564481 
z
" clip-path="url(#p2907427d01)" style="fill: #4682b4; fill-opacity: 0.8"/>
    <path d="M 279.115149 255.90676 
L 290.362507 259.100319 
L 296.903721 253.578417 
L 285.686662 250.410739 
z
" clip-path="url(#p2907427d01)" style="fill: #4682b4; fill-opacity: 0.8"/>
    <path d="M 308.173557 256.760998 
L 319.496544 259.95859 
L 325.923366 254.429721 
L 314.631272 251.25806 
z
" clip-path="url(#p2907427d01)" style="fill: #4682b4; fill-opacity: 0.8"/>
    <path d="M 232.204673 257.387027 
L 243.353676 260.587575 
L 250.093328 255.053598 
L 238.973792 251.879017 
z
" clip-path="url(#p2907427d01)" style="fill: #4682b4; fill-opacity: 0.8"/>
    <path d="M 337.268623 257.616314 
L 348.667421 260.817945 
L 354.979557 255.282097 
L 343.612248 252.106445 
z
" clip-path="url(#p2907427d01)" style="fill: #4682b4; fill-opacity: 0.8"/>
    <path d="M 261.26524 258.243133 
L 272.489897 261.447726 
L 279.115149 255.90676 
L 267.920553 252.728183 
z
" clip-path="url(#p2907427d01)" style="fill: #4682b4; fill-opacity: 0.8"/>
    <path d="M 290.362507 259.100319 
L 301.663001 262.308966 
L 308.173557 256.760998 
L 296.903721 253.578417 
z
" clip-path="url(#p2907427d01)" style="fill: #4682b4; fill-opacity: 0.8"/>
    <path d="M 214.254267 259.72851 
L 225.380137 262.940129 
L 232.204673 257.387027 
L 221.108027 254.201509 
z
" clip-path="url(#p2907427d01)" style="fill: #4682b4; fill-opacity: 0.8"/>
    <path d="M 319.496544 259.95859 
L 330.873058 263.171297 
L 337.268623 257.616314 
L 325.923366 254.429721 
z
" clip-path="url(#p2907427d01)" style="fill: #4682b4; fill-opacity: 0.8"/>
    <path d="M 243.353676 260.587575 
L 254.555408 263.80326 
L 261.26524 258.243133 
L 250.093328 255.053598 
z
" clip-path="url(#p2907427d01)" style="fill: #4682b4; fill-opacity: 0.8"/>
    <path d="M 348.667421 260.817945 
L 360.120138 264.034721 
L 366.400417 258.472709 
L 354.979557 255.282097 
z
" clip-path="url(#p2907427d01)" style="fill: #4682b4; fill-opacity: 0.8"/>
    <path d="M 272.489897 261.447726 
L 283.767675 264.667485 
L 290.362507 259.100319 
L 279.115149 255.90676 
z
" clip-path="url(#p2907427d01)" style="fill: #4682b4; fill-opacity: 0.8"/>
    <path d="M 301.663001 262.308966 
L 313.017008 265.532807 
L 319.496544 259.95859 
L 308.173557 256.760998 
z
" clip-path="url(#p2907427d01)" style="fill: #4682b4; fill-opacity: 0.8"/>
    <path d="M 225.380137 262.940129 
L 236.558718 266.166963 
L 243.353676 260.587575 
L 232.204673 257.387027 
z
" clip-path="url(#p2907427d01)" style="fill: #4682b4; fill-opacity: 0.8"/>
    <path d="M 330.873058 263.171297 
L 342.303479 266.399227 
L 348.667421 260.817945 
L 337.268623 257.616314 
z
" clip-path="url(#p2907427d01)" style="fill: #4682b4; fill-opacity: 0.8"/>
    <path d="M 254.555408 263.80326 
L 265.810244 267.034189 
L 272.489897 261.447726 
L 261.26524 258.243133 
z
" clip-path="url(#p2907427d01)" style="fill: #4682b4; fill-opacity: 0.8"/>
    <path d="M 360.120138 264.034721 
L 371.627158 267.266749 
L 377.875207 261.678388 
L 366.400417 258.472709 
z
" clip-path="url(#p2907427d01)" style="fill: #4682b4; fill-opacity: 0.8"/>
    <path d="M 283.767675 264.667485 
L 295.098951 267.902517 
L 301.663001 262.308966 
L 290.362507 259.100319 
z
" clip-path="url(#p2907427d01)" style="fill: #4682b4; fill-opacity: 0.8"/>
    <path d="M 207.344302 265.300837 
L 218.499503 268.538878 
L 225.380137 262.940129 
L 214.254267 259.72851 
z
" clip-path="url(#p2907427d01)" style="fill: #4682b4; fill-opacity: 0.8"/>
    <path d="M 313.017008 265.532807 
L 324.42491 268.77195 
L 330.873058 263.171297 
L 319.496544 259.95859 
z
" clip-path="url(#p2907427d01)" style="fill: #4682b4; fill-opacity: 0.8"/>
    <path d="M 236.558718 266.166963 
L 247.790385 269.409121 
L 254.555408 263.80326 
L 243.353676 260.587575 
z
" clip-path="url(#p2907427d01)" style="fill: #4682b4; fill-opacity: 0.8"/>
    <path d="M 342.303479 266.399227 
L 353.788192 269.64249 
L 360.120138 264.034721 
L 348.667421 260.817945 
z
" clip-path="url(#p2907427d01)" style="fill: #4682b4; fill-opacity: 0.8"/>
    <path d="M 265.810244 267.034189 
L 277.118563 270.280472 
L 283.767675 264.667485 
L 272.489897 261.447726 
z
" clip-path="url(#p2907427d01)" style="fill: #4682b4; fill-opacity: 0.8"/>
    <path d="M 371.627158 267.266749 
L 383.188868 270.514138 
L 389.404311 264.89924 
L 377.875207 261.678388 
z
" clip-path="url(#p2907427d01)" style="fill: #4682b4; fill-opacity: 0.8"/>
    <path d="M 295.098951 267.902517 
L 306.484108 271.152933 
L 313.017008 265.532807 
L 301.663001 262.308966 
z
" clip-path="url(#p2907427d01)" style="fill: #4682b4; fill-opacity: 0.8"/>
    <path d="M 218.499503 268.538878 
L 229.707772 271.792323 
L 236.558718 266.166963 
L 225.380137 262.940129 
z
" clip-path="url(#p2907427d01)" style="fill: #4682b4; fill-opacity: 0.8"/>
    <path d="M 324.42491 268.77195 
L 335.887091 272.026506 
L 342.303479 266.399227 
L 330.873058 263.171297 
z
" clip-path="url(#p2907427d01)" style="fill: #4682b4; fill-opacity: 0.8"/>
    <path d="M 247.790385 269.409121 
L 259.075518 272.666712 
L 265.810244 267.034189 
L 254.555408 263.80326 
z
" clip-path="url(#p2907427d01)" style="fill: #4682b4; fill-opacity: 0.8"/>
    <path d="M 353.788192 269.64249 
L 365.327584 272.901194 
L 371.627158 267.266749 
L 360.120138 264.034721 
z
" clip-path="url(#p2907427d01)" style="fill: #4682b4; fill-opacity: 0.8"/>
    <path d="M 277.118563 270.280472 
L 288.480747 273.542217 
L 295.098951 267.902517 
L 283.767675 264.667485 
z
" clip-path="url(#p2907427d01)" style="fill: #4682b4; fill-opacity: 0.8"/>
    <path d="M 383.188868 270.514138 
L 394.805659 273.776998 
L 400.988115 268.135373 
L 389.404311 264.89924 
z
" clip-path="url(#p2907427d01)" style="fill: #4682b4; fill-opacity: 0.8"/>
    <path d="M 200.377436 270.919048 
L 211.562075 274.18384 
L 218.499503 268.538878 
L 207.344302 265.300837 
z
" clip-path="url(#p2907427d01)" style="fill: #4682b4; fill-opacity: 0.8"/>
    <path d="M 306.484108 271.152933 
L 317.92353 274.41884 
L 324.42491 268.77195 
L 313.017008 265.532807 
z
" clip-path="url(#p2907427d01)" style="fill: #4682b4; fill-opacity: 0.8"/>
    <path d="M 229.707772 271.792323 
L 240.969487 275.061283 
L 247.790385 269.409121 
L 236.558718 266.166963 
z
" clip-path="url(#p2907427d01)" style="fill: #4682b4; fill-opacity: 0.8"/>
    <path d="M 335.887091 272.026506 
L 347.403939 275.296584 
L 353.788192 269.64249 
L 342.303479 266.399227 
z
" clip-path="url(#p2907427d01)" style="fill: #4682b4; fill-opacity: 0.8"/>
    <path d="M 259.075518 272.666712 
L 270.414499 275.939848 
L 277.118563 270.280472 
L 265.810244 267.034189 
z
" clip-path="url(#p2907427d01)" style="fill: #4682b4; fill-opacity: 0.8"/>
    <path d="M 365.327584 272.901194 
L 376.922047 276.175449 
L 383.188868 270.514138 
L 371.627158 267.266749 
z
" clip-path="url(#p2907427d01)" style="fill: #4682b4; fill-opacity: 0.8"/>
    <path d="M 288.480747 273.542217 
L 299.897181 276.819536 
L 306.484108 271.152933 
L 295.098951 267.902517 
z
" clip-path="url(#p2907427d01)" style="fill: #4682b4; fill-opacity: 0.8"/>
    <path d="M 394.805659 273.776998 
L 406.477927 277.05544 
L 412.62701 271.386897 
L 400.988115 268.135373 
z
" clip-path="url(#p2907427d01)" style="fill: #4682b4; fill-opacity: 0.8"/>
    <path d="M 211.562075 274.18384 
L 222.800142 277.464227 
L 229.707772 271.792323 
L 218.499503 268.538878 
z
" clip-path="url(#p2907427d01)" style="fill: #4682b4; fill-opacity: 0.8"/>
    <path d="M 317.92353 274.41884 
L 329.417606 277.700351 
L 335.887091 272.026506 
L 324.42491 268.77195 
z
" clip-path="url(#p2907427d01)" style="fill: #4682b4; fill-opacity: 0.8"/>
    <path d="M 240.969487 275.061283 
L 252.285034 278.345868 
L 259.075518 272.666712 
L 247.790385 269.409121 
z
" clip-path="url(#p2907427d01)" style="fill: #4682b4; fill-opacity: 0.8"/>
    <path d="M 347.403939 275.296584 
L 358.975847 278.582295 
L 365.327584 272.901194 
L 353.788192 269.64249 
z
" clip-path="url(#p2907427d01)" style="fill: #4682b4; fill-opacity: 0.8"/>
    <path d="M 270.414499 275.939848 
L 281.807714 279.228639 
L 288.480747 273.542217 
L 277.118563 270.280472 
z
" clip-path="url(#p2907427d01)" style="fill: #4682b4; fill-opacity: 0.8"/>
    <path d="M 376.922047 276.175449 
L 388.571977 279.465368 
L 394.805659 273.776998 
L 383.188868 270.514138 
z
" clip-path="url(#p2907427d01)" style="fill: #4682b4; fill-opacity: 0.8"/>
    <path d="M 193.352965 276.583714 
L 204.567148 279.875589 
L 211.562075 274.18384 
L 200.377436 270.919048 
z
" clip-path="url(#p2907427d01)" style="fill: #4682b4; fill-opacity: 0.8"/>
    <path d="M 299.897181 276.819536 
L 311.368255 280.112541 
L 317.92353 274.41884 
L 306.484108 271.152933 
z
" clip-path="url(#p2907427d01)" style="fill: #4682b4; fill-opacity: 0.8"/>
    <path d="M 406.477927 277.05544 
L 418.206068 280.349575 
L 424.321388 274.653921 
L 412.62701 271.386897 
z
" clip-path="url(#p2907427d01)" style="fill: #4682b4; fill-opacity: 0.8"/>
    <path d="M 222.800142 277.464227 
L 234.09202 280.760322 
L 240.969487 275.061283 
L 229.707772 271.792323 
z
" clip-path="url(#p2907427d01)" style="fill: #4682b4; fill-opacity: 0.8"/>
    <path d="M 329.417606 277.700351 
L 340.966729 280.997578 
L 347.403939 275.296584 
L 335.887091 272.026506 
z
" clip-path="url(#p2907427d01)" style="fill: #4682b4; fill-opacity: 0.8"/>
    <path d="M 252.285034 278.345868 
L 263.654797 281.646191 
L 270.414499 275.939848 
L 259.075518 272.666712 
z
" clip-path="url(#p2907427d01)" style="fill: #4682b4; fill-opacity: 0.8"/>
    <path d="M 358.975847 278.582295 
L 370.60321 281.883752 
L 376.922047 276.175449 
L 365.327584 272.901194 
z
" clip-path="url(#p2907427d01)" style="fill: #4682b4; fill-opacity: 0.8"/>
    <path d="M 281.807714 279.228639 
L 293.255554 282.533198 
L 299.897181 276.819536 
L 288.480747 273.542217 
z
" clip-path="url(#p2907427d01)" style="fill: #4682b4; fill-opacity: 0.8"/>
    <path d="M 388.571977 279.465368 
L 400.277771 282.771064 
L 406.477927 277.05544 
L 394.805659 273.776998 
z
" clip-path="url(#p2907427d01)" style="fill: #4682b4; fill-opacity: 0.8"/>
    <path d="M 204.567148 279.875589 
L 215.835122 283.183254 
L 222.800142 277.464227 
L 211.562075 274.18384 
z
" clip-path="url(#p2907427d01)" style="fill: #4682b4; fill-opacity: 0.8"/>
    <path d="M 311.368255 280.112541 
L 322.894362 283.421345 
L 329.417606 277.700351 
L 317.92353 274.41884 
z
" clip-path="url(#p2907427d01)" style="fill: #4682b4; fill-opacity: 0.8"/>
    <path d="M 418.206068 280.349575 
L 429.990485 283.659517 
L 436.071649 277.936557 
L 424.321388 274.653921 
z
" clip-path="url(#p2907427d01)" style="fill: #4682b4; fill-opacity: 0.8"/>
    <path d="M 234.09202 280.760322 
L 245.438097 284.072237 
L 252.285034 278.345868 
L 240.969487 275.061283 
z
" clip-path="url(#p2907427d01)" style="fill: #4682b4; fill-opacity: 0.8"/>
    <path d="M 340.966729 280.997578 
L 352.571295 284.310634 
L 358.975847 278.582295 
L 347.403939 275.296584 
z
" clip-path="url(#p2907427d01)" style="fill: #4682b4; fill-opacity: 0.8"/>
    <path d="M 263.654797 281.646191 
L 275.079169 284.962365 
L 281.807714 279.228639 
L 270.414499 275.939848 
z
" clip-path="url(#p2907427d01)" style="fill: #4682b4; fill-opacity: 0.8"/>
    <path d="M 370.60321 281.883752 
L 382.286428 285.201068 
L 388.571977 279.465368 
L 376.922047 276.175449 
z
" clip-path="url(#p2907427d01)" style="fill: #4682b4; fill-opacity: 0.8"/>
    <path d="M 186.270171 282.295413 
L 197.514003 285.61471 
L 204.567148 279.875589 
L 193.352965 276.583714 
z
" clip-path="url(#p2907427d01)" style="fill: #4682b4; fill-opacity: 0.8"/>
    <path d="M 293.255554 282.533198 
L 304.758412 285.853638 
L 311.368255 280.112541 
L 299.897181 276.819536 
z
" clip-path="url(#p2907427d01)" style="fill: #4682b4; fill-opacity: 0.8"/>
    <path d="M 400.277771 282.771064 
L 412.039833 286.092649 
L 418.206068 280.349575 
L 406.477927 277.05544 
z
" clip-path="url(#p2907427d01)" style="fill: #4682b4; fill-opacity: 0.8"/>
    <path d="M 215.835122 283.183254 
L 227.157275 286.506824 
L 234.09202 280.760322 
L 222.800142 277.464227 
z
" clip-path="url(#p2907427d01)" style="fill: #4682b4; fill-opacity: 0.8"/>
    <path d="M 322.894362 283.421345 
L 334.475899 286.74606 
L 340.966729 280.997578 
L 329.417606 277.700351 
z
" clip-path="url(#p2907427d01)" style="fill: #4682b4; fill-opacity: 0.8"/>
    <path d="M 429.990485 283.659517 
L 441.831584 286.985379 
L 447.878193 281.234916 
L 436.071649 277.936557 
z
" clip-path="url(#p2907427d01)" style="fill: #4682b4; fill-opacity: 0.8"/>
    <path d="M 245.438097 284.072237 
L 256.838764 287.400088 
L 263.654797 281.646191 
L 252.285034 278.345868 
z
" clip-path="url(#p2907427d01)" style="fill: #4682b4; fill-opacity: 0.8"/>
    <path d="M 352.571295 284.310634 
L 364.231705 287.639633 
L 370.60321 281.883752 
L 358.975847 278.582295 
z
" clip-path="url(#p2907427d01)" style="fill: #4682b4; fill-opacity: 0.8"/>
    <path d="M 275.079169 284.962365 
L 286.558543 288.294504 
L 293.255554 282.533198 
L 281.807714 279.228639 
z
" clip-path="url(#p2907427d01)" style="fill: #4682b4; fill-opacity: 0.8"/>
    <path d="M 382.286428 285.201068 
L 394.025904 288.534358 
L 400.277771 282.771064 
L 388.571977 279.465368 
z
" clip-path="url(#p2907427d01)" style="fill: #4682b4; fill-opacity: 0.8"/>
    <path d="M 197.514003 285.61471 
L 208.811994 288.949994 
L 215.835122 283.183254 
L 204.567148 279.875589 
z
" clip-path="url(#p2907427d01)" style="fill: #4682b4; fill-opacity: 0.8"/>
    <path d="M 304.758412 285.853638 
L 316.316686 289.190075 
L 322.894362 283.421345 
L 311.368255 280.112541 
z
" clip-path="url(#p2907427d01)" style="fill: #4682b4; fill-opacity: 0.8"/>
    <path d="M 412.039833 286.092649 
L 423.858569 289.430239 
L 429.990485 283.659517 
L 418.206068 280.349575 
z
" clip-path="url(#p2907427d01)" style="fill: #4682b4; fill-opacity: 0.8"/>
    <path d="M 227.157275 286.506824 
L 238.534 289.846412 
L 245.438097 284.072237 
L 234.09202 280.760322 
z
" clip-path="url(#p2907427d01)" style="fill: #4682b4; fill-opacity: 0.8"/>
    <path d="M 334.475899 286.74606 
L 346.113268 290.086803 
L 352.571295 284.310634 
L 340.966729 280.997578 
z
" clip-path="url(#p2907427d01)" style="fill: #4682b4; fill-opacity: 0.8"/>
    <path d="M 441.831584 286.985379 
L 453.729776 290.327277 
L 459.741426 284.549113 
L 447.878193 281.234916 
z
" clip-path="url(#p2907427d01)" style="fill: #4682b4; fill-opacity: 0.8"/>
    <path d="M 256.838764 287.400088 
L 268.294417 290.743988 
L 275.079169 284.962365 
L 263.654797 281.646191 
z
" clip-path="url(#p2907427d01)" style="fill: #4682b4; fill-opacity: 0.8"/>
    <path d="M 364.231705 287.639633 
L 375.948363 290.98469 
L 382.286428 285.201068 
L 370.60321 281.883752 
z
" clip-path="url(#p2907427d01)" style="fill: #4682b4; fill-opacity: 0.8"/>
    <path d="M 179.128323 288.054733 
L 190.401911 291.401795 
L 197.514003 285.61471 
L 186.270171 282.295413 
z
" clip-path="url(#p2907427d01)" style="fill: #4682b4; fill-opacity: 0.8"/>
    <path d="M 286.558543 288.294504 
L 298.093317 291.642725 
L 304.758412 285.853638 
L 293.255554 282.533198 
z
" clip-path="url(#p2907427d01)" style="fill: #4682b4; fill-opacity: 0.8"/>
    <path d="M 394.025904 288.534358 
L 405.822045 291.883738 
L 412.039833 286.092649 
L 400.277771 282.771064 
z
" clip-path="url(#p2907427d01)" style="fill: #4682b4; fill-opacity: 0.8"/>
    <path d="M 208.811994 288.949994 
L 220.164536 292.301383 
L 227.157275 286.506824 
L 215.835122 283.183254 
z
" clip-path="url(#p2907427d01)" style="fill: #4682b4; fill-opacity: 0.8"/>
    <path d="M 316.316686 289.190075 
L 327.930778 292.542625 
L 334.475899 286.74606 
L 322.894362 283.421345 
z
" clip-path="url(#p2907427d01)" style="fill: #4682b4; fill-opacity: 0.8"/>
    <path d="M 423.858569 289.430239 
L 435.734391 292.78395 
L 441.831584 286.985379 
L 429.990485 283.659517 
z
" clip-path="url(#p2907427d01)" style="fill: #4682b4; fill-opacity: 0.8"/>
    <path d="M 238.534 289.846412 
L 249.965692 293.202136 
L 256.838764 287.400088 
L 245.438097 284.072237 
z
" clip-path="url(#p2907427d01)" style="fill: #4682b4; fill-opacity: 0.8"/>
    <path d="M 346.113268 290.086803 
L 357.806872 293.44369 
L 364.231705 287.639633 
L 352.571295 284.310634 
z
" clip-path="url(#p2907427d01)" style="fill: #4682b4; fill-opacity: 0.8"/>
    <path d="M 453.729776 290.327277 
L 465.685474 293.685328 
L 471.661757 287.879261 
L 459.741426 284.549113 
z
" clip-path="url(#p2907427d01)" style="fill: #4682b4; fill-opacity: 0.8"/>
    <path d="M 268.294417 290.743988 
L 279.805453 294.104055 
L 286.558543 288.294504 
L 275.079169 284.962365 
z
" clip-path="url(#p2907427d01)" style="fill: #4682b4; fill-opacity: 0.8"/>
    <path d="M 375.948363 290.98469 
L 387.721676 294.345922 
L 394.025904 288.534358 
L 382.286428 285.201068 
z
" clip-path="url(#p2907427d01)" style="fill: #4682b4; fill-opacity: 0.8"/>
    <path d="M 190.401911 291.401795 
L 201.730028 294.765047 
L 208.811994 288.949994 
L 197.514003 285.61471 
z
" clip-path="url(#p2907427d01)" style="fill: #4682b4; fill-opacity: 0.8"/>
    <path d="M 298.093317 291.642725 
L 309.683894 295.007144 
L 316.316686 289.190075 
L 304.758412 285.853638 
z
" clip-path="url(#p2907427d01)" style="fill: #4682b4; fill-opacity: 0.8"/>
    <path d="M 405.822045 291.883738 
L 417.675264 295.249324 
L 423.858569 289.430239 
L 412.039833 286.092649 
z
" clip-path="url(#p2907427d01)" style="fill: #4682b4; fill-opacity: 0.8"/>
    <path d="M 220.164536 292.301383 
L 231.572025 295.668993 
L 238.534 289.846412 
L 227.157275 286.506824 
z
" clip-path="url(#p2907427d01)" style="fill: #4682b4; fill-opacity: 0.8"/>
    <path d="M 327.930778 292.542625 
L 339.601092 295.911404 
L 346.113268 290.086803 
L 334.475899 286.74606 
z
" clip-path="url(#p2907427d01)" style="fill: #4682b4; fill-opacity: 0.8"/>
    <path d="M 435.734391 292.78395 
L 447.667712 296.153899 
L 453.729776 290.327277 
L 441.831584 286.985379 
z
" clip-path="url(#p2907427d01)" style="fill: #4682b4; fill-opacity: 0.8"/>
    <path d="M 249.965692 293.202136 
L 261.452749 296.574112 
L 268.294417 290.743988 
L 256.838764 287.400088 
z
" clip-path="url(#p2907427d01)" style="fill: #4682b4; fill-opacity: 0.8"/>
    <path d="M 357.806872 293.44369 
L 369.55712 296.816837 
L 375.948363 290.98469 
L 364.231705 287.639633 
z
" clip-path="url(#p2907427d01)" style="fill: #4682b4; fill-opacity: 0.8"/>
    <path d="M 465.685474 293.685328 
L 477.699096 297.059647 
L 483.639599 291.225475 
L 471.661757 287.879261 
z
" clip-path="url(#p2907427d01)" style="fill: #4682b4; fill-opacity: 0.8"/>
    <path d="M 171.926682 293.862272 
L 183.23013 297.23745 
L 190.401911 291.401795 
L 179.128323 288.054733 
z
" clip-path="url(#p2907427d01)" style="fill: #4682b4; fill-opacity: 0.8"/>
    <path d="M 279.805453 294.104055 
L 291.372275 297.480406 
L 298.093317 291.642725 
L 286.558543 288.294504 
z
" clip-path="url(#p2907427d01)" style="fill: #4682b4; fill-opacity: 0.8"/>
    <path d="M 387.721676 294.345922 
L 399.552056 297.723447 
L 405.822045 291.883738 
L 394.025904 288.534358 
z
" clip-path="url(#p2907427d01)" style="fill: #4682b4; fill-opacity: 0.8"/>
    <path d="M 201.730028 294.765047 
L 213.113071 298.144606 
L 220.164536 292.301383 
L 208.811994 288.949994 
z
" clip-path="url(#p2907427d01)" style="fill: #4682b4; fill-opacity: 0.8"/>
    <path d="M 309.683894 295.007144 
L 321.33068 298.387878 
L 327.930778 292.542625 
L 316.316686 289.190075 
z
" clip-path="url(#p2907427d01)" style="fill: #4682b4; fill-opacity: 0.8"/>
    <path d="M 417.675264 295.249324 
L 429.585974 298.631235 
L 435.734391 292.78395 
L 423.858569 289.430239 
z
" clip-path="url(#p2907427d01)" style="fill: #4682b4; fill-opacity: 0.8"/>
    <path d="M 231.572025 295.668993 
L 243.034861 299.052942 
L 249.965692 293.202136 
L 238.534 289.846412 
z
" clip-path="url(#p2907427d01)" style="fill: #4682b4; fill-opacity: 0.8"/>
    <path d="M 339.601092 295.911404 
L 351.328038 299.29653 
L 357.806872 293.44369 
L 346.113268 290.086803 
z
" clip-path="url(#p2907427d01)" style="fill: #4682b4; fill-opacity: 0.8"/>
    <path d="M 447.667712 296.153899 
L 459.658951 299.540203 
L 465.685474 293.685328 
L 453.729776 290.327277 
z
" clip-path="url(#p2907427d01)" style="fill: #4682b4; fill-opacity: 0.8"/>
    <path d="M 261.452749 296.574112 
L 272.995575 299.962459 
L 279.805453 294.104055 
L 268.294417 290.743988 
z
" clip-path="url(#p2907427d01)" style="fill: #4682b4; fill-opacity: 0.8"/>
    <path d="M 369.55712 296.816837 
L 381.364426 300.206364 
L 387.721676 294.345922 
L 375.948363 290.98469 
z
" clip-path="url(#p2907427d01)" style="fill: #4682b4; fill-opacity: 0.8"/>
    <path d="M 183.23013 297.23745 
L 194.588481 300.629022 
L 201.730028 294.765047 
L 190.401911 291.401795 
z
" clip-path="url(#p2907427d01)" style="fill: #4682b4; fill-opacity: 0.8"/>
    <path d="M 291.372275 297.480406 
L 302.995291 300.87316 
L 309.683894 295.007144 
L 298.093317 291.642725 
z
" clip-path="url(#p2907427d01)" style="fill: #4682b4; fill-opacity: 0.8"/>
    <path d="M 399.552056 297.723447 
L 411.43992 301.117383 
L 417.675264 295.249324 
L 405.822045 291.883738 
z
" clip-path="url(#p2907427d01)" style="fill: #4682b4; fill-opacity: 0.8"/>
    <path d="M 213.113071 298.144606 
L 224.55144 301.540591 
L 231.572025 295.668993 
L 220.164536 292.301383 
z
" clip-path="url(#p2907427d01)" style="fill: #4682b4; fill-opacity: 0.8"/>
    <path d="M 321.33068 298.387878 
L 333.034083 301.785047 
L 339.601092 295.911404 
L 327.930778 292.542625 
z
" clip-path="url(#p2907427d01)" style="fill: #4682b4; fill-opacity: 0.8"/>
    <path d="M 429.585974 298.631235 
L 441.554596 302.029588 
L 447.667712 296.153899 
L 435.734391 292.78395 
z
" clip-path="url(#p2907427d01)" style="fill: #4682b4; fill-opacity: 0.8"/>
    <path d="M 243.034861 299.052942 
L 254.553447 302.453348 
L 261.452749 296.574112 
L 249.965692 293.202136 
z
" clip-path="url(#p2907427d01)" style="fill: #4682b4; fill-opacity: 0.8"/>
    <path d="M 351.328038 299.29653 
L 363.112029 302.698123 
L 369.55712 296.816837 
L 357.806872 293.44369 
z
" clip-path="url(#p2907427d01)" style="fill: #4682b4; fill-opacity: 0.8"/>
    <path d="M 459.658951 299.540203 
L 471.708531 302.942983 
L 477.699096 297.059647 
L 465.685474 293.685328 
z
" clip-path="url(#p2907427d01)" style="fill: #4682b4; fill-opacity: 0.8"/>
    <path d="M 164.664493 299.718638 
L 175.997904 303.122287 
L 183.23013 297.23745 
L 171.926682 293.862272 
z
" clip-path="url(#p2907427d01)" style="fill: #4682b4; fill-opacity: 0.8"/>
    <path d="M 272.995575 299.962459 
L 284.594578 303.367296 
L 291.372275 297.480406 
L 279.805453 294.104055 
z
" clip-path="url(#p2907427d01)" style="fill: #4682b4; fill-opacity: 0.8"/>
    <path d="M 381.364426 300.206364 
L 393.229204 303.61239 
L 399.552056 297.723447 
L 387.721676 294.345922 
z
" clip-path="url(#p2907427d01)" style="fill: #4682b4; fill-opacity: 0.8"/>
    <path d="M 194.588481 300.629022 
L 206.002137 304.037108 
L 213.113071 298.144606 
L 201.730028 294.765047 
z
" clip-path="url(#p2907427d01)" style="fill: #4682b4; fill-opacity: 0.8"/>
    <path d="M 302.995291 300.87316 
L 314.67491 304.282436 
L 321.33068 298.387878 
L 309.683894 295.007144 
z
" clip-path="url(#p2907427d01)" style="fill: #4682b4; fill-opacity: 0.8"/>
    <path d="M 411.43992 301.117383 
L 423.385687 304.52785 
L 429.585974 298.631235 
L 417.675264 295.249324 
z
" clip-path="url(#p2907427d01)" style="fill: #4682b4; fill-opacity: 0.8"/>
    <path d="M 224.55144 301.540591 
L 236.04554 304.953122 
L 243.034861 299.052942 
L 231.572025 295.668993 
z
" clip-path="url(#p2907427d01)" style="fill: #4682b4; fill-opacity: 0.8"/>
    <path d="M 333.034083 301.785047 
L 344.794519 305.198771 
L 351.328038 299.29653 
L 339.601092 295.911404 
z
" clip-path="url(#p2907427d01)" style="fill: #4682b4; fill-opacity: 0.8"/>
    <path d="M 441.554596 302.029588 
L 453.581553 305.444506 
L 459.658951 299.540203 
L 447.667712 296.153899 
z
" clip-path="url(#p2907427d01)" style="fill: #4682b4; fill-opacity: 0.8"/>
    <path d="M 254.553447 302.453348 
L 266.128192 305.870334 
L 272.995575 299.962459 
L 261.452749 296.574112 
z
" clip-path="url(#p2907427d01)" style="fill: #4682b4; fill-opacity: 0.8"/>
    <path d="M 363.112029 302.698123 
L 374.953482 306.116303 
L 381.364426 300.206364 
L 369.55712 296.816837 
z
" clip-path="url(#p2907427d01)" style="fill: #4682b4; fill-opacity: 0.8"/>
    <path d="M 175.997904 303.122287 
L 187.386598 306.542539 
L 194.588481 300.629022 
L 183.23013 297.23745 
z
" clip-path="url(#p2907427d01)" style="fill: #4682b4; fill-opacity: 0.8"/>
    <path d="M 284.594578 303.367296 
L 296.250168 306.788744 
L 302.995291 300.87316 
L 291.372275 297.480406 
z
" clip-path="url(#p2907427d01)" style="fill: #4682b4; fill-opacity: 0.8"/>
    <path d="M 393.229204 303.61239 
L 405.151877 307.035035 
L 411.43992 301.117383 
L 399.552056 297.723447 
z
" clip-path="url(#p2907427d01)" style="fill: #4682b4; fill-opacity: 0.8"/>
    <path d="M 206.002137 304.037108 
L 217.471503 307.461829 
L 224.55144 301.540591 
L 213.113071 298.144606 
z
" clip-path="url(#p2907427d01)" style="fill: #4682b4; fill-opacity: 0.8"/>
    <path d="M 314.67491 304.282436 
L 326.411547 307.708356 
L 333.034083 301.785047 
L 321.33068 298.387878 
z
" clip-path="url(#p2907427d01)" style="fill: #4682b4; fill-opacity: 0.8"/>
    <path d="M 423.385687 304.52785 
L 435.389781 307.954969 
L 441.554596 302.029588 
L 429.585974 298.631235 
z
" clip-path="url(#p2907427d01)" style="fill: #4682b4; fill-opacity: 0.8"/>
    <path d="M 236.04554 304.953122 
L 247.59578 308.382321 
L 254.553447 302.453348 
L 243.034861 299.052942 
z
" clip-path="url(#p2907427d01)" style="fill: #4682b4; fill-opacity: 0.8"/>
    <path d="M 344.794519 305.198771 
L 356.612405 308.629171 
L 363.112029 302.698123 
L 351.328038 299.29653 
z
" clip-path="url(#p2907427d01)" style="fill: #4682b4; fill-opacity: 0.8"/>
    <path d="M 453.581553 305.444506 
L 465.667272 308.876108 
L 471.708531 302.942983 
L 459.658951 299.540203 
z
" clip-path="url(#p2907427d01)" style="fill: #4682b4; fill-opacity: 0.8"/>
    <path d="M 157.340988 305.62445 
L 168.704468 309.056933 
L 175.997904 303.122287 
L 164.664493 299.718638 
z
" clip-path="url(#p2907427d01)" style="fill: #4682b4; fill-opacity: 0.8"/>
    <path d="M 266.128192 305.870334 
L 277.759507 309.304019 
L 284.594578 303.367296 
L 272.995575 299.962459 
z
" clip-path="url(#p2907427d01)" style="fill: #4682b4; fill-opacity: 0.8"/>
    <path d="M 374.953482 306.116303 
L 386.852819 309.551192 
L 393.229204 303.61239 
L 381.364426 300.206364 
z
" clip-path="url(#p2907427d01)" style="fill: #4682b4; fill-opacity: 0.8"/>
    <path d="M 187.386598 306.542539 
L 198.830979 309.979515 
L 206.002137 304.037108 
L 194.588481 300.629022 
z
" clip-path="url(#p2907427d01)" style="fill: #4682b4; fill-opacity: 0.8"/>
    <path d="M 296.250168 306.788744 
L 307.962761 310.226925 
L 314.67491 304.282436 
L 302.995291 300.87316 
z
" clip-path="url(#p2907427d01)" style="fill: #4682b4; fill-opacity: 0.8"/>
    <path d="M 405.151877 307.035035 
L 417.132869 310.474422 
L 423.385687 304.52785 
L 411.43992 301.117383 
z
" clip-path="url(#p2907427d01)" style="fill: #4682b4; fill-opacity: 0.8"/>
    <path d="M 217.471503 307.461829 
L 228.996987 310.903306 
L 236.04554 304.953122 
L 224.55144 301.540591 
z
" clip-path="url(#p2907427d01)" style="fill: #4682b4; fill-opacity: 0.8"/>
    <path d="M 326.411547 307.708356 
L 338.20562 311.151041 
L 344.794519 305.198771 
L 333.034083 301.785047 
z
" clip-path="url(#p2907427d01)" style="fill: #4682b4; fill-opacity: 0.8"/>
    <path d="M 435.389781 307.954969 
L 447.452631 311.398863 
L 453.581553 305.444506 
L 441.554596 302.029588 
z
" clip-path="url(#p2907427d01)" style="fill: #4682b4; fill-opacity: 0.8"/>
    <path d="M 247.59578 308.382321 
L 259.202571 311.82831 
L 266.128192 305.870334 
L 254.553447 302.453348 
z
" clip-path="url(#p2907427d01)" style="fill: #4682b4; fill-opacity: 0.8"/>
    <path d="M 356.612405 308.629171 
L 368.488162 312.07637 
L 374.953482 306.116303 
L 363.112029 302.698123 
z
" clip-path="url(#p2907427d01)" style="fill: #4682b4; fill-opacity: 0.8"/>
    <path d="M 168.704468 309.056933 
L 180.123611 312.506229 
L 187.386598 306.542539 
L 175.997904 303.122287 
z
" clip-path="url(#p2907427d01)" style="fill: #4682b4; fill-opacity: 0.8"/>
    <path d="M 277.759507 309.304019 
L 289.447807 312.754527 
L 296.250168 306.788744 
L 284.594578 303.367296 
z
" clip-path="url(#p2907427d01)" style="fill: #4682b4; fill-opacity: 0.8"/>
    <path d="M 386.852819 309.551192 
L 398.810466 313.002913 
L 405.151877 307.035035 
L 393.229204 303.61239 
z
" clip-path="url(#p2907427d01)" style="fill: #4682b4; fill-opacity: 0.8"/>
    <path d="M 198.830979 309.979515 
L 210.331457 313.433337 
L 217.471503 307.461829 
L 206.002137 304.037108 
z
" clip-path="url(#p2907427d01)" style="fill: #4682b4; fill-opacity: 0.8"/>
    <path d="M 307.962761 310.226925 
L 319.732775 313.681962 
L 326.411547 307.708356 
L 314.67491 304.282436 
z
" clip-path="url(#p2907427d01)" style="fill: #4682b4; fill-opacity: 0.8"/>
    <path d="M 417.132869 310.474422 
L 429.172609 313.930674 
L 435.389781 307.954969 
L 423.385687 304.52785 
z
" clip-path="url(#p2907427d01)" style="fill: #4682b4; fill-opacity: 0.8"/>
    <path d="M 228.996987 310.903306 
L 240.579003 314.361664 
L 247.59578 308.382321 
L 236.04554 304.953122 
z
" clip-path="url(#p2907427d01)" style="fill: #4682b4; fill-opacity: 0.8"/>
    <path d="M 338.20562 311.151041 
L 350.057553 314.610616 
L 356.612405 308.629171 
L 344.794519 305.198771 
z
" clip-path="url(#p2907427d01)" style="fill: #4682b4; fill-opacity: 0.8"/>
    <path d="M 447.452631 311.398863 
L 459.57467 314.859655 
L 465.667272 308.876108 
L 453.581553 305.444506 
z
" clip-path="url(#p2907427d01)" style="fill: #4682b4; fill-opacity: 0.8"/>
    <path d="M 149.955389 311.580337 
L 161.34904 315.04202 
L 168.704468 309.056933 
L 157.340988 305.62445 
z
" clip-path="url(#p2907427d01)" style="fill: #4682b4; fill-opacity: 0.8"/>
    <path d="M 259.202571 311.82831 
L 270.866329 315.291211 
L 277.759507 309.304019 
L 266.128192 305.870334 
z
" clip-path="url(#p2907427d01)" style="fill: #4682b4; fill-opacity: 0.8"/>
    <path d="M 368.488162 312.07637 
L 380.422218 315.540491 
L 386.852819 309.551192 
L 374.953482 306.116303 
z
" clip-path="url(#p2907427d01)" style="fill: #4682b4; fill-opacity: 0.8"/>
    <path d="M 180.123611 312.506229 
L 191.598828 315.972463 
L 198.830979 309.979515 
L 187.386598 306.542539 
z
" clip-path="url(#p2907427d01)" style="fill: #4682b4; fill-opacity: 0.8"/>
    <path d="M 289.447807 312.754527 
L 301.193514 316.221982 
L 307.962761 310.226925 
L 296.250168 306.788744 
z
" clip-path="url(#p2907427d01)" style="fill: #4682b4; fill-opacity: 0.8"/>
    <path d="M 398.810466 313.002913 
L 410.826851 316.47159 
L 417.132869 310.474422 
L 405.151877 307.035035 
z
" clip-path="url(#p2907427d01)" style="fill: #4682b4; fill-opacity: 0.8"/>
    <path d="M 210.331457 313.433337 
L 221.888445 316.904131 
L 228.996987 310.903306 
L 217.471503 307.461829 
z
" clip-path="url(#p2907427d01)" style="fill: #4682b4; fill-opacity: 0.8"/>
    <path d="M 319.732775 313.681962 
L 331.560635 317.153979 
L 338.20562 311.151041 
L 326.411547 307.708356 
z
" clip-path="url(#p2907427d01)" style="fill: #4682b4; fill-opacity: 0.8"/>
    <path d="M 429.172609 313.930674 
L 441.271529 317.403915 
L 447.452631 311.398863 
L 435.389781 307.954969 
z
" clip-path="url(#p2907427d01)" style="fill: #4682b4; fill-opacity: 0.8"/>
    <path d="M 240.579003 314.361664 
L 252.217968 317.837026 
L 259.202571 311.82831 
L 247.59578 308.382321 
z
" clip-path="url(#p2907427d01)" style="fill: #4682b4; fill-opacity: 0.8"/>
    <path d="M 350.057553 314.610616 
L 361.967771 318.087204 
L 368.488162 312.07637 
L 356.612405 308.629171 
z
" clip-path="url(#p2907427d01)" style="fill: #4682b4; fill-opacity: 0.8"/>
    <path d="M 161.34904 315.04202 
L 172.79874 318.520733 
L 180.123611 312.506229 
L 168.704468 309.056933 
z
" clip-path="url(#p2907427d01)" style="fill: #4682b4; fill-opacity: 0.8"/>
    <path d="M 270.866329 315.291211 
L 282.587476 318.771152 
L 289.447807 312.754527 
L 277.759507 309.304019 
z
" clip-path="url(#p2907427d01)" style="fill: #4682b4; fill-opacity: 0.8"/>
    <path d="M 380.422218 315.540491 
L 392.415003 319.021659 
L 398.810466 313.002913 
L 386.852819 309.551192 
z
" clip-path="url(#p2907427d01)" style="fill: #4682b4; fill-opacity: 0.8"/>
    <path d="M 191.598828 315.972463 
L 203.130533 319.45576 
L 210.331457 313.433337 
L 198.830979 309.979515 
z
" clip-path="url(#p2907427d01)" style="fill: #4682b4; fill-opacity: 0.8"/>
    <path d="M 301.193514 316.221982 
L 312.997049 319.706509 
L 319.732775 313.681962 
L 307.962761 310.226925 
z
" clip-path="url(#p2907427d01)" style="fill: #4682b4; fill-opacity: 0.8"/>
    <path d="M 410.826851 316.47159 
L 422.902409 319.957347 
L 429.172609 313.930674 
L 417.132869 310.474422 
z
" clip-path="url(#p2907427d01)" style="fill: #4682b4; fill-opacity: 0.8"/>
    <path d="M 221.888445 316.904131 
L 233.502361 320.392021 
L 240.579003 314.361664 
L 228.996987 310.903306 
z
" clip-path="url(#p2907427d01)" style="fill: #4682b4; fill-opacity: 0.8"/>
    <path d="M 331.560635 317.153979 
L 343.446766 320.643102 
L 350.057553 314.610616 
L 338.20562 311.151041 
z
" clip-path="url(#p2907427d01)" style="fill: #4682b4; fill-opacity: 0.8"/>
    <path d="M 441.271529 317.403915 
L 453.430068 320.894271 
L 459.57467 314.859655 
L 447.452631 311.398863 
z
" clip-path="url(#p2907427d01)" style="fill: #4682b4; fill-opacity: 0.8"/>
    <path d="M 142.506901 317.586937 
L 153.930826 321.078196 
L 161.34904 315.04202 
L 149.955389 311.580337 
z
" clip-path="url(#p2907427d01)" style="fill: #4682b4; fill-opacity: 0.8"/>
    <path d="M 252.217968 317.837026 
L 263.914302 321.329519 
L 270.866329 315.291211 
L 259.202571 311.82831 
z
" clip-path="url(#p2907427d01)" style="fill: #4682b4; fill-opacity: 0.8"/>
    <path d="M 361.967771 318.087204 
L 373.936707 321.580931 
L 380.422218 315.540491 
L 368.488162 312.07637 
z
" clip-path="url(#p2907427d01)" style="fill: #4682b4; fill-opacity: 0.8"/>
    <path d="M 172.79874 318.520733 
L 184.304904 322.0166 
L 191.598828 315.972463 
L 180.123611 312.506229 
z
" clip-path="url(#p2907427d01)" style="fill: #4682b4; fill-opacity: 0.8"/>
    <path d="M 282.587476 318.771152 
L 294.366436 322.268256 
L 301.193514 316.221982 
L 289.447807 312.754527 
z
" clip-path="url(#p2907427d01)" style="fill: #4682b4; fill-opacity: 0.8"/>
    <path d="M 392.415003 319.021659 
L 404.466951 322.52 
L 410.826851 316.47159 
L 398.810466 313.002913 
z
" clip-path="url(#p2907427d01)" style="fill: #4682b4; fill-opacity: 0.8"/>
    <path d="M 203.130533 319.45576 
L 214.719144 322.956246 
L 221.888445 316.904131 
L 210.331457 313.433337 
z
" clip-path="url(#p2907427d01)" style="fill: #4682b4; fill-opacity: 0.8"/>
    <path d="M 312.997049 319.706509 
L 324.858843 323.208234 
L 331.560635 317.153979 
L 319.732775 313.681962 
z
" clip-path="url(#p2907427d01)" style="fill: #4682b4; fill-opacity: 0.8"/>
    <path d="M 422.902409 319.957347 
L 435.037577 323.460312 
L 441.271529 317.403915 
L 429.172609 313.930674 
z
" clip-path="url(#p2907427d01)" style="fill: #4682b4; fill-opacity: 0.8"/>
    <path d="M 233.502361 320.392021 
L 245.173626 323.897135 
L 252.217968 317.837026 
L 240.579003 314.361664 
z
" clip-path="url(#p2907427d01)" style="fill: #4682b4; fill-opacity: 0.8"/>
    <path d="M 343.446766 320.643102 
L 355.391602 324.149457 
L 361.967771 318.087204 
L 350.057553 314.610616 
z
" clip-path="url(#p2907427d01)" style="fill: #4682b4; fill-opacity: 0.8"/>
    <path d="M 153.930826 321.078196 
L 165.411189 324.586703 
L 172.79874 318.520733 
L 161.34904 315.04202 
z
" clip-path="url(#p2907427d01)" style="fill: #4682b4; fill-opacity: 0.8"/>
    <path d="M 263.914302 321.329519 
L 275.668431 324.839269 
L 282.587476 318.771152 
L 270.866329 315.291211 
z
" clip-path="url(#p2907427d01)" style="fill: #4682b4; fill-opacity: 0.8"/>
    <path d="M 373.936707 321.580931 
L 385.964795 325.091925 
L 392.415003 319.021659 
L 380.422218 315.540491 
z
" clip-path="url(#p2907427d01)" style="fill: #4682b4; fill-opacity: 0.8"/>
    <path d="M 184.304904 322.0166 
L 195.86795 325.529751 
L 203.130533 319.45576 
L 191.598828 315.972463 
z
" clip-path="url(#p2907427d01)" style="fill: #4682b4; fill-opacity: 0.8"/>
    <path d="M 294.366436 322.268256 
L 306.203637 325.782652 
L 312.997049 319.706509 
L 301.193514 316.221982 
z
" clip-path="url(#p2907427d01)" style="fill: #4682b4; fill-opacity: 0.8"/>
    <path d="M 404.466951 322.52 
L 416.5785 326.035643 
L 422.902409 319.957347 
L 410.826851 316.47159 
z
" clip-path="url(#p2907427d01)" style="fill: #4682b4; fill-opacity: 0.8"/>
    <path d="M 214.719144 322.956246 
L 226.365083 326.474049 
L 233.502361 320.392021 
L 221.888445 316.904131 
z
" clip-path="url(#p2907427d01)" style="fill: #4682b4; fill-opacity: 0.8"/>
    <path d="M 324.858843 323.208234 
L 336.779326 326.727285 
L 343.446766 320.643102 
L 331.560635 317.153979 
z
" clip-path="url(#p2907427d01)" style="fill: #4682b4; fill-opacity: 0.8"/>
    <path d="M 435.037577 323.460312 
L 447.232799 326.980612 
L 453.430068 320.894271 
L 441.271529 317.403915 
z
" clip-path="url(#p2907427d01)" style="fill: #4682b4; fill-opacity: 0.8"/>
    <path d="M 134.994719 323.644902 
L 146.44902 327.166117 
L 153.930826 321.078196 
L 142.506901 317.586937 
z
" clip-path="url(#p2907427d01)" style="fill: #4682b4; fill-opacity: 0.8"/>
    <path d="M 245.173626 323.897135 
L 256.902667 327.419599 
L 263.914302 321.329519 
L 252.217968 317.837026 
z
" clip-path="url(#p2907427d01)" style="fill: #4682b4; fill-opacity: 0.8"/>
    <path d="M 355.391602 324.149457 
L 367.395578 327.673172 
L 373.936707 321.580931 
L 361.967771 318.087204 
z
" clip-path="url(#p2907427d01)" style="fill: #4682b4; fill-opacity: 0.8"/>
    <path d="M 165.411189 324.586703 
L 176.948411 328.112586 
L 184.304904 322.0166 
L 172.79874 318.520733 
z
" clip-path="url(#p2907427d01)" style="fill: #4682b4; fill-opacity: 0.8"/>
    <path d="M 275.668431 324.839269 
L 287.480784 328.366405 
L 294.366436 322.268256 
L 282.587476 318.771152 
z
" clip-path="url(#p2907427d01)" style="fill: #4682b4; fill-opacity: 0.8"/>
    <path d="M 385.964795 325.091925 
L 398.052474 328.620314 
L 404.466951 322.52 
L 392.415003 319.021659 
z
" clip-path="url(#p2907427d01)" style="fill: #4682b4; fill-opacity: 0.8"/>
    <path d="M 195.86795 325.529751 
L 207.488303 329.060312 
L 214.719144 322.956246 
L 203.130533 319.45576 
z
" clip-path="url(#p2907427d01)" style="fill: #4682b4; fill-opacity: 0.8"/>
    <path d="M 306.203637 325.782652 
L 318.099513 329.314468 
L 324.858843 323.208234 
L 312.997049 319.706509 
z
" clip-path="url(#p2907427d01)" style="fill: #4682b4; fill-opacity: 0.8"/>
    <path d="M 416.5785 326.035643 
L 428.750095 329.568715 
L 435.037577 323.460312 
L 422.902409 319.957347 
z
" clip-path="url(#p2907427d01)" style="fill: #4682b4; fill-opacity: 0.8"/>
    <path d="M 226.365083 326.474049 
L 238.068777 330.009297 
L 245.173626 323.897135 
L 233.502361 320.392021 
z
" clip-path="url(#p2907427d01)" style="fill: #4682b4; fill-opacity: 0.8"/>
    <path d="M 336.779326 326.727285 
L 348.758936 330.263791 
L 355.391602 324.149457 
L 343.446766 320.643102 
z
" clip-path="url(#p2907427d01)" style="fill: #4682b4; fill-opacity: 0.8"/>
    <path d="M 146.44902 327.166117 
L 157.960152 330.704802 
L 165.411189 324.586703 
L 153.930826 321.078196 
z
" clip-path="url(#p2907427d01)" style="fill: #4682b4; fill-opacity: 0.8"/>
    <path d="M 256.902667 327.419599 
L 268.689914 330.959544 
L 275.668431 324.839269 
L 263.914302 321.329519 
z
" clip-path="url(#p2907427d01)" style="fill: #4682b4; fill-opacity: 0.8"/>
    <path d="M 367.395578 327.673172 
L 379.459135 331.214377 
L 385.964795 325.091925 
L 373.936707 321.580931 
z
" clip-path="url(#p2907427d01)" style="fill: #4682b4; fill-opacity: 0.8"/>
    <path d="M 176.948411 328.112586 
L 188.542913 331.655975 
L 195.86795 325.529751 
L 184.304904 322.0166 
z
" clip-path="url(#p2907427d01)" style="fill: #4682b4; fill-opacity: 0.8"/>
    <path d="M 287.480784 328.366405 
L 299.351795 331.911056 
L 306.203637 325.782652 
L 294.366436 322.268256 
z
" clip-path="url(#p2907427d01)" style="fill: #4682b4; fill-opacity: 0.8"/>
    <path d="M 398.052474 328.620314 
L 410.20019 332.166228 
L 416.5785 326.035643 
L 404.466951 322.52 
z
" clip-path="url(#p2907427d01)" style="fill: #4682b4; fill-opacity: 0.8"/>
    <path d="M 207.488303 329.060312 
L 219.166387 332.608414 
L 226.365083 326.474049 
L 214.719144 322.956246 
z
" clip-path="url(#p2907427d01)" style="fill: #4682b4; fill-opacity: 0.8"/>
    <path d="M 318.099513 329.314468 
L 330.054501 332.863834 
L 336.779326 326.727285 
L 324.858843 323.208234 
z
" clip-path="url(#p2907427d01)" style="fill: #4682b4; fill-opacity: 0.8"/>
    <path d="M 428.750095 329.568715 
L 440.982183 333.119346 
L 447.232799 326.980612 
L 435.037577 323.460312 
z
" clip-path="url(#p2907427d01)" style="fill: #4682b4; fill-opacity: 0.8"/>
    <path d="M 127.418022 329.754894 
L 138.902799 333.306451 
L 146.44902 327.166117 
L 134.994719 323.644902 
z
" clip-path="url(#p2907427d01)" style="fill: #4682b4; fill-opacity: 0.8"/>
    <path d="M 238.068777 330.009297 
L 249.830656 333.562121 
L 256.902667 327.419599 
L 245.173626 323.897135 
z
" clip-path="url(#p2907427d01)" style="fill: #4682b4; fill-opacity: 0.8"/>
    <path d="M 348.758936 330.263791 
L 360.798114 333.817882 
L 367.395578 327.673172 
L 355.391602 324.149457 
z
" clip-path="url(#p2907427d01)" style="fill: #4682b4; fill-opacity: 0.8"/>
    <path d="M 157.960152 330.704802 
L 169.52854 334.261089 
L 176.948411 328.112586 
L 165.411189 324.586703 
z
" clip-path="url(#p2907427d01)" style="fill: #4682b4; fill-opacity: 0.8"/>
    <path d="M 268.689914 330.959544 
L 280.5358 334.5171 
L 287.480784 328.366405 
L 275.668431 324.839269 
z
" clip-path="url(#p2907427d01)" style="fill: #4682b4; fill-opacity: 0.8"/>
    <path d="M 379.459135 331.214377 
L 391.582716 334.773202 
L 398.052474 328.620314 
L 385.964795 325.091925 
z
" clip-path="url(#p2907427d01)" style="fill: #4682b4; fill-opacity: 0.8"/>
    <path d="M 188.542913 331.655975 
L 200.195125 335.217 
L 207.488303 329.060312 
L 195.86795 325.529751 
z
" clip-path="url(#p2907427d01)" style="fill: #4682b4; fill-opacity: 0.8"/>
    <path d="M 299.351795 331.911056 
L 311.281901 335.473352 
L 318.099513 329.314468 
L 306.203637 325.782652 
z
" clip-path="url(#p2907427d01)" style="fill: #4682b4; fill-opacity: 0.8"/>
    <path d="M 410.20019 332.166228 
L 422.408389 335.729796 
L 428.750095 329.568715 
L 416.5785 326.035643 
z
" clip-path="url(#p2907427d01)" style="fill: #4682b4; fill-opacity: 0.8"/>
    <path d="M 219.166387 332.608414 
L 230.902636 336.174187 
L 238.068777 330.009297 
L 226.365083 326.474049 
z
" clip-path="url(#p2907427d01)" style="fill: #4682b4; fill-opacity: 0.8"/>
    <path d="M 330.054501 332.863834 
L 342.069042 336.430881 
L 348.758936 330.263791 
L 336.779326 326.727285 
z
" clip-path="url(#p2907427d01)" style="fill: #4682b4; fill-opacity: 0.8"/>
    <path d="M 138.902799 333.306451 
L 150.444805 336.875707 
L 157.960152 330.704802 
L 146.44902 327.166117 
z
" clip-path="url(#p2907427d01)" style="fill: #4682b4; fill-opacity: 0.8"/>
    <path d="M 249.830656 333.562121 
L 261.651155 337.132652 
L 268.689914 330.959544 
L 256.902667 327.419599 
z
" clip-path="url(#p2907427d01)" style="fill: #4682b4; fill-opacity: 0.8"/>
    <path d="M 360.798114 333.817882 
L 372.897305 337.389689 
L 379.459135 331.214377 
L 367.395578 327.673172 
z
" clip-path="url(#p2907427d01)" style="fill: #4682b4; fill-opacity: 0.8"/>
    <path d="M 169.52854 334.261089 
L 181.154612 337.835109 
L 188.542913 331.655975 
L 176.948411 328.112586 
z
" clip-path="url(#p2907427d01)" style="fill: #4682b4; fill-opacity: 0.8"/>
    <path d="M 280.5358 334.5171 
L 292.440765 338.092398 
L 299.351795 331.911056 
L 287.480784 328.366405 
z
" clip-path="url(#p2907427d01)" style="fill: #4682b4; fill-opacity: 0.8"/>
    <path d="M 391.582716 334.773202 
L 403.766772 338.349779 
L 410.20019 332.166228 
L 398.052474 328.620314 
z
" clip-path="url(#p2907427d01)" style="fill: #4682b4; fill-opacity: 0.8"/>
    <path d="M 200.195125 335.217 
L 211.905478 338.795794 
L 219.166387 332.608414 
L 207.488303 329.060312 
z
" clip-path="url(#p2907427d01)" style="fill: #4682b4; fill-opacity: 0.8"/>
    <path d="M 311.281901 335.473352 
L 323.271547 339.053427 
L 330.054501 332.863834 
L 318.099513 329.314468 
z
" clip-path="url(#p2907427d01)" style="fill: #4682b4; fill-opacity: 0.8"/>
    <path d="M 422.408389 335.729796 
L 434.677526 339.311152 
L 440.982183 333.119346 
L 428.750095 329.568715 
z
" clip-path="url(#p2907427d01)" style="fill: #4682b4; fill-opacity: 0.8"/>
    <path d="M 119.775975 335.917584 
L 131.291329 339.499879 
L 138.902799 333.306451 
L 127.418022 329.754894 
z
" clip-path="url(#p2907427d01)" style="fill: #4682b4; fill-opacity: 0.8"/>
    <path d="M 230.902636 336.174187 
L 242.697484 339.757764 
L 249.830656 333.562121 
L 238.068777 330.009297 
z
" clip-path="url(#p2907427d01)" style="fill: #4682b4; fill-opacity: 0.8"/>
    <path d="M 342.069042 336.430881 
L 354.143584 340.015742 
L 360.798114 333.817882 
L 348.758936 330.263791 
z
" clip-path="url(#p2907427d01)" style="fill: #4682b4; fill-opacity: 0.8"/>
    <path d="M 150.444805 336.875707 
L 162.044469 340.462792 
L 169.52854 334.261089 
L 157.960152 330.704802 
z
" clip-path="url(#p2907427d01)" style="fill: #4682b4; fill-opacity: 0.8"/>
    <path d="M 261.651155 337.132652 
L 273.530714 340.721023 
L 280.5358 334.5171 
L 268.689914 330.959544 
z
" clip-path="url(#p2907427d01)" style="fill: #4682b4; fill-opacity: 0.8"/>
    <path d="M 372.897305 337.389689 
L 385.056959 340.979346 
L 391.582716 334.773202 
L 379.459135 331.214377 
z
" clip-path="url(#p2907427d01)" style="fill: #4682b4; fill-opacity: 0.8"/>
    <path d="M 181.154612 337.835109 
L 192.838801 341.426995 
L 200.195125 335.217 
L 188.542913 331.655975 
z
" clip-path="url(#p2907427d01)" style="fill: #4682b4; fill-opacity: 0.8"/>
    <path d="M 292.440765 338.092398 
L 304.405251 341.685571 
L 311.281901 335.473352 
L 299.351795 331.911056 
z
" clip-path="url(#p2907427d01)" style="fill: #4682b4; fill-opacity: 0.8"/>
    <path d="M 403.766772 338.349779 
L 416.011756 341.944241 
L 422.408389 335.729796 
L 410.20019 332.166228 
z
" clip-path="url(#p2907427d01)" style="fill: #4682b4; fill-opacity: 0.8"/>
    <path d="M 211.905478 338.795794 
L 223.674408 342.39249 
L 230.902636 336.174187 
L 219.166387 332.608414 
z
" clip-path="url(#p2907427d01)" style="fill: #4682b4; fill-opacity: 0.8"/>
    <path d="M 323.271547 339.053427 
L 335.321177 342.651413 
L 342.069042 336.430881 
L 330.054501 332.863834 
z
" clip-path="url(#p2907427d01)" style="fill: #4682b4; fill-opacity: 0.8"/>
    <path d="M 131.291329 339.499879 
L 142.864314 343.100102 
L 150.444805 336.875707 
L 138.902799 333.306451 
z
" clip-path="url(#p2907427d01)" style="fill: #4682b4; fill-opacity: 0.8"/>
    <path d="M 242.697484 339.757764 
L 254.551372 343.35928 
L 261.651155 337.132652 
L 249.830656 333.562121 
z
" clip-path="url(#p2907427d01)" style="fill: #4682b4; fill-opacity: 0.8"/>
    <path d="M 354.143584 340.015742 
L 366.278576 343.61855 
L 372.897305 337.389689 
L 360.798114 333.817882 
z
" clip-path="url(#p2907427d01)" style="fill: #4682b4; fill-opacity: 0.8"/>
    <path d="M 162.044469 340.462792 
L 173.702225 344.067841 
L 181.154612 337.835109 
L 169.52854 334.261089 
z
" clip-path="url(#p2907427d01)" style="fill: #4682b4; fill-opacity: 0.8"/>
    <path d="M 273.530714 340.721023 
L 285.469777 344.327367 
L 292.440765 338.092398 
L 280.5358 334.5171 
z
" clip-path="url(#p2907427d01)" style="fill: #4682b4; fill-opacity: 0.8"/>
    <path d="M 385.056959 340.979346 
L 397.277531 344.586986 
L 403.766772 338.349779 
L 391.582716 334.773202 
z
" clip-path="url(#p2907427d01)" style="fill: #4682b4; fill-opacity: 0.8"/>
    <path d="M 192.838801 341.426995 
L 204.581544 345.03688 
L 211.905478 338.795794 
L 200.195125 335.217 
z
" clip-path="url(#p2907427d01)" style="fill: #4682b4; fill-opacity: 0.8"/>
    <path d="M 304.405251 341.685571 
L 316.429706 345.296755 
L 323.271547 339.053427 
L 311.281901 335.473352 
z
" clip-path="url(#p2907427d01)" style="fill: #4682b4; fill-opacity: 0.8"/>
    <path d="M 416.011756 341.944241 
L 428.318126 345.556723 
L 434.677526 339.311152 
L 422.408389 335.729796 
z
" clip-path="url(#p2907427d01)" style="fill: #4682b4; fill-opacity: 0.8"/>
    <path d="M 112.067729 342.133659 
L 123.61376 345.747092 
L 131.291329 339.499879 
L 119.775975 335.917584 
z
" clip-path="url(#p2907427d01)" style="fill: #4682b4; fill-opacity: 0.8"/>
    <path d="M 223.674408 342.39249 
L 235.502356 346.007222 
L 242.697484 339.757764 
L 230.902636 336.174187 
z
" clip-path="url(#p2907427d01)" style="fill: #4682b4; fill-opacity: 0.8"/>
    <path d="M 335.321177 342.651413 
L 347.431243 346.267445 
L 354.143584 340.015742 
L 342.069042 336.430881 
z
" clip-path="url(#p2907427d01)" style="fill: #4682b4; fill-opacity: 0.8"/>
    <path d="M 142.864314 343.100102 
L 154.495362 346.718388 
L 162.044469 340.462792 
L 150.444805 336.875707 
z
" clip-path="url(#p2907427d01)" style="fill: #4682b4; fill-opacity: 0.8"/>
    <path d="M 254.551372 343.35928 
L 266.464744 346.978867 
L 273.530714 340.721023 
L 261.651155 337.132652 
z
" clip-path="url(#p2907427d01)" style="fill: #4682b4; fill-opacity: 0.8"/>
    <path d="M 366.278576 343.61855 
L 378.474473 347.239441 
L 385.056959 340.979346 
L 372.897305 337.389689 
z
" clip-path="url(#p2907427d01)" style="fill: #4682b4; fill-opacity: 0.8"/>
    <path d="M 173.702225 344.067841 
L 185.418508 347.69099 
L 192.838801 341.426995 
L 181.154612 337.835109 
z
" clip-path="url(#p2907427d01)" style="fill: #4682b4; fill-opacity: 0.8"/>
    <path d="M 285.469777 344.327367 
L 297.468791 347.951821 
L 304.405251 341.685571 
L 292.440765 338.092398 
z
" clip-path="url(#p2907427d01)" style="fill: #4682b4; fill-opacity: 0.8"/>
    <path d="M 397.277531 344.586986 
L 409.559478 348.212745 
L 416.011756 341.944241 
L 403.766772 338.349779 
z
" clip-path="url(#p2907427d01)" style="fill: #4682b4; fill-opacity: 0.8"/>
    <path d="M 204.581544 345.03688 
L 216.383282 348.664902 
L 223.674408 342.39249 
L 211.905478 338.795794 
z
" clip-path="url(#p2907427d01)" style="fill: #4682b4; fill-opacity: 0.8"/>
    <path d="M 316.429706 345.296755 
L 328.514583 348.926084 
L 335.321177 342.651413 
L 323.271547 339.053427 
z
" clip-path="url(#p2907427d01)" style="fill: #4682b4; fill-opacity: 0.8"/>
    <path d="M 123.61376 345.747092 
L 135.217826 349.378687 
L 142.864314 343.100102 
L 131.291329 339.499879 
z
" clip-path="url(#p2907427d01)" style="fill: #4682b4; fill-opacity: 0.8"/>
    <path d="M 235.502356 346.007222 
L 247.389767 349.640126 
L 254.551372 343.35928 
L 242.697484 339.757764 
z
" clip-path="url(#p2907427d01)" style="fill: #4682b4; fill-opacity: 0.8"/>
    <path d="M 347.431243 346.267445 
L 359.602202 349.90166 
L 366.278576 343.61855 
L 354.143584 340.015742 
z
" clip-path="url(#p2907427d01)" style="fill: #4682b4; fill-opacity: 0.8"/>
    <path d="M 154.495362 346.718388 
L 166.184913 350.354873 
L 173.702225 344.067841 
L 162.044469 340.462792 
z
" clip-path="url(#p2907427d01)" style="fill: #4682b4; fill-opacity: 0.8"/>
    <path d="M 266.464744 346.978867 
L 278.438048 350.616664 
L 285.469777 344.327367 
L 273.530714 340.721023 
z
" clip-path="url(#p2907427d01)" style="fill: #4682b4; fill-opacity: 0.8"/>
    <path d="M 378.474473 347.239441 
L 390.731735 350.878551 
L 397.277531 344.586986 
L 385.056959 340.979346 
z
" clip-path="url(#p2907427d01)" style="fill: #4682b4; fill-opacity: 0.8"/>
    <path d="M 185.418508 347.69099 
L 197.193762 351.332375 
L 204.581544 345.03688 
L 192.838801 341.426995 
z
" clip-path="url(#p2907427d01)" style="fill: #4682b4; fill-opacity: 0.8"/>
    <path d="M 297.468791 347.951821 
L 309.52821 351.59452 
L 316.429706 345.296755 
L 304.405251 341.685571 
z
" clip-path="url(#p2907427d01)" style="fill: #4682b4; fill-opacity: 0.8"/>
    <path d="M 409.559478 348.212745 
L 421.903266 351.85676 
L 428.318126 345.556723 
L 416.011756 341.944241 
z
" clip-path="url(#p2907427d01)" style="fill: #4682b4; fill-opacity: 0.8"/>
    <path d="M 216.383282 348.664902 
L 228.24446 352.311197 
L 235.502356 346.007222 
L 223.674408 342.39249 
z
" clip-path="url(#p2907427d01)" style="fill: #4682b4; fill-opacity: 0.8"/>
    <path d="M 328.514583 348.926084 
L 340.660336 352.573696 
L 347.431243 346.267445 
L 335.321177 342.651413 
z
" clip-path="url(#p2907427d01)" style="fill: #4682b4; fill-opacity: 0.8"/>
    <path d="M 135.217826 349.378687 
L 146.880367 353.028582 
L 154.495362 346.718388 
L 142.864314 343.100102 
z
" clip-path="url(#p2907427d01)" style="fill: #4682b4; fill-opacity: 0.8"/>
    <path d="M 247.389767 349.640126 
L 259.33709 353.29134 
L 266.464744 346.978867 
L 254.551372 343.35928 
z
" clip-path="url(#p2907427d01)" style="fill: #4682b4; fill-opacity: 0.8"/>
    <path d="M 359.602202 349.90166 
L 371.834514 353.554194 
L 378.474473 347.239441 
L 366.278576 343.61855 
z
" clip-path="url(#p2907427d01)" style="fill: #4682b4; fill-opacity: 0.8"/>
    <path d="M 166.184913 350.354873 
L 177.933407 354.009695 
L 185.418508 347.69099 
L 173.702225 344.067841 
z
" clip-path="url(#p2907427d01)" style="fill: #4682b4; fill-opacity: 0.8"/>
    <path d="M 278.438048 350.616664 
L 290.471738 354.272808 
L 297.468791 347.951821 
L 285.469777 344.327367 
z
" clip-path="url(#p2907427d01)" style="fill: #4682b4; fill-opacity: 0.8"/>
    <path d="M 390.731735 350.878551 
L 403.050827 354.536017 
L 409.559478 348.212745 
L 397.277531 344.586986 
z
" clip-path="url(#p2907427d01)" style="fill: #4682b4; fill-opacity: 0.8"/>
    <path d="M 197.193762 351.332375 
L 209.028433 354.992134 
L 216.383282 348.664902 
L 204.581544 345.03688 
z
" clip-path="url(#p2907427d01)" style="fill: #4682b4; fill-opacity: 0.8"/>
    <path d="M 309.52821 351.59452 
L 321.64849 355.255604 
L 328.514583 348.926084 
L 316.429706 345.296755 
z
" clip-path="url(#p2907427d01)" style="fill: #4682b4; fill-opacity: 0.8"/>
    <path d="M 228.24446 352.311197 
L 240.165529 355.975903 
L 247.389767 349.640126 
L 235.502356 346.007222 
z
" clip-path="url(#p2907427d01)" style="fill: #4682b4; fill-opacity: 0.8"/>
    <path d="M 340.660336 352.573696 
L 352.867429 356.239729 
L 359.602202 349.90166 
L 347.431243 346.267445 
z
" clip-path="url(#p2907427d01)" style="fill: #4682b4; fill-opacity: 0.8"/>
    <path d="M 146.880367 353.028582 
L 158.601824 356.696915 
L 166.184913 350.354873 
L 154.495362 346.718388 
z
" clip-path="url(#p2907427d01)" style="fill: #4682b4; fill-opacity: 0.8"/>
    <path d="M 259.33709 353.29134 
L 271.34478 356.961003 
L 278.438048 350.616664 
L 266.464744 346.978867 
z
" clip-path="url(#p2907427d01)" style="fill: #4682b4; fill-opacity: 0.8"/>
    <path d="M 371.834514 353.554194 
L 384.128643 357.225187 
L 390.731735 350.878551 
L 378.474473 347.239441 
z
" clip-path="url(#p2907427d01)" style="fill: #4682b4; fill-opacity: 0.8"/>
    <path d="M 177.933407 354.009695 
L 189.741293 357.682993 
L 197.193762 351.332375 
L 185.418508 347.69099 
z
" clip-path="url(#p2907427d01)" style="fill: #4682b4; fill-opacity: 0.8"/>
    <path d="M 290.471738 354.272808 
L 302.566273 357.947438 
L 309.52821 351.59452 
L 297.468791 347.951821 
z
" clip-path="url(#p2907427d01)" style="fill: #4682b4; fill-opacity: 0.8"/>
    <path d="M 403.050827 354.536017 
L 415.432217 358.21198 
L 421.903266 351.85676 
L 409.559478 348.212745 
z
" clip-path="url(#p2907427d01)" style="fill: #4682b4; fill-opacity: 0.8"/>
    <path d="M 209.028433 354.992134 
L 220.922971 358.670407 
L 228.24446 352.311197 
L 216.383282 348.664902 
z
" clip-path="url(#p2907427d01)" style="fill: #4682b4; fill-opacity: 0.8"/>
    <path d="M 321.64849 355.255604 
L 333.830093 358.935211 
L 340.660336 352.573696 
L 328.514583 348.926084 
z
" clip-path="url(#p2907427d01)" style="fill: #4682b4; fill-opacity: 0.8"/>
    <path d="M 240.165529 355.975903 
L 252.146943 359.65916 
L 259.33709 353.29134 
L 247.389767 349.640126 
z
" clip-path="url(#p2907427d01)" style="fill: #4682b4; fill-opacity: 0.8"/>
    <path d="M 352.867429 356.239729 
L 365.136327 359.924323 
L 371.834514 353.554194 
L 359.602202 349.90166 
z
" clip-path="url(#p2907427d01)" style="fill: #4682b4; fill-opacity: 0.8"/>
    <path d="M 158.601824 356.696915 
L 170.382646 360.383828 
L 177.933407 354.009695 
L 166.184913 350.354873 
z
" clip-path="url(#p2907427d01)" style="fill: #4682b4; fill-opacity: 0.8"/>
    <path d="M 271.34478 356.961003 
L 283.413295 360.649255 
L 290.471738 354.272808 
L 278.438048 350.616664 
z
" clip-path="url(#p2907427d01)" style="fill: #4682b4; fill-opacity: 0.8"/>
    <path d="M 384.128643 357.225187 
L 396.48506 360.914778 
L 403.050827 354.536017 
L 390.731735 350.878551 
z
" clip-path="url(#p2907427d01)" style="fill: #4682b4; fill-opacity: 0.8"/>
    <path d="M 189.741293 357.682993 
L 201.609022 361.374907 
L 209.028433 354.992134 
L 197.193762 351.332375 
z
" clip-path="url(#p2907427d01)" style="fill: #4682b4; fill-opacity: 0.8"/>
    <path d="M 302.566273 357.947438 
L 314.722114 361.640695 
L 321.64849 355.255604 
L 309.52821 351.59452 
z
" clip-path="url(#p2907427d01)" style="fill: #4682b4; fill-opacity: 0.8"/>
    <path d="M 220.922971 358.670407 
L 232.877832 362.367333 
L 240.165529 355.975903 
L 228.24446 352.311197 
z
" clip-path="url(#p2907427d01)" style="fill: #4682b4; fill-opacity: 0.8"/>
    <path d="M 333.830093 358.935211 
L 346.073487 362.633482 
L 352.867429 356.239729 
L 340.660336 352.573696 
z
" clip-path="url(#p2907427d01)" style="fill: #4682b4; fill-opacity: 0.8"/>
    <path d="M 252.146943 359.65916 
L 264.189162 363.361109 
L 271.34478 356.961003 
L 259.33709 353.29134 
z
" clip-path="url(#p2907427d01)" style="fill: #4682b4; fill-opacity: 0.8"/>
    <path d="M 365.136327 359.924323 
L 377.467499 363.62762 
L 384.128643 357.225187 
L 371.834514 353.554194 
z
" clip-path="url(#p2907427d01)" style="fill: #4682b4; fill-opacity: 0.8"/>
    <path d="M 170.382646 360.383828 
L 182.223284 364.08946 
L 189.741293 357.682993 
L 177.933407 354.009695 
z
" clip-path="url(#p2907427d01)" style="fill: #4682b4; fill-opacity: 0.8"/>
    <path d="M 283.413295 360.649255 
L 295.543099 364.356237 
L 302.566273 357.947438 
L 290.471738 354.272808 
z
" clip-path="url(#p2907427d01)" style="fill: #4682b4; fill-opacity: 0.8"/>
    <path d="M 396.48506 360.914778 
L 408.904239 364.623111 
L 415.432217 358.21198 
L 403.050827 354.536017 
z
" clip-path="url(#p2907427d01)" style="fill: #4682b4; fill-opacity: 0.8"/>
    <path d="M 201.609022 361.374907 
L 213.53705 365.08558 
L 220.922971 358.670407 
L 209.028433 354.992134 
z
" clip-path="url(#p2907427d01)" style="fill: #4682b4; fill-opacity: 0.8"/>
    <path d="M 314.722114 361.640695 
L 326.93973 365.35272 
L 333.830093 358.935211 
L 321.64849 355.255604 
z
" clip-path="url(#p2907427d01)" style="fill: #4682b4; fill-opacity: 0.8"/>
    <path d="M 232.877832 362.367333 
L 244.893476 366.083056 
L 252.146943 359.65916 
L 240.165529 355.975903 
z
" clip-path="url(#p2907427d01)" style="fill: #4682b4; fill-opacity: 0.8"/>
    <path d="M 346.073487 362.633482 
L 358.379142 366.35056 
L 365.136327 359.924323 
L 352.867429 356.239729 
z
" clip-path="url(#p2907427d01)" style="fill: #4682b4; fill-opacity: 0.8"/>
    <path d="M 264.189162 363.361109 
L 276.29265 367.081893 
L 283.413295 360.649255 
L 271.34478 356.961003 
z
" clip-path="url(#p2907427d01)" style="fill: #4682b4; fill-opacity: 0.8"/>
    <path d="M 377.467499 363.62762 
L 389.861422 367.349762 
L 396.48506 360.914778 
L 384.128643 357.225187 
z
" clip-path="url(#p2907427d01)" style="fill: #4682b4; fill-opacity: 0.8"/>
    <path d="M 182.223284 364.08946 
L 194.124196 367.813956 
L 201.609022 361.374907 
L 189.741293 357.682993 
z
" clip-path="url(#p2907427d01)" style="fill: #4682b4; fill-opacity: 0.8"/>
    <path d="M 295.543099 364.356237 
L 307.734659 368.082092 
L 314.722114 361.640695 
L 302.566273 357.947438 
z
" clip-path="url(#p2907427d01)" style="fill: #4682b4; fill-opacity: 0.8"/>
    <path d="M 213.53705 365.08558 
L 225.525838 368.815154 
L 232.877832 362.367333 
L 220.922971 358.670407 
z
" clip-path="url(#p2907427d01)" style="fill: #4682b4; fill-opacity: 0.8"/>
    <path d="M 326.93973 365.35272 
L 339.219591 369.083657 
L 346.073487 362.633482 
L 333.830093 358.935211 
z
" clip-path="url(#p2907427d01)" style="fill: #4682b4; fill-opacity: 0.8"/>
    <path d="M 244.893476 366.083056 
L 256.970368 369.81772 
L 264.189162 363.361109 
L 252.146943 359.65916 
z
" clip-path="url(#p2907427d01)" style="fill: #4682b4; fill-opacity: 0.8"/>
    <path d="M 358.379142 366.35056 
L 370.747534 370.086589 
L 377.467499 363.62762 
L 365.136327 359.924323 
z
" clip-path="url(#p2907427d01)" style="fill: #4682b4; fill-opacity: 0.8"/>
    <path d="M 276.29265 367.081893 
L 288.457876 370.821656 
L 295.543099 364.356237 
L 283.413295 360.649255 
z
" clip-path="url(#p2907427d01)" style="fill: #4682b4; fill-opacity: 0.8"/>
    <path d="M 389.861422 367.349762 
L 402.318576 371.090893 
L 408.904239 364.623111 
L 396.48506 360.914778 
z
" clip-path="url(#p2907427d01)" style="fill: #4682b4; fill-opacity: 0.8"/>
    <path d="M 194.124196 367.813956 
L 206.085843 371.557459 
L 213.53705 365.08558 
L 201.609022 361.374907 
z
" clip-path="url(#p2907427d01)" style="fill: #4682b4; fill-opacity: 0.8"/>
    <path d="M 307.734659 368.082092 
L 319.988449 371.826965 
L 326.93973 365.35272 
L 314.722114 361.640695 
z
" clip-path="url(#p2907427d01)" style="fill: #4682b4; fill-opacity: 0.8"/>
    <path d="M 225.525838 368.815154 
L 237.57585 372.563775 
L 244.893476 366.083056 
L 232.877832 362.367333 
z
" clip-path="url(#p2907427d01)" style="fill: #4682b4; fill-opacity: 0.8"/>
    <path d="M 339.219591 369.083657 
L 351.562176 372.833651 
L 358.379142 366.35056 
L 346.073487 362.633482 
z
" clip-path="url(#p2907427d01)" style="fill: #4682b4; fill-opacity: 0.8"/>
    <path d="M 256.970368 369.81772 
L 269.108978 373.571469 
L 276.29265 367.081893 
L 264.189162 363.361109 
z
" clip-path="url(#p2907427d01)" style="fill: #4682b4; fill-opacity: 0.8"/>
    <path d="M 370.747534 370.086589 
L 383.179145 373.841714 
L 389.861422 367.349762 
L 377.467499 363.62762 
z
" clip-path="url(#p2907427d01)" style="fill: #4682b4; fill-opacity: 0.8"/>
    <path d="M 288.457876 370.821656 
L 300.685313 374.580544 
L 307.734659 368.082092 
L 295.543099 364.356237 
z
" clip-path="url(#p2907427d01)" style="fill: #4682b4; fill-opacity: 0.8"/>
    <path d="M 206.085843 371.557459 
L 218.108691 375.320115 
L 225.525838 368.815154 
L 213.53705 365.08558 
z
" clip-path="url(#p2907427d01)" style="fill: #4682b4; fill-opacity: 0.8"/>
    <path d="M 319.988449 371.826965 
L 332.304946 375.591003 
L 339.219591 369.083657 
L 326.93973 365.35272 
z
" clip-path="url(#p2907427d01)" style="fill: #4682b4; fill-opacity: 0.8"/>
    <path d="M 237.57585 372.563775 
L 249.687558 376.331588 
L 256.970368 369.81772 
L 244.893476 366.083056 
z
" clip-path="url(#p2907427d01)" style="fill: #4682b4; fill-opacity: 0.8"/>
    <path d="M 351.562176 372.833651 
L 363.967966 376.602848 
L 370.747534 370.086589 
L 358.379142 366.35056 
z
" clip-path="url(#p2907427d01)" style="fill: #4682b4; fill-opacity: 0.8"/>
    <path d="M 269.108978 373.571469 
L 281.309779 377.34445 
L 288.457876 370.821656 
L 276.29265 367.081893 
z
" clip-path="url(#p2907427d01)" style="fill: #4682b4; fill-opacity: 0.8"/>
    <path d="M 383.179145 373.841714 
L 395.674461 377.616082 
L 402.318576 371.090893 
L 389.861422 367.349762 
z
" clip-path="url(#p2907427d01)" style="fill: #4682b4; fill-opacity: 0.8"/>
    <path d="M 300.685313 374.580544 
L 312.97544 378.358704 
L 319.988449 371.826965 
L 307.734659 368.082092 
z
" clip-path="url(#p2907427d01)" style="fill: #4682b4; fill-opacity: 0.8"/>
    <path d="M 218.108691 375.320115 
L 230.19321 379.102072 
L 237.57585 372.563775 
L 225.525838 368.815154 
z
" clip-path="url(#p2907427d01)" style="fill: #4682b4; fill-opacity: 0.8"/>
    <path d="M 332.304946 375.591003 
L 344.684633 379.374351 
L 351.562176 372.833651 
L 339.219591 369.083657 
z
" clip-path="url(#p2907427d01)" style="fill: #4682b4; fill-opacity: 0.8"/>
    <path d="M 249.687558 376.331588 
L 261.861437 380.118742 
L 269.108978 373.571469 
L 256.970368 369.81772 
z
" clip-path="url(#p2907427d01)" style="fill: #4682b4; fill-opacity: 0.8"/>
    <path d="M 363.967966 376.602848 
L 376.437447 380.391396 
L 383.179145 373.841714 
L 370.747534 370.086589 
z
" clip-path="url(#p2907427d01)" style="fill: #4682b4; fill-opacity: 0.8"/>
    <path d="M 281.309779 377.34445 
L 293.57325 381.136812 
L 300.685313 374.580544 
L 288.457876 370.821656 
z
" clip-path="url(#p2907427d01)" style="fill: #4682b4; fill-opacity: 0.8"/>
    <path d="M 312.97544 378.358704 
L 325.32874 382.156283 
L 332.304946 375.591003 
L 319.988449 371.826965 
z
" clip-path="url(#p2907427d01)" style="fill: #4682b4; fill-opacity: 0.8"/>
    <path d="M 230.19321 379.102072 
L 242.339877 382.903479 
L 249.687558 376.331588 
L 237.57585 372.563775 
z
" clip-path="url(#p2907427d01)" style="fill: #4682b4; fill-opacity: 0.8"/>
    <path d="M 344.684633 379.374351 
L 357.127997 383.17716 
L 363.967966 376.602848 
L 351.562176 372.833651 
z
" clip-path="url(#p2907427d01)" style="fill: #4682b4; fill-opacity: 0.8"/>
    <path d="M 261.861437 380.118742 
L 274.097965 383.925386 
L 281.309779 377.34445 
L 269.108978 373.571469 
z
" clip-path="url(#p2907427d01)" style="fill: #4682b4; fill-opacity: 0.8"/>
    <path d="M 376.437447 380.391396 
L 388.971112 384.199445 
L 395.674461 377.616082 
L 383.179145 373.841714 
z
" clip-path="url(#p2907427d01)" style="fill: #4682b4; fill-opacity: 0.8"/>
    <path d="M 293.57325 381.136812 
L 305.899877 384.948703 
L 312.97544 378.358704 
L 300.685313 374.580544 
z
" clip-path="url(#p2907427d01)" style="fill: #4682b4; fill-opacity: 0.8"/>
    <path d="M 325.32874 382.156283 
L 337.745702 385.973434 
L 344.684633 379.374351 
L 332.304946 375.591003 
z
" clip-path="url(#p2907427d01)" style="fill: #4682b4; fill-opacity: 0.8"/>
    <path d="M 242.339877 382.903479 
L 254.549172 386.724486 
L 261.861437 380.118742 
L 249.687558 376.331588 
z
" clip-path="url(#p2907427d01)" style="fill: #4682b4; fill-opacity: 0.8"/>
    <path d="M 357.127997 383.17716 
L 369.635531 386.99958 
L 376.437447 380.391396 
L 363.967966 376.602848 
z
" clip-path="url(#p2907427d01)" style="fill: #4682b4; fill-opacity: 0.8"/>
    <path d="M 274.097965 383.925386 
L 286.397629 387.751671 
L 293.57325 381.136812 
L 281.309779 377.34445 
z
" clip-path="url(#p2907427d01)" style="fill: #4682b4; fill-opacity: 0.8"/>
    <path d="M 305.899877 384.948703 
L 318.290147 388.780276 
L 325.32874 382.156283 
L 312.97544 378.358704 
z
" clip-path="url(#p2907427d01)" style="fill: #4682b4; fill-opacity: 0.8"/>
    <path d="M 337.745702 385.973434 
L 350.226818 389.810306 
L 357.127997 383.17716 
L 344.684633 379.374351 
z
" clip-path="url(#p2907427d01)" style="fill: #4682b4; fill-opacity: 0.8"/>
    <path d="M 254.549172 386.724486 
L 266.821581 390.565245 
L 274.097965 383.925386 
L 261.861437 380.118742 
z
" clip-path="url(#p2907427d01)" style="fill: #4682b4; fill-opacity: 0.8"/>
    <path d="M 369.635531 386.99958 
L 382.207733 390.841763 
L 388.971112 384.199445 
L 376.437447 380.391396 
z
" clip-path="url(#p2907427d01)" style="fill: #4682b4; fill-opacity: 0.8"/>
    <path d="M 286.397629 387.751671 
L 298.760918 391.597748 
L 305.899877 384.948703 
L 293.57325 381.136812 
z
" clip-path="url(#p2907427d01)" style="fill: #4682b4; fill-opacity: 0.8"/>
    <path d="M 318.290147 388.780276 
L 330.744556 392.631683 
L 337.745702 385.973434 
L 325.32874 382.156283 
z
" clip-path="url(#p2907427d01)" style="fill: #4682b4; fill-opacity: 0.8"/>
    <path d="M 350.226818 389.810306 
L 362.772587 393.667054 
L 369.635531 386.99958 
L 357.127997 383.17716 
z
" clip-path="url(#p2907427d01)" style="fill: #4682b4; fill-opacity: 0.8"/>
    <path d="M 266.821581 390.565245 
L 279.157594 394.425909 
L 286.397629 387.751671 
L 274.097965 383.925386 
z
" clip-path="url(#p2907427d01)" style="fill: #4682b4; fill-opacity: 0.8"/>
    <path d="M 298.760918 391.597748 
L 311.188327 395.463772 
L 318.290147 388.780276 
L 305.899877 384.948703 
z
" clip-path="url(#p2907427d01)" style="fill: #4682b4; fill-opacity: 0.8"/>
    <path d="M 330.744556 392.631683 
L 343.263602 396.503079 
L 350.226818 389.810306 
L 337.745702 385.973434 
z
" clip-path="url(#p2907427d01)" style="fill: #4682b4; fill-opacity: 0.8"/>
    <path d="M 362.772587 393.667054 
L 375.383514 397.543832 
L 382.207733 390.841763 
L 369.635531 386.99958 
z
" clip-path="url(#p2907427d01)" style="fill: #4682b4; fill-opacity: 0.8"/>
    <path d="M 279.157594 394.425909 
L 291.557708 398.306634 
L 298.760918 391.597748 
L 286.397629 387.751671 
z
" clip-path="url(#p2907427d01)" style="fill: #4682b4; fill-opacity: 0.8"/>
    <path d="M 311.188327 395.463772 
L 323.680356 399.349899 
L 330.744556 392.631683 
L 318.290147 388.780276 
z
" clip-path="url(#p2907427d01)" style="fill: #4682b4; fill-opacity: 0.8"/>
    <path d="M 343.263602 396.503079 
L 355.84779 400.394619 
L 362.772587 393.667054 
L 350.226818 389.810306 
z
" clip-path="url(#p2907427d01)" style="fill: #4682b4; fill-opacity: 0.8"/>
    <path d="M 291.557708 398.306634 
L 304.022423 402.207577 
L 311.188327 395.463772 
L 298.760918 391.597748 
z
" clip-path="url(#p2907427d01)" style="fill: #4682b4; fill-opacity: 0.8"/>
    <path d="M 323.680356 399.349899 
L 336.23751 403.256286 
L 343.263602 396.503079 
L 330.744556 392.631683 
z
" clip-path="url(#p2907427d01)" style="fill: #4682b4; fill-opacity: 0.8"/>
    <path d="M 355.84779 400.394619 
L 368.49763 404.306461 
L 375.383514 397.543832 
L 362.772587 393.667054 
z
" clip-path="url(#p2907427d01)" style="fill: #4682b4; fill-opacity: 0.8"/>
    <path d="M 304.022423 402.207577 
L 316.552245 406.128896 
L 323.680356 399.349899 
L 311.188327 395.463772 
z
" clip-path="url(#p2907427d01)" style="fill: #4682b4; fill-opacity: 0.8"/>
    <path d="M 336.23751 403.256286 
L 348.8603 407.183091 
L 355.84779 400.394619 
L 343.263602 396.503079 
z
" clip-path="url(#p2907427d01)" style="fill: #4682b4; fill-opacity: 0.8"/>
    <path d="M 316.552245 406.128896 
L 329.147686 410.07075 
L 336.23751 403.256286 
L 323.680356 399.349899 
z
" clip-path="url(#p2907427d01)" style="fill: #4682b4; fill-opacity: 0.8"/>
    <path d="M 348.8603 407.183091 
L 361.549243 411.130476 
L 368.49763 404.306461 
L 355.84779 400.394619 
z
" clip-path="url(#p2907427d01)" style="fill: #4682b4; fill-opacity: 0.8"/>
    <path d="M 329.147686 410.07075 
L 341.809262 414.033302 
L 348.8603 407.183091 
L 336.23751 403.256286 
z
" clip-path="url(#p2907427d01)" style="fill: #4682b4; fill-opacity: 0.8"/>
    <path d="M 341.809262 414.033302 
L 354.537496 418.016716 
L 361.549243 411.130476 
L 348.8603 407.183091 
z
" clip-path="url(#p2907427d01)" style="fill: #4682b4; fill-opacity: 0.8"/>
   </g>
  </g>
  <g id="axes_2">
   <g id="Path3DCollection_1">
    <defs>
     <path id="m9fdd86c55a" d="M 0 5 
C 1.326016 5 2.597899 4.473168 3.535534 3.535534 
C 4.473168 2.597899 5 1.326016 5 0 
C 5 -1.326016 4.473168 -2.597899 3.535534 -3.535534 
C 2.597899 -4.473168 1.326016 -5 0 -5 
C -1.326016 -5 -2.597899 -4.473168 -3.535534 -3.535534 
C -4.473168 -2.597899 -5 -1.326016 -5 0 
C -5 1.326016 -4.473168 2.597899 -3.535534 3.535534 
C -2.597899 4.473168 -1.326016 5 0 5 
z
" style="stroke: #030303"/>
    </defs>
    <g clip-path="url(#p2907427d01)">
     <use xlink:href="#m9fdd86c55a" x="395.802246" y="188.046491" style="fill: #030303; stroke: #030303"/>
    </g>
   </g>
   <g id="text_1">
    <!--    Data -->
    <g transform="translate(395.802246 188.046491) scale(0.1 -0.1)">
     <defs>
      <path id="DejaVuSans-20" transform="scale(0.015625)"/>
      <path id="DejaVuSans-44" d="M 1259 4147 
L 1259 519 
L 2022 519 
Q 2988 519 3436 956 
Q 3884 1394 3884 2338 
Q 3884 3275 3436 3711 
Q 2988 4147 2022 4147 
L 1259 4147 
z
M 628 4666 
L 1925 4666 
Q 3281 4666 3915 4102 
Q 4550 3538 4550 2338 
Q 4550 1131 3912 565 
Q 3275 0 1925 0 
L 628 0 
L 628 4666 
z
" transform="scale(0.015625)"/>
      <path id="DejaVuSans-61" d="M 2194 1759 
Q 1497 1759 1228 1600 
Q 959 1441 959 1056 
Q 959 750 1161 570 
Q 1363 391 1709 391 
Q 2188 391 2477 730 
Q 2766 1069 2766 1631 
L 2766 1759 
L 2194 1759 
z
M 3341 1997 
L 3341 0 
L 2766 0 
L 2766 531 
Q 2569 213 2275 61 
Q 1981 -91 1556 -91 
Q 1019 -91 701 211 
Q 384 513 384 1019 
Q 384 1609 779 1909 
Q 1175 2209 1959 2209 
L 2766 2209 
L 2766 2266 
Q 2766 2663 2505 2880 
Q 2244 3097 1772 3097 
Q 1472 3097 1187 3025 
Q 903 2953 641 2809 
L 641 3341 
Q 956 3463 1253 3523 
Q 1550 3584 1831 3584 
Q 2591 3584 2966 3190 
Q 3341 2797 3341 1997 
z
" transform="scale(0.015625)"/>
      <path id="DejaVuSans-74" d="M 1172 4494 
L 1172 3500 
L 2356 3500 
L 2356 3053 
L 1172 3053 
L 1172 1153 
Q 1172 725 1289 603 
Q 1406 481 1766 481 
L 2356 481 
L 2356 0 
L 1766 0 
Q 1100 0 847 248 
Q 594 497 594 1153 
L 594 3053 
L 172 3053 
L 172 3500 
L 594 3500 
L 594 4494 
L 1172 4494 
z
" transform="scale(0.015625)"/>
     </defs>
     <use xlink:href="#DejaVuSans-20"/>
     <use xlink:href="#DejaVuSans-20" x="31.787109"/>
     <use xlink:href="#DejaVuSans-20" x="63.574219"/>
     <use xlink:href="#DejaVuSans-44" x="95.361328"/>
     <use xlink:href="#DejaVuSans-61" x="172.363281"/>
     <use xlink:href="#DejaVuSans-74" x="233.642578"/>
     <use xlink:href="#DejaVuSans-61" x="272.851562"/>
    </g>
   </g>
  </g>
  <g id="axes_3">
   <g id="line2d_4">
    <path d="M 395.802246 188.046491 
L 207.488303 329.060312 
" clip-path="url(#p2907427d01)" style="fill: none; stroke: #73b55b; stroke-width: 2; stroke-linecap: square"/>
   </g>
   <g id="Path3DCollection_2">
    <g clip-path="url(#p2907427d01)">
     <use xlink:href="#m9fdd86c55a" x="207.488303" y="329.060312" style="fill: #030303; stroke: #030303"/>
    </g>
   </g>
   <g id="text_2">
    <!-- Null    -->
    <g transform="translate(178.578928 329.060312) scale(0.1 -0.1)">
     <defs>
      <path id="DejaVuSans-4e" d="M 628 4666 
L 1478 4666 
L 3547 763 
L 3547 4666 
L 4159 4666 
L 4159 0 
L 3309 0 
L 1241 3903 
L 1241 0 
L 628 0 
L 628 4666 
z
" transform="scale(0.015625)"/>
      <path id="DejaVuSans-75" d="M 544 1381 
L 544 3500 
L 1119 3500 
L 1119 1403 
Q 1119 906 1312 657 
Q 1506 409 1894 409 
Q 2359 409 2629 706 
Q 2900 1003 2900 1516 
L 2900 3500 
L 3475 3500 
L 3475 0 
L 2900 0 
L 2900 538 
Q 2691 219 2414 64 
Q 2138 -91 1772 -91 
Q 1169 -91 856 284 
Q 544 659 544 1381 
z
M 1991 3584 
L 1991 3584 
z
" transform="scale(0.015625)"/>
      <path id="DejaVuSans-6c" d="M 603 4863 
L 1178 4863 
L 1178 0 
L 603 0 
L 603 4863 
z
" transform="scale(0.015625)"/>
     </defs>
     <use xlink:href="#DejaVuSans-4e"/>
     <use xlink:href="#DejaVuSans-75" x="74.804688"/>
     <use xlink:href="#DejaVuSans-6c" x="138.183594"/>
     <use xlink:href="#DejaVuSans-6c" x="165.966797"/>
     <use xlink:href="#DejaVuSans-20" x="193.75"/>
     <use xlink:href="#DejaVuSans-20" x="225.537109"/>
     <use xlink:href="#DejaVuSans-20" x="257.324219"/>
    </g>
   </g>
  </g>
  <g id="axes_4">
   <g id="line2d_5">
    <path d="M 393.229204 303.61239 
L 207.488303 329.060312 
" clip-path="url(#p2907427d01)" style="fill: none; stroke: #f79a52; stroke-width: 2; stroke-linecap: square"/>
   </g>
   <g id="Path3DCollection_3">
    <g clip-path="url(#p2907427d01)">
     <use xlink:href="#m9fdd86c55a" x="393.229204" y="303.61239" style="fill: #030303; stroke: #030303"/>
    </g>
   </g>
   <g id="text_3">
    <!--    Fit -->
    <g transform="translate(393.229204 303.61239) scale(0.1 -0.1)">
     <defs>
      <path id="DejaVuSans-46" d="M 628 4666 
L 3309 4666 
L 3309 4134 
L 1259 4134 
L 1259 2759 
L 3109 2759 
L 3109 2228 
L 1259 2228 
L 1259 0 
L 628 0 
L 628 4666 
z
" transform="scale(0.015625)"/>
      <path id="DejaVuSans-69" d="M 603 3500 
L 1178 3500 
L 1178 0 
L 603 0 
L 603 3500 
z
M 603 4863 
L 1178 4863 
L 1178 4134 
L 603 4134 
L 603 4863 
z
" transform="scale(0.015625)"/>
     </defs>
     <use xlink:href="#DejaVuSans-20"/>
     <use xlink:href="#DejaVuSans-20" x="31.787109"/>
     <use xlink:href="#DejaVuSans-20" x="63.574219"/>
     <use xlink:href="#DejaVuSans-46" x="95.361328"/>
     <use xlink:href="#DejaVuSans-69" x="145.630859"/>
     <use xlink:href="#DejaVuSans-74" x="173.414062"/>
    </g>
   </g>
  </g>
  <g id="axes_5">
   <g id="line2d_6">
    <path d="M 395.802246 188.046491 
L 393.229204 303.61239 
" clip-path="url(#p2907427d01)" style="fill: none; stroke: #88c9c1; stroke-width: 2; stroke-linecap: square"/>
   </g>
  </g>
 </g>
 <defs>
  <clipPath id="p2907427d01">
   <rect x="73.44" y="69.12" width="443.52" height="443.52"/>
  </clipPath>
 </defs>
</svg>
