<?xml version="1.0" encoding="utf-8" standalone="no"?>
<!DOCTYPE svg PUBLIC "-//W3C//DTD SVG 1.1//EN"
  "http://www.w3.org/Graphics/SVG/1.1/DTD/svg11.dtd">
<svg xmlns:xlink="http://www.w3.org/1999/xlink" width="576pt" height="576pt" viewBox="0 0 576 576" xmlns="http://www.w3.org/2000/svg" version="1.1">
 <metadata>
  <rdf:RDF xmlns:dc="http://purl.org/dc/elements/1.1/" xmlns:cc="http://creativecommons.org/ns#" xmlns:rdf="http://www.w3.org/1999/02/22-rdf-syntax-ns#">
   <cc:Work>
    <dc:type rdf:resource="http://purl.org/dc/dcmitype/StillImage"/>
    <dc:date>2023-11-26T21:33:45.599094</dc:date>
    <dc:format>image/svg+xml</dc:format>
    <dc:creator>
     <cc:Agent>
      <dc:title>Matplotlib v3.8.0, https://matplotlib.org/</dc:title>
     </cc:Agent>
    </dc:creator>
   </cc:Work>
  </rdf:RDF>
 </metadata>
 <defs>
  <style type="text/css">*{stroke-linejoin: round; stroke-linecap: butt}</style>
 </defs>
 <g id="figure_1">
  <g id="patch_1">
   <path d="M 0 576 
L 576 576 
L 576 0 
L 0 0 
L 0 576 
z
" style="fill: none"/>
  </g>
  <g id="patch_2">
   <path d="M 73.44 512.64 
L 516.96 512.64 
L 516.96 69.12 
L 73.44 69.12 
L 73.44 512.64 
z
" style="fill: none; opacity: 0"/>
  </g>
  <g id="axes_1">
   <g id="line2d_1">
    <path d="M 46.638459 432.108899 
L 341.507612 188.398759 
" clip-path="url(#p90283dfa21)" style="fill: none; stroke: #202020; stroke-opacity: 0.75; stroke-width: 2; stroke-linecap: square"/>
   </g>
   <g id="line2d_2">
    <path d="M -1 237.866703 
L 453.758057 373.214844 
" clip-path="url(#p90283dfa21)" style="fill: none; stroke: #202020; stroke-opacity: 0.75; stroke-width: 2; stroke-linecap: square"/>
   </g>
   <g id="line2d_3">
    <path d="M 208.767935 385.162369 
L 204.264264 187.710955 
" clip-path="url(#p90283dfa21)" style="fill: none; stroke: #202020; stroke-opacity: 0.75; stroke-width: 2; stroke-linecap: square"/>
   </g>
   <g id="Poly3DCollection_1">
    <path d="M 247.620272 204.548336 
L 258.673528 207.587898 
L 265.272285 202.332171 
L 254.248092 199.31698 
z
" clip-path="url(#p90283dfa21)" style="fill: #4682b4; fill-opacity: 0.8"/>
    <path d="M 258.673528 207.587898 
L 269.778442 210.641665 
L 276.347791 205.361397 
L 265.272285 202.332171 
z
" clip-path="url(#p90283dfa21)" style="fill: #4682b4; fill-opacity: 0.8"/>
    <path d="M 240.938835 209.822012 
L 252.021265 212.886242 
L 258.673528 207.587898 
L 247.620272 204.548336 
z
" clip-path="url(#p90283dfa21)" style="fill: #4682b4; fill-opacity: 0.8"/>
    <path d="M 269.778442 210.641665 
L 280.935376 213.709738 
L 287.474971 208.404755 
L 276.347791 205.361397 
z
" clip-path="url(#p90283dfa21)" style="fill: #4682b4; fill-opacity: 0.8"/>
    <path d="M 252.021265 212.886242 
L 263.155699 215.96485 
L 269.778442 210.641665 
L 258.673528 207.587898 
z
" clip-path="url(#p90283dfa21)" style="fill: #4682b4; fill-opacity: 0.8"/>
    <path d="M 280.935376 213.709738 
L 292.144697 216.792216 
L 298.654186 211.462346 
L 287.474971 208.404755 
z
" clip-path="url(#p90283dfa21)" style="fill: #4682b4; fill-opacity: 0.8"/>
    <path d="M 234.203128 215.138524 
L 245.314842 218.227722 
L 252.021265 212.886242 
L 240.938835 209.822012 
z
" clip-path="url(#p90283dfa21)" style="fill: #4682b4; fill-opacity: 0.8"/>
    <path d="M 263.155699 215.96485 
L 274.342505 219.057939 
L 280.935376 213.709738 
L 269.778442 210.641665 
z
" clip-path="url(#p90283dfa21)" style="fill: #4682b4; fill-opacity: 0.8"/>
    <path d="M 292.144697 216.792216 
L 303.406774 219.889203 
L 309.885802 214.534268 
L 298.654186 211.462346 
z
" clip-path="url(#p90283dfa21)" style="fill: #4682b4; fill-opacity: 0.8"/>
    <path d="M 245.314842 218.227722 
L 256.47891 221.331476 
L 263.155699 215.96485 
L 252.021265 212.886242 
z
" clip-path="url(#p90283dfa21)" style="fill: #4682b4; fill-opacity: 0.8"/>
    <path d="M 274.342505 219.057939 
L 285.582051 222.165611 
L 292.144697 216.792216 
L 280.935376 213.709738 
z
" clip-path="url(#p90283dfa21)" style="fill: #4682b4; fill-opacity: 0.8"/>
    <path d="M 303.406774 219.889203 
L 314.721981 223.000799 
L 321.170189 217.620624 
L 309.885802 214.534268 
z
" clip-path="url(#p90283dfa21)" style="fill: #4682b4; fill-opacity: 0.8"/>
    <path d="M 227.412487 220.498395 
L 238.553594 223.612869 
L 245.314842 218.227722 
L 234.203128 215.138524 
z
" clip-path="url(#p90283dfa21)" style="fill: #4682b4; fill-opacity: 0.8"/>
    <path d="M 256.47891 221.331476 
L 267.695703 224.449889 
L 274.342505 219.057939 
L 263.155699 215.96485 
z
" clip-path="url(#p90283dfa21)" style="fill: #4682b4; fill-opacity: 0.8"/>
    <path d="M 285.582051 222.165611 
L 296.874713 225.287968 
L 303.406774 219.889203 
L 292.144697 216.792216 
z
" clip-path="url(#p90283dfa21)" style="fill: #4682b4; fill-opacity: 0.8"/>
    <path d="M 314.721981 223.000799 
L 326.090695 226.12711 
L 332.50772 220.721515 
L 321.170189 217.620624 
z
" clip-path="url(#p90283dfa21)" style="fill: #4682b4; fill-opacity: 0.8"/>
    <path d="M 238.553594 223.612869 
L 249.747409 226.742078 
L 256.47891 221.331476 
L 245.314842 218.227722 
z
" clip-path="url(#p90283dfa21)" style="fill: #4682b4; fill-opacity: 0.8"/>
    <path d="M 267.695703 224.449889 
L 278.965596 227.583063 
L 285.582051 222.165611 
L 274.342505 219.057939 
z
" clip-path="url(#p90283dfa21)" style="fill: #4682b4; fill-opacity: 0.8"/>
    <path d="M 296.874713 225.287968 
L 308.220868 228.425116 
L 314.721981 223.000799 
L 303.406774 219.889203 
z
" clip-path="url(#p90283dfa21)" style="fill: #4682b4; fill-opacity: 0.8"/>
    <path d="M 220.566238 225.902158 
L 231.736847 229.04222 
L 238.553594 223.612869 
L 227.412487 220.498395 
z
" clip-path="url(#p90283dfa21)" style="fill: #4682b4; fill-opacity: 0.8"/>
    <path d="M 326.090695 226.12711 
L 337.513297 229.268239 
L 343.89877 223.837044 
L 332.50772 220.721515 
z
" clip-path="url(#p90283dfa21)" style="fill: #4682b4; fill-opacity: 0.8"/>
    <path d="M 249.747409 226.742078 
L 260.994307 229.886126 
L 267.695703 224.449889 
L 256.47891 221.331476 
z
" clip-path="url(#p90283dfa21)" style="fill: #4682b4; fill-opacity: 0.8"/>
    <path d="M 278.965596 227.583063 
L 290.288966 230.731106 
L 296.874713 225.287968 
L 285.582051 222.165611 
z
" clip-path="url(#p90283dfa21)" style="fill: #4682b4; fill-opacity: 0.8"/>
    <path d="M 308.220868 228.425116 
L 319.620897 231.57716 
L 326.090695 226.12711 
L 314.721981 223.000799 
z
" clip-path="url(#p90283dfa21)" style="fill: #4682b4; fill-opacity: 0.8"/>
    <path d="M 231.736847 229.04222 
L 242.960522 232.197198 
L 249.747409 226.742078 
L 238.553594 223.612869 
z
" clip-path="url(#p90283dfa21)" style="fill: #4682b4; fill-opacity: 0.8"/>
    <path d="M 337.513297 229.268239 
L 348.990169 232.424292 
L 355.343719 226.967315 
L 343.89877 223.837044 
z
" clip-path="url(#p90283dfa21)" style="fill: #4682b4; fill-opacity: 0.8"/>
    <path d="M 260.994307 229.886126 
L 272.294666 233.045119 
L 278.965596 227.583063 
L 267.695703 224.449889 
z
" clip-path="url(#p90283dfa21)" style="fill: #4682b4; fill-opacity: 0.8"/>
    <path d="M 290.288966 230.731106 
L 301.666196 233.894121 
L 308.220868 228.425116 
L 296.874713 225.287968 
z
" clip-path="url(#p90283dfa21)" style="fill: #4682b4; fill-opacity: 0.8"/>
    <path d="M 213.663693 231.350355 
L 224.863915 234.51632 
L 231.736847 229.04222 
L 220.566238 225.902158 
z
" clip-path="url(#p90283dfa21)" style="fill: #4682b4; fill-opacity: 0.8"/>
    <path d="M 319.620897 231.57716 
L 331.075184 234.744206 
L 337.513297 229.268239 
L 326.090695 226.12711 
z
" clip-path="url(#p90283dfa21)" style="fill: #4682b4; fill-opacity: 0.8"/>
    <path d="M 242.960522 232.197198 
L 254.237641 235.367199 
L 260.994307 229.886126 
L 249.747409 226.742078 
z
" clip-path="url(#p90283dfa21)" style="fill: #4682b4; fill-opacity: 0.8"/>
    <path d="M 348.990169 232.424292 
L 360.521701 235.595376 
L 366.842952 230.112432 
L 355.343719 226.967315 
z
" clip-path="url(#p90283dfa21)" style="fill: #4682b4; fill-opacity: 0.8"/>
    <path d="M 272.294666 233.045119 
L 283.648869 236.219164 
L 290.288966 230.731106 
L 278.965596 227.583063 
z
" clip-path="url(#p90283dfa21)" style="fill: #4682b4; fill-opacity: 0.8"/>
    <path d="M 301.666196 233.894121 
L 313.09767 237.072218 
L 319.620897 231.57716 
L 308.220868 228.425116 
z
" clip-path="url(#p90283dfa21)" style="fill: #4682b4; fill-opacity: 0.8"/>
    <path d="M 224.863915 234.51632 
L 236.117562 237.697387 
L 242.960522 232.197198 
L 231.736847 229.04222 
z
" clip-path="url(#p90283dfa21)" style="fill: #4682b4; fill-opacity: 0.8"/>
    <path d="M 331.075184 234.744206 
L 342.584117 237.926362 
L 348.990169 232.424292 
L 337.513297 229.268239 
z
" clip-path="url(#p90283dfa21)" style="fill: #4682b4; fill-opacity: 0.8"/>
    <path d="M 254.237641 235.367199 
L 265.568586 238.552331 
L 272.294666 233.045119 
L 260.994307 229.886126 
z
" clip-path="url(#p90283dfa21)" style="fill: #4682b4; fill-opacity: 0.8"/>
    <path d="M 360.521701 235.595376 
L 372.108282 238.781598 
L 378.396855 233.272503 
L 366.842952 230.112432 
z
" clip-path="url(#p90283dfa21)" style="fill: #4682b4; fill-opacity: 0.8"/>
    <path d="M 283.648869 236.219164 
L 295.0573 239.408369 
L 301.666196 233.894121 
L 290.288966 230.731106 
z
" clip-path="url(#p90283dfa21)" style="fill: #4682b4; fill-opacity: 0.8"/>
    <path d="M 206.704156 236.843536 
L 217.934099 240.035727 
L 224.863915 234.51632 
L 213.663693 231.350355 
z
" clip-path="url(#p90283dfa21)" style="fill: #4682b4; fill-opacity: 0.8"/>
    <path d="M 313.09767 237.072218 
L 324.583777 240.265503 
L 331.075184 234.744206 
L 319.620897 231.57716 
z
" clip-path="url(#p90283dfa21)" style="fill: #4682b4; fill-opacity: 0.8"/>
    <path d="M 236.117562 237.697387 
L 247.425018 240.893664 
L 254.237641 235.367199 
L 242.960522 232.197198 
z
" clip-path="url(#p90283dfa21)" style="fill: #4682b4; fill-opacity: 0.8"/>
    <path d="M 342.584117 237.926362 
L 354.148089 241.123735 
L 360.521701 235.595376 
L 348.990169 232.424292 
z
" clip-path="url(#p90283dfa21)" style="fill: #4682b4; fill-opacity: 0.8"/>
    <path d="M 265.568586 238.552331 
L 276.953744 241.752702 
L 283.648869 236.219164 
L 272.294666 233.045119 
z
" clip-path="url(#p90283dfa21)" style="fill: #4682b4; fill-opacity: 0.8"/>
    <path d="M 372.108282 238.781598 
L 383.75031 241.983068 
L 390.005819 236.447632 
L 378.396855 233.272503 
z
" clip-path="url(#p90283dfa21)" style="fill: #4682b4; fill-opacity: 0.8"/>
    <path d="M 295.0573 239.408369 
L 306.520351 242.612842 
L 313.09767 237.072218 
L 301.666196 233.894121 
z
" clip-path="url(#p90283dfa21)" style="fill: #4682b4; fill-opacity: 0.8"/>
    <path d="M 217.934099 240.035727 
L 229.217832 243.243208 
L 236.117562 237.697387 
L 224.863915 234.51632 
z
" clip-path="url(#p90283dfa21)" style="fill: #4682b4; fill-opacity: 0.8"/>
    <path d="M 324.583777 240.265503 
L 336.12491 243.474086 
L 342.584117 237.926362 
L 331.075184 234.744206 
z
" clip-path="url(#p90283dfa21)" style="fill: #4682b4; fill-opacity: 0.8"/>
    <path d="M 247.425018 240.893664 
L 258.78667 244.105261 
L 265.568586 238.552331 
L 254.237641 235.367199 
z
" clip-path="url(#p90283dfa21)" style="fill: #4682b4; fill-opacity: 0.8"/>
    <path d="M 354.148089 241.123735 
L 365.767496 244.336436 
L 372.108282 238.781598 
L 360.521701 235.595376 
z
" clip-path="url(#p90283dfa21)" style="fill: #4682b4; fill-opacity: 0.8"/>
    <path d="M 276.953744 241.752702 
L 288.393506 244.968422 
L 295.0573 239.408369 
L 283.648869 236.219164 
z
" clip-path="url(#p90283dfa21)" style="fill: #4682b4; fill-opacity: 0.8"/>
    <path d="M 383.75031 241.983068 
L 395.448181 245.199894 
L 401.670238 239.637929 
L 390.005819 236.447632 
z
" clip-path="url(#p90283dfa21)" style="fill: #4682b4; fill-opacity: 0.8"/>
    <path d="M 199.686919 242.38226 
L 210.946692 245.601004 
L 217.934099 240.035727 
L 206.704156 236.843536 
z
" clip-path="url(#p90283dfa21)" style="fill: #4682b4; fill-opacity: 0.8"/>
    <path d="M 306.520351 242.612842 
L 318.038413 245.832693 
L 324.583777 240.265503 
L 313.09767 237.072218 
z
" clip-path="url(#p90283dfa21)" style="fill: #4682b4; fill-opacity: 0.8"/>
    <path d="M 229.217832 243.243208 
L 240.555741 246.466089 
L 247.425018 240.893664 
L 236.117562 237.697387 
z
" clip-path="url(#p90283dfa21)" style="fill: #4682b4; fill-opacity: 0.8"/>
    <path d="M 336.12491 243.474086 
L 347.721465 246.698077 
L 354.148089 241.123735 
L 342.584117 237.926362 
z
" clip-path="url(#p90283dfa21)" style="fill: #4682b4; fill-opacity: 0.8"/>
    <path d="M 258.78667 244.105261 
L 270.202907 247.332287 
L 276.953744 241.752702 
L 265.568586 238.552331 
z
" clip-path="url(#p90283dfa21)" style="fill: #4682b4; fill-opacity: 0.8"/>
    <path d="M 365.767496 244.336436 
L 377.442737 247.564574 
L 383.75031 241.983068 
L 372.108282 238.781598 
z
" clip-path="url(#p90283dfa21)" style="fill: #4682b4; fill-opacity: 0.8"/>
    <path d="M 288.393506 244.968422 
L 299.888263 248.199602 
L 306.520351 242.612842 
L 295.0573 239.408369 
z
" clip-path="url(#p90283dfa21)" style="fill: #4682b4; fill-opacity: 0.8"/>
    <path d="M 395.448181 245.199894 
L 407.2023 248.432188 
L 413.390511 242.843503 
L 401.670238 239.637929 
z
" clip-path="url(#p90283dfa21)" style="fill: #4682b4; fill-opacity: 0.8"/>
    <path d="M 210.946692 245.601004 
L 222.260621 248.835229 
L 229.217832 243.243208 
L 217.934099 240.035727 
z
" clip-path="url(#p90283dfa21)" style="fill: #4682b4; fill-opacity: 0.8"/>
    <path d="M 318.038413 245.832693 
L 329.611884 249.068034 
L 336.12491 243.474086 
L 324.583777 240.265503 
z
" clip-path="url(#p90283dfa21)" style="fill: #4682b4; fill-opacity: 0.8"/>
    <path d="M 240.555741 246.466089 
L 251.948218 249.704481 
L 258.78667 244.105261 
L 247.425018 240.893664 
z
" clip-path="url(#p90283dfa21)" style="fill: #4682b4; fill-opacity: 0.8"/>
    <path d="M 347.721465 246.698077 
L 359.373843 249.937587 
L 365.767496 244.336436 
L 354.148089 241.123735 
z
" clip-path="url(#p90283dfa21)" style="fill: #4682b4; fill-opacity: 0.8"/>
    <path d="M 270.202907 247.332287 
L 281.674124 250.574855 
L 288.393506 244.968422 
L 276.953744 241.752702 
z
" clip-path="url(#p90283dfa21)" style="fill: #4682b4; fill-opacity: 0.8"/>
    <path d="M 377.442737 247.564574 
L 389.174215 250.808262 
L 395.448181 245.199894 
L 383.75031 241.983068 
z
" clip-path="url(#p90283dfa21)" style="fill: #4682b4; fill-opacity: 0.8"/>
    <path d="M 192.611261 247.967096 
L 203.900971 251.212725 
L 210.946692 245.601004 
L 199.686919 242.38226 
z
" clip-path="url(#p90283dfa21)" style="fill: #4682b4; fill-opacity: 0.8"/>
    <path d="M 299.888263 248.199602 
L 311.438415 251.446353 
L 318.038413 245.832693 
L 306.520351 242.612842 
z
" clip-path="url(#p90283dfa21)" style="fill: #4682b4; fill-opacity: 0.8"/>
    <path d="M 407.2023 248.432188 
L 419.013073 251.680061 
L 425.16704 246.064463 
L 413.390511 242.843503 
z
" clip-path="url(#p90283dfa21)" style="fill: #4682b4; fill-opacity: 0.8"/>
    <path d="M 222.260621 248.835229 
L 233.629099 252.085047 
L 240.555741 246.466089 
L 229.217832 243.243208 
z
" clip-path="url(#p90283dfa21)" style="fill: #4682b4; fill-opacity: 0.8"/>
    <path d="M 329.611884 249.068034 
L 341.241164 252.318977 
L 347.721465 246.698077 
L 336.12491 243.474086 
z
" clip-path="url(#p90283dfa21)" style="fill: #4682b4; fill-opacity: 0.8"/>
    <path d="M 251.948218 249.704481 
L 263.395658 252.958497 
L 270.202907 247.332287 
L 258.78667 244.105261 
z
" clip-path="url(#p90283dfa21)" style="fill: #4682b4; fill-opacity: 0.8"/>
    <path d="M 359.373843 249.937587 
L 371.082447 253.192729 
L 377.442737 247.564574 
L 365.767496 244.336436 
z
" clip-path="url(#p90283dfa21)" style="fill: #4682b4; fill-opacity: 0.8"/>
    <path d="M 281.674124 250.574855 
L 293.200721 253.833076 
L 299.888263 248.199602 
L 288.393506 244.968422 
z
" clip-path="url(#p90283dfa21)" style="fill: #4682b4; fill-opacity: 0.8"/>
    <path d="M 389.174215 250.808262 
L 400.962337 254.067612 
L 407.2023 248.432188 
L 395.448181 245.199894 
z
" clip-path="url(#p90283dfa21)" style="fill: #4682b4; fill-opacity: 0.8"/>
    <path d="M 203.900971 251.212725 
L 215.24521 254.474031 
L 222.260621 248.835229 
L 210.946692 245.601004 
z
" clip-path="url(#p90283dfa21)" style="fill: #4682b4; fill-opacity: 0.8"/>
    <path d="M 311.438415 251.446353 
L 323.044363 254.708788 
L 329.611884 249.068034 
L 318.038413 245.832693 
z
" clip-path="url(#p90283dfa21)" style="fill: #4682b4; fill-opacity: 0.8"/>
    <path d="M 419.013073 251.680061 
L 430.88091 254.943627 
L 437.00023 249.30092 
L 425.16704 246.064463 
z
" clip-path="url(#p90283dfa21)" style="fill: #4682b4; fill-opacity: 0.8"/>
    <path d="M 233.629099 252.085047 
L 245.052521 255.350572 
L 251.948218 249.704481 
L 240.555741 246.466089 
z
" clip-path="url(#p90283dfa21)" style="fill: #4682b4; fill-opacity: 0.8"/>
    <path d="M 341.241164 252.318977 
L 352.926659 255.585634 
L 359.373843 249.937587 
L 347.721465 246.698077 
z
" clip-path="url(#p90283dfa21)" style="fill: #4682b4; fill-opacity: 0.8"/>
    <path d="M 263.395658 252.958497 
L 274.898459 256.22825 
L 281.674124 250.574855 
L 270.202907 247.332287 
z
" clip-path="url(#p90283dfa21)" style="fill: #4682b4; fill-opacity: 0.8"/>
    <path d="M 371.082447 253.192729 
L 382.847685 256.463616 
L 389.174215 250.808262 
L 377.442737 247.564574 
z
" clip-path="url(#p90283dfa21)" style="fill: #4682b4; fill-opacity: 0.8"/>
    <path d="M 185.476448 253.598623 
L 196.796204 256.871476 
L 203.900971 251.212725 
L 192.611261 247.967096 
z
" clip-path="url(#p90283dfa21)" style="fill: #4682b4; fill-opacity: 0.8"/>
    <path d="M 293.200721 253.833076 
L 304.783097 257.107065 
L 311.438415 251.446353 
L 299.888263 248.199602 
z
" clip-path="url(#p90283dfa21)" style="fill: #4682b4; fill-opacity: 0.8"/>
    <path d="M 400.962337 254.067612 
L 412.807516 257.342737 
L 419.013073 251.680061 
L 407.2023 248.432188 
z
" clip-path="url(#p90283dfa21)" style="fill: #4682b4; fill-opacity: 0.8"/>
    <path d="M 215.24521 254.474031 
L 226.644372 257.751126 
L 233.629099 252.085047 
L 222.260621 248.835229 
z
" clip-path="url(#p90283dfa21)" style="fill: #4682b4; fill-opacity: 0.8"/>
    <path d="M 323.044363 254.708788 
L 334.706511 257.987021 
L 341.241164 252.318977 
L 329.611884 249.068034 
z
" clip-path="url(#p90283dfa21)" style="fill: #4682b4; fill-opacity: 0.8"/>
    <path d="M 430.88091 254.943627 
L 442.806227 258.222999 
L 448.890493 252.552987 
L 437.00023 249.30092 
z
" clip-path="url(#p90283dfa21)" style="fill: #4682b4; fill-opacity: 0.8"/>
    <path d="M 245.052521 255.350572 
L 256.531287 258.631918 
L 263.395658 252.958497 
L 251.948218 249.704481 
z
" clip-path="url(#p90283dfa21)" style="fill: #4682b4; fill-opacity: 0.8"/>
    <path d="M 352.926659 255.585634 
L 364.668777 258.86812 
L 371.082447 253.192729 
L 359.373843 249.937587 
z
" clip-path="url(#p90283dfa21)" style="fill: #4682b4; fill-opacity: 0.8"/>
    <path d="M 274.898459 256.22825 
L 286.457024 259.513854 
L 293.200721 253.833076 
L 281.674124 250.574855 
z
" clip-path="url(#p90283dfa21)" style="fill: #4682b4; fill-opacity: 0.8"/>
    <path d="M 382.847685 256.463616 
L 394.669969 259.750363 
L 400.962337 254.067612 
L 389.174215 250.808262 
z
" clip-path="url(#p90283dfa21)" style="fill: #4682b4; fill-opacity: 0.8"/>
    <path d="M 196.796204 256.871476 
L 208.170863 260.160203 
L 215.24521 254.474031 
L 203.900971 251.212725 
z
" clip-path="url(#p90283dfa21)" style="fill: #4682b4; fill-opacity: 0.8"/>
    <path d="M 304.783097 257.107065 
L 316.42166 260.396936 
L 323.044363 254.708788 
L 311.438415 251.446353 
z
" clip-path="url(#p90283dfa21)" style="fill: #4682b4; fill-opacity: 0.8"/>
    <path d="M 412.807516 257.342737 
L 424.710165 260.633753 
L 430.88091 254.943627 
L 419.013073 251.680061 
z
" clip-path="url(#p90283dfa21)" style="fill: #4682b4; fill-opacity: 0.8"/>
    <path d="M 226.644372 257.751126 
L 238.098858 261.044126 
L 245.052521 255.350572 
L 233.629099 252.085047 
z
" clip-path="url(#p90283dfa21)" style="fill: #4682b4; fill-opacity: 0.8"/>
    <path d="M 334.706511 257.987021 
L 346.42527 261.281168 
L 352.926659 255.585634 
L 341.241164 252.318977 
z
" clip-path="url(#p90283dfa21)" style="fill: #4682b4; fill-opacity: 0.8"/>
    <path d="M 442.806227 258.222999 
L 454.789441 261.518292 
L 460.838242 255.820777 
L 448.890493 252.552987 
z
" clip-path="url(#p90283dfa21)" style="fill: #4682b4; fill-opacity: 0.8"/>
    <path d="M 256.531287 258.631918 
L 268.065799 261.929199 
L 274.898459 256.22825 
L 263.395658 252.958497 
z
" clip-path="url(#p90283dfa21)" style="fill: #4682b4; fill-opacity: 0.8"/>
    <path d="M 364.668777 258.86812 
L 376.46793 262.16655 
L 382.847685 256.463616 
L 371.082447 253.192729 
z
" clip-path="url(#p90283dfa21)" style="fill: #4682b4; fill-opacity: 0.8"/>
    <path d="M 178.281737 259.277428 
L 189.631646 262.577848 
L 196.796204 256.871476 
L 185.476448 253.598623 
z
" clip-path="url(#p90283dfa21)" style="fill: #4682b4; fill-opacity: 0.8"/>
    <path d="M 286.457024 259.513854 
L 298.07176 262.815425 
L 304.783097 257.107065 
L 293.200721 253.833076 
z
" clip-path="url(#p90283dfa21)" style="fill: #4682b4; fill-opacity: 0.8"/>
    <path d="M 394.669969 259.750363 
L 406.549716 263.053085 
L 412.807516 257.342737 
L 400.962337 254.067612 
z
" clip-path="url(#p90283dfa21)" style="fill: #4682b4; fill-opacity: 0.8"/>
    <path d="M 208.170863 260.160203 
L 219.600825 263.464919 
L 226.644372 257.751126 
L 215.24521 254.474031 
z
" clip-path="url(#p90283dfa21)" style="fill: #4682b4; fill-opacity: 0.8"/>
    <path d="M 316.42166 260.396936 
L 328.116819 263.702806 
L 334.706511 257.987021 
L 323.044363 254.708788 
z
" clip-path="url(#p90283dfa21)" style="fill: #4682b4; fill-opacity: 0.8"/>
    <path d="M 424.710165 260.633753 
L 436.670706 263.940775 
L 442.806227 258.222999 
L 430.88091 254.943627 
z
" clip-path="url(#p90283dfa21)" style="fill: #4682b4; fill-opacity: 0.8"/>
    <path d="M 238.098858 261.044126 
L 249.609072 264.353147 
L 256.531287 258.631918 
L 245.052521 255.350572 
z
" clip-path="url(#p90283dfa21)" style="fill: #4682b4; fill-opacity: 0.8"/>
    <path d="M 346.42527 261.281168 
L 358.201051 264.591343 
L 364.668777 258.86812 
L 352.926659 255.585634 
z
" clip-path="url(#p90283dfa21)" style="fill: #4682b4; fill-opacity: 0.8"/>
    <path d="M 454.789441 261.518292 
L 466.830975 264.829623 
L 472.843894 259.104404 
L 460.838242 255.820777 
z
" clip-path="url(#p90283dfa21)" style="fill: #4682b4; fill-opacity: 0.8"/>
    <path d="M 268.065799 261.929199 
L 279.656464 265.242533 
L 286.457024 259.513854 
L 274.898459 256.22825 
z
" clip-path="url(#p90283dfa21)" style="fill: #4682b4; fill-opacity: 0.8"/>
    <path d="M 376.46793 262.16655 
L 388.324534 265.48104 
L 394.669969 259.750363 
L 382.847685 256.463616 
z
" clip-path="url(#p90283dfa21)" style="fill: #4682b4; fill-opacity: 0.8"/>
    <path d="M 189.631646 262.577848 
L 201.036836 265.894344 
L 208.170863 260.160203 
L 196.796204 256.871476 
z
" clip-path="url(#p90283dfa21)" style="fill: #4682b4; fill-opacity: 0.8"/>
    <path d="M 298.07176 262.815425 
L 309.743077 266.13308 
L 316.42166 260.396936 
L 304.783097 257.107065 
z
" clip-path="url(#p90283dfa21)" style="fill: #4682b4; fill-opacity: 0.8"/>
    <path d="M 406.549716 263.053085 
L 418.487345 266.371898 
L 424.710165 260.633753 
L 412.807516 257.342737 
z
" clip-path="url(#p90283dfa21)" style="fill: #4682b4; fill-opacity: 0.8"/>
    <path d="M 219.600825 263.464919 
L 231.086494 266.785742 
L 238.098858 261.044126 
L 226.644372 257.751126 
z
" clip-path="url(#p90283dfa21)" style="fill: #4682b4; fill-opacity: 0.8"/>
    <path d="M 328.116819 263.702806 
L 339.868988 267.02479 
L 346.42527 261.281168 
L 334.706511 257.987021 
z
" clip-path="url(#p90283dfa21)" style="fill: #4682b4; fill-opacity: 0.8"/>
    <path d="M 436.670706 263.940775 
L 448.68956 267.263921 
L 454.789441 261.518292 
L 442.806227 258.222999 
z
" clip-path="url(#p90283dfa21)" style="fill: #4682b4; fill-opacity: 0.8"/>
    <path d="M 249.609072 264.353147 
L 261.175421 267.678306 
L 268.065799 261.929199 
L 256.531287 258.631918 
z
" clip-path="url(#p90283dfa21)" style="fill: #4682b4; fill-opacity: 0.8"/>
    <path d="M 358.201051 264.591343 
L 370.034274 267.917665 
L 376.46793 262.16655 
L 364.668777 258.86812 
z
" clip-path="url(#p90283dfa21)" style="fill: #4682b4; fill-opacity: 0.8"/>
    <path d="M 466.830975 264.829623 
L 478.931256 268.157109 
L 484.907871 262.403983 
L 472.843894 259.104404 
z
" clip-path="url(#p90283dfa21)" style="fill: #4682b4; fill-opacity: 0.8"/>
    <path d="M 171.026369 265.004109 
L 182.406538 268.332447 
L 189.631646 262.577848 
L 178.281737 259.277428 
z
" clip-path="url(#p90283dfa21)" style="fill: #4682b4; fill-opacity: 0.8"/>
    <path d="M 279.656464 265.242533 
L 291.303694 268.572036 
L 298.07176 262.815425 
L 286.457024 259.513854 
z
" clip-path="url(#p90283dfa21)" style="fill: #4682b4; fill-opacity: 0.8"/>
    <path d="M 388.324534 265.48104 
L 400.239012 268.811709 
L 406.549716 263.053085 
L 394.669969 259.750363 
z
" clip-path="url(#p90283dfa21)" style="fill: #4682b4; fill-opacity: 0.8"/>
    <path d="M 201.036836 265.894344 
L 212.497712 269.227033 
L 219.600825 263.464919 
L 208.170863 260.160203 
z
" clip-path="url(#p90283dfa21)" style="fill: #4682b4; fill-opacity: 0.8"/>
    <path d="M 309.743077 266.13308 
L 321.471389 269.466935 
L 328.116819 263.702806 
L 316.42166 260.396936 
z
" clip-path="url(#p90283dfa21)" style="fill: #4682b4; fill-opacity: 0.8"/>
    <path d="M 418.487345 266.371898 
L 430.48328 269.706922 
L 436.670706 263.940775 
L 424.710165 260.633753 
z
" clip-path="url(#p90283dfa21)" style="fill: #4682b4; fill-opacity: 0.8"/>
    <path d="M 231.086494 266.785742 
L 242.62828 270.12279 
L 249.609072 264.353147 
L 238.098858 261.044126 
z
" clip-path="url(#p90283dfa21)" style="fill: #4682b4; fill-opacity: 0.8"/>
    <path d="M 339.868988 267.02479 
L 351.678584 270.363007 
L 358.201051 264.591343 
L 346.42527 261.281168 
z
" clip-path="url(#p90283dfa21)" style="fill: #4682b4; fill-opacity: 0.8"/>
    <path d="M 448.68956 267.263921 
L 460.767155 270.603308 
L 466.830975 264.829623 
L 454.789441 261.518292 
z
" clip-path="url(#p90283dfa21)" style="fill: #4682b4; fill-opacity: 0.8"/>
    <path d="M 261.175421 267.678306 
L 272.798318 271.019721 
L 279.656464 265.242533 
L 268.065799 261.929199 
z
" clip-path="url(#p90283dfa21)" style="fill: #4682b4; fill-opacity: 0.8"/>
    <path d="M 370.034274 267.917665 
L 381.925358 271.260252 
L 388.324534 265.48104 
L 376.46793 262.16655 
z
" clip-path="url(#p90283dfa21)" style="fill: #4682b4; fill-opacity: 0.8"/>
    <path d="M 182.406538 268.332447 
L 193.84237 271.677065 
L 201.036836 265.894344 
L 189.631646 262.577848 
z
" clip-path="url(#p90283dfa21)" style="fill: #4682b4; fill-opacity: 0.8"/>
    <path d="M 291.303694 268.572036 
L 303.007903 271.917827 
L 309.743077 266.13308 
L 298.07176 262.815425 
z
" clip-path="url(#p90283dfa21)" style="fill: #4682b4; fill-opacity: 0.8"/>
    <path d="M 400.239012 268.811709 
L 412.211786 272.158674 
L 418.487345 266.371898 
L 406.549716 263.053085 
z
" clip-path="url(#p90283dfa21)" style="fill: #4682b4; fill-opacity: 0.8"/>
    <path d="M 212.497712 269.227033 
L 224.014684 272.576034 
L 231.086494 266.785742 
L 219.600825 263.464919 
z
" clip-path="url(#p90283dfa21)" style="fill: #4682b4; fill-opacity: 0.8"/>
    <path d="M 321.471389 269.466935 
L 333.257115 272.817112 
L 339.868988 267.02479 
L 328.116819 263.702806 
z
" clip-path="url(#p90283dfa21)" style="fill: #4682b4; fill-opacity: 0.8"/>
    <path d="M 430.48328 269.706922 
L 442.537949 273.058275 
L 448.68956 267.263921 
L 436.670706 263.940775 
z
" clip-path="url(#p90283dfa21)" style="fill: #4682b4; fill-opacity: 0.8"/>
    <path d="M 242.62828 270.12279 
L 254.226593 273.476182 
L 261.175421 267.678306 
L 249.609072 264.353147 
z
" clip-path="url(#p90283dfa21)" style="fill: #4682b4; fill-opacity: 0.8"/>
    <path d="M 351.678584 270.363007 
L 363.546031 273.717577 
L 370.034274 267.917665 
L 358.201051 264.591343 
z
" clip-path="url(#p90283dfa21)" style="fill: #4682b4; fill-opacity: 0.8"/>
    <path d="M 460.767155 270.603308 
L 472.903923 273.959056 
L 478.931256 268.157109 
L 466.830975 264.829623 
z
" clip-path="url(#p90283dfa21)" style="fill: #4682b4; fill-opacity: 0.8"/>
    <path d="M 163.709575 270.779274 
L 175.12011 274.135885 
L 182.406538 268.332447 
L 171.026369 265.004109 
z
" clip-path="url(#p90283dfa21)" style="fill: #4682b4; fill-opacity: 0.8"/>
    <path d="M 272.798318 271.019721 
L 284.478176 274.377512 
L 291.303694 268.572036 
L 279.656464 265.242533 
z
" clip-path="url(#p90283dfa21)" style="fill: #4682b4; fill-opacity: 0.8"/>
    <path d="M 381.925358 271.260252 
L 393.874729 274.619224 
L 400.239012 268.811709 
L 388.324534 265.48104 
z
" clip-path="url(#p90283dfa21)" style="fill: #4682b4; fill-opacity: 0.8"/>
    <path d="M 193.84237 271.677065 
L 205.334275 275.038083 
L 212.497712 269.227033 
L 201.036836 265.894344 
z
" clip-path="url(#p90283dfa21)" style="fill: #4682b4; fill-opacity: 0.8"/>
    <path d="M 303.007903 271.917827 
L 314.769512 275.280027 
L 321.471389 269.466935 
L 309.743077 266.13308 
z
" clip-path="url(#p90283dfa21)" style="fill: #4682b4; fill-opacity: 0.8"/>
    <path d="M 412.211786 272.158674 
L 424.243287 275.522057 
L 430.48328 269.706922 
L 418.487345 266.371898 
z
" clip-path="url(#p90283dfa21)" style="fill: #4682b4; fill-opacity: 0.8"/>
    <path d="M 224.014684 272.576034 
L 235.588163 275.941466 
L 242.62828 270.12279 
L 231.086494 266.785742 
z
" clip-path="url(#p90283dfa21)" style="fill: #4682b4; fill-opacity: 0.8"/>
    <path d="M 333.257115 272.817112 
L 345.100678 276.183728 
L 351.678584 270.363007 
L 339.868988 267.02479 
z
" clip-path="url(#p90283dfa21)" style="fill: #4682b4; fill-opacity: 0.8"/>
    <path d="M 442.537949 273.058275 
L 454.651785 276.426076 
L 460.767155 270.603308 
L 448.68956 267.263921 
z
" clip-path="url(#p90283dfa21)" style="fill: #4682b4; fill-opacity: 0.8"/>
    <path d="M 254.226593 273.476182 
L 265.88185 276.846038 
L 272.798318 271.019721 
L 261.175421 267.678306 
z
" clip-path="url(#p90283dfa21)" style="fill: #4682b4; fill-opacity: 0.8"/>
    <path d="M 363.546031 273.717577 
L 375.471754 277.088619 
L 381.925358 271.260252 
L 370.034274 267.917665 
z
" clip-path="url(#p90283dfa21)" style="fill: #4682b4; fill-opacity: 0.8"/>
    <path d="M 175.12011 274.135885 
L 186.586694 277.508985 
L 193.84237 271.677065 
L 182.406538 268.332447 
z
" clip-path="url(#p90283dfa21)" style="fill: #4682b4; fill-opacity: 0.8"/>
    <path d="M 284.478176 274.377512 
L 296.215417 277.7518 
L 303.007903 271.917827 
L 291.303694 268.572036 
z
" clip-path="url(#p90283dfa21)" style="fill: #4682b4; fill-opacity: 0.8"/>
    <path d="M 393.874729 274.619224 
L 405.882817 277.994701 
L 412.211786 272.158674 
L 400.239012 268.811709 
z
" clip-path="url(#p90283dfa21)" style="fill: #4682b4; fill-opacity: 0.8"/>
    <path d="M 205.334275 275.038083 
L 216.882666 278.415621 
L 224.014684 272.576034 
L 212.497712 269.227033 
z
" clip-path="url(#p90283dfa21)" style="fill: #4682b4; fill-opacity: 0.8"/>
    <path d="M 314.769512 275.280027 
L 326.588942 278.658756 
L 333.257115 272.817112 
L 321.471389 269.466935 
z
" clip-path="url(#p90283dfa21)" style="fill: #4682b4; fill-opacity: 0.8"/>
    <path d="M 424.243287 275.522057 
L 436.333948 278.901977 
L 442.537949 273.058275 
L 430.48328 269.706922 
z
" clip-path="url(#p90283dfa21)" style="fill: #4682b4; fill-opacity: 0.8"/>
    <path d="M 235.588163 275.941466 
L 247.218566 279.323451 
L 254.226593 273.476182 
L 242.62828 270.12279 
z
" clip-path="url(#p90283dfa21)" style="fill: #4682b4; fill-opacity: 0.8"/>
    <path d="M 345.100678 276.183728 
L 357.002504 279.566907 
L 363.546031 273.717577 
L 351.678584 270.363007 
z
" clip-path="url(#p90283dfa21)" style="fill: #4682b4; fill-opacity: 0.8"/>
    <path d="M 454.651785 276.426076 
L 466.825225 279.810449 
L 472.903923 273.959056 
L 460.767155 270.603308 
z
" clip-path="url(#p90283dfa21)" style="fill: #4682b4; fill-opacity: 0.8"/>
    <path d="M 156.330571 276.603542 
L 167.771578 279.988788 
L 175.12011 274.135885 
L 163.709575 270.779274 
z
" clip-path="url(#p90283dfa21)" style="fill: #4682b4; fill-opacity: 0.8"/>
    <path d="M 265.88185 276.846038 
L 277.594473 280.232479 
L 284.478176 274.377512 
L 272.798318 271.019721 
z
" clip-path="url(#p90283dfa21)" style="fill: #4682b4; fill-opacity: 0.8"/>
    <path d="M 375.471754 277.088619 
L 387.456182 280.476256 
L 393.874729 274.619224 
L 381.925358 271.260252 
z
" clip-path="url(#p90283dfa21)" style="fill: #4682b4; fill-opacity: 0.8"/>
    <path d="M 186.586694 277.508985 
L 198.109742 280.898694 
L 205.334275 275.038083 
L 193.84237 271.677065 
z
" clip-path="url(#p90283dfa21)" style="fill: #4682b4; fill-opacity: 0.8"/>
    <path d="M 296.215417 277.7518 
L 308.010465 281.142706 
L 314.769512 275.280027 
L 303.007903 271.917827 
z
" clip-path="url(#p90283dfa21)" style="fill: #4682b4; fill-opacity: 0.8"/>
    <path d="M 405.882817 277.994701 
L 417.950056 281.386805 
L 424.243287 275.522057 
L 412.211786 272.158674 
z
" clip-path="url(#p90283dfa21)" style="fill: #4682b4; fill-opacity: 0.8"/>
    <path d="M 216.882666 278.415621 
L 228.487961 281.809801 
L 235.588163 275.941466 
L 224.014684 272.576034 
z
" clip-path="url(#p90283dfa21)" style="fill: #4682b4; fill-opacity: 0.8"/>
    <path d="M 326.588942 278.658756 
L 338.466622 282.054136 
L 345.100678 276.183728 
L 333.257115 272.817112 
z
" clip-path="url(#p90283dfa21)" style="fill: #4682b4; fill-opacity: 0.8"/>
    <path d="M 436.333948 278.901977 
L 448.484205 282.298557 
L 454.651785 276.426076 
L 442.537949 273.058275 
z
" clip-path="url(#p90283dfa21)" style="fill: #4682b4; fill-opacity: 0.8"/>
    <path d="M 247.218566 279.323451 
L 258.906315 282.722112 
L 265.88185 276.846038 
L 254.226593 273.476182 
z
" clip-path="url(#p90283dfa21)" style="fill: #4682b4; fill-opacity: 0.8"/>
    <path d="M 357.002504 279.566907 
L 368.963025 282.96677 
L 375.471754 277.088619 
L 363.546031 273.717577 
z
" clip-path="url(#p90283dfa21)" style="fill: #4682b4; fill-opacity: 0.8"/>
    <path d="M 167.771578 279.988788 
L 179.269024 283.390734 
L 186.586694 277.508985 
L 175.12011 274.135885 
z
" clip-path="url(#p90283dfa21)" style="fill: #4682b4; fill-opacity: 0.8"/>
    <path d="M 277.594473 280.232479 
L 289.364884 283.635629 
L 296.215417 277.7518 
L 284.478176 274.377512 
z
" clip-path="url(#p90283dfa21)" style="fill: #4682b4; fill-opacity: 0.8"/>
    <path d="M 387.456182 280.476256 
L 399.499752 283.88061 
L 405.882817 277.994701 
L 393.874729 274.619224 
z
" clip-path="url(#p90283dfa21)" style="fill: #4682b4; fill-opacity: 0.8"/>
    <path d="M 198.109742 280.898694 
L 209.689671 284.305136 
L 216.882666 278.415621 
L 205.334275 275.038083 
z
" clip-path="url(#p90283dfa21)" style="fill: #4682b4; fill-opacity: 0.8"/>
    <path d="M 308.010465 281.142706 
L 319.863747 284.550354 
L 326.588942 278.658756 
L 314.769512 275.280027 
z
" clip-path="url(#p90283dfa21)" style="fill: #4682b4; fill-opacity: 0.8"/>
    <path d="M 417.950056 281.386805 
L 430.076884 284.79566 
L 436.333948 278.901977 
L 424.243287 275.522057 
z
" clip-path="url(#p90283dfa21)" style="fill: #4682b4; fill-opacity: 0.8"/>
    <path d="M 228.487961 281.809801 
L 240.150581 285.220748 
L 247.218566 279.323451 
L 235.588163 275.941466 
z
" clip-path="url(#p90283dfa21)" style="fill: #4682b4; fill-opacity: 0.8"/>
    <path d="M 338.466622 282.054136 
L 350.402984 285.466291 
L 357.002504 279.566907 
L 345.100678 276.183728 
z
" clip-path="url(#p90283dfa21)" style="fill: #4682b4; fill-opacity: 0.8"/>
    <path d="M 448.484205 282.298557 
L 460.6945 285.711921 
L 466.825225 279.810449 
L 454.651785 276.426076 
z
" clip-path="url(#p90283dfa21)" style="fill: #4682b4; fill-opacity: 0.8"/>
    <path d="M 148.88856 282.477541 
L 160.360144 285.89179 
L 167.771578 279.988788 
L 156.330571 276.603542 
z
" clip-path="url(#p90283dfa21)" style="fill: #4682b4; fill-opacity: 0.8"/>
    <path d="M 258.906315 282.722112 
L 270.651836 286.137572 
L 277.594473 280.232479 
L 265.88185 276.846038 
z
" clip-path="url(#p90283dfa21)" style="fill: #4682b4; fill-opacity: 0.8"/>
    <path d="M 368.963025 282.96677 
L 380.982675 286.383441 
L 387.456182 280.476256 
L 375.471754 277.088619 
z
" clip-path="url(#p90283dfa21)" style="fill: #4682b4; fill-opacity: 0.8"/>
    <path d="M 179.269024 283.390734 
L 190.823327 286.809504 
L 198.109742 280.898694 
L 186.586694 277.508985 
z
" clip-path="url(#p90283dfa21)" style="fill: #4682b4; fill-opacity: 0.8"/>
    <path d="M 289.364884 283.635629 
L 301.193514 287.055611 
L 308.010465 281.142706 
L 296.215417 277.7518 
z
" clip-path="url(#p90283dfa21)" style="fill: #4682b4; fill-opacity: 0.8"/>
    <path d="M 399.499752 283.88061 
L 411.602901 287.301806 
L 417.950056 281.386805 
L 405.882817 277.994701 
z
" clip-path="url(#p90283dfa21)" style="fill: #4682b4; fill-opacity: 0.8"/>
    <path d="M 209.689671 284.305136 
L 221.326903 287.728435 
L 228.487961 281.809801 
L 216.882666 278.415621 
z
" clip-path="url(#p90283dfa21)" style="fill: #4682b4; fill-opacity: 0.8"/>
    <path d="M 319.863747 284.550354 
L 331.775695 287.974868 
L 338.466622 282.054136 
L 326.588942 278.658756 
z
" clip-path="url(#p90283dfa21)" style="fill: #4682b4; fill-opacity: 0.8"/>
    <path d="M 430.076884 284.79566 
L 442.263743 288.22139 
L 448.484205 282.298557 
L 436.333948 278.901977 
z
" clip-path="url(#p90283dfa21)" style="fill: #4682b4; fill-opacity: 0.8"/>
    <path d="M 240.150581 285.220748 
L 251.870953 288.648584 
L 258.906315 282.722112 
L 247.218566 279.323451 
z
" clip-path="url(#p90283dfa21)" style="fill: #4682b4; fill-opacity: 0.8"/>
    <path d="M 350.402984 285.466291 
L 362.398462 288.895345 
L 368.963025 282.96677 
L 357.002504 279.566907 
z
" clip-path="url(#p90283dfa21)" style="fill: #4682b4; fill-opacity: 0.8"/>
    <path d="M 160.360144 285.89179 
L 171.88856 289.322955 
L 179.269024 283.390734 
L 167.771578 279.988788 
z
" clip-path="url(#p90283dfa21)" style="fill: #4682b4; fill-opacity: 0.8"/>
    <path d="M 270.651836 286.137572 
L 282.455556 289.569956 
L 289.364884 283.635629 
L 277.594473 280.232479 
z
" clip-path="url(#p90283dfa21)" style="fill: #4682b4; fill-opacity: 0.8"/>
    <path d="M 380.982675 286.383441 
L 393.061894 289.817044 
L 399.499752 283.88061 
L 387.456182 280.476256 
z
" clip-path="url(#p90283dfa21)" style="fill: #4682b4; fill-opacity: 0.8"/>
    <path d="M 190.823327 286.809504 
L 202.434911 290.245222 
L 209.689671 284.305136 
L 198.109742 280.898694 
z
" clip-path="url(#p90283dfa21)" style="fill: #4682b4; fill-opacity: 0.8"/>
    <path d="M 301.193514 287.055611 
L 313.080794 290.492551 
L 319.863747 284.550354 
L 308.010465 281.142706 
z
" clip-path="url(#p90283dfa21)" style="fill: #4682b4; fill-opacity: 0.8"/>
    <path d="M 411.602901 287.301806 
L 423.766073 290.739968 
L 430.076884 284.79566 
L 417.950056 281.386805 
z
" clip-path="url(#p90283dfa21)" style="fill: #4682b4; fill-opacity: 0.8"/>
    <path d="M 221.326903 287.728435 
L 233.021866 291.168716 
L 240.150581 285.220748 
L 228.487961 281.809801 
z
" clip-path="url(#p90283dfa21)" style="fill: #4682b4; fill-opacity: 0.8"/>
    <path d="M 331.775695 287.974868 
L 343.746748 291.416373 
L 350.402984 285.466291 
L 338.466622 282.054136 
z
" clip-path="url(#p90283dfa21)" style="fill: #4682b4; fill-opacity: 0.8"/>
    <path d="M 442.263743 288.22139 
L 454.51108 291.66412 
L 460.6945 285.711921 
L 448.484205 282.298557 
z
" clip-path="url(#p90283dfa21)" style="fill: #4682b4; fill-opacity: 0.8"/>
    <path d="M 141.382732 288.401911 
L 152.884997 291.845538 
L 160.360144 285.89179 
L 148.88856 282.477541 
z
" clip-path="url(#p90283dfa21)" style="fill: #4682b4; fill-opacity: 0.8"/>
    <path d="M 251.870953 288.648584 
L 263.649505 292.093437 
L 270.651836 286.137572 
L 258.906315 282.722112 
z
" clip-path="url(#p90283dfa21)" style="fill: #4682b4; fill-opacity: 0.8"/>
    <path d="M 362.398462 288.895345 
L 374.453498 292.341425 
L 380.982675 286.383441 
L 368.963025 282.96677 
z
" clip-path="url(#p90283dfa21)" style="fill: #4682b4; fill-opacity: 0.8"/>
    <path d="M 171.88856 289.322955 
L 183.474233 292.771161 
L 190.823327 286.809504 
L 179.269024 283.390734 
z
" clip-path="url(#p90283dfa21)" style="fill: #4682b4; fill-opacity: 0.8"/>
    <path d="M 282.455556 289.569956 
L 294.31791 293.01939 
L 301.193514 287.055611 
L 289.364884 283.635629 
z
" clip-path="url(#p90283dfa21)" style="fill: #4682b4; fill-opacity: 0.8"/>
    <path d="M 393.061894 289.817044 
L 405.201127 293.267707 
L 411.602901 287.301806 
L 399.499752 283.88061 
z
" clip-path="url(#p90283dfa21)" style="fill: #4682b4; fill-opacity: 0.8"/>
    <path d="M 202.434911 290.245222 
L 214.104203 293.698016 
L 221.326903 287.728435 
L 209.689671 284.305136 
z
" clip-path="url(#p90283dfa21)" style="fill: #4682b4; fill-opacity: 0.8"/>
    <path d="M 313.080794 290.492551 
L 325.027163 293.946575 
L 331.775695 287.974868 
L 319.863747 284.550354 
z
" clip-path="url(#p90283dfa21)" style="fill: #4682b4; fill-opacity: 0.8"/>
    <path d="M 423.766073 290.739968 
L 435.989716 294.195224 
L 442.263743 288.22139 
L 430.076884 284.79566 
z
" clip-path="url(#p90283dfa21)" style="fill: #4682b4; fill-opacity: 0.8"/>
    <path d="M 233.021866 291.168716 
L 244.774989 294.626106 
L 251.870953 288.648584 
L 240.150581 285.220748 
z
" clip-path="url(#p90283dfa21)" style="fill: #4682b4; fill-opacity: 0.8"/>
    <path d="M 343.746748 291.416373 
L 355.777344 294.874997 
L 362.398462 288.895345 
L 350.402984 285.466291 
z
" clip-path="url(#p90283dfa21)" style="fill: #4682b4; fill-opacity: 0.8"/>
    <path d="M 152.884997 291.845538 
L 164.444492 295.306299 
L 171.88856 289.322955 
L 160.360144 285.89179 
z
" clip-path="url(#p90283dfa21)" style="fill: #4682b4; fill-opacity: 0.8"/>
    <path d="M 263.649505 292.093437 
L 275.486673 295.555433 
L 282.455556 289.569956 
L 270.651836 286.137572 
z
" clip-path="url(#p90283dfa21)" style="fill: #4682b4; fill-opacity: 0.8"/>
    <path d="M 374.453498 292.341425 
L 386.568536 295.804656 
L 393.061894 289.817044 
L 380.982675 286.383441 
z
" clip-path="url(#p90283dfa21)" style="fill: #4682b4; fill-opacity: 0.8"/>
    <path d="M 183.474233 292.771161 
L 195.117589 296.236534 
L 202.434911 290.245222 
L 190.823327 286.809504 
z
" clip-path="url(#p90283dfa21)" style="fill: #4682b4; fill-opacity: 0.8"/>
    <path d="M 294.31791 293.01939 
L 306.239337 296.486001 
L 313.080794 290.492551 
L 301.193514 287.055611 
z
" clip-path="url(#p90283dfa21)" style="fill: #4682b4; fill-opacity: 0.8"/>
    <path d="M 405.201127 293.267707 
L 417.400821 296.735557 
L 423.766073 290.739968 
L 411.602901 287.301806 
z
" clip-path="url(#p90283dfa21)" style="fill: #4682b4; fill-opacity: 0.8"/>
    <path d="M 214.104203 293.698016 
L 225.831634 297.168011 
L 233.021866 291.168716 
L 221.326903 287.728435 
z
" clip-path="url(#p90283dfa21)" style="fill: #4682b4; fill-opacity: 0.8"/>
    <path d="M 325.027163 293.946575 
L 337.033062 297.417811 
L 343.746748 291.416373 
L 331.775695 287.974868 
z
" clip-path="url(#p90283dfa21)" style="fill: #4682b4; fill-opacity: 0.8"/>
    <path d="M 435.989716 294.195224 
L 448.274281 297.6677 
L 454.51108 291.66412 
L 442.263743 288.22139 
z
" clip-path="url(#p90283dfa21)" style="fill: #4682b4; fill-opacity: 0.8"/>
    <path d="M 133.812262 294.377303 
L 145.345312 297.850689 
L 152.884997 291.845538 
L 141.382732 288.401911 
z
" clip-path="url(#p90283dfa21)" style="fill: #4682b4; fill-opacity: 0.8"/>
    <path d="M 244.774989 294.626106 
L 256.586708 298.100733 
L 263.649505 292.093437 
L 251.870953 288.648584 
z
" clip-path="url(#p90283dfa21)" style="fill: #4682b4; fill-opacity: 0.8"/>
    <path d="M 355.777344 294.874997 
L 367.86793 298.350866 
L 374.453498 292.341425 
L 362.398462 288.895345 
z
" clip-path="url(#p90283dfa21)" style="fill: #4682b4; fill-opacity: 0.8"/>
    <path d="M 164.444492 295.306299 
L 176.061646 298.784322 
L 183.474233 292.771161 
L 171.88856 289.322955 
z
" clip-path="url(#p90283dfa21)" style="fill: #4682b4; fill-opacity: 0.8"/>
    <path d="M 275.486673 295.555433 
L 287.382895 299.034701 
L 294.31791 293.01939 
L 282.455556 289.569956 
z
" clip-path="url(#p90283dfa21)" style="fill: #4682b4; fill-opacity: 0.8"/>
    <path d="M 386.568536 295.804656 
L 398.744025 299.285169 
L 405.201127 293.267707 
L 393.061894 289.817044 
z
" clip-path="url(#p90283dfa21)" style="fill: #4682b4; fill-opacity: 0.8"/>
    <path d="M 195.117589 296.236534 
L 206.819061 299.719205 
L 214.104203 293.698016 
L 202.434911 290.245222 
z
" clip-path="url(#p90283dfa21)" style="fill: #4682b4; fill-opacity: 0.8"/>
    <path d="M 306.239337 296.486001 
L 318.220277 299.969918 
L 325.027163 293.946575 
L 313.080794 290.492551 
z
" clip-path="url(#p90283dfa21)" style="fill: #4682b4; fill-opacity: 0.8"/>
    <path d="M 417.400821 296.735557 
L 429.661429 300.220722 
L 435.989716 294.195224 
L 423.766073 290.739968 
z
" clip-path="url(#p90283dfa21)" style="fill: #4682b4; fill-opacity: 0.8"/>
    <path d="M 225.831634 297.168011 
L 237.617639 300.655339 
L 244.774989 294.626106 
L 233.021866 291.168716 
z
" clip-path="url(#p90283dfa21)" style="fill: #4682b4; fill-opacity: 0.8"/>
    <path d="M 337.033062 297.417811 
L 349.098936 300.906388 
L 355.777344 294.874997 
L 343.746748 291.416373 
z
" clip-path="url(#p90283dfa21)" style="fill: #4682b4; fill-opacity: 0.8"/>
    <path d="M 145.345312 297.850689 
L 156.935994 301.341431 
L 164.444492 295.306299 
L 152.884997 291.845538 
z
" clip-path="url(#p90283dfa21)" style="fill: #4682b4; fill-opacity: 0.8"/>
    <path d="M 256.586708 298.100733 
L 268.457462 301.592726 
L 275.486673 295.555433 
L 263.649505 292.093437 
z
" clip-path="url(#p90283dfa21)" style="fill: #4682b4; fill-opacity: 0.8"/>
    <path d="M 367.86793 298.350866 
L 380.018956 301.844111 
L 386.568536 295.804656 
L 374.453498 292.341425 
z
" clip-path="url(#p90283dfa21)" style="fill: #4682b4; fill-opacity: 0.8"/>
    <path d="M 176.061646 298.784322 
L 187.736891 302.279737 
L 195.117589 296.236534 
L 183.474233 292.771161 
z
" clip-path="url(#p90283dfa21)" style="fill: #4682b4; fill-opacity: 0.8"/>
    <path d="M 287.382895 299.034701 
L 299.338615 302.531369 
L 306.239337 296.486001 
L 294.31791 293.01939 
z
" clip-path="url(#p90283dfa21)" style="fill: #4682b4; fill-opacity: 0.8"/>
    <path d="M 398.744025 299.285169 
L 410.980419 302.783092 
L 417.400821 296.735557 
L 405.201127 293.267707 
z
" clip-path="url(#p90283dfa21)" style="fill: #4682b4; fill-opacity: 0.8"/>
    <path d="M 206.819061 299.719205 
L 218.579085 303.219302 
L 225.831634 297.168011 
L 214.104203 293.698016 
z
" clip-path="url(#p90283dfa21)" style="fill: #4682b4; fill-opacity: 0.8"/>
    <path d="M 318.220277 299.969918 
L 330.261179 303.471272 
L 337.033062 297.417811 
L 325.027163 293.946575 
z
" clip-path="url(#p90283dfa21)" style="fill: #4682b4; fill-opacity: 0.8"/>
    <path d="M 429.661429 300.220722 
L 441.983409 303.723332 
L 448.274281 297.6677 
L 435.989716 294.195224 
z
" clip-path="url(#p90283dfa21)" style="fill: #4682b4; fill-opacity: 0.8"/>
    <path d="M 126.176311 300.404379 
L 137.74025 303.90791 
L 145.345312 297.850689 
L 133.812262 294.377303 
z
" clip-path="url(#p90283dfa21)" style="fill: #4682b4; fill-opacity: 0.8"/>
    <path d="M 237.617639 300.655339 
L 249.462658 304.160127 
L 256.586708 298.100733 
L 244.774989 294.626106 
z
" clip-path="url(#p90283dfa21)" style="fill: #4682b4; fill-opacity: 0.8"/>
    <path d="M 349.098936 300.906388 
L 361.225238 304.412435 
L 367.86793 298.350866 
L 355.777344 294.874997 
z
" clip-path="url(#p90283dfa21)" style="fill: #4682b4; fill-opacity: 0.8"/>
    <path d="M 156.935994 301.341431 
L 168.584742 304.84966 
L 176.061646 298.784322 
L 164.444492 295.306299 
z
" clip-path="url(#p90283dfa21)" style="fill: #4682b4; fill-opacity: 0.8"/>
    <path d="M 268.457462 301.592726 
L 280.387695 305.102216 
L 287.382895 299.034701 
L 275.486673 295.555433 
z
" clip-path="url(#p90283dfa21)" style="fill: #4682b4; fill-opacity: 0.8"/>
    <path d="M 380.018956 301.844111 
L 392.230876 305.354862 
L 398.744025 299.285169 
L 386.568536 295.804656 
z
" clip-path="url(#p90283dfa21)" style="fill: #4682b4; fill-opacity: 0.8"/>
    <path d="M 187.736891 302.279737 
L 199.470664 305.792675 
L 206.819061 299.719205 
L 195.117589 296.236534 
z
" clip-path="url(#p90283dfa21)" style="fill: #4682b4; fill-opacity: 0.8"/>
    <path d="M 299.338615 302.531369 
L 311.354278 306.04557 
L 318.220277 299.969918 
L 306.239337 296.486001 
z
" clip-path="url(#p90283dfa21)" style="fill: #4682b4; fill-opacity: 0.8"/>
    <path d="M 410.980419 302.783092 
L 423.278176 306.298556 
L 429.661429 300.220722 
L 417.400821 296.735557 
z
" clip-path="url(#p90283dfa21)" style="fill: #4682b4; fill-opacity: 0.8"/>
    <path d="M 218.579085 303.219302 
L 230.398101 306.736957 
L 237.617639 300.655339 
L 225.831634 297.168011 
z
" clip-path="url(#p90283dfa21)" style="fill: #4682b4; fill-opacity: 0.8"/>
    <path d="M 330.261179 303.471272 
L 342.362492 306.990192 
L 349.098936 300.906388 
L 337.033062 297.417811 
z
" clip-path="url(#p90283dfa21)" style="fill: #4682b4; fill-opacity: 0.8"/>
    <path d="M 137.74025 303.90791 
L 149.362226 307.429024 
L 156.935994 301.341431 
L 145.345312 297.850689 
z
" clip-path="url(#p90283dfa21)" style="fill: #4682b4; fill-opacity: 0.8"/>
    <path d="M 249.462658 304.160127 
L 261.367137 307.682509 
L 268.457462 301.592726 
L 256.586708 298.100733 
z
" clip-path="url(#p90283dfa21)" style="fill: #4682b4; fill-opacity: 0.8"/>
    <path d="M 361.225238 304.412435 
L 373.412421 307.936085 
L 380.018956 301.844111 
L 367.86793 298.350866 
z
" clip-path="url(#p90283dfa21)" style="fill: #4682b4; fill-opacity: 0.8"/>
    <path d="M 168.584742 304.84966 
L 180.291991 308.375508 
L 187.736891 302.279737 
L 176.061646 298.784322 
z
" clip-path="url(#p90283dfa21)" style="fill: #4682b4; fill-opacity: 0.8"/>
    <path d="M 280.387695 305.102216 
L 292.377854 308.629334 
L 299.338615 302.531369 
L 287.382895 299.034701 
z
" clip-path="url(#p90283dfa21)" style="fill: #4682b4; fill-opacity: 0.8"/>
    <path d="M 392.230876 305.354862 
L 404.504148 308.883252 
L 410.980419 302.783092 
L 398.744025 299.285169 
z
" clip-path="url(#p90283dfa21)" style="fill: #4682b4; fill-opacity: 0.8"/>
    <path d="M 199.470664 305.792675 
L 211.263406 309.323266 
L 218.579085 303.219302 
L 206.819061 299.719205 
z
" clip-path="url(#p90283dfa21)" style="fill: #4682b4; fill-opacity: 0.8"/>
    <path d="M 311.354278 306.04557 
L 323.430339 309.577434 
L 330.261179 303.471272 
L 318.220277 299.969918 
z
" clip-path="url(#p90283dfa21)" style="fill: #4682b4; fill-opacity: 0.8"/>
    <path d="M 423.278176 306.298556 
L 435.637758 309.831694 
L 441.983409 303.723332 
L 429.661429 300.220722 
z
" clip-path="url(#p90283dfa21)" style="fill: #4682b4; fill-opacity: 0.8"/>
    <path d="M 118.474028 306.483813 
L 130.068957 310.017883 
L 137.74025 303.90791 
L 126.176311 300.404379 
z
" clip-path="url(#p90283dfa21)" style="fill: #4682b4; fill-opacity: 0.8"/>
    <path d="M 230.398101 306.736957 
L 242.276555 310.272302 
L 249.462658 304.160127 
L 237.617639 300.655339 
z
" clip-path="url(#p90283dfa21)" style="fill: #4682b4; fill-opacity: 0.8"/>
    <path d="M 342.362492 306.990192 
L 354.524674 310.526812 
L 361.225238 304.412435 
L 349.098936 300.906388 
z
" clip-path="url(#p90283dfa21)" style="fill: #4682b4; fill-opacity: 0.8"/>
    <path d="M 149.362226 307.429024 
L 161.042678 310.967855 
L 168.584742 304.84966 
L 156.935994 301.341431 
z
" clip-path="url(#p90283dfa21)" style="fill: #4682b4; fill-opacity: 0.8"/>
    <path d="M 261.367137 307.682509 
L 273.331522 311.222617 
L 280.387695 305.102216 
L 268.457462 301.592726 
z
" clip-path="url(#p90283dfa21)" style="fill: #4682b4; fill-opacity: 0.8"/>
    <path d="M 373.412421 307.936085 
L 385.660945 311.477471 
L 392.230876 305.354862 
L 380.018956 301.844111 
z
" clip-path="url(#p90283dfa21)" style="fill: #4682b4; fill-opacity: 0.8"/>
    <path d="M 180.291991 308.375508 
L 192.058185 311.919109 
L 199.470664 305.792675 
L 187.736891 302.279737 
z
" clip-path="url(#p90283dfa21)" style="fill: #4682b4; fill-opacity: 0.8"/>
    <path d="M 292.377854 308.629334 
L 304.428393 312.174214 
L 311.354278 306.04557 
L 299.338615 302.531369 
z
" clip-path="url(#p90283dfa21)" style="fill: #4682b4; fill-opacity: 0.8"/>
    <path d="M 404.504148 308.883252 
L 416.839237 312.429412 
L 423.278176 306.298556 
L 410.980419 302.783092 
z
" clip-path="url(#p90283dfa21)" style="fill: #4682b4; fill-opacity: 0.8"/>
    <path d="M 211.263406 309.323266 
L 223.115562 312.871646 
L 230.398101 306.736957 
L 218.579085 303.219302 
z
" clip-path="url(#p90283dfa21)" style="fill: #4682b4; fill-opacity: 0.8"/>
    <path d="M 323.430339 309.577434 
L 335.567252 313.127096 
L 342.362492 306.990192 
L 330.261179 303.471272 
z
" clip-path="url(#p90283dfa21)" style="fill: #4682b4; fill-opacity: 0.8"/>
    <path d="M 130.068957 310.017883 
L 141.722333 313.569768 
L 149.362226 307.429024 
L 137.74025 303.90791 
z
" clip-path="url(#p90283dfa21)" style="fill: #4682b4; fill-opacity: 0.8"/>
    <path d="M 242.276555 310.272302 
L 254.214895 313.825471 
L 261.367137 307.682509 
L 249.462658 304.160127 
z
" clip-path="url(#p90283dfa21)" style="fill: #4682b4; fill-opacity: 0.8"/>
    <path d="M 354.524674 310.526812 
L 366.748184 314.081266 
L 373.412421 307.936085 
L 361.225238 304.412435 
z
" clip-path="url(#p90283dfa21)" style="fill: #4682b4; fill-opacity: 0.8"/>
    <path d="M 161.042678 310.967855 
L 172.782047 314.524536 
L 180.291991 308.375508 
L 168.584742 304.84966 
z
" clip-path="url(#p90283dfa21)" style="fill: #4682b4; fill-opacity: 0.8"/>
    <path d="M 273.331522 311.222617 
L 285.356269 314.780585 
L 292.377854 308.629334 
L 280.387695 305.102216 
z
" clip-path="url(#p90283dfa21)" style="fill: #4682b4; fill-opacity: 0.8"/>
    <path d="M 385.660945 311.477471 
L 397.971275 315.036726 
L 404.504148 308.883252 
L 392.230876 305.354862 
z
" clip-path="url(#p90283dfa21)" style="fill: #4682b4; fill-opacity: 0.8"/>
    <path d="M 192.058185 311.919109 
L 203.883769 315.480595 
L 211.263406 309.323266 
L 199.470664 305.792675 
z
" clip-path="url(#p90283dfa21)" style="fill: #4682b4; fill-opacity: 0.8"/>
    <path d="M 304.428393 312.174214 
L 316.539769 315.736991 
L 323.430339 309.577434 
L 311.354278 306.04557 
z
" clip-path="url(#p90283dfa21)" style="fill: #4682b4; fill-opacity: 0.8"/>
    <path d="M 416.839237 312.429412 
L 429.23661 315.993479 
L 435.637758 309.831694 
L 423.278176 306.298556 
z
" clip-path="url(#p90283dfa21)" style="fill: #4682b4; fill-opacity: 0.8"/>
    <path d="M 110.704542 312.616288 
L 122.330563 316.1813 
L 130.068957 310.017883 
L 118.474028 306.483813 
z
" clip-path="url(#p90283dfa21)" style="fill: #4682b4; fill-opacity: 0.8"/>
    <path d="M 223.115562 312.871646 
L 235.027583 316.437949 
L 242.276555 310.272302 
L 230.398101 306.736957 
z
" clip-path="url(#p90283dfa21)" style="fill: #4682b4; fill-opacity: 0.8"/>
    <path d="M 335.567252 313.127096 
L 347.76548 316.694691 
L 354.524674 310.526812 
L 342.362492 306.990192 
z
" clip-path="url(#p90283dfa21)" style="fill: #4682b4; fill-opacity: 0.8"/>
    <path d="M 141.722333 313.569768 
L 153.434599 317.139602 
L 161.042678 310.967855 
L 149.362226 307.429024 
z
" clip-path="url(#p90283dfa21)" style="fill: #4682b4; fill-opacity: 0.8"/>
    <path d="M 254.214895 313.825471 
L 266.213577 317.396599 
L 273.331522 311.222617 
L 261.367137 307.682509 
z
" clip-path="url(#p90283dfa21)" style="fill: #4682b4; fill-opacity: 0.8"/>
    <path d="M 366.748184 314.081266 
L 379.033488 317.653689 
L 385.660945 311.477471 
L 373.412421 307.936085 
z
" clip-path="url(#p90283dfa21)" style="fill: #4682b4; fill-opacity: 0.8"/>
    <path d="M 172.782047 314.524536 
L 184.580781 318.099203 
L 192.058185 311.919109 
L 180.291991 308.375508 
z
" clip-path="url(#p90283dfa21)" style="fill: #4682b4; fill-opacity: 0.8"/>
    <path d="M 285.356269 314.780585 
L 297.441835 318.356548 
L 304.428393 312.174214 
L 292.377854 308.629334 
z
" clip-path="url(#p90283dfa21)" style="fill: #4682b4; fill-opacity: 0.8"/>
    <path d="M 397.971275 315.036726 
L 410.34388 318.613987 
L 416.839237 312.429412 
L 404.504148 308.883252 
z
" clip-path="url(#p90283dfa21)" style="fill: #4682b4; fill-opacity: 0.8"/>
    <path d="M 203.883769 315.480595 
L 215.769194 319.060105 
L 223.115562 312.871646 
L 211.263406 309.323266 
z
" clip-path="url(#p90283dfa21)" style="fill: #4682b4; fill-opacity: 0.8"/>
    <path d="M 316.539769 315.736991 
L 328.712443 319.317799 
L 335.567252 313.127096 
L 323.430339 309.577434 
z
" clip-path="url(#p90283dfa21)" style="fill: #4682b4; fill-opacity: 0.8"/>
    <path d="M 122.330563 316.1813 
L 134.015445 319.76436 
L 141.722333 313.569768 
L 130.068957 310.017883 
z
" clip-path="url(#p90283dfa21)" style="fill: #4682b4; fill-opacity: 0.8"/>
    <path d="M 235.027583 316.437949 
L 246.999924 320.02231 
L 254.214895 313.825471 
L 242.276555 310.272302 
z
" clip-path="url(#p90283dfa21)" style="fill: #4682b4; fill-opacity: 0.8"/>
    <path d="M 347.76548 316.694691 
L 360.025488 320.280354 
L 366.748184 314.081266 
L 354.524674 310.526812 
z
" clip-path="url(#p90283dfa21)" style="fill: #4682b4; fill-opacity: 0.8"/>
    <path d="M 153.434599 317.139602 
L 165.206203 320.727522 
L 172.782047 314.524536 
L 161.042678 310.967855 
z
" clip-path="url(#p90283dfa21)" style="fill: #4682b4; fill-opacity: 0.8"/>
    <path d="M 266.213577 317.396599 
L 278.273058 320.985822 
L 285.356269 314.780585 
L 273.331522 311.222617 
z
" clip-path="url(#p90283dfa21)" style="fill: #4682b4; fill-opacity: 0.8"/>
    <path d="M 379.033488 317.653689 
L 391.381055 321.244217 
L 397.971275 315.036726 
L 385.660945 311.477471 
z
" clip-path="url(#p90283dfa21)" style="fill: #4682b4; fill-opacity: 0.8"/>
    <path d="M 184.580781 318.099203 
L 196.439331 321.691992 
L 203.883769 315.480595 
L 192.058185 311.919109 
z
" clip-path="url(#p90283dfa21)" style="fill: #4682b4; fill-opacity: 0.8"/>
    <path d="M 297.441835 318.356548 
L 309.588682 321.950644 
L 316.539769 315.736991 
L 304.428393 312.174214 
z
" clip-path="url(#p90283dfa21)" style="fill: #4682b4; fill-opacity: 0.8"/>
    <path d="M 410.34388 318.613987 
L 422.779233 322.209389 
L 429.23661 315.993479 
L 416.839237 312.429412 
z
" clip-path="url(#p90283dfa21)" style="fill: #4682b4; fill-opacity: 0.8"/>
    <path d="M 215.769194 319.060105 
L 227.714916 322.657773 
L 235.027583 316.437949 
L 223.115562 312.871646 
z
" clip-path="url(#p90283dfa21)" style="fill: #4682b4; fill-opacity: 0.8"/>
    <path d="M 328.712443 319.317799 
L 340.946882 322.916777 
L 347.76548 316.694691 
L 335.567252 313.127096 
z
" clip-path="url(#p90283dfa21)" style="fill: #4682b4; fill-opacity: 0.8"/>
    <path d="M 134.015445 319.76436 
L 145.759636 323.365607 
L 153.434599 317.139602 
L 141.722333 313.569768 
z
" clip-path="url(#p90283dfa21)" style="fill: #4682b4; fill-opacity: 0.8"/>
    <path d="M 246.999924 320.02231 
L 259.033044 323.624868 
L 266.213577 317.396599 
L 254.214895 313.825471 
z
" clip-path="url(#p90283dfa21)" style="fill: #4682b4; fill-opacity: 0.8"/>
    <path d="M 360.025488 320.280354 
L 372.347746 323.884224 
L 379.033488 317.653689 
L 366.748184 314.081266 
z
" clip-path="url(#p90283dfa21)" style="fill: #4682b4; fill-opacity: 0.8"/>
    <path d="M 165.206203 320.727522 
L 177.037596 324.333665 
L 184.580781 318.099203 
L 172.782047 314.524536 
z
" clip-path="url(#p90283dfa21)" style="fill: #4682b4; fill-opacity: 0.8"/>
    <path d="M 278.273058 320.985822 
L 290.393802 324.593279 
L 297.441835 318.356548 
L 285.356269 314.780585 
z
" clip-path="url(#p90283dfa21)" style="fill: #4682b4; fill-opacity: 0.8"/>
    <path d="M 391.381055 321.244217 
L 403.79136 324.852988 
L 410.34388 318.613987 
L 397.971275 315.036726 
z
" clip-path="url(#p90283dfa21)" style="fill: #4682b4; fill-opacity: 0.8"/>
    <path d="M 196.439331 321.691992 
L 208.358153 325.303042 
L 215.769194 319.060105 
L 203.883769 315.480595 
z
" clip-path="url(#p90283dfa21)" style="fill: #4682b4; fill-opacity: 0.8"/>
    <path d="M 309.588682 321.950644 
L 321.797278 325.56301 
L 328.712443 319.317799 
L 316.539769 315.736991 
z
" clip-path="url(#p90283dfa21)" style="fill: #4682b4; fill-opacity: 0.8"/>
    <path d="M 227.714916 322.657773 
L 239.721394 326.27374 
L 246.999924 320.02231 
L 235.027583 316.437949 
z
" clip-path="url(#p90283dfa21)" style="fill: #4682b4; fill-opacity: 0.8"/>
    <path d="M 340.946882 322.916777 
L 353.243558 326.534062 
L 360.025488 320.280354 
L 347.76548 316.694691 
z
" clip-path="url(#p90283dfa21)" style="fill: #4682b4; fill-opacity: 0.8"/>
    <path d="M 145.759636 323.365607 
L 157.563587 326.985179 
L 165.206203 320.727522 
L 153.434599 317.139602 
z
" clip-path="url(#p90283dfa21)" style="fill: #4682b4; fill-opacity: 0.8"/>
    <path d="M 259.033044 323.624868 
L 271.127406 327.245761 
L 278.273058 320.985822 
L 266.213577 317.396599 
z
" clip-path="url(#p90283dfa21)" style="fill: #4682b4; fill-opacity: 0.8"/>
    <path d="M 372.347746 323.884224 
L 384.73273 327.506439 
L 391.381055 321.244217 
L 379.033488 317.653689 
z
" clip-path="url(#p90283dfa21)" style="fill: #4682b4; fill-opacity: 0.8"/>
    <path d="M 177.037596 324.333665 
L 188.929235 327.958171 
L 196.439331 321.691992 
L 184.580781 318.099203 
z
" clip-path="url(#p90283dfa21)" style="fill: #4682b4; fill-opacity: 0.8"/>
    <path d="M 290.393802 324.593279 
L 302.576277 328.219109 
L 309.588682 321.950644 
L 297.441835 318.356548 
z
" clip-path="url(#p90283dfa21)" style="fill: #4682b4; fill-opacity: 0.8"/>
    <path d="M 403.79136 324.852988 
L 416.264882 328.480143 
L 422.779233 322.209389 
L 410.34388 318.613987 
z
" clip-path="url(#p90283dfa21)" style="fill: #4682b4; fill-opacity: 0.8"/>
    <path d="M 208.358153 325.303042 
L 220.337708 328.932492 
L 227.714916 322.657773 
L 215.769194 319.060105 
z
" clip-path="url(#p90283dfa21)" style="fill: #4682b4; fill-opacity: 0.8"/>
    <path d="M 321.797278 325.56301 
L 334.068094 329.193787 
L 340.946882 322.916777 
L 328.712443 319.317799 
z
" clip-path="url(#p90283dfa21)" style="fill: #4682b4; fill-opacity: 0.8"/>
    <path d="M 239.721394 326.27374 
L 251.789094 329.908144 
L 259.033044 323.624868 
L 246.999924 320.02231 
z
" clip-path="url(#p90283dfa21)" style="fill: #4682b4; fill-opacity: 0.8"/>
    <path d="M 353.243558 326.534062 
L 365.602946 330.169796 
L 372.347746 323.884224 
L 360.025488 320.280354 
z
" clip-path="url(#p90283dfa21)" style="fill: #4682b4; fill-opacity: 0.8"/>
    <path d="M 157.563587 326.985179 
L 169.427758 330.623216 
L 177.037596 324.333665 
L 165.206203 320.727522 
z
" clip-path="url(#p90283dfa21)" style="fill: #4682b4; fill-opacity: 0.8"/>
    <path d="M 271.127406 327.245761 
L 283.28348 330.88513 
L 290.393802 324.593279 
L 278.273058 320.985822 
z
" clip-path="url(#p90283dfa21)" style="fill: #4682b4; fill-opacity: 0.8"/>
    <path d="M 384.73273 327.506439 
L 397.18092 331.14714 
L 403.79136 324.852988 
L 391.381055 321.244217 
z
" clip-path="url(#p90283dfa21)" style="fill: #4682b4; fill-opacity: 0.8"/>
    <path d="M 188.929235 327.958171 
L 200.881582 331.601181 
L 208.358153 325.303042 
L 196.439331 321.691992 
z
" clip-path="url(#p90283dfa21)" style="fill: #4682b4; fill-opacity: 0.8"/>
    <path d="M 302.576277 328.219109 
L 314.820955 331.863453 
L 321.797278 325.56301 
L 309.588682 321.950644 
z
" clip-path="url(#p90283dfa21)" style="fill: #4682b4; fill-opacity: 0.8"/>
    <path d="M 220.337708 328.932492 
L 232.378462 332.580483 
L 239.721394 326.27374 
L 227.714916 322.657773 
z
" clip-path="url(#p90283dfa21)" style="fill: #4682b4; fill-opacity: 0.8"/>
    <path d="M 334.068094 329.193787 
L 346.401608 332.843115 
L 353.243558 326.534062 
L 340.946882 322.916777 
z
" clip-path="url(#p90283dfa21)" style="fill: #4682b4; fill-opacity: 0.8"/>
    <path d="M 251.789094 329.908144 
L 263.918484 333.561128 
L 271.127406 327.245761 
L 259.033044 323.624868 
z
" clip-path="url(#p90283dfa21)" style="fill: #4682b4; fill-opacity: 0.8"/>
    <path d="M 365.602946 330.169796 
L 378.025527 333.824119 
L 384.73273 327.506439 
L 372.347746 323.884224 
z
" clip-path="url(#p90283dfa21)" style="fill: #4682b4; fill-opacity: 0.8"/>
    <path d="M 169.427758 330.623216 
L 181.35261 334.279861 
L 188.929235 327.958171 
L 177.037596 324.333665 
z
" clip-path="url(#p90283dfa21)" style="fill: #4682b4; fill-opacity: 0.8"/>
    <path d="M 283.28348 330.88513 
L 295.501739 334.543116 
L 302.576277 328.219109 
L 290.393802 324.593279 
z
" clip-path="url(#p90283dfa21)" style="fill: #4682b4; fill-opacity: 0.8"/>
    <path d="M 397.18092 331.14714 
L 409.692801 334.806468 
L 416.264882 328.480143 
L 403.79136 324.852988 
z
" clip-path="url(#p90283dfa21)" style="fill: #4682b4; fill-opacity: 0.8"/>
    <path d="M 200.881582 331.601181 
L 212.895103 335.262835 
L 220.337708 328.932492 
L 208.358153 325.303042 
z
" clip-path="url(#p90283dfa21)" style="fill: #4682b4; fill-opacity: 0.8"/>
    <path d="M 314.820955 331.863453 
L 327.128315 335.526452 
L 334.068094 329.193787 
L 321.797278 325.56301 
z
" clip-path="url(#p90283dfa21)" style="fill: #4682b4; fill-opacity: 0.8"/>
    <path d="M 232.378462 332.580483 
L 244.480883 336.247159 
L 251.789094 329.908144 
L 239.721394 326.27374 
z
" clip-path="url(#p90283dfa21)" style="fill: #4682b4; fill-opacity: 0.8"/>
    <path d="M 346.401608 332.843115 
L 358.798302 336.511137 
L 365.602946 330.169796 
L 353.243558 326.534062 
z
" clip-path="url(#p90283dfa21)" style="fill: #4682b4; fill-opacity: 0.8"/>
    <path d="M 263.918484 333.561128 
L 276.11004 337.232833 
L 283.28348 330.88513 
L 271.127406 327.245761 
z
" clip-path="url(#p90283dfa21)" style="fill: #4682b4; fill-opacity: 0.8"/>
    <path d="M 378.025527 333.824119 
L 390.511788 337.497174 
L 397.18092 331.14714 
L 384.73273 327.506439 
z
" clip-path="url(#p90283dfa21)" style="fill: #4682b4; fill-opacity: 0.8"/>
    <path d="M 181.35261 334.279861 
L 193.338608 337.955256 
L 200.881582 331.601181 
L 188.929235 327.958171 
z
" clip-path="url(#p90283dfa21)" style="fill: #4682b4; fill-opacity: 0.8"/>
    <path d="M 295.501739 334.543116 
L 307.782662 338.219863 
L 314.820955 331.863453 
L 302.576277 328.219109 
z
" clip-path="url(#p90283dfa21)" style="fill: #4682b4; fill-opacity: 0.8"/>
    <path d="M 212.895103 335.262835 
L 224.970268 338.943279 
L 232.378462 332.580483 
L 220.337708 328.932492 
z
" clip-path="url(#p90283dfa21)" style="fill: #4682b4; fill-opacity: 0.8"/>
    <path d="M 327.128315 335.526452 
L 339.498839 339.20825 
L 346.401608 332.843115 
L 334.068094 329.193787 
z
" clip-path="url(#p90283dfa21)" style="fill: #4682b4; fill-opacity: 0.8"/>
    <path d="M 244.480883 336.247159 
L 256.645448 339.932661 
L 263.918484 333.561128 
L 251.789094 329.908144 
z
" clip-path="url(#p90283dfa21)" style="fill: #4682b4; fill-opacity: 0.8"/>
    <path d="M 358.798302 336.511137 
L 371.258662 340.197997 
L 378.025527 333.824119 
L 365.602946 330.169796 
z
" clip-path="url(#p90283dfa21)" style="fill: #4682b4; fill-opacity: 0.8"/>
    <path d="M 276.11004 337.232833 
L 288.364239 340.923406 
L 295.501739 334.543116 
L 283.28348 330.88513 
z
" clip-path="url(#p90283dfa21)" style="fill: #4682b4; fill-opacity: 0.8"/>
    <path d="M 390.511788 337.497174 
L 403.062219 341.189107 
L 409.692801 334.806468 
L 397.18092 331.14714 
z
" clip-path="url(#p90283dfa21)" style="fill: #4682b4; fill-opacity: 0.8"/>
    <path d="M 193.338608 337.955256 
L 205.386226 341.649546 
L 212.895103 335.262835 
L 200.881582 331.601181 
z
" clip-path="url(#p90283dfa21)" style="fill: #4682b4; fill-opacity: 0.8"/>
    <path d="M 307.782662 338.219863 
L 320.126731 341.915515 
L 327.128315 335.526452 
L 314.820955 331.863453 
z
" clip-path="url(#p90283dfa21)" style="fill: #4682b4; fill-opacity: 0.8"/>
    <path d="M 224.970268 338.943279 
L 237.107553 342.642657 
L 244.480883 336.247159 
L 232.378462 332.580483 
z
" clip-path="url(#p90283dfa21)" style="fill: #4682b4; fill-opacity: 0.8"/>
    <path d="M 339.498839 339.20825 
L 351.933014 342.908992 
L 358.798302 336.511137 
L 346.401608 332.843115 
z
" clip-path="url(#p90283dfa21)" style="fill: #4682b4; fill-opacity: 0.8"/>
    <path d="M 256.645448 339.932661 
L 268.872637 343.637137 
L 276.11004 337.232833 
L 263.918484 333.561128 
z
" clip-path="url(#p90283dfa21)" style="fill: #4682b4; fill-opacity: 0.8"/>
    <path d="M 371.258662 340.197997 
L 383.783179 343.90384 
L 390.511788 337.497174 
L 378.025527 333.824119 
z
" clip-path="url(#p90283dfa21)" style="fill: #4682b4; fill-opacity: 0.8"/>
    <path d="M 288.364239 340.923406 
L 300.681567 344.63299 
L 307.782662 338.219863 
L 295.501739 334.543116 
z
" clip-path="url(#p90283dfa21)" style="fill: #4682b4; fill-opacity: 0.8"/>
    <path d="M 205.386226 341.649546 
L 217.495939 345.362877 
L 224.970268 338.943279 
L 212.895103 335.262835 
z
" clip-path="url(#p90283dfa21)" style="fill: #4682b4; fill-opacity: 0.8"/>
    <path d="M 320.126731 341.915515 
L 332.534436 345.630219 
L 339.498839 339.20825 
L 327.128315 335.526452 
z
" clip-path="url(#p90283dfa21)" style="fill: #4682b4; fill-opacity: 0.8"/>
    <path d="M 237.107553 342.642657 
L 249.307439 346.361114 
L 256.645448 339.932661 
L 244.480883 336.247159 
z
" clip-path="url(#p90283dfa21)" style="fill: #4682b4; fill-opacity: 0.8"/>
    <path d="M 351.933014 342.908992 
L 364.431334 346.628826 
L 371.258662 340.197997 
L 358.798302 336.511137 
z
" clip-path="url(#p90283dfa21)" style="fill: #4682b4; fill-opacity: 0.8"/>
    <path d="M 268.872637 343.637137 
L 281.162933 347.360732 
L 288.364239 340.923406 
L 276.11004 337.232833 
z
" clip-path="url(#p90283dfa21)" style="fill: #4682b4; fill-opacity: 0.8"/>
    <path d="M 383.783179 343.90384 
L 396.372352 347.628814 
L 403.062219 341.189107 
L 390.511788 337.497174 
z
" clip-path="url(#p90283dfa21)" style="fill: #4682b4; fill-opacity: 0.8"/>
    <path d="M 300.681567 344.63299 
L 313.062512 348.361734 
L 320.126731 341.915515 
L 307.782662 338.219863 
z
" clip-path="url(#p90283dfa21)" style="fill: #4682b4; fill-opacity: 0.8"/>
    <path d="M 217.495939 345.362877 
L 229.668229 349.095396 
L 237.107553 342.642657 
L 224.970268 338.943279 
z
" clip-path="url(#p90283dfa21)" style="fill: #4682b4; fill-opacity: 0.8"/>
    <path d="M 332.534436 345.630219 
L 345.006269 349.364122 
L 351.933014 342.908992 
L 339.498839 339.20825 
z
" clip-path="url(#p90283dfa21)" style="fill: #4682b4; fill-opacity: 0.8"/>
    <path d="M 249.307439 346.361114 
L 261.570411 350.098801 
L 268.872637 343.637137 
L 256.645448 339.932661 
z
" clip-path="url(#p90283dfa21)" style="fill: #4682b4; fill-opacity: 0.8"/>
    <path d="M 364.431334 346.628826 
L 376.994294 350.367898 
L 383.783179 343.90384 
L 371.258662 340.197997 
z
" clip-path="url(#p90283dfa21)" style="fill: #4682b4; fill-opacity: 0.8"/>
    <path d="M 281.162933 347.360732 
L 293.516827 351.103596 
L 300.681567 344.63299 
L 288.364239 340.923406 
z
" clip-path="url(#p90283dfa21)" style="fill: #4682b4; fill-opacity: 0.8"/>
    <path d="M 313.062512 348.361734 
L 325.507569 352.109786 
L 332.534436 345.630219 
L 320.126731 341.915515 
z
" clip-path="url(#p90283dfa21)" style="fill: #4682b4; fill-opacity: 0.8"/>
    <path d="M 229.668229 349.095396 
L 241.903582 352.847254 
L 249.307439 346.361114 
L 237.107553 342.642657 
z
" clip-path="url(#p90283dfa21)" style="fill: #4682b4; fill-opacity: 0.8"/>
    <path d="M 345.006269 349.364122 
L 357.542729 353.117373 
L 364.431334 346.628826 
L 351.933014 342.908992 
z
" clip-path="url(#p90283dfa21)" style="fill: #4682b4; fill-opacity: 0.8"/>
    <path d="M 261.570411 350.098801 
L 273.896961 353.855865 
L 281.162933 347.360732 
L 268.872637 343.637137 
z
" clip-path="url(#p90283dfa21)" style="fill: #4682b4; fill-opacity: 0.8"/>
    <path d="M 376.994294 350.367898 
L 389.622399 354.12636 
L 396.372352 347.628814 
L 383.783179 343.90384 
z
" clip-path="url(#p90283dfa21)" style="fill: #4682b4; fill-opacity: 0.8"/>
    <path d="M 293.516827 351.103596 
L 305.934814 354.865878 
L 313.062512 348.361734 
L 300.681567 344.63299 
z
" clip-path="url(#p90283dfa21)" style="fill: #4682b4; fill-opacity: 0.8"/>
    <path d="M 325.507569 352.109786 
L 338.017236 355.877297 
L 345.006269 349.364122 
L 332.534436 345.630219 
z
" clip-path="url(#p90283dfa21)" style="fill: #4682b4; fill-opacity: 0.8"/>
    <path d="M 241.903582 352.847254 
L 254.202489 356.618599 
L 261.570411 350.098801 
L 249.307439 346.361114 
z
" clip-path="url(#p90283dfa21)" style="fill: #4682b4; fill-opacity: 0.8"/>
    <path d="M 357.542729 353.117373 
L 370.144319 356.890123 
L 376.994294 350.367898 
L 364.431334 346.628826 
z
" clip-path="url(#p90283dfa21)" style="fill: #4682b4; fill-opacity: 0.8"/>
    <path d="M 273.896961 353.855865 
L 286.287583 357.632458 
L 293.516827 351.103596 
L 281.162933 347.360732 
z
" clip-path="url(#p90283dfa21)" style="fill: #4682b4; fill-opacity: 0.8"/>
    <path d="M 305.934814 354.865878 
L 318.417395 358.64773 
L 325.507569 352.109786 
L 313.062512 348.361734 
z
" clip-path="url(#p90283dfa21)" style="fill: #4682b4; fill-opacity: 0.8"/>
    <path d="M 338.017236 355.877297 
L 350.592019 359.664418 
L 357.542729 353.117373 
L 345.006269 349.364122 
z
" clip-path="url(#p90283dfa21)" style="fill: #4682b4; fill-opacity: 0.8"/>
    <path d="M 254.202489 356.618599 
L 266.565447 360.409585 
L 273.896961 353.855865 
L 261.570411 350.098801 
z
" clip-path="url(#p90283dfa21)" style="fill: #4682b4; fill-opacity: 0.8"/>
    <path d="M 370.144319 356.890123 
L 382.811549 360.682525 
L 389.622399 354.12636 
L 376.994294 350.367898 
z
" clip-path="url(#p90283dfa21)" style="fill: #4682b4; fill-opacity: 0.8"/>
    <path d="M 286.287583 357.632458 
L 298.742778 361.428733 
L 305.934814 354.865878 
L 293.516827 351.103596 
z
" clip-path="url(#p90283dfa21)" style="fill: #4682b4; fill-opacity: 0.8"/>
    <path d="M 318.417395 358.64773 
L 330.965073 362.449305 
L 338.017236 355.877297 
L 325.507569 352.109786 
z
" clip-path="url(#p90283dfa21)" style="fill: #4682b4; fill-opacity: 0.8"/>
    <path d="M 350.592019 359.664418 
L 363.232426 363.471304 
L 370.144319 356.890123 
L 357.542729 353.117373 
z
" clip-path="url(#p90283dfa21)" style="fill: #4682b4; fill-opacity: 0.8"/>
    <path d="M 266.565447 360.409585 
L 278.992958 364.220366 
L 286.287583 357.632458 
L 273.896961 353.855865 
z
" clip-path="url(#p90283dfa21)" style="fill: #4682b4; fill-opacity: 0.8"/>
    <path d="M 298.742778 361.428733 
L 311.263053 365.244844 
L 318.417395 358.64773 
L 305.934814 354.865878 
z
" clip-path="url(#p90283dfa21)" style="fill: #4682b4; fill-opacity: 0.8"/>
    <path d="M 330.965073 362.449305 
L 343.57836 366.270757 
L 350.592019 359.664418 
L 338.017236 355.877297 
z
" clip-path="url(#p90283dfa21)" style="fill: #4682b4; fill-opacity: 0.8"/>
    <path d="M 363.232426 363.471304 
L 375.938973 367.298109 
L 382.811549 360.682525 
L 370.144319 356.890123 
z
" clip-path="url(#p90283dfa21)" style="fill: #4682b4; fill-opacity: 0.8"/>
    <path d="M 278.992958 364.220366 
L 291.485528 368.051096 
L 298.742778 361.428733 
L 286.287583 357.632458 
z
" clip-path="url(#p90283dfa21)" style="fill: #4682b4; fill-opacity: 0.8"/>
    <path d="M 311.263053 365.244844 
L 323.848919 369.080946 
L 330.965073 362.449305 
L 318.417395 358.64773 
z
" clip-path="url(#p90283dfa21)" style="fill: #4682b4; fill-opacity: 0.8"/>
    <path d="M 343.57836 366.270757 
L 356.257772 370.112243 
L 363.232426 363.471304 
L 350.592019 359.664418 
z
" clip-path="url(#p90283dfa21)" style="fill: #4682b4; fill-opacity: 0.8"/>
    <path d="M 291.485528 368.051096 
L 304.043669 371.901933 
L 311.263053 365.244844 
L 298.742778 361.428733 
z
" clip-path="url(#p90283dfa21)" style="fill: #4682b4; fill-opacity: 0.8"/>
    <path d="M 323.848919 369.080946 
L 336.500893 372.937198 
L 343.57836 366.270757 
L 330.965073 362.449305 
z
" clip-path="url(#p90283dfa21)" style="fill: #4682b4; fill-opacity: 0.8"/>
    <path d="M 356.257772 370.112243 
L 369.003829 373.973921 
L 375.938973 367.298109 
L 363.232426 363.471304 
z
" clip-path="url(#p90283dfa21)" style="fill: #4682b4; fill-opacity: 0.8"/>
    <path d="M 304.043669 371.901933 
L 316.6679 375.773036 
L 323.848919 369.080946 
L 311.263053 365.244844 
z
" clip-path="url(#p90283dfa21)" style="fill: #4682b4; fill-opacity: 0.8"/>
    <path d="M 336.500893 372.937198 
L 349.219497 376.813758 
L 356.257772 370.112243 
L 343.57836 366.270757 
z
" clip-path="url(#p90283dfa21)" style="fill: #4682b4; fill-opacity: 0.8"/>
    <path d="M 316.6679 375.773036 
L 329.358743 379.664565 
L 336.500893 372.937198 
L 323.848919 369.080946 
z
" clip-path="url(#p90283dfa21)" style="fill: #4682b4; fill-opacity: 0.8"/>
    <path d="M 349.219497 376.813758 
L 362.005258 380.710788 
L 369.003829 373.973921 
L 356.257772 370.112243 
z
" clip-path="url(#p90283dfa21)" style="fill: #4682b4; fill-opacity: 0.8"/>
    <path d="M 329.358743 379.664565 
L 342.116727 383.576682 
L 349.219497 376.813758 
L 336.500893 372.937198 
z
" clip-path="url(#p90283dfa21)" style="fill: #4682b4; fill-opacity: 0.8"/>
    <path d="M 342.116727 383.576682 
L 354.942387 387.509551 
L 362.005258 380.710788 
L 349.219497 376.813758 
z
" clip-path="url(#p90283dfa21)" style="fill: #4682b4; fill-opacity: 0.8"/>
   </g>
  </g>
  <g id="axes_2">
   <g id="Path3DCollection_1">
    <defs>
     <path id="m1713432ed3" d="M 0 5 
C 1.326016 5 2.597899 4.473168 3.535534 3.535534 
C 4.473168 2.597899 5 1.326016 5 0 
C 5 -1.326016 4.473168 -2.597899 3.535534 -3.535534 
C 2.597899 -4.473168 1.326016 -5 0 -5 
C -1.326016 -5 -2.597899 -4.473168 -3.535534 -3.535534 
C -4.473168 -2.597899 -5 -1.326016 -5 0 
C -5 1.326016 -4.473168 2.597899 -3.535534 3.535534 
C -2.597899 4.473168 -1.326016 5 0 5 
z
" style="stroke: #030303"/>
    </defs>
    <g clip-path="url(#p90283dfa21)">
     <use xlink:href="#m1713432ed3" x="395.834513" y="186.597256" style="fill: #030303; stroke: #030303"/>
    </g>
   </g>
   <g id="text_1">
    <!--    Data -->
    <g transform="translate(395.834513 186.597256) scale(0.1 -0.1)">
     <defs>
      <path id="DejaVuSans-20" transform="scale(0.015625)"/>
      <path id="DejaVuSans-44" d="M 1259 4147 
L 1259 519 
L 2022 519 
Q 2988 519 3436 956 
Q 3884 1394 3884 2338 
Q 3884 3275 3436 3711 
Q 2988 4147 2022 4147 
L 1259 4147 
z
M 628 4666 
L 1925 4666 
Q 3281 4666 3915 4102 
Q 4550 3538 4550 2338 
Q 4550 1131 3912 565 
Q 3275 0 1925 0 
L 628 0 
L 628 4666 
z
" transform="scale(0.015625)"/>
      <path id="DejaVuSans-61" d="M 2194 1759 
Q 1497 1759 1228 1600 
Q 959 1441 959 1056 
Q 959 750 1161 570 
Q 1363 391 1709 391 
Q 2188 391 2477 730 
Q 2766 1069 2766 1631 
L 2766 1759 
L 2194 1759 
z
M 3341 1997 
L 3341 0 
L 2766 0 
L 2766 531 
Q 2569 213 2275 61 
Q 1981 -91 1556 -91 
Q 1019 -91 701 211 
Q 384 513 384 1019 
Q 384 1609 779 1909 
Q 1175 2209 1959 2209 
L 2766 2209 
L 2766 2266 
Q 2766 2663 2505 2880 
Q 2244 3097 1772 3097 
Q 1472 3097 1187 3025 
Q 903 2953 641 2809 
L 641 3341 
Q 956 3463 1253 3523 
Q 1550 3584 1831 3584 
Q 2591 3584 2966 3190 
Q 3341 2797 3341 1997 
z
" transform="scale(0.015625)"/>
      <path id="DejaVuSans-74" d="M 1172 4494 
L 1172 3500 
L 2356 3500 
L 2356 3053 
L 1172 3053 
L 1172 1153 
Q 1172 725 1289 603 
Q 1406 481 1766 481 
L 2356 481 
L 2356 0 
L 1766 0 
Q 1100 0 847 248 
Q 594 497 594 1153 
L 594 3053 
L 172 3053 
L 172 3500 
L 594 3500 
L 594 4494 
L 1172 4494 
z
" transform="scale(0.015625)"/>
     </defs>
     <use xlink:href="#DejaVuSans-20"/>
     <use xlink:href="#DejaVuSans-20" x="31.787109"/>
     <use xlink:href="#DejaVuSans-20" x="63.574219"/>
     <use xlink:href="#DejaVuSans-44" x="95.361328"/>
     <use xlink:href="#DejaVuSans-61" x="172.363281"/>
     <use xlink:href="#DejaVuSans-74" x="233.642578"/>
     <use xlink:href="#DejaVuSans-61" x="272.851562"/>
    </g>
   </g>
  </g>
  <g id="axes_3">
   <g id="line2d_4">
    <path d="M 395.834513 186.597256 
L 206.819061 299.719205 
" clip-path="url(#p90283dfa21)" style="fill: none; stroke: #73b55b; stroke-width: 2; stroke-linecap: square"/>
   </g>
   <g id="Path3DCollection_2">
    <g clip-path="url(#p90283dfa21)">
     <use xlink:href="#m1713432ed3" x="206.819061" y="299.719205" style="fill: #030303; stroke: #030303"/>
    </g>
   </g>
   <g id="text_2">
    <!-- Null    -->
    <g transform="translate(177.909686 299.719205) scale(0.1 -0.1)">
     <defs>
      <path id="DejaVuSans-4e" d="M 628 4666 
L 1478 4666 
L 3547 763 
L 3547 4666 
L 4159 4666 
L 4159 0 
L 3309 0 
L 1241 3903 
L 1241 0 
L 628 0 
L 628 4666 
z
" transform="scale(0.015625)"/>
      <path id="DejaVuSans-75" d="M 544 1381 
L 544 3500 
L 1119 3500 
L 1119 1403 
Q 1119 906 1312 657 
Q 1506 409 1894 409 
Q 2359 409 2629 706 
Q 2900 1003 2900 1516 
L 2900 3500 
L 3475 3500 
L 3475 0 
L 2900 0 
L 2900 538 
Q 2691 219 2414 64 
Q 2138 -91 1772 -91 
Q 1169 -91 856 284 
Q 544 659 544 1381 
z
M 1991 3584 
L 1991 3584 
z
" transform="scale(0.015625)"/>
      <path id="DejaVuSans-6c" d="M 603 4863 
L 1178 4863 
L 1178 0 
L 603 0 
L 603 4863 
z
" transform="scale(0.015625)"/>
     </defs>
     <use xlink:href="#DejaVuSans-4e"/>
     <use xlink:href="#DejaVuSans-75" x="74.804688"/>
     <use xlink:href="#DejaVuSans-6c" x="138.183594"/>
     <use xlink:href="#DejaVuSans-6c" x="165.966797"/>
     <use xlink:href="#DejaVuSans-20" x="193.75"/>
     <use xlink:href="#DejaVuSans-20" x="225.537109"/>
     <use xlink:href="#DejaVuSans-20" x="257.324219"/>
    </g>
   </g>
  </g>
  <g id="axes_4">
   <g id="line2d_5">
    <path d="M 393.874729 274.619224 
L 206.819061 299.719205 
" clip-path="url(#p90283dfa21)" style="fill: none; stroke: #f79a52; stroke-width: 2; stroke-linecap: square"/>
   </g>
   <g id="Path3DCollection_3">
    <g clip-path="url(#p90283dfa21)">
     <use xlink:href="#m1713432ed3" x="393.874729" y="274.619224" style="fill: #030303; stroke: #030303"/>
    </g>
   </g>
   <g id="text_3">
    <!--    Fit -->
    <g transform="translate(393.874729 274.619224) scale(0.1 -0.1)">
     <defs>
      <path id="DejaVuSans-46" d="M 628 4666 
L 3309 4666 
L 3309 4134 
L 1259 4134 
L 1259 2759 
L 3109 2759 
L 3109 2228 
L 1259 2228 
L 1259 0 
L 628 0 
L 628 4666 
z
" transform="scale(0.015625)"/>
      <path id="DejaVuSans-69" d="M 603 3500 
L 1178 3500 
L 1178 0 
L 603 0 
L 603 3500 
z
M 603 4863 
L 1178 4863 
L 1178 4134 
L 603 4134 
L 603 4863 
z
" transform="scale(0.015625)"/>
     </defs>
     <use xlink:href="#DejaVuSans-20"/>
     <use xlink:href="#DejaVuSans-20" x="31.787109"/>
     <use xlink:href="#DejaVuSans-20" x="63.574219"/>
     <use xlink:href="#DejaVuSans-46" x="95.361328"/>
     <use xlink:href="#DejaVuSans-69" x="145.630859"/>
     <use xlink:href="#DejaVuSans-74" x="173.414062"/>
    </g>
   </g>
  </g>
  <g id="axes_5">
   <g id="line2d_6">
    <path d="M 395.834513 186.597256 
L 393.874729 274.619224 
" clip-path="url(#p90283dfa21)" style="fill: none; stroke: #88c9c1; stroke-width: 2; stroke-linecap: square"/>
   </g>
  </g>
  <g id="axes_6">
   <g id="line2d_7">
    <path d="M 206.819061 299.719205 
L 394.844369 231.068687 
" clip-path="url(#p90283dfa21)" style="fill: none; stroke-dasharray: 7.4,3.2; stroke-dashoffset: 0; stroke: #9469ad; stroke-width: 2"/>
   </g>
   <g id="patch_3">
    <path d="M 396.215895 268.737611 
L 401.739906 268.830305 
L 402.371432 231.194993 
L 396.84742 231.102299 
" style="fill: none; stroke: #9469ad; stroke-width: 2; stroke-linecap: round"/>
   </g>
   <g id="patch_4">
    <path d="M 396.666193 229.739342 
L 402.644145 229.718933 
L 402.508 189.839961 
L 396.530049 189.860369 
" style="fill: none; stroke: #a6a6a6; stroke-width: 2; stroke-linecap: round"/>
   </g>
   <g id="text_4">
    <!--      $SS_{subjects}$ -->
    <g transform="translate(395.23793 216.472248) scale(0.14 -0.14)">
     <defs>
      <path id="DejaVuSans-Oblique-53" d="M 3859 4513 
L 3738 3897 
Q 3422 4066 3111 4152 
Q 2800 4238 2509 4238 
Q 1944 4238 1609 3991 
Q 1275 3744 1275 3334 
Q 1275 3109 1398 2989 
Q 1522 2869 2034 2731 
L 2413 2638 
Q 3053 2472 3303 2217 
Q 3553 1963 3553 1503 
Q 3553 797 2998 353 
Q 2444 -91 1538 -91 
Q 1166 -91 791 -17 
Q 416 56 38 206 
L 166 856 
Q 513 641 861 531 
Q 1209 422 1556 422 
Q 2147 422 2503 684 
Q 2859 947 2859 1369 
Q 2859 1650 2717 1795 
Q 2575 1941 2106 2059 
L 1728 2156 
Q 1081 2325 845 2545 
Q 609 2766 609 3163 
Q 609 3859 1145 4304 
Q 1681 4750 2541 4750 
Q 2875 4750 3203 4690 
Q 3531 4631 3859 4513 
z
" transform="scale(0.015625)"/>
      <path id="DejaVuSans-Oblique-73" d="M 3200 3397 
L 3091 2853 
Q 2863 2978 2609 3040 
Q 2356 3103 2088 3103 
Q 1634 3103 1373 2948 
Q 1113 2794 1113 2528 
Q 1113 2219 1719 2053 
Q 1766 2041 1788 2034 
L 1972 1978 
Q 2547 1819 2739 1644 
Q 2931 1469 2931 1166 
Q 2931 609 2489 259 
Q 2047 -91 1331 -91 
Q 1053 -91 747 -37 
Q 441 16 72 128 
L 184 722 
Q 500 559 806 475 
Q 1113 391 1394 391 
Q 1816 391 2080 572 
Q 2344 753 2344 1031 
Q 2344 1331 1650 1516 
L 1591 1531 
L 1394 1581 
Q 956 1697 753 1886 
Q 550 2075 550 2369 
Q 550 2928 970 3256 
Q 1391 3584 2113 3584 
Q 2397 3584 2667 3537 
Q 2938 3491 3200 3397 
z
" transform="scale(0.015625)"/>
      <path id="DejaVuSans-Oblique-75" d="M 428 1388 
L 838 3500 
L 1416 3500 
L 1006 1409 
Q 975 1256 961 1147 
Q 947 1038 947 966 
Q 947 700 1109 554 
Q 1272 409 1569 409 
Q 2031 409 2368 721 
Q 2706 1034 2809 1563 
L 3194 3500 
L 3769 3500 
L 3091 0 
L 2516 0 
L 2631 550 
Q 2388 244 2052 76 
Q 1716 -91 1338 -91 
Q 878 -91 622 161 
Q 366 413 366 863 
Q 366 956 381 1097 
Q 397 1238 428 1388 
z
" transform="scale(0.015625)"/>
      <path id="DejaVuSans-Oblique-62" d="M 3169 2138 
Q 3169 2591 2961 2847 
Q 2753 3103 2388 3103 
Q 2122 3103 1889 2973 
Q 1656 2844 1484 2597 
Q 1303 2338 1198 1995 
Q 1094 1653 1094 1313 
Q 1094 881 1298 636 
Q 1503 391 1863 391 
Q 2134 391 2365 517 
Q 2597 644 2772 891 
Q 2950 1147 3059 1487 
Q 3169 1828 3169 2138 
z
M 1381 2969 
Q 1594 3256 1914 3420 
Q 2234 3584 2584 3584 
Q 3122 3584 3439 3221 
Q 3756 2859 3756 2241 
Q 3756 1734 3570 1259 
Q 3384 784 3041 416 
Q 2816 172 2522 40 
Q 2228 -91 1906 -91 
Q 1566 -91 1316 65 
Q 1066 222 909 531 
L 806 0 
L 231 0 
L 1178 4863 
L 1753 4863 
L 1381 2969 
z
" transform="scale(0.015625)"/>
      <path id="DejaVuSans-Oblique-6a" d="M 928 3500 
L 1503 3500 
L 813 -63 
L 809 -78 
Q 694 -675 544 -897 
Q 403 -1106 132 -1218 
Q -138 -1331 -506 -1331 
L -722 -1331 
L -628 -844 
L -481 -844 
Q -144 -844 -1 -703 
Q 141 -563 238 -63 
L 928 3500 
z
M 1197 4863 
L 1772 4863 
L 1631 4134 
L 1056 4134 
L 1197 4863 
z
" transform="scale(0.015625)"/>
      <path id="DejaVuSans-Oblique-65" d="M 3078 2063 
Q 3088 2113 3092 2166 
Q 3097 2219 3097 2272 
Q 3097 2653 2873 2875 
Q 2650 3097 2266 3097 
Q 1838 3097 1509 2826 
Q 1181 2556 1013 2059 
L 3078 2063 
z
M 3578 1613 
L 903 1613 
Q 884 1494 878 1425 
Q 872 1356 872 1306 
Q 872 872 1139 634 
Q 1406 397 1894 397 
Q 2269 397 2603 481 
Q 2938 566 3225 728 
L 3116 159 
Q 2806 34 2476 -28 
Q 2147 -91 1806 -91 
Q 1078 -91 686 257 
Q 294 606 294 1247 
Q 294 1794 489 2264 
Q 684 2734 1063 3103 
Q 1306 3334 1642 3459 
Q 1978 3584 2356 3584 
Q 2950 3584 3301 3228 
Q 3653 2872 3653 2272 
Q 3653 2128 3634 1964 
Q 3616 1800 3578 1613 
z
" transform="scale(0.015625)"/>
      <path id="DejaVuSans-Oblique-63" d="M 3431 3366 
L 3316 2797 
Q 3109 2947 2876 3022 
Q 2644 3097 2394 3097 
Q 2119 3097 1870 3000 
Q 1622 2903 1453 2725 
Q 1184 2453 1037 2087 
Q 891 1722 891 1331 
Q 891 859 1127 628 
Q 1363 397 1844 397 
Q 2081 397 2348 469 
Q 2616 541 2906 684 
L 2797 116 
Q 2547 13 2283 -39 
Q 2019 -91 1741 -91 
Q 1044 -91 669 257 
Q 294 606 294 1253 
Q 294 1797 489 2255 
Q 684 2713 1069 3078 
Q 1331 3328 1684 3456 
Q 2038 3584 2456 3584 
Q 2700 3584 2940 3529 
Q 3181 3475 3431 3366 
z
" transform="scale(0.015625)"/>
      <path id="DejaVuSans-Oblique-74" d="M 2706 3500 
L 2619 3053 
L 1472 3053 
L 1100 1153 
Q 1081 1047 1072 975 
Q 1063 903 1063 863 
Q 1063 663 1183 572 
Q 1303 481 1569 481 
L 2150 481 
L 2053 0 
L 1503 0 
Q 991 0 739 200 
Q 488 400 488 806 
Q 488 878 497 964 
Q 506 1050 525 1153 
L 897 3053 
L 409 3053 
L 500 3500 
L 978 3500 
L 1172 4494 
L 1747 4494 
L 1556 3500 
L 2706 3500 
z
" transform="scale(0.015625)"/>
     </defs>
     <use xlink:href="#DejaVuSans-20" transform="translate(0 0.78125)"/>
     <use xlink:href="#DejaVuSans-20" transform="translate(31.787109 0.78125)"/>
     <use xlink:href="#DejaVuSans-20" transform="translate(63.574219 0.78125)"/>
     <use xlink:href="#DejaVuSans-20" transform="translate(95.361328 0.78125)"/>
     <use xlink:href="#DejaVuSans-20" transform="translate(127.148438 0.78125)"/>
     <use xlink:href="#DejaVuSans-Oblique-53" transform="translate(158.935547 0.78125)"/>
     <use xlink:href="#DejaVuSans-Oblique-53" transform="translate(222.412109 0.78125)"/>
     <use xlink:href="#DejaVuSans-Oblique-73" transform="translate(285.888672 -15.625) scale(0.7)"/>
     <use xlink:href="#DejaVuSans-Oblique-75" transform="translate(322.358398 -15.625) scale(0.7)"/>
     <use xlink:href="#DejaVuSans-Oblique-62" transform="translate(366.723633 -15.625) scale(0.7)"/>
     <use xlink:href="#DejaVuSans-Oblique-6a" transform="translate(411.157227 -15.625) scale(0.7)"/>
     <use xlink:href="#DejaVuSans-Oblique-65" transform="translate(430.605469 -15.625) scale(0.7)"/>
     <use xlink:href="#DejaVuSans-Oblique-63" transform="translate(473.671875 -15.625) scale(0.7)"/>
     <use xlink:href="#DejaVuSans-Oblique-74" transform="translate(512.158203 -15.625) scale(0.7)"/>
     <use xlink:href="#DejaVuSans-Oblique-73" transform="translate(539.604492 -15.625) scale(0.7)"/>
    </g>
   </g>
   <g id="text_5">
    <!--      $SS_{error}$ -->
    <g style="fill: #9469ad" transform="translate(394.454088 252.460923) scale(0.14 -0.14)">
     <defs>
      <path id="DejaVuSans-Oblique-72" d="M 2853 2969 
Q 2766 3016 2653 3041 
Q 2541 3066 2413 3066 
Q 1953 3066 1609 2717 
Q 1266 2369 1153 1784 
L 800 0 
L 225 0 
L 909 3500 
L 1484 3500 
L 1375 2956 
Q 1603 3259 1920 3421 
Q 2238 3584 2597 3584 
Q 2691 3584 2781 3573 
Q 2872 3563 2963 3538 
L 2853 2969 
z
" transform="scale(0.015625)"/>
      <path id="DejaVuSans-Oblique-6f" d="M 1625 -91 
Q 1009 -91 651 289 
Q 294 669 294 1325 
Q 294 1706 417 2101 
Q 541 2497 738 2766 
Q 1047 3184 1428 3384 
Q 1809 3584 2291 3584 
Q 2888 3584 3255 3212 
Q 3622 2841 3622 2241 
Q 3622 1825 3500 1412 
Q 3378 1000 3181 728 
Q 2875 309 2494 109 
Q 2113 -91 1625 -91 
z
M 891 1344 
Q 891 869 1089 633 
Q 1288 397 1691 397 
Q 2269 397 2648 901 
Q 3028 1406 3028 2181 
Q 3028 2634 2825 2865 
Q 2622 3097 2228 3097 
Q 1903 3097 1650 2945 
Q 1397 2794 1197 2484 
Q 1050 2253 970 1956 
Q 891 1659 891 1344 
z
" transform="scale(0.015625)"/>
     </defs>
     <use xlink:href="#DejaVuSans-20" transform="translate(0 0.78125)"/>
     <use xlink:href="#DejaVuSans-20" transform="translate(31.787109 0.78125)"/>
     <use xlink:href="#DejaVuSans-20" transform="translate(63.574219 0.78125)"/>
     <use xlink:href="#DejaVuSans-20" transform="translate(95.361328 0.78125)"/>
     <use xlink:href="#DejaVuSans-20" transform="translate(127.148438 0.78125)"/>
     <use xlink:href="#DejaVuSans-Oblique-53" transform="translate(158.935547 0.78125)"/>
     <use xlink:href="#DejaVuSans-Oblique-53" transform="translate(222.412109 0.78125)"/>
     <use xlink:href="#DejaVuSans-Oblique-65" transform="translate(285.888672 -15.625) scale(0.7)"/>
     <use xlink:href="#DejaVuSans-Oblique-72" transform="translate(328.955078 -15.625) scale(0.7)"/>
     <use xlink:href="#DejaVuSans-Oblique-72" transform="translate(357.734375 -15.625) scale(0.7)"/>
     <use xlink:href="#DejaVuSans-Oblique-6f" transform="translate(386.513672 -15.625) scale(0.7)"/>
     <use xlink:href="#DejaVuSans-Oblique-72" transform="translate(429.34082 -15.625) scale(0.7)"/>
    </g>
   </g>
  </g>
 </g>
 <defs>
  <clipPath id="p90283dfa21">
   <rect x="73.44" y="69.12" width="443.52" height="443.52"/>
  </clipPath>
 </defs>
</svg>
