<?xml version="1.0" encoding="utf-8" standalone="no"?>
<!DOCTYPE svg PUBLIC "-//W3C//DTD SVG 1.1//EN"
  "http://www.w3.org/Graphics/SVG/1.1/DTD/svg11.dtd">
<svg xmlns:xlink="http://www.w3.org/1999/xlink" width="720.098433pt" height="276.373844pt" viewBox="0 0 720.098433 276.373844" xmlns="http://www.w3.org/2000/svg" version="1.1">
 <metadata>
  <rdf:RDF xmlns:dc="http://purl.org/dc/elements/1.1/" xmlns:cc="http://creativecommons.org/ns#" xmlns:rdf="http://www.w3.org/1999/02/22-rdf-syntax-ns#">
   <cc:Work>
    <dc:type rdf:resource="http://purl.org/dc/dcmitype/StillImage"/>
    <dc:date>2025-03-10T21:40:39.587086</dc:date>
    <dc:format>image/svg+xml</dc:format>
    <dc:creator>
     <cc:Agent>
      <dc:title>Matplotlib v3.10.0, https://matplotlib.org/</dc:title>
     </cc:Agent>
    </dc:creator>
   </cc:Work>
  </rdf:RDF>
 </metadata>
 <defs>
  <style type="text/css">*{stroke-linejoin: round; stroke-linecap: butt}</style>
 </defs>
 <g id="figure_1">
  <g id="patch_1">
   <path d="M 0 276.373844 
L 720.098433 276.373844 
L 720.098433 0 
L 0 0 
L 0 276.373844 
z
" style="fill: none"/>
  </g>
  <g id="axes_1">
   <g id="patch_2">
    <path d="M 10.553217 225.544469 
L 347.954741 225.544469 
L 347.954741 7.2 
L 10.553217 7.2 
L 10.553217 225.544469 
z
" style="fill: none"/>
   </g>
   <g id="patch_3">
    <path d="M 18.43356 225.544469 
L 24.639502 225.544469 
L 24.639502 21.111955 
L 18.43356 21.111955 
z
" clip-path="url(#pb766502083)" style="fill: #e04b4b; opacity: 0.6"/>
   </g>
   <g id="patch_4">
    <path d="M 24.639502 225.544469 
L 30.845444 225.544469 
L 30.845444 32.827285 
L 24.639502 32.827285 
z
" clip-path="url(#pb766502083)" style="fill: #e04b4b; opacity: 0.6"/>
   </g>
   <g id="patch_5">
    <path d="M 30.845444 225.544469 
L 37.051387 225.544469 
L 37.051387 17.597356 
L 30.845444 17.597356 
z
" clip-path="url(#pb766502083)" style="fill: #e04b4b; opacity: 0.6"/>
   </g>
   <g id="patch_6">
    <path d="M 37.051387 225.544469 
L 43.257329 225.544469 
L 43.257329 36.341884 
L 37.051387 36.341884 
z
" clip-path="url(#pb766502083)" style="fill: #e04b4b; opacity: 0.6"/>
   </g>
   <g id="patch_7">
    <path d="M 43.257329 225.544469 
L 49.463271 225.544469 
L 49.463271 34.584585 
L 43.257329 34.584585 
z
" clip-path="url(#pb766502083)" style="fill: #e04b4b; opacity: 0.6"/>
   </g>
   <g id="patch_8">
    <path d="M 49.463271 225.544469 
L 55.669214 225.544469 
L 55.669214 40.149367 
L 49.463271 40.149367 
z
" clip-path="url(#pb766502083)" style="fill: #e04b4b; opacity: 0.6"/>
   </g>
   <g id="patch_9">
    <path d="M 55.669214 225.544469 
L 61.875156 225.544469 
L 61.875156 61.822728 
L 55.669214 61.822728 
z
" clip-path="url(#pb766502083)" style="fill: #e04b4b; opacity: 0.6"/>
   </g>
   <g id="patch_10">
    <path d="M 61.875156 225.544469 
L 68.081098 225.544469 
L 68.081098 57.136595 
L 61.875156 57.136595 
z
" clip-path="url(#pb766502083)" style="fill: #e04b4b; opacity: 0.6"/>
   </g>
   <g id="patch_11">
    <path d="M 68.081098 225.544469 
L 74.28704 225.544469 
L 74.28704 64.75156 
L 68.081098 64.75156 
z
" clip-path="url(#pb766502083)" style="fill: #e04b4b; opacity: 0.6"/>
   </g>
   <g id="patch_12">
    <path d="M 74.28704 225.544469 
L 80.492983 225.544469 
L 80.492983 85.253388 
L 74.28704 85.253388 
z
" clip-path="url(#pb766502083)" style="fill: #e04b4b; opacity: 0.6"/>
   </g>
   <g id="patch_13">
    <path d="M 80.492983 225.544469 
L 86.698925 225.544469 
L 86.698925 98.726018 
L 80.492983 98.726018 
z
" clip-path="url(#pb766502083)" style="fill: #e04b4b; opacity: 0.6"/>
   </g>
   <g id="patch_14">
    <path d="M 86.698925 225.544469 
L 92.904867 225.544469 
L 92.904867 112.491531 
L 86.698925 112.491531 
z
" clip-path="url(#pb766502083)" style="fill: #e04b4b; opacity: 0.6"/>
   </g>
   <g id="patch_15">
    <path d="M 92.904867 225.544469 
L 99.11081 225.544469 
L 99.11081 103.119267 
L 92.904867 103.119267 
z
" clip-path="url(#pb766502083)" style="fill: #e04b4b; opacity: 0.6"/>
   </g>
   <g id="patch_16">
    <path d="M 99.11081 225.544469 
L 105.316752 225.544469 
L 105.316752 120.106496 
L 99.11081 120.106496 
z
" clip-path="url(#pb766502083)" style="fill: #e04b4b; opacity: 0.6"/>
   </g>
   <g id="patch_17">
    <path d="M 105.316752 225.544469 
L 111.522694 225.544469 
L 111.522694 135.629309 
L 105.316752 135.629309 
z
" clip-path="url(#pb766502083)" style="fill: #e04b4b; opacity: 0.6"/>
   </g>
   <g id="patch_18">
    <path d="M 111.522694 225.544469 
L 117.728636 225.544469 
L 117.728636 148.516172 
L 111.522694 148.516172 
z
" clip-path="url(#pb766502083)" style="fill: #e04b4b; opacity: 0.6"/>
   </g>
   <g id="patch_19">
    <path d="M 117.728636 225.544469 
L 123.934579 225.544469 
L 123.934579 146.758872 
L 117.728636 146.758872 
z
" clip-path="url(#pb766502083)" style="fill: #e04b4b; opacity: 0.6"/>
   </g>
   <g id="patch_20">
    <path d="M 123.934579 225.544469 
L 130.140521 225.544469 
L 130.140521 151.737888 
L 123.934579 151.737888 
z
" clip-path="url(#pb766502083)" style="fill: #e04b4b; opacity: 0.6"/>
   </g>
   <g id="patch_21">
    <path d="M 130.140521 225.544469 
L 136.346463 225.544469 
L 136.346463 173.118366 
L 130.140521 173.118366 
z
" clip-path="url(#pb766502083)" style="fill: #e04b4b; opacity: 0.6"/>
   </g>
   <g id="patch_22">
    <path d="M 136.346463 225.544469 
L 142.552406 225.544469 
L 142.552406 181.026214 
L 136.346463 181.026214 
z
" clip-path="url(#pb766502083)" style="fill: #e04b4b; opacity: 0.6"/>
   </g>
   <g id="patch_23">
    <path d="M 142.552406 225.544469 
L 148.758348 225.544469 
L 148.758348 183.662163 
L 142.552406 183.662163 
z
" clip-path="url(#pb766502083)" style="fill: #e04b4b; opacity: 0.6"/>
   </g>
   <g id="patch_24">
    <path d="M 148.758348 225.544469 
L 154.96429 225.544469 
L 154.96429 189.226945 
L 148.758348 189.226945 
z
" clip-path="url(#pb766502083)" style="fill: #e04b4b; opacity: 0.6"/>
   </g>
   <g id="patch_25">
    <path d="M 154.96429 225.544469 
L 161.170232 225.544469 
L 161.170232 194.791727 
L 154.96429 194.791727 
z
" clip-path="url(#pb766502083)" style="fill: #e04b4b; opacity: 0.6"/>
   </g>
   <g id="patch_26">
    <path d="M 161.170232 225.544469 
L 167.376175 225.544469 
L 167.376175 202.113808 
L 161.170232 202.113808 
z
" clip-path="url(#pb766502083)" style="fill: #e04b4b; opacity: 0.6"/>
   </g>
   <g id="patch_27">
    <path d="M 167.376175 225.544469 
L 173.582117 225.544469 
L 173.582117 202.992458 
L 167.376175 202.992458 
z
" clip-path="url(#pb766502083)" style="fill: #e04b4b; opacity: 0.6"/>
   </g>
   <g id="patch_28">
    <path d="M 173.582117 225.544469 
L 179.788059 225.544469 
L 179.788059 211.193189 
L 173.582117 211.193189 
z
" clip-path="url(#pb766502083)" style="fill: #e04b4b; opacity: 0.6"/>
   </g>
   <g id="patch_29">
    <path d="M 179.788059 225.544469 
L 185.994002 225.544469 
L 185.994002 210.607423 
L 179.788059 210.607423 
z
" clip-path="url(#pb766502083)" style="fill: #e04b4b; opacity: 0.6"/>
   </g>
   <g id="patch_30">
    <path d="M 185.994002 225.544469 
L 192.199944 225.544469 
L 192.199944 213.536255 
L 185.994002 213.536255 
z
" clip-path="url(#pb766502083)" style="fill: #e04b4b; opacity: 0.6"/>
   </g>
   <g id="patch_31">
    <path d="M 192.199944 225.544469 
L 198.405886 225.544469 
L 198.405886 214.414905 
L 192.199944 214.414905 
z
" clip-path="url(#pb766502083)" style="fill: #e04b4b; opacity: 0.6"/>
   </g>
   <g id="patch_32">
    <path d="M 198.405886 225.544469 
L 204.611828 225.544469 
L 204.611828 216.172204 
L 198.405886 216.172204 
z
" clip-path="url(#pb766502083)" style="fill: #e04b4b; opacity: 0.6"/>
   </g>
   <g id="patch_33">
    <path d="M 204.611828 225.544469 
L 210.817771 225.544469 
L 210.817771 221.736986 
L 204.611828 221.736986 
z
" clip-path="url(#pb766502083)" style="fill: #e04b4b; opacity: 0.6"/>
   </g>
   <g id="patch_34">
    <path d="M 210.817771 225.544469 
L 217.023713 225.544469 
L 217.023713 221.15122 
L 210.817771 221.15122 
z
" clip-path="url(#pb766502083)" style="fill: #e04b4b; opacity: 0.6"/>
   </g>
   <g id="patch_35">
    <path d="M 217.023713 225.544469 
L 223.229655 225.544469 
L 223.229655 220.858337 
L 217.023713 220.858337 
z
" clip-path="url(#pb766502083)" style="fill: #e04b4b; opacity: 0.6"/>
   </g>
   <g id="patch_36">
    <path d="M 223.229655 225.544469 
L 229.435598 225.544469 
L 229.435598 223.201403 
L 223.229655 223.201403 
z
" clip-path="url(#pb766502083)" style="fill: #e04b4b; opacity: 0.6"/>
   </g>
   <g id="patch_37">
    <path d="M 229.435598 225.544469 
L 235.64154 225.544469 
L 235.64154 224.080052 
L 229.435598 224.080052 
z
" clip-path="url(#pb766502083)" style="fill: #e04b4b; opacity: 0.6"/>
   </g>
   <g id="patch_38">
    <path d="M 235.64154 225.544469 
L 241.847482 225.544469 
L 241.847482 224.080052 
L 235.64154 224.080052 
z
" clip-path="url(#pb766502083)" style="fill: #e04b4b; opacity: 0.6"/>
   </g>
   <g id="patch_39">
    <path d="M 241.847482 225.544469 
L 248.053424 225.544469 
L 248.053424 224.080052 
L 241.847482 224.080052 
z
" clip-path="url(#pb766502083)" style="fill: #e04b4b; opacity: 0.6"/>
   </g>
   <g id="patch_40">
    <path d="M 248.053424 225.544469 
L 254.259367 225.544469 
L 254.259367 223.787169 
L 248.053424 223.787169 
z
" clip-path="url(#pb766502083)" style="fill: #e04b4b; opacity: 0.6"/>
   </g>
   <g id="patch_41">
    <path d="M 254.259367 225.544469 
L 260.465309 225.544469 
L 260.465309 224.958702 
L 254.259367 224.958702 
z
" clip-path="url(#pb766502083)" style="fill: #e04b4b; opacity: 0.6"/>
   </g>
   <g id="patch_42">
    <path d="M 260.465309 225.544469 
L 266.671251 225.544469 
L 266.671251 225.544469 
L 260.465309 225.544469 
z
" clip-path="url(#pb766502083)" style="fill: #e04b4b; opacity: 0.6"/>
   </g>
   <g id="patch_43">
    <path d="M 266.671251 225.544469 
L 272.877194 225.544469 
L 272.877194 224.958702 
L 266.671251 224.958702 
z
" clip-path="url(#pb766502083)" style="fill: #e04b4b; opacity: 0.6"/>
   </g>
   <g id="patch_44">
    <path d="M 272.877194 225.544469 
L 279.083136 225.544469 
L 279.083136 225.544469 
L 272.877194 225.544469 
z
" clip-path="url(#pb766502083)" style="fill: #e04b4b; opacity: 0.6"/>
   </g>
   <g id="patch_45">
    <path d="M 279.083136 225.544469 
L 285.289078 225.544469 
L 285.289078 225.544469 
L 279.083136 225.544469 
z
" clip-path="url(#pb766502083)" style="fill: #e04b4b; opacity: 0.6"/>
   </g>
   <g id="patch_46">
    <path d="M 285.289078 225.544469 
L 291.49502 225.544469 
L 291.49502 225.544469 
L 285.289078 225.544469 
z
" clip-path="url(#pb766502083)" style="fill: #e04b4b; opacity: 0.6"/>
   </g>
   <g id="patch_47">
    <path d="M 291.49502 225.544469 
L 297.700963 225.544469 
L 297.700963 225.251585 
L 291.49502 225.251585 
z
" clip-path="url(#pb766502083)" style="fill: #e04b4b; opacity: 0.6"/>
   </g>
   <g id="patch_48">
    <path d="M 297.700963 225.544469 
L 303.906905 225.544469 
L 303.906905 225.251585 
L 297.700963 225.251585 
z
" clip-path="url(#pb766502083)" style="fill: #e04b4b; opacity: 0.6"/>
   </g>
   <g id="patch_49">
    <path d="M 303.906905 225.544469 
L 310.112847 225.544469 
L 310.112847 225.544469 
L 303.906905 225.544469 
z
" clip-path="url(#pb766502083)" style="fill: #e04b4b; opacity: 0.6"/>
   </g>
   <g id="patch_50">
    <path d="M 310.112847 225.544469 
L 316.31879 225.544469 
L 316.31879 224.958702 
L 310.112847 224.958702 
z
" clip-path="url(#pb766502083)" style="fill: #e04b4b; opacity: 0.6"/>
   </g>
   <g id="patch_51">
    <path d="M 316.31879 225.544469 
L 322.524732 225.544469 
L 322.524732 225.544469 
L 316.31879 225.544469 
z
" clip-path="url(#pb766502083)" style="fill: #e04b4b; opacity: 0.6"/>
   </g>
   <g id="patch_52">
    <path d="M 322.524732 225.544469 
L 328.730674 225.544469 
L 328.730674 225.251585 
L 322.524732 225.251585 
z
" clip-path="url(#pb766502083)" style="fill: #e04b4b; opacity: 0.6"/>
   </g>
   <g id="patch_53">
    <path d="M 18.415446 225.544469 
L 25.006232 225.544469 
L 25.006232 63.287144 
L 18.415446 63.287144 
z
" clip-path="url(#pb766502083)" style="fill: #4682b4; opacity: 0.6"/>
   </g>
   <g id="patch_54">
    <path d="M 25.006232 225.544469 
L 31.597018 225.544469 
L 31.597018 56.257946 
L 25.006232 56.257946 
z
" clip-path="url(#pb766502083)" style="fill: #4682b4; opacity: 0.6"/>
   </g>
   <g id="patch_55">
    <path d="M 31.597018 225.544469 
L 38.187804 225.544469 
L 38.187804 65.044443 
L 31.597018 65.044443 
z
" clip-path="url(#pb766502083)" style="fill: #4682b4; opacity: 0.6"/>
   </g>
   <g id="patch_56">
    <path d="M 38.187804 225.544469 
L 44.77859 225.544469 
L 44.77859 55.965062 
L 38.187804 55.965062 
z
" clip-path="url(#pb766502083)" style="fill: #4682b4; opacity: 0.6"/>
   </g>
   <g id="patch_57">
    <path d="M 44.77859 225.544469 
L 51.369375 225.544469 
L 51.369375 77.34554 
L 44.77859 77.34554 
z
" clip-path="url(#pb766502083)" style="fill: #4682b4; opacity: 0.6"/>
   </g>
   <g id="patch_58">
    <path d="M 51.369375 225.544469 
L 57.960161 225.544469 
L 57.960161 66.801743 
L 51.369375 66.801743 
z
" clip-path="url(#pb766502083)" style="fill: #4682b4; opacity: 0.6"/>
   </g>
   <g id="patch_59">
    <path d="M 57.960161 225.544469 
L 64.550947 225.544469 
L 64.550947 70.902109 
L 57.960161 70.902109 
z
" clip-path="url(#pb766502083)" style="fill: #4682b4; opacity: 0.6"/>
   </g>
   <g id="patch_60">
    <path d="M 64.550947 225.544469 
L 71.141733 225.544469 
L 71.141733 86.717805 
L 64.550947 86.717805 
z
" clip-path="url(#pb766502083)" style="fill: #4682b4; opacity: 0.6"/>
   </g>
   <g id="patch_61">
    <path d="M 71.141733 225.544469 
L 77.732519 225.544469 
L 77.732519 84.667622 
L 71.141733 84.667622 
z
" clip-path="url(#pb766502083)" style="fill: #4682b4; opacity: 0.6"/>
   </g>
   <g id="patch_62">
    <path d="M 77.732519 225.544469 
L 84.323305 225.544469 
L 84.323305 95.211419 
L 77.732519 95.211419 
z
" clip-path="url(#pb766502083)" style="fill: #4682b4; opacity: 0.6"/>
   </g>
   <g id="patch_63">
    <path d="M 84.323305 225.544469 
L 90.914091 225.544469 
L 90.914091 97.847368 
L 84.323305 97.847368 
z
" clip-path="url(#pb766502083)" style="fill: #4682b4; opacity: 0.6"/>
   </g>
   <g id="patch_64">
    <path d="M 90.914091 225.544469 
L 97.504877 225.544469 
L 97.504877 100.483318 
L 90.914091 100.483318 
z
" clip-path="url(#pb766502083)" style="fill: #4682b4; opacity: 0.6"/>
   </g>
   <g id="patch_65">
    <path d="M 97.504877 225.544469 
L 104.095663 225.544469 
L 104.095663 101.947734 
L 97.504877 101.947734 
z
" clip-path="url(#pb766502083)" style="fill: #4682b4; opacity: 0.6"/>
   </g>
   <g id="patch_66">
    <path d="M 104.095663 225.544469 
L 110.686449 225.544469 
L 110.686449 111.027115 
L 104.095663 111.027115 
z
" clip-path="url(#pb766502083)" style="fill: #4682b4; opacity: 0.6"/>
   </g>
   <g id="patch_67">
    <path d="M 110.686449 225.544469 
L 117.277234 225.544469 
L 117.277234 117.177663 
L 110.686449 117.177663 
z
" clip-path="url(#pb766502083)" style="fill: #4682b4; opacity: 0.6"/>
   </g>
   <g id="patch_68">
    <path d="M 117.277234 225.544469 
L 123.86802 225.544469 
L 123.86802 128.60011 
L 117.277234 128.60011 
z
" clip-path="url(#pb766502083)" style="fill: #4682b4; opacity: 0.6"/>
   </g>
   <g id="patch_69">
    <path d="M 123.86802 225.544469 
L 130.458806 225.544469 
L 130.458806 142.658507 
L 123.86802 142.658507 
z
" clip-path="url(#pb766502083)" style="fill: #4682b4; opacity: 0.6"/>
   </g>
   <g id="patch_70">
    <path d="M 130.458806 225.544469 
L 137.049592 225.544469 
L 137.049592 146.758872 
L 130.458806 146.758872 
z
" clip-path="url(#pb766502083)" style="fill: #4682b4; opacity: 0.6"/>
   </g>
   <g id="patch_71">
    <path d="M 137.049592 225.544469 
L 143.640378 225.544469 
L 143.640378 159.645736 
L 137.049592 159.645736 
z
" clip-path="url(#pb766502083)" style="fill: #4682b4; opacity: 0.6"/>
   </g>
   <g id="patch_72">
    <path d="M 143.640378 225.544469 
L 150.231164 225.544469 
L 150.231164 168.725117 
L 143.640378 168.725117 
z
" clip-path="url(#pb766502083)" style="fill: #4682b4; opacity: 0.6"/>
   </g>
   <g id="patch_73">
    <path d="M 150.231164 225.544469 
L 156.82195 225.544469 
L 156.82195 169.89665 
L 150.231164 169.89665 
z
" clip-path="url(#pb766502083)" style="fill: #4682b4; opacity: 0.6"/>
   </g>
   <g id="patch_74">
    <path d="M 156.82195 225.544469 
L 163.412736 225.544469 
L 163.412736 172.239716 
L 156.82195 172.239716 
z
" clip-path="url(#pb766502083)" style="fill: #4682b4; opacity: 0.6"/>
   </g>
   <g id="patch_75">
    <path d="M 163.412736 225.544469 
L 170.003522 225.544469 
L 170.003522 179.561797 
L 163.412736 179.561797 
z
" clip-path="url(#pb766502083)" style="fill: #4682b4; opacity: 0.6"/>
   </g>
   <g id="patch_76">
    <path d="M 170.003522 225.544469 
L 176.594307 225.544469 
L 176.594307 185.419462 
L 170.003522 185.419462 
z
" clip-path="url(#pb766502083)" style="fill: #4682b4; opacity: 0.6"/>
   </g>
   <g id="patch_77">
    <path d="M 176.594307 225.544469 
L 183.185093 225.544469 
L 183.185093 194.498843 
L 176.594307 194.498843 
z
" clip-path="url(#pb766502083)" style="fill: #4682b4; opacity: 0.6"/>
   </g>
   <g id="patch_78">
    <path d="M 183.185093 225.544469 
L 189.775879 225.544469 
L 189.775879 196.841909 
L 183.185093 196.841909 
z
" clip-path="url(#pb766502083)" style="fill: #4682b4; opacity: 0.6"/>
   </g>
   <g id="patch_79">
    <path d="M 189.775879 225.544469 
L 196.366665 225.544469 
L 196.366665 197.134793 
L 189.775879 197.134793 
z
" clip-path="url(#pb766502083)" style="fill: #4682b4; opacity: 0.6"/>
   </g>
   <g id="patch_80">
    <path d="M 196.366665 225.544469 
L 202.957451 225.544469 
L 202.957451 199.770742 
L 196.366665 199.770742 
z
" clip-path="url(#pb766502083)" style="fill: #4682b4; opacity: 0.6"/>
   </g>
   <g id="patch_81">
    <path d="M 202.957451 225.544469 
L 209.548237 225.544469 
L 209.548237 203.871108 
L 202.957451 203.871108 
z
" clip-path="url(#pb766502083)" style="fill: #4682b4; opacity: 0.6"/>
   </g>
   <g id="patch_82">
    <path d="M 209.548237 225.544469 
L 216.139023 225.544469 
L 216.139023 210.314539 
L 209.548237 210.314539 
z
" clip-path="url(#pb766502083)" style="fill: #4682b4; opacity: 0.6"/>
   </g>
   <g id="patch_83">
    <path d="M 216.139023 225.544469 
L 222.729809 225.544469 
L 222.729809 213.536255 
L 216.139023 213.536255 
z
" clip-path="url(#pb766502083)" style="fill: #4682b4; opacity: 0.6"/>
   </g>
   <g id="patch_84">
    <path d="M 222.729809 225.544469 
L 229.320595 225.544469 
L 229.320595 216.465088 
L 222.729809 216.465088 
z
" clip-path="url(#pb766502083)" style="fill: #4682b4; opacity: 0.6"/>
   </g>
   <g id="patch_85">
    <path d="M 229.320595 225.544469 
L 235.91138 225.544469 
L 235.91138 216.757971 
L 229.320595 216.757971 
z
" clip-path="url(#pb766502083)" style="fill: #4682b4; opacity: 0.6"/>
   </g>
   <g id="patch_86">
    <path d="M 235.91138 225.544469 
L 242.502166 225.544469 
L 242.502166 220.858337 
L 235.91138 220.858337 
z
" clip-path="url(#pb766502083)" style="fill: #4682b4; opacity: 0.6"/>
   </g>
   <g id="patch_87">
    <path d="M 242.502166 225.544469 
L 249.092952 225.544469 
L 249.092952 216.172204 
L 242.502166 216.172204 
z
" clip-path="url(#pb766502083)" style="fill: #4682b4; opacity: 0.6"/>
   </g>
   <g id="patch_88">
    <path d="M 249.092952 225.544469 
L 255.683738 225.544469 
L 255.683738 220.27257 
L 249.092952 220.27257 
z
" clip-path="url(#pb766502083)" style="fill: #4682b4; opacity: 0.6"/>
   </g>
   <g id="patch_89">
    <path d="M 255.683738 225.544469 
L 262.274524 225.544469 
L 262.274524 220.858337 
L 255.683738 220.858337 
z
" clip-path="url(#pb766502083)" style="fill: #4682b4; opacity: 0.6"/>
   </g>
   <g id="patch_90">
    <path d="M 262.274524 225.544469 
L 268.86531 225.544469 
L 268.86531 222.02987 
L 262.274524 222.02987 
z
" clip-path="url(#pb766502083)" style="fill: #4682b4; opacity: 0.6"/>
   </g>
   <g id="patch_91">
    <path d="M 268.86531 225.544469 
L 275.456096 225.544469 
L 275.456096 223.201403 
L 268.86531 223.201403 
z
" clip-path="url(#pb766502083)" style="fill: #4682b4; opacity: 0.6"/>
   </g>
   <g id="patch_92">
    <path d="M 275.456096 225.544469 
L 282.046882 225.544469 
L 282.046882 222.908519 
L 275.456096 222.908519 
z
" clip-path="url(#pb766502083)" style="fill: #4682b4; opacity: 0.6"/>
   </g>
   <g id="patch_93">
    <path d="M 282.046882 225.544469 
L 288.637668 225.544469 
L 288.637668 224.958702 
L 282.046882 224.958702 
z
" clip-path="url(#pb766502083)" style="fill: #4682b4; opacity: 0.6"/>
   </g>
   <g id="patch_94">
    <path d="M 288.637668 225.544469 
L 295.228453 225.544469 
L 295.228453 224.080052 
L 288.637668 224.080052 
z
" clip-path="url(#pb766502083)" style="fill: #4682b4; opacity: 0.6"/>
   </g>
   <g id="patch_95">
    <path d="M 295.228453 225.544469 
L 301.819239 225.544469 
L 301.819239 224.958702 
L 295.228453 224.958702 
z
" clip-path="url(#pb766502083)" style="fill: #4682b4; opacity: 0.6"/>
   </g>
   <g id="patch_96">
    <path d="M 301.819239 225.544469 
L 308.410025 225.544469 
L 308.410025 224.080052 
L 301.819239 224.080052 
z
" clip-path="url(#pb766502083)" style="fill: #4682b4; opacity: 0.6"/>
   </g>
   <g id="patch_97">
    <path d="M 308.410025 225.544469 
L 315.000811 225.544469 
L 315.000811 225.251585 
L 308.410025 225.251585 
z
" clip-path="url(#pb766502083)" style="fill: #4682b4; opacity: 0.6"/>
   </g>
   <g id="patch_98">
    <path d="M 315.000811 225.544469 
L 321.591597 225.544469 
L 321.591597 224.958702 
L 315.000811 224.958702 
z
" clip-path="url(#pb766502083)" style="fill: #4682b4; opacity: 0.6"/>
   </g>
   <g id="patch_99">
    <path d="M 321.591597 225.544469 
L 328.182383 225.544469 
L 328.182383 225.251585 
L 321.591597 225.251585 
z
" clip-path="url(#pb766502083)" style="fill: #4682b4; opacity: 0.6"/>
   </g>
   <g id="patch_100">
    <path d="M 328.182383 225.544469 
L 334.773169 225.544469 
L 334.773169 225.251585 
L 328.182383 225.251585 
z
" clip-path="url(#pb766502083)" style="fill: #4682b4; opacity: 0.6"/>
   </g>
   <g id="patch_101">
    <path d="M 334.773169 225.544469 
L 341.363955 225.544469 
L 341.363955 224.665819 
L 334.773169 224.665819 
z
" clip-path="url(#pb766502083)" style="fill: #4682b4; opacity: 0.6"/>
   </g>
   <g id="patch_102">
    <path d="M 341.363955 225.544469 
L 347.954741 225.544469 
L 347.954741 225.251585 
L 341.363955 225.251585 
z
" clip-path="url(#pb766502083)" style="fill: #4682b4; opacity: 0.6"/>
   </g>
   <g id="matplotlib.axis_1">
    <g id="xtick_1">
     <g id="line2d_1">
      <defs>
       <path id="mf45212d5e6" d="M 0 0 
L 0 3.5 
" style="stroke: #030303; stroke-width: 0.8"/>
      </defs>
      <g>
       <use xlink:href="#mf45212d5e6" x="18.4" y="225.544469" style="fill: #030303; stroke: #030303; stroke-width: 0.8"/>
      </g>
     </g>
     <g id="text_1">
      <!-- $\mathdefault{0.0}$ -->
      <g style="fill: #030303" transform="translate(7.2 243.182281) scale(0.14 -0.14)">
       <defs>
        <path id="DejaVuSerif-30" d="M 2034 219 
Q 2513 219 2750 744 
Q 2988 1269 2988 2328 
Q 2988 3391 2750 3916 
Q 2513 4441 2034 4441 
Q 1556 4441 1318 3916 
Q 1081 3391 1081 2328 
Q 1081 1269 1318 744 
Q 1556 219 2034 219 
z
M 2034 -91 
Q 1275 -91 848 546 
Q 422 1184 422 2328 
Q 422 3475 848 4112 
Q 1275 4750 2034 4750 
Q 2797 4750 3222 4112 
Q 3647 3475 3647 2328 
Q 3647 1184 3222 546 
Q 2797 -91 2034 -91 
z
" transform="scale(0.015625)"/>
        <path id="DejaVuSerif-2e" d="M 603 325 
Q 603 500 722 622 
Q 841 744 1019 744 
Q 1191 744 1312 622 
Q 1434 500 1434 325 
Q 1434 153 1312 31 
Q 1191 -91 1019 -91 
Q 841 -91 722 29 
Q 603 150 603 325 
z
" transform="scale(0.015625)"/>
       </defs>
       <use xlink:href="#DejaVuSerif-30" transform="translate(0 0.78125)"/>
       <use xlink:href="#DejaVuSerif-2e" transform="translate(63.623047 0.78125)"/>
       <use xlink:href="#DejaVuSerif-30" transform="translate(95.410156 0.78125)"/>
      </g>
     </g>
    </g>
    <g id="xtick_2">
     <g id="line2d_2">
      <g>
       <use xlink:href="#mf45212d5e6" x="96.867835" y="225.544469" style="fill: #030303; stroke: #030303; stroke-width: 0.8"/>
      </g>
     </g>
     <g id="text_2">
      <!-- $\mathdefault{0.1}$ -->
      <g style="fill: #030303" transform="translate(85.667835 243.182281) scale(0.14 -0.14)">
       <defs>
        <path id="DejaVuSerif-31" d="M 909 0 
L 909 331 
L 1722 331 
L 1722 4213 
L 781 3603 
L 781 4013 
L 1919 4750 
L 2350 4750 
L 2350 331 
L 3163 331 
L 3163 0 
L 909 0 
z
" transform="scale(0.015625)"/>
       </defs>
       <use xlink:href="#DejaVuSerif-30" transform="translate(0 0.78125)"/>
       <use xlink:href="#DejaVuSerif-2e" transform="translate(63.623047 0.78125)"/>
       <use xlink:href="#DejaVuSerif-31" transform="translate(95.410156 0.78125)"/>
      </g>
     </g>
    </g>
    <g id="xtick_3">
     <g id="line2d_3">
      <g>
       <use xlink:href="#mf45212d5e6" x="175.33567" y="225.544469" style="fill: #030303; stroke: #030303; stroke-width: 0.8"/>
      </g>
     </g>
     <g id="text_3">
      <!-- $\mathdefault{0.2}$ -->
      <g style="fill: #030303" transform="translate(164.34567 243.182281) scale(0.14 -0.14)">
       <defs>
        <path id="DejaVuSerif-32" d="M 819 3553 
L 469 3553 
L 469 4384 
Q 803 4563 1142 4656 
Q 1481 4750 1806 4750 
Q 2534 4750 2956 4397 
Q 3378 4044 3378 3438 
Q 3378 2753 2422 1800 
Q 2347 1728 2309 1691 
L 1131 513 
L 3078 513 
L 3078 1088 
L 3444 1088 
L 3444 0 
L 434 0 
L 434 341 
L 1850 1753 
Q 2319 2222 2519 2614 
Q 2719 3006 2719 3438 
Q 2719 3909 2473 4175 
Q 2228 4441 1797 4441 
Q 1350 4441 1106 4219 
Q 863 3997 819 3553 
z
" transform="scale(0.015625)"/>
       </defs>
       <use xlink:href="#DejaVuSerif-30" transform="translate(0 0.78125)"/>
       <use xlink:href="#DejaVuSerif-2e" transform="translate(63.623047 0.78125)"/>
       <use xlink:href="#DejaVuSerif-32" transform="translate(92.785156 0.78125)"/>
      </g>
     </g>
    </g>
    <g id="xtick_4">
     <g id="line2d_4">
      <g>
       <use xlink:href="#mf45212d5e6" x="253.803504" y="225.544469" style="fill: #030303; stroke: #030303; stroke-width: 0.8"/>
      </g>
     </g>
     <g id="text_4">
      <!-- $\mathdefault{0.3}$ -->
      <g style="fill: #030303" transform="translate(242.603504 243.182281) scale(0.14 -0.14)">
       <defs>
        <path id="DejaVuSerif-33" d="M 622 4469 
Q 988 4606 1323 4678 
Q 1659 4750 1953 4750 
Q 2638 4750 3022 4454 
Q 3406 4159 3406 3634 
Q 3406 3213 3140 2930 
Q 2875 2647 2388 2547 
Q 2963 2466 3280 2130 
Q 3597 1794 3597 1259 
Q 3597 606 3158 257 
Q 2719 -91 1894 -91 
Q 1528 -91 1179 -12 
Q 831 66 488 225 
L 488 1131 
L 838 1131 
Q 869 681 1141 450 
Q 1413 219 1906 219 
Q 2384 219 2661 495 
Q 2938 772 2938 1253 
Q 2938 1803 2653 2086 
Q 2369 2369 1819 2369 
L 1522 2369 
L 1522 2688 
L 1678 2688 
Q 2225 2688 2498 2914 
Q 2772 3141 2772 3597 
Q 2772 4006 2547 4223 
Q 2322 4441 1900 4441 
Q 1478 4441 1245 4241 
Q 1013 4041 972 3647 
L 622 3647 
L 622 4469 
z
" transform="scale(0.015625)"/>
       </defs>
       <use xlink:href="#DejaVuSerif-30" transform="translate(0 0.78125)"/>
       <use xlink:href="#DejaVuSerif-2e" transform="translate(63.623047 0.78125)"/>
       <use xlink:href="#DejaVuSerif-33" transform="translate(95.410156 0.78125)"/>
      </g>
     </g>
    </g>
    <g id="xtick_5">
     <g id="line2d_5">
      <g>
       <use xlink:href="#mf45212d5e6" x="332.271339" y="225.544469" style="fill: #030303; stroke: #030303; stroke-width: 0.8"/>
      </g>
     </g>
     <g id="text_5">
      <!-- $\mathdefault{0.4}$ -->
      <g style="fill: #030303" transform="translate(321.071339 243.182281) scale(0.14 -0.14)">
       <defs>
        <path id="DejaVuSerif-34" d="M 2234 1581 
L 2234 4063 
L 641 1581 
L 2234 1581 
z
M 3609 0 
L 1484 0 
L 1484 331 
L 2234 331 
L 2234 1247 
L 197 1247 
L 197 1588 
L 2241 4750 
L 2859 4750 
L 2859 1581 
L 3750 1581 
L 3750 1247 
L 2859 1247 
L 2859 331 
L 3609 331 
L 3609 0 
z
" transform="scale(0.015625)"/>
       </defs>
       <use xlink:href="#DejaVuSerif-30" transform="translate(0 0.78125)"/>
       <use xlink:href="#DejaVuSerif-2e" transform="translate(63.623047 0.78125)"/>
       <use xlink:href="#DejaVuSerif-34" transform="translate(95.410156 0.78125)"/>
      </g>
     </g>
    </g>
    <g id="text_6">
     <!-- $|\chi|$ -->
     <g style="fill: #030303" transform="translate(168.633979 263.593844) scale(0.18 -0.18)">
      <defs>
       <path id="Cmsy10-6a" d="M 763 -1484 
L 763 4684 
Q 763 4734 800 4767 
Q 838 4800 891 4800 
Q 938 4800 978 4767 
Q 1019 4734 1019 4684 
L 1019 -1484 
Q 1019 -1534 978 -1567 
Q 938 -1600 891 -1600 
Q 838 -1600 800 -1567 
Q 763 -1534 763 -1484 
z
" transform="scale(0.015625)"/>
       <path id="Cmmi10-c2" d="M 275 -1241 
Q 244 -1241 214 -1214 
Q 184 -1188 184 -1159 
Q 184 -1116 213 -1094 
L 1778 647 
Q 1672 1034 1539 1454 
Q 1406 1875 1220 2269 
Q 1034 2663 891 2663 
Q 766 2663 694 2594 
Q 622 2525 567 2423 
Q 513 2322 494 2316 
L 416 2316 
Q 397 2316 381 2337 
Q 366 2359 366 2381 
Q 366 2484 455 2589 
Q 544 2694 673 2761 
Q 803 2828 916 2828 
Q 1169 2828 1375 2737 
Q 1581 2647 1684 2444 
Q 1775 2250 1859 2026 
Q 1944 1803 2020 1550 
Q 2097 1297 2163 1069 
L 3647 2719 
Q 3678 2759 3725 2759 
Q 3763 2759 3789 2736 
Q 3816 2713 3816 2675 
Q 3816 2634 3788 2613 
L 2222 872 
Q 2297 588 2447 114 
Q 2597 -359 2780 -753 
Q 2963 -1147 3109 -1147 
Q 3228 -1147 3303 -1076 
Q 3378 -1006 3434 -906 
Q 3491 -806 3506 -800 
L 3584 -800 
Q 3634 -800 3634 -863 
Q 3634 -1022 3445 -1167 
Q 3256 -1313 3084 -1313 
Q 2834 -1313 2628 -1222 
Q 2422 -1131 2322 -928 
Q 2084 -422 1838 447 
L 353 -1203 
Q 322 -1241 275 -1241 
z
" transform="scale(0.015625)"/>
      </defs>
      <use xlink:href="#Cmsy10-6a"/>
      <use xlink:href="#Cmmi10-c2" transform="translate(27.685547 0)"/>
      <use xlink:href="#Cmsy10-6a" transform="translate(90.185547 0)"/>
     </g>
    </g>
   </g>
   <g id="matplotlib.axis_2"/>
   <g id="patch_103">
    <path d="M 18.43356 225.544469 
L 18.43356 21.111955 
L 24.639502 21.111955 
L 24.639502 32.827285 
L 30.845444 32.827285 
L 30.845444 17.597356 
L 37.051387 17.597356 
L 37.051387 36.341884 
L 43.257329 36.341884 
L 43.257329 34.584585 
L 49.463271 34.584585 
L 49.463271 40.149367 
L 55.669214 40.149367 
L 55.669214 61.822728 
L 61.875156 61.822728 
L 61.875156 57.136595 
L 68.081098 57.136595 
L 68.081098 64.75156 
L 74.28704 64.75156 
L 74.28704 85.253388 
L 80.492983 85.253388 
L 80.492983 98.726018 
L 86.698925 98.726018 
L 86.698925 112.491531 
L 92.904867 112.491531 
L 92.904867 103.119267 
L 99.11081 103.119267 
L 99.11081 120.106496 
L 105.316752 120.106496 
L 105.316752 135.629309 
L 111.522694 135.629309 
L 111.522694 148.516172 
L 117.728636 148.516172 
L 117.728636 146.758872 
L 123.934579 146.758872 
L 123.934579 151.737888 
L 130.140521 151.737888 
L 130.140521 173.118366 
L 136.346463 173.118366 
L 136.346463 181.026214 
L 142.552406 181.026214 
L 142.552406 183.662163 
L 148.758348 183.662163 
L 148.758348 189.226945 
L 154.96429 189.226945 
L 154.96429 194.791727 
L 161.170232 194.791727 
L 161.170232 202.113808 
L 167.376175 202.113808 
L 167.376175 202.992458 
L 173.582117 202.992458 
L 173.582117 211.193189 
L 179.788059 211.193189 
L 179.788059 210.607423 
L 185.994002 210.607423 
L 185.994002 213.536255 
L 192.199944 213.536255 
L 192.199944 214.414905 
L 198.405886 214.414905 
L 198.405886 216.172204 
L 204.611828 216.172204 
L 204.611828 221.736986 
L 210.817771 221.736986 
L 210.817771 221.15122 
L 217.023713 221.15122 
L 217.023713 220.858337 
L 223.229655 220.858337 
L 223.229655 223.201403 
L 229.435598 223.201403 
L 229.435598 224.080052 
L 235.64154 224.080052 
L 235.64154 224.080052 
L 241.847482 224.080052 
L 241.847482 224.080052 
L 248.053424 224.080052 
L 248.053424 223.787169 
L 254.259367 223.787169 
L 254.259367 224.958702 
L 260.465309 224.958702 
L 260.465309 225.544469 
L 266.671251 225.544469 
L 266.671251 224.958702 
L 272.877194 224.958702 
L 272.877194 225.544469 
L 279.083136 225.544469 
L 279.083136 225.544469 
L 285.289078 225.544469 
L 285.289078 225.544469 
L 291.49502 225.544469 
L 291.49502 225.251585 
L 297.700963 225.251585 
L 297.700963 225.251585 
L 303.906905 225.251585 
L 303.906905 225.544469 
L 310.112847 225.544469 
L 310.112847 224.958702 
L 316.31879 224.958702 
L 316.31879 225.544469 
L 322.524732 225.544469 
L 322.524732 225.251585 
L 328.730674 225.251585 
L 328.730674 225.544469 
" clip-path="url(#pb766502083)" style="fill: none; stroke: #e04b4b; stroke-width: 1.5; stroke-linejoin: miter"/>
   </g>
   <g id="patch_104">
    <path d="M 18.415446 225.544469 
L 18.415446 63.287144 
L 25.006232 63.287144 
L 25.006232 56.257946 
L 31.597018 56.257946 
L 31.597018 65.044443 
L 38.187804 65.044443 
L 38.187804 55.965062 
L 44.77859 55.965062 
L 44.77859 77.34554 
L 51.369375 77.34554 
L 51.369375 66.801743 
L 57.960161 66.801743 
L 57.960161 70.902109 
L 64.550947 70.902109 
L 64.550947 86.717805 
L 71.141733 86.717805 
L 71.141733 84.667622 
L 77.732519 84.667622 
L 77.732519 95.211419 
L 84.323305 95.211419 
L 84.323305 97.847368 
L 90.914091 97.847368 
L 90.914091 100.483318 
L 97.504877 100.483318 
L 97.504877 101.947734 
L 104.095663 101.947734 
L 104.095663 111.027115 
L 110.686449 111.027115 
L 110.686449 117.177663 
L 117.277234 117.177663 
L 117.277234 128.60011 
L 123.86802 128.60011 
L 123.86802 142.658507 
L 130.458806 142.658507 
L 130.458806 146.758872 
L 137.049592 146.758872 
L 137.049592 159.645736 
L 143.640378 159.645736 
L 143.640378 168.725117 
L 150.231164 168.725117 
L 150.231164 169.89665 
L 156.82195 169.89665 
L 156.82195 172.239716 
L 163.412736 172.239716 
L 163.412736 179.561797 
L 170.003522 179.561797 
L 170.003522 185.419462 
L 176.594307 185.419462 
L 176.594307 194.498843 
L 183.185093 194.498843 
L 183.185093 196.841909 
L 189.775879 196.841909 
L 189.775879 197.134793 
L 196.366665 197.134793 
L 196.366665 199.770742 
L 202.957451 199.770742 
L 202.957451 203.871108 
L 209.548237 203.871108 
L 209.548237 210.314539 
L 216.139023 210.314539 
L 216.139023 213.536255 
L 222.729809 213.536255 
L 222.729809 216.465088 
L 229.320595 216.465088 
L 229.320595 216.757971 
L 235.91138 216.757971 
L 235.91138 220.858337 
L 242.502166 220.858337 
L 242.502166 216.172204 
L 249.092952 216.172204 
L 249.092952 220.27257 
L 255.683738 220.27257 
L 255.683738 220.858337 
L 262.274524 220.858337 
L 262.274524 222.02987 
L 268.86531 222.02987 
L 268.86531 223.201403 
L 275.456096 223.201403 
L 275.456096 222.908519 
L 282.046882 222.908519 
L 282.046882 224.958702 
L 288.637668 224.958702 
L 288.637668 224.080052 
L 295.228453 224.080052 
L 295.228453 224.958702 
L 301.819239 224.958702 
L 301.819239 224.080052 
L 308.410025 224.080052 
L 308.410025 225.251585 
L 315.000811 225.251585 
L 315.000811 224.958702 
L 321.591597 224.958702 
L 321.591597 225.251585 
L 328.182383 225.251585 
L 328.182383 225.251585 
L 334.773169 225.251585 
L 334.773169 224.665819 
L 341.363955 224.665819 
L 341.363955 225.251585 
L 347.954741 225.251585 
L 347.954741 225.544469 
" clip-path="url(#pb766502083)" style="fill: none; stroke: #4682b4; stroke-width: 1.5; stroke-linejoin: miter"/>
   </g>
   <g id="patch_105">
    <path d="M 10.553217 225.544469 
L 347.954741 225.544469 
" style="fill: none; stroke: #030303; stroke-width: 1.5; stroke-linejoin: miter; stroke-linecap: square"/>
   </g>
   <g id="legend_1">
    <g id="patch_106">
     <path d="M 251.017866 59.49875 
L 338.154741 59.49875 
Q 340.954741 59.49875 340.954741 56.69875 
L 340.954741 17 
Q 340.954741 14.2 338.154741 14.2 
L 251.017866 14.2 
Q 248.217866 14.2 248.217866 17 
L 248.217866 56.69875 
Q 248.217866 59.49875 251.017866 59.49875 
z
" style="fill: #ffffff; opacity: 0.8; stroke: #cccccc; stroke-linejoin: miter"/>
    </g>
    <g id="patch_107">
     <path d="M 253.817866 30.437813 
L 281.817866 30.437813 
L 281.817866 20.637813 
L 253.817866 20.637813 
L 253.817866 30.437813 
z
" style="fill: none; stroke: #e04b4b; stroke-width: 1.5; stroke-linejoin: miter"/>
    </g>
    <g id="text_7">
     <!-- Null -->
     <g style="fill: #030303" transform="translate(293.017866 30.437813) scale(0.14 -0.14)">
      <defs>
       <path id="DejaVuSerif-4e" d="M 313 0 
L 313 331 
L 941 331 
L 941 4331 
L 313 4331 
L 313 4666 
L 1509 4666 
L 4306 984 
L 4306 4331 
L 3681 4331 
L 3681 4666 
L 5319 4666 
L 5319 4331 
L 4691 4331 
L 4691 -91 
L 4313 -91 
L 1325 3841 
L 1325 331 
L 1953 331 
L 1953 0 
L 313 0 
z
" transform="scale(0.015625)"/>
       <path id="DejaVuSerif-75" d="M 2266 3322 
L 3341 3322 
L 3341 331 
L 3884 331 
L 3884 0 
L 2766 0 
L 2766 588 
Q 2606 256 2353 82 
Q 2100 -91 1766 -91 
Q 1213 -91 952 223 
Q 691 538 691 1209 
L 691 2988 
L 172 2988 
L 172 3322 
L 1269 3322 
L 1269 1388 
Q 1269 781 1417 556 
Q 1566 331 1947 331 
Q 2347 331 2556 625 
Q 2766 919 2766 1478 
L 2766 2988 
L 2266 2988 
L 2266 3322 
z
" transform="scale(0.015625)"/>
       <path id="DejaVuSerif-6c" d="M 1313 331 
L 1856 331 
L 1856 0 
L 184 0 
L 184 331 
L 738 331 
L 738 4531 
L 184 4531 
L 184 4863 
L 1313 4863 
L 1313 331 
z
" transform="scale(0.015625)"/>
      </defs>
      <use xlink:href="#DejaVuSerif-4e"/>
      <use xlink:href="#DejaVuSerif-75" transform="translate(87.5 0)"/>
      <use xlink:href="#DejaVuSerif-6c" transform="translate(151.904297 0)"/>
      <use xlink:href="#DejaVuSerif-6c" transform="translate(183.886719 0)"/>
     </g>
    </g>
    <g id="patch_108">
     <path d="M 253.817866 50.987188 
L 281.817866 50.987188 
L 281.817866 41.187188 
L 253.817866 41.187188 
L 253.817866 50.987188 
z
" style="fill: none; stroke: #4682b4; stroke-width: 1.5; stroke-linejoin: miter"/>
    </g>
    <g id="text_8">
     <!-- Effect -->
     <g style="fill: #030303" transform="translate(293.017866 50.987188) scale(0.14 -0.14)">
      <defs>
       <path id="DejaVuSerif-45" d="M 353 0 
L 353 331 
L 947 331 
L 947 4331 
L 353 4331 
L 353 4666 
L 4109 4666 
L 4109 3628 
L 3725 3628 
L 3725 4281 
L 1581 4281 
L 1581 2719 
L 3109 2719 
L 3109 3303 
L 3494 3303 
L 3494 1753 
L 3109 1753 
L 3109 2338 
L 1581 2338 
L 1581 384 
L 3775 384 
L 3775 1038 
L 4159 1038 
L 4159 0 
L 353 0 
z
" transform="scale(0.015625)"/>
       <path id="DejaVuSerif-66" d="M 2753 4078 
L 2450 4078 
Q 2447 4313 2317 4434 
Q 2188 4556 1941 4556 
Q 1619 4556 1487 4379 
Q 1356 4203 1356 3750 
L 1356 3322 
L 2284 3322 
L 2284 2988 
L 1356 2988 
L 1356 331 
L 2094 331 
L 2094 0 
L 231 0 
L 231 331 
L 781 331 
L 781 2988 
L 231 2988 
L 231 3322 
L 781 3322 
L 781 3738 
Q 781 4294 1070 4578 
Q 1359 4863 1919 4863 
Q 2128 4863 2337 4825 
Q 2547 4788 2753 4709 
L 2753 4078 
z
" transform="scale(0.015625)"/>
       <path id="DejaVuSerif-65" d="M 3469 1600 
L 991 1600 
L 991 1575 
Q 991 903 1244 561 
Q 1497 219 1991 219 
Q 2369 219 2611 417 
Q 2853 616 2950 1006 
L 3413 1006 
Q 3275 459 2904 184 
Q 2534 -91 1931 -91 
Q 1203 -91 761 389 
Q 319 869 319 1663 
Q 319 2450 753 2931 
Q 1188 3413 1894 3413 
Q 2647 3413 3050 2948 
Q 3453 2484 3469 1600 
z
M 2791 1931 
Q 2772 2513 2545 2808 
Q 2319 3103 1894 3103 
Q 1497 3103 1269 2806 
Q 1041 2509 991 1931 
L 2791 1931 
z
" transform="scale(0.015625)"/>
       <path id="DejaVuSerif-63" d="M 3291 997 
Q 3169 466 2822 187 
Q 2475 -91 1925 -91 
Q 1200 -91 759 389 
Q 319 869 319 1663 
Q 319 2459 759 2936 
Q 1200 3413 1925 3413 
Q 2241 3413 2553 3339 
Q 2866 3266 3181 3116 
L 3181 2266 
L 2847 2266 
Q 2781 2703 2561 2903 
Q 2341 3103 1931 3103 
Q 1466 3103 1228 2742 
Q 991 2381 991 1663 
Q 991 944 1227 581 
Q 1463 219 1931 219 
Q 2303 219 2525 412 
Q 2747 606 2828 997 
L 3291 997 
z
" transform="scale(0.015625)"/>
       <path id="DejaVuSerif-74" d="M 691 2988 
L 184 2988 
L 184 3322 
L 691 3322 
L 691 4353 
L 1269 4353 
L 1269 3322 
L 2350 3322 
L 2350 2988 
L 1269 2988 
L 1269 878 
Q 1269 456 1350 337 
Q 1431 219 1650 219 
Q 1875 219 1978 351 
Q 2081 484 2088 781 
L 2522 781 
Q 2497 328 2275 118 
Q 2053 -91 1600 -91 
Q 1103 -91 897 129 
Q 691 350 691 878 
L 691 2988 
z
" transform="scale(0.015625)"/>
      </defs>
      <use xlink:href="#DejaVuSerif-45"/>
      <use xlink:href="#DejaVuSerif-66" transform="translate(72.998047 0)"/>
      <use xlink:href="#DejaVuSerif-66" transform="translate(110.009766 0)"/>
      <use xlink:href="#DejaVuSerif-65" transform="translate(147.021484 0)"/>
      <use xlink:href="#DejaVuSerif-63" transform="translate(206.201172 0)"/>
      <use xlink:href="#DejaVuSerif-74" transform="translate(262.207031 0)"/>
     </g>
    </g>
   </g>
  </g>
  <g id="axes_2">
   <g id="patch_109">
    <path d="M 366.536909 225.544469 
L 703.938433 225.544469 
L 703.938433 7.2 
L 366.536909 7.2 
L 366.536909 225.544469 
z
" style="fill: none"/>
   </g>
   <g id="patch_110">
    <path d="M 370.70236 225.544469 
L 388.455167 225.544469 
L 388.455167 17.597356 
L 370.70236 17.597356 
z
" clip-path="url(#pe69a6f0255)" style="fill: #e04b4b; opacity: 0.6"/>
   </g>
   <g id="patch_111">
    <path d="M 388.455167 225.544469 
L 406.207974 225.544469 
L 406.207974 166.36285 
L 388.455167 166.36285 
z
" clip-path="url(#pe69a6f0255)" style="fill: #e04b4b; opacity: 0.6"/>
   </g>
   <g id="patch_112">
    <path d="M 406.207974 225.544469 
L 423.960781 225.544469 
L 423.960781 191.283325 
L 406.207974 191.283325 
z
" clip-path="url(#pe69a6f0255)" style="fill: #e04b4b; opacity: 0.6"/>
   </g>
   <g id="patch_113">
    <path d="M 423.960781 225.544469 
L 441.713588 225.544469 
L 441.713588 205.636941 
L 423.960781 205.636941 
z
" clip-path="url(#pe69a6f0255)" style="fill: #e04b4b; opacity: 0.6"/>
   </g>
   <g id="patch_114">
    <path d="M 441.713588 225.544469 
L 459.466396 225.544469 
L 459.466396 212.16459 
L 441.713588 212.16459 
z
" clip-path="url(#pe69a6f0255)" style="fill: #e04b4b; opacity: 0.6"/>
   </g>
   <g id="patch_115">
    <path d="M 459.466396 225.544469 
L 477.219203 225.544469 
L 477.219203 217.213601 
L 459.466396 217.213601 
z
" clip-path="url(#pe69a6f0255)" style="fill: #e04b4b; opacity: 0.6"/>
   </g>
   <g id="patch_116">
    <path d="M 477.219203 225.544469 
L 494.97201 225.544469 
L 494.97201 219.954493 
L 477.219203 219.954493 
z
" clip-path="url(#pe69a6f0255)" style="fill: #e04b4b; opacity: 0.6"/>
   </g>
   <g id="patch_117">
    <path d="M 494.97201 225.544469 
L 512.724817 225.544469 
L 512.724817 222.370805 
L 494.97201 222.370805 
z
" clip-path="url(#pe69a6f0255)" style="fill: #e04b4b; opacity: 0.6"/>
   </g>
   <g id="patch_118">
    <path d="M 512.724817 225.544469 
L 530.477624 225.544469 
L 530.477624 222.65932 
L 512.724817 222.65932 
z
" clip-path="url(#pe69a6f0255)" style="fill: #e04b4b; opacity: 0.6"/>
   </g>
   <g id="patch_119">
    <path d="M 530.477624 225.544469 
L 548.230431 225.544469 
L 548.230431 223.741251 
L 530.477624 223.741251 
z
" clip-path="url(#pe69a6f0255)" style="fill: #e04b4b; opacity: 0.6"/>
   </g>
   <g id="patch_120">
    <path d="M 548.230431 225.544469 
L 565.983239 225.544469 
L 565.983239 224.210087 
L 548.230431 224.210087 
z
" clip-path="url(#pe69a6f0255)" style="fill: #e04b4b; opacity: 0.6"/>
   </g>
   <g id="patch_121">
    <path d="M 565.983239 225.544469 
L 583.736046 225.544469 
L 583.736046 224.787117 
L 565.983239 224.787117 
z
" clip-path="url(#pe69a6f0255)" style="fill: #e04b4b; opacity: 0.6"/>
   </g>
   <g id="patch_122">
    <path d="M 583.736046 225.544469 
L 601.488853 225.544469 
L 601.488853 224.751053 
L 583.736046 224.751053 
z
" clip-path="url(#pe69a6f0255)" style="fill: #e04b4b; opacity: 0.6"/>
   </g>
   <g id="patch_123">
    <path d="M 601.488853 225.544469 
L 619.24166 225.544469 
L 619.24166 225.255954 
L 601.488853 225.255954 
z
" clip-path="url(#pe69a6f0255)" style="fill: #e04b4b; opacity: 0.6"/>
   </g>
   <g id="patch_124">
    <path d="M 619.24166 225.544469 
L 636.994467 225.544469 
L 636.994467 225.219889 
L 619.24166 225.219889 
z
" clip-path="url(#pe69a6f0255)" style="fill: #e04b4b; opacity: 0.6"/>
   </g>
   <g id="patch_125">
    <path d="M 636.994467 225.544469 
L 654.747274 225.544469 
L 654.747274 225.400211 
L 636.994467 225.400211 
z
" clip-path="url(#pe69a6f0255)" style="fill: #e04b4b; opacity: 0.6"/>
   </g>
   <g id="patch_126">
    <path d="M 654.747274 225.544469 
L 672.500082 225.544469 
L 672.500082 225.328083 
L 654.747274 225.328083 
z
" clip-path="url(#pe69a6f0255)" style="fill: #e04b4b; opacity: 0.6"/>
   </g>
   <g id="patch_127">
    <path d="M 672.500082 225.544469 
L 690.252889 225.544469 
L 690.252889 225.544469 
L 672.500082 225.544469 
z
" clip-path="url(#pe69a6f0255)" style="fill: #e04b4b; opacity: 0.6"/>
   </g>
   <g id="patch_128">
    <path d="M 690.252889 225.544469 
L 708.005696 225.544469 
L 708.005696 225.508404 
L 690.252889 225.508404 
z
" clip-path="url(#pe69a6f0255)" style="fill: #e04b4b; opacity: 0.6"/>
   </g>
   <g id="patch_129">
    <path d="M 708.005696 225.544469 
L 725.758503 225.544469 
L 725.758503 225.47234 
L 708.005696 225.47234 
z
" clip-path="url(#pe69a6f0255)" style="fill: #e04b4b; opacity: 0.6"/>
   </g>
   <g id="patch_130">
    <path d="M 725.758503 225.544469 
L 743.51131 225.544469 
L 743.51131 225.544469 
L 725.758503 225.544469 
z
" clip-path="url(#pe69a6f0255)" style="fill: #e04b4b; opacity: 0.6"/>
   </g>
   <g id="patch_131">
    <path d="M 743.51131 225.544469 
L 761.264117 225.544469 
L 761.264117 225.508404 
L 743.51131 225.508404 
z
" clip-path="url(#pe69a6f0255)" style="fill: #e04b4b; opacity: 0.6"/>
   </g>
   <g id="patch_132">
    <path d="M 761.264117 225.544469 
L 779.016925 225.544469 
L 779.016925 225.508404 
L 761.264117 225.508404 
z
" clip-path="url(#pe69a6f0255)" style="fill: #e04b4b; opacity: 0.6"/>
   </g>
   <g id="patch_133">
    <path d="M 779.016925 225.544469 
L 796.769732 225.544469 
L 796.769732 225.508404 
L 779.016925 225.508404 
z
" clip-path="url(#pe69a6f0255)" style="fill: #e04b4b; opacity: 0.6"/>
   </g>
   <g id="patch_134">
    <path d="M 796.769732 225.544469 
L 814.522539 225.544469 
L 814.522539 225.544469 
L 796.769732 225.544469 
z
" clip-path="url(#pe69a6f0255)" style="fill: #e04b4b; opacity: 0.6"/>
   </g>
   <g id="patch_135">
    <path d="M 814.522539 225.544469 
L 832.275346 225.544469 
L 832.275346 225.508404 
L 814.522539 225.508404 
z
" clip-path="url(#pe69a6f0255)" style="fill: #e04b4b; opacity: 0.6"/>
   </g>
   <g id="patch_136">
    <path d="M 832.275346 225.544469 
L 850.028153 225.544469 
L 850.028153 225.508404 
L 832.275346 225.508404 
z
" clip-path="url(#pe69a6f0255)" style="fill: #e04b4b; opacity: 0.6"/>
   </g>
   <g id="patch_137">
    <path d="M 850.028153 225.544469 
L 867.78096 225.544469 
L 867.78096 225.544469 
L 850.028153 225.544469 
z
" clip-path="url(#pe69a6f0255)" style="fill: #e04b4b; opacity: 0.6"/>
   </g>
   <g id="patch_138">
    <path d="M 867.78096 225.544469 
L 885.533768 225.544469 
L 885.533768 225.544469 
L 867.78096 225.544469 
z
" clip-path="url(#pe69a6f0255)" style="fill: #e04b4b; opacity: 0.6"/>
   </g>
   <g id="patch_139">
    <path d="M 885.533768 225.544469 
L 903.286575 225.544469 
L 903.286575 225.508404 
L 885.533768 225.508404 
z
" clip-path="url(#pe69a6f0255)" style="fill: #e04b4b; opacity: 0.6"/>
   </g>
   <g id="patch_140">
    <path d="M 370.70236 225.544469 
L 394.474736 225.544469 
L 394.474736 35.521344 
L 370.70236 35.521344 
z
" clip-path="url(#pe69a6f0255)" style="fill: #f5d76e; opacity: 0.6"/>
   </g>
   <g id="patch_141">
    <path d="M 394.474736 225.544469 
L 418.247111 225.544469 
L 418.247111 164.595696 
L 394.474736 164.595696 
z
" clip-path="url(#pe69a6f0255)" style="fill: #f5d76e; opacity: 0.6"/>
   </g>
   <g id="patch_142">
    <path d="M 418.247111 225.544469 
L 442.019487 225.544469 
L 442.019487 188.722755 
L 418.247111 188.722755 
z
" clip-path="url(#pe69a6f0255)" style="fill: #f5d76e; opacity: 0.6"/>
   </g>
   <g id="patch_143">
    <path d="M 442.019487 225.544469 
L 465.791862 225.544469 
L 465.791862 202.607534 
L 442.019487 202.607534 
z
" clip-path="url(#pe69a6f0255)" style="fill: #f5d76e; opacity: 0.6"/>
   </g>
   <g id="patch_144">
    <path d="M 465.791862 225.544469 
L 489.564237 225.544469 
L 489.564237 210.685951 
L 465.791862 210.685951 
z
" clip-path="url(#pe69a6f0255)" style="fill: #f5d76e; opacity: 0.6"/>
   </g>
   <g id="patch_145">
    <path d="M 489.564237 225.544469 
L 513.336613 225.544469 
L 513.336613 214.977611 
L 489.564237 214.977611 
z
" clip-path="url(#pe69a6f0255)" style="fill: #f5d76e; opacity: 0.6"/>
   </g>
   <g id="patch_146">
    <path d="M 513.336613 225.544469 
L 537.108988 225.544469 
L 537.108988 218.69224 
L 513.336613 218.69224 
z
" clip-path="url(#pe69a6f0255)" style="fill: #f5d76e; opacity: 0.6"/>
   </g>
   <g id="patch_147">
    <path d="M 537.108988 225.544469 
L 560.881364 225.544469 
L 560.881364 220.170879 
L 537.108988 220.170879 
z
" clip-path="url(#pe69a6f0255)" style="fill: #f5d76e; opacity: 0.6"/>
   </g>
   <g id="patch_148">
    <path d="M 560.881364 225.544469 
L 584.653739 225.544469 
L 584.653739 222.118354 
L 560.881364 222.118354 
z
" clip-path="url(#pe69a6f0255)" style="fill: #f5d76e; opacity: 0.6"/>
   </g>
   <g id="patch_149">
    <path d="M 584.653739 225.544469 
L 608.426114 225.544469 
L 608.426114 222.623255 
L 584.653739 222.623255 
z
" clip-path="url(#pe69a6f0255)" style="fill: #f5d76e; opacity: 0.6"/>
   </g>
   <g id="patch_150">
    <path d="M 608.426114 225.544469 
L 632.19849 225.544469 
L 632.19849 223.957637 
L 608.426114 223.957637 
z
" clip-path="url(#pe69a6f0255)" style="fill: #f5d76e; opacity: 0.6"/>
   </g>
   <g id="patch_151">
    <path d="M 632.19849 225.544469 
L 655.970865 225.544469 
L 655.970865 224.282216 
L 632.19849 224.282216 
z
" clip-path="url(#pe69a6f0255)" style="fill: #f5d76e; opacity: 0.6"/>
   </g>
   <g id="patch_152">
    <path d="M 655.970865 225.544469 
L 679.743241 225.544469 
L 679.743241 224.606795 
L 655.970865 224.606795 
z
" clip-path="url(#pe69a6f0255)" style="fill: #f5d76e; opacity: 0.6"/>
   </g>
   <g id="patch_153">
    <path d="M 679.743241 225.544469 
L 703.515616 225.544469 
L 703.515616 224.967439 
L 679.743241 224.967439 
z
" clip-path="url(#pe69a6f0255)" style="fill: #f5d76e; opacity: 0.6"/>
   </g>
   <g id="patch_154">
    <path d="M 703.515616 225.544469 
L 727.287991 225.544469 
L 727.287991 225.219889 
L 703.515616 225.219889 
z
" clip-path="url(#pe69a6f0255)" style="fill: #f5d76e; opacity: 0.6"/>
   </g>
   <g id="patch_155">
    <path d="M 727.287991 225.544469 
L 751.060367 225.544469 
L 751.060367 225.255954 
L 727.287991 225.255954 
z
" clip-path="url(#pe69a6f0255)" style="fill: #f5d76e; opacity: 0.6"/>
   </g>
   <g id="patch_156">
    <path d="M 751.060367 225.544469 
L 774.832742 225.544469 
L 774.832742 225.328083 
L 751.060367 225.328083 
z
" clip-path="url(#pe69a6f0255)" style="fill: #f5d76e; opacity: 0.6"/>
   </g>
   <g id="patch_157">
    <path d="M 774.832742 225.544469 
L 798.605118 225.544469 
L 798.605118 225.292018 
L 774.832742 225.292018 
z
" clip-path="url(#pe69a6f0255)" style="fill: #f5d76e; opacity: 0.6"/>
   </g>
   <g id="patch_158">
    <path d="M 798.605118 225.544469 
L 822.377493 225.544469 
L 822.377493 225.364147 
L 798.605118 225.364147 
z
" clip-path="url(#pe69a6f0255)" style="fill: #f5d76e; opacity: 0.6"/>
   </g>
   <g id="patch_159">
    <path d="M 822.377493 225.544469 
L 846.149868 225.544469 
L 846.149868 225.508404 
L 822.377493 225.508404 
z
" clip-path="url(#pe69a6f0255)" style="fill: #f5d76e; opacity: 0.6"/>
   </g>
   <g id="patch_160">
    <path d="M 846.149868 225.544469 
L 869.922244 225.544469 
L 869.922244 225.47234 
L 846.149868 225.47234 
z
" clip-path="url(#pe69a6f0255)" style="fill: #f5d76e; opacity: 0.6"/>
   </g>
   <g id="patch_161">
    <path d="M 869.922244 225.544469 
L 893.694619 225.544469 
L 893.694619 225.544469 
L 869.922244 225.544469 
z
" clip-path="url(#pe69a6f0255)" style="fill: #f5d76e; opacity: 0.6"/>
   </g>
   <g id="patch_162">
    <path d="M 893.694619 225.544469 
L 917.466995 225.544469 
L 917.466995 225.47234 
L 893.694619 225.47234 
z
" clip-path="url(#pe69a6f0255)" style="fill: #f5d76e; opacity: 0.6"/>
   </g>
   <g id="patch_163">
    <path d="M 917.466995 225.544469 
L 941.23937 225.544469 
L 941.23937 225.508404 
L 917.466995 225.508404 
z
" clip-path="url(#pe69a6f0255)" style="fill: #f5d76e; opacity: 0.6"/>
   </g>
   <g id="patch_164">
    <path d="M 941.23937 225.544469 
L 965.011745 225.544469 
L 965.011745 225.544469 
L 941.23937 225.544469 
z
" clip-path="url(#pe69a6f0255)" style="fill: #f5d76e; opacity: 0.6"/>
   </g>
   <g id="patch_165">
    <path d="M 965.011745 225.544469 
L 988.784121 225.544469 
L 988.784121 225.544469 
L 965.011745 225.544469 
z
" clip-path="url(#pe69a6f0255)" style="fill: #f5d76e; opacity: 0.6"/>
   </g>
   <g id="patch_166">
    <path d="M 988.784121 225.544469 
L 1012.556496 225.544469 
L 1012.556496 225.508404 
L 988.784121 225.508404 
z
" clip-path="url(#pe69a6f0255)" style="fill: #f5d76e; opacity: 0.6"/>
   </g>
   <g id="patch_167">
    <path d="M 1012.556496 225.544469 
L 1036.328872 225.544469 
L 1036.328872 225.544469 
L 1012.556496 225.544469 
z
" clip-path="url(#pe69a6f0255)" style="fill: #f5d76e; opacity: 0.6"/>
   </g>
   <g id="patch_168">
    <path d="M 1036.328872 225.544469 
L 1060.101247 225.544469 
L 1060.101247 225.544469 
L 1036.328872 225.544469 
z
" clip-path="url(#pe69a6f0255)" style="fill: #f5d76e; opacity: 0.6"/>
   </g>
   <g id="patch_169">
    <path d="M 1060.101247 225.544469 
L 1083.873622 225.544469 
L 1083.873622 225.508404 
L 1060.101247 225.508404 
z
" clip-path="url(#pe69a6f0255)" style="fill: #f5d76e; opacity: 0.6"/>
   </g>
   <g id="matplotlib.axis_3">
    <g id="xtick_6">
     <g id="line2d_6">
      <g>
       <use xlink:href="#mf45212d5e6" x="370.70236" y="225.544469" style="fill: #030303; stroke: #030303; stroke-width: 0.8"/>
      </g>
     </g>
     <g id="text_9">
      <!-- $\mathdefault{0}$ -->
      <g style="fill: #030303" transform="translate(366.22236 243.182281) scale(0.14 -0.14)">
       <use xlink:href="#DejaVuSerif-30" transform="translate(0 0.78125)"/>
      </g>
     </g>
    </g>
    <g id="xtick_7">
     <g id="line2d_7">
      <g>
       <use xlink:href="#mf45212d5e6" x="426.241705" y="225.544469" style="fill: #030303; stroke: #030303; stroke-width: 0.8"/>
      </g>
     </g>
     <g id="text_10">
      <!-- $\mathdefault{2}$ -->
      <g style="fill: #030303" transform="translate(421.761705 243.182281) scale(0.14 -0.14)">
       <use xlink:href="#DejaVuSerif-32" transform="translate(0 0.78125)"/>
      </g>
     </g>
    </g>
    <g id="xtick_8">
     <g id="line2d_8">
      <g>
       <use xlink:href="#mf45212d5e6" x="481.781051" y="225.544469" style="fill: #030303; stroke: #030303; stroke-width: 0.8"/>
      </g>
     </g>
     <g id="text_11">
      <!-- $\mathdefault{4}$ -->
      <g style="fill: #030303" transform="translate(477.301051 243.182281) scale(0.14 -0.14)">
       <use xlink:href="#DejaVuSerif-34" transform="translate(0 0.78125)"/>
      </g>
     </g>
    </g>
    <g id="xtick_9">
     <g id="line2d_9">
      <g>
       <use xlink:href="#mf45212d5e6" x="537.320396" y="225.544469" style="fill: #030303; stroke: #030303; stroke-width: 0.8"/>
      </g>
     </g>
     <g id="text_12">
      <!-- $\mathdefault{6}$ -->
      <g style="fill: #030303" transform="translate(532.840396 243.182281) scale(0.14 -0.14)">
       <defs>
        <path id="DejaVuSerif-36" d="M 2094 219 
Q 2534 219 2771 542 
Q 3009 866 3009 1472 
Q 3009 2078 2771 2401 
Q 2534 2725 2094 2725 
Q 1647 2725 1412 2412 
Q 1178 2100 1178 1509 
Q 1178 888 1415 553 
Q 1653 219 2094 219 
z
M 1075 2569 
Q 1288 2803 1556 2918 
Q 1825 3034 2163 3034 
Q 2859 3034 3264 2615 
Q 3669 2197 3669 1472 
Q 3669 763 3233 336 
Q 2797 -91 2069 -91 
Q 1278 -91 853 498 
Q 428 1088 428 2181 
Q 428 3406 931 4078 
Q 1434 4750 2350 4750 
Q 2597 4750 2869 4703 
Q 3141 4656 3425 4563 
L 3425 3794 
L 3072 3794 
Q 3034 4109 2831 4275 
Q 2628 4441 2284 4441 
Q 1678 4441 1381 3981 
Q 1084 3522 1075 2569 
z
" transform="scale(0.015625)"/>
       </defs>
       <use xlink:href="#DejaVuSerif-36" transform="translate(0 0.78125)"/>
      </g>
     </g>
    </g>
    <g id="xtick_10">
     <g id="line2d_10">
      <g>
       <use xlink:href="#mf45212d5e6" x="592.859742" y="225.544469" style="fill: #030303; stroke: #030303; stroke-width: 0.8"/>
      </g>
     </g>
     <g id="text_13">
      <!-- $\mathdefault{8}$ -->
      <g style="fill: #030303" transform="translate(588.379742 243.182281) scale(0.14 -0.14)">
       <defs>
        <path id="DejaVuSerif-38" d="M 2981 1275 
Q 2981 1775 2732 2051 
Q 2484 2328 2034 2328 
Q 1584 2328 1336 2051 
Q 1088 1775 1088 1275 
Q 1088 772 1336 495 
Q 1584 219 2034 219 
Q 2484 219 2732 495 
Q 2981 772 2981 1275 
z
M 2853 3541 
Q 2853 3966 2637 4203 
Q 2422 4441 2034 4441 
Q 1650 4441 1433 4203 
Q 1216 3966 1216 3541 
Q 1216 3113 1433 2875 
Q 1650 2638 2034 2638 
Q 2422 2638 2637 2875 
Q 2853 3113 2853 3541 
z
M 2516 2484 
Q 3047 2413 3344 2092 
Q 3641 1772 3641 1275 
Q 3641 619 3225 264 
Q 2809 -91 2034 -91 
Q 1263 -91 845 264 
Q 428 619 428 1275 
Q 428 1772 725 2092 
Q 1022 2413 1556 2484 
Q 1084 2569 832 2842 
Q 581 3116 581 3541 
Q 581 4103 968 4426 
Q 1356 4750 2034 4750 
Q 2713 4750 3100 4426 
Q 3488 4103 3488 3541 
Q 3488 3116 3236 2842 
Q 2984 2569 2516 2484 
z
" transform="scale(0.015625)"/>
       </defs>
       <use xlink:href="#DejaVuSerif-38" transform="translate(0 0.78125)"/>
      </g>
     </g>
    </g>
    <g id="xtick_11">
     <g id="line2d_11">
      <g>
       <use xlink:href="#mf45212d5e6" x="648.399087" y="225.544469" style="fill: #030303; stroke: #030303; stroke-width: 0.8"/>
      </g>
     </g>
     <g id="text_14">
      <!-- $\mathdefault{10}$ -->
      <g style="fill: #030303" transform="translate(639.439087 243.182281) scale(0.14 -0.14)">
       <use xlink:href="#DejaVuSerif-31" transform="translate(0 0.78125)"/>
       <use xlink:href="#DejaVuSerif-30" transform="translate(63.623047 0.78125)"/>
      </g>
     </g>
    </g>
    <g id="xtick_12">
     <g id="line2d_12">
      <g>
       <use xlink:href="#mf45212d5e6" x="703.938433" y="225.544469" style="fill: #030303; stroke: #030303; stroke-width: 0.8"/>
      </g>
     </g>
     <g id="text_15">
      <!-- $\mathdefault{12}$ -->
      <g style="fill: #030303" transform="translate(694.978433 243.182281) scale(0.14 -0.14)">
       <use xlink:href="#DejaVuSerif-31" transform="translate(0 0.78125)"/>
       <use xlink:href="#DejaVuSerif-32" transform="translate(63.623047 0.78125)"/>
      </g>
     </g>
    </g>
    <g id="text_16">
     <!-- $\chi^2$ -->
     <g style="fill: #030303" transform="translate(525.247671 265.393844) scale(0.18 -0.18)">
      <defs>
       <path id="Cmr10-32" d="M 319 0 
L 319 172 
Q 319 188 331 206 
L 1325 1306 
Q 1550 1550 1690 1715 
Q 1831 1881 1968 2097 
Q 2106 2313 2186 2536 
Q 2266 2759 2266 3009 
Q 2266 3272 2169 3511 
Q 2072 3750 1880 3894 
Q 1688 4038 1416 4038 
Q 1138 4038 916 3870 
Q 694 3703 603 3438 
Q 628 3444 672 3444 
Q 816 3444 917 3347 
Q 1019 3250 1019 3097 
Q 1019 2950 917 2848 
Q 816 2747 672 2747 
Q 522 2747 420 2851 
Q 319 2956 319 3097 
Q 319 3338 409 3548 
Q 500 3759 670 3923 
Q 841 4088 1055 4175 
Q 1269 4263 1509 4263 
Q 1875 4263 2190 4108 
Q 2506 3953 2690 3670 
Q 2875 3388 2875 3009 
Q 2875 2731 2753 2481 
Q 2631 2231 2440 2026 
Q 2250 1822 1953 1562 
Q 1656 1303 1563 1216 
L 838 519 
L 1453 519 
Q 1906 519 2211 526 
Q 2516 534 2534 550 
Q 2609 631 2688 1141 
L 2875 1141 
L 2694 0 
L 319 0 
z
" transform="scale(0.015625)"/>
      </defs>
      <use xlink:href="#Cmmi10-c2" transform="translate(0 0.109375)"/>
      <use xlink:href="#Cmr10-32" transform="translate(68.803281 38.373438) scale(0.7)"/>
     </g>
    </g>
   </g>
   <g id="matplotlib.axis_4"/>
   <g id="patch_170">
    <path d="M 370.70236 225.544469 
L 370.70236 17.597356 
L 388.455167 17.597356 
L 388.455167 166.36285 
L 406.207974 166.36285 
L 406.207974 191.283325 
L 423.960781 191.283325 
L 423.960781 205.636941 
L 441.713588 205.636941 
L 441.713588 212.16459 
L 459.466396 212.16459 
L 459.466396 217.213601 
L 477.219203 217.213601 
L 477.219203 219.954493 
L 494.97201 219.954493 
L 494.97201 222.370805 
L 512.724817 222.370805 
L 512.724817 222.65932 
L 530.477624 222.65932 
L 530.477624 223.741251 
L 548.230431 223.741251 
L 548.230431 224.210087 
L 565.983239 224.210087 
L 565.983239 224.787117 
L 583.736046 224.787117 
L 583.736046 224.751053 
L 601.488853 224.751053 
L 601.488853 225.255954 
L 619.24166 225.255954 
L 619.24166 225.219889 
L 636.994467 225.219889 
L 636.994467 225.400211 
L 654.747274 225.400211 
L 654.747274 225.328083 
L 672.500082 225.328083 
L 672.500082 225.544469 
L 690.252889 225.544469 
L 690.252889 225.508404 
L 708.005696 225.508404 
L 708.005696 225.47234 
L 721.098433 225.47234 
" clip-path="url(#pe69a6f0255)" style="fill: none; stroke: #e04b4b; stroke-width: 1.5; stroke-linejoin: miter"/>
   </g>
   <g id="patch_171">
    <path d="M 370.70236 225.544469 
L 370.70236 35.521344 
L 394.474736 35.521344 
L 394.474736 164.595696 
L 418.247111 164.595696 
L 418.247111 188.722755 
L 442.019487 188.722755 
L 442.019487 202.607534 
L 465.791862 202.607534 
L 465.791862 210.685951 
L 489.564237 210.685951 
L 489.564237 214.977611 
L 513.336613 214.977611 
L 513.336613 218.69224 
L 537.108988 218.69224 
L 537.108988 220.170879 
L 560.881364 220.170879 
L 560.881364 222.118354 
L 584.653739 222.118354 
L 584.653739 222.623255 
L 608.426114 222.623255 
L 608.426114 223.957637 
L 632.19849 223.957637 
L 632.19849 224.282216 
L 655.970865 224.282216 
L 655.970865 224.606795 
L 679.743241 224.606795 
L 679.743241 224.967439 
L 703.515616 224.967439 
L 703.515616 225.219889 
L 721.098433 225.219889 
" clip-path="url(#pe69a6f0255)" style="fill: none; stroke: #f5d76e; stroke-width: 1.5; stroke-linejoin: miter"/>
   </g>
   <g id="patch_172">
    <path d="M 366.536909 225.544469 
L 703.938433 225.544469 
" style="fill: none; stroke: #030303; stroke-width: 1.5; stroke-linejoin: miter; stroke-linecap: square"/>
   </g>
   <g id="legend_2">
    <g id="patch_173">
     <path d="M 607.001558 59.49875 
L 694.138433 59.49875 
Q 696.938433 59.49875 696.938433 56.69875 
L 696.938433 17 
Q 696.938433 14.2 694.138433 14.2 
L 607.001558 14.2 
Q 604.201558 14.2 604.201558 17 
L 604.201558 56.69875 
Q 604.201558 59.49875 607.001558 59.49875 
z
" style="fill: #ffffff; opacity: 0.8; stroke: #cccccc; stroke-linejoin: miter"/>
    </g>
    <g id="patch_174">
     <path d="M 609.801558 30.437813 
L 637.801558 30.437813 
L 637.801558 20.637813 
L 609.801558 20.637813 
L 609.801558 30.437813 
z
" style="fill: none; stroke: #e04b4b; stroke-width: 1.5; stroke-linejoin: miter"/>
    </g>
    <g id="text_17">
     <!-- Null -->
     <g style="fill: #030303" transform="translate(649.001558 30.437813) scale(0.14 -0.14)">
      <use xlink:href="#DejaVuSerif-4e"/>
      <use xlink:href="#DejaVuSerif-75" transform="translate(87.5 0)"/>
      <use xlink:href="#DejaVuSerif-6c" transform="translate(151.904297 0)"/>
      <use xlink:href="#DejaVuSerif-6c" transform="translate(183.886719 0)"/>
     </g>
    </g>
    <g id="patch_175">
     <path d="M 609.801558 50.987188 
L 637.801558 50.987188 
L 637.801558 41.187188 
L 609.801558 41.187188 
L 609.801558 50.987188 
z
" style="fill: none; stroke: #f5d76e; stroke-width: 1.5; stroke-linejoin: miter"/>
    </g>
    <g id="text_18">
     <!-- Effect -->
     <g style="fill: #030303" transform="translate(649.001558 50.987188) scale(0.14 -0.14)">
      <use xlink:href="#DejaVuSerif-45"/>
      <use xlink:href="#DejaVuSerif-66" transform="translate(72.998047 0)"/>
      <use xlink:href="#DejaVuSerif-66" transform="translate(110.009766 0)"/>
      <use xlink:href="#DejaVuSerif-65" transform="translate(147.021484 0)"/>
      <use xlink:href="#DejaVuSerif-63" transform="translate(206.201172 0)"/>
      <use xlink:href="#DejaVuSerif-74" transform="translate(262.207031 0)"/>
     </g>
    </g>
   </g>
  </g>
  <g id="axes_3">
   <g id="matplotlib.axis_5"/>
   <g id="patch_176">
    <path d="M 10.553217 225.544469 
L 347.954741 225.544469 
" style="fill: none; stroke: #030303; stroke-width: 1.5; stroke-linejoin: miter; stroke-linecap: square"/>
   </g>
   <g id="patch_177">
    <path d="M 158.218481 65.785955 
Q 158.218481 144.663308 158.218481 220.18656 
" style="fill: none; stroke: #000000; stroke-width: 3; stroke-linecap: round"/>
    <path d="M 162.218481 212.18656 
L 158.218481 220.18656 
L 154.218481 212.18656 
" style="fill: none; stroke: #000000; stroke-width: 3; stroke-linecap: round"/>
   </g>
   <g id="text_19">
    <!-- $\alpha=0.05$ -->
    <g style="fill: #030303" transform="translate(122.718481 57.626742) scale(0.2 -0.2)">
     <defs>
      <path id="Cmmi10-ae" d="M 1288 -72 
Q 984 -72 748 72 
Q 513 216 384 459 
Q 256 703 256 1013 
Q 256 1447 498 1872 
Q 741 2297 1142 2562 
Q 1544 2828 1984 2828 
Q 2309 2828 2556 2658 
Q 2803 2488 2931 2205 
Q 3059 1922 3059 1600 
L 3066 1172 
Q 3284 1475 3436 1801 
Q 3588 2128 3669 2478 
Q 3681 2516 3719 2516 
L 3794 2516 
Q 3853 2516 3853 2456 
Q 3853 2450 3847 2438 
Q 3772 2144 3659 1873 
Q 3547 1603 3395 1350 
Q 3244 1097 3066 891 
Q 3066 97 3250 97 
Q 3369 97 3445 167 
Q 3522 238 3580 341 
Q 3638 444 3653 447 
L 3731 447 
Q 3781 447 3781 384 
Q 3781 225 3598 76 
Q 3416 -72 3238 -72 
Q 3006 -72 2853 78 
Q 2700 228 2644 469 
Q 2344 213 1994 70 
Q 1644 -72 1288 -72 
z
M 1300 97 
Q 1984 97 2613 659 
Q 2609 697 2603 751 
Q 2597 806 2597 813 
L 2597 1503 
Q 2597 2663 1972 2663 
Q 1597 2663 1315 2342 
Q 1034 2022 892 1576 
Q 750 1131 750 763 
Q 750 484 892 290 
Q 1034 97 1300 97 
z
" transform="scale(0.015625)"/>
      <path id="Cmr10-3d" d="M 481 850 
Q 428 850 393 890 
Q 359 931 359 978 
Q 359 1031 393 1068 
Q 428 1106 481 1106 
L 4500 1106 
Q 4547 1106 4581 1068 
Q 4616 1031 4616 978 
Q 4616 931 4581 890 
Q 4547 850 4500 850 
L 481 850 
z
M 481 2094 
Q 428 2094 393 2131 
Q 359 2169 359 2222 
Q 359 2269 393 2309 
Q 428 2350 481 2350 
L 4500 2350 
Q 4547 2350 4581 2309 
Q 4616 2269 4616 2222 
Q 4616 2169 4581 2131 
Q 4547 2094 4500 2094 
L 481 2094 
z
" transform="scale(0.015625)"/>
      <path id="Cmr10-30" d="M 1600 -141 
Q 816 -141 533 504 
Q 250 1150 250 2041 
Q 250 2597 351 3087 
Q 453 3578 754 3920 
Q 1056 4263 1600 4263 
Q 2022 4263 2290 4056 
Q 2559 3850 2700 3523 
Q 2841 3197 2892 2823 
Q 2944 2450 2944 2041 
Q 2944 1491 2842 1011 
Q 2741 531 2444 195 
Q 2147 -141 1600 -141 
z
M 1600 25 
Q 1956 25 2131 390 
Q 2306 756 2347 1200 
Q 2388 1644 2388 2144 
Q 2388 2625 2347 3031 
Q 2306 3438 2132 3767 
Q 1959 4097 1600 4097 
Q 1238 4097 1063 3765 
Q 888 3434 847 3029 
Q 806 2625 806 2144 
Q 806 1788 823 1472 
Q 841 1156 916 820 
Q 991 484 1158 254 
Q 1325 25 1600 25 
z
" transform="scale(0.015625)"/>
      <path id="Cmmi10-3a" d="M 538 353 
Q 538 497 644 600 
Q 750 703 891 703 
Q 978 703 1062 656 
Q 1147 609 1194 525 
Q 1241 441 1241 353 
Q 1241 213 1137 106 
Q 1034 0 891 0 
Q 750 0 644 106 
Q 538 213 538 353 
z
" transform="scale(0.015625)"/>
      <path id="Cmr10-35" d="M 556 728 
Q 622 541 758 387 
Q 894 234 1080 148 
Q 1266 63 1466 63 
Q 1928 63 2103 422 
Q 2278 781 2278 1294 
Q 2278 1516 2270 1667 
Q 2263 1819 2228 1959 
Q 2169 2184 2020 2353 
Q 1872 2522 1656 2522 
Q 1441 2522 1286 2456 
Q 1131 2391 1034 2303 
Q 938 2216 863 2119 
Q 788 2022 769 2016 
L 697 2016 
Q 681 2016 657 2036 
Q 634 2056 634 2075 
L 634 4213 
Q 634 4228 654 4245 
Q 675 4263 697 4263 
L 716 4263 
Q 1147 4056 1631 4056 
Q 2106 4056 2547 4263 
L 2566 4263 
Q 2588 4263 2606 4247 
Q 2625 4231 2625 4213 
L 2625 4153 
Q 2625 4122 2613 4122 
Q 2394 3831 2064 3668 
Q 1734 3506 1381 3506 
Q 1125 3506 856 3578 
L 856 2369 
Q 1069 2541 1236 2614 
Q 1403 2688 1663 2688 
Q 2016 2688 2295 2484 
Q 2575 2281 2725 1954 
Q 2875 1628 2875 1288 
Q 2875 903 2686 575 
Q 2497 247 2172 53 
Q 1847 -141 1466 -141 
Q 1150 -141 886 21 
Q 622 184 470 459 
Q 319 734 319 1044 
Q 319 1188 412 1278 
Q 506 1369 647 1369 
Q 788 1369 883 1276 
Q 978 1184 978 1044 
Q 978 906 883 811 
Q 788 716 647 716 
Q 625 716 597 720 
Q 569 725 556 728 
z
" transform="scale(0.015625)"/>
     </defs>
     <use xlink:href="#Cmmi10-ae" transform="translate(0 0.390625)"/>
     <use xlink:href="#Cmr10-3d" transform="translate(81.474609 0.390625)"/>
     <use xlink:href="#Cmr10-30" transform="translate(176.71875 0.390625)"/>
     <use xlink:href="#Cmmi10-3a" transform="translate(226.71875 0.390625)"/>
     <use xlink:href="#Cmr10-30" transform="translate(254.404297 0.390625)"/>
     <use xlink:href="#Cmr10-35" transform="translate(304.404297 0.390625)"/>
    </g>
   </g>
  </g>
  <g id="axes_4">
   <g id="matplotlib.axis_6"/>
   <g id="patch_178">
    <path d="M 366.536909 225.544469 
L 703.938433 225.544469 
" style="fill: none; stroke: #030303; stroke-width: 1.5; stroke-linejoin: miter; stroke-linecap: square"/>
   </g>
   <g id="patch_179">
    <path d="M 475.844472 153.12823 
Q 475.844472 188.335234 475.844472 220.188136 
" style="fill: none; stroke: #000000; stroke-width: 3; stroke-linecap: round"/>
    <path d="M 479.844472 212.188136 
L 475.844472 220.188136 
L 471.844472 212.188136 
" style="fill: none; stroke: #000000; stroke-width: 3; stroke-linecap: round"/>
   </g>
   <g id="text_20">
    <!-- $\alpha=0.05$ -->
    <g style="fill: #030303" transform="translate(440.344472 144.96453) scale(0.2 -0.2)">
     <use xlink:href="#Cmmi10-ae" transform="translate(0 0.390625)"/>
     <use xlink:href="#Cmr10-3d" transform="translate(81.474609 0.390625)"/>
     <use xlink:href="#Cmr10-30" transform="translate(176.71875 0.390625)"/>
     <use xlink:href="#Cmmi10-3a" transform="translate(226.71875 0.390625)"/>
     <use xlink:href="#Cmr10-30" transform="translate(254.404297 0.390625)"/>
     <use xlink:href="#Cmr10-35" transform="translate(304.404297 0.390625)"/>
    </g>
   </g>
  </g>
 </g>
 <defs>
  <clipPath id="pb766502083">
   <rect x="10.553217" y="7.2" width="337.401524" height="218.344469"/>
  </clipPath>
  <clipPath id="pe69a6f0255">
   <rect x="366.536909" y="7.2" width="337.401524" height="218.344469"/>
  </clipPath>
 </defs>
</svg>
