<?xml version="1.0" encoding="utf-8" standalone="no"?>
<!DOCTYPE svg PUBLIC "-//W3C//DTD SVG 1.1//EN"
  "http://www.w3.org/Graphics/SVG/1.1/DTD/svg11.dtd">
<svg xmlns:xlink="http://www.w3.org/1999/xlink" width="432pt" height="297pt" viewBox="0 0 432 297" xmlns="http://www.w3.org/2000/svg" version="1.1">
 <metadata>
  <rdf:RDF xmlns:dc="http://purl.org/dc/elements/1.1/" xmlns:cc="http://creativecommons.org/ns#" xmlns:rdf="http://www.w3.org/1999/02/22-rdf-syntax-ns#">
   <cc:Work>
    <dc:type rdf:resource="http://purl.org/dc/dcmitype/StillImage"/>
    <dc:date>2024-01-31T05:33:52.916576</dc:date>
    <dc:format>image/svg+xml</dc:format>
    <dc:creator>
     <cc:Agent>
      <dc:title>Matplotlib v3.8.2, https://matplotlib.org/</dc:title>
     </cc:Agent>
    </dc:creator>
   </cc:Work>
  </rdf:RDF>
 </metadata>
 <defs>
  <style type="text/css">*{stroke-linejoin: round; stroke-linecap: butt}</style>
 </defs>
 <g id="figure_1">
  <g id="patch_1">
   <path d="M 0 297 
L 432 297 
L 432 0 
L 0 0 
L 0 297 
z
" style="fill: none"/>
  </g>
  <g id="axes_1">
   <g id="patch_2">
    <path d="M 54 264.33 
L 388.8 264.33 
L 388.8 35.64 
L 54 35.64 
L 54 264.33 
z
" style="fill: none"/>
   </g>
   <g id="patch_3">
    <path d="M 69.218182 264.33 
L 93.062338 264.33 
L 93.062338 261.573038 
L 69.218182 261.573038 
z
" clip-path="url(#p0de56e9dde)" style="fill: #1f77b4; opacity: 0.7; stroke: #000000; stroke-linejoin: miter"/>
   </g>
   <g id="patch_4">
    <path d="M 97.27013 264.33 
L 121.114286 264.33 
L 121.114286 255.140127 
L 97.27013 255.140127 
z
" clip-path="url(#p0de56e9dde)" style="fill: #1f77b4; opacity: 0.7; stroke: #000000; stroke-linejoin: miter"/>
   </g>
   <g id="patch_5">
    <path d="M 125.322078 264.33 
L 149.166234 264.33 
L 149.166234 216.542658 
L 125.322078 216.542658 
z
" clip-path="url(#p0de56e9dde)" style="fill: #1f77b4; opacity: 0.7; stroke: #000000; stroke-linejoin: miter"/>
   </g>
   <g id="patch_6">
    <path d="M 153.374026 264.33 
L 177.218182 264.33 
L 177.218182 154.051519 
L 153.374026 154.051519 
z
" clip-path="url(#p0de56e9dde)" style="fill: #1f77b4; opacity: 0.7; stroke: #000000; stroke-linejoin: miter"/>
   </g>
   <g id="patch_7">
    <path d="M 181.425974 264.33 
L 205.27013 264.33 
L 205.27013 94.317342 
L 181.425974 94.317342 
z
" clip-path="url(#p0de56e9dde)" style="fill: #1f77b4; opacity: 0.7; stroke: #000000; stroke-linejoin: miter"/>
   </g>
   <g id="patch_8">
    <path d="M 209.477922 264.33 
L 233.322078 264.33 
L 233.322078 46.53 
L 209.477922 46.53 
z
" clip-path="url(#p0de56e9dde)" style="fill: #1f77b4; opacity: 0.7; stroke: #000000; stroke-linejoin: miter"/>
   </g>
   <g id="patch_9">
    <path d="M 237.52987 264.33 
L 261.374026 264.33 
L 261.374026 76.856582 
L 237.52987 76.856582 
z
" clip-path="url(#p0de56e9dde)" style="fill: #1f77b4; opacity: 0.7; stroke: #000000; stroke-linejoin: miter"/>
   </g>
   <g id="patch_10">
    <path d="M 265.581818 264.33 
L 289.425974 264.33 
L 289.425974 141.185696 
L 265.581818 141.185696 
z
" clip-path="url(#p0de56e9dde)" style="fill: #1f77b4; opacity: 0.7; stroke: #000000; stroke-linejoin: miter"/>
   </g>
   <g id="patch_11">
    <path d="M 293.633766 264.33 
L 317.477922 264.33 
L 317.477922 227.570506 
L 293.633766 227.570506 
z
" clip-path="url(#p0de56e9dde)" style="fill: #1f77b4; opacity: 0.7; stroke: #000000; stroke-linejoin: miter"/>
   </g>
   <g id="patch_12">
    <path d="M 321.685714 264.33 
L 345.52987 264.33 
L 345.52987 252.383165 
L 321.685714 252.383165 
z
" clip-path="url(#p0de56e9dde)" style="fill: #1f77b4; opacity: 0.7; stroke: #000000; stroke-linejoin: miter"/>
   </g>
   <g id="patch_13">
    <path d="M 349.737662 264.33 
L 373.581818 264.33 
L 373.581818 262.492025 
L 349.737662 262.492025 
z
" clip-path="url(#p0de56e9dde)" style="fill: #1f77b4; opacity: 0.7; stroke: #000000; stroke-linejoin: miter"/>
   </g>
   <g id="matplotlib.axis_1"/>
   <g id="matplotlib.axis_2"/>
   <g id="patch_14">
    <path d="M 54 264.33 
L 388.8 264.33 
" style="fill: none; stroke: #030303; stroke-width: 1.5; stroke-linejoin: miter; stroke-linecap: square"/>
   </g>
  </g>
 </g>
 <defs>
  <clipPath id="p0de56e9dde">
   <rect x="54" y="35.64" width="334.8" height="228.69"/>
  </clipPath>
 </defs>
</svg>
