<?xml version="1.0" encoding="utf-8" standalone="no"?>
<!DOCTYPE svg PUBLIC "-//W3C//DTD SVG 1.1//EN"
  "http://www.w3.org/Graphics/SVG/1.1/DTD/svg11.dtd">
<svg xmlns:xlink="http://www.w3.org/1999/xlink" width="648pt" height="432pt" viewBox="0 0 648 432" xmlns="http://www.w3.org/2000/svg" version="1.1">
 <metadata>
  <rdf:RDF xmlns:dc="http://purl.org/dc/elements/1.1/" xmlns:cc="http://creativecommons.org/ns#" xmlns:rdf="http://www.w3.org/1999/02/22-rdf-syntax-ns#">
   <cc:Work>
    <dc:type rdf:resource="http://purl.org/dc/dcmitype/StillImage"/>
    <dc:date>2025-01-30T09:11:19.163595</dc:date>
    <dc:format>image/svg+xml</dc:format>
    <dc:creator>
     <cc:Agent>
      <dc:title>Matplotlib v3.10.0, https://matplotlib.org/</dc:title>
     </cc:Agent>
    </dc:creator>
   </cc:Work>
  </rdf:RDF>
 </metadata>
 <defs>
  <style type="text/css">*{stroke-linejoin: round; stroke-linecap: butt}</style>
 </defs>
 <g id="figure_1">
  <g id="patch_1">
   <path d="M 0 432 
L 648 432 
L 648 0 
L 0 0 
L 0 432 
z
" style="fill: none"/>
  </g>
  <g id="axes_1">
   <g id="patch_2">
    <path d="M 10.8 365.74 
L 637.2 365.74 
L 637.2 13.368 
L 10.8 13.368 
L 10.8 365.74 
z
" style="fill: none"/>
   </g>
   <g id="patch_3">
    <path d="M 39.272727 365.74 
L 68.363754 365.74 
L 68.363754 360.468035 
L 39.272727 360.468035 
z
" clip-path="url(#p53e6132a8d)" style="fill: #dc143c; opacity: 0.6"/>
   </g>
   <g id="patch_4">
    <path d="M 68.363754 365.74 
L 97.454781 365.74 
L 97.454781 339.198383 
L 68.363754 339.198383 
z
" clip-path="url(#p53e6132a8d)" style="fill: #dc143c; opacity: 0.6"/>
   </g>
   <g id="patch_5">
    <path d="M 97.454781 365.74 
L 126.545808 365.74 
L 126.545808 286.296942 
L 97.454781 286.296942 
z
" clip-path="url(#p53e6132a8d)" style="fill: #dc143c; opacity: 0.6"/>
   </g>
   <g id="patch_6">
    <path d="M 126.545808 365.74 
L 155.636835 365.74 
L 155.636835 196.128163 
L 126.545808 196.128163 
z
" clip-path="url(#p53e6132a8d)" style="fill: #dc143c; opacity: 0.6"/>
   </g>
   <g id="patch_7">
    <path d="M 155.636835 365.74 
L 184.727862 365.74 
L 184.727862 97.96054 
L 155.636835 97.96054 
z
" clip-path="url(#p53e6132a8d)" style="fill: #dc143c; opacity: 0.6"/>
   </g>
   <g id="patch_8">
    <path d="M 184.727862 365.74 
L 213.818889 365.74 
L 213.818889 51.967191 
L 184.727862 51.967191 
z
" clip-path="url(#p53e6132a8d)" style="fill: #dc143c; opacity: 0.6"/>
   </g>
   <g id="patch_9">
    <path d="M 213.818889 365.74 
L 242.909916 365.74 
L 242.909916 38.332799 
L 213.818889 38.332799 
z
" clip-path="url(#p53e6132a8d)" style="fill: #dc143c; opacity: 0.6"/>
   </g>
   <g id="patch_10">
    <path d="M 242.909916 365.74 
L 272.000943 365.74 
L 272.000943 106.322967 
L 242.909916 106.322967 
z
" clip-path="url(#p53e6132a8d)" style="fill: #dc143c; opacity: 0.6"/>
   </g>
   <g id="patch_11">
    <path d="M 272.000943 365.74 
L 301.091969 365.74 
L 301.091969 180.49406 
L 272.000943 180.49406 
z
" clip-path="url(#p53e6132a8d)" style="fill: #dc143c; opacity: 0.6"/>
   </g>
   <g id="patch_12">
    <path d="M 301.091969 365.74 
L 330.182996 365.74 
L 330.182996 257.755615 
L 301.091969 257.755615 
z
" clip-path="url(#p53e6132a8d)" style="fill: #dc143c; opacity: 0.6"/>
   </g>
   <g id="patch_13">
    <path d="M 330.182996 365.74 
L 359.274023 365.74 
L 359.274023 317.201564 
L 330.182996 317.201564 
z
" clip-path="url(#p53e6132a8d)" style="fill: #dc143c; opacity: 0.6"/>
   </g>
   <g id="patch_14">
    <path d="M 359.274023 365.74 
L 388.36505 365.74 
L 388.36505 347.560811 
L 359.274023 347.560811 
z
" clip-path="url(#p53e6132a8d)" style="fill: #dc143c; opacity: 0.6"/>
   </g>
   <g id="patch_15">
    <path d="M 388.36505 365.74 
L 417.456077 365.74 
L 417.456077 360.649827 
L 388.36505 360.649827 
z
" clip-path="url(#p53e6132a8d)" style="fill: #dc143c; opacity: 0.6"/>
   </g>
   <g id="patch_16">
    <path d="M 417.456077 365.74 
L 446.547104 365.74 
L 446.547104 362.83133 
L 417.456077 362.83133 
z
" clip-path="url(#p53e6132a8d)" style="fill: #dc143c; opacity: 0.6"/>
   </g>
   <g id="patch_17">
    <path d="M 446.547104 365.74 
L 475.638131 365.74 
L 475.638131 365.012832 
L 446.547104 365.012832 
z
" clip-path="url(#p53e6132a8d)" style="fill: #dc143c; opacity: 0.6"/>
   </g>
   <g id="matplotlib.axis_1">
    <g id="xtick_1">
     <g id="line2d_1">
      <defs>
       <path id="m11f4bea873" d="M 0 0 
L 0 3.5 
" style="stroke: #030303; stroke-width: 0.8"/>
      </defs>
      <g>
       <use xlink:href="#m11f4bea873" x="34.832963" y="365.74" style="fill: #030303; stroke: #030303; stroke-width: 0.8"/>
      </g>
     </g>
     <g id="text_1">
      <!-- $\mathdefault{−4}$ -->
      <g style="fill: #030303" transform="translate(20.032963 387.936875) scale(0.2 -0.2)">
       <defs>
        <path id="DejaVuSerif-2212" d="M 678 2259 
L 4684 2259 
L 4684 1753 
L 678 1753 
L 678 2259 
z
" transform="scale(0.015625)"/>
        <path id="DejaVuSerif-34" d="M 2234 1581 
L 2234 4063 
L 641 1581 
L 2234 1581 
z
M 3609 0 
L 1484 0 
L 1484 331 
L 2234 331 
L 2234 1247 
L 197 1247 
L 197 1588 
L 2241 4750 
L 2859 4750 
L 2859 1581 
L 3750 1581 
L 3750 1247 
L 2859 1247 
L 2859 331 
L 3609 331 
L 3609 0 
z
" transform="scale(0.015625)"/>
       </defs>
       <use xlink:href="#DejaVuSerif-2212" transform="translate(0 0.78125)"/>
       <use xlink:href="#DejaVuSerif-34" transform="translate(83.789062 0.78125)"/>
      </g>
     </g>
    </g>
    <g id="xtick_2">
     <g id="line2d_2">
      <g>
       <use xlink:href="#m11f4bea873" x="127.087805" y="365.74" style="fill: #030303; stroke: #030303; stroke-width: 0.8"/>
      </g>
     </g>
     <g id="text_2">
      <!-- $\mathdefault{−2}$ -->
      <g style="fill: #030303" transform="translate(112.287805 387.936875) scale(0.2 -0.2)">
       <defs>
        <path id="DejaVuSerif-32" d="M 819 3553 
L 469 3553 
L 469 4384 
Q 803 4563 1142 4656 
Q 1481 4750 1806 4750 
Q 2534 4750 2956 4397 
Q 3378 4044 3378 3438 
Q 3378 2753 2422 1800 
Q 2347 1728 2309 1691 
L 1131 513 
L 3078 513 
L 3078 1088 
L 3444 1088 
L 3444 0 
L 434 0 
L 434 341 
L 1850 1753 
Q 2319 2222 2519 2614 
Q 2719 3006 2719 3438 
Q 2719 3909 2473 4175 
Q 2228 4441 1797 4441 
Q 1350 4441 1106 4219 
Q 863 3997 819 3553 
z
" transform="scale(0.015625)"/>
       </defs>
       <use xlink:href="#DejaVuSerif-2212" transform="translate(0 0.78125)"/>
       <use xlink:href="#DejaVuSerif-32" transform="translate(83.789062 0.78125)"/>
      </g>
     </g>
    </g>
    <g id="xtick_3">
     <g id="line2d_3">
      <g>
       <use xlink:href="#m11f4bea873" x="219.342647" y="365.74" style="fill: #030303; stroke: #030303; stroke-width: 0.8"/>
      </g>
     </g>
     <g id="text_3">
      <!-- $\mathdefault{0}$ -->
      <g style="fill: #030303" transform="translate(212.942647 387.936875) scale(0.2 -0.2)">
       <defs>
        <path id="DejaVuSerif-30" d="M 2034 219 
Q 2513 219 2750 744 
Q 2988 1269 2988 2328 
Q 2988 3391 2750 3916 
Q 2513 4441 2034 4441 
Q 1556 4441 1318 3916 
Q 1081 3391 1081 2328 
Q 1081 1269 1318 744 
Q 1556 219 2034 219 
z
M 2034 -91 
Q 1275 -91 848 546 
Q 422 1184 422 2328 
Q 422 3475 848 4112 
Q 1275 4750 2034 4750 
Q 2797 4750 3222 4112 
Q 3647 3475 3647 2328 
Q 3647 1184 3222 546 
Q 2797 -91 2034 -91 
z
" transform="scale(0.015625)"/>
       </defs>
       <use xlink:href="#DejaVuSerif-30" transform="translate(0 0.78125)"/>
      </g>
     </g>
    </g>
    <g id="xtick_4">
     <g id="line2d_4">
      <g>
       <use xlink:href="#m11f4bea873" x="311.59749" y="365.74" style="fill: #030303; stroke: #030303; stroke-width: 0.8"/>
      </g>
     </g>
     <g id="text_4">
      <!-- $\mathdefault{2}$ -->
      <g style="fill: #030303" transform="translate(305.19749 387.936875) scale(0.2 -0.2)">
       <use xlink:href="#DejaVuSerif-32" transform="translate(0 0.78125)"/>
      </g>
     </g>
    </g>
    <g id="xtick_5">
     <g id="line2d_5">
      <g>
       <use xlink:href="#m11f4bea873" x="403.852332" y="365.74" style="fill: #030303; stroke: #030303; stroke-width: 0.8"/>
      </g>
     </g>
     <g id="text_5">
      <!-- $\mathdefault{4}$ -->
      <g style="fill: #030303" transform="translate(397.452332 387.936875) scale(0.2 -0.2)">
       <use xlink:href="#DejaVuSerif-34" transform="translate(0 0.78125)"/>
      </g>
     </g>
    </g>
    <g id="xtick_6">
     <g id="line2d_6">
      <g>
       <use xlink:href="#m11f4bea873" x="496.107174" y="365.74" style="fill: #030303; stroke: #030303; stroke-width: 0.8"/>
      </g>
     </g>
     <g id="text_6">
      <!-- $\mathdefault{6}$ -->
      <g style="fill: #030303" transform="translate(489.707174 387.936875) scale(0.2 -0.2)">
       <defs>
        <path id="DejaVuSerif-36" d="M 2094 219 
Q 2534 219 2771 542 
Q 3009 866 3009 1472 
Q 3009 2078 2771 2401 
Q 2534 2725 2094 2725 
Q 1647 2725 1412 2412 
Q 1178 2100 1178 1509 
Q 1178 888 1415 553 
Q 1653 219 2094 219 
z
M 1075 2569 
Q 1288 2803 1556 2918 
Q 1825 3034 2163 3034 
Q 2859 3034 3264 2615 
Q 3669 2197 3669 1472 
Q 3669 763 3233 336 
Q 2797 -91 2069 -91 
Q 1278 -91 853 498 
Q 428 1088 428 2181 
Q 428 3406 931 4078 
Q 1434 4750 2350 4750 
Q 2597 4750 2869 4703 
Q 3141 4656 3425 4563 
L 3425 3794 
L 3072 3794 
Q 3034 4109 2831 4275 
Q 2628 4441 2284 4441 
Q 1678 4441 1381 3981 
Q 1084 3522 1075 2569 
z
" transform="scale(0.015625)"/>
       </defs>
       <use xlink:href="#DejaVuSerif-36" transform="translate(0 0.78125)"/>
      </g>
     </g>
    </g>
    <g id="xtick_7">
     <g id="line2d_7">
      <g>
       <use xlink:href="#m11f4bea873" x="588.362016" y="365.74" style="fill: #030303; stroke: #030303; stroke-width: 0.8"/>
      </g>
     </g>
     <g id="text_7">
      <!-- $\mathdefault{8}$ -->
      <g style="fill: #030303" transform="translate(581.962016 387.936875) scale(0.2 -0.2)">
       <defs>
        <path id="DejaVuSerif-38" d="M 2981 1275 
Q 2981 1775 2732 2051 
Q 2484 2328 2034 2328 
Q 1584 2328 1336 2051 
Q 1088 1775 1088 1275 
Q 1088 772 1336 495 
Q 1584 219 2034 219 
Q 2484 219 2732 495 
Q 2981 772 2981 1275 
z
M 2853 3541 
Q 2853 3966 2637 4203 
Q 2422 4441 2034 4441 
Q 1650 4441 1433 4203 
Q 1216 3966 1216 3541 
Q 1216 3113 1433 2875 
Q 1650 2638 2034 2638 
Q 2422 2638 2637 2875 
Q 2853 3113 2853 3541 
z
M 2516 2484 
Q 3047 2413 3344 2092 
Q 3641 1772 3641 1275 
Q 3641 619 3225 264 
Q 2809 -91 2034 -91 
Q 1263 -91 845 264 
Q 428 619 428 1275 
Q 428 1772 725 2092 
Q 1022 2413 1556 2484 
Q 1084 2569 832 2842 
Q 581 3116 581 3541 
Q 581 4103 968 4426 
Q 1356 4750 2034 4750 
Q 2713 4750 3100 4426 
Q 3488 4103 3488 3541 
Q 3488 3116 3236 2842 
Q 2984 2569 2516 2484 
z
" transform="scale(0.015625)"/>
       </defs>
       <use xlink:href="#DejaVuSerif-38" transform="translate(0 0.78125)"/>
      </g>
     </g>
    </g>
    <g id="text_8">
     <!-- Difference in Means ($\Delta\bar{x}$) -->
     <g style="fill: #030303" transform="translate(157.6 415.852188) scale(0.26 -0.26)">
      <defs>
       <path id="DejaVuSerif-44" d="M 1581 331 
L 2163 331 
Q 3072 331 3558 850 
Q 4044 1369 4044 2338 
Q 4044 3306 3559 3818 
Q 3075 4331 2163 4331 
L 1581 4331 
L 1581 331 
z
M 353 0 
L 353 331 
L 947 331 
L 947 4331 
L 353 4331 
L 353 4666 
L 2209 4666 
Q 3416 4666 4089 4050 
Q 4763 3434 4763 2338 
Q 4763 1238 4088 619 
Q 3413 0 2209 0 
L 353 0 
z
" transform="scale(0.015625)"/>
       <path id="DejaVuSerif-69" d="M 622 4353 
Q 622 4497 726 4603 
Q 831 4709 978 4709 
Q 1122 4709 1226 4603 
Q 1331 4497 1331 4353 
Q 1331 4206 1228 4103 
Q 1125 4000 978 4000 
Q 831 4000 726 4103 
Q 622 4206 622 4353 
z
M 1356 331 
L 1900 331 
L 1900 0 
L 231 0 
L 231 331 
L 781 331 
L 781 2988 
L 231 2988 
L 231 3322 
L 1356 3322 
L 1356 331 
z
" transform="scale(0.015625)"/>
       <path id="DejaVuSerif-66" d="M 2753 4078 
L 2450 4078 
Q 2447 4313 2317 4434 
Q 2188 4556 1941 4556 
Q 1619 4556 1487 4379 
Q 1356 4203 1356 3750 
L 1356 3322 
L 2284 3322 
L 2284 2988 
L 1356 2988 
L 1356 331 
L 2094 331 
L 2094 0 
L 231 0 
L 231 331 
L 781 331 
L 781 2988 
L 231 2988 
L 231 3322 
L 781 3322 
L 781 3738 
Q 781 4294 1070 4578 
Q 1359 4863 1919 4863 
Q 2128 4863 2337 4825 
Q 2547 4788 2753 4709 
L 2753 4078 
z
" transform="scale(0.015625)"/>
       <path id="DejaVuSerif-65" d="M 3469 1600 
L 991 1600 
L 991 1575 
Q 991 903 1244 561 
Q 1497 219 1991 219 
Q 2369 219 2611 417 
Q 2853 616 2950 1006 
L 3413 1006 
Q 3275 459 2904 184 
Q 2534 -91 1931 -91 
Q 1203 -91 761 389 
Q 319 869 319 1663 
Q 319 2450 753 2931 
Q 1188 3413 1894 3413 
Q 2647 3413 3050 2948 
Q 3453 2484 3469 1600 
z
M 2791 1931 
Q 2772 2513 2545 2808 
Q 2319 3103 1894 3103 
Q 1497 3103 1269 2806 
Q 1041 2509 991 1931 
L 2791 1931 
z
" transform="scale(0.015625)"/>
       <path id="DejaVuSerif-72" d="M 3059 3328 
L 3059 2497 
L 2728 2497 
Q 2713 2744 2591 2866 
Q 2469 2988 2234 2988 
Q 1809 2988 1582 2694 
Q 1356 2400 1356 1850 
L 1356 331 
L 2022 331 
L 2022 0 
L 263 0 
L 263 331 
L 781 331 
L 781 2994 
L 231 2994 
L 231 3322 
L 1356 3322 
L 1356 2731 
Q 1525 3078 1790 3245 
Q 2056 3413 2438 3413 
Q 2578 3413 2733 3391 
Q 2888 3369 3059 3328 
z
" transform="scale(0.015625)"/>
       <path id="DejaVuSerif-6e" d="M 263 0 
L 263 331 
L 781 331 
L 781 2988 
L 231 2988 
L 231 3322 
L 1356 3322 
L 1356 2731 
Q 1516 3069 1770 3241 
Q 2025 3413 2363 3413 
Q 2913 3413 3172 3097 
Q 3431 2781 3431 2113 
L 3431 331 
L 3944 331 
L 3944 0 
L 2356 0 
L 2356 331 
L 2853 331 
L 2853 1931 
Q 2853 2541 2703 2767 
Q 2553 2994 2175 2994 
Q 1775 2994 1565 2701 
Q 1356 2409 1356 1850 
L 1356 331 
L 1856 331 
L 1856 0 
L 263 0 
z
" transform="scale(0.015625)"/>
       <path id="DejaVuSerif-63" d="M 3291 997 
Q 3169 466 2822 187 
Q 2475 -91 1925 -91 
Q 1200 -91 759 389 
Q 319 869 319 1663 
Q 319 2459 759 2936 
Q 1200 3413 1925 3413 
Q 2241 3413 2553 3339 
Q 2866 3266 3181 3116 
L 3181 2266 
L 2847 2266 
Q 2781 2703 2561 2903 
Q 2341 3103 1931 3103 
Q 1466 3103 1228 2742 
Q 991 2381 991 1663 
Q 991 944 1227 581 
Q 1463 219 1931 219 
Q 2303 219 2525 412 
Q 2747 606 2828 997 
L 3291 997 
z
" transform="scale(0.015625)"/>
       <path id="DejaVuSerif-20" transform="scale(0.015625)"/>
       <path id="DejaVuSerif-4d" d="M 353 0 
L 353 331 
L 947 331 
L 947 4331 
L 319 4331 
L 319 4666 
L 1678 4666 
L 3316 1344 
L 4953 4666 
L 6228 4666 
L 6228 4331 
L 5606 4331 
L 5606 331 
L 6203 331 
L 6203 0 
L 4378 0 
L 4378 331 
L 4972 331 
L 4972 3938 
L 3372 684 
L 2931 684 
L 1331 3938 
L 1331 331 
L 1925 331 
L 1925 0 
L 353 0 
z
" transform="scale(0.015625)"/>
       <path id="DejaVuSerif-61" d="M 2547 1044 
L 2547 1747 
L 1806 1747 
Q 1378 1747 1168 1562 
Q 959 1378 959 997 
Q 959 650 1171 447 
Q 1384 244 1747 244 
Q 2106 244 2326 466 
Q 2547 688 2547 1044 
z
M 3122 2075 
L 3122 331 
L 3634 331 
L 3634 0 
L 2547 0 
L 2547 359 
Q 2356 128 2106 18 
Q 1856 -91 1522 -91 
Q 969 -91 644 203 
Q 319 497 319 997 
Q 319 1513 691 1797 
Q 1063 2081 1741 2081 
L 2547 2081 
L 2547 2309 
Q 2547 2688 2317 2895 
Q 2088 3103 1672 3103 
Q 1328 3103 1125 2947 
Q 922 2791 872 2484 
L 575 2484 
L 575 3156 
Q 875 3284 1158 3348 
Q 1441 3413 1709 3413 
Q 2400 3413 2761 3070 
Q 3122 2728 3122 2075 
z
" transform="scale(0.015625)"/>
       <path id="DejaVuSerif-73" d="M 359 184 
L 359 959 
L 691 959 
Q 703 588 923 403 
Q 1144 219 1575 219 
Q 1963 219 2166 364 
Q 2369 509 2369 788 
Q 2369 1006 2220 1140 
Q 2072 1275 1594 1428 
L 1178 1569 
Q 750 1706 558 1912 
Q 366 2119 366 2438 
Q 366 2894 700 3153 
Q 1034 3413 1625 3413 
Q 1888 3413 2178 3344 
Q 2469 3275 2778 3144 
L 2778 2419 
L 2447 2419 
Q 2434 2741 2221 2922 
Q 2009 3103 1644 3103 
Q 1281 3103 1095 2975 
Q 909 2847 909 2591 
Q 909 2381 1050 2254 
Q 1191 2128 1613 1997 
L 2069 1856 
Q 2541 1709 2748 1489 
Q 2956 1269 2956 922 
Q 2956 450 2595 179 
Q 2234 -91 1600 -91 
Q 1278 -91 972 -22 
Q 666 47 359 184 
z
" transform="scale(0.015625)"/>
       <path id="DejaVuSerif-28" d="M 2041 -997 
Q 1281 -656 893 83 
Q 506 822 506 1931 
Q 506 3044 893 3783 
Q 1281 4522 2041 4863 
L 2041 4556 
Q 1559 4225 1350 3623 
Q 1141 3022 1141 1931 
Q 1141 844 1350 242 
Q 1559 -359 2041 -691 
L 2041 -997 
z
" transform="scale(0.015625)"/>
       <path id="Cmr10-a2" d="M 347 0 
Q 294 0 294 50 
Q 297 56 298 59 
Q 300 63 300 72 
L 2503 4513 
Q 2531 4581 2619 4581 
L 2706 4581 
Q 2794 4581 2822 4513 
L 5025 72 
Q 5028 66 5029 61 
Q 5031 56 5031 50 
Q 5031 0 4978 0 
L 347 0 
z
M 769 513 
L 4141 513 
L 2456 3909 
L 769 513 
z
" transform="scale(0.015625)"/>
       <path id="Cmr10-b9" d="M 441 3553 
L 441 3775 
L 2753 3775 
L 2753 3553 
L 441 3553 
z
" transform="scale(0.015625)"/>
       <path id="Cmmi10-78" d="M 500 184 
Q 613 97 819 97 
Q 1019 97 1172 289 
Q 1325 481 1381 709 
L 1672 1844 
Q 1741 2153 1741 2266 
Q 1741 2425 1652 2544 
Q 1563 2663 1403 2663 
Q 1200 2663 1022 2536 
Q 844 2409 722 2214 
Q 600 2019 550 1819 
Q 538 1778 500 1778 
L 422 1778 
Q 372 1778 372 1838 
L 372 1856 
Q 434 2094 584 2320 
Q 734 2547 951 2687 
Q 1169 2828 1416 2828 
Q 1650 2828 1839 2703 
Q 2028 2578 2106 2363 
Q 2216 2559 2386 2693 
Q 2556 2828 2759 2828 
Q 2897 2828 3040 2779 
Q 3184 2731 3275 2631 
Q 3366 2531 3366 2381 
Q 3366 2219 3261 2101 
Q 3156 1984 2994 1984 
Q 2891 1984 2822 2050 
Q 2753 2116 2753 2216 
Q 2753 2350 2845 2451 
Q 2938 2553 3066 2572 
Q 2950 2663 2747 2663 
Q 2541 2663 2389 2472 
Q 2238 2281 2175 2047 
L 1894 916 
Q 1825 659 1825 494 
Q 1825 331 1917 214 
Q 2009 97 2163 97 
Q 2463 97 2698 361 
Q 2934 625 3009 941 
Q 3022 978 3059 978 
L 3138 978 
Q 3163 978 3178 961 
Q 3194 944 3194 922 
Q 3194 916 3188 903 
Q 3097 522 2806 225 
Q 2516 -72 2150 -72 
Q 1916 -72 1727 54 
Q 1538 181 1459 397 
Q 1359 209 1182 68 
Q 1006 -72 806 -72 
Q 669 -72 523 -23 
Q 378 25 287 125 
Q 197 225 197 378 
Q 197 528 301 651 
Q 406 775 563 775 
Q 669 775 741 711 
Q 813 647 813 544 
Q 813 409 723 309 
Q 634 209 500 184 
z
" transform="scale(0.015625)"/>
       <path id="DejaVuSerif-29" d="M 453 -997 
L 453 -691 
Q 934 -359 1145 242 
Q 1356 844 1356 1931 
Q 1356 3022 1145 3623 
Q 934 4225 453 4556 
L 453 4863 
Q 1216 4522 1603 3783 
Q 1991 3044 1991 1931 
Q 1991 822 1603 83 
Q 1216 -656 453 -997 
z
" transform="scale(0.015625)"/>
      </defs>
      <use xlink:href="#DejaVuSerif-44" transform="translate(0 0.015625)"/>
      <use xlink:href="#DejaVuSerif-69" transform="translate(80.175781 0.015625)"/>
      <use xlink:href="#DejaVuSerif-66" transform="translate(112.158203 0.015625)"/>
      <use xlink:href="#DejaVuSerif-66" transform="translate(149.169922 0.015625)"/>
      <use xlink:href="#DejaVuSerif-65" transform="translate(186.181641 0.015625)"/>
      <use xlink:href="#DejaVuSerif-72" transform="translate(245.361328 0.015625)"/>
      <use xlink:href="#DejaVuSerif-65" transform="translate(293.164062 0.015625)"/>
      <use xlink:href="#DejaVuSerif-6e" transform="translate(352.34375 0.015625)"/>
      <use xlink:href="#DejaVuSerif-63" transform="translate(416.748047 0.015625)"/>
      <use xlink:href="#DejaVuSerif-65" transform="translate(472.753906 0.015625)"/>
      <use xlink:href="#DejaVuSerif-20" transform="translate(531.933594 0.015625)"/>
      <use xlink:href="#DejaVuSerif-69" transform="translate(563.720703 0.015625)"/>
      <use xlink:href="#DejaVuSerif-6e" transform="translate(595.703125 0.015625)"/>
      <use xlink:href="#DejaVuSerif-20" transform="translate(660.107422 0.015625)"/>
      <use xlink:href="#DejaVuSerif-4d" transform="translate(691.894531 0.015625)"/>
      <use xlink:href="#DejaVuSerif-65" transform="translate(794.287109 0.015625)"/>
      <use xlink:href="#DejaVuSerif-61" transform="translate(853.466797 0.015625)"/>
      <use xlink:href="#DejaVuSerif-6e" transform="translate(913.085938 0.015625)"/>
      <use xlink:href="#DejaVuSerif-73" transform="translate(977.490234 0.015625)"/>
      <use xlink:href="#DejaVuSerif-20" transform="translate(1028.808594 0.015625)"/>
      <use xlink:href="#DejaVuSerif-28" transform="translate(1060.595703 0.015625)"/>
      <use xlink:href="#Cmr10-a2" transform="translate(1099.609375 0.015625)"/>
      <use xlink:href="#Cmr10-b9" transform="translate(1193.289551 1.1875)"/>
      <use xlink:href="#Cmmi10-78" transform="translate(1182.910156 0.015625)"/>
      <use xlink:href="#DejaVuSerif-29" transform="translate(1239.990234 0.015625)"/>
     </g>
    </g>
   </g>
   <g id="matplotlib.axis_2"/>
   <g id="patch_18">
    <path d="M 10.8 365.74 
L 637.2 365.74 
" style="fill: none; stroke: #030303; stroke-width: 1.5; stroke-linejoin: miter; stroke-linecap: square"/>
   </g>
  </g>
  <g id="axes_2">
   <g id="patch_19">
    <path d="M 176.225041 365.74 
L 205.058523 365.74 
L 205.058523 358.370114 
L 176.225041 358.370114 
z
" clip-path="url(#p53e6132a8d)" style="fill: #005587; opacity: 0.6"/>
   </g>
   <g id="patch_20">
    <path d="M 205.058523 365.74 
L 233.892005 365.74 
L 233.892005 335.89196 
L 205.058523 335.89196 
z
" clip-path="url(#p53e6132a8d)" style="fill: #005587; opacity: 0.6"/>
   </g>
   <g id="patch_21">
    <path d="M 233.892005 365.74 
L 262.725487 365.74 
L 262.725487 282.460284 
L 233.892005 282.460284 
z
" clip-path="url(#p53e6132a8d)" style="fill: #005587; opacity: 0.6"/>
   </g>
   <g id="patch_22">
    <path d="M 262.725487 365.74 
L 291.558969 365.74 
L 291.558969 202.128523 
L 262.725487 202.128523 
z
" clip-path="url(#p53e6132a8d)" style="fill: #005587; opacity: 0.6"/>
   </g>
   <g id="patch_23">
    <path d="M 291.558969 365.74 
L 320.392451 365.74 
L 320.392451 98.397373 
L 291.558969 98.397373 
z
" clip-path="url(#p53e6132a8d)" style="fill: #005587; opacity: 0.6"/>
   </g>
   <g id="patch_24">
    <path d="M 320.392451 365.74 
L 349.225933 365.74 
L 349.225933 38.332799 
L 320.392451 38.332799 
z
" clip-path="url(#p53e6132a8d)" style="fill: #005587; opacity: 0.6"/>
   </g>
   <g id="patch_25">
    <path d="M 349.225933 365.74 
L 378.059416 365.74 
L 378.059416 49.571876 
L 349.225933 49.571876 
z
" clip-path="url(#p53e6132a8d)" style="fill: #005587; opacity: 0.6"/>
   </g>
   <g id="patch_26">
    <path d="M 378.059416 365.74 
L 406.892898 365.74 
L 406.892898 93.791194 
L 378.059416 93.791194 
z
" clip-path="url(#p53e6132a8d)" style="fill: #005587; opacity: 0.6"/>
   </g>
   <g id="patch_27">
    <path d="M 406.892898 365.74 
L 435.72638 365.74 
L 435.72638 181.124347 
L 406.892898 181.124347 
z
" clip-path="url(#p53e6132a8d)" style="fill: #005587; opacity: 0.6"/>
   </g>
   <g id="patch_28">
    <path d="M 435.72638 365.74 
L 464.559862 365.74 
L 464.559862 262.561591 
L 435.72638 262.561591 
z
" clip-path="url(#p53e6132a8d)" style="fill: #005587; opacity: 0.6"/>
   </g>
   <g id="patch_29">
    <path d="M 464.559862 365.74 
L 493.393344 365.74 
L 493.393344 306.965156 
L 464.559862 306.965156 
z
" clip-path="url(#p53e6132a8d)" style="fill: #005587; opacity: 0.6"/>
   </g>
   <g id="patch_30">
    <path d="M 493.393344 365.74 
L 522.226826 365.74 
L 522.226826 345.104318 
L 493.393344 345.104318 
z
" clip-path="url(#p53e6132a8d)" style="fill: #005587; opacity: 0.6"/>
   </g>
   <g id="patch_31">
    <path d="M 522.226826 365.74 
L 551.060308 365.74 
L 551.060308 360.212585 
L 522.226826 360.212585 
z
" clip-path="url(#p53e6132a8d)" style="fill: #005587; opacity: 0.6"/>
   </g>
   <g id="patch_32">
    <path d="M 551.060308 365.74 
L 579.893791 365.74 
L 579.893791 363.713281 
L 551.060308 363.713281 
z
" clip-path="url(#p53e6132a8d)" style="fill: #005587; opacity: 0.6"/>
   </g>
   <g id="patch_33">
    <path d="M 579.893791 365.74 
L 608.727273 365.74 
L 608.727273 365.003011 
L 579.893791 365.003011 
z
" clip-path="url(#p53e6132a8d)" style="fill: #005587; opacity: 0.6"/>
   </g>
   <g id="matplotlib.axis_3"/>
   <g id="patch_34">
    <path d="M 10.8 365.74 
L 637.2 365.74 
" style="fill: none; stroke: #030303; stroke-width: 1.5; stroke-linejoin: miter; stroke-linecap: square"/>
   </g>
  </g>
  <g id="axes_3">
   <g id="matplotlib.axis_4"/>
   <g id="patch_35">
    <path d="M 10.8 365.74 
L 637.2 365.74 
" style="fill: none; stroke: #030303; stroke-width: 1.5; stroke-linejoin: miter; stroke-linecap: square"/>
   </g>
   <g id="patch_36">
    <path d="M 219.342647 34.987011 
Q 219.342647 199.36296 219.342647 360.384806 
" style="fill: none; stroke: #dc143c; stroke-width: 3; stroke-linecap: round"/>
    <path d="M 223.342647 352.384806 
L 219.342647 360.384806 
L 215.342647 352.384806 
" style="fill: none; stroke: #dc143c; stroke-width: 3; stroke-linecap: round"/>
   </g>
   <g id="text_9">
    <!-- $H_0$ -->
    <g style="fill: #dc143c" transform="translate(206.842647 26.827225) scale(0.2 -0.2)">
     <defs>
      <path id="Cmmi10-48" d="M 300 0 
Q 238 0 238 84 
Q 241 100 250 139 
Q 259 178 276 201 
Q 294 225 319 225 
Q 709 225 863 269 
Q 947 297 984 441 
L 1863 3956 
Q 1875 4019 1875 4044 
Q 1875 4113 1797 4122 
Q 1678 4147 1338 4147 
Q 1275 4147 1275 4231 
Q 1297 4313 1309 4342 
Q 1322 4372 1381 4372 
L 3103 4372 
Q 3169 4372 3169 4288 
Q 3166 4272 3156 4234 
Q 3147 4197 3131 4172 
Q 3116 4147 3084 4147 
Q 2694 4147 2541 4103 
Q 2456 4072 2419 3928 
L 2034 2388 
L 3956 2388 
L 4347 3956 
Q 4359 4019 4359 4044 
Q 4359 4113 4281 4122 
Q 4159 4147 3822 4147 
Q 3756 4147 3756 4231 
Q 3778 4313 3790 4342 
Q 3803 4372 3866 4372 
L 5588 4372 
Q 5650 4372 5650 4288 
Q 5647 4272 5637 4233 
Q 5628 4194 5611 4170 
Q 5594 4147 5569 4147 
Q 5178 4147 5025 4103 
Q 4941 4075 4903 3928 
L 4025 416 
Q 4013 353 4013 325 
Q 4013 259 4091 250 
Q 4213 225 4550 225 
Q 4616 225 4616 141 
Q 4597 66 4578 33 
Q 4559 0 4506 0 
L 2784 0 
Q 2719 0 2719 84 
Q 2731 131 2737 153 
Q 2744 175 2761 200 
Q 2778 225 2803 225 
Q 3194 225 3347 269 
Q 3431 297 3469 441 
L 3897 2163 
L 1978 2163 
L 1544 416 
Q 1528 338 1528 325 
Q 1528 259 1606 250 
Q 1728 225 2069 225 
Q 2131 225 2131 141 
Q 2109 56 2095 28 
Q 2081 0 2022 0 
L 300 0 
z
" transform="scale(0.015625)"/>
      <path id="Cmr10-30" d="M 1600 -141 
Q 816 -141 533 504 
Q 250 1150 250 2041 
Q 250 2597 351 3087 
Q 453 3578 754 3920 
Q 1056 4263 1600 4263 
Q 2022 4263 2290 4056 
Q 2559 3850 2700 3523 
Q 2841 3197 2892 2823 
Q 2944 2450 2944 2041 
Q 2944 1491 2842 1011 
Q 2741 531 2444 195 
Q 2147 -141 1600 -141 
z
M 1600 25 
Q 1956 25 2131 390 
Q 2306 756 2347 1200 
Q 2388 1644 2388 2144 
Q 2388 2625 2347 3031 
Q 2306 3438 2132 3767 
Q 1959 4097 1600 4097 
Q 1238 4097 1063 3765 
Q 888 3434 847 3029 
Q 806 2625 806 2144 
Q 806 1788 823 1472 
Q 841 1156 916 820 
Q 991 484 1158 254 
Q 1325 25 1600 25 
z
" transform="scale(0.015625)"/>
     </defs>
     <use xlink:href="#Cmmi10-48" transform="translate(0 0.6875)"/>
     <use xlink:href="#Cmr10-30" transform="translate(83.105469 -16.31875) scale(0.7)"/>
    </g>
   </g>
   <g id="patch_37">
    <path d="M 105.17728 281.648246 
Q 105.17728 322.694558 105.17728 360.386769 
" style="fill: none; stroke: #dc143c; stroke-width: 3; stroke-linecap: round"/>
    <path d="M 107.57728 355.586769 
L 105.17728 360.386769 
L 102.77728 355.586769 
" style="fill: none; stroke: #dc143c; stroke-width: 3; stroke-linecap: round"/>
   </g>
   <g id="text_10">
    <!-- $\alpha_{0.05}=-2.47$ -->
    <g style="fill: #dc143c" transform="translate(71.39728 275.151375) scale(0.12 -0.12)">
     <defs>
      <path id="Cmmi10-ae" d="M 1288 -72 
Q 984 -72 748 72 
Q 513 216 384 459 
Q 256 703 256 1013 
Q 256 1447 498 1872 
Q 741 2297 1142 2562 
Q 1544 2828 1984 2828 
Q 2309 2828 2556 2658 
Q 2803 2488 2931 2205 
Q 3059 1922 3059 1600 
L 3066 1172 
Q 3284 1475 3436 1801 
Q 3588 2128 3669 2478 
Q 3681 2516 3719 2516 
L 3794 2516 
Q 3853 2516 3853 2456 
Q 3853 2450 3847 2438 
Q 3772 2144 3659 1873 
Q 3547 1603 3395 1350 
Q 3244 1097 3066 891 
Q 3066 97 3250 97 
Q 3369 97 3445 167 
Q 3522 238 3580 341 
Q 3638 444 3653 447 
L 3731 447 
Q 3781 447 3781 384 
Q 3781 225 3598 76 
Q 3416 -72 3238 -72 
Q 3006 -72 2853 78 
Q 2700 228 2644 469 
Q 2344 213 1994 70 
Q 1644 -72 1288 -72 
z
M 1300 97 
Q 1984 97 2613 659 
Q 2609 697 2603 751 
Q 2597 806 2597 813 
L 2597 1503 
Q 2597 2663 1972 2663 
Q 1597 2663 1315 2342 
Q 1034 2022 892 1576 
Q 750 1131 750 763 
Q 750 484 892 290 
Q 1034 97 1300 97 
z
" transform="scale(0.015625)"/>
      <path id="Cmmi10-3a" d="M 538 353 
Q 538 497 644 600 
Q 750 703 891 703 
Q 978 703 1062 656 
Q 1147 609 1194 525 
Q 1241 441 1241 353 
Q 1241 213 1137 106 
Q 1034 0 891 0 
Q 750 0 644 106 
Q 538 213 538 353 
z
" transform="scale(0.015625)"/>
      <path id="Cmr10-35" d="M 556 728 
Q 622 541 758 387 
Q 894 234 1080 148 
Q 1266 63 1466 63 
Q 1928 63 2103 422 
Q 2278 781 2278 1294 
Q 2278 1516 2270 1667 
Q 2263 1819 2228 1959 
Q 2169 2184 2020 2353 
Q 1872 2522 1656 2522 
Q 1441 2522 1286 2456 
Q 1131 2391 1034 2303 
Q 938 2216 863 2119 
Q 788 2022 769 2016 
L 697 2016 
Q 681 2016 657 2036 
Q 634 2056 634 2075 
L 634 4213 
Q 634 4228 654 4245 
Q 675 4263 697 4263 
L 716 4263 
Q 1147 4056 1631 4056 
Q 2106 4056 2547 4263 
L 2566 4263 
Q 2588 4263 2606 4247 
Q 2625 4231 2625 4213 
L 2625 4153 
Q 2625 4122 2613 4122 
Q 2394 3831 2064 3668 
Q 1734 3506 1381 3506 
Q 1125 3506 856 3578 
L 856 2369 
Q 1069 2541 1236 2614 
Q 1403 2688 1663 2688 
Q 2016 2688 2295 2484 
Q 2575 2281 2725 1954 
Q 2875 1628 2875 1288 
Q 2875 903 2686 575 
Q 2497 247 2172 53 
Q 1847 -141 1466 -141 
Q 1150 -141 886 21 
Q 622 184 470 459 
Q 319 734 319 1044 
Q 319 1188 412 1278 
Q 506 1369 647 1369 
Q 788 1369 883 1276 
Q 978 1184 978 1044 
Q 978 906 883 811 
Q 788 716 647 716 
Q 625 716 597 720 
Q 569 725 556 728 
z
" transform="scale(0.015625)"/>
      <path id="Cmr10-3d" d="M 481 850 
Q 428 850 393 890 
Q 359 931 359 978 
Q 359 1031 393 1068 
Q 428 1106 481 1106 
L 4500 1106 
Q 4547 1106 4581 1068 
Q 4616 1031 4616 978 
Q 4616 931 4581 890 
Q 4547 850 4500 850 
L 481 850 
z
M 481 2094 
Q 428 2094 393 2131 
Q 359 2169 359 2222 
Q 359 2269 393 2309 
Q 428 2350 481 2350 
L 4500 2350 
Q 4547 2350 4581 2309 
Q 4616 2269 4616 2222 
Q 4616 2169 4581 2131 
Q 4547 2094 4500 2094 
L 481 2094 
z
" transform="scale(0.015625)"/>
      <path id="Cmsy10-a1" d="M 653 1472 
Q 600 1472 565 1512 
Q 531 1553 531 1600 
Q 531 1647 565 1687 
Q 600 1728 653 1728 
L 4325 1728 
Q 4375 1728 4408 1687 
Q 4441 1647 4441 1600 
Q 4441 1553 4408 1512 
Q 4375 1472 4325 1472 
L 653 1472 
z
" transform="scale(0.015625)"/>
      <path id="Cmr10-32" d="M 319 0 
L 319 172 
Q 319 188 331 206 
L 1325 1306 
Q 1550 1550 1690 1715 
Q 1831 1881 1968 2097 
Q 2106 2313 2186 2536 
Q 2266 2759 2266 3009 
Q 2266 3272 2169 3511 
Q 2072 3750 1880 3894 
Q 1688 4038 1416 4038 
Q 1138 4038 916 3870 
Q 694 3703 603 3438 
Q 628 3444 672 3444 
Q 816 3444 917 3347 
Q 1019 3250 1019 3097 
Q 1019 2950 917 2848 
Q 816 2747 672 2747 
Q 522 2747 420 2851 
Q 319 2956 319 3097 
Q 319 3338 409 3548 
Q 500 3759 670 3923 
Q 841 4088 1055 4175 
Q 1269 4263 1509 4263 
Q 1875 4263 2190 4108 
Q 2506 3953 2690 3670 
Q 2875 3388 2875 3009 
Q 2875 2731 2753 2481 
Q 2631 2231 2440 2026 
Q 2250 1822 1953 1562 
Q 1656 1303 1563 1216 
L 838 519 
L 1453 519 
Q 1906 519 2211 526 
Q 2516 534 2534 550 
Q 2609 631 2688 1141 
L 2875 1141 
L 2694 0 
L 319 0 
z
" transform="scale(0.015625)"/>
      <path id="Cmr10-34" d="M 178 1056 
L 178 1281 
L 2156 4231 
Q 2178 4263 2222 4263 
L 2316 4263 
Q 2388 4263 2388 4191 
L 2388 1281 
L 3016 1281 
L 3016 1056 
L 2388 1056 
L 2388 428 
Q 2388 297 2575 261 
Q 2763 225 3009 225 
L 3009 0 
L 1247 0 
L 1247 225 
Q 1494 225 1681 261 
Q 1869 297 1869 428 
L 1869 1056 
L 178 1056 
z
M 391 1281 
L 1906 1281 
L 1906 3547 
L 391 1281 
z
" transform="scale(0.015625)"/>
      <path id="Cmr10-37" d="M 1113 166 
Q 1113 522 1175 862 
Q 1238 1203 1358 1536 
Q 1478 1869 1648 2189 
Q 1819 2509 2022 2791 
L 2606 3603 
L 1875 3603 
Q 738 3603 703 3572 
Q 619 3469 544 2981 
L 359 2981 
L 569 4325 
L 756 4325 
L 756 4306 
Q 756 4191 1147 4156 
Q 1538 4122 1913 4122 
L 3103 4122 
L 3103 3956 
Q 3103 3950 3101 3947 
Q 3100 3944 3097 3938 
L 2216 2700 
Q 1891 2219 1809 1631 
Q 1728 1044 1728 166 
Q 1728 41 1637 -50 
Q 1547 -141 1422 -141 
Q 1294 -141 1203 -50 
Q 1113 41 1113 166 
z
" transform="scale(0.015625)"/>
     </defs>
     <use xlink:href="#Cmmi10-ae" transform="translate(0 0.421875)"/>
     <use xlink:href="#Cmr10-30" transform="translate(63.916016 -16.584375) scale(0.7)"/>
     <use xlink:href="#Cmmi10-3a" transform="translate(98.916016 -16.584375) scale(0.7)"/>
     <use xlink:href="#Cmr10-30" transform="translate(118.295898 -16.584375) scale(0.7)"/>
     <use xlink:href="#Cmr10-35" transform="translate(153.295898 -16.584375) scale(0.7)"/>
     <use xlink:href="#Cmr10-3d" transform="translate(212.231836 0.421875)"/>
     <use xlink:href="#Cmsy10-a1" transform="translate(307.475977 0.421875)"/>
     <use xlink:href="#Cmr10-32" transform="translate(385.161523 0.421875)"/>
     <use xlink:href="#Cmmi10-3a" transform="translate(435.161523 0.421875)"/>
     <use xlink:href="#Cmr10-34" transform="translate(462.84707 0.421875)"/>
     <use xlink:href="#Cmr10-37" transform="translate(512.84707 0.421875)"/>
    </g>
   </g>
   <g id="patch_38">
    <path d="M 345.789441 281.648246 
Q 345.789441 322.694558 345.789441 360.386769 
" style="fill: none; stroke: #dc143c; stroke-width: 3; stroke-linecap: round"/>
    <path d="M 348.189441 355.586769 
L 345.789441 360.386769 
L 343.389441 355.586769 
" style="fill: none; stroke: #dc143c; stroke-width: 3; stroke-linecap: round"/>
   </g>
   <g id="text_11">
    <!-- $\alpha_{0.05}=2.74$ -->
    <g style="fill: #dc143c" transform="translate(316.629441 275.151375) scale(0.12 -0.12)">
     <use xlink:href="#Cmmi10-ae" transform="translate(0 0.421875)"/>
     <use xlink:href="#Cmr10-30" transform="translate(63.916016 -16.584375) scale(0.7)"/>
     <use xlink:href="#Cmmi10-3a" transform="translate(98.916016 -16.584375) scale(0.7)"/>
     <use xlink:href="#Cmr10-30" transform="translate(118.295898 -16.584375) scale(0.7)"/>
     <use xlink:href="#Cmr10-35" transform="translate(153.295898 -16.584375) scale(0.7)"/>
     <use xlink:href="#Cmr10-3d" transform="translate(212.231836 0.421875)"/>
     <use xlink:href="#Cmr10-32" transform="translate(307.475977 0.421875)"/>
     <use xlink:href="#Cmmi10-3a" transform="translate(357.475977 0.421875)"/>
     <use xlink:href="#Cmr10-37" transform="translate(385.161523 0.421875)"/>
     <use xlink:href="#Cmr10-34" transform="translate(435.161523 0.421875)"/>
    </g>
   </g>
  </g>
  <g id="axes_4">
   <g id="matplotlib.axis_5"/>
   <g id="patch_39">
    <path d="M 10.8 365.74 
L 637.2 365.74 
" style="fill: none; stroke: #030303; stroke-width: 1.5; stroke-linejoin: miter; stroke-linecap: square"/>
   </g>
   <g id="patch_40">
    <path d="M 355.257094 34.987011 
Q 355.257094 199.36296 355.257094 360.384806 
" style="fill: none; stroke: #005587; stroke-width: 3; stroke-linecap: round"/>
    <path d="M 359.257094 352.384806 
L 355.257094 360.384806 
L 351.257094 352.384806 
" style="fill: none; stroke: #005587; stroke-width: 3; stroke-linecap: round"/>
   </g>
   <g id="text_12">
    <!-- $\Delta\bar{x}=2.95$ -->
    <g style="fill: #005587" transform="translate(312.157094 26.827225) scale(0.2 -0.2)">
     <defs>
      <path id="Cmr10-39" d="M 722 269 
Q 897 63 1331 63 
Q 1575 63 1786 228 
Q 1997 394 2113 634 
Q 2247 906 2284 1214 
Q 2322 1522 2322 1978 
Q 2213 1719 2008 1553 
Q 1803 1388 1538 1388 
Q 1166 1388 873 1589 
Q 581 1791 425 2120 
Q 269 2450 269 2822 
Q 269 3206 444 3539 
Q 619 3872 928 4067 
Q 1238 4263 1631 4263 
Q 2019 4263 2280 4052 
Q 2541 3841 2678 3508 
Q 2816 3175 2870 2803 
Q 2925 2431 2925 2069 
Q 2925 1575 2744 1061 
Q 2563 547 2202 203 
Q 1841 -141 1331 -141 
Q 953 -141 690 37 
Q 428 216 428 575 
Q 428 706 517 795 
Q 606 884 738 884 
Q 866 884 955 795 
Q 1044 706 1044 575 
Q 1044 450 953 359 
Q 863 269 738 269 
L 722 269 
z
M 1563 1556 
Q 1825 1556 1992 1732 
Q 2159 1909 2234 2171 
Q 2309 2434 2309 2694 
L 2309 2816 
L 2309 2841 
Q 2309 3322 2168 3700 
Q 2028 4078 1631 4078 
Q 1378 4078 1220 3967 
Q 1063 3856 988 3672 
Q 913 3488 892 3278 
Q 872 3069 872 2822 
Q 872 2459 906 2203 
Q 941 1947 1094 1751 
Q 1247 1556 1563 1556 
z
" transform="scale(0.015625)"/>
     </defs>
     <use xlink:href="#Cmr10-a2" transform="translate(0 0.421875)"/>
     <use xlink:href="#Cmr10-b9" transform="translate(93.680176 1.59375)"/>
     <use xlink:href="#Cmmi10-78" transform="translate(83.300781 0.421875)"/>
     <use xlink:href="#Cmr10-3d" transform="translate(157.939453 0.421875)"/>
     <use xlink:href="#Cmr10-32" transform="translate(253.183594 0.421875)"/>
     <use xlink:href="#Cmmi10-3a" transform="translate(303.183594 0.421875)"/>
     <use xlink:href="#Cmr10-39" transform="translate(330.869141 0.421875)"/>
     <use xlink:href="#Cmr10-35" transform="translate(380.869141 0.421875)"/>
    </g>
   </g>
  </g>
  <g id="axes_5">
   <g id="matplotlib.axis_6"/>
   <g id="patch_41">
    <path d="M 10.8 365.74 
L 637.2 365.74 
" style="fill: none; stroke: #030303; stroke-width: 1.5; stroke-linejoin: miter; stroke-linecap: square"/>
   </g>
   <g id="patch_42">
    <path d="M 248.98539 281.648246 
Q 248.98539 322.694558 248.98539 360.386769 
" style="fill: none; stroke: #005587; stroke-width: 3; stroke-linecap: round"/>
    <path d="M 251.38539 355.586769 
L 248.98539 360.386769 
L 246.58539 355.586769 
" style="fill: none; stroke: #005587; stroke-width: 3; stroke-linecap: round"/>
   </g>
   <g id="text_13">
    <!-- $\text{CI}_{95\%}=0.64$ -->
    <g style="fill: #005587" transform="translate(216.70539 275.127) scale(0.12 -0.12)">
     <defs>
      <path id="Cmr10-43" d="M 1459 684 
Q 1678 406 2006 245 
Q 2334 84 2688 84 
Q 2984 84 3237 201 
Q 3491 319 3680 528 
Q 3869 738 3970 1003 
Q 4072 1269 4072 1563 
Q 4072 1613 4128 1613 
L 4206 1613 
Q 4256 1613 4256 1550 
Q 4256 1216 4128 905 
Q 4000 594 3765 358 
Q 3531 122 3226 -9 
Q 2922 -141 2591 -141 
Q 2131 -141 1720 45 
Q 1309 231 1004 554 
Q 700 878 529 1303 
Q 359 1728 359 2188 
Q 359 2647 529 3072 
Q 700 3497 1004 3822 
Q 1309 4147 1720 4330 
Q 2131 4513 2591 4513 
Q 2919 4513 3219 4370 
Q 3519 4228 3744 3969 
L 4116 4494 
Q 4153 4513 4159 4513 
L 4206 4513 
Q 4225 4513 4240 4497 
Q 4256 4481 4256 4459 
L 4256 2731 
Q 4256 2675 4206 2675 
L 4091 2675 
Q 4031 2675 4031 2731 
Q 4031 2916 3957 3144 
Q 3884 3372 3770 3576 
Q 3656 3781 3506 3938 
Q 3147 4288 2681 4288 
Q 2328 4288 2004 4128 
Q 1681 3969 1459 3688 
Q 1225 3388 1134 3005 
Q 1044 2622 1044 2188 
Q 1044 1753 1134 1368 
Q 1225 984 1459 684 
z
" transform="scale(0.015625)"/>
      <path id="Cmr10-49" d="M 166 0 
L 166 225 
Q 856 225 856 428 
L 856 3944 
Q 856 4147 166 4147 
L 166 4372 
L 2144 4372 
L 2144 4147 
Q 1453 4147 1453 3944 
L 1453 428 
Q 1453 225 2144 225 
L 2144 0 
L 166 0 
z
" transform="scale(0.015625)"/>
      <path id="Cmr10-25" d="M 891 -231 
Q 891 -194 909 -166 
L 3809 4153 
Q 3425 3938 2963 3938 
Q 2463 3938 2003 4197 
Q 2131 3891 2131 3513 
Q 2131 3306 2082 3086 
Q 2034 2866 1934 2670 
Q 1834 2475 1676 2348 
Q 1519 2222 1306 2222 
Q 1006 2222 790 2422 
Q 575 2622 467 2922 
Q 359 3222 359 3513 
Q 359 3797 467 4098 
Q 575 4400 790 4600 
Q 1006 4800 1306 4800 
Q 1544 4800 1741 4609 
Q 2256 4103 2963 4103 
Q 3341 4103 3669 4270 
Q 3997 4438 4206 4750 
Q 4238 4800 4306 4800 
Q 4363 4800 4398 4765 
Q 4434 4731 4434 4672 
Q 4434 4638 4416 4609 
L 1113 -319 
Q 1084 -359 1019 -359 
Q 966 -359 928 -318 
Q 891 -278 891 -231 
z
M 1306 2388 
Q 1622 2388 1784 2764 
Q 1947 3141 1947 3513 
Q 1947 3722 1880 3989 
Q 1813 4256 1669 4445 
Q 1525 4634 1306 4634 
Q 988 4634 884 4279 
Q 781 3925 781 3506 
Q 781 3103 887 2745 
Q 994 2388 1306 2388 
z
M 4141 -359 
Q 3841 -359 3625 -159 
Q 3409 41 3301 342 
Q 3194 644 3194 934 
Q 3194 1219 3301 1520 
Q 3409 1822 3625 2022 
Q 3841 2222 4141 2222 
Q 4419 2222 4606 2011 
Q 4794 1800 4880 1503 
Q 4966 1206 4966 934 
Q 4966 728 4917 509 
Q 4869 291 4770 92 
Q 4672 -106 4514 -232 
Q 4356 -359 4141 -359 
z
M 4141 -191 
Q 4356 -191 4503 1 
Q 4650 194 4715 459 
Q 4781 725 4781 934 
Q 4781 1303 4618 1678 
Q 4456 2053 4141 2053 
Q 3822 2053 3719 1698 
Q 3616 1344 3616 928 
Q 3616 522 3722 165 
Q 3828 -191 4141 -191 
z
" transform="scale(0.015625)"/>
      <path id="Cmr10-36" d="M 1600 -141 
Q 1203 -141 937 70 
Q 672 281 526 617 
Q 381 953 325 1322 
Q 269 1691 269 2069 
Q 269 2575 466 3084 
Q 663 3594 1045 3928 
Q 1428 4263 1953 4263 
Q 2172 4263 2361 4180 
Q 2550 4097 2658 3936 
Q 2766 3775 2766 3547 
Q 2766 3416 2677 3327 
Q 2588 3238 2456 3238 
Q 2331 3238 2240 3328 
Q 2150 3419 2150 3547 
Q 2150 3672 2240 3762 
Q 2331 3853 2456 3853 
L 2491 3853 
Q 2409 3969 2261 4023 
Q 2113 4078 1953 4078 
Q 1759 4078 1595 3993 
Q 1431 3909 1300 3765 
Q 1169 3622 1081 3448 
Q 994 3275 945 3053 
Q 897 2831 884 2637 
Q 872 2444 872 2150 
Q 984 2413 1190 2580 
Q 1397 2747 1656 2747 
Q 1941 2747 2175 2631 
Q 2409 2516 2578 2311 
Q 2747 2106 2836 1843 
Q 2925 1581 2925 1313 
Q 2925 938 2758 598 
Q 2591 259 2287 59 
Q 1984 -141 1600 -141 
z
M 1600 63 
Q 1847 63 1997 175 
Q 2147 288 2217 473 
Q 2288 659 2305 848 
Q 2322 1038 2322 1313 
Q 2322 1675 2287 1931 
Q 2253 2188 2100 2383 
Q 1947 2578 1631 2578 
Q 1372 2578 1205 2403 
Q 1038 2228 961 1961 
Q 884 1694 884 1447 
Q 884 1363 891 1319 
Q 891 1309 889 1303 
Q 888 1297 884 1288 
Q 884 1013 940 731 
Q 997 450 1156 256 
Q 1316 63 1600 63 
z
" transform="scale(0.015625)"/>
     </defs>
     <use xlink:href="#Cmr10-43" transform="translate(0 0.484375)"/>
     <use xlink:href="#Cmr10-49" transform="translate(72.216797 0.484375)"/>
     <use xlink:href="#Cmr10-39" transform="translate(112.764922 -16.521875) scale(0.7)"/>
     <use xlink:href="#Cmr10-35" transform="translate(147.764922 -16.521875) scale(0.7)"/>
     <use xlink:href="#Cmr10-25" transform="translate(182.764922 -16.521875) scale(0.7)"/>
     <use xlink:href="#Cmr10-3d" transform="translate(265.011406 0.484375)"/>
     <use xlink:href="#Cmr10-30" transform="translate(360.255547 0.484375)"/>
     <use xlink:href="#Cmmi10-3a" transform="translate(410.255547 0.484375)"/>
     <use xlink:href="#Cmr10-36" transform="translate(437.941094 0.484375)"/>
     <use xlink:href="#Cmr10-34" transform="translate(487.941094 0.484375)"/>
    </g>
   </g>
   <g id="patch_43">
    <path d="M 494.446587 281.648246 
Q 494.446587 322.694558 494.446587 360.386769 
" style="fill: none; stroke: #005587; stroke-width: 3; stroke-linecap: round"/>
    <path d="M 496.846587 355.586769 
L 494.446587 360.386769 
L 492.046587 355.586769 
" style="fill: none; stroke: #005587; stroke-width: 3; stroke-linecap: round"/>
   </g>
   <g id="text_14">
    <!-- $\text{CI}_{95\%}=5.96$ -->
    <g style="fill: #005587" transform="translate(462.166587 275.127) scale(0.12 -0.12)">
     <use xlink:href="#Cmr10-43" transform="translate(0 0.484375)"/>
     <use xlink:href="#Cmr10-49" transform="translate(72.216797 0.484375)"/>
     <use xlink:href="#Cmr10-39" transform="translate(112.764922 -16.521875) scale(0.7)"/>
     <use xlink:href="#Cmr10-35" transform="translate(147.764922 -16.521875) scale(0.7)"/>
     <use xlink:href="#Cmr10-25" transform="translate(182.764922 -16.521875) scale(0.7)"/>
     <use xlink:href="#Cmr10-3d" transform="translate(265.011406 0.484375)"/>
     <use xlink:href="#Cmr10-35" transform="translate(360.255547 0.484375)"/>
     <use xlink:href="#Cmmi10-3a" transform="translate(410.255547 0.484375)"/>
     <use xlink:href="#Cmr10-39" transform="translate(437.941094 0.484375)"/>
     <use xlink:href="#Cmr10-36" transform="translate(487.941094 0.484375)"/>
    </g>
   </g>
  </g>
 </g>
 <defs>
  <clipPath id="p53e6132a8d">
   <rect x="10.8" y="13.368" width="626.4" height="352.372"/>
  </clipPath>
 </defs>
</svg>
