<?xml version="1.0" encoding="utf-8" standalone="no"?>
<!DOCTYPE svg PUBLIC "-//W3C//DTD SVG 1.1//EN"
  "http://www.w3.org/Graphics/SVG/1.1/DTD/svg11.dtd">
<svg xmlns:xlink="http://www.w3.org/1999/xlink" width="480pt" height="300pt" viewBox="0 0 480 300" xmlns="http://www.w3.org/2000/svg" version="1.1">
 <metadata>
  <rdf:RDF xmlns:dc="http://purl.org/dc/elements/1.1/" xmlns:cc="http://creativecommons.org/ns#" xmlns:rdf="http://www.w3.org/1999/02/22-rdf-syntax-ns#">
   <cc:Work>
    <dc:type rdf:resource="http://purl.org/dc/dcmitype/StillImage"/>
    <dc:date>2024-02-12T05:14:51.923632</dc:date>
    <dc:format>image/svg+xml</dc:format>
    <dc:creator>
     <cc:Agent>
      <dc:title>Matplotlib v3.8.2, https://matplotlib.org/</dc:title>
     </cc:Agent>
    </dc:creator>
   </cc:Work>
  </rdf:RDF>
 </metadata>
 <defs>
  <style type="text/css">*{stroke-linejoin: round; stroke-linecap: butt}</style>
 </defs>
 <g id="figure_1">
  <g id="patch_1">
   <path d="M 0 300 
L 480 300 
L 480 0 
L 0 0 
L 0 300 
z
" style="fill: none"/>
  </g>
  <g id="axes_1">
   <g id="patch_2">
    <path d="M 60 267 
L 432 267 
L 432 36 
L 60 36 
L 60 267 
z
" style="fill: none"/>
   </g>
   <g id="matplotlib.axis_1">
    <g id="xtick_1">
     <g id="line2d_1">
      <defs>
       <path id="mc38f21530c" d="M 0 0 
L 0 3.5 
" style="stroke: #030303; stroke-width: 0.8"/>
      </defs>
      <g>
       <use xlink:href="#mc38f21530c" x="85.655172" y="267" style="fill: #030303; stroke: #030303; stroke-width: 0.8"/>
      </g>
     </g>
     <g id="text_1">
      <!-- $\mathdefault{2}$ -->
      <g style="fill: #030303" transform="translate(81.815172 283.118125) scale(0.12 -0.12)">
       <defs>
        <path id="DejaVuSerif-32" d="M 819 3553 
L 469 3553 
L 469 4384 
Q 803 4563 1142 4656 
Q 1481 4750 1806 4750 
Q 2534 4750 2956 4397 
Q 3378 4044 3378 3438 
Q 3378 2753 2422 1800 
Q 2347 1728 2309 1691 
L 1131 513 
L 3078 513 
L 3078 1088 
L 3444 1088 
L 3444 0 
L 434 0 
L 434 341 
L 1850 1753 
Q 2319 2222 2519 2614 
Q 2719 3006 2719 3438 
Q 2719 3909 2473 4175 
Q 2228 4441 1797 4441 
Q 1350 4441 1106 4219 
Q 863 3997 819 3553 
z
" transform="scale(0.015625)"/>
       </defs>
       <use xlink:href="#DejaVuSerif-32" transform="translate(0 0.78125)"/>
      </g>
     </g>
    </g>
    <g id="xtick_2">
     <g id="line2d_2">
      <g>
       <use xlink:href="#mc38f21530c" x="111.310345" y="267" style="fill: #030303; stroke: #030303; stroke-width: 0.8"/>
      </g>
     </g>
     <g id="text_2">
      <!-- $\mathdefault{4}$ -->
      <g style="fill: #030303" transform="translate(107.470345 283.118125) scale(0.12 -0.12)">
       <defs>
        <path id="DejaVuSerif-34" d="M 2234 1581 
L 2234 4063 
L 641 1581 
L 2234 1581 
z
M 3609 0 
L 1484 0 
L 1484 331 
L 2234 331 
L 2234 1247 
L 197 1247 
L 197 1588 
L 2241 4750 
L 2859 4750 
L 2859 1581 
L 3750 1581 
L 3750 1247 
L 2859 1247 
L 2859 331 
L 3609 331 
L 3609 0 
z
" transform="scale(0.015625)"/>
       </defs>
       <use xlink:href="#DejaVuSerif-34" transform="translate(0 0.78125)"/>
      </g>
     </g>
    </g>
    <g id="xtick_3">
     <g id="line2d_3">
      <g>
       <use xlink:href="#mc38f21530c" x="136.965517" y="267" style="fill: #030303; stroke: #030303; stroke-width: 0.8"/>
      </g>
     </g>
     <g id="text_3">
      <!-- $\mathdefault{6}$ -->
      <g style="fill: #030303" transform="translate(133.125517 283.118125) scale(0.12 -0.12)">
       <defs>
        <path id="DejaVuSerif-36" d="M 2094 219 
Q 2534 219 2771 542 
Q 3009 866 3009 1472 
Q 3009 2078 2771 2401 
Q 2534 2725 2094 2725 
Q 1647 2725 1412 2412 
Q 1178 2100 1178 1509 
Q 1178 888 1415 553 
Q 1653 219 2094 219 
z
M 1075 2569 
Q 1288 2803 1556 2918 
Q 1825 3034 2163 3034 
Q 2859 3034 3264 2615 
Q 3669 2197 3669 1472 
Q 3669 763 3233 336 
Q 2797 -91 2069 -91 
Q 1278 -91 853 498 
Q 428 1088 428 2181 
Q 428 3406 931 4078 
Q 1434 4750 2350 4750 
Q 2597 4750 2869 4703 
Q 3141 4656 3425 4563 
L 3425 3794 
L 3072 3794 
Q 3034 4109 2831 4275 
Q 2628 4441 2284 4441 
Q 1678 4441 1381 3981 
Q 1084 3522 1075 2569 
z
" transform="scale(0.015625)"/>
       </defs>
       <use xlink:href="#DejaVuSerif-36" transform="translate(0 0.78125)"/>
      </g>
     </g>
    </g>
    <g id="xtick_4">
     <g id="line2d_4">
      <g>
       <use xlink:href="#mc38f21530c" x="162.62069" y="267" style="fill: #030303; stroke: #030303; stroke-width: 0.8"/>
      </g>
     </g>
     <g id="text_4">
      <!-- $\mathdefault{8}$ -->
      <g style="fill: #030303" transform="translate(158.78069 283.118125) scale(0.12 -0.12)">
       <defs>
        <path id="DejaVuSerif-38" d="M 2981 1275 
Q 2981 1775 2732 2051 
Q 2484 2328 2034 2328 
Q 1584 2328 1336 2051 
Q 1088 1775 1088 1275 
Q 1088 772 1336 495 
Q 1584 219 2034 219 
Q 2484 219 2732 495 
Q 2981 772 2981 1275 
z
M 2853 3541 
Q 2853 3966 2637 4203 
Q 2422 4441 2034 4441 
Q 1650 4441 1433 4203 
Q 1216 3966 1216 3541 
Q 1216 3113 1433 2875 
Q 1650 2638 2034 2638 
Q 2422 2638 2637 2875 
Q 2853 3113 2853 3541 
z
M 2516 2484 
Q 3047 2413 3344 2092 
Q 3641 1772 3641 1275 
Q 3641 619 3225 264 
Q 2809 -91 2034 -91 
Q 1263 -91 845 264 
Q 428 619 428 1275 
Q 428 1772 725 2092 
Q 1022 2413 1556 2484 
Q 1084 2569 832 2842 
Q 581 3116 581 3541 
Q 581 4103 968 4426 
Q 1356 4750 2034 4750 
Q 2713 4750 3100 4426 
Q 3488 4103 3488 3541 
Q 3488 3116 3236 2842 
Q 2984 2569 2516 2484 
z
" transform="scale(0.015625)"/>
       </defs>
       <use xlink:href="#DejaVuSerif-38" transform="translate(0 0.78125)"/>
      </g>
     </g>
    </g>
    <g id="xtick_5">
     <g id="line2d_5">
      <g>
       <use xlink:href="#mc38f21530c" x="188.275862" y="267" style="fill: #030303; stroke: #030303; stroke-width: 0.8"/>
      </g>
     </g>
     <g id="text_5">
      <!-- $\mathdefault{10}$ -->
      <g style="fill: #030303" transform="translate(180.595862 283.118125) scale(0.12 -0.12)">
       <defs>
        <path id="DejaVuSerif-31" d="M 909 0 
L 909 331 
L 1722 331 
L 1722 4213 
L 781 3603 
L 781 4013 
L 1919 4750 
L 2350 4750 
L 2350 331 
L 3163 331 
L 3163 0 
L 909 0 
z
" transform="scale(0.015625)"/>
        <path id="DejaVuSerif-30" d="M 2034 219 
Q 2513 219 2750 744 
Q 2988 1269 2988 2328 
Q 2988 3391 2750 3916 
Q 2513 4441 2034 4441 
Q 1556 4441 1318 3916 
Q 1081 3391 1081 2328 
Q 1081 1269 1318 744 
Q 1556 219 2034 219 
z
M 2034 -91 
Q 1275 -91 848 546 
Q 422 1184 422 2328 
Q 422 3475 848 4112 
Q 1275 4750 2034 4750 
Q 2797 4750 3222 4112 
Q 3647 3475 3647 2328 
Q 3647 1184 3222 546 
Q 2797 -91 2034 -91 
z
" transform="scale(0.015625)"/>
       </defs>
       <use xlink:href="#DejaVuSerif-31" transform="translate(0 0.78125)"/>
       <use xlink:href="#DejaVuSerif-30" transform="translate(63.623047 0.78125)"/>
      </g>
     </g>
    </g>
    <g id="xtick_6">
     <g id="line2d_6">
      <g>
       <use xlink:href="#mc38f21530c" x="213.931034" y="267" style="fill: #030303; stroke: #030303; stroke-width: 0.8"/>
      </g>
     </g>
     <g id="text_6">
      <!-- $\mathdefault{12}$ -->
      <g style="fill: #030303" transform="translate(206.251034 283.118125) scale(0.12 -0.12)">
       <use xlink:href="#DejaVuSerif-31" transform="translate(0 0.78125)"/>
       <use xlink:href="#DejaVuSerif-32" transform="translate(63.623047 0.78125)"/>
      </g>
     </g>
    </g>
    <g id="xtick_7">
     <g id="line2d_7">
      <g>
       <use xlink:href="#mc38f21530c" x="239.586207" y="267" style="fill: #030303; stroke: #030303; stroke-width: 0.8"/>
      </g>
     </g>
     <g id="text_7">
      <!-- $\mathdefault{14}$ -->
      <g style="fill: #030303" transform="translate(231.906207 283.118125) scale(0.12 -0.12)">
       <use xlink:href="#DejaVuSerif-31" transform="translate(0 0.78125)"/>
       <use xlink:href="#DejaVuSerif-34" transform="translate(63.623047 0.78125)"/>
      </g>
     </g>
    </g>
    <g id="xtick_8">
     <g id="line2d_8">
      <g>
       <use xlink:href="#mc38f21530c" x="265.241379" y="267" style="fill: #030303; stroke: #030303; stroke-width: 0.8"/>
      </g>
     </g>
     <g id="text_8">
      <!-- $\mathdefault{16}$ -->
      <g style="fill: #030303" transform="translate(257.561379 283.118125) scale(0.12 -0.12)">
       <use xlink:href="#DejaVuSerif-31" transform="translate(0 0.78125)"/>
       <use xlink:href="#DejaVuSerif-36" transform="translate(63.623047 0.78125)"/>
      </g>
     </g>
    </g>
    <g id="xtick_9">
     <g id="line2d_9">
      <g>
       <use xlink:href="#mc38f21530c" x="290.896552" y="267" style="fill: #030303; stroke: #030303; stroke-width: 0.8"/>
      </g>
     </g>
     <g id="text_9">
      <!-- $\mathdefault{18}$ -->
      <g style="fill: #030303" transform="translate(283.216552 283.118125) scale(0.12 -0.12)">
       <use xlink:href="#DejaVuSerif-31" transform="translate(0 0.78125)"/>
       <use xlink:href="#DejaVuSerif-38" transform="translate(63.623047 0.78125)"/>
      </g>
     </g>
    </g>
    <g id="xtick_10">
     <g id="line2d_10">
      <g>
       <use xlink:href="#mc38f21530c" x="316.551724" y="267" style="fill: #030303; stroke: #030303; stroke-width: 0.8"/>
      </g>
     </g>
     <g id="text_10">
      <!-- $\mathdefault{20}$ -->
      <g style="fill: #030303" transform="translate(308.871724 283.118125) scale(0.12 -0.12)">
       <use xlink:href="#DejaVuSerif-32" transform="translate(0 0.78125)"/>
       <use xlink:href="#DejaVuSerif-30" transform="translate(63.623047 0.78125)"/>
      </g>
     </g>
    </g>
    <g id="xtick_11">
     <g id="line2d_11">
      <g>
       <use xlink:href="#mc38f21530c" x="342.206897" y="267" style="fill: #030303; stroke: #030303; stroke-width: 0.8"/>
      </g>
     </g>
     <g id="text_11">
      <!-- $\mathdefault{22}$ -->
      <g style="fill: #030303" transform="translate(334.526897 283.118125) scale(0.12 -0.12)">
       <use xlink:href="#DejaVuSerif-32" transform="translate(0 0.78125)"/>
       <use xlink:href="#DejaVuSerif-32" transform="translate(63.623047 0.78125)"/>
      </g>
     </g>
    </g>
    <g id="xtick_12">
     <g id="line2d_12">
      <g>
       <use xlink:href="#mc38f21530c" x="367.862069" y="267" style="fill: #030303; stroke: #030303; stroke-width: 0.8"/>
      </g>
     </g>
     <g id="text_12">
      <!-- $\mathdefault{24}$ -->
      <g style="fill: #030303" transform="translate(360.182069 283.118125) scale(0.12 -0.12)">
       <use xlink:href="#DejaVuSerif-32" transform="translate(0 0.78125)"/>
       <use xlink:href="#DejaVuSerif-34" transform="translate(63.623047 0.78125)"/>
      </g>
     </g>
    </g>
    <g id="xtick_13">
     <g id="line2d_13">
      <g>
       <use xlink:href="#mc38f21530c" x="393.517241" y="267" style="fill: #030303; stroke: #030303; stroke-width: 0.8"/>
      </g>
     </g>
     <g id="text_13">
      <!-- $\mathdefault{26}$ -->
      <g style="fill: #030303" transform="translate(385.837241 283.118125) scale(0.12 -0.12)">
       <use xlink:href="#DejaVuSerif-32" transform="translate(0 0.78125)"/>
       <use xlink:href="#DejaVuSerif-36" transform="translate(63.623047 0.78125)"/>
      </g>
     </g>
    </g>
    <g id="text_14">
     <!-- Number of Heads -->
     <g style="fill: #030303" transform="translate(165.012656 303.290937) scale(0.18 -0.18)">
      <defs>
       <path id="DejaVuSerif-4e" d="M 313 0 
L 313 331 
L 941 331 
L 941 4331 
L 313 4331 
L 313 4666 
L 1509 4666 
L 4306 984 
L 4306 4331 
L 3681 4331 
L 3681 4666 
L 5319 4666 
L 5319 4331 
L 4691 4331 
L 4691 -91 
L 4313 -91 
L 1325 3841 
L 1325 331 
L 1953 331 
L 1953 0 
L 313 0 
z
" transform="scale(0.015625)"/>
       <path id="DejaVuSerif-75" d="M 2266 3322 
L 3341 3322 
L 3341 331 
L 3884 331 
L 3884 0 
L 2766 0 
L 2766 588 
Q 2606 256 2353 82 
Q 2100 -91 1766 -91 
Q 1213 -91 952 223 
Q 691 538 691 1209 
L 691 2988 
L 172 2988 
L 172 3322 
L 1269 3322 
L 1269 1388 
Q 1269 781 1417 556 
Q 1566 331 1947 331 
Q 2347 331 2556 625 
Q 2766 919 2766 1478 
L 2766 2988 
L 2266 2988 
L 2266 3322 
z
" transform="scale(0.015625)"/>
       <path id="DejaVuSerif-6d" d="M 3316 2675 
Q 3481 3041 3739 3227 
Q 3997 3413 4341 3413 
Q 4863 3413 5119 3089 
Q 5375 2766 5375 2113 
L 5375 331 
L 5894 331 
L 5894 0 
L 4300 0 
L 4300 331 
L 4800 331 
L 4800 2047 
Q 4800 2556 4650 2772 
Q 4500 2988 4153 2988 
Q 3769 2988 3567 2697 
Q 3366 2406 3366 1850 
L 3366 331 
L 3866 331 
L 3866 0 
L 2291 0 
L 2291 331 
L 2791 331 
L 2791 2069 
Q 2791 2566 2641 2777 
Q 2491 2988 2144 2988 
Q 1759 2988 1557 2697 
Q 1356 2406 1356 1850 
L 1356 331 
L 1856 331 
L 1856 0 
L 263 0 
L 263 331 
L 781 331 
L 781 2994 
L 231 2994 
L 231 3322 
L 1356 3322 
L 1356 2731 
Q 1516 3063 1762 3238 
Q 2009 3413 2322 3413 
Q 2709 3413 2968 3220 
Q 3228 3028 3316 2675 
z
" transform="scale(0.015625)"/>
       <path id="DejaVuSerif-62" d="M 738 331 
L 738 4531 
L 184 4531 
L 184 4863 
L 1313 4863 
L 1313 2803 
Q 1481 3116 1742 3264 
Q 2003 3413 2388 3413 
Q 3000 3413 3387 2928 
Q 3775 2444 3775 1663 
Q 3775 881 3387 395 
Q 3000 -91 2388 -91 
Q 2003 -91 1742 57 
Q 1481 206 1313 519 
L 1313 0 
L 184 0 
L 184 331 
L 738 331 
z
M 1313 1497 
Q 1313 897 1542 583 
Q 1772 269 2209 269 
Q 2650 269 2876 622 
Q 3103 975 3103 1663 
Q 3103 2353 2876 2703 
Q 2650 3053 2209 3053 
Q 1772 3053 1542 2737 
Q 1313 2422 1313 1825 
L 1313 1497 
z
" transform="scale(0.015625)"/>
       <path id="DejaVuSerif-65" d="M 3469 1600 
L 991 1600 
L 991 1575 
Q 991 903 1244 561 
Q 1497 219 1991 219 
Q 2369 219 2611 417 
Q 2853 616 2950 1006 
L 3413 1006 
Q 3275 459 2904 184 
Q 2534 -91 1931 -91 
Q 1203 -91 761 389 
Q 319 869 319 1663 
Q 319 2450 753 2931 
Q 1188 3413 1894 3413 
Q 2647 3413 3050 2948 
Q 3453 2484 3469 1600 
z
M 2791 1931 
Q 2772 2513 2545 2808 
Q 2319 3103 1894 3103 
Q 1497 3103 1269 2806 
Q 1041 2509 991 1931 
L 2791 1931 
z
" transform="scale(0.015625)"/>
       <path id="DejaVuSerif-72" d="M 3059 3328 
L 3059 2497 
L 2728 2497 
Q 2713 2744 2591 2866 
Q 2469 2988 2234 2988 
Q 1809 2988 1582 2694 
Q 1356 2400 1356 1850 
L 1356 331 
L 2022 331 
L 2022 0 
L 263 0 
L 263 331 
L 781 331 
L 781 2994 
L 231 2994 
L 231 3322 
L 1356 3322 
L 1356 2731 
Q 1525 3078 1790 3245 
Q 2056 3413 2438 3413 
Q 2578 3413 2733 3391 
Q 2888 3369 3059 3328 
z
" transform="scale(0.015625)"/>
       <path id="DejaVuSerif-20" transform="scale(0.015625)"/>
       <path id="DejaVuSerif-6f" d="M 1925 219 
Q 2388 219 2623 584 
Q 2859 950 2859 1663 
Q 2859 2375 2623 2739 
Q 2388 3103 1925 3103 
Q 1463 3103 1227 2739 
Q 991 2375 991 1663 
Q 991 950 1228 584 
Q 1466 219 1925 219 
z
M 1925 -91 
Q 1200 -91 759 389 
Q 319 869 319 1663 
Q 319 2456 758 2934 
Q 1197 3413 1925 3413 
Q 2653 3413 3092 2934 
Q 3531 2456 3531 1663 
Q 3531 869 3092 389 
Q 2653 -91 1925 -91 
z
" transform="scale(0.015625)"/>
       <path id="DejaVuSerif-66" d="M 2753 4078 
L 2450 4078 
Q 2447 4313 2317 4434 
Q 2188 4556 1941 4556 
Q 1619 4556 1487 4379 
Q 1356 4203 1356 3750 
L 1356 3322 
L 2284 3322 
L 2284 2988 
L 1356 2988 
L 1356 331 
L 2094 331 
L 2094 0 
L 231 0 
L 231 331 
L 781 331 
L 781 2988 
L 231 2988 
L 231 3322 
L 781 3322 
L 781 3738 
Q 781 4294 1070 4578 
Q 1359 4863 1919 4863 
Q 2128 4863 2337 4825 
Q 2547 4788 2753 4709 
L 2753 4078 
z
" transform="scale(0.015625)"/>
       <path id="DejaVuSerif-48" d="M 353 0 
L 353 331 
L 947 331 
L 947 4331 
L 353 4331 
L 353 4666 
L 2175 4666 
L 2175 4331 
L 1581 4331 
L 1581 2719 
L 4000 2719 
L 4000 4331 
L 3406 4331 
L 3406 4666 
L 5228 4666 
L 5228 4331 
L 4634 4331 
L 4634 331 
L 5228 331 
L 5228 0 
L 3406 0 
L 3406 331 
L 4000 331 
L 4000 2338 
L 1581 2338 
L 1581 331 
L 2175 331 
L 2175 0 
L 353 0 
z
" transform="scale(0.015625)"/>
       <path id="DejaVuSerif-61" d="M 2547 1044 
L 2547 1747 
L 1806 1747 
Q 1378 1747 1168 1562 
Q 959 1378 959 997 
Q 959 650 1171 447 
Q 1384 244 1747 244 
Q 2106 244 2326 466 
Q 2547 688 2547 1044 
z
M 3122 2075 
L 3122 331 
L 3634 331 
L 3634 0 
L 2547 0 
L 2547 359 
Q 2356 128 2106 18 
Q 1856 -91 1522 -91 
Q 969 -91 644 203 
Q 319 497 319 997 
Q 319 1513 691 1797 
Q 1063 2081 1741 2081 
L 2547 2081 
L 2547 2309 
Q 2547 2688 2317 2895 
Q 2088 3103 1672 3103 
Q 1328 3103 1125 2947 
Q 922 2791 872 2484 
L 575 2484 
L 575 3156 
Q 875 3284 1158 3348 
Q 1441 3413 1709 3413 
Q 2400 3413 2761 3070 
Q 3122 2728 3122 2075 
z
" transform="scale(0.015625)"/>
       <path id="DejaVuSerif-64" d="M 3359 331 
L 3909 331 
L 3909 0 
L 2784 0 
L 2784 519 
Q 2616 206 2355 57 
Q 2094 -91 1709 -91 
Q 1097 -91 708 395 
Q 319 881 319 1663 
Q 319 2444 706 2928 
Q 1094 3413 1709 3413 
Q 2094 3413 2355 3264 
Q 2616 3116 2784 2803 
L 2784 4531 
L 2241 4531 
L 2241 4863 
L 3359 4863 
L 3359 331 
z
M 2784 1497 
L 2784 1825 
Q 2784 2422 2554 2737 
Q 2325 3053 1888 3053 
Q 1444 3053 1217 2703 
Q 991 2353 991 1663 
Q 991 975 1217 622 
Q 1444 269 1888 269 
Q 2325 269 2554 583 
Q 2784 897 2784 1497 
z
" transform="scale(0.015625)"/>
       <path id="DejaVuSerif-73" d="M 359 184 
L 359 959 
L 691 959 
Q 703 588 923 403 
Q 1144 219 1575 219 
Q 1963 219 2166 364 
Q 2369 509 2369 788 
Q 2369 1006 2220 1140 
Q 2072 1275 1594 1428 
L 1178 1569 
Q 750 1706 558 1912 
Q 366 2119 366 2438 
Q 366 2894 700 3153 
Q 1034 3413 1625 3413 
Q 1888 3413 2178 3344 
Q 2469 3275 2778 3144 
L 2778 2419 
L 2447 2419 
Q 2434 2741 2221 2922 
Q 2009 3103 1644 3103 
Q 1281 3103 1095 2975 
Q 909 2847 909 2591 
Q 909 2381 1050 2254 
Q 1191 2128 1613 1997 
L 2069 1856 
Q 2541 1709 2748 1489 
Q 2956 1269 2956 922 
Q 2956 450 2595 179 
Q 2234 -91 1600 -91 
Q 1278 -91 972 -22 
Q 666 47 359 184 
z
" transform="scale(0.015625)"/>
      </defs>
      <use xlink:href="#DejaVuSerif-4e"/>
      <use xlink:href="#DejaVuSerif-75" x="87.5"/>
      <use xlink:href="#DejaVuSerif-6d" x="151.904297"/>
      <use xlink:href="#DejaVuSerif-62" x="246.728516"/>
      <use xlink:href="#DejaVuSerif-65" x="310.742188"/>
      <use xlink:href="#DejaVuSerif-72" x="369.921875"/>
      <use xlink:href="#DejaVuSerif-20" x="417.724609"/>
      <use xlink:href="#DejaVuSerif-6f" x="449.511719"/>
      <use xlink:href="#DejaVuSerif-66" x="509.716797"/>
      <use xlink:href="#DejaVuSerif-20" x="546.728516"/>
      <use xlink:href="#DejaVuSerif-48" x="578.515625"/>
      <use xlink:href="#DejaVuSerif-65" x="665.722656"/>
      <use xlink:href="#DejaVuSerif-61" x="724.902344"/>
      <use xlink:href="#DejaVuSerif-64" x="784.521484"/>
      <use xlink:href="#DejaVuSerif-73" x="848.535156"/>
     </g>
    </g>
   </g>
   <g id="matplotlib.axis_2">
    <g id="ytick_1">
     <g id="line2d_14">
      <defs>
       <path id="m6accbf22b7" d="M 0 0 
L -3.5 0 
" style="stroke: #030303; stroke-width: 0.8"/>
      </defs>
      <g>
       <use xlink:href="#m6accbf22b7" x="60" y="267" style="fill: #030303; stroke: #030303; stroke-width: 0.8"/>
      </g>
     </g>
     <g id="text_15">
      <!-- $\mathdefault{0.00}$ -->
      <g style="fill: #030303" transform="translate(26.24 271.559062) scale(0.12 -0.12)">
       <defs>
        <path id="DejaVuSerif-2e" d="M 603 325 
Q 603 500 722 622 
Q 841 744 1019 744 
Q 1191 744 1312 622 
Q 1434 500 1434 325 
Q 1434 153 1312 31 
Q 1191 -91 1019 -91 
Q 841 -91 722 29 
Q 603 150 603 325 
z
" transform="scale(0.015625)"/>
       </defs>
       <use xlink:href="#DejaVuSerif-30" transform="translate(0 0.78125)"/>
       <use xlink:href="#DejaVuSerif-2e" transform="translate(63.623047 0.78125)"/>
       <use xlink:href="#DejaVuSerif-30" transform="translate(95.410156 0.78125)"/>
       <use xlink:href="#DejaVuSerif-30" transform="translate(159.033203 0.78125)"/>
      </g>
     </g>
    </g>
    <g id="ytick_2">
     <g id="line2d_15">
      <g>
       <use xlink:href="#m6accbf22b7" x="60" y="237.557923" style="fill: #030303; stroke: #030303; stroke-width: 0.8"/>
      </g>
     </g>
     <g id="text_16">
      <!-- $\mathdefault{0.02}$ -->
      <g style="fill: #030303" transform="translate(26.24 242.116986) scale(0.12 -0.12)">
       <use xlink:href="#DejaVuSerif-30" transform="translate(0 0.78125)"/>
       <use xlink:href="#DejaVuSerif-2e" transform="translate(63.623047 0.78125)"/>
       <use xlink:href="#DejaVuSerif-30" transform="translate(95.410156 0.78125)"/>
       <use xlink:href="#DejaVuSerif-32" transform="translate(159.033203 0.78125)"/>
      </g>
     </g>
    </g>
    <g id="ytick_3">
     <g id="line2d_16">
      <g>
       <use xlink:href="#m6accbf22b7" x="60" y="208.115847" style="fill: #030303; stroke: #030303; stroke-width: 0.8"/>
      </g>
     </g>
     <g id="text_17">
      <!-- $\mathdefault{0.04}$ -->
      <g style="fill: #030303" transform="translate(26.24 212.674909) scale(0.12 -0.12)">
       <use xlink:href="#DejaVuSerif-30" transform="translate(0 0.78125)"/>
       <use xlink:href="#DejaVuSerif-2e" transform="translate(63.623047 0.78125)"/>
       <use xlink:href="#DejaVuSerif-30" transform="translate(95.410156 0.78125)"/>
       <use xlink:href="#DejaVuSerif-34" transform="translate(159.033203 0.78125)"/>
      </g>
     </g>
    </g>
    <g id="ytick_4">
     <g id="line2d_17">
      <g>
       <use xlink:href="#m6accbf22b7" x="60" y="178.67377" style="fill: #030303; stroke: #030303; stroke-width: 0.8"/>
      </g>
     </g>
     <g id="text_18">
      <!-- $\mathdefault{0.06}$ -->
      <g style="fill: #030303" transform="translate(26.24 183.232833) scale(0.12 -0.12)">
       <use xlink:href="#DejaVuSerif-30" transform="translate(0 0.78125)"/>
       <use xlink:href="#DejaVuSerif-2e" transform="translate(63.623047 0.78125)"/>
       <use xlink:href="#DejaVuSerif-30" transform="translate(95.410156 0.78125)"/>
       <use xlink:href="#DejaVuSerif-36" transform="translate(159.033203 0.78125)"/>
      </g>
     </g>
    </g>
    <g id="ytick_5">
     <g id="line2d_18">
      <g>
       <use xlink:href="#m6accbf22b7" x="60" y="149.231694" style="fill: #030303; stroke: #030303; stroke-width: 0.8"/>
      </g>
     </g>
     <g id="text_19">
      <!-- $\mathdefault{0.08}$ -->
      <g style="fill: #030303" transform="translate(26.24 153.790756) scale(0.12 -0.12)">
       <use xlink:href="#DejaVuSerif-30" transform="translate(0 0.78125)"/>
       <use xlink:href="#DejaVuSerif-2e" transform="translate(63.623047 0.78125)"/>
       <use xlink:href="#DejaVuSerif-30" transform="translate(95.410156 0.78125)"/>
       <use xlink:href="#DejaVuSerif-38" transform="translate(159.033203 0.78125)"/>
      </g>
     </g>
    </g>
    <g id="ytick_6">
     <g id="line2d_19">
      <g>
       <use xlink:href="#m6accbf22b7" x="60" y="119.789617" style="fill: #030303; stroke: #030303; stroke-width: 0.8"/>
      </g>
     </g>
     <g id="text_20">
      <!-- $\mathdefault{0.10}$ -->
      <g style="fill: #030303" transform="translate(26.24 124.34868) scale(0.12 -0.12)">
       <use xlink:href="#DejaVuSerif-30" transform="translate(0 0.78125)"/>
       <use xlink:href="#DejaVuSerif-2e" transform="translate(63.623047 0.78125)"/>
       <use xlink:href="#DejaVuSerif-31" transform="translate(95.410156 0.78125)"/>
       <use xlink:href="#DejaVuSerif-30" transform="translate(159.033203 0.78125)"/>
      </g>
     </g>
    </g>
    <g id="ytick_7">
     <g id="line2d_20">
      <g>
       <use xlink:href="#m6accbf22b7" x="60" y="90.347541" style="fill: #030303; stroke: #030303; stroke-width: 0.8"/>
      </g>
     </g>
     <g id="text_21">
      <!-- $\mathdefault{0.12}$ -->
      <g style="fill: #030303" transform="translate(26.24 94.906603) scale(0.12 -0.12)">
       <use xlink:href="#DejaVuSerif-30" transform="translate(0 0.78125)"/>
       <use xlink:href="#DejaVuSerif-2e" transform="translate(63.623047 0.78125)"/>
       <use xlink:href="#DejaVuSerif-31" transform="translate(95.410156 0.78125)"/>
       <use xlink:href="#DejaVuSerif-32" transform="translate(159.033203 0.78125)"/>
      </g>
     </g>
    </g>
    <g id="ytick_8">
     <g id="line2d_21">
      <g>
       <use xlink:href="#m6accbf22b7" x="60" y="60.905464" style="fill: #030303; stroke: #030303; stroke-width: 0.8"/>
      </g>
     </g>
     <g id="text_22">
      <!-- $\mathdefault{0.14}$ -->
      <g style="fill: #030303" transform="translate(26.24 65.464527) scale(0.12 -0.12)">
       <use xlink:href="#DejaVuSerif-30" transform="translate(0 0.78125)"/>
       <use xlink:href="#DejaVuSerif-2e" transform="translate(63.623047 0.78125)"/>
       <use xlink:href="#DejaVuSerif-31" transform="translate(95.410156 0.78125)"/>
       <use xlink:href="#DejaVuSerif-34" transform="translate(159.033203 0.78125)"/>
      </g>
     </g>
    </g>
    <g id="text_23">
     <!-- Probability -->
     <g style="fill: #030303" transform="translate(18.240625 201.502031) rotate(-90) scale(0.18 -0.18)">
      <defs>
       <path id="DejaVuSerif-50" d="M 1581 2375 
L 2406 2375 
Q 2872 2375 3115 2626 
Q 3359 2878 3359 3353 
Q 3359 3831 3115 4081 
Q 2872 4331 2406 4331 
L 1581 4331 
L 1581 2375 
z
M 353 0 
L 353 331 
L 947 331 
L 947 4331 
L 353 4331 
L 353 4666 
L 2559 4666 
Q 3259 4666 3668 4311 
Q 4078 3956 4078 3353 
Q 4078 2753 3668 2397 
Q 3259 2041 2559 2041 
L 1581 2041 
L 1581 331 
L 2303 331 
L 2303 0 
L 353 0 
z
" transform="scale(0.015625)"/>
       <path id="DejaVuSerif-69" d="M 622 4353 
Q 622 4497 726 4603 
Q 831 4709 978 4709 
Q 1122 4709 1226 4603 
Q 1331 4497 1331 4353 
Q 1331 4206 1228 4103 
Q 1125 4000 978 4000 
Q 831 4000 726 4103 
Q 622 4206 622 4353 
z
M 1356 331 
L 1900 331 
L 1900 0 
L 231 0 
L 231 331 
L 781 331 
L 781 2988 
L 231 2988 
L 231 3322 
L 1356 3322 
L 1356 331 
z
" transform="scale(0.015625)"/>
       <path id="DejaVuSerif-6c" d="M 1313 331 
L 1856 331 
L 1856 0 
L 184 0 
L 184 331 
L 738 331 
L 738 4531 
L 184 4531 
L 184 4863 
L 1313 4863 
L 1313 331 
z
" transform="scale(0.015625)"/>
       <path id="DejaVuSerif-74" d="M 691 2988 
L 184 2988 
L 184 3322 
L 691 3322 
L 691 4353 
L 1269 4353 
L 1269 3322 
L 2350 3322 
L 2350 2988 
L 1269 2988 
L 1269 878 
Q 1269 456 1350 337 
Q 1431 219 1650 219 
Q 1875 219 1978 351 
Q 2081 484 2088 781 
L 2522 781 
Q 2497 328 2275 118 
Q 2053 -91 1600 -91 
Q 1103 -91 897 129 
Q 691 350 691 878 
L 691 2988 
z
" transform="scale(0.015625)"/>
       <path id="DejaVuSerif-79" d="M 1381 -609 
L 1600 -56 
L 359 2988 
L -19 2988 
L -19 3322 
L 1509 3322 
L 1509 2988 
L 978 2988 
L 1913 703 
L 2847 2988 
L 2350 2988 
L 2350 3322 
L 3597 3322 
L 3597 2988 
L 3225 2988 
L 1703 -750 
Q 1547 -1138 1356 -1280 
Q 1166 -1422 819 -1422 
Q 672 -1422 517 -1397 
Q 363 -1372 206 -1325 
L 206 -691 
L 500 -691 
Q 519 -903 608 -995 
Q 697 -1088 884 -1088 
Q 1056 -1088 1161 -992 
Q 1266 -897 1381 -609 
z
" transform="scale(0.015625)"/>
      </defs>
      <use xlink:href="#DejaVuSerif-50"/>
      <use xlink:href="#DejaVuSerif-72" x="67.285156"/>
      <use xlink:href="#DejaVuSerif-6f" x="115.087891"/>
      <use xlink:href="#DejaVuSerif-62" x="175.292969"/>
      <use xlink:href="#DejaVuSerif-61" x="239.306641"/>
      <use xlink:href="#DejaVuSerif-62" x="298.925781"/>
      <use xlink:href="#DejaVuSerif-69" x="362.939453"/>
      <use xlink:href="#DejaVuSerif-6c" x="394.921875"/>
      <use xlink:href="#DejaVuSerif-69" x="426.904297"/>
      <use xlink:href="#DejaVuSerif-74" x="458.886719"/>
      <use xlink:href="#DejaVuSerif-79" x="499.072266"/>
     </g>
    </g>
   </g>
   <g id="patch_3">
    <path d="M 60 267 
L 60 36 
" style="fill: none; stroke: #030303; stroke-width: 1.5; stroke-linejoin: miter; stroke-linecap: square"/>
   </g>
   <g id="patch_4">
    <path d="M 60 267 
L 432 267 
" style="fill: none; stroke: #030303; stroke-width: 1.5; stroke-linejoin: miter; stroke-linecap: square"/>
   </g>
  </g>
  <g id="axes_2">
   <g id="PolyCollection_1">
    <defs>
     <path id="mc6877bb0b2" d="M 242.105798 -33 
L 242.105798 -38.727943 
L 243.124283 -39.093916 
L 244.142768 -39.476584 
L 245.161253 -39.876179 
L 246.179738 -40.292898 
L 247.198222 -40.72689 
L 248.216707 -41.178263 
L 249.235192 -41.647072 
L 250.253677 -42.133323 
L 251.272162 -42.636964 
L 252.290647 -43.157887 
L 253.309132 -43.695922 
L 254.327617 -44.250835 
L 255.346102 -44.822328 
L 256.364587 -45.410033 
L 257.383072 -46.013514 
L 258.401557 -46.632263 
L 259.420042 -47.265697 
L 260.438527 -47.913163 
L 261.457012 -48.57393 
L 262.475497 -49.247195 
L 263.493982 -49.932078 
L 264.512467 -50.627626 
L 265.530952 -51.332813 
L 266.549437 -52.04654 
L 267.567922 -52.767638 
L 268.586407 -53.49487 
L 269.604892 -54.226933 
L 270.623377 -54.962463 
L 271.641862 -55.700036 
L 272.660347 -56.438172 
L 273.678832 -57.175343 
L 274.697316 -57.909973 
L 275.715801 -58.640445 
L 276.734286 -59.365109 
L 277.752771 -60.082284 
L 278.771256 -60.790266 
L 279.789741 -61.487335 
L 280.808226 -62.171761 
L 281.826711 -62.841811 
L 282.845196 -63.495757 
L 283.863681 -64.13188 
L 284.882166 -64.748484 
L 285.900651 -65.343896 
L 286.919136 -65.916479 
L 287.937621 -66.464637 
L 288.956106 -66.986823 
L 289.974591 -67.481546 
L 290.993076 -67.947377 
L 292.011561 -68.382959 
L 293.030046 -68.78701 
L 294.048531 -69.158331 
L 295.067016 -69.495813 
L 296.085501 -69.798441 
L 297.103986 -70.065298 
L 298.122471 -70.295573 
L 299.140956 -70.48856 
L 300.159441 -70.643669 
L 301.177926 -70.760422 
L 302.19641 -70.838458 
L 303.214895 -70.877537 
L 304.23338 -70.877537 
L 305.251865 -70.838458 
L 306.27035 -70.760422 
L 307.288835 -70.643669 
L 308.30732 -70.48856 
L 309.325805 -70.295573 
L 310.34429 -70.065298 
L 311.362775 -69.798441 
L 312.38126 -69.495813 
L 313.399745 -69.158331 
L 314.41823 -68.78701 
L 315.436715 -68.382959 
L 316.4552 -67.947377 
L 317.473685 -67.481546 
L 318.49217 -66.986823 
L 319.510655 -66.464637 
L 320.52914 -65.916479 
L 321.547625 -65.343896 
L 322.56611 -64.748484 
L 323.584595 -64.13188 
L 324.60308 -63.495757 
L 325.621565 -62.841811 
L 326.64005 -62.171761 
L 327.658535 -61.487335 
L 328.67702 -60.790266 
L 329.695504 -60.082284 
L 330.713989 -59.365109 
L 331.732474 -58.640445 
L 332.750959 -57.909973 
L 333.769444 -57.175343 
L 334.787929 -56.438172 
L 335.806414 -55.700036 
L 336.824899 -54.962463 
L 337.843384 -54.226933 
L 338.861869 -53.49487 
L 339.880354 -52.767638 
L 340.898839 -52.04654 
L 341.917324 -51.332813 
L 342.935809 -50.627626 
L 343.954294 -49.932078 
L 344.972779 -49.247195 
L 345.991264 -48.57393 
L 347.009749 -47.913163 
L 348.028234 -47.265697 
L 349.046719 -46.632263 
L 350.065204 -46.013514 
L 351.083689 -45.410033 
L 352.102174 -44.822328 
L 353.120659 -44.250835 
L 354.139144 -43.695922 
L 355.157629 -43.157887 
L 356.176114 -42.636964 
L 357.194598 -42.133323 
L 358.213083 -41.647072 
L 359.231568 -41.178263 
L 360.250053 -40.72689 
L 361.268538 -40.292898 
L 362.287023 -39.876179 
L 363.305508 -39.476584 
L 364.323993 -39.093916 
L 365.342478 -38.727943 
L 365.342478 -33 
L 365.342478 -33 
L 364.323993 -33 
L 363.305508 -33 
L 362.287023 -33 
L 361.268538 -33 
L 360.250053 -33 
L 359.231568 -33 
L 358.213083 -33 
L 357.194598 -33 
L 356.176114 -33 
L 355.157629 -33 
L 354.139144 -33 
L 353.120659 -33 
L 352.102174 -33 
L 351.083689 -33 
L 350.065204 -33 
L 349.046719 -33 
L 348.028234 -33 
L 347.009749 -33 
L 345.991264 -33 
L 344.972779 -33 
L 343.954294 -33 
L 342.935809 -33 
L 341.917324 -33 
L 340.898839 -33 
L 339.880354 -33 
L 338.861869 -33 
L 337.843384 -33 
L 336.824899 -33 
L 335.806414 -33 
L 334.787929 -33 
L 333.769444 -33 
L 332.750959 -33 
L 331.732474 -33 
L 330.713989 -33 
L 329.695504 -33 
L 328.67702 -33 
L 327.658535 -33 
L 326.64005 -33 
L 325.621565 -33 
L 324.60308 -33 
L 323.584595 -33 
L 322.56611 -33 
L 321.547625 -33 
L 320.52914 -33 
L 319.510655 -33 
L 318.49217 -33 
L 317.473685 -33 
L 316.4552 -33 
L 315.436715 -33 
L 314.41823 -33 
L 313.399745 -33 
L 312.38126 -33 
L 311.362775 -33 
L 310.34429 -33 
L 309.325805 -33 
L 308.30732 -33 
L 307.288835 -33 
L 306.27035 -33 
L 305.251865 -33 
L 304.23338 -33 
L 303.214895 -33 
L 302.19641 -33 
L 301.177926 -33 
L 300.159441 -33 
L 299.140956 -33 
L 298.122471 -33 
L 297.103986 -33 
L 296.085501 -33 
L 295.067016 -33 
L 294.048531 -33 
L 293.030046 -33 
L 292.011561 -33 
L 290.993076 -33 
L 289.974591 -33 
L 288.956106 -33 
L 287.937621 -33 
L 286.919136 -33 
L 285.900651 -33 
L 284.882166 -33 
L 283.863681 -33 
L 282.845196 -33 
L 281.826711 -33 
L 280.808226 -33 
L 279.789741 -33 
L 278.771256 -33 
L 277.752771 -33 
L 276.734286 -33 
L 275.715801 -33 
L 274.697316 -33 
L 273.678832 -33 
L 272.660347 -33 
L 271.641862 -33 
L 270.623377 -33 
L 269.604892 -33 
L 268.586407 -33 
L 267.567922 -33 
L 266.549437 -33 
L 265.530952 -33 
L 264.512467 -33 
L 263.493982 -33 
L 262.475497 -33 
L 261.457012 -33 
L 260.438527 -33 
L 259.420042 -33 
L 258.401557 -33 
L 257.383072 -33 
L 256.364587 -33 
L 255.346102 -33 
L 254.327617 -33 
L 253.309132 -33 
L 252.290647 -33 
L 251.272162 -33 
L 250.253677 -33 
L 249.235192 -33 
L 248.216707 -33 
L 247.198222 -33 
L 246.179738 -33 
L 245.161253 -33 
L 244.142768 -33 
L 243.124283 -33 
L 242.105798 -33 
z
" style="stroke: #cd952d; stroke-opacity: 0.3"/>
    </defs>
    <g clip-path="url(#pa778280b03)">
     <use xlink:href="#mc6877bb0b2" x="0" y="300" style="fill: #cd952d; fill-opacity: 0.3; stroke: #cd952d; stroke-opacity: 0.3"/>
    </g>
   </g>
   <g id="matplotlib.axis_3"/>
   <g id="line2d_22">
    <path d="M 176.92276 266.987292 
L 198.310944 266.84958 
L 208.495794 266.584208 
L 215.625189 266.203284 
L 221.736098 265.663711 
L 226.828523 265.001353 
L 231.920948 264.08684 
L 235.994888 263.134572 
L 240.068828 261.955035 
L 244.142768 260.523416 
L 248.216707 258.821737 
L 252.290647 256.842113 
L 256.364587 254.589967 
L 260.438527 252.086837 
L 265.530952 248.667187 
L 273.678832 242.824657 
L 279.789741 238.512665 
L 283.863681 235.86812 
L 286.919136 234.083521 
L 289.974591 232.518454 
L 293.030046 231.21299 
L 296.085501 230.201559 
L 299.140956 229.51144 
L 301.177926 229.239578 
L 303.214895 229.122463 
L 305.251865 229.161542 
L 307.288835 229.356331 
L 309.325805 229.704427 
L 312.38126 230.504187 
L 315.436715 231.617041 
L 318.49217 233.013177 
L 321.547625 234.656104 
L 325.621565 237.158189 
L 330.713989 240.634891 
L 345.991264 251.42607 
L 350.065204 253.986486 
L 354.139144 256.304078 
L 358.213083 258.352928 
L 362.287023 260.123821 
L 366.360963 261.621606 
L 370.434903 262.86205 
L 374.508843 263.868553 
L 378.582783 264.669054 
L 383.675208 265.425367 
L 388.767632 265.963381 
L 394.878542 266.393329 
L 403.026422 266.719697 
L 414.229756 266.912962 
L 430.525516 266.987292 
L 430.525516 266.987292 
" clip-path="url(#pa778280b03)" style="fill: none; stroke: #cd952d; stroke-opacity: 0.6; stroke-width: 1.5; stroke-linecap: square"/>
   </g>
   <g id="patch_5">
    <path d="M 60 267 
L 60 36 
" style="fill: none; stroke: #030303; stroke-width: 1.5; stroke-linejoin: miter; stroke-linecap: square"/>
   </g>
   <g id="patch_6">
    <path d="M 60 267 
L 432 267 
" style="fill: none; stroke: #030303; stroke-width: 1.5; stroke-linejoin: miter; stroke-linecap: square"/>
   </g>
  </g>
  <g id="axes_3">
   <g id="matplotlib.axis_4"/>
   <g id="LineCollection_1">
    <path d="M 60 267 
L 60 266.999995 
" clip-path="url(#pa778280b03)" style="fill: none; stroke: #7f7f7f; stroke-width: 1.5"/>
    <path d="M 72.827586 267 
L 72.827586 266.999846 
" clip-path="url(#pa778280b03)" style="fill: none; stroke: #7f7f7f; stroke-width: 1.5"/>
    <path d="M 85.655172 267 
L 85.655172 266.997927 
" clip-path="url(#pa778280b03)" style="fill: none; stroke: #7f7f7f; stroke-width: 1.5"/>
    <path d="M 98.482759 267 
L 98.482759 266.982034 
" clip-path="url(#pa778280b03)" style="fill: none; stroke: #7f7f7f; stroke-width: 1.5"/>
    <path d="M 111.310345 267 
L 111.310345 266.887715 
" clip-path="url(#pa778280b03)" style="fill: none; stroke: #7f7f7f; stroke-width: 1.5"/>
    <path d="M 124.137931 267 
L 124.137931 266.461031 
" clip-path="url(#pa778280b03)" style="fill: none; stroke: #7f7f7f; stroke-width: 1.5"/>
    <path d="M 136.965517 267 
L 136.965517 264.933953 
" clip-path="url(#pa778280b03)" style="fill: none; stroke: #7f7f7f; stroke-width: 1.5"/>
    <path d="M 149.793103 267 
L 149.793103 260.506708 
" clip-path="url(#pa778280b03)" style="fill: none; stroke: #7f7f7f; stroke-width: 1.5"/>
    <path d="M 162.62069 267 
L 162.62069 249.955108 
" clip-path="url(#pa778280b03)" style="fill: none; stroke: #7f7f7f; stroke-width: 1.5"/>
    <path d="M 175.448276 267 
L 175.448276 229.122463 
" clip-path="url(#pa778280b03)" style="fill: none; stroke: #7f7f7f; stroke-width: 1.5"/>
    <path d="M 188.275862 267 
L 188.275862 195.03268 
" clip-path="url(#pa778280b03)" style="fill: none; stroke: #7f7f7f; stroke-width: 1.5"/>
    <path d="M 201.103448 267 
L 201.103448 149.235294 
" clip-path="url(#pa778280b03)" style="fill: none; stroke: #7f7f7f; stroke-width: 1.5"/>
    <path d="M 213.931034 267 
L 213.931034 100.166667 
" clip-path="url(#pa778280b03)" style="fill: none; stroke: #7f7f7f; stroke-width: 1.5"/>
    <path d="M 226.758621 267 
L 226.758621 61.666667 
" clip-path="url(#pa778280b03)" style="fill: none; stroke: #7f7f7f; stroke-width: 1.5"/>
    <path d="M 239.586207 267 
L 239.586207 47 
" clip-path="url(#pa778280b03)" style="fill: none; stroke: #7f7f7f; stroke-width: 1.5"/>
    <path d="M 252.413793 267 
L 252.413793 61.666667 
" clip-path="url(#pa778280b03)" style="fill: none; stroke: #7f7f7f; stroke-width: 1.5"/>
    <path d="M 265.241379 267 
L 265.241379 100.166667 
" clip-path="url(#pa778280b03)" style="fill: none; stroke: #7f7f7f; stroke-width: 1.5"/>
    <path d="M 278.068966 267 
L 278.068966 149.235294 
" clip-path="url(#pa778280b03)" style="fill: none; stroke: #7f7f7f; stroke-width: 1.5"/>
    <path d="M 290.896552 267 
L 290.896552 195.03268 
" clip-path="url(#pa778280b03)" style="fill: none; stroke: #7f7f7f; stroke-width: 1.5"/>
    <path d="M 303.724138 267 
L 303.724138 229.122463 
" clip-path="url(#pa778280b03)" style="fill: none; stroke: #7f7f7f; stroke-width: 1.5"/>
    <path d="M 316.551724 267 
L 316.551724 249.955108 
" clip-path="url(#pa778280b03)" style="fill: none; stroke: #7f7f7f; stroke-width: 1.5"/>
    <path d="M 329.37931 267 
L 329.37931 260.506708 
" clip-path="url(#pa778280b03)" style="fill: none; stroke: #7f7f7f; stroke-width: 1.5"/>
    <path d="M 342.206897 267 
L 342.206897 264.933953 
" clip-path="url(#pa778280b03)" style="fill: none; stroke: #7f7f7f; stroke-width: 1.5"/>
    <path d="M 355.034483 267 
L 355.034483 266.461031 
" clip-path="url(#pa778280b03)" style="fill: none; stroke: #7f7f7f; stroke-width: 1.5"/>
    <path d="M 367.862069 267 
L 367.862069 266.887715 
" clip-path="url(#pa778280b03)" style="fill: none; stroke: #7f7f7f; stroke-width: 1.5"/>
    <path d="M 380.689655 267 
L 380.689655 266.982034 
" clip-path="url(#pa778280b03)" style="fill: none; stroke: #7f7f7f; stroke-width: 1.5"/>
    <path d="M 393.517241 267 
L 393.517241 266.997927 
" clip-path="url(#pa778280b03)" style="fill: none; stroke: #7f7f7f; stroke-width: 1.5"/>
    <path d="M 406.344828 267 
L 406.344828 266.999846 
" clip-path="url(#pa778280b03)" style="fill: none; stroke: #7f7f7f; stroke-width: 1.5"/>
    <path d="M 419.172414 267 
L 419.172414 266.999995 
" clip-path="url(#pa778280b03)" style="fill: none; stroke: #7f7f7f; stroke-width: 1.5"/>
   </g>
   <g id="line2d_23">
    <defs>
     <path id="mc720fbfd4f" d="M 0 3.5 
C 0.928211 3.5 1.81853 3.131218 2.474874 2.474874 
C 3.131218 1.81853 3.5 0.928211 3.5 0 
C 3.5 -0.928211 3.131218 -1.81853 2.474874 -2.474874 
C 1.81853 -3.131218 0.928211 -3.5 0 -3.5 
C -0.928211 -3.5 -1.81853 -3.131218 -2.474874 -2.474874 
C -3.131218 -1.81853 -3.5 -0.928211 -3.5 0 
C -3.5 0.928211 -3.131218 1.81853 -2.474874 2.474874 
C -1.81853 3.131218 -0.928211 3.5 0 3.5 
z
" style="stroke: #000000"/>
    </defs>
    <g clip-path="url(#pa778280b03)">
     <use xlink:href="#mc720fbfd4f" x="60" y="266.999995" style="stroke: #000000"/>
     <use xlink:href="#mc720fbfd4f" x="72.827586" y="266.999846" style="stroke: #000000"/>
     <use xlink:href="#mc720fbfd4f" x="85.655172" y="266.997927" style="stroke: #000000"/>
     <use xlink:href="#mc720fbfd4f" x="98.482759" y="266.982034" style="stroke: #000000"/>
     <use xlink:href="#mc720fbfd4f" x="111.310345" y="266.887715" style="stroke: #000000"/>
     <use xlink:href="#mc720fbfd4f" x="124.137931" y="266.461031" style="stroke: #000000"/>
     <use xlink:href="#mc720fbfd4f" x="136.965517" y="264.933953" style="stroke: #000000"/>
     <use xlink:href="#mc720fbfd4f" x="149.793103" y="260.506708" style="stroke: #000000"/>
     <use xlink:href="#mc720fbfd4f" x="162.62069" y="249.955108" style="stroke: #000000"/>
     <use xlink:href="#mc720fbfd4f" x="175.448276" y="229.122463" style="stroke: #000000"/>
     <use xlink:href="#mc720fbfd4f" x="188.275862" y="195.03268" style="stroke: #000000"/>
     <use xlink:href="#mc720fbfd4f" x="201.103448" y="149.235294" style="stroke: #000000"/>
     <use xlink:href="#mc720fbfd4f" x="213.931034" y="100.166667" style="stroke: #000000"/>
     <use xlink:href="#mc720fbfd4f" x="226.758621" y="61.666667" style="stroke: #000000"/>
     <use xlink:href="#mc720fbfd4f" x="239.586207" y="47" style="stroke: #000000"/>
     <use xlink:href="#mc720fbfd4f" x="252.413793" y="61.666667" style="stroke: #000000"/>
     <use xlink:href="#mc720fbfd4f" x="265.241379" y="100.166667" style="stroke: #000000"/>
     <use xlink:href="#mc720fbfd4f" x="278.068966" y="149.235294" style="stroke: #000000"/>
     <use xlink:href="#mc720fbfd4f" x="290.896552" y="195.03268" style="stroke: #000000"/>
     <use xlink:href="#mc720fbfd4f" x="303.724138" y="229.122463" style="stroke: #000000"/>
     <use xlink:href="#mc720fbfd4f" x="316.551724" y="249.955108" style="stroke: #000000"/>
     <use xlink:href="#mc720fbfd4f" x="329.37931" y="260.506708" style="stroke: #000000"/>
     <use xlink:href="#mc720fbfd4f" x="342.206897" y="264.933953" style="stroke: #000000"/>
     <use xlink:href="#mc720fbfd4f" x="355.034483" y="266.461031" style="stroke: #000000"/>
     <use xlink:href="#mc720fbfd4f" x="367.862069" y="266.887715" style="stroke: #000000"/>
     <use xlink:href="#mc720fbfd4f" x="380.689655" y="266.982034" style="stroke: #000000"/>
     <use xlink:href="#mc720fbfd4f" x="393.517241" y="266.997927" style="stroke: #000000"/>
     <use xlink:href="#mc720fbfd4f" x="406.344828" y="266.999846" style="stroke: #000000"/>
     <use xlink:href="#mc720fbfd4f" x="419.172414" y="266.999995" style="stroke: #000000"/>
    </g>
   </g>
   <g id="line2d_24"/>
   <g id="patch_7">
    <path d="M 60 267 
L 60 36 
" style="fill: none; stroke: #030303; stroke-width: 1.5; stroke-linejoin: miter; stroke-linecap: square"/>
   </g>
   <g id="patch_8">
    <path d="M 60 267 
L 432 267 
" style="fill: none; stroke: #030303; stroke-width: 1.5; stroke-linejoin: miter; stroke-linecap: square"/>
   </g>
  </g>
  <g id="axes_4">
   <g id="matplotlib.axis_5"/>
   <g id="patch_9">
    <path d="M 303.974138 94.690073 
Q 303.974138 152.660656 303.974138 210.63124 
L 309.724138 210.63124 
Q 306.724138 216.630351 303.724138 222.629462 
Q 300.724138 216.630351 297.724138 210.63124 
L 303.474138 210.63124 
Q 303.474138 152.660656 303.474138 94.690073 
L 303.974138 94.690073 
z
" style="fill: #ff5e5b; stroke: #ff5e5b; stroke-linecap: round"/>
   </g>
   <g id="text_24">
    <!-- 0.0257 -->
    <g style="fill: #030303" transform="translate(303.724138 83.397325) scale(0.1 -0.1)">
     <defs>
      <path id="DejaVuSerif-35" d="M 3219 4666 
L 3219 4153 
L 1081 4153 
L 1081 2816 
Q 1244 2928 1461 2984 
Q 1678 3041 1947 3041 
Q 2703 3041 3140 2622 
Q 3578 2203 3578 1478 
Q 3578 738 3136 323 
Q 2694 -91 1894 -91 
Q 1572 -91 1234 -12 
Q 897 66 544 225 
L 544 1131 
L 897 1131 
Q 925 688 1179 453 
Q 1434 219 1894 219 
Q 2388 219 2653 544 
Q 2919 869 2919 1478 
Q 2919 2084 2655 2407 
Q 2391 2731 1894 2731 
Q 1613 2731 1398 2631 
Q 1184 2531 1019 2322 
L 750 2322 
L 750 4666 
L 3219 4666 
z
" transform="scale(0.015625)"/>
      <path id="DejaVuSerif-37" d="M 3609 4347 
L 1784 0 
L 1319 0 
L 3059 4153 
L 903 4153 
L 903 3578 
L 538 3578 
L 538 4666 
L 3609 4666 
L 3609 4347 
z
" transform="scale(0.015625)"/>
     </defs>
     <use xlink:href="#DejaVuSerif-30"/>
     <use xlink:href="#DejaVuSerif-2e" x="63.623047"/>
     <use xlink:href="#DejaVuSerif-30" x="95.410156"/>
     <use xlink:href="#DejaVuSerif-32" x="159.033203"/>
     <use xlink:href="#DejaVuSerif-35" x="222.65625"/>
     <use xlink:href="#DejaVuSerif-37" x="286.279297"/>
    </g>
   </g>
  </g>
 </g>
 <defs>
  <clipPath id="pa778280b03">
   <rect x="60" y="36" width="372" height="231"/>
  </clipPath>
 </defs>
</svg>
