<?xml version="1.0" encoding="utf-8" standalone="no"?>
<!DOCTYPE svg PUBLIC "-//W3C//DTD SVG 1.1//EN"
  "http://www.w3.org/Graphics/SVG/1.1/DTD/svg11.dtd">
<svg xmlns:xlink="http://www.w3.org/1999/xlink" width="480pt" height="300pt" viewBox="0 0 480 300" xmlns="http://www.w3.org/2000/svg" version="1.1">
 <metadata>
  <rdf:RDF xmlns:dc="http://purl.org/dc/elements/1.1/" xmlns:cc="http://creativecommons.org/ns#" xmlns:rdf="http://www.w3.org/1999/02/22-rdf-syntax-ns#">
   <cc:Work>
    <dc:type rdf:resource="http://purl.org/dc/dcmitype/StillImage"/>
    <dc:date>2024-02-04T19:43:49.042516</dc:date>
    <dc:format>image/svg+xml</dc:format>
    <dc:creator>
     <cc:Agent>
      <dc:title>Matplotlib v3.8.2, https://matplotlib.org/</dc:title>
     </cc:Agent>
    </dc:creator>
   </cc:Work>
  </rdf:RDF>
 </metadata>
 <defs>
  <style type="text/css">*{stroke-linejoin: round; stroke-linecap: butt}</style>
 </defs>
 <g id="figure_1">
  <g id="patch_1">
   <path d="M 0 300 
L 480 300 
L 480 0 
L 0 0 
L 0 300 
z
" style="fill: none"/>
  </g>
  <g id="axes_1">
   <g id="patch_2">
    <path d="M 60 267 
L 432 267 
L 432 36 
L 60 36 
L 60 267 
z
" style="fill: none"/>
   </g>
   <g id="PolyCollection_1">
    <defs>
     <path id="ma6c5b81a73" d="M 432 -33 
L 303.724138 -33 
L 303.724138 -264 
L 432 -264 
L 432 -264 
L 432 -33 
z
" style="stroke: #cd952d; stroke-opacity: 0.6"/>
    </defs>
    <g clip-path="url(#pd215b56269)">
     <use xlink:href="#ma6c5b81a73" x="0" y="300" style="fill: #cd952d; fill-opacity: 0.6; stroke: #cd952d; stroke-opacity: 0.6"/>
    </g>
   </g>
   <g id="matplotlib.axis_1">
    <g id="xtick_1">
     <g id="line2d_1">
      <defs>
       <path id="m70bd6afe78" d="M 0 0 
L 0 3.5 
" style="stroke: #030303; stroke-width: 0.8"/>
      </defs>
      <g>
       <use xlink:href="#m70bd6afe78" x="85.655172" y="267" style="fill: #030303; stroke: #030303; stroke-width: 0.8"/>
      </g>
     </g>
     <g id="text_1">
      <!-- $\mathdefault{2}$ -->
      <g style="fill: #030303" transform="translate(81.815172 283.118125) scale(0.12 -0.12)">
       <defs>
        <path id="DejaVuSerif-32" d="M 819 3553 
L 469 3553 
L 469 4384 
Q 803 4563 1142 4656 
Q 1481 4750 1806 4750 
Q 2534 4750 2956 4397 
Q 3378 4044 3378 3438 
Q 3378 2753 2422 1800 
Q 2347 1728 2309 1691 
L 1131 513 
L 3078 513 
L 3078 1088 
L 3444 1088 
L 3444 0 
L 434 0 
L 434 341 
L 1850 1753 
Q 2319 2222 2519 2614 
Q 2719 3006 2719 3438 
Q 2719 3909 2473 4175 
Q 2228 4441 1797 4441 
Q 1350 4441 1106 4219 
Q 863 3997 819 3553 
z
" transform="scale(0.015625)"/>
       </defs>
       <use xlink:href="#DejaVuSerif-32" transform="translate(0 0.78125)"/>
      </g>
     </g>
    </g>
    <g id="xtick_2">
     <g id="line2d_2">
      <g>
       <use xlink:href="#m70bd6afe78" x="111.310345" y="267" style="fill: #030303; stroke: #030303; stroke-width: 0.8"/>
      </g>
     </g>
     <g id="text_2">
      <!-- $\mathdefault{4}$ -->
      <g style="fill: #030303" transform="translate(107.470345 283.118125) scale(0.12 -0.12)">
       <defs>
        <path id="DejaVuSerif-34" d="M 2234 1581 
L 2234 4063 
L 641 1581 
L 2234 1581 
z
M 3609 0 
L 1484 0 
L 1484 331 
L 2234 331 
L 2234 1247 
L 197 1247 
L 197 1588 
L 2241 4750 
L 2859 4750 
L 2859 1581 
L 3750 1581 
L 3750 1247 
L 2859 1247 
L 2859 331 
L 3609 331 
L 3609 0 
z
" transform="scale(0.015625)"/>
       </defs>
       <use xlink:href="#DejaVuSerif-34" transform="translate(0 0.78125)"/>
      </g>
     </g>
    </g>
    <g id="xtick_3">
     <g id="line2d_3">
      <g>
       <use xlink:href="#m70bd6afe78" x="136.965517" y="267" style="fill: #030303; stroke: #030303; stroke-width: 0.8"/>
      </g>
     </g>
     <g id="text_3">
      <!-- $\mathdefault{6}$ -->
      <g style="fill: #030303" transform="translate(133.125517 283.118125) scale(0.12 -0.12)">
       <defs>
        <path id="DejaVuSerif-36" d="M 2094 219 
Q 2534 219 2771 542 
Q 3009 866 3009 1472 
Q 3009 2078 2771 2401 
Q 2534 2725 2094 2725 
Q 1647 2725 1412 2412 
Q 1178 2100 1178 1509 
Q 1178 888 1415 553 
Q 1653 219 2094 219 
z
M 1075 2569 
Q 1288 2803 1556 2918 
Q 1825 3034 2163 3034 
Q 2859 3034 3264 2615 
Q 3669 2197 3669 1472 
Q 3669 763 3233 336 
Q 2797 -91 2069 -91 
Q 1278 -91 853 498 
Q 428 1088 428 2181 
Q 428 3406 931 4078 
Q 1434 4750 2350 4750 
Q 2597 4750 2869 4703 
Q 3141 4656 3425 4563 
L 3425 3794 
L 3072 3794 
Q 3034 4109 2831 4275 
Q 2628 4441 2284 4441 
Q 1678 4441 1381 3981 
Q 1084 3522 1075 2569 
z
" transform="scale(0.015625)"/>
       </defs>
       <use xlink:href="#DejaVuSerif-36" transform="translate(0 0.78125)"/>
      </g>
     </g>
    </g>
    <g id="xtick_4">
     <g id="line2d_4">
      <g>
       <use xlink:href="#m70bd6afe78" x="162.62069" y="267" style="fill: #030303; stroke: #030303; stroke-width: 0.8"/>
      </g>
     </g>
     <g id="text_4">
      <!-- $\mathdefault{8}$ -->
      <g style="fill: #030303" transform="translate(158.78069 283.118125) scale(0.12 -0.12)">
       <defs>
        <path id="DejaVuSerif-38" d="M 2981 1275 
Q 2981 1775 2732 2051 
Q 2484 2328 2034 2328 
Q 1584 2328 1336 2051 
Q 1088 1775 1088 1275 
Q 1088 772 1336 495 
Q 1584 219 2034 219 
Q 2484 219 2732 495 
Q 2981 772 2981 1275 
z
M 2853 3541 
Q 2853 3966 2637 4203 
Q 2422 4441 2034 4441 
Q 1650 4441 1433 4203 
Q 1216 3966 1216 3541 
Q 1216 3113 1433 2875 
Q 1650 2638 2034 2638 
Q 2422 2638 2637 2875 
Q 2853 3113 2853 3541 
z
M 2516 2484 
Q 3047 2413 3344 2092 
Q 3641 1772 3641 1275 
Q 3641 619 3225 264 
Q 2809 -91 2034 -91 
Q 1263 -91 845 264 
Q 428 619 428 1275 
Q 428 1772 725 2092 
Q 1022 2413 1556 2484 
Q 1084 2569 832 2842 
Q 581 3116 581 3541 
Q 581 4103 968 4426 
Q 1356 4750 2034 4750 
Q 2713 4750 3100 4426 
Q 3488 4103 3488 3541 
Q 3488 3116 3236 2842 
Q 2984 2569 2516 2484 
z
" transform="scale(0.015625)"/>
       </defs>
       <use xlink:href="#DejaVuSerif-38" transform="translate(0 0.78125)"/>
      </g>
     </g>
    </g>
    <g id="xtick_5">
     <g id="line2d_5">
      <g>
       <use xlink:href="#m70bd6afe78" x="188.275862" y="267" style="fill: #030303; stroke: #030303; stroke-width: 0.8"/>
      </g>
     </g>
     <g id="text_5">
      <!-- $\mathdefault{10}$ -->
      <g style="fill: #030303" transform="translate(180.595862 283.118125) scale(0.12 -0.12)">
       <defs>
        <path id="DejaVuSerif-31" d="M 909 0 
L 909 331 
L 1722 331 
L 1722 4213 
L 781 3603 
L 781 4013 
L 1919 4750 
L 2350 4750 
L 2350 331 
L 3163 331 
L 3163 0 
L 909 0 
z
" transform="scale(0.015625)"/>
        <path id="DejaVuSerif-30" d="M 2034 219 
Q 2513 219 2750 744 
Q 2988 1269 2988 2328 
Q 2988 3391 2750 3916 
Q 2513 4441 2034 4441 
Q 1556 4441 1318 3916 
Q 1081 3391 1081 2328 
Q 1081 1269 1318 744 
Q 1556 219 2034 219 
z
M 2034 -91 
Q 1275 -91 848 546 
Q 422 1184 422 2328 
Q 422 3475 848 4112 
Q 1275 4750 2034 4750 
Q 2797 4750 3222 4112 
Q 3647 3475 3647 2328 
Q 3647 1184 3222 546 
Q 2797 -91 2034 -91 
z
" transform="scale(0.015625)"/>
       </defs>
       <use xlink:href="#DejaVuSerif-31" transform="translate(0 0.78125)"/>
       <use xlink:href="#DejaVuSerif-30" transform="translate(63.623047 0.78125)"/>
      </g>
     </g>
    </g>
    <g id="xtick_6">
     <g id="line2d_6">
      <g>
       <use xlink:href="#m70bd6afe78" x="213.931034" y="267" style="fill: #030303; stroke: #030303; stroke-width: 0.8"/>
      </g>
     </g>
     <g id="text_6">
      <!-- $\mathdefault{12}$ -->
      <g style="fill: #030303" transform="translate(206.251034 283.118125) scale(0.12 -0.12)">
       <use xlink:href="#DejaVuSerif-31" transform="translate(0 0.78125)"/>
       <use xlink:href="#DejaVuSerif-32" transform="translate(63.623047 0.78125)"/>
      </g>
     </g>
    </g>
    <g id="xtick_7">
     <g id="line2d_7">
      <g>
       <use xlink:href="#m70bd6afe78" x="239.586207" y="267" style="fill: #030303; stroke: #030303; stroke-width: 0.8"/>
      </g>
     </g>
     <g id="text_7">
      <!-- $\mathdefault{14}$ -->
      <g style="fill: #030303" transform="translate(231.906207 283.118125) scale(0.12 -0.12)">
       <use xlink:href="#DejaVuSerif-31" transform="translate(0 0.78125)"/>
       <use xlink:href="#DejaVuSerif-34" transform="translate(63.623047 0.78125)"/>
      </g>
     </g>
    </g>
    <g id="xtick_8">
     <g id="line2d_8">
      <g>
       <use xlink:href="#m70bd6afe78" x="265.241379" y="267" style="fill: #030303; stroke: #030303; stroke-width: 0.8"/>
      </g>
     </g>
     <g id="text_8">
      <!-- $\mathdefault{16}$ -->
      <g style="fill: #030303" transform="translate(257.561379 283.118125) scale(0.12 -0.12)">
       <use xlink:href="#DejaVuSerif-31" transform="translate(0 0.78125)"/>
       <use xlink:href="#DejaVuSerif-36" transform="translate(63.623047 0.78125)"/>
      </g>
     </g>
    </g>
    <g id="xtick_9">
     <g id="line2d_9">
      <g>
       <use xlink:href="#m70bd6afe78" x="290.896552" y="267" style="fill: #030303; stroke: #030303; stroke-width: 0.8"/>
      </g>
     </g>
     <g id="text_9">
      <!-- $\mathdefault{18}$ -->
      <g style="fill: #030303" transform="translate(283.216552 283.118125) scale(0.12 -0.12)">
       <use xlink:href="#DejaVuSerif-31" transform="translate(0 0.78125)"/>
       <use xlink:href="#DejaVuSerif-38" transform="translate(63.623047 0.78125)"/>
      </g>
     </g>
    </g>
    <g id="xtick_10">
     <g id="line2d_10">
      <g>
       <use xlink:href="#m70bd6afe78" x="316.551724" y="267" style="fill: #030303; stroke: #030303; stroke-width: 0.8"/>
      </g>
     </g>
     <g id="text_10">
      <!-- $\mathdefault{20}$ -->
      <g style="fill: #030303" transform="translate(308.871724 283.118125) scale(0.12 -0.12)">
       <use xlink:href="#DejaVuSerif-32" transform="translate(0 0.78125)"/>
       <use xlink:href="#DejaVuSerif-30" transform="translate(63.623047 0.78125)"/>
      </g>
     </g>
    </g>
    <g id="xtick_11">
     <g id="line2d_11">
      <g>
       <use xlink:href="#m70bd6afe78" x="342.206897" y="267" style="fill: #030303; stroke: #030303; stroke-width: 0.8"/>
      </g>
     </g>
     <g id="text_11">
      <!-- $\mathdefault{22}$ -->
      <g style="fill: #030303" transform="translate(334.526897 283.118125) scale(0.12 -0.12)">
       <use xlink:href="#DejaVuSerif-32" transform="translate(0 0.78125)"/>
       <use xlink:href="#DejaVuSerif-32" transform="translate(63.623047 0.78125)"/>
      </g>
     </g>
    </g>
    <g id="xtick_12">
     <g id="line2d_12">
      <g>
       <use xlink:href="#m70bd6afe78" x="367.862069" y="267" style="fill: #030303; stroke: #030303; stroke-width: 0.8"/>
      </g>
     </g>
     <g id="text_12">
      <!-- $\mathdefault{24}$ -->
      <g style="fill: #030303" transform="translate(360.182069 283.118125) scale(0.12 -0.12)">
       <use xlink:href="#DejaVuSerif-32" transform="translate(0 0.78125)"/>
       <use xlink:href="#DejaVuSerif-34" transform="translate(63.623047 0.78125)"/>
      </g>
     </g>
    </g>
    <g id="xtick_13">
     <g id="line2d_13">
      <g>
       <use xlink:href="#m70bd6afe78" x="393.517241" y="267" style="fill: #030303; stroke: #030303; stroke-width: 0.8"/>
      </g>
     </g>
     <g id="text_13">
      <!-- $\mathdefault{26}$ -->
      <g style="fill: #030303" transform="translate(385.837241 283.118125) scale(0.12 -0.12)">
       <use xlink:href="#DejaVuSerif-32" transform="translate(0 0.78125)"/>
       <use xlink:href="#DejaVuSerif-36" transform="translate(63.623047 0.78125)"/>
      </g>
     </g>
    </g>
    <g id="text_14">
     <!-- Number of Heads -->
     <g style="fill: #030303" transform="translate(165.012656 303.290937) scale(0.18 -0.18)">
      <defs>
       <path id="DejaVuSerif-4e" d="M 313 0 
L 313 331 
L 941 331 
L 941 4331 
L 313 4331 
L 313 4666 
L 1509 4666 
L 4306 984 
L 4306 4331 
L 3681 4331 
L 3681 4666 
L 5319 4666 
L 5319 4331 
L 4691 4331 
L 4691 -91 
L 4313 -91 
L 1325 3841 
L 1325 331 
L 1953 331 
L 1953 0 
L 313 0 
z
" transform="scale(0.015625)"/>
       <path id="DejaVuSerif-75" d="M 2266 3322 
L 3341 3322 
L 3341 331 
L 3884 331 
L 3884 0 
L 2766 0 
L 2766 588 
Q 2606 256 2353 82 
Q 2100 -91 1766 -91 
Q 1213 -91 952 223 
Q 691 538 691 1209 
L 691 2988 
L 172 2988 
L 172 3322 
L 1269 3322 
L 1269 1388 
Q 1269 781 1417 556 
Q 1566 331 1947 331 
Q 2347 331 2556 625 
Q 2766 919 2766 1478 
L 2766 2988 
L 2266 2988 
L 2266 3322 
z
" transform="scale(0.015625)"/>
       <path id="DejaVuSerif-6d" d="M 3316 2675 
Q 3481 3041 3739 3227 
Q 3997 3413 4341 3413 
Q 4863 3413 5119 3089 
Q 5375 2766 5375 2113 
L 5375 331 
L 5894 331 
L 5894 0 
L 4300 0 
L 4300 331 
L 4800 331 
L 4800 2047 
Q 4800 2556 4650 2772 
Q 4500 2988 4153 2988 
Q 3769 2988 3567 2697 
Q 3366 2406 3366 1850 
L 3366 331 
L 3866 331 
L 3866 0 
L 2291 0 
L 2291 331 
L 2791 331 
L 2791 2069 
Q 2791 2566 2641 2777 
Q 2491 2988 2144 2988 
Q 1759 2988 1557 2697 
Q 1356 2406 1356 1850 
L 1356 331 
L 1856 331 
L 1856 0 
L 263 0 
L 263 331 
L 781 331 
L 781 2994 
L 231 2994 
L 231 3322 
L 1356 3322 
L 1356 2731 
Q 1516 3063 1762 3238 
Q 2009 3413 2322 3413 
Q 2709 3413 2968 3220 
Q 3228 3028 3316 2675 
z
" transform="scale(0.015625)"/>
       <path id="DejaVuSerif-62" d="M 738 331 
L 738 4531 
L 184 4531 
L 184 4863 
L 1313 4863 
L 1313 2803 
Q 1481 3116 1742 3264 
Q 2003 3413 2388 3413 
Q 3000 3413 3387 2928 
Q 3775 2444 3775 1663 
Q 3775 881 3387 395 
Q 3000 -91 2388 -91 
Q 2003 -91 1742 57 
Q 1481 206 1313 519 
L 1313 0 
L 184 0 
L 184 331 
L 738 331 
z
M 1313 1497 
Q 1313 897 1542 583 
Q 1772 269 2209 269 
Q 2650 269 2876 622 
Q 3103 975 3103 1663 
Q 3103 2353 2876 2703 
Q 2650 3053 2209 3053 
Q 1772 3053 1542 2737 
Q 1313 2422 1313 1825 
L 1313 1497 
z
" transform="scale(0.015625)"/>
       <path id="DejaVuSerif-65" d="M 3469 1600 
L 991 1600 
L 991 1575 
Q 991 903 1244 561 
Q 1497 219 1991 219 
Q 2369 219 2611 417 
Q 2853 616 2950 1006 
L 3413 1006 
Q 3275 459 2904 184 
Q 2534 -91 1931 -91 
Q 1203 -91 761 389 
Q 319 869 319 1663 
Q 319 2450 753 2931 
Q 1188 3413 1894 3413 
Q 2647 3413 3050 2948 
Q 3453 2484 3469 1600 
z
M 2791 1931 
Q 2772 2513 2545 2808 
Q 2319 3103 1894 3103 
Q 1497 3103 1269 2806 
Q 1041 2509 991 1931 
L 2791 1931 
z
" transform="scale(0.015625)"/>
       <path id="DejaVuSerif-72" d="M 3059 3328 
L 3059 2497 
L 2728 2497 
Q 2713 2744 2591 2866 
Q 2469 2988 2234 2988 
Q 1809 2988 1582 2694 
Q 1356 2400 1356 1850 
L 1356 331 
L 2022 331 
L 2022 0 
L 263 0 
L 263 331 
L 781 331 
L 781 2994 
L 231 2994 
L 231 3322 
L 1356 3322 
L 1356 2731 
Q 1525 3078 1790 3245 
Q 2056 3413 2438 3413 
Q 2578 3413 2733 3391 
Q 2888 3369 3059 3328 
z
" transform="scale(0.015625)"/>
       <path id="DejaVuSerif-20" transform="scale(0.015625)"/>
       <path id="DejaVuSerif-6f" d="M 1925 219 
Q 2388 219 2623 584 
Q 2859 950 2859 1663 
Q 2859 2375 2623 2739 
Q 2388 3103 1925 3103 
Q 1463 3103 1227 2739 
Q 991 2375 991 1663 
Q 991 950 1228 584 
Q 1466 219 1925 219 
z
M 1925 -91 
Q 1200 -91 759 389 
Q 319 869 319 1663 
Q 319 2456 758 2934 
Q 1197 3413 1925 3413 
Q 2653 3413 3092 2934 
Q 3531 2456 3531 1663 
Q 3531 869 3092 389 
Q 2653 -91 1925 -91 
z
" transform="scale(0.015625)"/>
       <path id="DejaVuSerif-66" d="M 2753 4078 
L 2450 4078 
Q 2447 4313 2317 4434 
Q 2188 4556 1941 4556 
Q 1619 4556 1487 4379 
Q 1356 4203 1356 3750 
L 1356 3322 
L 2284 3322 
L 2284 2988 
L 1356 2988 
L 1356 331 
L 2094 331 
L 2094 0 
L 231 0 
L 231 331 
L 781 331 
L 781 2988 
L 231 2988 
L 231 3322 
L 781 3322 
L 781 3738 
Q 781 4294 1070 4578 
Q 1359 4863 1919 4863 
Q 2128 4863 2337 4825 
Q 2547 4788 2753 4709 
L 2753 4078 
z
" transform="scale(0.015625)"/>
       <path id="DejaVuSerif-48" d="M 353 0 
L 353 331 
L 947 331 
L 947 4331 
L 353 4331 
L 353 4666 
L 2175 4666 
L 2175 4331 
L 1581 4331 
L 1581 2719 
L 4000 2719 
L 4000 4331 
L 3406 4331 
L 3406 4666 
L 5228 4666 
L 5228 4331 
L 4634 4331 
L 4634 331 
L 5228 331 
L 5228 0 
L 3406 0 
L 3406 331 
L 4000 331 
L 4000 2338 
L 1581 2338 
L 1581 331 
L 2175 331 
L 2175 0 
L 353 0 
z
" transform="scale(0.015625)"/>
       <path id="DejaVuSerif-61" d="M 2547 1044 
L 2547 1747 
L 1806 1747 
Q 1378 1747 1168 1562 
Q 959 1378 959 997 
Q 959 650 1171 447 
Q 1384 244 1747 244 
Q 2106 244 2326 466 
Q 2547 688 2547 1044 
z
M 3122 2075 
L 3122 331 
L 3634 331 
L 3634 0 
L 2547 0 
L 2547 359 
Q 2356 128 2106 18 
Q 1856 -91 1522 -91 
Q 969 -91 644 203 
Q 319 497 319 997 
Q 319 1513 691 1797 
Q 1063 2081 1741 2081 
L 2547 2081 
L 2547 2309 
Q 2547 2688 2317 2895 
Q 2088 3103 1672 3103 
Q 1328 3103 1125 2947 
Q 922 2791 872 2484 
L 575 2484 
L 575 3156 
Q 875 3284 1158 3348 
Q 1441 3413 1709 3413 
Q 2400 3413 2761 3070 
Q 3122 2728 3122 2075 
z
" transform="scale(0.015625)"/>
       <path id="DejaVuSerif-64" d="M 3359 331 
L 3909 331 
L 3909 0 
L 2784 0 
L 2784 519 
Q 2616 206 2355 57 
Q 2094 -91 1709 -91 
Q 1097 -91 708 395 
Q 319 881 319 1663 
Q 319 2444 706 2928 
Q 1094 3413 1709 3413 
Q 2094 3413 2355 3264 
Q 2616 3116 2784 2803 
L 2784 4531 
L 2241 4531 
L 2241 4863 
L 3359 4863 
L 3359 331 
z
M 2784 1497 
L 2784 1825 
Q 2784 2422 2554 2737 
Q 2325 3053 1888 3053 
Q 1444 3053 1217 2703 
Q 991 2353 991 1663 
Q 991 975 1217 622 
Q 1444 269 1888 269 
Q 2325 269 2554 583 
Q 2784 897 2784 1497 
z
" transform="scale(0.015625)"/>
       <path id="DejaVuSerif-73" d="M 359 184 
L 359 959 
L 691 959 
Q 703 588 923 403 
Q 1144 219 1575 219 
Q 1963 219 2166 364 
Q 2369 509 2369 788 
Q 2369 1006 2220 1140 
Q 2072 1275 1594 1428 
L 1178 1569 
Q 750 1706 558 1912 
Q 366 2119 366 2438 
Q 366 2894 700 3153 
Q 1034 3413 1625 3413 
Q 1888 3413 2178 3344 
Q 2469 3275 2778 3144 
L 2778 2419 
L 2447 2419 
Q 2434 2741 2221 2922 
Q 2009 3103 1644 3103 
Q 1281 3103 1095 2975 
Q 909 2847 909 2591 
Q 909 2381 1050 2254 
Q 1191 2128 1613 1997 
L 2069 1856 
Q 2541 1709 2748 1489 
Q 2956 1269 2956 922 
Q 2956 450 2595 179 
Q 2234 -91 1600 -91 
Q 1278 -91 972 -22 
Q 666 47 359 184 
z
" transform="scale(0.015625)"/>
      </defs>
      <use xlink:href="#DejaVuSerif-4e"/>
      <use xlink:href="#DejaVuSerif-75" x="87.5"/>
      <use xlink:href="#DejaVuSerif-6d" x="151.904297"/>
      <use xlink:href="#DejaVuSerif-62" x="246.728516"/>
      <use xlink:href="#DejaVuSerif-65" x="310.742188"/>
      <use xlink:href="#DejaVuSerif-72" x="369.921875"/>
      <use xlink:href="#DejaVuSerif-20" x="417.724609"/>
      <use xlink:href="#DejaVuSerif-6f" x="449.511719"/>
      <use xlink:href="#DejaVuSerif-66" x="509.716797"/>
      <use xlink:href="#DejaVuSerif-20" x="546.728516"/>
      <use xlink:href="#DejaVuSerif-48" x="578.515625"/>
      <use xlink:href="#DejaVuSerif-65" x="665.722656"/>
      <use xlink:href="#DejaVuSerif-61" x="724.902344"/>
      <use xlink:href="#DejaVuSerif-64" x="784.521484"/>
      <use xlink:href="#DejaVuSerif-73" x="848.535156"/>
     </g>
    </g>
   </g>
   <g id="matplotlib.axis_2">
    <g id="ytick_1">
     <g id="line2d_14">
      <defs>
       <path id="mc5a6f70b68" d="M 0 0 
L -3.5 0 
" style="stroke: #030303; stroke-width: 0.8"/>
      </defs>
      <g>
       <use xlink:href="#mc5a6f70b68" x="60" y="267" style="fill: #030303; stroke: #030303; stroke-width: 0.8"/>
      </g>
     </g>
     <g id="text_15">
      <!-- $\mathdefault{0.00}$ -->
      <g style="fill: #030303" transform="translate(26.24 271.559062) scale(0.12 -0.12)">
       <defs>
        <path id="DejaVuSerif-2e" d="M 603 325 
Q 603 500 722 622 
Q 841 744 1019 744 
Q 1191 744 1312 622 
Q 1434 500 1434 325 
Q 1434 153 1312 31 
Q 1191 -91 1019 -91 
Q 841 -91 722 29 
Q 603 150 603 325 
z
" transform="scale(0.015625)"/>
       </defs>
       <use xlink:href="#DejaVuSerif-30" transform="translate(0 0.78125)"/>
       <use xlink:href="#DejaVuSerif-2e" transform="translate(63.623047 0.78125)"/>
       <use xlink:href="#DejaVuSerif-30" transform="translate(95.410156 0.78125)"/>
       <use xlink:href="#DejaVuSerif-30" transform="translate(159.033203 0.78125)"/>
      </g>
     </g>
    </g>
    <g id="ytick_2">
     <g id="line2d_15">
      <g>
       <use xlink:href="#mc5a6f70b68" x="60" y="238.125" style="fill: #030303; stroke: #030303; stroke-width: 0.8"/>
      </g>
     </g>
     <g id="text_16">
      <!-- $\mathdefault{0.02}$ -->
      <g style="fill: #030303" transform="translate(26.24 242.684063) scale(0.12 -0.12)">
       <use xlink:href="#DejaVuSerif-30" transform="translate(0 0.78125)"/>
       <use xlink:href="#DejaVuSerif-2e" transform="translate(63.623047 0.78125)"/>
       <use xlink:href="#DejaVuSerif-30" transform="translate(95.410156 0.78125)"/>
       <use xlink:href="#DejaVuSerif-32" transform="translate(159.033203 0.78125)"/>
      </g>
     </g>
    </g>
    <g id="ytick_3">
     <g id="line2d_16">
      <g>
       <use xlink:href="#mc5a6f70b68" x="60" y="209.25" style="fill: #030303; stroke: #030303; stroke-width: 0.8"/>
      </g>
     </g>
     <g id="text_17">
      <!-- $\mathdefault{0.04}$ -->
      <g style="fill: #030303" transform="translate(26.24 213.809062) scale(0.12 -0.12)">
       <use xlink:href="#DejaVuSerif-30" transform="translate(0 0.78125)"/>
       <use xlink:href="#DejaVuSerif-2e" transform="translate(63.623047 0.78125)"/>
       <use xlink:href="#DejaVuSerif-30" transform="translate(95.410156 0.78125)"/>
       <use xlink:href="#DejaVuSerif-34" transform="translate(159.033203 0.78125)"/>
      </g>
     </g>
    </g>
    <g id="ytick_4">
     <g id="line2d_17">
      <g>
       <use xlink:href="#mc5a6f70b68" x="60" y="180.375" style="fill: #030303; stroke: #030303; stroke-width: 0.8"/>
      </g>
     </g>
     <g id="text_18">
      <!-- $\mathdefault{0.06}$ -->
      <g style="fill: #030303" transform="translate(26.24 184.934062) scale(0.12 -0.12)">
       <use xlink:href="#DejaVuSerif-30" transform="translate(0 0.78125)"/>
       <use xlink:href="#DejaVuSerif-2e" transform="translate(63.623047 0.78125)"/>
       <use xlink:href="#DejaVuSerif-30" transform="translate(95.410156 0.78125)"/>
       <use xlink:href="#DejaVuSerif-36" transform="translate(159.033203 0.78125)"/>
      </g>
     </g>
    </g>
    <g id="ytick_5">
     <g id="line2d_18">
      <g>
       <use xlink:href="#mc5a6f70b68" x="60" y="151.5" style="fill: #030303; stroke: #030303; stroke-width: 0.8"/>
      </g>
     </g>
     <g id="text_19">
      <!-- $\mathdefault{0.08}$ -->
      <g style="fill: #030303" transform="translate(26.24 156.059063) scale(0.12 -0.12)">
       <use xlink:href="#DejaVuSerif-30" transform="translate(0 0.78125)"/>
       <use xlink:href="#DejaVuSerif-2e" transform="translate(63.623047 0.78125)"/>
       <use xlink:href="#DejaVuSerif-30" transform="translate(95.410156 0.78125)"/>
       <use xlink:href="#DejaVuSerif-38" transform="translate(159.033203 0.78125)"/>
      </g>
     </g>
    </g>
    <g id="ytick_6">
     <g id="line2d_19">
      <g>
       <use xlink:href="#mc5a6f70b68" x="60" y="122.625" style="fill: #030303; stroke: #030303; stroke-width: 0.8"/>
      </g>
     </g>
     <g id="text_20">
      <!-- $\mathdefault{0.10}$ -->
      <g style="fill: #030303" transform="translate(26.24 127.184063) scale(0.12 -0.12)">
       <use xlink:href="#DejaVuSerif-30" transform="translate(0 0.78125)"/>
       <use xlink:href="#DejaVuSerif-2e" transform="translate(63.623047 0.78125)"/>
       <use xlink:href="#DejaVuSerif-31" transform="translate(95.410156 0.78125)"/>
       <use xlink:href="#DejaVuSerif-30" transform="translate(159.033203 0.78125)"/>
      </g>
     </g>
    </g>
    <g id="ytick_7">
     <g id="line2d_20">
      <g>
       <use xlink:href="#mc5a6f70b68" x="60" y="93.75" style="fill: #030303; stroke: #030303; stroke-width: 0.8"/>
      </g>
     </g>
     <g id="text_21">
      <!-- $\mathdefault{0.12}$ -->
      <g style="fill: #030303" transform="translate(26.24 98.309063) scale(0.12 -0.12)">
       <use xlink:href="#DejaVuSerif-30" transform="translate(0 0.78125)"/>
       <use xlink:href="#DejaVuSerif-2e" transform="translate(63.623047 0.78125)"/>
       <use xlink:href="#DejaVuSerif-31" transform="translate(95.410156 0.78125)"/>
       <use xlink:href="#DejaVuSerif-32" transform="translate(159.033203 0.78125)"/>
      </g>
     </g>
    </g>
    <g id="ytick_8">
     <g id="line2d_21">
      <g>
       <use xlink:href="#mc5a6f70b68" x="60" y="64.875" style="fill: #030303; stroke: #030303; stroke-width: 0.8"/>
      </g>
     </g>
     <g id="text_22">
      <!-- $\mathdefault{0.14}$ -->
      <g style="fill: #030303" transform="translate(26.24 69.434062) scale(0.12 -0.12)">
       <use xlink:href="#DejaVuSerif-30" transform="translate(0 0.78125)"/>
       <use xlink:href="#DejaVuSerif-2e" transform="translate(63.623047 0.78125)"/>
       <use xlink:href="#DejaVuSerif-31" transform="translate(95.410156 0.78125)"/>
       <use xlink:href="#DejaVuSerif-34" transform="translate(159.033203 0.78125)"/>
      </g>
     </g>
    </g>
    <g id="ytick_9">
     <g id="line2d_22">
      <g>
       <use xlink:href="#mc5a6f70b68" x="60" y="36" style="fill: #030303; stroke: #030303; stroke-width: 0.8"/>
      </g>
     </g>
     <g id="text_23">
      <!-- $\mathdefault{0.16}$ -->
      <g style="fill: #030303" transform="translate(26.24 40.559062) scale(0.12 -0.12)">
       <use xlink:href="#DejaVuSerif-30" transform="translate(0 0.78125)"/>
       <use xlink:href="#DejaVuSerif-2e" transform="translate(63.623047 0.78125)"/>
       <use xlink:href="#DejaVuSerif-31" transform="translate(95.410156 0.78125)"/>
       <use xlink:href="#DejaVuSerif-36" transform="translate(159.033203 0.78125)"/>
      </g>
     </g>
    </g>
    <g id="text_24">
     <!-- Probability -->
     <g style="fill: #030303" transform="translate(18.240625 201.502031) rotate(-90) scale(0.18 -0.18)">
      <defs>
       <path id="DejaVuSerif-50" d="M 1581 2375 
L 2406 2375 
Q 2872 2375 3115 2626 
Q 3359 2878 3359 3353 
Q 3359 3831 3115 4081 
Q 2872 4331 2406 4331 
L 1581 4331 
L 1581 2375 
z
M 353 0 
L 353 331 
L 947 331 
L 947 4331 
L 353 4331 
L 353 4666 
L 2559 4666 
Q 3259 4666 3668 4311 
Q 4078 3956 4078 3353 
Q 4078 2753 3668 2397 
Q 3259 2041 2559 2041 
L 1581 2041 
L 1581 331 
L 2303 331 
L 2303 0 
L 353 0 
z
" transform="scale(0.015625)"/>
       <path id="DejaVuSerif-69" d="M 622 4353 
Q 622 4497 726 4603 
Q 831 4709 978 4709 
Q 1122 4709 1226 4603 
Q 1331 4497 1331 4353 
Q 1331 4206 1228 4103 
Q 1125 4000 978 4000 
Q 831 4000 726 4103 
Q 622 4206 622 4353 
z
M 1356 331 
L 1900 331 
L 1900 0 
L 231 0 
L 231 331 
L 781 331 
L 781 2988 
L 231 2988 
L 231 3322 
L 1356 3322 
L 1356 331 
z
" transform="scale(0.015625)"/>
       <path id="DejaVuSerif-6c" d="M 1313 331 
L 1856 331 
L 1856 0 
L 184 0 
L 184 331 
L 738 331 
L 738 4531 
L 184 4531 
L 184 4863 
L 1313 4863 
L 1313 331 
z
" transform="scale(0.015625)"/>
       <path id="DejaVuSerif-74" d="M 691 2988 
L 184 2988 
L 184 3322 
L 691 3322 
L 691 4353 
L 1269 4353 
L 1269 3322 
L 2350 3322 
L 2350 2988 
L 1269 2988 
L 1269 878 
Q 1269 456 1350 337 
Q 1431 219 1650 219 
Q 1875 219 1978 351 
Q 2081 484 2088 781 
L 2522 781 
Q 2497 328 2275 118 
Q 2053 -91 1600 -91 
Q 1103 -91 897 129 
Q 691 350 691 878 
L 691 2988 
z
" transform="scale(0.015625)"/>
       <path id="DejaVuSerif-79" d="M 1381 -609 
L 1600 -56 
L 359 2988 
L -19 2988 
L -19 3322 
L 1509 3322 
L 1509 2988 
L 978 2988 
L 1913 703 
L 2847 2988 
L 2350 2988 
L 2350 3322 
L 3597 3322 
L 3597 2988 
L 3225 2988 
L 1703 -750 
Q 1547 -1138 1356 -1280 
Q 1166 -1422 819 -1422 
Q 672 -1422 517 -1397 
Q 363 -1372 206 -1325 
L 206 -691 
L 500 -691 
Q 519 -903 608 -995 
Q 697 -1088 884 -1088 
Q 1056 -1088 1161 -992 
Q 1266 -897 1381 -609 
z
" transform="scale(0.015625)"/>
      </defs>
      <use xlink:href="#DejaVuSerif-50"/>
      <use xlink:href="#DejaVuSerif-72" x="67.285156"/>
      <use xlink:href="#DejaVuSerif-6f" x="115.087891"/>
      <use xlink:href="#DejaVuSerif-62" x="175.292969"/>
      <use xlink:href="#DejaVuSerif-61" x="239.306641"/>
      <use xlink:href="#DejaVuSerif-62" x="298.925781"/>
      <use xlink:href="#DejaVuSerif-69" x="362.939453"/>
      <use xlink:href="#DejaVuSerif-6c" x="394.921875"/>
      <use xlink:href="#DejaVuSerif-69" x="426.904297"/>
      <use xlink:href="#DejaVuSerif-74" x="458.886719"/>
      <use xlink:href="#DejaVuSerif-79" x="499.072266"/>
     </g>
    </g>
   </g>
   <g id="patch_3">
    <path d="M 60 267 
L 60 36 
" style="fill: none; stroke: #030303; stroke-width: 1.5; stroke-linejoin: miter; stroke-linecap: square"/>
   </g>
   <g id="patch_4">
    <path d="M 60 267 
L 432 267 
" style="fill: none; stroke: #030303; stroke-width: 1.5; stroke-linejoin: miter; stroke-linecap: square"/>
   </g>
  </g>
  <g id="axes_2">
   <g id="matplotlib.axis_3"/>
   <g id="LineCollection_1">
    <path d="M 60 267 
L 60 266.999995 
" clip-path="url(#pd215b56269)" style="fill: none; stroke: #7f7f7f; stroke-width: 1.5"/>
    <path d="M 72.827586 267 
L 72.827586 266.999849 
" clip-path="url(#pd215b56269)" style="fill: none; stroke: #7f7f7f; stroke-width: 1.5"/>
    <path d="M 85.655172 267 
L 85.655172 266.997967 
" clip-path="url(#pd215b56269)" style="fill: none; stroke: #7f7f7f; stroke-width: 1.5"/>
    <path d="M 98.482759 267 
L 98.482759 266.98238 
" clip-path="url(#pd215b56269)" style="fill: none; stroke: #7f7f7f; stroke-width: 1.5"/>
    <path d="M 111.310345 267 
L 111.310345 266.889878 
" clip-path="url(#pd215b56269)" style="fill: none; stroke: #7f7f7f; stroke-width: 1.5"/>
    <path d="M 124.137931 267 
L 124.137931 266.471412 
" clip-path="url(#pd215b56269)" style="fill: none; stroke: #7f7f7f; stroke-width: 1.5"/>
    <path d="M 136.965517 267 
L 136.965517 264.973746 
" clip-path="url(#pd215b56269)" style="fill: none; stroke: #7f7f7f; stroke-width: 1.5"/>
    <path d="M 149.793103 267 
L 149.793103 260.631774 
" clip-path="url(#pd215b56269)" style="fill: none; stroke: #7f7f7f; stroke-width: 1.5"/>
    <path d="M 162.62069 267 
L 162.62069 250.283406 
" clip-path="url(#pd215b56269)" style="fill: none; stroke: #7f7f7f; stroke-width: 1.5"/>
    <path d="M 175.448276 267 
L 175.448276 229.852013 
" clip-path="url(#pd215b56269)" style="fill: none; stroke: #7f7f7f; stroke-width: 1.5"/>
    <path d="M 188.275862 267 
L 188.275862 196.418824 
" clip-path="url(#pd215b56269)" style="fill: none; stroke: #7f7f7f; stroke-width: 1.5"/>
    <path d="M 201.103448 267 
L 201.103448 151.503531 
" clip-path="url(#pd215b56269)" style="fill: none; stroke: #7f7f7f; stroke-width: 1.5"/>
    <path d="M 213.931034 267 
L 213.931034 103.380002 
" clip-path="url(#pd215b56269)" style="fill: none; stroke: #7f7f7f; stroke-width: 1.5"/>
    <path d="M 226.758621 267 
L 226.758621 65.621541 
" clip-path="url(#pd215b56269)" style="fill: none; stroke: #7f7f7f; stroke-width: 1.5"/>
    <path d="M 239.586207 267 
L 239.586207 51.237365 
" clip-path="url(#pd215b56269)" style="fill: none; stroke: #7f7f7f; stroke-width: 1.5"/>
    <path d="M 252.413793 267 
L 252.413793 65.621541 
" clip-path="url(#pd215b56269)" style="fill: none; stroke: #7f7f7f; stroke-width: 1.5"/>
    <path d="M 265.241379 267 
L 265.241379 103.380002 
" clip-path="url(#pd215b56269)" style="fill: none; stroke: #7f7f7f; stroke-width: 1.5"/>
    <path d="M 278.068966 267 
L 278.068966 151.503531 
" clip-path="url(#pd215b56269)" style="fill: none; stroke: #7f7f7f; stroke-width: 1.5"/>
    <path d="M 290.896552 267 
L 290.896552 196.418824 
" clip-path="url(#pd215b56269)" style="fill: none; stroke: #7f7f7f; stroke-width: 1.5"/>
    <path d="M 303.724138 267 
L 303.724138 229.852013 
" clip-path="url(#pd215b56269)" style="fill: none; stroke: #7f7f7f; stroke-width: 1.5"/>
    <path d="M 316.551724 267 
L 316.551724 250.283406 
" clip-path="url(#pd215b56269)" style="fill: none; stroke: #7f7f7f; stroke-width: 1.5"/>
    <path d="M 329.37931 267 
L 329.37931 260.631774 
" clip-path="url(#pd215b56269)" style="fill: none; stroke: #7f7f7f; stroke-width: 1.5"/>
    <path d="M 342.206897 267 
L 342.206897 264.973746 
" clip-path="url(#pd215b56269)" style="fill: none; stroke: #7f7f7f; stroke-width: 1.5"/>
    <path d="M 355.034483 267 
L 355.034483 266.471412 
" clip-path="url(#pd215b56269)" style="fill: none; stroke: #7f7f7f; stroke-width: 1.5"/>
    <path d="M 367.862069 267 
L 367.862069 266.889878 
" clip-path="url(#pd215b56269)" style="fill: none; stroke: #7f7f7f; stroke-width: 1.5"/>
    <path d="M 380.689655 267 
L 380.689655 266.98238 
" clip-path="url(#pd215b56269)" style="fill: none; stroke: #7f7f7f; stroke-width: 1.5"/>
    <path d="M 393.517241 267 
L 393.517241 266.997967 
" clip-path="url(#pd215b56269)" style="fill: none; stroke: #7f7f7f; stroke-width: 1.5"/>
    <path d="M 406.344828 267 
L 406.344828 266.999849 
" clip-path="url(#pd215b56269)" style="fill: none; stroke: #7f7f7f; stroke-width: 1.5"/>
    <path d="M 419.172414 267 
L 419.172414 266.999995 
" clip-path="url(#pd215b56269)" style="fill: none; stroke: #7f7f7f; stroke-width: 1.5"/>
   </g>
   <g id="line2d_23">
    <defs>
     <path id="mec280d5960" d="M 0 3.5 
C 0.928211 3.5 1.81853 3.131218 2.474874 2.474874 
C 3.131218 1.81853 3.5 0.928211 3.5 0 
C 3.5 -0.928211 3.131218 -1.81853 2.474874 -2.474874 
C 1.81853 -3.131218 0.928211 -3.5 0 -3.5 
C -0.928211 -3.5 -1.81853 -3.131218 -2.474874 -2.474874 
C -3.131218 -1.81853 -3.5 -0.928211 -3.5 0 
C -3.5 0.928211 -3.131218 1.81853 -2.474874 2.474874 
C -1.81853 3.131218 -0.928211 3.5 0 3.5 
z
" style="stroke: #000000"/>
    </defs>
    <g clip-path="url(#pd215b56269)">
     <use xlink:href="#mec280d5960" x="60" y="266.999995" style="stroke: #000000"/>
     <use xlink:href="#mec280d5960" x="72.827586" y="266.999849" style="stroke: #000000"/>
     <use xlink:href="#mec280d5960" x="85.655172" y="266.997967" style="stroke: #000000"/>
     <use xlink:href="#mec280d5960" x="98.482759" y="266.98238" style="stroke: #000000"/>
     <use xlink:href="#mec280d5960" x="111.310345" y="266.889878" style="stroke: #000000"/>
     <use xlink:href="#mec280d5960" x="124.137931" y="266.471412" style="stroke: #000000"/>
     <use xlink:href="#mec280d5960" x="136.965517" y="264.973746" style="stroke: #000000"/>
     <use xlink:href="#mec280d5960" x="149.793103" y="260.631774" style="stroke: #000000"/>
     <use xlink:href="#mec280d5960" x="162.62069" y="250.283406" style="stroke: #000000"/>
     <use xlink:href="#mec280d5960" x="175.448276" y="229.852013" style="stroke: #000000"/>
     <use xlink:href="#mec280d5960" x="188.275862" y="196.418824" style="stroke: #000000"/>
     <use xlink:href="#mec280d5960" x="201.103448" y="151.503531" style="stroke: #000000"/>
     <use xlink:href="#mec280d5960" x="213.931034" y="103.380002" style="stroke: #000000"/>
     <use xlink:href="#mec280d5960" x="226.758621" y="65.621541" style="stroke: #000000"/>
     <use xlink:href="#mec280d5960" x="239.586207" y="51.237365" style="stroke: #000000"/>
     <use xlink:href="#mec280d5960" x="252.413793" y="65.621541" style="stroke: #000000"/>
     <use xlink:href="#mec280d5960" x="265.241379" y="103.380002" style="stroke: #000000"/>
     <use xlink:href="#mec280d5960" x="278.068966" y="151.503531" style="stroke: #000000"/>
     <use xlink:href="#mec280d5960" x="290.896552" y="196.418824" style="stroke: #000000"/>
     <use xlink:href="#mec280d5960" x="303.724138" y="229.852013" style="stroke: #000000"/>
     <use xlink:href="#mec280d5960" x="316.551724" y="250.283406" style="stroke: #000000"/>
     <use xlink:href="#mec280d5960" x="329.37931" y="260.631774" style="stroke: #000000"/>
     <use xlink:href="#mec280d5960" x="342.206897" y="264.973746" style="stroke: #000000"/>
     <use xlink:href="#mec280d5960" x="355.034483" y="266.471412" style="stroke: #000000"/>
     <use xlink:href="#mec280d5960" x="367.862069" y="266.889878" style="stroke: #000000"/>
     <use xlink:href="#mec280d5960" x="380.689655" y="266.98238" style="stroke: #000000"/>
     <use xlink:href="#mec280d5960" x="393.517241" y="266.997967" style="stroke: #000000"/>
     <use xlink:href="#mec280d5960" x="406.344828" y="266.999849" style="stroke: #000000"/>
     <use xlink:href="#mec280d5960" x="419.172414" y="266.999995" style="stroke: #000000"/>
    </g>
   </g>
   <g id="line2d_24"/>
   <g id="patch_5">
    <path d="M 60 267 
L 60 36 
" style="fill: none; stroke: #030303; stroke-width: 1.5; stroke-linejoin: miter; stroke-linecap: square"/>
   </g>
   <g id="patch_6">
    <path d="M 60 267 
L 432 267 
" style="fill: none; stroke: #030303; stroke-width: 1.5; stroke-linejoin: miter; stroke-linecap: square"/>
   </g>
  </g>
  <g id="axes_3">
   <g id="matplotlib.axis_4"/>
   <g id="patch_7">
    <path d="M 303.974138 94.690073 
Q 303.974138 152.660656 303.974138 210.63124 
L 309.724138 210.63124 
Q 306.724138 216.630351 303.724138 222.629462 
Q 300.724138 216.630351 297.724138 210.63124 
L 303.474138 210.63124 
Q 303.474138 152.660656 303.474138 94.690073 
L 303.974138 94.690073 
z
" style="fill: #ff5e5b; stroke: #ff5e5b; stroke-linecap: round"/>
   </g>
   <g id="text_25">
    <!-- 0.0257 -->
    <g style="fill: #030303" transform="translate(303.724138 83.397325) scale(0.1 -0.1)">
     <defs>
      <path id="DejaVuSerif-35" d="M 3219 4666 
L 3219 4153 
L 1081 4153 
L 1081 2816 
Q 1244 2928 1461 2984 
Q 1678 3041 1947 3041 
Q 2703 3041 3140 2622 
Q 3578 2203 3578 1478 
Q 3578 738 3136 323 
Q 2694 -91 1894 -91 
Q 1572 -91 1234 -12 
Q 897 66 544 225 
L 544 1131 
L 897 1131 
Q 925 688 1179 453 
Q 1434 219 1894 219 
Q 2388 219 2653 544 
Q 2919 869 2919 1478 
Q 2919 2084 2655 2407 
Q 2391 2731 1894 2731 
Q 1613 2731 1398 2631 
Q 1184 2531 1019 2322 
L 750 2322 
L 750 4666 
L 3219 4666 
z
" transform="scale(0.015625)"/>
      <path id="DejaVuSerif-37" d="M 3609 4347 
L 1784 0 
L 1319 0 
L 3059 4153 
L 903 4153 
L 903 3578 
L 538 3578 
L 538 4666 
L 3609 4666 
L 3609 4347 
z
" transform="scale(0.015625)"/>
     </defs>
     <use xlink:href="#DejaVuSerif-30"/>
     <use xlink:href="#DejaVuSerif-2e" x="63.623047"/>
     <use xlink:href="#DejaVuSerif-30" x="95.410156"/>
     <use xlink:href="#DejaVuSerif-32" x="159.033203"/>
     <use xlink:href="#DejaVuSerif-35" x="222.65625"/>
     <use xlink:href="#DejaVuSerif-37" x="286.279297"/>
    </g>
   </g>
  </g>
  <g id="axes_4">
   <g id="matplotlib.axis_5"/>
   <g id="patch_8">
    <path d="M 316.801724 128.849024 
Q 316.801724 180.31821 316.801724 231.787396 
L 322.551724 231.787396 
Q 319.551724 237.787194 316.551724 243.786992 
Q 313.551724 237.787194 310.551724 231.787396 
L 316.301724 231.787396 
Q 316.301724 180.31821 316.301724 128.849024 
L 316.801724 128.849024 
z
" style="fill: #ff5e5b; stroke: #ff5e5b; stroke-linecap: round"/>
   </g>
   <g id="text_26">
    <!-- 0.0116 -->
    <g style="fill: #030303" transform="translate(316.551724 118.266218) scale(0.1 -0.1)">
     <use xlink:href="#DejaVuSerif-30"/>
     <use xlink:href="#DejaVuSerif-2e" x="63.623047"/>
     <use xlink:href="#DejaVuSerif-30" x="95.410156"/>
     <use xlink:href="#DejaVuSerif-31" x="159.033203"/>
     <use xlink:href="#DejaVuSerif-31" x="222.65625"/>
     <use xlink:href="#DejaVuSerif-36" x="286.279297"/>
    </g>
   </g>
  </g>
  <g id="axes_5">
   <g id="matplotlib.axis_6"/>
   <g id="patch_9">
    <path d="M 329.62931 152.904461 
Q 329.62931 197.879841 329.62931 242.855222 
L 335.37931 242.855222 
Q 332.37931 248.855362 329.37931 254.855501 
Q 326.37931 248.855362 323.37931 242.855222 
L 329.12931 242.855222 
Q 329.12931 197.879841 329.12931 152.904461 
L 329.62931 152.904461 
z
" style="fill: #ff5e5b; stroke: #ff5e5b; stroke-linecap: round"/>
   </g>
   <g id="text_27">
    <!-- 0.0044 -->
    <g style="fill: #030303" transform="translate(329.37931 143.052086) scale(0.1 -0.1)">
     <use xlink:href="#DejaVuSerif-30"/>
     <use xlink:href="#DejaVuSerif-2e" x="63.623047"/>
     <use xlink:href="#DejaVuSerif-30" x="95.410156"/>
     <use xlink:href="#DejaVuSerif-30" x="159.033203"/>
     <use xlink:href="#DejaVuSerif-34" x="222.65625"/>
     <use xlink:href="#DejaVuSerif-34" x="286.279297"/>
    </g>
   </g>
  </g>
  <g id="axes_6">
   <g id="matplotlib.axis_7"/>
   <g id="patch_10">
    <path d="M 342.456897 170.964477 
Q 342.456897 209.442049 342.456897 247.919622 
L 348.206897 247.919622 
Q 345.206897 253.920586 342.206897 259.921551 
Q 339.206897 253.920586 336.206897 247.919622 
L 341.956897 247.919622 
Q 341.956897 209.442049 341.956897 170.964477 
L 342.456897 170.964477 
z
" style="fill: #ff5e5b; stroke: #ff5e5b; stroke-linecap: round"/>
   </g>
   <g id="text_28">
    <!-- 0.0014 -->
    <g style="fill: #030303" transform="translate(342.206897 161.831559) scale(0.1 -0.1)">
     <use xlink:href="#DejaVuSerif-30"/>
     <use xlink:href="#DejaVuSerif-2e" x="63.623047"/>
     <use xlink:href="#DejaVuSerif-30" x="95.410156"/>
     <use xlink:href="#DejaVuSerif-30" x="159.033203"/>
     <use xlink:href="#DejaVuSerif-31" x="222.65625"/>
     <use xlink:href="#DejaVuSerif-34" x="286.279297"/>
    </g>
   </g>
  </g>
  <g id="axes_7">
   <g id="matplotlib.axis_8"/>
   <g id="patch_11">
    <path d="M 355.284483 186.178481 
Q 355.284483 218.159247 355.284483 250.140013 
L 361.034483 250.140013 
Q 358.034483 256.142057 355.034483 262.144101 
Q 352.034483 256.142057 349.034483 250.140013 
L 354.784483 250.140013 
Q 354.784483 218.159247 354.784483 186.178481 
L 355.284483 186.178481 
z
" style="fill: #ff5e5b; stroke: #ff5e5b; stroke-linecap: round"/>
   </g>
   <g id="text_29">
    <!-- 0.0004 -->
    <g style="fill: #030303" transform="translate(355.034483 177.766725) scale(0.1 -0.1)">
     <use xlink:href="#DejaVuSerif-30"/>
     <use xlink:href="#DejaVuSerif-2e" x="63.623047"/>
     <use xlink:href="#DejaVuSerif-30" x="95.410156"/>
     <use xlink:href="#DejaVuSerif-30" x="159.033203"/>
     <use xlink:href="#DejaVuSerif-30" x="222.65625"/>
     <use xlink:href="#DejaVuSerif-34" x="286.279297"/>
    </g>
   </g>
  </g>
  <g id="axes_8">
   <g id="matplotlib.axis_9"/>
   <g id="patch_12">
    <path d="M 368.112069 200.309827 
Q 368.112069 225.792331 368.112069 251.274835 
L 373.862069 251.274835 
Q 370.862069 257.276031 367.862069 263.277227 
Q 364.862069 257.276031 361.862069 251.274835 
L 367.612069 251.274835 
Q 367.612069 225.792331 367.612069 200.309827 
L 368.112069 200.309827 
z
" style="fill: #ff5e5b; stroke: #ff5e5b; stroke-linecap: round"/>
   </g>
   <g id="text_30">
    <!-- 0.0001 -->
    <g style="fill: #030303" transform="translate(367.862069 192.62269) scale(0.1 -0.1)">
     <use xlink:href="#DejaVuSerif-30"/>
     <use xlink:href="#DejaVuSerif-2e" x="63.623047"/>
     <use xlink:href="#DejaVuSerif-30" x="95.410156"/>
     <use xlink:href="#DejaVuSerif-30" x="159.033203"/>
     <use xlink:href="#DejaVuSerif-30" x="222.65625"/>
     <use xlink:href="#DejaVuSerif-31" x="286.279297"/>
    </g>
   </g>
  </g>
  <g id="axes_9">
   <g id="matplotlib.axis_10"/>
   <g id="patch_13">
    <path d="M 380.939655 214.119907 
Q 380.939655 233.105993 380.939655 252.09208 
L 386.689655 252.09208 
Q 383.689655 258.093385 380.689655 264.09469 
Q 377.689655 258.093385 374.689655 252.09208 
L 380.439655 252.09208 
Q 380.439655 233.105993 380.439655 214.119907 
L 380.939655 214.119907 
z
" style="fill: #ff5e5b; stroke: #ff5e5b; stroke-linecap: round"/>
   </g>
   <g id="text_31">
    <!-- 0.0000 -->
    <g style="fill: #030303" transform="translate(380.689655 207.152693) scale(0.1 -0.1)">
     <use xlink:href="#DejaVuSerif-30"/>
     <use xlink:href="#DejaVuSerif-2e" x="63.623047"/>
     <use xlink:href="#DejaVuSerif-30" x="95.410156"/>
     <use xlink:href="#DejaVuSerif-30" x="159.033203"/>
     <use xlink:href="#DejaVuSerif-30" x="222.65625"/>
     <use xlink:href="#DejaVuSerif-30" x="286.279297"/>
    </g>
   </g>
  </g>
  <g id="axes_10">
   <g id="matplotlib.axis_11"/>
   <g id="patch_14">
    <path d="M 393.767241 225.850563 
Q 393.767241 239.342736 393.767241 252.83491 
L 399.517241 252.83491 
Q 396.517241 258.832753 393.517241 264.830596 
Q 390.517241 258.832753 387.517241 252.83491 
L 393.267241 252.83491 
Q 393.267241 239.342736 393.267241 225.850563 
L 393.767241 225.850563 
z
" style="fill: #ff5e5b; stroke: #ff5e5b; stroke-linecap: round"/>
   </g>
  </g>
  <g id="axes_11">
   <g id="matplotlib.axis_12"/>
   <g id="patch_15">
    <path d="M 406.594828 232.708143 
Q 406.594828 242.953695 406.594828 253.199247 
L 412.344828 253.199247 
Q 409.344828 259.197465 406.344828 265.195684 
Q 403.344828 259.197465 400.344828 253.199247 
L 406.094828 253.199247 
Q 406.094828 242.953695 406.094828 232.708143 
L 406.594828 232.708143 
z
" style="fill: #ff5e5b; stroke: #ff5e5b; stroke-linecap: round"/>
   </g>
  </g>
  <g id="axes_12">
   <g id="matplotlib.axis_13"/>
   <g id="patch_16">
    <path d="M 419.422414 232.708289 
Q 419.422414 242.95384 419.422414 253.199392 
L 425.172414 253.199392 
Q 422.172414 259.197611 419.172414 265.195829 
Q 416.172414 259.197611 413.172414 253.199392 
L 418.922414 253.199392 
Q 418.922414 242.95384 418.922414 232.708289 
L 419.422414 232.708289 
z
" style="fill: #ff5e5b; stroke: #ff5e5b; stroke-linecap: round"/>
   </g>
  </g>
 </g>
 <defs>
  <clipPath id="pd215b56269">
   <rect x="60" y="36" width="372" height="231"/>
  </clipPath>
 </defs>
</svg>
