<?xml version="1.0" encoding="utf-8" standalone="no"?>
<!DOCTYPE svg PUBLIC "-//W3C//DTD SVG 1.1//EN"
  "http://www.w3.org/Graphics/SVG/1.1/DTD/svg11.dtd">
<svg xmlns:xlink="http://www.w3.org/1999/xlink" width="457.92pt" height="457.92pt" viewBox="0 0 457.92 457.92" xmlns="http://www.w3.org/2000/svg" version="1.1">
 <metadata>
  <rdf:RDF xmlns:dc="http://purl.org/dc/elements/1.1/" xmlns:cc="http://creativecommons.org/ns#" xmlns:rdf="http://www.w3.org/1999/02/22-rdf-syntax-ns#">
   <cc:Work>
    <dc:type rdf:resource="http://purl.org/dc/dcmitype/StillImage"/>
    <dc:date>2025-02-05T15:38:20.359409</dc:date>
    <dc:format>image/svg+xml</dc:format>
    <dc:creator>
     <cc:Agent>
      <dc:title>Matplotlib v3.10.0, https://matplotlib.org/</dc:title>
     </cc:Agent>
    </dc:creator>
   </cc:Work>
  </rdf:RDF>
 </metadata>
 <defs>
  <style type="text/css">*{stroke-linejoin: round; stroke-linecap: butt}</style>
 </defs>
 <g id="figure_1">
  <g id="patch_1">
   <path d="M 0 457.92 
L 457.92 457.92 
L 457.92 0 
L 0 0 
L 0 457.92 
z
" style="fill: none"/>
  </g>
  <g id="patch_2">
   <path d="M 7.2 450.72 
L 450.72 450.72 
L 450.72 7.2 
L 7.2 7.2 
L 7.2 450.72 
z
" style="fill: none; opacity: 0"/>
  </g>
  <g id="axes_1">
   <g id="line2d_1">
    <path d="M 138.058121 399.363302 
L 136.793634 266.14986 
" clip-path="url(#p56b3306f0e)" style="fill: none; stroke: #666666; stroke-width: 2; stroke-linecap: square"/>
   </g>
  </g>
  <g id="patch_3">
   <path d="M 7.2 450.72 
L 450.72 450.72 
L 450.72 7.2 
L 7.2 7.2 
L 7.2 450.72 
z
" style="fill: none; opacity: 0"/>
  </g>
  <g id="axes_2">
   <g id="Poly3DCollection_1">
    <path d="M 162.474157 225.673145 
L 173.909824 227.191444 
L 180.882101 224.566903 
L 169.481211 223.062842 
z
" clip-path="url(#p56b3306f0e)" style="fill: #4682b4; fill-opacity: 0.8"/>
    <path d="M 173.909824 227.191444 
L 185.408097 228.718054 
L 192.345111 226.07916 
L 180.882101 224.566903 
z
" clip-path="url(#p56b3306f0e)" style="fill: #4682b4; fill-opacity: 0.8"/>
    <path d="M 155.400709 228.308181 
L 166.871302 229.84092 
L 173.909824 227.191444 
L 162.474157 225.673145 
z
" clip-path="url(#p56b3306f0e)" style="fill: #4682b4; fill-opacity: 0.8"/>
    <path d="M 185.408097 228.718054 
L 196.96949 230.253046 
L 203.870751 227.59968 
L 192.345111 226.07916 
z
" clip-path="url(#p56b3306f0e)" style="fill: #4682b4; fill-opacity: 0.8"/>
    <path d="M 166.871302 229.84092 
L 178.404991 231.38209 
L 185.408097 228.718054 
L 173.909824 227.191444 
z
" clip-path="url(#p56b3306f0e)" style="fill: #4682b4; fill-opacity: 0.8"/>
    <path d="M 196.96949 230.253046 
L 208.594526 231.796487 
L 215.459535 229.128529 
L 203.870751 227.59968 
z
" clip-path="url(#p56b3306f0e)" style="fill: #4682b4; fill-opacity: 0.8"/>
    <path d="M 148.259919 230.968304 
L 159.765586 232.515691 
L 166.871302 229.84092 
L 155.400709 228.308181 
z
" clip-path="url(#p56b3306f0e)" style="fill: #4682b4; fill-opacity: 0.8"/>
    <path d="M 178.404991 231.38209 
L 190.002297 232.931761 
L 196.96949 230.253046 
L 185.408097 228.718054 
z
" clip-path="url(#p56b3306f0e)" style="fill: #4682b4; fill-opacity: 0.8"/>
    <path d="M 208.594526 231.796487 
L 220.283731 233.348448 
L 227.111984 230.665778 
L 215.459535 229.128529 
z
" clip-path="url(#p56b3306f0e)" style="fill: #4682b4; fill-opacity: 0.8"/>
    <path d="M 159.765586 232.515691 
L 171.334844 234.071629 
L 178.404991 231.38209 
L 166.871302 229.84092 
z
" clip-path="url(#p56b3306f0e)" style="fill: #4682b4; fill-opacity: 0.8"/>
    <path d="M 190.002297 232.931761 
L 201.66375 234.490004 
L 208.594526 231.796487 
L 196.96949 230.253046 
z
" clip-path="url(#p56b3306f0e)" style="fill: #4682b4; fill-opacity: 0.8"/>
    <path d="M 220.283731 233.348448 
L 232.037637 234.908999 
L 238.828623 232.211495 
L 227.111984 230.665778 
z
" clip-path="url(#p56b3306f0e)" style="fill: #4682b4; fill-opacity: 0.8"/>
    <path d="M 141.050821 233.653874 
L 152.591709 235.216118 
L 159.765586 232.515691 
L 148.259919 230.968304 
z
" clip-path="url(#p56b3306f0e)" style="fill: #4682b4; fill-opacity: 0.8"/>
    <path d="M 171.334844 234.071629 
L 182.968223 235.636191 
L 190.002297 232.931761 
L 178.404991 231.38209 
z
" clip-path="url(#p56b3306f0e)" style="fill: #4682b4; fill-opacity: 0.8"/>
    <path d="M 201.66375 234.490004 
L 213.389881 236.056889 
L 220.283731 233.348448 
L 208.594526 231.796487 
z
" clip-path="url(#p56b3306f0e)" style="fill: #4682b4; fill-opacity: 0.8"/>
    <path d="M 232.037637 234.908999 
L 243.856784 236.478211 
L 250.609985 233.76575 
L 238.828623 232.211495 
z
" clip-path="url(#p56b3306f0e)" style="fill: #4682b4; fill-opacity: 0.8"/>
    <path d="M 152.591709 235.216118 
L 164.196689 236.787039 
L 171.334844 234.071629 
L 159.765586 232.515691 
z
" clip-path="url(#p56b3306f0e)" style="fill: #4682b4; fill-opacity: 0.8"/>
    <path d="M 182.968223 235.636191 
L 194.666256 237.209449 
L 201.66375 234.490004 
L 190.002297 232.931761 
z
" clip-path="url(#p56b3306f0e)" style="fill: #4682b4; fill-opacity: 0.8"/>
    <path d="M 213.389881 236.056889 
L 225.181231 237.632488 
L 232.037637 234.908999 
L 220.283731 233.348448 
z
" clip-path="url(#p56b3306f0e)" style="fill: #4682b4; fill-opacity: 0.8"/>
    <path d="M 133.77243 236.365257 
L 145.348685 237.942575 
L 152.591709 235.216118 
L 141.050821 233.653874 
z
" clip-path="url(#p56b3306f0e)" style="fill: #4682b4; fill-opacity: 0.8"/>
    <path d="M 243.856784 236.478211 
L 255.741717 238.056159 
L 262.456607 235.328615 
L 250.609985 233.76575 
z
" clip-path="url(#p56b3306f0e)" style="fill: #4682b4; fill-opacity: 0.8"/>
    <path d="M 164.196689 236.787039 
L 175.866298 238.366708 
L 182.968223 235.636191 
L 171.334844 234.071629 
z
" clip-path="url(#p56b3306f0e)" style="fill: #4682b4; fill-opacity: 0.8"/>
    <path d="M 194.666256 237.209449 
L 206.429485 238.791474 
L 213.389881 236.056889 
L 201.66375 234.490004 
z
" clip-path="url(#p56b3306f0e)" style="fill: #4682b4; fill-opacity: 0.8"/>
    <path d="M 225.181231 237.632488 
L 237.038346 239.216876 
L 243.856784 236.478211 
L 232.037637 234.908999 
z
" clip-path="url(#p56b3306f0e)" style="fill: #4682b4; fill-opacity: 0.8"/>
    <path d="M 145.348685 237.942575 
L 156.98954 239.528694 
L 164.196689 236.787039 
L 152.591709 235.216118 
z
" clip-path="url(#p56b3306f0e)" style="fill: #4682b4; fill-opacity: 0.8"/>
    <path d="M 255.741717 238.056159 
L 267.692985 239.642913 
L 274.369034 236.900162 
L 262.456607 235.328615 
z
" clip-path="url(#p56b3306f0e)" style="fill: #4682b4; fill-opacity: 0.8"/>
    <path d="M 175.866298 238.366708 
L 187.601077 239.955198 
L 194.666256 237.209449 
L 182.968223 235.636191 
z
" clip-path="url(#p56b3306f0e)" style="fill: #4682b4; fill-opacity: 0.8"/>
    <path d="M 206.429485 238.791474 
L 218.258455 240.382341 
L 225.181231 237.632488 
L 213.389881 236.056889 
z
" clip-path="url(#p56b3306f0e)" style="fill: #4682b4; fill-opacity: 0.8"/>
    <path d="M 126.423742 239.102827 
L 138.03551 240.695437 
L 145.348685 237.942575 
L 133.77243 236.365257 
z
" clip-path="url(#p56b3306f0e)" style="fill: #4682b4; fill-opacity: 0.8"/>
    <path d="M 237.038346 239.216876 
L 248.961777 240.810124 
L 255.741717 238.056159 
L 243.856784 236.478211 
z
" clip-path="url(#p56b3306f0e)" style="fill: #4682b4; fill-opacity: 0.8"/>
    <path d="M 156.98954 239.528694 
L 168.695538 241.12369 
L 175.866298 238.366708 
L 164.196689 236.787039 
z
" clip-path="url(#p56b3306f0e)" style="fill: #4682b4; fill-opacity: 0.8"/>
    <path d="M 267.692985 239.642913 
L 279.711146 241.238549 
L 286.347814 238.480461 
L 274.369034 236.900162 
z
" clip-path="url(#p56b3306f0e)" style="fill: #4682b4; fill-opacity: 0.8"/>
    <path d="M 187.601077 239.955198 
L 199.401574 241.552585 
L 206.429485 238.791474 
L 194.666256 237.209449 
z
" clip-path="url(#p56b3306f0e)" style="fill: #4682b4; fill-opacity: 0.8"/>
    <path d="M 218.258455 240.382341 
L 230.15372 241.982124 
L 237.038346 239.216876 
L 225.181231 237.632488 
z
" clip-path="url(#p56b3306f0e)" style="fill: #4682b4; fill-opacity: 0.8"/>
    <path d="M 138.03551 240.695437 
L 149.712392 242.296978 
L 156.98954 239.528694 
L 145.348685 237.942575 
z
" clip-path="url(#p56b3306f0e)" style="fill: #4682b4; fill-opacity: 0.8"/>
    <path d="M 248.961777 240.810124 
L 260.952082 242.412309 
L 267.692985 239.642913 
L 255.741717 238.056159 
z
" clip-path="url(#p56b3306f0e)" style="fill: #4682b4; fill-opacity: 0.8"/>
    <path d="M 168.695538 241.12369 
L 180.467227 242.727636 
L 187.601077 239.955198 
L 175.866298 238.366708 
z
" clip-path="url(#p56b3306f0e)" style="fill: #4682b4; fill-opacity: 0.8"/>
    <path d="M 279.711146 241.238549 
L 291.796764 242.843141 
L 298.393504 240.069588 
L 286.347814 238.480461 
z
" clip-path="url(#p56b3306f0e)" style="fill: #4682b4; fill-opacity: 0.8"/>
    <path d="M 199.401574 241.552585 
L 211.268341 243.158943 
L 218.258455 240.382341 
L 206.429485 238.791474 
z
" clip-path="url(#p56b3306f0e)" style="fill: #4682b4; fill-opacity: 0.8"/>
    <path d="M 119.003733 241.866966 
L 130.651161 243.475092 
L 138.03551 240.695437 
L 126.423742 239.102827 
z
" clip-path="url(#p56b3306f0e)" style="fill: #4682b4; fill-opacity: 0.8"/>
    <path d="M 230.15372 241.982124 
L 242.115839 243.590898 
L 248.961777 240.810124 
L 237.038346 239.216876 
z
" clip-path="url(#p56b3306f0e)" style="fill: #4682b4; fill-opacity: 0.8"/>
    <path d="M 149.712392 242.296978 
L 161.454936 243.907525 
L 168.695538 241.12369 
L 156.98954 239.528694 
z
" clip-path="url(#p56b3306f0e)" style="fill: #4682b4; fill-opacity: 0.8"/>
    <path d="M 260.952082 242.412309 
L 273.009826 244.023505 
L 279.711146 241.238549 
L 267.692985 239.642913 
z
" clip-path="url(#p56b3306f0e)" style="fill: #4682b4; fill-opacity: 0.8"/>
    <path d="M 180.467227 242.727636 
L 192.305161 244.340609 
L 199.401574 241.552585 
L 187.601077 239.955198 
z
" clip-path="url(#p56b3306f0e)" style="fill: #4682b4; fill-opacity: 0.8"/>
    <path d="M 291.796764 242.843141 
L 303.950406 244.456764 
L 310.506666 241.667617 
L 298.393504 240.069588 
z
" clip-path="url(#p56b3306f0e)" style="fill: #4682b4; fill-opacity: 0.8"/>
    <path d="M 211.268341 243.158943 
L 223.201939 244.774347 
L 230.15372 241.982124 
L 218.258455 240.382341 
z
" clip-path="url(#p56b3306f0e)" style="fill: #4682b4; fill-opacity: 0.8"/>
    <path d="M 130.651161 243.475092 
L 142.36422 245.09228 
L 149.712392 242.296978 
L 138.03551 240.695437 
z
" clip-path="url(#p56b3306f0e)" style="fill: #4682b4; fill-opacity: 0.8"/>
    <path d="M 242.115839 243.590898 
L 254.145376 245.208739 
L 260.952082 242.412309 
L 248.961777 240.810124 
z
" clip-path="url(#p56b3306f0e)" style="fill: #4682b4; fill-opacity: 0.8"/>
    <path d="M 161.454936 243.907525 
L 173.263698 245.527153 
L 180.467227 242.727636 
L 168.695538 241.12369 
z
" clip-path="url(#p56b3306f0e)" style="fill: #4682b4; fill-opacity: 0.8"/>
    <path d="M 273.009826 244.023505 
L 285.135578 245.643789 
L 291.796764 242.843141 
L 279.711146 241.238549 
z
" clip-path="url(#p56b3306f0e)" style="fill: #4682b4; fill-opacity: 0.8"/>
    <path d="M 192.305161 244.340609 
L 204.2099 245.962684 
L 211.268341 243.158943 
L 199.401574 241.552585 
z
" clip-path="url(#p56b3306f0e)" style="fill: #4682b4; fill-opacity: 0.8"/>
    <path d="M 303.950406 244.456764 
L 316.172651 246.079496 
L 322.687869 243.274621 
L 310.506666 241.667617 
z
" clip-path="url(#p56b3306f0e)" style="fill: #4682b4; fill-opacity: 0.8"/>
    <path d="M 111.51136 244.658063 
L 123.194591 246.281932 
L 130.651161 243.475092 
L 119.003733 241.866966 
z
" clip-path="url(#p56b3306f0e)" style="fill: #4682b4; fill-opacity: 0.8"/>
    <path d="M 223.201939 244.774347 
L 235.202933 246.398874 
L 242.115839 243.590898 
L 230.15372 241.982124 
z
" clip-path="url(#p56b3306f0e)" style="fill: #4682b4; fill-opacity: 0.8"/>
    <path d="M 142.36422 245.09228 
L 154.143467 246.718606 
L 161.454936 243.907525 
L 149.712392 242.296978 
z
" clip-path="url(#p56b3306f0e)" style="fill: #4682b4; fill-opacity: 0.8"/>
    <path d="M 254.145376 245.208739 
L 266.242903 246.835724 
L 273.009826 244.023505 
L 260.952082 242.412309 
z
" clip-path="url(#p56b3306f0e)" style="fill: #4682b4; fill-opacity: 0.8"/>
    <path d="M 173.263698 245.527153 
L 185.139239 247.155941 
L 192.305161 244.340609 
L 180.467227 242.727636 
z
" clip-path="url(#p56b3306f0e)" style="fill: #4682b4; fill-opacity: 0.8"/>
    <path d="M 285.135578 245.643789 
L 297.329916 247.273237 
L 303.950406 244.456764 
L 291.796764 242.843141 
z
" clip-path="url(#p56b3306f0e)" style="fill: #4682b4; fill-opacity: 0.8"/>
    <path d="M 204.2099 245.962684 
L 216.182013 247.593939 
L 223.201939 244.774347 
L 211.268341 243.158943 
z
" clip-path="url(#p56b3306f0e)" style="fill: #4682b4; fill-opacity: 0.8"/>
    <path d="M 316.172651 246.079496 
L 328.46408 247.711413 
L 334.937687 244.890677 
L 322.687869 243.274621 
z
" clip-path="url(#p56b3306f0e)" style="fill: #4682b4; fill-opacity: 0.8"/>
    <path d="M 123.194591 246.281932 
L 134.943979 247.914997 
L 142.36422 245.09228 
L 130.651161 243.475092 
z
" clip-path="url(#p56b3306f0e)" style="fill: #4682b4; fill-opacity: 0.8"/>
    <path d="M 235.202933 246.398874 
L 247.271897 248.032602 
L 254.145376 245.208739 
L 242.115839 243.590898 
z
" clip-path="url(#p56b3306f0e)" style="fill: #4682b4; fill-opacity: 0.8"/>
    <path d="M 154.143467 246.718606 
L 165.989465 248.354148 
L 173.263698 245.527153 
L 161.454936 243.907525 
z
" clip-path="url(#p56b3306f0e)" style="fill: #4682b4; fill-opacity: 0.8"/>
    <path d="M 266.242903 246.835724 
L 278.408998 248.471931 
L 285.135578 245.643789 
L 273.009826 244.023505 
z
" clip-path="url(#p56b3306f0e)" style="fill: #4682b4; fill-opacity: 0.8"/>
    <path d="M 185.139239 247.155941 
L 197.082128 248.793966 
L 204.2099 245.962684 
L 192.305161 244.340609 
z
" clip-path="url(#p56b3306f0e)" style="fill: #4682b4; fill-opacity: 0.8"/>
    <path d="M 297.329916 247.273237 
L 309.593424 248.911928 
L 316.172651 246.079496 
L 303.950406 244.456764 
z
" clip-path="url(#p56b3306f0e)" style="fill: #4682b4; fill-opacity: 0.8"/>
    <path d="M 103.945561 247.476513 
L 115.664738 249.116358 
L 123.194591 246.281932 
L 111.51136 244.658063 
z
" clip-path="url(#p56b3306f0e)" style="fill: #4682b4; fill-opacity: 0.8"/>
    <path d="M 216.182013 247.593939 
L 228.222073 249.234452 
L 235.202933 246.398874 
L 223.201939 244.774347 
z
" clip-path="url(#p56b3306f0e)" style="fill: #4682b4; fill-opacity: 0.8"/>
    <path d="M 328.46408 247.711413 
L 340.825282 249.352594 
L 347.256702 246.515863 
L 334.937687 244.890677 
z
" clip-path="url(#p56b3306f0e)" style="fill: #4682b4; fill-opacity: 0.8"/>
    <path d="M 134.943979 247.914997 
L 146.760086 249.557336 
L 154.143467 246.718606 
L 142.36422 245.09228 
z
" clip-path="url(#p56b3306f0e)" style="fill: #4682b4; fill-opacity: 0.8"/>
    <path d="M 247.271897 248.032602 
L 259.40941 249.675609 
L 266.242903 246.835724 
L 254.145376 245.208739 
z
" clip-path="url(#p56b3306f0e)" style="fill: #4682b4; fill-opacity: 0.8"/>
    <path d="M 165.989465 248.354148 
L 177.902783 249.998984 
L 185.139239 247.155941 
L 173.263698 245.527153 
z
" clip-path="url(#p56b3306f0e)" style="fill: #4682b4; fill-opacity: 0.8"/>
    <path d="M 278.408998 248.471931 
L 290.644246 250.117438 
L 297.329916 247.273237 
L 285.135578 245.643789 
z
" clip-path="url(#p56b3306f0e)" style="fill: #4682b4; fill-opacity: 0.8"/>
    <path d="M 197.082128 248.793966 
L 209.092938 250.441306 
L 216.182013 247.593939 
L 204.2099 245.962684 
z
" clip-path="url(#p56b3306f0e)" style="fill: #4682b4; fill-opacity: 0.8"/>
    <path d="M 309.593424 248.911928 
L 321.926691 250.55994 
L 328.46408 247.711413 
L 316.172651 246.079496 
z
" clip-path="url(#p56b3306f0e)" style="fill: #4682b4; fill-opacity: 0.8"/>
    <path d="M 115.664738 249.116358 
L 127.450603 250.765536 
L 134.943979 247.914997 
L 123.194591 246.281932 
z
" clip-path="url(#p56b3306f0e)" style="fill: #4682b4; fill-opacity: 0.8"/>
    <path d="M 228.222073 249.234452 
L 240.33066 250.884302 
L 247.271897 248.032602 
L 235.202933 246.398874 
z
" clip-path="url(#p56b3306f0e)" style="fill: #4682b4; fill-opacity: 0.8"/>
    <path d="M 340.825282 249.352594 
L 353.256852 251.003118 
L 359.645501 248.150254 
L 347.256702 246.515863 
z
" clip-path="url(#p56b3306f0e)" style="fill: #4682b4; fill-opacity: 0.8"/>
    <path d="M 146.760086 249.557336 
L 158.643483 251.209027 
L 165.989465 248.354148 
L 154.143467 246.718606 
z
" clip-path="url(#p56b3306f0e)" style="fill: #4682b4; fill-opacity: 0.8"/>
    <path d="M 259.40941 249.675609 
L 271.616057 251.327975 
L 278.408998 248.471931 
L 266.242903 246.835724 
z
" clip-path="url(#p56b3306f0e)" style="fill: #4682b4; fill-opacity: 0.8"/>
    <path d="M 177.902783 249.998984 
L 189.883996 251.653195 
L 197.082128 248.793966 
L 185.139239 247.155941 
z
" clip-path="url(#p56b3306f0e)" style="fill: #4682b4; fill-opacity: 0.8"/>
    <path d="M 290.644246 250.117438 
L 302.949239 251.772325 
L 309.593424 248.911928 
L 297.329916 247.273237 
z
" clip-path="url(#p56b3306f0e)" style="fill: #4682b4; fill-opacity: 0.8"/>
    <path d="M 96.305248 250.32272 
L 108.060516 251.978779 
L 115.664738 249.116358 
L 103.945561 247.476513 
z
" clip-path="url(#p56b3306f0e)" style="fill: #4682b4; fill-opacity: 0.8"/>
    <path d="M 209.092938 250.441306 
L 221.172251 252.098042 
L 228.222073 249.234452 
L 216.182013 247.593939 
z
" clip-path="url(#p56b3306f0e)" style="fill: #4682b4; fill-opacity: 0.8"/>
    <path d="M 321.926691 250.55994 
L 334.330315 252.217354 
L 340.825282 249.352594 
L 328.46408 247.711413 
z
" clip-path="url(#p56b3306f0e)" style="fill: #4682b4; fill-opacity: 0.8"/>
    <path d="M 127.450603 250.765536 
L 139.303725 252.424124 
L 146.760086 249.557336 
L 134.943979 247.914997 
z
" clip-path="url(#p56b3306f0e)" style="fill: #4682b4; fill-opacity: 0.8"/>
    <path d="M 240.33066 250.884302 
L 252.50836 252.54357 
L 259.40941 249.675609 
L 247.271897 248.032602 
z
" clip-path="url(#p56b3306f0e)" style="fill: #4682b4; fill-opacity: 0.8"/>
    <path d="M 353.256852 251.003118 
L 365.759395 252.663064 
L 372.10468 249.793931 
L 359.645501 248.150254 
z
" clip-path="url(#p56b3306f0e)" style="fill: #4682b4; fill-opacity: 0.8"/>
    <path d="M 158.643483 251.209027 
L 170.594745 252.870151 
L 177.902783 249.998984 
L 165.989465 248.354148 
z
" clip-path="url(#p56b3306f0e)" style="fill: #4682b4; fill-opacity: 0.8"/>
    <path d="M 271.616057 251.327975 
L 283.89243 252.989779 
L 290.644246 250.117438 
L 278.408998 248.471931 
z
" clip-path="url(#p56b3306f0e)" style="fill: #4682b4; fill-opacity: 0.8"/>
    <path d="M 189.883996 251.653195 
L 201.933685 253.31686 
L 209.092938 250.441306 
L 197.082128 248.793966 
z
" clip-path="url(#p56b3306f0e)" style="fill: #4682b4; fill-opacity: 0.8"/>
    <path d="M 302.949239 251.772325 
L 315.324573 253.436672 
L 321.926691 250.55994 
L 309.593424 248.911928 
z
" clip-path="url(#p56b3306f0e)" style="fill: #4682b4; fill-opacity: 0.8"/>
    <path d="M 108.060516 251.978779 
L 119.883007 253.644308 
L 127.450603 250.765536 
L 115.664738 249.116358 
z
" clip-path="url(#p56b3306f0e)" style="fill: #4682b4; fill-opacity: 0.8"/>
    <path d="M 221.172251 252.098042 
L 233.320656 253.764254 
L 240.33066 250.884302 
L 228.222073 249.234452 
z
" clip-path="url(#p56b3306f0e)" style="fill: #4682b4; fill-opacity: 0.8"/>
    <path d="M 334.330315 252.217354 
L 346.804899 253.88425 
L 353.256852 251.003118 
L 340.825282 249.352594 
z
" clip-path="url(#p56b3306f0e)" style="fill: #4682b4; fill-opacity: 0.8"/>
    <path d="M 139.303725 252.424124 
L 151.224683 254.092205 
L 158.643483 251.209027 
L 146.760086 249.557336 
z
" clip-path="url(#p56b3306f0e)" style="fill: #4682b4; fill-opacity: 0.8"/>
    <path d="M 252.50836 252.54357 
L 264.755767 254.212335 
L 271.616057 251.327975 
L 259.40941 249.675609 
z
" clip-path="url(#p56b3306f0e)" style="fill: #4682b4; fill-opacity: 0.8"/>
    <path d="M 365.759395 252.663064 
L 378.333518 254.332514 
L 384.63484 251.446971 
L 372.10468 249.793931 
z
" clip-path="url(#p56b3306f0e)" style="fill: #4682b4; fill-opacity: 0.8"/>
    <path d="M 170.594745 252.870151 
L 182.614458 254.540788 
L 189.883996 251.653195 
L 177.902783 249.998984 
z
" clip-path="url(#p56b3306f0e)" style="fill: #4682b4; fill-opacity: 0.8"/>
    <path d="M 283.89243 252.989779 
L 296.239129 254.661103 
L 302.949239 251.772325 
L 290.644246 250.117438 
z
" clip-path="url(#p56b3306f0e)" style="fill: #4682b4; fill-opacity: 0.8"/>
    <path d="M 88.589318 253.197098 
L 100.380816 254.869611 
L 108.060516 251.978779 
L 96.305248 250.32272 
z
" clip-path="url(#p56b3306f0e)" style="fill: #4682b4; fill-opacity: 0.8"/>
    <path d="M 201.933685 253.31686 
L 214.052441 254.990061 
L 221.172251 252.098042 
L 209.092938 250.441306 
z
" clip-path="url(#p56b3306f0e)" style="fill: #4682b4; fill-opacity: 0.8"/>
    <path d="M 315.324573 253.436672 
L 327.770854 255.11056 
L 334.330315 252.217354 
L 321.926691 250.55994 
z
" clip-path="url(#p56b3306f0e)" style="fill: #4682b4; fill-opacity: 0.8"/>
    <path d="M 119.883007 253.644308 
L 131.773299 255.319389 
L 139.303725 252.424124 
L 127.450603 250.765536 
z
" clip-path="url(#p56b3306f0e)" style="fill: #4682b4; fill-opacity: 0.8"/>
    <path d="M 233.320656 253.764254 
L 245.538745 255.440024 
L 252.50836 252.54357 
L 240.33066 250.884302 
z
" clip-path="url(#p56b3306f0e)" style="fill: #4682b4; fill-opacity: 0.8"/>
    <path d="M 346.804899 253.88425 
L 359.351054 255.560709 
L 365.759395 252.663064 
L 353.256852 251.003118 
z
" clip-path="url(#p56b3306f0e)" style="fill: #4682b4; fill-opacity: 0.8"/>
    <path d="M 151.224683 254.092205 
L 163.214059 255.769859 
L 170.594745 252.870151 
L 158.643483 251.209027 
z
" clip-path="url(#p56b3306f0e)" style="fill: #4682b4; fill-opacity: 0.8"/>
    <path d="M 264.755767 254.212335 
L 277.073481 255.89068 
L 283.89243 252.989779 
L 271.616057 251.327975 
z
" clip-path="url(#p56b3306f0e)" style="fill: #4682b4; fill-opacity: 0.8"/>
    <path d="M 378.333518 254.332514 
L 390.979839 256.01155 
L 397.236589 253.109456 
L 384.63484 251.446971 
z
" clip-path="url(#p56b3306f0e)" style="fill: #4682b4; fill-opacity: 0.8"/>
    <path d="M 182.614458 254.540788 
L 194.703209 256.221022 
L 201.933685 253.31686 
L 189.883996 251.653195 
z
" clip-path="url(#p56b3306f0e)" style="fill: #4682b4; fill-opacity: 0.8"/>
    <path d="M 296.239129 254.661103 
L 308.65676 256.342029 
L 315.324573 253.436672 
L 302.949239 251.772325 
z
" clip-path="url(#p56b3306f0e)" style="fill: #4682b4; fill-opacity: 0.8"/>
    <path d="M 100.380816 254.869611 
L 112.240081 256.551737 
L 119.883007 253.644308 
L 108.060516 251.978779 
z
" clip-path="url(#p56b3306f0e)" style="fill: #4682b4; fill-opacity: 0.8"/>
    <path d="M 214.052441 254.990061 
L 226.240858 256.67288 
L 233.320656 253.764254 
L 221.172251 252.098042 
z
" clip-path="url(#p56b3306f0e)" style="fill: #4682b4; fill-opacity: 0.8"/>
    <path d="M 327.770854 255.11056 
L 340.288695 256.794073 
L 346.804899 253.88425 
L 334.330315 252.217354 
z
" clip-path="url(#p56b3306f0e)" style="fill: #4682b4; fill-opacity: 0.8"/>
    <path d="M 131.773299 255.319389 
L 143.731978 257.004104 
L 151.224683 254.092205 
L 139.303725 252.424124 
z
" clip-path="url(#p56b3306f0e)" style="fill: #4682b4; fill-opacity: 0.8"/>
    <path d="M 245.538745 255.440024 
L 257.827121 257.125434 
L 264.755767 254.212335 
L 252.50836 252.54357 
z
" clip-path="url(#p56b3306f0e)" style="fill: #4682b4; fill-opacity: 0.8"/>
    <path d="M 359.351054 255.560709 
L 371.969398 257.246814 
L 378.333518 254.332514 
L 365.759395 252.663064 
z
" clip-path="url(#p56b3306f0e)" style="fill: #4682b4; fill-opacity: 0.8"/>
    <path d="M 163.214059 255.769859 
L 175.272446 257.45717 
L 182.614458 254.540788 
L 170.594745 252.870151 
z
" clip-path="url(#p56b3306f0e)" style="fill: #4682b4; fill-opacity: 0.8"/>
    <path d="M 277.073481 255.89068 
L 289.462109 257.578687 
L 296.239129 254.661103 
L 283.89243 252.989779 
z
" clip-path="url(#p56b3306f0e)" style="fill: #4682b4; fill-opacity: 0.8"/>
    <path d="M 390.979839 256.01155 
L 403.698982 257.700254 
L 409.910543 254.781467 
L 397.236589 253.109456 
z
" clip-path="url(#p56b3306f0e)" style="fill: #4682b4; fill-opacity: 0.8"/>
    <path d="M 80.796641 256.100065 
L 92.62451 257.78928 
L 100.380816 254.869611 
L 88.589318 253.197098 
z
" clip-path="url(#p56b3306f0e)" style="fill: #4682b4; fill-opacity: 0.8"/>
    <path d="M 194.703209 256.221022 
L 206.861595 257.910934 
L 214.052441 254.990061 
L 201.933685 253.31686 
z
" clip-path="url(#p56b3306f0e)" style="fill: #4682b4; fill-opacity: 0.8"/>
    <path d="M 308.65676 256.342029 
L 321.145935 258.032639 
L 327.770854 255.11056 
L 315.324573 253.436672 
z
" clip-path="url(#p56b3306f0e)" style="fill: #4682b4; fill-opacity: 0.8"/>
    <path d="M 112.240081 256.551737 
L 124.167697 258.243557 
L 131.773299 255.319389 
L 119.883007 253.644308 
z
" clip-path="url(#p56b3306f0e)" style="fill: #4682b4; fill-opacity: 0.8"/>
    <path d="M 226.240858 256.67288 
L 238.49954 258.3654 
L 245.538745 255.440024 
L 233.320656 253.764254 
z
" clip-path="url(#p56b3306f0e)" style="fill: #4682b4; fill-opacity: 0.8"/>
    <path d="M 340.288695 256.794073 
L 352.878713 258.487293 
L 359.351054 255.560709 
L 346.804899 253.88425 
z
" clip-path="url(#p56b3306f0e)" style="fill: #4682b4; fill-opacity: 0.8"/>
    <path d="M 143.731978 257.004104 
L 155.759636 258.698537 
L 163.214059 255.769859 
L 151.224683 254.092205 
z
" clip-path="url(#p56b3306f0e)" style="fill: #4682b4; fill-opacity: 0.8"/>
    <path d="M 257.827121 257.125434 
L 270.186392 258.820568 
L 277.073481 255.89068 
L 264.755767 254.212335 
z
" clip-path="url(#p56b3306f0e)" style="fill: #4682b4; fill-opacity: 0.8"/>
    <path d="M 371.969398 257.246814 
L 384.660555 258.942649 
L 390.979839 256.01155 
L 378.333518 254.332514 
z
" clip-path="url(#p56b3306f0e)" style="fill: #4682b4; fill-opacity: 0.8"/>
    <path d="M 175.272446 257.45717 
L 187.400439 259.15422 
L 194.703209 256.221022 
L 182.614458 254.540788 
z
" clip-path="url(#p56b3306f0e)" style="fill: #4682b4; fill-opacity: 0.8"/>
    <path d="M 289.462109 257.578687 
L 301.922266 259.27644 
L 308.65676 256.342029 
L 296.239129 254.661103 
z
" clip-path="url(#p56b3306f0e)" style="fill: #4682b4; fill-opacity: 0.8"/>
    <path d="M 92.62451 257.78928 
L 104.520695 259.488251 
L 112.240081 256.551737 
L 100.380816 254.869611 
z
" clip-path="url(#p56b3306f0e)" style="fill: #4682b4; fill-opacity: 0.8"/>
    <path d="M 206.861595 257.910934 
L 219.090221 259.610609 
L 226.240858 256.67288 
L 214.052441 254.990061 
z
" clip-path="url(#p56b3306f0e)" style="fill: #4682b4; fill-opacity: 0.8"/>
    <path d="M 321.145935 258.032639 
L 333.707275 259.733018 
L 340.288695 256.794073 
L 327.770854 255.11056 
z
" clip-path="url(#p56b3306f0e)" style="fill: #4682b4; fill-opacity: 0.8"/>
    <path d="M 124.167697 258.243557 
L 136.164259 259.945157 
L 143.731978 257.004104 
L 131.773299 255.319389 
z
" clip-path="url(#p56b3306f0e)" style="fill: #4682b4; fill-opacity: 0.8"/>
    <path d="M 238.49954 258.3654 
L 250.829094 260.067705 
L 257.827121 257.125434 
L 245.538745 255.440024 
z
" clip-path="url(#p56b3306f0e)" style="fill: #4682b4; fill-opacity: 0.8"/>
    <path d="M 352.878713 258.487293 
L 365.541535 260.190304 
L 371.969398 257.246814 
L 359.351054 255.560709 
z
" clip-path="url(#p56b3306f0e)" style="fill: #4682b4; fill-opacity: 0.8"/>
    <path d="M 155.759636 258.698537 
L 167.856871 260.402771 
L 175.272446 257.45717 
L 163.214059 255.769859 
z
" clip-path="url(#p56b3306f0e)" style="fill: #4682b4; fill-opacity: 0.8"/>
    <path d="M 270.186392 258.820568 
L 282.617173 260.525509 
L 289.462109 257.578687 
L 277.073481 255.89068 
z
" clip-path="url(#p56b3306f0e)" style="fill: #4682b4; fill-opacity: 0.8"/>
    <path d="M 384.660555 258.942649 
L 397.425158 260.648298 
L 403.698982 257.700254 
L 390.979839 256.01155 
z
" clip-path="url(#p56b3306f0e)" style="fill: #4682b4; fill-opacity: 0.8"/>
    <path d="M 72.926066 259.032051 
L 84.790446 260.738218 
L 92.62451 257.78928 
L 80.796641 256.100065 
z
" clip-path="url(#p56b3306f0e)" style="fill: #4682b4; fill-opacity: 0.8"/>
    <path d="M 187.400439 259.15422 
L 199.598645 260.861096 
L 206.861595 257.910934 
L 194.703209 256.221022 
z
" clip-path="url(#p56b3306f0e)" style="fill: #4682b4; fill-opacity: 0.8"/>
    <path d="M 301.922266 259.27644 
L 314.454573 260.984024 
L 321.145935 258.032639 
L 308.65676 256.342029 
z
" clip-path="url(#p56b3306f0e)" style="fill: #4682b4; fill-opacity: 0.8"/>
    <path d="M 104.520695 259.488251 
L 116.485789 261.197063 
L 124.167697 258.243557 
L 112.240081 256.551737 
z
" clip-path="url(#p56b3306f0e)" style="fill: #4682b4; fill-opacity: 0.8"/>
    <path d="M 219.090221 259.610609 
L 231.389695 261.320131 
L 238.49954 258.3654 
L 226.240858 256.67288 
z
" clip-path="url(#p56b3306f0e)" style="fill: #4682b4; fill-opacity: 0.8"/>
    <path d="M 333.707275 259.733018 
L 346.341408 261.443251 
L 352.878713 258.487293 
L 340.288695 256.794073 
z
" clip-path="url(#p56b3306f0e)" style="fill: #4682b4; fill-opacity: 0.8"/>
    <path d="M 136.164259 259.945157 
L 148.230365 261.656621 
L 155.759636 258.698537 
L 143.731978 257.004104 
z
" clip-path="url(#p56b3306f0e)" style="fill: #4682b4; fill-opacity: 0.8"/>
    <path d="M 250.829094 260.067705 
L 263.230137 261.77988 
L 270.186392 258.820568 
L 257.827121 257.125434 
z
" clip-path="url(#p56b3306f0e)" style="fill: #4682b4; fill-opacity: 0.8"/>
    <path d="M 365.541535 260.190304 
L 378.277794 261.903191 
L 384.660555 258.942649 
L 371.969398 257.246814 
z
" clip-path="url(#p56b3306f0e)" style="fill: #4682b4; fill-opacity: 0.8"/>
    <path d="M 167.856871 260.402771 
L 180.024288 262.116893 
L 187.400439 259.15422 
L 175.272446 257.45717 
z
" clip-path="url(#p56b3306f0e)" style="fill: #4682b4; fill-opacity: 0.8"/>
    <path d="M 282.617173 260.525509 
L 295.120086 262.240344 
L 301.922266 259.27644 
L 289.462109 257.578687 
z
" clip-path="url(#p56b3306f0e)" style="fill: #4682b4; fill-opacity: 0.8"/>
    <path d="M 84.790446 260.738218 
L 96.723697 262.454289 
L 104.520695 259.488251 
L 92.62451 257.78928 
z
" clip-path="url(#p56b3306f0e)" style="fill: #4682b4; fill-opacity: 0.8"/>
    <path d="M 199.598645 260.861096 
L 211.867673 262.577881 
L 219.090221 259.610609 
L 206.861595 257.910934 
z
" clip-path="url(#p56b3306f0e)" style="fill: #4682b4; fill-opacity: 0.8"/>
    <path d="M 314.454573 260.984024 
L 327.059658 262.701524 
L 333.707275 259.733018 
L 321.145935 258.032639 
z
" clip-path="url(#p56b3306f0e)" style="fill: #4682b4; fill-opacity: 0.8"/>
    <path d="M 116.485789 261.197063 
L 128.520393 262.915803 
L 136.164259 259.945157 
L 124.167697 258.243557 
z
" clip-path="url(#p56b3306f0e)" style="fill: #4682b4; fill-opacity: 0.8"/>
    <path d="M 231.389695 261.320131 
L 243.760637 263.039587 
L 250.829094 260.067705 
L 238.49954 258.3654 
z
" clip-path="url(#p56b3306f0e)" style="fill: #4682b4; fill-opacity: 0.8"/>
    <path d="M 346.341408 261.443251 
L 359.048967 263.163423 
L 365.541535 260.190304 
L 352.878713 258.487293 
z
" clip-path="url(#p56b3306f0e)" style="fill: #4682b4; fill-opacity: 0.8"/>
    <path d="M 148.230365 261.656621 
L 160.366621 263.378035 
L 167.856871 260.402771 
L 155.759636 258.698537 
z
" clip-path="url(#p56b3306f0e)" style="fill: #4682b4; fill-opacity: 0.8"/>
    <path d="M 263.230137 261.77988 
L 275.703294 263.502012 
L 282.617173 260.525509 
L 270.186392 258.820568 
z
" clip-path="url(#p56b3306f0e)" style="fill: #4682b4; fill-opacity: 0.8"/>
    <path d="M 378.277794 261.903191 
L 391.088131 263.626041 
L 397.425158 260.648298 
L 384.660555 258.942649 
z
" clip-path="url(#p56b3306f0e)" style="fill: #4682b4; fill-opacity: 0.8"/>
    <path d="M 64.97642 261.993493 
L 76.877449 263.71687 
L 84.790446 260.738218 
L 72.926066 259.032051 
z
" clip-path="url(#p56b3306f0e)" style="fill: #4682b4; fill-opacity: 0.8"/>
    <path d="M 180.024288 262.116893 
L 192.2625 263.840988 
L 199.598645 260.861096 
L 187.400439 259.15422 
z
" clip-path="url(#p56b3306f0e)" style="fill: #4682b4; fill-opacity: 0.8"/>
    <path d="M 295.120086 262.240344 
L 307.695762 263.965159 
L 314.454573 260.984024 
L 301.922266 259.27644 
z
" clip-path="url(#p56b3306f0e)" style="fill: #4682b4; fill-opacity: 0.8"/>
    <path d="M 96.723697 262.454289 
L 108.72642 264.180351 
L 116.485789 261.197063 
L 104.520695 259.488251 
z
" clip-path="url(#p56b3306f0e)" style="fill: #4682b4; fill-opacity: 0.8"/>
    <path d="M 211.867673 262.577881 
L 224.208144 264.304663 
L 231.389695 261.320131 
L 219.090221 259.610609 
z
" clip-path="url(#p56b3306f0e)" style="fill: #4682b4; fill-opacity: 0.8"/>
    <path d="M 327.059658 262.701524 
L 339.738156 264.429028 
L 346.341408 261.443251 
L 333.707275 259.733018 
z
" clip-path="url(#p56b3306f0e)" style="fill: #4682b4; fill-opacity: 0.8"/>
    <path d="M 128.520393 262.915803 
L 140.625113 264.644556 
L 148.230365 261.656621 
L 136.164259 259.945157 
z
" clip-path="url(#p56b3306f0e)" style="fill: #4682b4; fill-opacity: 0.8"/>
    <path d="M 243.760637 263.039587 
L 256.20367 264.769063 
L 263.230137 261.77988 
L 250.829094 260.067705 
z
" clip-path="url(#p56b3306f0e)" style="fill: #4682b4; fill-opacity: 0.8"/>
    <path d="M 359.048967 263.163423 
L 371.830595 264.893621 
L 378.277794 261.903191 
L 365.541535 260.190304 
z
" clip-path="url(#p56b3306f0e)" style="fill: #4682b4; fill-opacity: 0.8"/>
    <path d="M 160.366621 263.378035 
L 172.573642 265.109487 
L 180.024288 262.116893 
L 167.856871 260.402771 
z
" clip-path="url(#p56b3306f0e)" style="fill: #4682b4; fill-opacity: 0.8"/>
    <path d="M 275.703294 263.502012 
L 288.249195 265.234188 
L 295.120086 262.240344 
L 282.617173 260.525509 
z
" clip-path="url(#p56b3306f0e)" style="fill: #4682b4; fill-opacity: 0.8"/>
    <path d="M 76.877449 263.71687 
L 88.84791 265.4503 
L 96.723697 262.454289 
L 84.790446 260.738218 
z
" clip-path="url(#p56b3306f0e)" style="fill: #4682b4; fill-opacity: 0.8"/>
    <path d="M 192.2625 263.840988 
L 204.572126 265.575144 
L 211.867673 262.577881 
L 199.598645 260.861096 
z
" clip-path="url(#p56b3306f0e)" style="fill: #4682b4; fill-opacity: 0.8"/>
    <path d="M 307.695762 263.965159 
L 320.344837 265.70004 
L 327.059658 262.701524 
L 314.454573 260.984024 
z
" clip-path="url(#p56b3306f0e)" style="fill: #4682b4; fill-opacity: 0.8"/>
    <path d="M 108.72642 264.180351 
L 120.799224 265.916491 
L 128.520393 262.915803 
L 116.485789 261.197063 
z
" clip-path="url(#p56b3306f0e)" style="fill: #4682b4; fill-opacity: 0.8"/>
    <path d="M 224.208144 264.304663 
L 236.620682 266.04153 
L 243.760637 263.039587 
L 231.389695 261.320131 
z
" clip-path="url(#p56b3306f0e)" style="fill: #4682b4; fill-opacity: 0.8"/>
    <path d="M 339.738156 264.429028 
L 352.490713 266.166622 
L 359.048967 263.163423 
L 346.341408 261.443251 
z
" clip-path="url(#p56b3306f0e)" style="fill: #4682b4; fill-opacity: 0.8"/>
    <path d="M 140.625113 264.644556 
L 152.800564 266.383411 
L 160.366621 263.378035 
L 148.230365 261.656621 
z
" clip-path="url(#p56b3306f0e)" style="fill: #4682b4; fill-opacity: 0.8"/>
    <path d="M 256.20367 264.769063 
L 268.719427 266.508646 
L 275.703294 263.502012 
L 263.230137 261.77988 
z
" clip-path="url(#p56b3306f0e)" style="fill: #4682b4; fill-opacity: 0.8"/>
    <path d="M 371.830595 264.893621 
L 384.686941 266.633934 
L 391.088131 263.626041 
L 378.277794 261.903191 
z
" clip-path="url(#p56b3306f0e)" style="fill: #4682b4; fill-opacity: 0.8"/>
    <path d="M 56.946505 264.984838 
L 68.884319 266.725685 
L 76.877449 263.71687 
L 64.97642 261.993493 
z
" clip-path="url(#p56b3306f0e)" style="fill: #4682b4; fill-opacity: 0.8"/>
    <path d="M 172.573642 265.109487 
L 184.852049 266.851063 
L 192.2625 263.840988 
L 180.024288 262.116893 
z
" clip-path="url(#p56b3306f0e)" style="fill: #4682b4; fill-opacity: 0.8"/>
    <path d="M 288.249195 265.234188 
L 300.868478 266.976495 
L 307.695762 263.965159 
L 295.120086 262.240344 
z
" clip-path="url(#p56b3306f0e)" style="fill: #4682b4; fill-opacity: 0.8"/>
    <path d="M 88.84791 265.4503 
L 100.888413 267.193873 
L 108.72642 264.180351 
L 96.723697 262.454289 
z
" clip-path="url(#p56b3306f0e)" style="fill: #4682b4; fill-opacity: 0.8"/>
    <path d="M 204.572126 265.575144 
L 216.953795 267.319449 
L 224.208144 264.304663 
L 211.867673 262.577881 
z
" clip-path="url(#p56b3306f0e)" style="fill: #4682b4; fill-opacity: 0.8"/>
    <path d="M 320.344837 265.70004 
L 333.067955 267.445077 
L 339.738156 264.429028 
L 327.059658 262.701524 
z
" clip-path="url(#p56b3306f0e)" style="fill: #4682b4; fill-opacity: 0.8"/>
    <path d="M 120.799224 265.916491 
L 132.942724 267.662797 
L 140.625113 264.644556 
L 128.520393 262.915803 
z
" clip-path="url(#p56b3306f0e)" style="fill: #4682b4; fill-opacity: 0.8"/>
    <path d="M 236.620682 266.04153 
L 249.105921 267.78857 
L 256.20367 264.769063 
L 243.760637 263.039587 
z
" clip-path="url(#p56b3306f0e)" style="fill: #4682b4; fill-opacity: 0.8"/>
    <path d="M 352.490713 266.166622 
L 365.317977 267.914395 
L 371.830595 264.893621 
L 359.048967 263.163423 
z
" clip-path="url(#p56b3306f0e)" style="fill: #4682b4; fill-opacity: 0.8"/>
    <path d="M 152.800564 266.383411 
L 165.047369 268.132457 
L 172.573642 265.109487 
L 160.366621 263.378035 
z
" clip-path="url(#p56b3306f0e)" style="fill: #4682b4; fill-opacity: 0.8"/>
    <path d="M 268.719427 266.508646 
L 281.308546 268.258427 
L 288.249195 265.234188 
L 275.703294 263.502012 
z
" clip-path="url(#p56b3306f0e)" style="fill: #4682b4; fill-opacity: 0.8"/>
    <path d="M 68.884319 266.725685 
L 80.892134 268.476739 
L 88.84791 265.4503 
L 76.877449 263.71687 
z
" clip-path="url(#p56b3306f0e)" style="fill: #4682b4; fill-opacity: 0.8"/>
    <path d="M 184.852049 266.851063 
L 197.202468 268.602855 
L 204.572126 265.575144 
L 192.2625 263.840988 
z
" clip-path="url(#p56b3306f0e)" style="fill: #4682b4; fill-opacity: 0.8"/>
    <path d="M 300.868478 266.976495 
L 313.561789 268.729023 
L 320.344837 265.70004 
L 307.695762 263.965159 
z
" clip-path="url(#p56b3306f0e)" style="fill: #4682b4; fill-opacity: 0.8"/>
    <path d="M 100.888413 267.193873 
L 112.999575 268.947679 
L 120.799224 265.916491 
L 108.72642 264.180351 
z
" clip-path="url(#p56b3306f0e)" style="fill: #4682b4; fill-opacity: 0.8"/>
    <path d="M 216.953795 267.319449 
L 229.408139 269.073992 
L 236.620682 266.04153 
L 224.208144 264.304663 
z
" clip-path="url(#p56b3306f0e)" style="fill: #4682b4; fill-opacity: 0.8"/>
    <path d="M 333.067955 267.445077 
L 345.86577 269.200359 
L 352.490713 266.166622 
L 339.738156 264.429028 
z
" clip-path="url(#p56b3306f0e)" style="fill: #4682b4; fill-opacity: 0.8"/>
    <path d="M 132.942724 267.662797 
L 145.157543 269.419359 
L 152.800564 266.383411 
L 140.625113 264.644556 
z
" clip-path="url(#p56b3306f0e)" style="fill: #4682b4; fill-opacity: 0.8"/>
    <path d="M 249.105921 267.78857 
L 261.664501 269.545872 
L 268.719427 266.508646 
L 256.20367 264.769063 
z
" clip-path="url(#p56b3306f0e)" style="fill: #4682b4; fill-opacity: 0.8"/>
    <path d="M 365.317977 267.914395 
L 378.220608 269.672438 
L 384.686941 266.633934 
L 371.830595 264.893621 
z
" clip-path="url(#p56b3306f0e)" style="fill: #4682b4; fill-opacity: 0.8"/>
    <path d="M 48.8351 268.006539 
L 60.809833 269.765124 
L 68.884319 266.725685 
L 56.946505 264.984838 
z
" clip-path="url(#p56b3306f0e)" style="fill: #4682b4; fill-opacity: 0.8"/>
    <path d="M 165.047369 268.132457 
L 177.366156 269.891782 
L 184.852049 266.851063 
L 172.573642 265.109487 
z
" clip-path="url(#p56b3306f0e)" style="fill: #4682b4; fill-opacity: 0.8"/>
    <path d="M 281.308546 268.258427 
L 293.971676 270.018494 
L 300.868478 266.976495 
L 288.249195 265.234188 
z
" clip-path="url(#p56b3306f0e)" style="fill: #4682b4; fill-opacity: 0.8"/>
    <path d="M 80.892134 268.476739 
L 92.970566 270.238092 
L 100.888413 267.193873 
L 88.84791 265.4503 
z
" clip-path="url(#p56b3306f0e)" style="fill: #4682b4; fill-opacity: 0.8"/>
    <path d="M 197.202468 268.602855 
L 209.625535 270.36495 
L 216.953795 267.319449 
L 204.572126 265.575144 
z
" clip-path="url(#p56b3306f0e)" style="fill: #4682b4; fill-opacity: 0.8"/>
    <path d="M 313.561789 268.729023 
L 326.329782 270.491862 
L 333.067955 267.445077 
L 320.344837 265.70004 
z
" clip-path="url(#p56b3306f0e)" style="fill: #4682b4; fill-opacity: 0.8"/>
    <path d="M 112.999575 268.947679 
L 125.182019 270.711806 
L 132.942724 267.662797 
L 120.799224 265.916491 
z
" clip-path="url(#p56b3306f0e)" style="fill: #4682b4; fill-opacity: 0.8"/>
    <path d="M 229.408139 269.073992 
L 241.9358 270.838865 
L 249.105921 267.78857 
L 236.620682 266.04153 
z
" clip-path="url(#p56b3306f0e)" style="fill: #4682b4; fill-opacity: 0.8"/>
    <path d="M 345.86577 269.200359 
L 358.73894 270.965977 
L 365.317977 267.914395 
L 352.490713 266.166622 
z
" clip-path="url(#p56b3306f0e)" style="fill: #4682b4; fill-opacity: 0.8"/>
    <path d="M 145.157543 269.419359 
L 157.44431 271.186268 
L 165.047369 268.132457 
L 152.800564 266.383411 
z
" clip-path="url(#p56b3306f0e)" style="fill: #4682b4; fill-opacity: 0.8"/>
    <path d="M 261.664501 269.545872 
L 274.297071 271.313527 
L 281.308546 268.258427 
L 268.719427 266.508646 
z
" clip-path="url(#p56b3306f0e)" style="fill: #4682b4; fill-opacity: 0.8"/>
    <path d="M 60.809833 269.765124 
L 72.855143 271.534073 
L 80.892134 268.476739 
L 68.884319 266.725685 
z
" clip-path="url(#p56b3306f0e)" style="fill: #4682b4; fill-opacity: 0.8"/>
    <path d="M 177.366156 269.891782 
L 189.757562 271.661479 
L 197.202468 268.602855 
L 184.852049 266.851063 
z
" clip-path="url(#p56b3306f0e)" style="fill: #4682b4; fill-opacity: 0.8"/>
    <path d="M 293.971676 270.018494 
L 306.70947 271.788939 
L 313.561789 268.729023 
L 300.868478 266.976495 
z
" clip-path="url(#p56b3306f0e)" style="fill: #4682b4; fill-opacity: 0.8"/>
    <path d="M 92.970566 270.238092 
L 105.120242 272.009834 
L 112.999575 268.947679 
L 100.888413 267.193873 
z
" clip-path="url(#p56b3306f0e)" style="fill: #4682b4; fill-opacity: 0.8"/>
    <path d="M 209.625535 270.36495 
L 222.121894 272.137442 
L 229.408139 269.073992 
L 216.953795 267.319449 
z
" clip-path="url(#p56b3306f0e)" style="fill: #4682b4; fill-opacity: 0.8"/>
    <path d="M 326.329782 270.491862 
L 339.173116 272.265103 
L 345.86577 269.200359 
L 333.067955 267.445077 
z
" clip-path="url(#p56b3306f0e)" style="fill: #4682b4; fill-opacity: 0.8"/>
    <path d="M 125.182019 270.711806 
L 137.436376 272.486348 
L 145.157543 269.419359 
L 132.942724 267.662797 
z
" clip-path="url(#p56b3306f0e)" style="fill: #4682b4; fill-opacity: 0.8"/>
    <path d="M 241.9358 270.838865 
L 254.537429 272.614157 
L 261.664501 269.545872 
L 249.105921 267.78857 
z
" clip-path="url(#p56b3306f0e)" style="fill: #4682b4; fill-opacity: 0.8"/>
    <path d="M 358.73894 270.965977 
L 371.688133 272.742021 
L 378.220608 269.672438 
L 365.317977 267.914395 
z
" clip-path="url(#p56b3306f0e)" style="fill: #4682b4; fill-opacity: 0.8"/>
    <path d="M 40.640957 271.059063 
L 52.652743 272.835658 
L 60.809833 269.765124 
L 48.8351 268.006539 
z
" clip-path="url(#p56b3306f0e)" style="fill: #4682b4; fill-opacity: 0.8"/>
    <path d="M 157.44431 271.186268 
L 169.803665 272.963615 
L 177.366156 269.891782 
L 165.047369 268.132457 
z
" clip-path="url(#p56b3306f0e)" style="fill: #4682b4; fill-opacity: 0.8"/>
    <path d="M 274.297071 271.313527 
L 287.004287 273.091627 
L 293.971676 270.018494 
L 281.308546 268.258427 
z
" clip-path="url(#p56b3306f0e)" style="fill: #4682b4; fill-opacity: 0.8"/>
    <path d="M 72.855143 271.534073 
L 84.971653 273.313479 
L 92.970566 270.238092 
L 80.892134 268.476739 
z
" clip-path="url(#p56b3306f0e)" style="fill: #4682b4; fill-opacity: 0.8"/>
    <path d="M 189.757562 271.661479 
L 202.222231 273.441639 
L 209.625535 270.36495 
L 197.202468 268.602855 
z
" clip-path="url(#p56b3306f0e)" style="fill: #4682b4; fill-opacity: 0.8"/>
    <path d="M 306.70947 271.788939 
L 319.52259 273.569854 
L 326.329782 270.491862 
L 313.561789 268.729023 
z
" clip-path="url(#p56b3306f0e)" style="fill: #4682b4; fill-opacity: 0.8"/>
    <path d="M 105.120242 272.009834 
L 117.341793 273.792057 
L 125.182019 270.711806 
L 112.999575 268.947679 
z
" clip-path="url(#p56b3306f0e)" style="fill: #4682b4; fill-opacity: 0.8"/>
    <path d="M 222.121894 272.137442 
L 234.692195 273.920421 
L 241.9358 270.838865 
L 229.408139 269.073992 
z
" clip-path="url(#p56b3306f0e)" style="fill: #4682b4; fill-opacity: 0.8"/>
    <path d="M 339.173116 272.265103 
L 352.092462 274.048839 
L 358.73894 270.965977 
L 345.86577 269.200359 
z
" clip-path="url(#p56b3306f0e)" style="fill: #4682b4; fill-opacity: 0.8"/>
    <path d="M 137.436376 272.486348 
L 149.763285 274.271395 
L 157.44431 271.186268 
L 145.157543 269.419359 
z
" clip-path="url(#p56b3306f0e)" style="fill: #4682b4; fill-opacity: 0.8"/>
    <path d="M 254.537429 272.614157 
L 267.213681 274.399962 
L 274.297071 271.313527 
L 261.664501 269.545872 
z
" clip-path="url(#p56b3306f0e)" style="fill: #4682b4; fill-opacity: 0.8"/>
    <path d="M 52.652743 272.835658 
L 64.735688 274.622777 
L 72.855143 271.534073 
L 60.809833 269.765124 
z
" clip-path="url(#p56b3306f0e)" style="fill: #4682b4; fill-opacity: 0.8"/>
    <path d="M 169.803665 272.963615 
L 182.236251 274.751494 
L 189.757562 271.661479 
L 177.366156 269.891782 
z
" clip-path="url(#p56b3306f0e)" style="fill: #4682b4; fill-opacity: 0.8"/>
    <path d="M 287.004287 273.091627 
L 299.786811 274.880265 
L 306.70947 271.788939 
L 293.971676 270.018494 
z
" clip-path="url(#p56b3306f0e)" style="fill: #4682b4; fill-opacity: 0.8"/>
    <path d="M 84.971653 273.313479 
L 97.159999 275.103434 
L 105.120242 272.009834 
L 92.970566 270.238092 
z
" clip-path="url(#p56b3306f0e)" style="fill: #4682b4; fill-opacity: 0.8"/>
    <path d="M 202.222231 273.441639 
L 214.760814 275.232355 
L 222.121894 272.137442 
L 209.625535 270.36495 
z
" clip-path="url(#p56b3306f0e)" style="fill: #4682b4; fill-opacity: 0.8"/>
    <path d="M 319.52259 273.569854 
L 332.411708 275.361332 
L 339.173116 272.265103 
L 326.329782 270.491862 
z
" clip-path="url(#p56b3306f0e)" style="fill: #4682b4; fill-opacity: 0.8"/>
    <path d="M 117.341793 273.792057 
L 129.635859 275.584855 
L 137.436376 272.486348 
L 125.182019 270.711806 
z
" clip-path="url(#p56b3306f0e)" style="fill: #4682b4; fill-opacity: 0.8"/>
    <path d="M 234.692195 273.920421 
L 247.337096 275.713982 
L 254.537429 272.614157 
L 241.9358 270.838865 
z
" clip-path="url(#p56b3306f0e)" style="fill: #4682b4; fill-opacity: 0.8"/>
    <path d="M 352.092462 274.048839 
L 365.088495 275.843163 
L 371.688133 272.742021 
L 358.73894 270.965977 
z
" clip-path="url(#p56b3306f0e)" style="fill: #4682b4; fill-opacity: 0.8"/>
    <path d="M 32.362803 274.142882 
L 44.411775 275.937766 
L 52.652743 272.835658 
L 40.640957 271.059063 
z
" clip-path="url(#p56b3306f0e)" style="fill: #4682b4; fill-opacity: 0.8"/>
    <path d="M 149.763285 274.271395 
L 162.163393 276.067042 
L 169.803665 272.963615 
L 157.44431 271.186268 
z
" clip-path="url(#p56b3306f0e)" style="fill: #4682b4; fill-opacity: 0.8"/>
    <path d="M 267.213681 274.399962 
L 279.965223 276.196374 
L 287.004287 273.091627 
L 274.297071 271.313527 
z
" clip-path="url(#p56b3306f0e)" style="fill: #4682b4; fill-opacity: 0.8"/>
    <path d="M 64.735688 274.622777 
L 76.890423 276.420515 
L 84.971653 273.313479 
L 72.855143 271.534073 
z
" clip-path="url(#p56b3306f0e)" style="fill: #4682b4; fill-opacity: 0.8"/>
    <path d="M 182.236251 274.751494 
L 194.742722 276.549997 
L 202.222231 273.441639 
L 189.757562 271.661479 
z
" clip-path="url(#p56b3306f0e)" style="fill: #4682b4; fill-opacity: 0.8"/>
    <path d="M 299.786811 274.880265 
L 312.645316 276.679535 
L 319.52259 273.569854 
L 306.70947 271.788939 
z
" clip-path="url(#p56b3306f0e)" style="fill: #4682b4; fill-opacity: 0.8"/>
    <path d="M 97.159999 275.103434 
L 109.420819 276.904033 
L 117.341793 273.792057 
L 105.120242 272.009834 
z
" clip-path="url(#p56b3306f0e)" style="fill: #4682b4; fill-opacity: 0.8"/>
    <path d="M 214.760814 275.232355 
L 227.373971 277.033722 
L 234.692195 273.920421 
L 222.121894 272.137442 
z
" clip-path="url(#p56b3306f0e)" style="fill: #4682b4; fill-opacity: 0.8"/>
    <path d="M 332.411708 275.361332 
L 345.377501 277.163467 
L 352.092462 274.048839 
L 339.173116 272.265103 
z
" clip-path="url(#p56b3306f0e)" style="fill: #4682b4; fill-opacity: 0.8"/>
    <path d="M 129.635859 275.584855 
L 142.003088 277.388322 
L 149.763285 274.271395 
L 137.436376 272.486348 
z
" clip-path="url(#p56b3306f0e)" style="fill: #4682b4; fill-opacity: 0.8"/>
    <path d="M 247.337096 275.713982 
L 260.057264 277.518218 
L 267.213681 274.399962 
L 254.537429 272.614157 
z
" clip-path="url(#p56b3306f0e)" style="fill: #4682b4; fill-opacity: 0.8"/>
    <path d="M 44.411775 275.937766 
L 56.532492 277.743336 
L 64.735688 274.622777 
L 52.652743 272.835658 
z
" clip-path="url(#p56b3306f0e)" style="fill: #4682b4; fill-opacity: 0.8"/>
    <path d="M 162.163393 276.067042 
L 174.637352 277.873384 
L 182.236251 274.751494 
L 169.803665 272.963615 
z
" clip-path="url(#p56b3306f0e)" style="fill: #4682b4; fill-opacity: 0.8"/>
    <path d="M 279.965223 276.196374 
L 292.792725 278.003488 
L 299.786811 274.880265 
L 287.004287 273.091627 
z
" clip-path="url(#p56b3306f0e)" style="fill: #4682b4; fill-opacity: 0.8"/>
    <path d="M 76.890423 276.420515 
L 89.117592 278.228965 
L 97.159999 275.103434 
L 84.971653 273.313479 
z
" clip-path="url(#p56b3306f0e)" style="fill: #4682b4; fill-opacity: 0.8"/>
    <path d="M 194.742722 276.549997 
L 207.323738 278.359221 
L 214.760814 275.232355 
L 202.222231 273.441639 
z
" clip-path="url(#p56b3306f0e)" style="fill: #4682b4; fill-opacity: 0.8"/>
    <path d="M 312.645316 276.679535 
L 325.58048 278.489532 
L 332.411708 275.361332 
L 319.52259 273.569854 
z
" clip-path="url(#p56b3306f0e)" style="fill: #4682b4; fill-opacity: 0.8"/>
    <path d="M 109.420819 276.904033 
L 121.754764 278.71537 
L 129.635859 275.584855 
L 117.341793 273.792057 
z
" clip-path="url(#p56b3306f0e)" style="fill: #4682b4; fill-opacity: 0.8"/>
    <path d="M 227.373971 277.033722 
L 240.062369 278.845834 
L 247.337096 275.713982 
L 234.692195 273.920421 
z
" clip-path="url(#p56b3306f0e)" style="fill: #4682b4; fill-opacity: 0.8"/>
    <path d="M 345.377501 277.163467 
L 358.420655 278.976354 
L 365.088495 275.843163 
L 352.092462 274.048839 
z
" clip-path="url(#p56b3306f0e)" style="fill: #4682b4; fill-opacity: 0.8"/>
    <path d="M 23.999341 277.258481 
L 36.085628 279.071937 
L 44.411775 275.937766 
L 32.362803 274.142882 
z
" clip-path="url(#p56b3306f0e)" style="fill: #4682b4; fill-opacity: 0.8"/>
    <path d="M 142.003088 277.388322 
L 154.444133 279.202553 
L 162.163393 276.067042 
L 149.763285 274.271395 
z
" clip-path="url(#p56b3306f0e)" style="fill: #4682b4; fill-opacity: 0.8"/>
    <path d="M 260.057264 277.518218 
L 272.853371 279.333226 
L 279.965223 276.196374 
L 267.213681 274.399962 
z
" clip-path="url(#p56b3306f0e)" style="fill: #4682b4; fill-opacity: 0.8"/>
    <path d="M 56.532492 277.743336 
L 68.725598 279.55969 
L 76.890423 276.420515 
L 64.735688 274.622777 
z
" clip-path="url(#p56b3306f0e)" style="fill: #4682b4; fill-opacity: 0.8"/>
    <path d="M 174.637352 277.873384 
L 187.185826 279.690516 
L 194.742722 276.549997 
L 182.236251 274.751494 
z
" clip-path="url(#p56b3306f0e)" style="fill: #4682b4; fill-opacity: 0.8"/>
    <path d="M 292.792725 278.003488 
L 305.69687 279.821398 
L 312.645316 276.679535 
L 299.786811 274.880265 
z
" clip-path="url(#p56b3306f0e)" style="fill: #4682b4; fill-opacity: 0.8"/>
    <path d="M 89.117592 278.228965 
L 101.417843 280.048225 
L 109.420819 276.904033 
L 97.159999 275.103434 
z
" clip-path="url(#p56b3306f0e)" style="fill: #4682b4; fill-opacity: 0.8"/>
    <path d="M 207.323738 278.359221 
L 219.979967 280.179261 
L 227.373971 277.033722 
L 214.760814 275.232355 
z
" clip-path="url(#p56b3306f0e)" style="fill: #4682b4; fill-opacity: 0.8"/>
    <path d="M 325.58048 278.489532 
L 338.592993 280.310352 
L 345.377501 277.163467 
L 332.411708 275.361332 
z
" clip-path="url(#p56b3306f0e)" style="fill: #4682b4; fill-opacity: 0.8"/>
    <path d="M 121.754764 278.71537 
L 134.162488 280.537543 
L 142.003088 277.388322 
L 129.635859 275.584855 
z
" clip-path="url(#p56b3306f0e)" style="fill: #4682b4; fill-opacity: 0.8"/>
    <path d="M 240.062369 278.845834 
L 252.826683 280.668789 
L 260.057264 277.518218 
L 247.337096 275.713982 
z
" clip-path="url(#p56b3306f0e)" style="fill: #4682b4; fill-opacity: 0.8"/>
    <path d="M 36.085628 279.071937 
L 48.244255 280.896246 
L 56.532492 277.743336 
L 44.411775 275.937766 
z
" clip-path="url(#p56b3306f0e)" style="fill: #4682b4; fill-opacity: 0.8"/>
    <path d="M 154.444133 279.202553 
L 166.959659 281.027646 
L 174.637352 277.873384 
L 162.163393 276.067042 
z
" clip-path="url(#p56b3306f0e)" style="fill: #4682b4; fill-opacity: 0.8"/>
    <path d="M 272.853371 279.333226 
L 285.726101 281.159102 
L 292.792725 278.003488 
L 279.965223 276.196374 
z
" clip-path="url(#p56b3306f0e)" style="fill: #4682b4; fill-opacity: 0.8"/>
    <path d="M 68.725598 279.55969 
L 80.991743 281.386925 
L 89.117592 278.228965 
L 76.890423 276.420515 
z
" clip-path="url(#p56b3306f0e)" style="fill: #4682b4; fill-opacity: 0.8"/>
    <path d="M 187.185826 279.690516 
L 199.809483 281.518535 
L 207.323738 278.359221 
L 194.742722 276.549997 
z
" clip-path="url(#p56b3306f0e)" style="fill: #4682b4; fill-opacity: 0.8"/>
    <path d="M 305.69687 279.821398 
L 318.678347 281.650203 
L 325.58048 278.489532 
L 312.645316 276.679535 
z
" clip-path="url(#p56b3306f0e)" style="fill: #4682b4; fill-opacity: 0.8"/>
    <path d="M 101.417843 280.048225 
L 113.791834 281.878392 
L 121.754764 278.71537 
L 109.420819 276.904033 
z
" clip-path="url(#p56b3306f0e)" style="fill: #4682b4; fill-opacity: 0.8"/>
    <path d="M 219.979967 280.179261 
L 232.712087 282.010214 
L 240.062369 278.845834 
L 227.373971 277.033722 
z
" clip-path="url(#p56b3306f0e)" style="fill: #4682b4; fill-opacity: 0.8"/>
    <path d="M 338.592993 280.310352 
L 351.683548 282.142093 
L 358.420655 278.976354 
L 345.377501 277.163467 
z
" clip-path="url(#p56b3306f0e)" style="fill: #4682b4; fill-opacity: 0.8"/>
    <path d="M 15.549245 280.406354 
L 27.672974 282.238671 
L 36.085628 279.071937 
L 23.999341 277.258481 
z
" clip-path="url(#p56b3306f0e)" style="fill: #4682b4; fill-opacity: 0.8"/>
    <path d="M 134.162488 280.537543 
L 146.644656 282.370648 
L 154.444133 279.202553 
L 142.003088 277.388322 
z
" clip-path="url(#p56b3306f0e)" style="fill: #4682b4; fill-opacity: 0.8"/>
    <path d="M 252.826683 280.668789 
L 265.667598 282.502683 
L 272.853371 279.333226 
L 260.057264 277.518218 
z
" clip-path="url(#p56b3306f0e)" style="fill: #4682b4; fill-opacity: 0.8"/>
    <path d="M 48.244255 280.896246 
L 60.475875 282.731507 
L 68.725598 279.55969 
L 56.532492 277.743336 
z
" clip-path="url(#p56b3306f0e)" style="fill: #4682b4; fill-opacity: 0.8"/>
    <path d="M 166.959659 281.027646 
L 179.550336 282.863697 
L 187.185826 279.690516 
L 174.637352 277.873384 
z
" clip-path="url(#p56b3306f0e)" style="fill: #4682b4; fill-opacity: 0.8"/>
    <path d="M 285.726101 281.159102 
L 298.676143 282.995944 
L 305.69687 279.821398 
L 292.792725 278.003488 
z
" clip-path="url(#p56b3306f0e)" style="fill: #4682b4; fill-opacity: 0.8"/>
    <path d="M 80.991743 281.386925 
L 93.331584 283.225137 
L 101.417843 280.048225 
L 89.117592 278.228965 
z
" clip-path="url(#p56b3306f0e)" style="fill: #4682b4; fill-opacity: 0.8"/>
    <path d="M 199.809483 281.518535 
L 212.509002 283.35754 
L 219.979967 280.179261 
L 207.323738 278.359221 
z
" clip-path="url(#p56b3306f0e)" style="fill: #4682b4; fill-opacity: 0.8"/>
    <path d="M 318.678347 281.650203 
L 331.737852 283.49 
L 338.592993 280.310352 
L 325.58048 278.489532 
z
" clip-path="url(#p56b3306f0e)" style="fill: #4682b4; fill-opacity: 0.8"/>
    <path d="M 113.791834 281.878392 
L 126.24023 283.719563 
L 134.162488 280.537543 
L 121.754764 278.71537 
z
" clip-path="url(#p56b3306f0e)" style="fill: #4682b4; fill-opacity: 0.8"/>
    <path d="M 232.712087 282.010214 
L 245.520782 283.852179 
L 252.826683 280.668789 
L 240.062369 278.845834 
z
" clip-path="url(#p56b3306f0e)" style="fill: #4682b4; fill-opacity: 0.8"/>
    <path d="M 27.672974 282.238671 
L 39.869647 284.082012 
L 48.244255 280.896246 
L 36.085628 279.071937 
z
" clip-path="url(#p56b3306f0e)" style="fill: #4682b4; fill-opacity: 0.8"/>
    <path d="M 146.644656 282.370648 
L 159.20194 284.214785 
L 166.959659 281.027646 
L 154.444133 279.202553 
z
" clip-path="url(#p56b3306f0e)" style="fill: #4682b4; fill-opacity: 0.8"/>
    <path d="M 265.667598 282.502683 
L 278.585804 284.347615 
L 285.726101 281.159102 
L 272.853371 279.333226 
z
" clip-path="url(#p56b3306f0e)" style="fill: #4682b4; fill-opacity: 0.8"/>
    <path d="M 60.475875 282.731507 
L 72.781146 284.57782 
L 80.991743 281.386925 
L 68.725598 279.55969 
z
" clip-path="url(#p56b3306f0e)" style="fill: #4682b4; fill-opacity: 0.8"/>
    <path d="M 179.550336 282.863697 
L 192.216843 284.710807 
L 199.809483 281.518535 
L 187.185826 279.690516 
z
" clip-path="url(#p56b3306f0e)" style="fill: #4682b4; fill-opacity: 0.8"/>
    <path d="M 298.676143 282.995944 
L 311.704197 284.843851 
L 318.678347 281.650203 
L 305.69687 279.821398 
z
" clip-path="url(#p56b3306f0e)" style="fill: #4682b4; fill-opacity: 0.8"/>
    <path d="M 93.331584 283.225137 
L 105.745789 285.074428 
L 113.791834 281.878392 
L 101.417843 280.048225 
z
" clip-path="url(#p56b3306f0e)" style="fill: #4682b4; fill-opacity: 0.8"/>
    <path d="M 212.509002 283.35754 
L 225.285068 285.20763 
L 232.712087 282.010214 
L 219.979967 280.179261 
z
" clip-path="url(#p56b3306f0e)" style="fill: #4682b4; fill-opacity: 0.8"/>
    <path d="M 331.737852 283.49 
L 344.87609 285.340889 
L 351.683548 282.142093 
L 338.592993 280.310352 
z
" clip-path="url(#p56b3306f0e)" style="fill: #4682b4; fill-opacity: 0.8"/>
    <path d="M 126.24023 283.719563 
L 138.763704 285.571838 
L 146.644656 282.370648 
L 134.162488 280.537543 
z
" clip-path="url(#p56b3306f0e)" style="fill: #4682b4; fill-opacity: 0.8"/>
    <path d="M 245.520782 283.852179 
L 258.406744 285.705255 
L 265.667598 282.502683 
L 252.826683 280.668789 
z
" clip-path="url(#p56b3306f0e)" style="fill: #4682b4; fill-opacity: 0.8"/>
    <path d="M 39.869647 284.082012 
L 52.139922 285.936478 
L 60.475875 282.731507 
L 48.244255 280.896246 
z
" clip-path="url(#p56b3306f0e)" style="fill: #4682b4; fill-opacity: 0.8"/>
    <path d="M 159.20194 284.214785 
L 171.83502 286.070053 
L 179.550336 282.863697 
L 166.959659 281.027646 
z
" clip-path="url(#p56b3306f0e)" style="fill: #4682b4; fill-opacity: 0.8"/>
    <path d="M 278.585804 284.347615 
L 291.582001 286.203686 
L 298.676143 282.995944 
L 285.726101 281.159102 
z
" clip-path="url(#p56b3306f0e)" style="fill: #4682b4; fill-opacity: 0.8"/>
    <path d="M 72.781146 284.57782 
L 85.160736 286.435283 
L 93.331584 283.225137 
L 80.991743 281.386925 
z
" clip-path="url(#p56b3306f0e)" style="fill: #4682b4; fill-opacity: 0.8"/>
    <path d="M 192.216843 284.710807 
L 204.959867 286.569075 
L 212.509002 283.35754 
L 199.809483 281.518535 
z
" clip-path="url(#p56b3306f0e)" style="fill: #4682b4; fill-opacity: 0.8"/>
    <path d="M 311.704197 284.843851 
L 324.810969 286.702924 
L 331.737852 283.49 
L 318.678347 281.650203 
z
" clip-path="url(#p56b3306f0e)" style="fill: #4682b4; fill-opacity: 0.8"/>
    <path d="M 105.745789 285.074428 
L 118.235031 286.934896 
L 126.24023 283.719563 
L 113.791834 281.878392 
z
" clip-path="url(#p56b3306f0e)" style="fill: #4682b4; fill-opacity: 0.8"/>
    <path d="M 225.285068 285.20763 
L 238.138375 287.068904 
L 245.520782 283.852179 
L 232.712087 282.010214 
z
" clip-path="url(#p56b3306f0e)" style="fill: #4682b4; fill-opacity: 0.8"/>
    <path d="M 138.763704 285.571838 
L 151.362937 287.435319 
L 159.20194 284.214785 
L 146.644656 282.370648 
z
" clip-path="url(#p56b3306f0e)" style="fill: #4682b4; fill-opacity: 0.8"/>
    <path d="M 258.406744 285.705255 
L 271.370675 287.569544 
L 278.585804 284.347615 
L 265.667598 282.502683 
z
" clip-path="url(#p56b3306f0e)" style="fill: #4682b4; fill-opacity: 0.8"/>
    <path d="M 52.139922 285.936478 
L 64.484469 287.802168 
L 72.781146 284.57782 
L 60.475875 282.731507 
z
" clip-path="url(#p56b3306f0e)" style="fill: #4682b4; fill-opacity: 0.8"/>
    <path d="M 171.83502 286.070053 
L 184.544584 287.936553 
L 192.216843 284.710807 
L 179.550336 282.863697 
z
" clip-path="url(#p56b3306f0e)" style="fill: #4682b4; fill-opacity: 0.8"/>
    <path d="M 291.582001 286.203686 
L 304.656898 288.070997 
L 311.704197 284.843851 
L 298.676143 282.995944 
z
" clip-path="url(#p56b3306f0e)" style="fill: #4682b4; fill-opacity: 0.8"/>
    <path d="M 85.160736 286.435283 
L 97.61532 288.303998 
L 105.745789 285.074428 
L 93.331584 283.225137 
z
" clip-path="url(#p56b3306f0e)" style="fill: #4682b4; fill-opacity: 0.8"/>
    <path d="M 204.959867 286.569075 
L 217.780104 288.438602 
L 225.285068 285.20763 
L 212.509002 283.35754 
z
" clip-path="url(#p56b3306f0e)" style="fill: #4682b4; fill-opacity: 0.8"/>
    <path d="M 324.810969 286.702924 
L 337.997174 288.573264 
L 344.87609 285.340889 
L 331.737852 283.49 
z
" clip-path="url(#p56b3306f0e)" style="fill: #4682b4; fill-opacity: 0.8"/>
    <path d="M 118.235031 286.934896 
L 130.799993 288.806644 
L 138.763704 285.571838 
L 126.24023 283.719563 
z
" clip-path="url(#p56b3306f0e)" style="fill: #4682b4; fill-opacity: 0.8"/>
    <path d="M 238.138375 287.068904 
L 251.069627 288.941466 
L 258.406744 285.705255 
L 245.520782 283.852179 
z
" clip-path="url(#p56b3306f0e)" style="fill: #4682b4; fill-opacity: 0.8"/>
    <path d="M 151.362937 287.435319 
L 164.038618 289.310106 
L 171.83502 286.070053 
L 159.20194 284.214785 
z
" clip-path="url(#p56b3306f0e)" style="fill: #4682b4; fill-opacity: 0.8"/>
    <path d="M 271.370675 287.569544 
L 284.413285 289.445148 
L 291.582001 286.203686 
L 278.585804 284.347615 
z
" clip-path="url(#p56b3306f0e)" style="fill: #4682b4; fill-opacity: 0.8"/>
    <path d="M 64.484469 287.802168 
L 76.903964 289.679186 
L 85.160736 286.435283 
L 72.781146 284.57782 
z
" clip-path="url(#p56b3306f0e)" style="fill: #4682b4; fill-opacity: 0.8"/>
    <path d="M 184.544584 287.936553 
L 197.331329 289.814388 
L 204.959867 286.569075 
L 192.216843 284.710807 
z
" clip-path="url(#p56b3306f0e)" style="fill: #4682b4; fill-opacity: 0.8"/>
    <path d="M 304.656898 288.070997 
L 317.811212 289.94965 
L 324.810969 286.702924 
L 311.704197 284.843851 
z
" clip-path="url(#p56b3306f0e)" style="fill: #4682b4; fill-opacity: 0.8"/>
    <path d="M 97.61532 288.303998 
L 110.145582 290.184069 
L 118.235031 286.934896 
L 105.745789 285.074428 
z
" clip-path="url(#p56b3306f0e)" style="fill: #4682b4; fill-opacity: 0.8"/>
    <path d="M 217.780104 288.438602 
L 230.678257 290.319491 
L 238.138375 287.068904 
L 225.285068 285.20763 
z
" clip-path="url(#p56b3306f0e)" style="fill: #4682b4; fill-opacity: 0.8"/>
    <path d="M 130.799993 288.806644 
L 143.441365 290.689774 
L 151.362937 287.435319 
L 138.763704 285.571838 
z
" clip-path="url(#p56b3306f0e)" style="fill: #4682b4; fill-opacity: 0.8"/>
    <path d="M 251.069627 288.941466 
L 264.079533 290.825418 
L 271.370675 287.569544 
L 258.406744 285.705255 
z
" clip-path="url(#p56b3306f0e)" style="fill: #4682b4; fill-opacity: 0.8"/>
    <path d="M 164.038618 289.310106 
L 176.791447 291.196304 
L 184.544584 287.936553 
L 171.83502 286.070053 
z
" clip-path="url(#p56b3306f0e)" style="fill: #4682b4; fill-opacity: 0.8"/>
    <path d="M 284.413285 289.445148 
L 297.535293 291.332169 
L 304.656898 288.070997 
L 291.582001 286.203686 
z
" clip-path="url(#p56b3306f0e)" style="fill: #4682b4; fill-opacity: 0.8"/>
    <path d="M 76.903964 289.679186 
L 89.399092 291.567634 
L 97.61532 288.303998 
L 85.160736 286.435283 
z
" clip-path="url(#p56b3306f0e)" style="fill: #4682b4; fill-opacity: 0.8"/>
    <path d="M 197.331329 289.814388 
L 210.19596 291.703661 
L 217.780104 288.438602 
L 204.959867 286.569075 
z
" clip-path="url(#p56b3306f0e)" style="fill: #4682b4; fill-opacity: 0.8"/>
    <path d="M 317.811212 289.94965 
L 331.045668 291.839748 
L 337.997174 288.573264 
L 324.810969 286.702924 
z
" clip-path="url(#p56b3306f0e)" style="fill: #4682b4; fill-opacity: 0.8"/>
    <path d="M 110.145582 290.184069 
L 122.752213 292.075598 
L 130.799993 288.806644 
L 118.235031 286.934896 
z
" clip-path="url(#p56b3306f0e)" style="fill: #4682b4; fill-opacity: 0.8"/>
    <path d="M 230.678257 290.319491 
L 243.655038 292.211847 
L 251.069627 288.941466 
L 238.138375 287.068904 
z
" clip-path="url(#p56b3306f0e)" style="fill: #4682b4; fill-opacity: 0.8"/>
    <path d="M 143.441365 290.689774 
L 156.159847 292.584391 
L 164.038618 289.310106 
L 151.362937 287.435319 
z
" clip-path="url(#p56b3306f0e)" style="fill: #4682b4; fill-opacity: 0.8"/>
    <path d="M 264.079533 290.825418 
L 277.168815 292.720864 
L 284.413285 289.445148 
L 271.370675 287.569544 
z
" clip-path="url(#p56b3306f0e)" style="fill: #4682b4; fill-opacity: 0.8"/>
    <path d="M 176.791447 291.196304 
L 189.622128 293.094017 
L 197.331329 289.814388 
L 184.544584 287.936553 
z
" clip-path="url(#p56b3306f0e)" style="fill: #4682b4; fill-opacity: 0.8"/>
    <path d="M 297.535293 291.332169 
L 310.737424 293.230713 
L 317.811212 289.94965 
L 304.656898 288.070997 
z
" clip-path="url(#p56b3306f0e)" style="fill: #4682b4; fill-opacity: 0.8"/>
    <path d="M 89.399092 291.567634 
L 101.970545 293.467618 
L 110.145582 290.184069 
L 97.61532 288.303998 
z
" clip-path="url(#p56b3306f0e)" style="fill: #4682b4; fill-opacity: 0.8"/>
    <path d="M 210.19596 291.703661 
L 223.139191 293.604478 
L 230.678257 290.319491 
L 217.780104 288.438602 
z
" clip-path="url(#p56b3306f0e)" style="fill: #4682b4; fill-opacity: 0.8"/>
    <path d="M 122.752213 292.075598 
L 135.435914 293.97869 
L 143.441365 290.689774 
L 130.799993 288.806644 
z
" clip-path="url(#p56b3306f0e)" style="fill: #4682b4; fill-opacity: 0.8"/>
    <path d="M 243.655038 292.211847 
L 256.71117 294.115774 
L 264.079533 290.825418 
L 251.069627 288.941466 
z
" clip-path="url(#p56b3306f0e)" style="fill: #4682b4; fill-opacity: 0.8"/>
    <path d="M 156.159847 292.584391 
L 168.956146 294.490601 
L 176.791447 291.196304 
L 164.038618 289.310106 
z
" clip-path="url(#p56b3306f0e)" style="fill: #4682b4; fill-opacity: 0.8"/>
    <path d="M 277.168815 292.720864 
L 290.3382 294.627909 
L 297.535293 291.332169 
L 284.413285 289.445148 
z
" clip-path="url(#p56b3306f0e)" style="fill: #4682b4; fill-opacity: 0.8"/>
    <path d="M 189.622128 293.094017 
L 202.531378 295.003351 
L 210.19596 291.703661 
L 197.331329 289.814388 
z
" clip-path="url(#p56b3306f0e)" style="fill: #4682b4; fill-opacity: 0.8"/>
    <path d="M 310.737424 293.230713 
L 324.020417 295.140885 
L 331.045668 291.839748 
L 317.811212 289.94965 
z
" clip-path="url(#p56b3306f0e)" style="fill: #4682b4; fill-opacity: 0.8"/>
    <path d="M 101.970545 293.467618 
L 114.619025 295.379244 
L 122.752213 292.075598 
L 110.145582 290.184069 
z
" clip-path="url(#p56b3306f0e)" style="fill: #4682b4; fill-opacity: 0.8"/>
    <path d="M 223.139191 293.604478 
L 236.161745 295.516943 
L 243.655038 292.211847 
L 230.678257 290.319491 
z
" clip-path="url(#p56b3306f0e)" style="fill: #4682b4; fill-opacity: 0.8"/>
    <path d="M 135.435914 293.97869 
L 148.197393 295.893453 
L 156.159847 292.584391 
L 143.441365 290.689774 
z
" clip-path="url(#p56b3306f0e)" style="fill: #4682b4; fill-opacity: 0.8"/>
    <path d="M 256.71117 294.115774 
L 269.847382 296.031379 
L 277.168815 292.720864 
L 264.079533 290.825418 
z
" clip-path="url(#p56b3306f0e)" style="fill: #4682b4; fill-opacity: 0.8"/>
    <path d="M 168.956146 294.490601 
L 181.830979 296.408509 
L 189.622128 293.094017 
L 176.791447 291.196304 
z
" clip-path="url(#p56b3306f0e)" style="fill: #4682b4; fill-opacity: 0.8"/>
    <path d="M 290.3382 294.627909 
L 303.588427 296.546661 
L 310.737424 293.230713 
L 297.535293 291.332169 
z
" clip-path="url(#p56b3306f0e)" style="fill: #4682b4; fill-opacity: 0.8"/>
    <path d="M 202.531378 295.003351 
L 215.51992 296.924412 
L 223.139191 293.604478 
L 210.19596 291.703661 
z
" clip-path="url(#p56b3306f0e)" style="fill: #4682b4; fill-opacity: 0.8"/>
    <path d="M 114.619025 295.379244 
L 127.345243 297.302618 
L 135.435914 293.97869 
L 122.752213 292.075598 
z
" clip-path="url(#p56b3306f0e)" style="fill: #4682b4; fill-opacity: 0.8"/>
    <path d="M 236.161745 295.516943 
L 249.264353 297.441165 
L 256.71117 294.115774 
L 243.655038 292.211847 
z
" clip-path="url(#p56b3306f0e)" style="fill: #4682b4; fill-opacity: 0.8"/>
    <path d="M 148.197393 295.893453 
L 161.037369 297.819994 
L 168.956146 294.490601 
L 156.159847 292.584391 
z
" clip-path="url(#p56b3306f0e)" style="fill: #4682b4; fill-opacity: 0.8"/>
    <path d="M 269.847382 296.031379 
L 283.064414 297.958769 
L 290.3382 294.627909 
L 277.168815 292.720864 
z
" clip-path="url(#p56b3306f0e)" style="fill: #4682b4; fill-opacity: 0.8"/>
    <path d="M 181.830979 296.408509 
L 194.785071 298.338224 
L 202.531378 295.003351 
L 189.622128 293.094017 
z
" clip-path="url(#p56b3306f0e)" style="fill: #4682b4; fill-opacity: 0.8"/>
    <path d="M 303.588427 296.546661 
L 316.920241 298.477228 
L 324.020417 295.140885 
L 310.737424 293.230713 
z
" clip-path="url(#p56b3306f0e)" style="fill: #4682b4; fill-opacity: 0.8"/>
    <path d="M 215.51992 296.924412 
L 228.588487 298.857309 
L 236.161745 295.516943 
L 223.139191 293.604478 
z
" clip-path="url(#p56b3306f0e)" style="fill: #4682b4; fill-opacity: 0.8"/>
    <path d="M 127.345243 297.302618 
L 140.149917 299.237849 
L 148.197393 295.893453 
L 135.435914 293.97869 
z
" clip-path="url(#p56b3306f0e)" style="fill: #4682b4; fill-opacity: 0.8"/>
    <path d="M 249.264353 297.441165 
L 262.447754 299.377252 
L 269.847382 296.031379 
L 256.71117 294.115774 
z
" clip-path="url(#p56b3306f0e)" style="fill: #4682b4; fill-opacity: 0.8"/>
    <path d="M 161.037369 297.819994 
L 173.956568 299.758421 
L 181.830979 296.408509 
L 168.956146 294.490601 
z
" clip-path="url(#p56b3306f0e)" style="fill: #4682b4; fill-opacity: 0.8"/>
    <path d="M 283.064414 297.958769 
L 296.363012 299.898054 
L 303.588427 296.546661 
L 290.3382 294.627909 
z
" clip-path="url(#p56b3306f0e)" style="fill: #4682b4; fill-opacity: 0.8"/>
    <path d="M 194.785071 298.338224 
L 207.819156 300.279855 
L 215.51992 296.924412 
L 202.531378 295.003351 
z
" clip-path="url(#p56b3306f0e)" style="fill: #4682b4; fill-opacity: 0.8"/>
    <path d="M 228.588487 298.857309 
L 241.737821 300.802152 
L 249.264353 297.441165 
L 236.161745 295.516943 
z
" clip-path="url(#p56b3306f0e)" style="fill: #4682b4; fill-opacity: 0.8"/>
    <path d="M 140.149917 299.237849 
L 153.033774 301.185048 
L 161.037369 297.819994 
L 148.197393 295.893453 
z
" clip-path="url(#p56b3306f0e)" style="fill: #4682b4; fill-opacity: 0.8"/>
    <path d="M 262.447754 299.377252 
L 275.7127 301.325314 
L 283.064414 297.958769 
L 269.847382 296.031379 
z
" clip-path="url(#p56b3306f0e)" style="fill: #4682b4; fill-opacity: 0.8"/>
    <path d="M 173.956568 299.758421 
L 186.955725 301.708846 
L 194.785071 298.338224 
L 181.830979 296.408509 
z
" clip-path="url(#p56b3306f0e)" style="fill: #4682b4; fill-opacity: 0.8"/>
    <path d="M 296.363012 299.898054 
L 309.743935 301.849345 
L 316.920241 298.477228 
L 303.588427 296.546661 
z
" clip-path="url(#p56b3306f0e)" style="fill: #4682b4; fill-opacity: 0.8"/>
    <path d="M 207.819156 300.279855 
L 220.933977 302.233513 
L 228.588487 298.857309 
L 215.51992 296.924412 
z
" clip-path="url(#p56b3306f0e)" style="fill: #4682b4; fill-opacity: 0.8"/>
    <path d="M 241.737821 300.802152 
L 254.968672 302.759051 
L 262.447754 299.377252 
L 249.264353 297.441165 
z
" clip-path="url(#p56b3306f0e)" style="fill: #4682b4; fill-opacity: 0.8"/>
    <path d="M 153.033774 301.185048 
L 165.997552 303.144326 
L 173.956568 299.758421 
L 161.037369 297.819994 
z
" clip-path="url(#p56b3306f0e)" style="fill: #4682b4; fill-opacity: 0.8"/>
    <path d="M 275.7127 301.325314 
L 289.059949 303.285464 
L 296.363012 299.898054 
L 283.064414 297.958769 
z
" clip-path="url(#p56b3306f0e)" style="fill: #4682b4; fill-opacity: 0.8"/>
    <path d="M 186.955725 301.708846 
L 200.035585 303.671379 
L 207.819156 300.279855 
L 194.785071 298.338224 
z
" clip-path="url(#p56b3306f0e)" style="fill: #4682b4; fill-opacity: 0.8"/>
    <path d="M 220.933977 302.233513 
L 234.130287 304.19931 
L 241.737821 300.802152 
L 228.588487 298.857309 
z
" clip-path="url(#p56b3306f0e)" style="fill: #4682b4; fill-opacity: 0.8"/>
    <path d="M 254.968672 302.759051 
L 268.281802 304.72812 
L 275.7127 301.325314 
L 262.447754 299.377252 
z
" clip-path="url(#p56b3306f0e)" style="fill: #4682b4; fill-opacity: 0.8"/>
    <path d="M 165.997552 303.144326 
L 179.041997 305.115795 
L 186.955725 301.708846 
L 173.956568 299.758421 
z
" clip-path="url(#p56b3306f0e)" style="fill: #4682b4; fill-opacity: 0.8"/>
    <path d="M 289.059949 303.285464 
L 302.490269 305.257813 
L 309.743935 301.849345 
L 296.363012 299.898054 
z
" clip-path="url(#p56b3306f0e)" style="fill: #4682b4; fill-opacity: 0.8"/>
    <path d="M 200.035585 303.671379 
L 213.196902 305.646135 
L 220.933977 302.233513 
L 207.819156 300.279855 
z
" clip-path="url(#p56b3306f0e)" style="fill: #4682b4; fill-opacity: 0.8"/>
    <path d="M 234.130287 304.19931 
L 247.408848 306.17736 
L 254.968672 302.759051 
L 241.737821 300.802152 
z
" clip-path="url(#p56b3306f0e)" style="fill: #4682b4; fill-opacity: 0.8"/>
    <path d="M 268.281802 304.72812 
L 281.677979 306.709472 
L 289.059949 303.285464 
L 275.7127 301.325314 
z
" clip-path="url(#p56b3306f0e)" style="fill: #4682b4; fill-opacity: 0.8"/>
    <path d="M 179.041997 305.115795 
L 192.167864 307.09957 
L 200.035585 303.671379 
L 186.955725 301.708846 
z
" clip-path="url(#p56b3306f0e)" style="fill: #4682b4; fill-opacity: 0.8"/>
    <path d="M 213.196902 305.646135 
L 226.440439 307.633226 
L 234.130287 304.19931 
L 220.933977 302.233513 
z
" clip-path="url(#p56b3306f0e)" style="fill: #4682b4; fill-opacity: 0.8"/>
    <path d="M 247.408848 306.17736 
L 260.770431 308.167777 
L 268.281802 304.72812 
L 254.968672 302.759051 
z
" clip-path="url(#p56b3306f0e)" style="fill: #4682b4; fill-opacity: 0.8"/>
    <path d="M 281.677979 306.709472 
L 295.157985 308.703223 
L 302.490269 305.257813 
L 289.059949 303.285464 
z
" clip-path="url(#p56b3306f0e)" style="fill: #4682b4; fill-opacity: 0.8"/>
    <path d="M 192.167864 307.09957 
L 205.375917 309.095767 
L 213.196902 305.646135 
L 200.035585 303.671379 
z
" clip-path="url(#p56b3306f0e)" style="fill: #4682b4; fill-opacity: 0.8"/>
    <path d="M 226.440439 307.633226 
L 239.766968 309.632771 
L 247.408848 306.17736 
L 234.130287 304.19931 
z
" clip-path="url(#p56b3306f0e)" style="fill: #4682b4; fill-opacity: 0.8"/>
    <path d="M 260.770431 308.167777 
L 274.215817 310.170677 
L 281.677979 306.709472 
L 268.281802 304.72812 
z
" clip-path="url(#p56b3306f0e)" style="fill: #4682b4; fill-opacity: 0.8"/>
    <path d="M 205.375917 309.095767 
L 218.666931 311.104501 
L 226.440439 307.633226 
L 213.196902 305.646135 
z
" clip-path="url(#p56b3306f0e)" style="fill: #4682b4; fill-opacity: 0.8"/>
    <path d="M 239.766968 309.632771 
L 253.177274 311.644885 
L 260.770431 308.167777 
L 247.408848 306.17736 
z
" clip-path="url(#p56b3306f0e)" style="fill: #4682b4; fill-opacity: 0.8"/>
    <path d="M 274.215817 310.170677 
L 287.745796 312.18618 
L 295.157985 308.703223 
L 281.677979 306.709472 
z
" clip-path="url(#p56b3306f0e)" style="fill: #4682b4; fill-opacity: 0.8"/>
    <path d="M 218.666931 311.104501 
L 232.04169 313.125892 
L 239.766968 309.632771 
L 226.440439 307.633226 
z
" clip-path="url(#p56b3306f0e)" style="fill: #4682b4; fill-opacity: 0.8"/>
    <path d="M 253.177274 311.644885 
L 266.672147 313.669688 
L 274.215817 310.170677 
L 260.770431 308.167777 
z
" clip-path="url(#p56b3306f0e)" style="fill: #4682b4; fill-opacity: 0.8"/>
    <path d="M 232.04169 313.125892 
L 245.500988 315.16006 
L 253.177274 311.644885 
L 239.766968 309.632771 
z
" clip-path="url(#p56b3306f0e)" style="fill: #4682b4; fill-opacity: 0.8"/>
    <path d="M 266.672147 313.669688 
L 280.252391 315.7073 
L 287.745796 312.18618 
L 274.215817 310.170677 
z
" clip-path="url(#p56b3306f0e)" style="fill: #4682b4; fill-opacity: 0.8"/>
    <path d="M 245.500988 315.16006 
L 259.045629 317.207127 
L 266.672147 313.669688 
L 253.177274 311.644885 
z
" clip-path="url(#p56b3306f0e)" style="fill: #4682b4; fill-opacity: 0.8"/>
    <path d="M 259.045629 317.207127 
L 272.676427 319.267215 
L 280.252391 315.7073 
L 266.672147 313.669688 
z
" clip-path="url(#p56b3306f0e)" style="fill: #4682b4; fill-opacity: 0.8"/>
   </g>
   <g id="line2d_2">
    <path d="M -1 320.28593 
L 276.32423 211.331375 
" clip-path="url(#p56b3306f0e)" style="fill: none; stroke: #666666; stroke-width: 2; stroke-linecap: square"/>
   </g>
   <g id="line2d_3">
    <path d="M -1 246.40273 
L 395.0695 303.163231 
" clip-path="url(#p56b3306f0e)" style="fill: none; stroke: #666666; stroke-width: 2; stroke-linecap: square"/>
   </g>
   <g id="line2d_4">
    <path d="M 136.793634 266.14986 
L 135.165844 94.662617 
" clip-path="url(#p56b3306f0e)" style="fill: none; stroke: #666666; stroke-width: 2; stroke-linecap: square"/>
   </g>
  </g>
  <g id="patch_4">
   <path d="M 7.2 450.72 
L 450.72 450.72 
L 450.72 7.2 
L 7.2 7.2 
L 7.2 450.72 
z
" style="fill: none; opacity: 0"/>
  </g>
  <g id="axes_3">
   <g id="line2d_5">
    <path d="M 298.376079 111.737955 
L 297.428833 268.493633 
" clip-path="url(#p56b3306f0e)" style="fill: none; stroke: #005587; stroke-width: 4; stroke-linecap: square"/>
   </g>
   <g id="line2d_6">
    <path d="M 298.376079 111.737955 
L 136.793634 266.14986 
" clip-path="url(#p56b3306f0e)" style="fill: none; stroke: #28b80b; stroke-width: 4; stroke-linecap: square"/>
   </g>
   <g id="line2d_7">
    <path d="M 297.428833 268.493633 
L 136.793634 266.14986 
" clip-path="url(#p56b3306f0e)" style="fill: none; stroke: #ffb81c; stroke-width: 4; stroke-linecap: square"/>
   </g>
  </g>
  <g id="patch_5">
   <path d="M 7.2 450.72 
L 450.72 450.72 
L 450.72 7.2 
L 7.2 7.2 
L 7.2 450.72 
z
" style="fill: none; opacity: 0"/>
  </g>
  <g id="axes_4">
   <g id="Path3DCollection_1">
    <defs>
     <path id="me8fdfb2ad7" d="M 0 5 
C 1.326016 5 2.597899 4.473168 3.535534 3.535534 
C 4.473168 2.597899 5 1.326016 5 0 
C 5 -1.326016 4.473168 -2.597899 3.535534 -3.535534 
C 2.597899 -4.473168 1.326016 -5 0 -5 
C -1.326016 -5 -2.597899 -4.473168 -3.535534 -3.535534 
C -4.473168 -2.597899 -5 -1.326016 -5 0 
C -5 1.326016 -4.473168 2.597899 -3.535534 3.535534 
C -2.597899 4.473168 -1.326016 5 0 5 
z
" style="stroke: #030303"/>
    </defs>
    <g clip-path="url(#p56b3306f0e)">
     <use xlink:href="#me8fdfb2ad7" x="136.793634" y="266.14986" style="fill: #030303; stroke: #030303"/>
    </g>
   </g>
   <g id="text_1">
    <!--    Data -->
    <g style="fill: #030303" transform="translate(298.376079 107.57858) scale(0.2 -0.2)">
     <defs>
      <path id="DejaVuSerif-20" transform="scale(0.015625)"/>
      <path id="DejaVuSerif-44" d="M 1581 331 
L 2163 331 
Q 3072 331 3558 850 
Q 4044 1369 4044 2338 
Q 4044 3306 3559 3818 
Q 3075 4331 2163 4331 
L 1581 4331 
L 1581 331 
z
M 353 0 
L 353 331 
L 947 331 
L 947 4331 
L 353 4331 
L 353 4666 
L 2209 4666 
Q 3416 4666 4089 4050 
Q 4763 3434 4763 2338 
Q 4763 1238 4088 619 
Q 3413 0 2209 0 
L 353 0 
z
" transform="scale(0.015625)"/>
      <path id="DejaVuSerif-61" d="M 2547 1044 
L 2547 1747 
L 1806 1747 
Q 1378 1747 1168 1562 
Q 959 1378 959 997 
Q 959 650 1171 447 
Q 1384 244 1747 244 
Q 2106 244 2326 466 
Q 2547 688 2547 1044 
z
M 3122 2075 
L 3122 331 
L 3634 331 
L 3634 0 
L 2547 0 
L 2547 359 
Q 2356 128 2106 18 
Q 1856 -91 1522 -91 
Q 969 -91 644 203 
Q 319 497 319 997 
Q 319 1513 691 1797 
Q 1063 2081 1741 2081 
L 2547 2081 
L 2547 2309 
Q 2547 2688 2317 2895 
Q 2088 3103 1672 3103 
Q 1328 3103 1125 2947 
Q 922 2791 872 2484 
L 575 2484 
L 575 3156 
Q 875 3284 1158 3348 
Q 1441 3413 1709 3413 
Q 2400 3413 2761 3070 
Q 3122 2728 3122 2075 
z
" transform="scale(0.015625)"/>
      <path id="DejaVuSerif-74" d="M 691 2988 
L 184 2988 
L 184 3322 
L 691 3322 
L 691 4353 
L 1269 4353 
L 1269 3322 
L 2350 3322 
L 2350 2988 
L 1269 2988 
L 1269 878 
Q 1269 456 1350 337 
Q 1431 219 1650 219 
Q 1875 219 1978 351 
Q 2081 484 2088 781 
L 2522 781 
Q 2497 328 2275 118 
Q 2053 -91 1600 -91 
Q 1103 -91 897 129 
Q 691 350 691 878 
L 691 2988 
z
" transform="scale(0.015625)"/>
     </defs>
     <use xlink:href="#DejaVuSerif-20"/>
     <use xlink:href="#DejaVuSerif-20" transform="translate(31.787109 0)"/>
     <use xlink:href="#DejaVuSerif-20" transform="translate(63.574219 0)"/>
     <use xlink:href="#DejaVuSerif-44" transform="translate(95.361328 0)"/>
     <use xlink:href="#DejaVuSerif-61" transform="translate(175.537109 0)"/>
     <use xlink:href="#DejaVuSerif-74" transform="translate(235.15625 0)"/>
     <use xlink:href="#DejaVuSerif-61" transform="translate(275.341797 0)"/>
    </g>
   </g>
   <g id="text_2">
    <!-- Null    -->
    <g style="fill: #030303" transform="translate(74.549884 281.346735) scale(0.2 -0.2)">
     <defs>
      <path id="DejaVuSerif-4e" d="M 313 0 
L 313 331 
L 941 331 
L 941 4331 
L 313 4331 
L 313 4666 
L 1509 4666 
L 4306 984 
L 4306 4331 
L 3681 4331 
L 3681 4666 
L 5319 4666 
L 5319 4331 
L 4691 4331 
L 4691 -91 
L 4313 -91 
L 1325 3841 
L 1325 331 
L 1953 331 
L 1953 0 
L 313 0 
z
" transform="scale(0.015625)"/>
      <path id="DejaVuSerif-75" d="M 2266 3322 
L 3341 3322 
L 3341 331 
L 3884 331 
L 3884 0 
L 2766 0 
L 2766 588 
Q 2606 256 2353 82 
Q 2100 -91 1766 -91 
Q 1213 -91 952 223 
Q 691 538 691 1209 
L 691 2988 
L 172 2988 
L 172 3322 
L 1269 3322 
L 1269 1388 
Q 1269 781 1417 556 
Q 1566 331 1947 331 
Q 2347 331 2556 625 
Q 2766 919 2766 1478 
L 2766 2988 
L 2266 2988 
L 2266 3322 
z
" transform="scale(0.015625)"/>
      <path id="DejaVuSerif-6c" d="M 1313 331 
L 1856 331 
L 1856 0 
L 184 0 
L 184 331 
L 738 331 
L 738 4531 
L 184 4531 
L 184 4863 
L 1313 4863 
L 1313 331 
z
" transform="scale(0.015625)"/>
     </defs>
     <use xlink:href="#DejaVuSerif-4e"/>
     <use xlink:href="#DejaVuSerif-75" transform="translate(87.5 0)"/>
     <use xlink:href="#DejaVuSerif-6c" transform="translate(151.904297 0)"/>
     <use xlink:href="#DejaVuSerif-6c" transform="translate(183.886719 0)"/>
     <use xlink:href="#DejaVuSerif-20" transform="translate(215.869141 0)"/>
     <use xlink:href="#DejaVuSerif-20" transform="translate(247.65625 0)"/>
     <use xlink:href="#DejaVuSerif-20" transform="translate(279.443359 0)"/>
    </g>
   </g>
   <g id="text_3">
    <!--    Fit -->
    <g style="fill: #030303" transform="translate(297.428833 283.690508) scale(0.2 -0.2)">
     <defs>
      <path id="DejaVuSerif-46" d="M 353 0 
L 353 331 
L 947 331 
L 947 4331 
L 353 4331 
L 353 4666 
L 4172 4666 
L 4172 3628 
L 3788 3628 
L 3788 4281 
L 1581 4281 
L 1581 2719 
L 3175 2719 
L 3175 3303 
L 3559 3303 
L 3559 1753 
L 3175 1753 
L 3175 2338 
L 1581 2338 
L 1581 331 
L 2328 331 
L 2328 0 
L 353 0 
z
" transform="scale(0.015625)"/>
      <path id="DejaVuSerif-69" d="M 622 4353 
Q 622 4497 726 4603 
Q 831 4709 978 4709 
Q 1122 4709 1226 4603 
Q 1331 4497 1331 4353 
Q 1331 4206 1228 4103 
Q 1125 4000 978 4000 
Q 831 4000 726 4103 
Q 622 4206 622 4353 
z
M 1356 331 
L 1900 331 
L 1900 0 
L 231 0 
L 231 331 
L 781 331 
L 781 2988 
L 231 2988 
L 231 3322 
L 1356 3322 
L 1356 331 
z
" transform="scale(0.015625)"/>
     </defs>
     <use xlink:href="#DejaVuSerif-20"/>
     <use xlink:href="#DejaVuSerif-20" transform="translate(31.787109 0)"/>
     <use xlink:href="#DejaVuSerif-20" transform="translate(63.574219 0)"/>
     <use xlink:href="#DejaVuSerif-46" transform="translate(95.361328 0)"/>
     <use xlink:href="#DejaVuSerif-69" transform="translate(164.746094 0)"/>
     <use xlink:href="#DejaVuSerif-74" transform="translate(196.728516 0)"/>
    </g>
   </g>
   <g id="Path3DCollection_2">
    <g clip-path="url(#p56b3306f0e)">
     <use xlink:href="#me8fdfb2ad7" x="297.428833" y="268.493633" style="fill: #030303; stroke: #030303"/>
    </g>
   </g>
   <g id="Path3DCollection_3">
    <g clip-path="url(#p56b3306f0e)">
     <use xlink:href="#me8fdfb2ad7" x="298.376079" y="111.737955" style="fill: #030303; stroke: #030303"/>
    </g>
   </g>
  </g>
  <g id="patch_6">
   <path d="M 7.2 450.72 
L 450.72 450.72 
L 450.72 7.2 
L 7.2 7.2 
L 7.2 450.72 
z
" style="fill: none; opacity: 0"/>
  </g>
  <g id="axes_5">
   <g id="line2d_8">
    <path d="M 136.793634 266.14986 
L 297.898892 190.705502 
" clip-path="url(#p56b3306f0e)" style="fill: none; stroke-dasharray: 14.8,6.4; stroke-dashoffset: 0; stroke: #8237ff; stroke-width: 4"/>
   </g>
   <g id="text_4">
    <g clip-path="url(#p56b3306f0e)">
     <!-- $SS_{subjects}$ -->
     <g style="fill: #7878a0" transform="translate(317.888926 150.32707) scale(0.18 -0.18)">
      <defs>
       <path id="Cmmi10-53" d="M 391 -141 
Q 372 -141 356 -119 
Q 341 -97 341 -78 
L 709 1416 
Q 722 1453 763 1453 
L 838 1453 
Q 863 1453 877 1434 
Q 891 1416 891 1388 
Q 838 1169 838 997 
Q 838 534 1156 309 
Q 1475 84 1959 84 
Q 2169 84 2372 187 
Q 2575 291 2726 456 
Q 2878 622 2968 826 
Q 3059 1031 3059 1241 
Q 3059 1466 2940 1642 
Q 2822 1819 2613 1869 
L 1831 2075 
Q 1516 2159 1328 2414 
Q 1141 2669 1141 2988 
Q 1141 3372 1369 3728 
Q 1597 4084 1964 4298 
Q 2331 4513 2713 4513 
Q 3006 4513 3251 4405 
Q 3497 4297 3628 4063 
L 3994 4494 
Q 4031 4513 4038 4513 
L 4078 4513 
Q 4103 4513 4118 4491 
Q 4134 4469 4134 4447 
L 3763 2963 
Q 3753 2919 3713 2919 
L 3634 2919 
Q 3578 2919 3578 2988 
Q 3609 3191 3609 3341 
Q 3609 3638 3507 3858 
Q 3406 4078 3201 4192 
Q 2997 4306 2694 4306 
Q 2438 4306 2184 4159 
Q 1931 4013 1775 3769 
Q 1619 3525 1619 3263 
Q 1619 3056 1739 2897 
Q 1859 2738 2059 2681 
L 2841 2478 
Q 3053 2422 3211 2280 
Q 3369 2138 3450 1942 
Q 3531 1747 3531 1516 
Q 3531 1213 3403 917 
Q 3275 622 3045 378 
Q 2816 134 2525 -3 
Q 2234 -141 1931 -141 
Q 1169 -141 838 306 
L 481 -122 
Q 444 -141 434 -141 
L 391 -141 
z
" transform="scale(0.015625)"/>
       <path id="Cmmi10-73" d="M 556 391 
Q 728 97 1247 97 
Q 1472 97 1675 173 
Q 1878 250 2011 403 
Q 2144 556 2144 775 
Q 2144 941 2025 1047 
Q 1906 1153 1734 1191 
L 1388 1259 
Q 1150 1319 997 1481 
Q 844 1644 844 1875 
Q 844 2159 998 2378 
Q 1153 2597 1406 2712 
Q 1659 2828 1931 2828 
Q 2222 2828 2451 2689 
Q 2681 2550 2681 2278 
Q 2681 2131 2598 2018 
Q 2516 1906 2369 1906 
Q 2284 1906 2223 1961 
Q 2163 2016 2163 2100 
Q 2163 2175 2205 2245 
Q 2247 2316 2317 2358 
Q 2388 2400 2463 2400 
Q 2406 2538 2251 2600 
Q 2097 2663 1919 2663 
Q 1756 2663 1593 2597 
Q 1431 2531 1332 2404 
Q 1234 2278 1234 2106 
Q 1234 1991 1315 1903 
Q 1397 1816 1516 1778 
L 1888 1703 
Q 2066 1666 2214 1570 
Q 2363 1475 2448 1329 
Q 2534 1184 2534 997 
Q 2534 759 2401 528 
Q 2269 297 2075 159 
Q 1734 -72 1241 -72 
Q 900 -72 615 84 
Q 331 241 331 550 
Q 331 725 432 854 
Q 534 984 709 984 
Q 813 984 883 921 
Q 953 859 953 756 
Q 953 609 843 500 
Q 734 391 588 391 
L 556 391 
z
" transform="scale(0.015625)"/>
       <path id="Cmmi10-75" d="M 678 697 
Q 678 906 734 1126 
Q 791 1347 892 1617 
Q 994 1888 1069 2088 
Q 1153 2322 1153 2472 
Q 1153 2663 1013 2663 
Q 759 2663 595 2402 
Q 431 2141 353 1819 
Q 341 1778 300 1778 
L 225 1778 
Q 172 1778 172 1838 
L 172 1856 
Q 275 2238 487 2533 
Q 700 2828 1025 2828 
Q 1253 2828 1411 2678 
Q 1569 2528 1569 2297 
Q 1569 2178 1516 2047 
Q 1488 1969 1388 1706 
Q 1288 1444 1234 1272 
Q 1181 1100 1147 934 
Q 1113 769 1113 603 
Q 1113 391 1203 244 
Q 1294 97 1497 97 
Q 1906 97 2216 603 
Q 2222 628 2226 651 
Q 2231 675 2234 697 
L 2694 2553 
Q 2716 2638 2794 2698 
Q 2872 2759 2963 2759 
Q 3041 2759 3098 2709 
Q 3156 2659 3156 2578 
Q 3156 2541 3150 2528 
L 2688 684 
Q 2644 494 2644 372 
Q 2644 97 2828 97 
Q 3034 97 3136 351 
Q 3238 606 3309 941 
Q 3322 978 3359 978 
L 3438 978 
Q 3463 978 3478 956 
Q 3494 934 3494 916 
Q 3425 641 3361 444 
Q 3297 247 3159 87 
Q 3022 -72 2816 -72 
Q 2613 -72 2452 39 
Q 2291 150 2234 341 
Q 2088 153 1894 40 
Q 1700 -72 1484 -72 
Q 1116 -72 897 129 
Q 678 331 678 697 
z
" transform="scale(0.015625)"/>
       <path id="Cmmi10-62" d="M 1106 -72 
Q 719 -72 503 231 
Q 288 534 288 941 
Q 288 1000 317 1173 
Q 347 1347 347 1388 
L 966 3872 
Q 991 3981 997 4044 
Q 997 4147 581 4147 
Q 519 4147 519 4231 
Q 522 4247 533 4287 
Q 544 4328 561 4350 
Q 578 4372 609 4372 
L 1472 4441 
Q 1550 4441 1550 4359 
L 1075 2472 
Q 1438 2828 1806 2828 
Q 2078 2828 2273 2684 
Q 2469 2541 2566 2306 
Q 2663 2072 2663 1806 
Q 2663 1497 2542 1167 
Q 2422 838 2209 555 
Q 1997 272 1712 100 
Q 1428 -72 1106 -72 
z
M 1119 97 
Q 1338 97 1528 280 
Q 1719 463 1838 691 
Q 1966 947 2077 1386 
Q 2188 1825 2188 2088 
Q 2188 2316 2092 2489 
Q 1997 2663 1791 2663 
Q 1559 2663 1348 2492 
Q 1138 2322 978 2088 
L 800 1363 
Q 697 959 691 716 
Q 691 475 795 286 
Q 900 97 1119 97 
z
" transform="scale(0.015625)"/>
       <path id="Cmmi10-6a" d="M -84 -909 
Q -84 -753 23 -639 
Q 131 -525 288 -525 
Q 391 -525 461 -589 
Q 531 -653 531 -756 
Q 531 -878 454 -976 
Q 378 -1075 263 -1106 
Q 375 -1147 488 -1147 
Q 759 -1147 959 -895 
Q 1159 -644 1241 -331 
L 1844 2075 
Q 1888 2259 1888 2388 
Q 1888 2663 1697 2663 
Q 1416 2663 1205 2408 
Q 994 2153 863 1819 
Q 850 1778 813 1778 
L 738 1778 
Q 684 1778 684 1838 
L 684 1856 
Q 828 2241 1093 2534 
Q 1359 2828 1709 2828 
Q 1975 2828 2145 2662 
Q 2316 2497 2316 2241 
Q 2316 2150 2297 2059 
L 1691 -372 
Q 1625 -631 1440 -847 
Q 1256 -1063 1000 -1188 
Q 744 -1313 475 -1313 
Q 259 -1313 87 -1209 
Q -84 -1106 -84 -909 
z
M 1941 3878 
Q 1941 4019 2050 4125 
Q 2159 4231 2297 4231 
Q 2406 4231 2476 4164 
Q 2547 4097 2547 3994 
Q 2547 3850 2433 3742 
Q 2319 3634 2181 3634 
Q 2078 3634 2009 3706 
Q 1941 3778 1941 3878 
z
" transform="scale(0.015625)"/>
       <path id="Cmmi10-65" d="M 1288 -72 
Q 981 -72 751 87 
Q 522 247 401 517 
Q 281 788 281 1088 
Q 281 1544 511 1945 
Q 741 2347 1134 2587 
Q 1528 2828 1978 2828 
Q 2253 2828 2458 2686 
Q 2663 2544 2663 2278 
Q 2663 1909 2369 1729 
Q 2075 1550 1706 1508 
Q 1338 1466 891 1466 
L 872 1466 
Q 769 1084 769 813 
Q 769 528 900 312 
Q 1031 97 1300 97 
Q 1681 97 2032 272 
Q 2384 447 2606 756 
Q 2625 775 2656 775 
Q 2688 775 2720 739 
Q 2753 703 2753 672 
Q 2753 647 2741 634 
Q 2506 306 2109 117 
Q 1713 -72 1288 -72 
z
M 909 1631 
Q 1281 1631 1597 1665 
Q 1913 1700 2169 1839 
Q 2425 1978 2425 2272 
Q 2425 2391 2359 2480 
Q 2294 2569 2189 2616 
Q 2084 2663 1972 2663 
Q 1700 2663 1483 2516 
Q 1266 2369 1125 2133 
Q 984 1897 909 1631 
z
" transform="scale(0.015625)"/>
       <path id="Cmmi10-63" d="M 750 763 
Q 750 484 892 290 
Q 1034 97 1300 97 
Q 1681 97 2032 272 
Q 2384 447 2606 756 
Q 2625 775 2656 775 
Q 2688 775 2720 739 
Q 2753 703 2753 672 
Q 2753 647 2741 634 
Q 2506 306 2109 117 
Q 1713 -72 1288 -72 
Q 981 -72 747 73 
Q 513 219 384 462 
Q 256 706 256 1013 
Q 256 1444 497 1869 
Q 738 2294 1138 2561 
Q 1538 2828 1978 2828 
Q 2266 2828 2495 2689 
Q 2725 2550 2725 2278 
Q 2725 2103 2623 1979 
Q 2522 1856 2350 1856 
Q 2247 1856 2176 1920 
Q 2106 1984 2106 2088 
Q 2106 2238 2215 2344 
Q 2325 2450 2472 2450 
L 2484 2450 
Q 2409 2559 2267 2611 
Q 2125 2663 1972 2663 
Q 1597 2663 1315 2342 
Q 1034 2022 892 1576 
Q 750 1131 750 763 
z
" transform="scale(0.015625)"/>
       <path id="Cmmi10-74" d="M 397 519 
Q 397 613 416 697 
L 878 2534 
L 206 2534 
Q 141 2534 141 2619 
Q 166 2759 225 2759 
L 934 2759 
L 1191 3803 
Q 1216 3888 1291 3947 
Q 1366 4006 1459 4006 
Q 1541 4006 1595 3957 
Q 1650 3909 1650 3828 
Q 1650 3809 1648 3798 
Q 1647 3788 1644 3775 
L 1388 2759 
L 2047 2759 
Q 2113 2759 2113 2675 
Q 2109 2659 2100 2621 
Q 2091 2584 2075 2559 
Q 2059 2534 2028 2534 
L 1331 2534 
L 872 684 
Q 825 503 825 372 
Q 825 97 1013 97 
Q 1294 97 1511 361 
Q 1728 625 1844 941 
Q 1869 978 1894 978 
L 1972 978 
Q 1997 978 2012 961 
Q 2028 944 2028 922 
Q 2028 909 2022 903 
Q 1881 516 1612 222 
Q 1344 -72 997 -72 
Q 744 -72 570 93 
Q 397 259 397 519 
z
" transform="scale(0.015625)"/>
      </defs>
      <use xlink:href="#Cmmi10-53" transform="translate(0 0.484375)"/>
      <use xlink:href="#Cmmi10-53" transform="translate(61.279297 0.484375)"/>
      <use xlink:href="#Cmmi10-73" transform="translate(122.558594 -16.521875) scale(0.7)"/>
      <use xlink:href="#Cmmi10-75" transform="translate(155.302734 -16.521875) scale(0.7)"/>
      <use xlink:href="#Cmmi10-62" transform="translate(195.327148 -16.521875) scale(0.7)"/>
      <use xlink:href="#Cmmi10-6a" transform="translate(225.371094 -16.521875) scale(0.7)"/>
      <use xlink:href="#Cmmi10-65" transform="translate(254.150391 -16.521875) scale(0.7)"/>
      <use xlink:href="#Cmmi10-63" transform="translate(286.689453 -16.521875) scale(0.7)"/>
      <use xlink:href="#Cmmi10-74" transform="translate(316.938477 -16.521875) scale(0.7)"/>
      <use xlink:href="#Cmmi10-73" transform="translate(342.197266 -16.521875) scale(0.7)"/>
     </g>
    </g>
   </g>
   <g id="patch_7">
    <path d="M 299.901116 190.373834 
L 313.625728 190.45677 
L 314.100837 111.832977 
L 300.376225 111.750041 
" style="fill: none; stroke: #7878a0; stroke-width: 2; stroke-linecap: round"/>
   </g>
   <g id="text_5">
    <g clip-path="url(#p56b3306f0e)">
     <!-- $SS_{error}$ -->
     <g style="fill: #8237ff" transform="translate(317.268602 228.540901) scale(0.18 -0.18)">
      <defs>
       <path id="Cmmi10-72" d="M 494 109 
Q 494 147 500 166 
L 978 2075 
Q 1025 2253 1025 2388 
Q 1025 2663 838 2663 
Q 638 2663 541 2423 
Q 444 2184 353 1819 
Q 353 1800 334 1789 
Q 316 1778 300 1778 
L 225 1778 
Q 203 1778 187 1801 
Q 172 1825 172 1844 
Q 241 2122 305 2315 
Q 369 2509 505 2668 
Q 641 2828 844 2828 
Q 1066 2828 1233 2700 
Q 1400 2572 1441 2363 
Q 1603 2575 1811 2701 
Q 2019 2828 2266 2828 
Q 2469 2828 2623 2709 
Q 2778 2591 2778 2388 
Q 2778 2225 2676 2104 
Q 2575 1984 2406 1984 
Q 2303 1984 2233 2048 
Q 2163 2113 2163 2216 
Q 2163 2356 2266 2467 
Q 2369 2578 2503 2578 
Q 2400 2663 2253 2663 
Q 1978 2663 1775 2467 
Q 1572 2272 1409 1972 
L 953 141 
Q 931 53 854 -9 
Q 778 -72 684 -72 
Q 606 -72 550 -22 
Q 494 28 494 109 
z
" transform="scale(0.015625)"/>
       <path id="Cmmi10-6f" d="M 1288 -72 
Q 984 -72 748 72 
Q 513 216 384 459 
Q 256 703 256 1013 
Q 256 1447 498 1872 
Q 741 2297 1142 2562 
Q 1544 2828 1984 2828 
Q 2222 2828 2408 2747 
Q 2594 2666 2731 2519 
Q 2869 2372 2942 2175 
Q 3016 1978 3016 1747 
Q 3016 1413 2875 1089 
Q 2734 766 2489 502 
Q 2244 238 1928 83 
Q 1613 -72 1288 -72 
z
M 1300 97 
Q 1584 97 1820 290 
Q 2056 484 2207 779 
Q 2359 1075 2440 1403 
Q 2522 1731 2522 1997 
Q 2522 2275 2383 2469 
Q 2244 2663 1972 2663 
Q 1597 2663 1315 2342 
Q 1034 2022 892 1576 
Q 750 1131 750 763 
Q 750 484 892 290 
Q 1034 97 1300 97 
z
" transform="scale(0.015625)"/>
      </defs>
      <use xlink:href="#Cmmi10-53" transform="translate(0 0.484375)"/>
      <use xlink:href="#Cmmi10-53" transform="translate(61.279297 0.484375)"/>
      <use xlink:href="#Cmmi10-65" transform="translate(122.558594 -16.521875) scale(0.7)"/>
      <use xlink:href="#Cmmi10-72" transform="translate(155.097656 -16.521875) scale(0.7)"/>
      <use xlink:href="#Cmmi10-72" transform="translate(186.679688 -16.521875) scale(0.7)"/>
      <use xlink:href="#Cmmi10-6f" transform="translate(218.261719 -16.521875) scale(0.7)"/>
      <use xlink:href="#Cmmi10-72" transform="translate(252.133789 -16.521875) scale(0.7)"/>
     </g>
    </g>
   </g>
   <g id="patch_8">
    <path d="M 299.429214 268.50572 
L 312.574049 268.585152 
L 313.031648 192.859072 
L 299.886813 192.77964 
" style="fill: none; stroke: #8237ff; stroke-width: 2; stroke-linecap: round"/>
   </g>
  </g>
 </g>
 <defs>
  <clipPath id="p56b3306f0e">
   <rect x="7.2" y="7.2" width="443.52" height="443.52"/>
  </clipPath>
 </defs>
</svg>
