<?xml version="1.0" encoding="UTF-8" standalone="no"?>
<!-- Created with Inkscape (http://www.inkscape.org/) -->

<svg
   width="194.87717mm"
   height="40.84724mm"
   viewBox="0 0 194.87717 40.84724"
   version="1.1"
   id="svg1"
   xml:space="preserve"
   xmlns:xlink="http://www.w3.org/1999/xlink"
   xmlns="http://www.w3.org/2000/svg"
   xmlns:svg="http://www.w3.org/2000/svg"><defs
     id="defs1"><rect
       id="Femalemouse"
       width="110"
       height="110"
       mask="url(#mouseicon)"
       fill="#ff6699"
       x="0"
       y="0" /><rect
       id="Malemouse"
       width="110"
       height="110"
       mask="url(#mouseicon)"
       fill="#66ccff"
       x="0"
       y="0" /><style
       id="style1">.cls-1,.cls-3{fill:#ffcfd4;}.cls-1,.cls-2,.cls-4{stroke:#000;stroke-miterlimit:10;stroke-width:1.7204px;}.cls-2,.cls-5{fill:#fff;}</style><mask
       id="mouseicon"><g
         id="mouse"
         data-name="Mouse"><g
           id="Layer_1-2"
           data-name="Layer 1"><path
             id="tail"
             class="cls-1"
             d="m 1.044,21.62321 c -0.30225,0.24721 -0.15071,0.89156 -0.10752,1.07526 0.34489,1.46659 3.36691,3.28467 6.66656,3.54833 2.1692,0.17332 4.28689,-0.33885 8.27944,-2.47308 a 71.22533,71.22533 0 0 0 12.25788,-8.602 c 6.79976,-5.61394 6.91841,-6.45859 9.56974,-7.41924 5.15137,-1.86649 9.9936,-0.59469 12.25787,0 3.11724,0.81873 8.65426,2.273 10.86005,6.344 a 18.86492,18.86492 0 0 0 2.58061,3.87091 c 1.24551,1.42956 2.08461,2.36529 3.4408,2.5806 a 4.30832,4.30832 0 0 0 4.40854,-2.1505 c 0.87159,-2.0145 -1.11584,-4.48161 -3.01071,-6.77409 A 27.50419,27.50419 0 0 0 57.49474,3.2364 26.15505,26.15505 0 0 0 41.04339,1.516 c -5.2219,1.26544 -8.75075,4.04445 -11.39767,6.12894 -4.04267,3.18366 -4.02219,4.51466 -9.89232,9.24717 a 49.695,49.695 0 0 1 -7.84934,4.94615 C 8.84222,23.54342 7.75956,23.89285 6.63532,23.55867 5.88932,23.33691 3.4621,22.31986 2.11932,21.73074 1.9,21.63453 1.33485,21.38534 1.044,21.62321 Z" /><path
             id="body"
             class="cls-2"
             d="m 67.70964,103.665 c 5.15166,6.8e-4 8.81786,-3.661 12.3654,-7.20419 3.69792,-3.69338 5.92413,-7.38191 8.387,-12.15035 6.82265,-13.20977 11.66092,-22.57748 11.39767,-35.37579 A 32.747,32.747 0 0 0 98.2468,38.07457 C 94.08545,25.99414 83.40439,20.62821 81.903,19.90281 a 32.99412,32.99412 0 0 0 -20.42979,-2.5806 31.55119,31.55119 0 0 0 -15.05353,7.09666 c -11.06115,9.68933 -10.89527,24.57869 -10.86,27.7415 0.10726,9.627 3.7628,16.9582 9.13964,27.74151 a 108.32689,108.32689 0 0 0 6.344,10.86005 c 3.61306,5.57712 5.12031,7.001 5.69883,7.52676 2.03896,1.85296 5.91528,5.37559 10.96749,5.37631 z" /><path
             id="lear"
             class="cls-2"
             d="m 45.23688,77.03454 c -0.806,-0.04926 -8.99151,-0.68269 -13.04639,-7.45508 a 16.05372,16.05372 0 0 1 4.94616,-21.14662 c 5.39865,-3.51523 13.22726,-3.5296 18.42265,1.14693 5.83445,5.2518 4.75814,13.18824 4.65944,13.83491" /><path
             id="rear"
             class="cls-2"
             d="m 89.96039,77.03454 c 0.806,-0.04926 8.9915,-0.68269 13.04638,-7.45508 A 16.05372,16.05372 0 0 0 98.06061,48.43284 C 92.662,44.91761 84.83336,44.90324 79.638,49.57977 c -5.83445,5.2518 -4.75815,13.18824 -4.65945,13.83491" /><path
             id="learpad"
             class="cls-3"
             d="m 33.94673,64.95587 c 1.35225,0.49155 2.559,-5.20754 7.63429,-7.95686 6.33664,-3.4326 13.594,0.50085 14.5159,-1.61288 0.61523,-1.41062 -2.26953,-3.95927 -3.87091,-5.05368 -0.25217,-0.17234 -6.44311,-4.2559 -12.3654,-1.07526 -3.94378,2.11806 -5.15464,6.05365 -5.80636,8.17192 -0.9285,3.01789 -1.22751,7.11965 -0.10752,7.52676 z" /><path
             id="rearpad"
             class="cls-3"
             d="m 101.91061,64.95587 c -1.35226,0.49155 -2.559,-5.20754 -7.63429,-7.95686 -6.33664,-3.4326 -13.594,0.50085 -14.5159,-1.61288 -0.61523,-1.41062 2.26952,-3.95927 3.8709,-5.05368 0.25217,-0.17234 6.44312,-4.2559 12.3654,-1.07526 3.94378,2.11806 5.15465,6.05365 5.80637,8.17192 0.9285,3.01789 1.2275,7.11965 0.10752,7.52676 z" /><path
             id="nose"
             class="cls-4"
             d="m 67.24368,100.1883 a 4.84246,4.84246 0 0 0 3.31855,-3.07986 2.45254,2.45254 0 0 0 -0.23277,-2.54012 c -0.64768,-0.87032 -4.153,-1.38 -5.30795,-0.11469 a 2.874,2.874 0 0 0 -0.64515,2.00713 4.61833,4.61833 0 0 0 2.86732,3.72754 z" /><g
             id="lwhisk1"><path
               d="m 40.59267,94.48831 a 20.86286,20.86286 0 0 1 4.73614,-2.48643 21.78124,21.78124 0 0 1 5.29046,-1.17773 15.30189,15.30189 0 0 1 5.46475,0.25931 12.34718,12.34718 0 0 1 4.856,2.46571 l -0.07516,0.15476 c -1.7843,-0.33585 -3.447,-0.70244 -5.13044,-0.936 a 38.54546,38.54546 0 0 0 -5.05118,-0.569 22.237,22.237 0 0 0 -10.00167,2.43659 z"
               id="path1" /></g><g
             id="lwhisk2"><path
               d="m 42.65845,102.4315 a 16.43877,16.43877 0 0 1 7.42915,-6.48186 12.82882,12.82882 0 0 1 4.90524,-1.32029 10.68568,10.68568 0 0 1 4.95371,0.95811 l -0.02916,0.16955 c -1.6709,0.19577 -3.23012,0.32867 -4.76754,0.58556 a 30.55931,30.55931 0 0 0 -4.56344,0.88982 17.55052,17.55052 0 0 0 -7.78894,5.30046 z"
               id="path2" /></g><g
             id="lwhisk3"><path
               d="m 50.09739,107.13346 a 13.06255,13.06255 0 0 1 0.67857,-4.14586 12.37634,12.37634 0 0 1 2.13961,-3.73014 7.4398,7.4398 0 0 1 1.70143,-1.55591 4.982,4.982 0 0 1 2.219,-0.75613 5.72039,5.72039 0 0 1 4.20369,1.29943 l -0.06485,0.15936 a 13.42946,13.42946 0 0 0 -3.87235,0.24085 6.71509,6.71509 0 0 0 -3.17848,1.54906 11.23087,11.23087 0 0 0 -2.35668,3.13067 13.8987,13.8987 0 0 0 -1.29867,3.825 z"
               id="path3" /></g><g
             id="rwhisk3"><path
               d="M 83.8107,108.84115 A 9.08289,9.08289 0 0 0 81.42341,101.18643 12.32728,12.32728 0 0 0 78.096,99.06332 22.78391,22.78391 0 0 0 74.1726,97.6261 l -0.007,-0.1719 a 7.0588,7.0588 0 0 1 4.57163,0.0127 7.91729,7.91729 0 0 1 3.71864,2.80944 9.145,9.145 0 0 1 1.85963,4.18246 9.76065,9.76065 0 0 1 -0.33706,4.42045 z"
               id="path4" /></g><g
             id="rwhisk2"><path
               d="m 93.85736,104.28528 a 16.01609,16.01609 0 0 0 -7.69629,-7.81108 16.98292,16.98292 0 0 0 -5.2655,-1.07653 26.32934,26.32934 0 0 0 -5.57065,0.2518 l -0.06333,-0.16 a 10.444,10.444 0 0 1 5.66549,-1.81195 11.59416,11.59416 0 0 1 5.8354,1.55868 15.11177,15.11177 0 0 1 4.52865,3.84727 16.90323,16.90323 0 0 1 2.72748,5.14178 z"
               id="path5" /></g><g
             id="rwhisk1"><path
               d="m 96.023,93.81422 a 27.80324,27.80324 0 0 0 -5.37767,-1.56553 25.57562,25.57562 0 0 0 -5.51075,-0.46028 53.56647,53.56647 0 0 0 -5.44468,0.64325 c -1.81683,0.23806 -3.61688,0.59139 -5.53107,0.88257 l -0.067,-0.15845 a 14.856,14.856 0 0 1 5.26884,-2.41272 18.51875,18.51875 0 0 1 5.80333,-0.33066 26.69312,26.69312 0 0 1 5.68408,1.00032 25.48562,25.48562 0 0 1 5.24985,2.24663 z"
               id="path6" /></g><path
             id="reye"
             class="cls-4"
             d="m 74.86007,83.66526 c 0,1.62565 0.11544,2.95694 1.45159,2.95694 a 3.00029,3.00029 0 0 0 0,-5.887 c -1.33615,0 -1.45159,1.30441 -1.45159,2.93006 z" /><g
             id="reyeshine"><ellipse
               class="cls-5"
               cx="76.862732"
               cy="82.54969"
               rx="0.84675997"
               ry="0.90052003"
               transform="rotate(-25.81217,76.862738,82.549694)"
               id="ellipse6" /><path
               class="cls-5"
               d="m 76.11981,82.909 a 0.63992,0.63992 0 0 0 0.519,0.3439 1.40868,1.40868 0 0 0 0.53807,-0.05369 0.63519,0.63519 0 0 0 0.43868,-0.3699 0.649,0.649 0 0 0 -0.09657,-0.59708 0.78454,0.78454 0 0 0 -0.94852,-0.28676 0.94718,0.94718 0 0 0 -0.39178,0.345 0.63787,0.63787 0 0 0 -0.05888,0.61853 z m -0.03872,0.01873 a 1.40752,1.40752 0 0 1 -0.17371,-0.71792 0.82806,0.82806 0 0 1 0.46337,-0.6773 0.988,0.988 0 0 1 1.36025,0.59719 1.37806,1.37806 0 0 1 0.01825,0.73936 0.997,0.997 0 0 1 -0.41647,0.65242 0.73709,0.73709 0 0 1 -0.79429,-0.018 1.41458,1.41458 0 0 1 -0.4574,-0.57573 z"
               id="path7" /></g><path
             id="leye"
             class="cls-4"
             d="m 59.80654,83.66526 c 0,1.62565 -0.11544,2.95694 -1.45159,2.95694 a 3.00029,3.00029 0 0 1 0,-5.887 c 1.33615,0 1.45159,1.30441 1.45159,2.93006 z" /><g
             id="leyeshine"><ellipse
               class="cls-5"
               cx="57.803879"
               cy="82.54969"
               rx="0.90052003"
               ry="0.84675997"
               transform="rotate(-64.18783,57.803877,82.549686)"
               id="ellipse7" /><path
               class="cls-5"
               d="m 58.58552,82.92775 a 1.41444,1.41444 0 0 1 -0.45741,0.57579 0.73706,0.73706 0 0 1 -0.79427,0.018 0.997,0.997 0 0 1 -0.41648,-0.65242 1.378,1.378 0 0 1 0.01826,-0.73936 0.98793,0.98793 0 0 1 1.36024,-0.59719 0.8281,0.8281 0 0 1 0.46338,0.6773 1.40762,1.40762 0 0 1 -0.17372,0.71788 z M 58.5468,82.909 a 0.6379,0.6379 0 0 0 -0.05889,-0.61851 0.9472,0.9472 0 0 0 -0.39179,-0.345 0.78454,0.78454 0 0 0 -0.94852,0.28676 0.649,0.649 0 0 0 -0.09657,0.59708 0.63519,0.63519 0 0 0 0.43869,0.3699 1.40866,1.40866 0 0 0 0.53807,0.05369 0.63992,0.63992 0 0 0 0.51901,-0.34392 z"
               id="path8" /></g></g></g></mask></defs><g
     id="layer1"
     transform="translate(4.9889774,-119.89133)"><g
       class="mouseCage"
       transform="matrix(0.81122875,0,0,0.81122875,2.8403334,108.08892)"
       id="g40"><use
         class="mouse"
         xlink:href="#Femalemouse"
         transform="matrix(0.36363636,0,0,0.36363636,0,20)"
         id="use36" /><use
         class="mouse"
         xlink:href="#Malemouse"
         transform="matrix(0.36363636,0,0,0.36363636,45,20)"
         id="use37" /><use
         class="mouse"
         xlink:href="#Femalemouse"
         transform="matrix(0.36363636,0,0,0.36363636,90,20)"
         id="use38" /><use
         class="mouse"
         xlink:href="#Femalemouse"
         transform="matrix(0.36363636,0,0,0.36363636,135,20)"
         id="use39" /><use
         class="mouse"
         xlink:href="#Femalemouse"
         transform="matrix(0.36363636,0,0,0.36363636,180,20)"
         id="use40" /></g></g></svg>
