<?xml version="1.0" encoding="utf-8" standalone="no"?>
<!DOCTYPE svg PUBLIC "-//W3C//DTD SVG 1.1//EN"
  "http://www.w3.org/Graphics/SVG/1.1/DTD/svg11.dtd">
<svg xmlns:xlink="http://www.w3.org/1999/xlink" width="432pt" height="297pt" viewBox="0 0 432 297" xmlns="http://www.w3.org/2000/svg" version="1.1">
 <metadata>
  <rdf:RDF xmlns:dc="http://purl.org/dc/elements/1.1/" xmlns:cc="http://creativecommons.org/ns#" xmlns:rdf="http://www.w3.org/1999/02/22-rdf-syntax-ns#">
   <cc:Work>
    <dc:type rdf:resource="http://purl.org/dc/dcmitype/StillImage"/>
    <dc:date>2024-02-03T11:46:14.817533</dc:date>
    <dc:format>image/svg+xml</dc:format>
    <dc:creator>
     <cc:Agent>
      <dc:title>Matplotlib v3.8.2, https://matplotlib.org/</dc:title>
     </cc:Agent>
    </dc:creator>
   </cc:Work>
  </rdf:RDF>
 </metadata>
 <defs>
  <style type="text/css">*{stroke-linejoin: round; stroke-linecap: butt}</style>
 </defs>
 <g id="figure_1">
  <g id="patch_1">
   <path d="M 0 297 
L 432 297 
L 432 0 
L 0 0 
L 0 297 
z
" style="fill: none"/>
  </g>
  <g id="axes_1">
   <g id="patch_2">
    <path d="M 54 264.33 
L 388.8 264.33 
L 388.8 35.64 
L 54 35.64 
L 54 264.33 
z
" style="fill: none"/>
   </g>
   <g id="PolyCollection_1">
    <defs>
     <path id="mc7097b0a2e" d="M 12.15 -43.065 
L 12.15 -43.1348 
L 16.377273 -43.16112 
L 20.604545 -43.196504 
L 24.831818 -43.243742 
L 29.059091 -43.306367 
L 33.286364 -43.388813 
L 37.513636 -43.496593 
L 41.740909 -43.636504 
L 45.968182 -43.816844 
L 50.195455 -44.047654 
L 54.422727 -44.340961 
L 58.65 -44.711032 
L 62.877273 -45.174614 
L 67.104545 -45.751161 
L 71.331818 -46.463014 
L 75.559091 -47.335536 
L 79.786364 -48.397166 
L 84.013636 -49.679378 
L 88.240909 -51.216517 
L 92.468182 -53.045492 
L 96.695455 -55.205303 
L 100.922727 -57.736387 
L 105.15 -60.679768 
L 109.377273 -64.076001 
L 113.604545 -67.963928 
L 117.831818 -72.37924 
L 122.059091 -77.352886 
L 126.286364 -82.90936 
L 130.513636 -89.064921 
L 134.740909 -95.825803 
L 138.968182 -103.186497 
L 143.195455 -111.128183 
L 147.422727 -119.6174 
L 151.65 -128.605038 
L 155.877273 -138.025753 
L 160.104545 -147.797855 
L 164.331818 -157.823752 
L 168.559091 -167.990981 
L 172.786364 -178.173852 
L 177.013636 -188.235682 
L 181.240909 -198.031603 
L 185.468182 -207.411851 
L 189.695455 -216.225465 
L 193.922727 -224.324251 
L 198.15 -231.566885 
L 202.377273 -237.822995 
L 206.604545 -242.97705 
L 210.831818 -246.931906 
L 215.059091 -249.611847 
L 219.286364 -250.965 
L 223.513636 -250.965 
L 227.740909 -249.611847 
L 231.968182 -246.931906 
L 236.195455 -242.97705 
L 240.422727 -237.822995 
L 244.65 -231.566885 
L 248.877273 -224.324251 
L 253.104545 -216.225465 
L 257.331818 -207.411851 
L 261.559091 -198.031603 
L 265.786364 -188.235682 
L 270.013636 -178.173852 
L 274.240909 -167.990981 
L 278.468182 -157.823752 
L 282.695455 -147.797855 
L 286.922727 -138.025753 
L 291.15 -128.605038 
L 295.377273 -119.6174 
L 299.604545 -111.128183 
L 303.831818 -103.186497 
L 308.059091 -95.825803 
L 312.286364 -89.064921 
L 316.513636 -82.90936 
L 320.740909 -77.352886 
L 324.968182 -72.37924 
L 329.195455 -67.963928 
L 333.422727 -64.076001 
L 337.65 -60.679768 
L 341.877273 -57.736387 
L 346.104545 -55.205303 
L 350.331818 -53.045492 
L 354.559091 -51.216517 
L 358.786364 -49.679378 
L 363.013636 -48.397166 
L 367.240909 -47.335536 
L 371.468182 -46.463014 
L 375.695455 -45.751161 
L 379.922727 -45.174614 
L 384.15 -44.711032 
L 388.377273 -44.340961 
L 392.604545 -44.047654 
L 396.831818 -43.816844 
L 401.059091 -43.636504 
L 405.286364 -43.496593 
L 409.513636 -43.388813 
L 413.740909 -43.306367 
L 417.968182 -43.243742 
L 422.195455 -43.196504 
L 426.422727 -43.16112 
L 430.65 -43.1348 
L 430.65 -43.065 
L 430.65 -43.065 
L 426.422727 -43.065 
L 422.195455 -43.065 
L 417.968182 -43.065 
L 413.740909 -43.065 
L 409.513636 -43.065 
L 405.286364 -43.065 
L 401.059091 -43.065 
L 396.831818 -43.065 
L 392.604545 -43.065 
L 388.377273 -43.065 
L 384.15 -43.065 
L 379.922727 -43.065 
L 375.695455 -43.065 
L 371.468182 -43.065 
L 367.240909 -43.065 
L 363.013636 -43.065 
L 358.786364 -43.065 
L 354.559091 -43.065 
L 350.331818 -43.065 
L 346.104545 -43.065 
L 341.877273 -43.065 
L 337.65 -43.065 
L 333.422727 -43.065 
L 329.195455 -43.065 
L 324.968182 -43.065 
L 320.740909 -43.065 
L 316.513636 -43.065 
L 312.286364 -43.065 
L 308.059091 -43.065 
L 303.831818 -43.065 
L 299.604545 -43.065 
L 295.377273 -43.065 
L 291.15 -43.065 
L 286.922727 -43.065 
L 282.695455 -43.065 
L 278.468182 -43.065 
L 274.240909 -43.065 
L 270.013636 -43.065 
L 265.786364 -43.065 
L 261.559091 -43.065 
L 257.331818 -43.065 
L 253.104545 -43.065 
L 248.877273 -43.065 
L 244.65 -43.065 
L 240.422727 -43.065 
L 236.195455 -43.065 
L 231.968182 -43.065 
L 227.740909 -43.065 
L 223.513636 -43.065 
L 219.286364 -43.065 
L 215.059091 -43.065 
L 210.831818 -43.065 
L 206.604545 -43.065 
L 202.377273 -43.065 
L 198.15 -43.065 
L 193.922727 -43.065 
L 189.695455 -43.065 
L 185.468182 -43.065 
L 181.240909 -43.065 
L 177.013636 -43.065 
L 172.786364 -43.065 
L 168.559091 -43.065 
L 164.331818 -43.065 
L 160.104545 -43.065 
L 155.877273 -43.065 
L 151.65 -43.065 
L 147.422727 -43.065 
L 143.195455 -43.065 
L 138.968182 -43.065 
L 134.740909 -43.065 
L 130.513636 -43.065 
L 126.286364 -43.065 
L 122.059091 -43.065 
L 117.831818 -43.065 
L 113.604545 -43.065 
L 109.377273 -43.065 
L 105.15 -43.065 
L 100.922727 -43.065 
L 96.695455 -43.065 
L 92.468182 -43.065 
L 88.240909 -43.065 
L 84.013636 -43.065 
L 79.786364 -43.065 
L 75.559091 -43.065 
L 71.331818 -43.065 
L 67.104545 -43.065 
L 62.877273 -43.065 
L 58.65 -43.065 
L 54.422727 -43.065 
L 50.195455 -43.065 
L 45.968182 -43.065 
L 41.740909 -43.065 
L 37.513636 -43.065 
L 33.286364 -43.065 
L 29.059091 -43.065 
L 24.831818 -43.065 
L 20.604545 -43.065 
L 16.377273 -43.065 
L 12.15 -43.065 
z
" style="stroke: #28a745; stroke-opacity: 0.3"/>
    </defs>
    <g clip-path="url(#p9ebe3d2a29)">
     <use xlink:href="#mc7097b0a2e" x="0" y="297" style="fill: #28a745; fill-opacity: 0.3; stroke: #28a745; stroke-opacity: 0.3"/>
    </g>
   </g>
   <g id="matplotlib.axis_1">
    <g id="xtick_1">
     <g id="line2d_1"/>
     <g id="text_1">
      <!-- $\leftarrow\, -\infty$ -->
      <g style="fill: #030303" transform="translate(36.74125 277.707969) scale(0.13 -0.13)">
       <defs>
        <path id="DejaVuSans-2190" d="M 313 1866 
L 313 2147 
L 1541 3375 
L 1916 3000 
L 1188 2272 
L 4997 2272 
L 4997 1741 
L 1188 1741 
L 1916 1013 
L 1541 638 
L 313 1866 
z
" transform="scale(0.015625)"/>
        <path id="DejaVuSans-2212" d="M 678 2272 
L 4684 2272 
L 4684 1741 
L 678 1741 
L 678 2272 
z
" transform="scale(0.015625)"/>
        <path id="DejaVuSans-221e" d="M 2916 1091 
Q 2819 1203 2666 1466 
Q 2456 1091 2272 925 
Q 2041 725 1681 725 
Q 1259 725 981 1041 
Q 688 1372 688 1919 
Q 688 2444 981 2800 
Q 1244 3116 1688 3116 
Q 1916 3116 2084 3022 
Q 2281 2919 2416 2741 
Q 2541 2581 2666 2366 
Q 2875 2741 3059 2906 
Q 3291 3106 3650 3106 
Q 4072 3106 4350 2791 
Q 4644 2459 4644 1913 
Q 4644 1388 4350 1031 
Q 4088 716 3644 716 
Q 3416 716 3247 809 
Q 3078 894 2916 1091 
z
M 1647 1134 
Q 2163 1134 2472 1884 
Q 2075 2703 1647 2703 
Q 1334 2703 1175 2478 
Q 1003 2238 1003 1919 
Q 1003 1569 1175 1353 
Q 1350 1134 1647 1134 
z
M 3684 2697 
Q 3219 2697 2859 1947 
Q 3253 1128 3684 1128 
Q 3997 1128 4156 1353 
Q 4328 1594 4328 1913 
Q 4328 2263 4156 2478 
Q 3981 2697 3684 2697 
z
" transform="scale(0.015625)"/>
       </defs>
       <use xlink:href="#DejaVuSans-2190" transform="translate(19.482422 0.265625)"/>
       <use xlink:href="#DejaVuSans-2212" transform="translate(158.472004 0.265625)"/>
       <use xlink:href="#DejaVuSans-221e" transform="translate(261.743489 0.265625)"/>
      </g>
     </g>
    </g>
    <g id="xtick_2">
     <g id="line2d_2"/>
     <g id="text_2">
      <!-- $\mu$ -->
      <g style="fill: #030303" transform="translate(217.24 277.681562) scale(0.13 -0.13)">
       <defs>
        <path id="DejaVuSans-Oblique-3bc" d="M -84 -1331 
L 856 3500 
L 1434 3500 
L 1009 1322 
Q 997 1256 987 1175 
Q 978 1094 978 1013 
Q 978 722 1161 565 
Q 1344 409 1684 409 
Q 2147 409 2431 671 
Q 2716 934 2816 1459 
L 3213 3500 
L 3788 3500 
L 3266 809 
Q 3253 750 3248 706 
Q 3244 663 3244 628 
Q 3244 531 3283 486 
Q 3322 441 3406 441 
Q 3438 441 3492 456 
Q 3547 472 3647 513 
L 3559 50 
Q 3422 -19 3297 -55 
Q 3172 -91 3053 -91 
Q 2847 -91 2730 40 
Q 2613 172 2613 403 
Q 2438 153 2195 31 
Q 1953 -91 1625 -91 
Q 1334 -91 1117 43 
Q 900 178 831 397 
L 494 -1331 
L -84 -1331 
z
" transform="scale(0.015625)"/>
       </defs>
       <use xlink:href="#DejaVuSans-Oblique-3bc" transform="translate(0 0.3125)"/>
      </g>
     </g>
    </g>
    <g id="xtick_3">
     <g id="line2d_3"/>
     <g id="text_3">
      <!-- $+\infty\, \rightarrow$ -->
      <g style="fill: #030303" transform="translate(363.61375 277.707969) scale(0.13 -0.13)">
       <defs>
        <path id="DejaVuSans-2b" d="M 2944 4013 
L 2944 2272 
L 4684 2272 
L 4684 1741 
L 2944 1741 
L 2944 0 
L 2419 0 
L 2419 1741 
L 678 1741 
L 678 2272 
L 2419 2272 
L 2419 4013 
L 2944 4013 
z
" transform="scale(0.015625)"/>
        <path id="DejaVuSans-2192" d="M 5050 2147 
L 5050 1866 
L 3822 638 
L 3447 1013 
L 4175 1741 
L 366 1741 
L 366 2272 
L 4175 2272 
L 3447 3000 
L 3822 3375 
L 5050 2147 
z
" transform="scale(0.015625)"/>
       </defs>
       <use xlink:href="#DejaVuSans-2b" transform="translate(0 0.296875)"/>
       <use xlink:href="#DejaVuSans-221e" transform="translate(83.789062 0.296875)"/>
       <use xlink:href="#DejaVuSans-2192" transform="translate(202.807942 0.296875)"/>
      </g>
     </g>
    </g>
   </g>
   <g id="matplotlib.axis_2"/>
   <g id="line2d_4">
    <path d="M 12.15 253.8652 
L 16.377273 253.83888 
L 20.604545 253.803496 
L 24.831818 253.756258 
L 29.059091 253.693633 
L 33.286364 253.611187 
L 37.513636 253.503407 
L 41.740909 253.363496 
L 45.968182 253.183156 
L 50.195455 252.952346 
L 54.422727 252.659039 
L 58.65 252.288968 
L 62.877273 251.825386 
L 67.104545 251.248839 
L 71.331818 250.536986 
L 75.559091 249.664464 
L 79.786364 248.602834 
L 84.013636 247.320622 
L 88.240909 245.783483 
L 92.468182 243.954508 
L 96.695455 241.794697 
L 100.922727 239.263613 
L 105.15 236.320232 
L 109.377273 232.923999 
L 113.604545 229.036072 
L 117.831818 224.62076 
L 122.059091 219.647114 
L 126.286364 214.09064 
L 130.513636 207.935079 
L 134.740909 201.174197 
L 138.968182 193.813503 
L 143.195455 185.871817 
L 147.422727 177.3826 
L 151.65 168.394962 
L 155.877273 158.974247 
L 160.104545 149.202145 
L 164.331818 139.176248 
L 168.559091 129.009019 
L 172.786364 118.826148 
L 177.013636 108.764318 
L 181.240909 98.968397 
L 185.468182 89.588149 
L 189.695455 80.774535 
L 193.922727 72.675749 
L 198.15 65.433115 
L 202.377273 59.177005 
L 206.604545 54.02295 
L 210.831818 50.068094 
L 215.059091 47.388153 
L 219.286364 46.035 
L 223.513636 46.035 
L 227.740909 47.388153 
L 231.968182 50.068094 
L 236.195455 54.02295 
L 240.422727 59.177005 
L 244.65 65.433115 
L 248.877273 72.675749 
L 253.104545 80.774535 
L 257.331818 89.588149 
L 261.559091 98.968397 
L 265.786364 108.764318 
L 270.013636 118.826148 
L 274.240909 129.009019 
L 278.468182 139.176248 
L 282.695455 149.202145 
L 286.922727 158.974247 
L 291.15 168.394962 
L 295.377273 177.3826 
L 299.604545 185.871817 
L 303.831818 193.813503 
L 308.059091 201.174197 
L 312.286364 207.935079 
L 316.513636 214.09064 
L 320.740909 219.647114 
L 324.968182 224.62076 
L 329.195455 229.036072 
L 333.422727 232.923999 
L 337.65 236.320232 
L 341.877273 239.263613 
L 346.104545 241.794697 
L 350.331818 243.954508 
L 354.559091 245.783483 
L 358.786364 247.320622 
L 363.013636 248.602834 
L 367.240909 249.664464 
L 371.468182 250.536986 
L 375.695455 251.248839 
L 379.922727 251.825386 
L 384.15 252.288968 
L 388.377273 252.659039 
L 392.604545 252.952346 
L 396.831818 253.183156 
L 401.059091 253.363496 
L 405.286364 253.503407 
L 409.513636 253.611187 
L 413.740909 253.693633 
L 417.968182 253.756258 
L 422.195455 253.803496 
L 426.422727 253.83888 
L 430.65 253.8652 
" clip-path="url(#p9ebe3d2a29)" style="fill: none; stroke: #28a745; stroke-width: 1.5; stroke-linecap: square"/>
   </g>
   <g id="line2d_5">
    <path d="M 221.4 264.33 
L 221.4 35.64 
" clip-path="url(#p9ebe3d2a29)" style="fill: none; stroke-dasharray: 3.7,1.6; stroke-dashoffset: 0; stroke: #a3a3a3"/>
   </g>
   <g id="patch_3">
    <path d="M 54 264.33 
L 388.8 264.33 
" style="fill: none; stroke: #030303; stroke-width: 1.5; stroke-linejoin: miter; stroke-linecap: square"/>
   </g>
  </g>
 </g>
 <defs>
  <clipPath id="p9ebe3d2a29">
   <rect x="54" y="35.64" width="334.8" height="228.69"/>
  </clipPath>
 </defs>
</svg>
