<?xml version="1.0" encoding="utf-8" standalone="no"?>
<!DOCTYPE svg PUBLIC "-//W3C//DTD SVG 1.1//EN"
  "http://www.w3.org/Graphics/SVG/1.1/DTD/svg11.dtd">
<svg xmlns:xlink="http://www.w3.org/1999/xlink" width="432pt" height="360pt" viewBox="0 0 432 360" xmlns="http://www.w3.org/2000/svg" version="1.1">
 <metadata>
  <rdf:RDF xmlns:dc="http://purl.org/dc/elements/1.1/" xmlns:cc="http://creativecommons.org/ns#" xmlns:rdf="http://www.w3.org/1999/02/22-rdf-syntax-ns#">
   <cc:Work>
    <dc:type rdf:resource="http://purl.org/dc/dcmitype/StillImage"/>
    <dc:date>2024-04-09T20:22:26.985438</dc:date>
    <dc:format>image/svg+xml</dc:format>
    <dc:creator>
     <cc:Agent>
      <dc:title>Matplotlib v3.8.2, https://matplotlib.org/</dc:title>
     </cc:Agent>
    </dc:creator>
   </cc:Work>
  </rdf:RDF>
 </metadata>
 <defs>
  <style type="text/css">*{stroke-linejoin: round; stroke-linecap: butt}</style>
 </defs>
 <g id="figure_1">
  <g id="patch_1">
   <path d="M 0 360 
L 432 360 
L 432 0 
L 0 0 
L 0 360 
z
" style="fill: none"/>
  </g>
  <g id="axes_1">
   <g id="patch_2">
    <path d="M 54 320.4 
L 388.8 320.4 
L 388.8 43.2 
L 54 43.2 
L 54 320.4 
z
" style="fill: none"/>
   </g>
   <g id="patch_3">
    <path d="M 137.7 359.133333 
L 137.7 359.133333 
L 137.7 359.133333 
L 137.7 359.133333 
z
" clip-path="url(#p0de5fc3609)" style="fill: #5481a6; stroke: #4b4b4b; stroke-linejoin: miter"/>
   </g>
   <g id="patch_4">
    <path d="M 137.7 359.133333 
L 137.7 359.133333 
L 137.7 359.133333 
L 137.7 359.133333 
z
" clip-path="url(#p0de5fc3609)" style="fill: #e29d67; stroke: #4b4b4b; stroke-linejoin: miter"/>
   </g>
   <g id="matplotlib.axis_1">
    <g id="xtick_1">
     <g id="line2d_1">
      <defs>
       <path id="m7de2a6a05c" d="M 0 0 
L 0 3.5 
" style="stroke: #030303; stroke-width: 0.8"/>
      </defs>
      <g>
       <use xlink:href="#m7de2a6a05c" x="137.7" y="320.4" style="fill: #030303; stroke: #030303; stroke-width: 0.8"/>
      </g>
     </g>
     <g id="text_1">
      <!-- chilled -->
      <g style="fill: #030303" transform="translate(115.628437 337.277969) scale(0.13 -0.13)">
       <defs>
        <path id="DejaVuSerif-63" d="M 3291 997 
Q 3169 466 2822 187 
Q 2475 -91 1925 -91 
Q 1200 -91 759 389 
Q 319 869 319 1663 
Q 319 2459 759 2936 
Q 1200 3413 1925 3413 
Q 2241 3413 2553 3339 
Q 2866 3266 3181 3116 
L 3181 2266 
L 2847 2266 
Q 2781 2703 2561 2903 
Q 2341 3103 1931 3103 
Q 1466 3103 1228 2742 
Q 991 2381 991 1663 
Q 991 944 1227 581 
Q 1463 219 1931 219 
Q 2303 219 2525 412 
Q 2747 606 2828 997 
L 3291 997 
z
" transform="scale(0.015625)"/>
        <path id="DejaVuSerif-68" d="M 263 0 
L 263 331 
L 781 331 
L 781 4531 
L 231 4531 
L 231 4863 
L 1356 4863 
L 1356 2731 
Q 1516 3069 1770 3241 
Q 2025 3413 2363 3413 
Q 2913 3413 3172 3097 
Q 3431 2781 3431 2113 
L 3431 331 
L 3944 331 
L 3944 0 
L 2356 0 
L 2356 331 
L 2853 331 
L 2853 1931 
Q 2853 2541 2704 2764 
Q 2556 2988 2175 2988 
Q 1775 2988 1565 2697 
Q 1356 2406 1356 1850 
L 1356 331 
L 1856 331 
L 1856 0 
L 263 0 
z
" transform="scale(0.015625)"/>
        <path id="DejaVuSerif-69" d="M 622 4353 
Q 622 4497 726 4603 
Q 831 4709 978 4709 
Q 1122 4709 1226 4603 
Q 1331 4497 1331 4353 
Q 1331 4206 1228 4103 
Q 1125 4000 978 4000 
Q 831 4000 726 4103 
Q 622 4206 622 4353 
z
M 1356 331 
L 1900 331 
L 1900 0 
L 231 0 
L 231 331 
L 781 331 
L 781 2988 
L 231 2988 
L 231 3322 
L 1356 3322 
L 1356 331 
z
" transform="scale(0.015625)"/>
        <path id="DejaVuSerif-6c" d="M 1313 331 
L 1856 331 
L 1856 0 
L 184 0 
L 184 331 
L 738 331 
L 738 4531 
L 184 4531 
L 184 4863 
L 1313 4863 
L 1313 331 
z
" transform="scale(0.015625)"/>
        <path id="DejaVuSerif-65" d="M 3469 1600 
L 991 1600 
L 991 1575 
Q 991 903 1244 561 
Q 1497 219 1991 219 
Q 2369 219 2611 417 
Q 2853 616 2950 1006 
L 3413 1006 
Q 3275 459 2904 184 
Q 2534 -91 1931 -91 
Q 1203 -91 761 389 
Q 319 869 319 1663 
Q 319 2450 753 2931 
Q 1188 3413 1894 3413 
Q 2647 3413 3050 2948 
Q 3453 2484 3469 1600 
z
M 2791 1931 
Q 2772 2513 2545 2808 
Q 2319 3103 1894 3103 
Q 1497 3103 1269 2806 
Q 1041 2509 991 1931 
L 2791 1931 
z
" transform="scale(0.015625)"/>
        <path id="DejaVuSerif-64" d="M 3359 331 
L 3909 331 
L 3909 0 
L 2784 0 
L 2784 519 
Q 2616 206 2355 57 
Q 2094 -91 1709 -91 
Q 1097 -91 708 395 
Q 319 881 319 1663 
Q 319 2444 706 2928 
Q 1094 3413 1709 3413 
Q 2094 3413 2355 3264 
Q 2616 3116 2784 2803 
L 2784 4531 
L 2241 4531 
L 2241 4863 
L 3359 4863 
L 3359 331 
z
M 2784 1497 
L 2784 1825 
Q 2784 2422 2554 2737 
Q 2325 3053 1888 3053 
Q 1444 3053 1217 2703 
Q 991 2353 991 1663 
Q 991 975 1217 622 
Q 1444 269 1888 269 
Q 2325 269 2554 583 
Q 2784 897 2784 1497 
z
" transform="scale(0.015625)"/>
       </defs>
       <use xlink:href="#DejaVuSerif-63"/>
       <use xlink:href="#DejaVuSerif-68" x="56.005859"/>
       <use xlink:href="#DejaVuSerif-69" x="120.410156"/>
       <use xlink:href="#DejaVuSerif-6c" x="152.392578"/>
       <use xlink:href="#DejaVuSerif-6c" x="184.375"/>
       <use xlink:href="#DejaVuSerif-65" x="216.357422"/>
       <use xlink:href="#DejaVuSerif-64" x="275.537109"/>
      </g>
     </g>
    </g>
    <g id="xtick_2">
     <g id="line2d_2">
      <g>
       <use xlink:href="#m7de2a6a05c" x="305.1" y="320.4" style="fill: #030303; stroke: #030303; stroke-width: 0.8"/>
      </g>
     </g>
     <g id="text_2">
      <!-- nonchilled -->
      <g style="fill: #030303" transform="translate(270.742422 337.277969) scale(0.13 -0.13)">
       <defs>
        <path id="DejaVuSerif-6e" d="M 263 0 
L 263 331 
L 781 331 
L 781 2988 
L 231 2988 
L 231 3322 
L 1356 3322 
L 1356 2731 
Q 1516 3069 1770 3241 
Q 2025 3413 2363 3413 
Q 2913 3413 3172 3097 
Q 3431 2781 3431 2113 
L 3431 331 
L 3944 331 
L 3944 0 
L 2356 0 
L 2356 331 
L 2853 331 
L 2853 1931 
Q 2853 2541 2703 2767 
Q 2553 2994 2175 2994 
Q 1775 2994 1565 2701 
Q 1356 2409 1356 1850 
L 1356 331 
L 1856 331 
L 1856 0 
L 263 0 
z
" transform="scale(0.015625)"/>
        <path id="DejaVuSerif-6f" d="M 1925 219 
Q 2388 219 2623 584 
Q 2859 950 2859 1663 
Q 2859 2375 2623 2739 
Q 2388 3103 1925 3103 
Q 1463 3103 1227 2739 
Q 991 2375 991 1663 
Q 991 950 1228 584 
Q 1466 219 1925 219 
z
M 1925 -91 
Q 1200 -91 759 389 
Q 319 869 319 1663 
Q 319 2456 758 2934 
Q 1197 3413 1925 3413 
Q 2653 3413 3092 2934 
Q 3531 2456 3531 1663 
Q 3531 869 3092 389 
Q 2653 -91 1925 -91 
z
" transform="scale(0.015625)"/>
       </defs>
       <use xlink:href="#DejaVuSerif-6e"/>
       <use xlink:href="#DejaVuSerif-6f" x="64.404297"/>
       <use xlink:href="#DejaVuSerif-6e" x="124.609375"/>
       <use xlink:href="#DejaVuSerif-63" x="189.013672"/>
       <use xlink:href="#DejaVuSerif-68" x="245.019531"/>
       <use xlink:href="#DejaVuSerif-69" x="309.423828"/>
       <use xlink:href="#DejaVuSerif-6c" x="341.40625"/>
       <use xlink:href="#DejaVuSerif-6c" x="373.388672"/>
       <use xlink:href="#DejaVuSerif-65" x="405.371094"/>
       <use xlink:href="#DejaVuSerif-64" x="464.550781"/>
      </g>
     </g>
    </g>
    <g id="text_3">
     <!-- Treatment -->
     <g style="fill: #030303" transform="translate(173.510156 357.65875) scale(0.18 -0.18)">
      <defs>
       <path id="DejaVuSerif-54" d="M 1222 0 
L 1222 331 
L 1819 331 
L 1819 4294 
L 447 4294 
L 447 3566 
L 63 3566 
L 63 4666 
L 4206 4666 
L 4206 3566 
L 3822 3566 
L 3822 4294 
L 2450 4294 
L 2450 331 
L 3047 331 
L 3047 0 
L 1222 0 
z
" transform="scale(0.015625)"/>
       <path id="DejaVuSerif-72" d="M 3059 3328 
L 3059 2497 
L 2728 2497 
Q 2713 2744 2591 2866 
Q 2469 2988 2234 2988 
Q 1809 2988 1582 2694 
Q 1356 2400 1356 1850 
L 1356 331 
L 2022 331 
L 2022 0 
L 263 0 
L 263 331 
L 781 331 
L 781 2994 
L 231 2994 
L 231 3322 
L 1356 3322 
L 1356 2731 
Q 1525 3078 1790 3245 
Q 2056 3413 2438 3413 
Q 2578 3413 2733 3391 
Q 2888 3369 3059 3328 
z
" transform="scale(0.015625)"/>
       <path id="DejaVuSerif-61" d="M 2547 1044 
L 2547 1747 
L 1806 1747 
Q 1378 1747 1168 1562 
Q 959 1378 959 997 
Q 959 650 1171 447 
Q 1384 244 1747 244 
Q 2106 244 2326 466 
Q 2547 688 2547 1044 
z
M 3122 2075 
L 3122 331 
L 3634 331 
L 3634 0 
L 2547 0 
L 2547 359 
Q 2356 128 2106 18 
Q 1856 -91 1522 -91 
Q 969 -91 644 203 
Q 319 497 319 997 
Q 319 1513 691 1797 
Q 1063 2081 1741 2081 
L 2547 2081 
L 2547 2309 
Q 2547 2688 2317 2895 
Q 2088 3103 1672 3103 
Q 1328 3103 1125 2947 
Q 922 2791 872 2484 
L 575 2484 
L 575 3156 
Q 875 3284 1158 3348 
Q 1441 3413 1709 3413 
Q 2400 3413 2761 3070 
Q 3122 2728 3122 2075 
z
" transform="scale(0.015625)"/>
       <path id="DejaVuSerif-74" d="M 691 2988 
L 184 2988 
L 184 3322 
L 691 3322 
L 691 4353 
L 1269 4353 
L 1269 3322 
L 2350 3322 
L 2350 2988 
L 1269 2988 
L 1269 878 
Q 1269 456 1350 337 
Q 1431 219 1650 219 
Q 1875 219 1978 351 
Q 2081 484 2088 781 
L 2522 781 
Q 2497 328 2275 118 
Q 2053 -91 1600 -91 
Q 1103 -91 897 129 
Q 691 350 691 878 
L 691 2988 
z
" transform="scale(0.015625)"/>
       <path id="DejaVuSerif-6d" d="M 3316 2675 
Q 3481 3041 3739 3227 
Q 3997 3413 4341 3413 
Q 4863 3413 5119 3089 
Q 5375 2766 5375 2113 
L 5375 331 
L 5894 331 
L 5894 0 
L 4300 0 
L 4300 331 
L 4800 331 
L 4800 2047 
Q 4800 2556 4650 2772 
Q 4500 2988 4153 2988 
Q 3769 2988 3567 2697 
Q 3366 2406 3366 1850 
L 3366 331 
L 3866 331 
L 3866 0 
L 2291 0 
L 2291 331 
L 2791 331 
L 2791 2069 
Q 2791 2566 2641 2777 
Q 2491 2988 2144 2988 
Q 1759 2988 1557 2697 
Q 1356 2406 1356 1850 
L 1356 331 
L 1856 331 
L 1856 0 
L 263 0 
L 263 331 
L 781 331 
L 781 2994 
L 231 2994 
L 231 3322 
L 1356 3322 
L 1356 2731 
Q 1516 3063 1762 3238 
Q 2009 3413 2322 3413 
Q 2709 3413 2968 3220 
Q 3228 3028 3316 2675 
z
" transform="scale(0.015625)"/>
      </defs>
      <use xlink:href="#DejaVuSerif-54"/>
      <use xlink:href="#DejaVuSerif-72" x="66.699219"/>
      <use xlink:href="#DejaVuSerif-65" x="114.501953"/>
      <use xlink:href="#DejaVuSerif-61" x="173.681641"/>
      <use xlink:href="#DejaVuSerif-74" x="233.300781"/>
      <use xlink:href="#DejaVuSerif-6d" x="273.486328"/>
      <use xlink:href="#DejaVuSerif-65" x="368.310547"/>
      <use xlink:href="#DejaVuSerif-6e" x="427.490234"/>
      <use xlink:href="#DejaVuSerif-74" x="491.894531"/>
     </g>
    </g>
   </g>
   <g id="matplotlib.axis_2">
    <g id="ytick_1">
     <g id="line2d_3">
      <defs>
       <path id="mcecc06d78f" d="M 0 0 
L -3.5 0 
" style="stroke: #030303; stroke-width: 0.8"/>
      </defs>
      <g>
       <use xlink:href="#mcecc06d78f" x="54" y="292.466667" style="fill: #030303; stroke: #030303; stroke-width: 0.8"/>
      </g>
     </g>
     <g id="text_4">
      <!-- $\mathdefault{10}$ -->
      <g style="fill: #030303" transform="translate(30.36 297.405651) scale(0.13 -0.13)">
       <defs>
        <path id="DejaVuSerif-31" d="M 909 0 
L 909 331 
L 1722 331 
L 1722 4213 
L 781 3603 
L 781 4013 
L 1919 4750 
L 2350 4750 
L 2350 331 
L 3163 331 
L 3163 0 
L 909 0 
z
" transform="scale(0.015625)"/>
        <path id="DejaVuSerif-30" d="M 2034 219 
Q 2513 219 2750 744 
Q 2988 1269 2988 2328 
Q 2988 3391 2750 3916 
Q 2513 4441 2034 4441 
Q 1556 4441 1318 3916 
Q 1081 3391 1081 2328 
Q 1081 1269 1318 744 
Q 1556 219 2034 219 
z
M 2034 -91 
Q 1275 -91 848 546 
Q 422 1184 422 2328 
Q 422 3475 848 4112 
Q 1275 4750 2034 4750 
Q 2797 4750 3222 4112 
Q 3647 3475 3647 2328 
Q 3647 1184 3222 546 
Q 2797 -91 2034 -91 
z
" transform="scale(0.015625)"/>
       </defs>
       <use xlink:href="#DejaVuSerif-31" transform="translate(0 0.78125)"/>
       <use xlink:href="#DejaVuSerif-30" transform="translate(63.623047 0.78125)"/>
      </g>
     </g>
    </g>
    <g id="ytick_2">
     <g id="line2d_4">
      <g>
       <use xlink:href="#mcecc06d78f" x="54" y="259.133333" style="fill: #030303; stroke: #030303; stroke-width: 0.8"/>
      </g>
     </g>
     <g id="text_5">
      <!-- $\mathdefault{15}$ -->
      <g style="fill: #030303" transform="translate(30.36 264.072318) scale(0.13 -0.13)">
       <defs>
        <path id="DejaVuSerif-35" d="M 3219 4666 
L 3219 4153 
L 1081 4153 
L 1081 2816 
Q 1244 2928 1461 2984 
Q 1678 3041 1947 3041 
Q 2703 3041 3140 2622 
Q 3578 2203 3578 1478 
Q 3578 738 3136 323 
Q 2694 -91 1894 -91 
Q 1572 -91 1234 -12 
Q 897 66 544 225 
L 544 1131 
L 897 1131 
Q 925 688 1179 453 
Q 1434 219 1894 219 
Q 2388 219 2653 544 
Q 2919 869 2919 1478 
Q 2919 2084 2655 2407 
Q 2391 2731 1894 2731 
Q 1613 2731 1398 2631 
Q 1184 2531 1019 2322 
L 750 2322 
L 750 4666 
L 3219 4666 
z
" transform="scale(0.015625)"/>
       </defs>
       <use xlink:href="#DejaVuSerif-31" transform="translate(0 0.78125)"/>
       <use xlink:href="#DejaVuSerif-35" transform="translate(63.623047 0.78125)"/>
      </g>
     </g>
    </g>
    <g id="ytick_3">
     <g id="line2d_5">
      <g>
       <use xlink:href="#mcecc06d78f" x="54" y="225.8" style="fill: #030303; stroke: #030303; stroke-width: 0.8"/>
      </g>
     </g>
     <g id="text_6">
      <!-- $\mathdefault{20}$ -->
      <g style="fill: #030303" transform="translate(30.36 230.738984) scale(0.13 -0.13)">
       <defs>
        <path id="DejaVuSerif-32" d="M 819 3553 
L 469 3553 
L 469 4384 
Q 803 4563 1142 4656 
Q 1481 4750 1806 4750 
Q 2534 4750 2956 4397 
Q 3378 4044 3378 3438 
Q 3378 2753 2422 1800 
Q 2347 1728 2309 1691 
L 1131 513 
L 3078 513 
L 3078 1088 
L 3444 1088 
L 3444 0 
L 434 0 
L 434 341 
L 1850 1753 
Q 2319 2222 2519 2614 
Q 2719 3006 2719 3438 
Q 2719 3909 2473 4175 
Q 2228 4441 1797 4441 
Q 1350 4441 1106 4219 
Q 863 3997 819 3553 
z
" transform="scale(0.015625)"/>
       </defs>
       <use xlink:href="#DejaVuSerif-32" transform="translate(0 0.78125)"/>
       <use xlink:href="#DejaVuSerif-30" transform="translate(63.623047 0.78125)"/>
      </g>
     </g>
    </g>
    <g id="ytick_4">
     <g id="line2d_6">
      <g>
       <use xlink:href="#mcecc06d78f" x="54" y="192.466667" style="fill: #030303; stroke: #030303; stroke-width: 0.8"/>
      </g>
     </g>
     <g id="text_7">
      <!-- $\mathdefault{25}$ -->
      <g style="fill: #030303" transform="translate(30.36 197.405651) scale(0.13 -0.13)">
       <use xlink:href="#DejaVuSerif-32" transform="translate(0 0.78125)"/>
       <use xlink:href="#DejaVuSerif-35" transform="translate(63.623047 0.78125)"/>
      </g>
     </g>
    </g>
    <g id="ytick_5">
     <g id="line2d_7">
      <g>
       <use xlink:href="#mcecc06d78f" x="54" y="159.133333" style="fill: #030303; stroke: #030303; stroke-width: 0.8"/>
      </g>
     </g>
     <g id="text_8">
      <!-- $\mathdefault{30}$ -->
      <g style="fill: #030303" transform="translate(30.36 164.072318) scale(0.13 -0.13)">
       <defs>
        <path id="DejaVuSerif-33" d="M 622 4469 
Q 988 4606 1323 4678 
Q 1659 4750 1953 4750 
Q 2638 4750 3022 4454 
Q 3406 4159 3406 3634 
Q 3406 3213 3140 2930 
Q 2875 2647 2388 2547 
Q 2963 2466 3280 2130 
Q 3597 1794 3597 1259 
Q 3597 606 3158 257 
Q 2719 -91 1894 -91 
Q 1528 -91 1179 -12 
Q 831 66 488 225 
L 488 1131 
L 838 1131 
Q 869 681 1141 450 
Q 1413 219 1906 219 
Q 2384 219 2661 495 
Q 2938 772 2938 1253 
Q 2938 1803 2653 2086 
Q 2369 2369 1819 2369 
L 1522 2369 
L 1522 2688 
L 1678 2688 
Q 2225 2688 2498 2914 
Q 2772 3141 2772 3597 
Q 2772 4006 2547 4223 
Q 2322 4441 1900 4441 
Q 1478 4441 1245 4241 
Q 1013 4041 972 3647 
L 622 3647 
L 622 4469 
z
" transform="scale(0.015625)"/>
       </defs>
       <use xlink:href="#DejaVuSerif-33" transform="translate(0 0.78125)"/>
       <use xlink:href="#DejaVuSerif-30" transform="translate(63.623047 0.78125)"/>
      </g>
     </g>
    </g>
    <g id="ytick_6">
     <g id="line2d_8">
      <g>
       <use xlink:href="#mcecc06d78f" x="54" y="125.8" style="fill: #030303; stroke: #030303; stroke-width: 0.8"/>
      </g>
     </g>
     <g id="text_9">
      <!-- $\mathdefault{35}$ -->
      <g style="fill: #030303" transform="translate(30.36 130.738984) scale(0.13 -0.13)">
       <use xlink:href="#DejaVuSerif-33" transform="translate(0 0.78125)"/>
       <use xlink:href="#DejaVuSerif-35" transform="translate(63.623047 0.78125)"/>
      </g>
     </g>
    </g>
    <g id="ytick_7">
     <g id="line2d_9">
      <g>
       <use xlink:href="#mcecc06d78f" x="54" y="92.466667" style="fill: #030303; stroke: #030303; stroke-width: 0.8"/>
      </g>
     </g>
     <g id="text_10">
      <!-- $\mathdefault{40}$ -->
      <g style="fill: #030303" transform="translate(30.36 97.405651) scale(0.13 -0.13)">
       <defs>
        <path id="DejaVuSerif-34" d="M 2234 1581 
L 2234 4063 
L 641 1581 
L 2234 1581 
z
M 3609 0 
L 1484 0 
L 1484 331 
L 2234 331 
L 2234 1247 
L 197 1247 
L 197 1588 
L 2241 4750 
L 2859 4750 
L 2859 1581 
L 3750 1581 
L 3750 1247 
L 2859 1247 
L 2859 331 
L 3609 331 
L 3609 0 
z
" transform="scale(0.015625)"/>
       </defs>
       <use xlink:href="#DejaVuSerif-34" transform="translate(0 0.78125)"/>
       <use xlink:href="#DejaVuSerif-30" transform="translate(63.623047 0.78125)"/>
      </g>
     </g>
    </g>
    <g id="ytick_8">
     <g id="line2d_10">
      <g>
       <use xlink:href="#mcecc06d78f" x="54" y="59.133333" style="fill: #030303; stroke: #030303; stroke-width: 0.8"/>
      </g>
     </g>
     <g id="text_11">
      <!-- $\mathdefault{45}$ -->
      <g style="fill: #030303" transform="translate(30.36 64.072318) scale(0.13 -0.13)">
       <use xlink:href="#DejaVuSerif-34" transform="translate(0 0.78125)"/>
       <use xlink:href="#DejaVuSerif-35" transform="translate(63.623047 0.78125)"/>
      </g>
     </g>
    </g>
    <g id="text_12">
     <!-- $\text{CO}_2$ Uptake -->
     <g style="fill: #030303" transform="translate(22.58 235.53) rotate(-90) scale(0.18 -0.18)">
      <defs>
       <path id="DejaVuSans-43" d="M 4122 4306 
L 4122 3641 
Q 3803 3938 3442 4084 
Q 3081 4231 2675 4231 
Q 1875 4231 1450 3742 
Q 1025 3253 1025 2328 
Q 1025 1406 1450 917 
Q 1875 428 2675 428 
Q 3081 428 3442 575 
Q 3803 722 4122 1019 
L 4122 359 
Q 3791 134 3420 21 
Q 3050 -91 2638 -91 
Q 1578 -91 968 557 
Q 359 1206 359 2328 
Q 359 3453 968 4101 
Q 1578 4750 2638 4750 
Q 3056 4750 3426 4639 
Q 3797 4528 4122 4306 
z
" transform="scale(0.015625)"/>
       <path id="DejaVuSans-4f" d="M 2522 4238 
Q 1834 4238 1429 3725 
Q 1025 3213 1025 2328 
Q 1025 1447 1429 934 
Q 1834 422 2522 422 
Q 3209 422 3611 934 
Q 4013 1447 4013 2328 
Q 4013 3213 3611 3725 
Q 3209 4238 2522 4238 
z
M 2522 4750 
Q 3503 4750 4090 4092 
Q 4678 3434 4678 2328 
Q 4678 1225 4090 567 
Q 3503 -91 2522 -91 
Q 1538 -91 948 565 
Q 359 1222 359 2328 
Q 359 3434 948 4092 
Q 1538 4750 2522 4750 
z
" transform="scale(0.015625)"/>
       <path id="DejaVuSans-32" d="M 1228 531 
L 3431 531 
L 3431 0 
L 469 0 
L 469 531 
Q 828 903 1448 1529 
Q 2069 2156 2228 2338 
Q 2531 2678 2651 2914 
Q 2772 3150 2772 3378 
Q 2772 3750 2511 3984 
Q 2250 4219 1831 4219 
Q 1534 4219 1204 4116 
Q 875 4013 500 3803 
L 500 4441 
Q 881 4594 1212 4672 
Q 1544 4750 1819 4750 
Q 2544 4750 2975 4387 
Q 3406 4025 3406 3419 
Q 3406 3131 3298 2873 
Q 3191 2616 2906 2266 
Q 2828 2175 2409 1742 
Q 1991 1309 1228 531 
z
" transform="scale(0.015625)"/>
       <path id="DejaVuSerif-20" transform="scale(0.015625)"/>
       <path id="DejaVuSerif-55" d="M 897 4331 
L 300 4331 
L 300 4666 
L 2125 4666 
L 2125 4331 
L 1528 4331 
L 1528 1919 
Q 1528 1025 1820 672 
Q 2113 319 2828 319 
Q 3544 319 3836 672 
Q 4128 1025 4128 1919 
L 4128 4331 
L 3531 4331 
L 3531 4666 
L 5106 4666 
L 5106 4331 
L 4513 4331 
L 4513 1856 
Q 4513 791 4103 350 
Q 3694 -91 2713 -91 
Q 1731 -91 1314 353 
Q 897 797 897 1856 
L 897 4331 
z
" transform="scale(0.015625)"/>
       <path id="DejaVuSerif-70" d="M 1313 1825 
L 1313 1497 
Q 1313 897 1542 583 
Q 1772 269 2209 269 
Q 2650 269 2876 622 
Q 3103 975 3103 1663 
Q 3103 2353 2876 2703 
Q 2650 3053 2209 3053 
Q 1772 3053 1542 2737 
Q 1313 2422 1313 1825 
z
M 738 2988 
L 184 2988 
L 184 3322 
L 1313 3322 
L 1313 2803 
Q 1481 3116 1742 3264 
Q 2003 3413 2388 3413 
Q 3000 3413 3387 2928 
Q 3775 2444 3775 1663 
Q 3775 881 3387 395 
Q 3000 -91 2388 -91 
Q 2003 -91 1742 57 
Q 1481 206 1313 519 
L 1313 -997 
L 1856 -997 
L 1856 -1331 
L 184 -1331 
L 184 -997 
L 738 -997 
L 738 2988 
z
" transform="scale(0.015625)"/>
       <path id="DejaVuSerif-6b" d="M 1831 0 
L 219 0 
L 219 331 
L 738 331 
L 738 4531 
L 184 4531 
L 184 4863 
L 1313 4863 
L 1313 1697 
L 2713 2988 
L 2234 2988 
L 2234 3322 
L 3738 3322 
L 3738 2988 
L 3169 2988 
L 2181 2075 
L 3444 331 
L 3922 331 
L 3922 0 
L 2284 0 
L 2284 331 
L 2759 331 
L 1766 1697 
L 1313 1275 
L 1313 331 
L 1831 331 
L 1831 0 
z
" transform="scale(0.015625)"/>
      </defs>
      <use xlink:href="#DejaVuSans-43" transform="translate(0 0.015625)"/>
      <use xlink:href="#DejaVuSans-4f" transform="translate(69.824219 0.015625)"/>
      <use xlink:href="#DejaVuSans-32" transform="translate(149.492188 -16.390625) scale(0.7)"/>
      <use xlink:href="#DejaVuSerif-20" transform="translate(196.762695 0.015625)"/>
      <use xlink:href="#DejaVuSerif-55" transform="translate(228.549805 0.015625)"/>
      <use xlink:href="#DejaVuSerif-70" transform="translate(312.827148 0.015625)"/>
      <use xlink:href="#DejaVuSerif-74" transform="translate(376.84082 0.015625)"/>
      <use xlink:href="#DejaVuSerif-61" transform="translate(417.026367 0.015625)"/>
      <use xlink:href="#DejaVuSerif-6b" transform="translate(476.645508 0.015625)"/>
      <use xlink:href="#DejaVuSerif-65" transform="translate(537.241211 0.015625)"/>
     </g>
    </g>
   </g>
   <g id="patch_5">
    <path d="M 112.59 275.8 
L 137.7 275.8 
L 137.7 233.133333 
L 112.59 233.133333 
L 112.59 275.8 
z
" clip-path="url(#p0de5fc3609)" style="fill: #5481a6; stroke: #4b4b4b; stroke-linejoin: miter"/>
   </g>
   <g id="line2d_11">
    <path d="M 125.145 275.8 
L 125.145 307.8 
" clip-path="url(#p0de5fc3609)" style="fill: none; stroke: #4b4b4b"/>
   </g>
   <g id="line2d_12">
    <path d="M 125.145 233.133333 
L 125.145 211.133333 
" clip-path="url(#p0de5fc3609)" style="fill: none; stroke: #4b4b4b"/>
   </g>
   <g id="line2d_13">
    <path d="M 118.8675 307.8 
L 131.4225 307.8 
" clip-path="url(#p0de5fc3609)" style="fill: none; stroke: #4b4b4b; stroke-linecap: square"/>
   </g>
   <g id="line2d_14">
    <path d="M 118.8675 211.133333 
L 131.4225 211.133333 
" clip-path="url(#p0de5fc3609)" style="fill: none; stroke: #4b4b4b; stroke-linecap: square"/>
   </g>
   <g id="line2d_15"/>
   <g id="patch_6">
    <path d="M 279.99 212.466667 
L 305.1 212.466667 
L 305.1 151.8 
L 279.99 151.8 
L 279.99 212.466667 
z
" clip-path="url(#p0de5fc3609)" style="fill: #5481a6; stroke: #4b4b4b; stroke-linejoin: miter"/>
   </g>
   <g id="line2d_16">
    <path d="M 292.545 212.466667 
L 292.545 288.466667 
" clip-path="url(#p0de5fc3609)" style="fill: none; stroke: #4b4b4b"/>
   </g>
   <g id="line2d_17">
    <path d="M 292.545 151.8 
L 292.545 122.466667 
" clip-path="url(#p0de5fc3609)" style="fill: none; stroke: #4b4b4b"/>
   </g>
   <g id="line2d_18">
    <path d="M 286.2675 288.466667 
L 298.8225 288.466667 
" clip-path="url(#p0de5fc3609)" style="fill: none; stroke: #4b4b4b; stroke-linecap: square"/>
   </g>
   <g id="line2d_19">
    <path d="M 286.2675 122.466667 
L 298.8225 122.466667 
" clip-path="url(#p0de5fc3609)" style="fill: none; stroke: #4b4b4b; stroke-linecap: square"/>
   </g>
   <g id="line2d_20"/>
   <g id="patch_7">
    <path d="M 137.7 177.133333 
L 162.81 177.133333 
L 162.81 101.133333 
L 137.7 101.133333 
L 137.7 177.133333 
z
" clip-path="url(#p0de5fc3609)" style="fill: #e29d67; stroke: #4b4b4b; stroke-linejoin: miter"/>
   </g>
   <g id="line2d_21">
    <path d="M 150.255 177.133333 
L 150.255 264.466667 
" clip-path="url(#p0de5fc3609)" style="fill: none; stroke: #4b4b4b"/>
   </g>
   <g id="line2d_22">
    <path d="M 150.255 101.133333 
L 150.255 76.466667 
" clip-path="url(#p0de5fc3609)" style="fill: none; stroke: #4b4b4b"/>
   </g>
   <g id="line2d_23">
    <path d="M 143.9775 264.466667 
L 156.5325 264.466667 
" clip-path="url(#p0de5fc3609)" style="fill: none; stroke: #4b4b4b; stroke-linecap: square"/>
   </g>
   <g id="line2d_24">
    <path d="M 143.9775 76.466667 
L 156.5325 76.466667 
" clip-path="url(#p0de5fc3609)" style="fill: none; stroke: #4b4b4b; stroke-linecap: square"/>
   </g>
   <g id="line2d_25">
    <defs>
     <path id="m0cc992a2be" d="M 0 3 
C 0.795609 3 1.55874 2.683901 2.12132 2.12132 
C 2.683901 1.55874 3 0.795609 3 0 
C 3 -0.795609 2.683901 -1.55874 2.12132 -2.12132 
C 1.55874 -2.683901 0.795609 -3 0 -3 
C -0.795609 -3 -1.55874 -2.683901 -2.12132 -2.12132 
C -2.683901 -1.55874 -3 -0.795609 -3 0 
C -3 0.795609 -2.683901 1.55874 -2.12132 2.12132 
C -1.55874 2.683901 -0.795609 3 0 3 
z
" style="stroke: #4b4b4b"/>
    </defs>
    <g clip-path="url(#p0de5fc3609)">
     <use xlink:href="#m0cc992a2be" x="150.255" y="297.133333" style="fill-opacity: 0; stroke: #4b4b4b"/>
    </g>
   </g>
   <g id="patch_8">
    <path d="M 305.1 143.133333 
L 330.21 143.133333 
L 330.21 80.466667 
L 305.1 80.466667 
L 305.1 143.133333 
z
" clip-path="url(#p0de5fc3609)" style="fill: #e29d67; stroke: #4b4b4b; stroke-linejoin: miter"/>
   </g>
   <g id="line2d_26">
    <path d="M 317.655 143.133333 
L 317.655 177.133333 
" clip-path="url(#p0de5fc3609)" style="fill: none; stroke: #4b4b4b"/>
   </g>
   <g id="line2d_27">
    <path d="M 317.655 80.466667 
L 317.655 55.8 
" clip-path="url(#p0de5fc3609)" style="fill: none; stroke: #4b4b4b"/>
   </g>
   <g id="line2d_28">
    <path d="M 311.3775 177.133333 
L 323.9325 177.133333 
" clip-path="url(#p0de5fc3609)" style="fill: none; stroke: #4b4b4b; stroke-linecap: square"/>
   </g>
   <g id="line2d_29">
    <path d="M 311.3775 55.8 
L 323.9325 55.8 
" clip-path="url(#p0de5fc3609)" style="fill: none; stroke: #4b4b4b; stroke-linecap: square"/>
   </g>
   <g id="line2d_30">
    <g clip-path="url(#p0de5fc3609)">
     <use xlink:href="#m0cc992a2be" x="317.655" y="252.466667" style="fill-opacity: 0; stroke: #4b4b4b"/>
     <use xlink:href="#m0cc992a2be" x="317.655" y="268.466667" style="fill-opacity: 0; stroke: #4b4b4b"/>
     <use xlink:href="#m0cc992a2be" x="317.655" y="251.133333" style="fill-opacity: 0; stroke: #4b4b4b"/>
    </g>
   </g>
   <g id="line2d_31">
    <path d="M 112.59 239.8 
L 137.7 239.8 
" clip-path="url(#p0de5fc3609)" style="fill: none; stroke: #4b4b4b"/>
   </g>
   <g id="line2d_32">
    <path d="M 279.99 171.8 
L 305.1 171.8 
" clip-path="url(#p0de5fc3609)" style="fill: none; stroke: #4b4b4b"/>
   </g>
   <g id="line2d_33">
    <path d="M 137.7 125.8 
L 162.81 125.8 
" clip-path="url(#p0de5fc3609)" style="fill: none; stroke: #4b4b4b"/>
   </g>
   <g id="line2d_34">
    <path d="M 305.1 97.8 
L 330.21 97.8 
" clip-path="url(#p0de5fc3609)" style="fill: none; stroke: #4b4b4b"/>
   </g>
   <g id="patch_9">
    <path d="M 54 320.4 
L 54 43.2 
" style="fill: none; stroke: #030303; stroke-width: 1.5; stroke-linejoin: miter; stroke-linecap: square"/>
   </g>
   <g id="patch_10">
    <path d="M 54 320.4 
L 388.8 320.4 
" style="fill: none; stroke: #030303; stroke-width: 1.5; stroke-linejoin: miter; stroke-linecap: square"/>
   </g>
   <g id="legend_1">
    <g id="patch_11">
     <path d="M 59.6 86.905312 
L 130.28875 86.905312 
Q 131.88875 86.905312 131.88875 85.305312 
L 131.88875 48.8 
Q 131.88875 47.2 130.28875 47.2 
L 59.6 47.2 
Q 58 47.2 58 48.8 
L 58 85.305312 
Q 58 86.905312 59.6 86.905312 
z
" style="fill: #ffffff; opacity: 0.8; stroke: #cccccc; stroke-linejoin: miter"/>
    </g>
    <g id="text_13">
     <!-- Plant Type -->
     <g style="fill: #030303" transform="translate(67.860781 57.998437) scale(0.1 -0.1)">
      <defs>
       <path id="DejaVuSerif-50" d="M 1581 2375 
L 2406 2375 
Q 2872 2375 3115 2626 
Q 3359 2878 3359 3353 
Q 3359 3831 3115 4081 
Q 2872 4331 2406 4331 
L 1581 4331 
L 1581 2375 
z
M 353 0 
L 353 331 
L 947 331 
L 947 4331 
L 353 4331 
L 353 4666 
L 2559 4666 
Q 3259 4666 3668 4311 
Q 4078 3956 4078 3353 
Q 4078 2753 3668 2397 
Q 3259 2041 2559 2041 
L 1581 2041 
L 1581 331 
L 2303 331 
L 2303 0 
L 353 0 
z
" transform="scale(0.015625)"/>
       <path id="DejaVuSerif-79" d="M 1381 -609 
L 1600 -56 
L 359 2988 
L -19 2988 
L -19 3322 
L 1509 3322 
L 1509 2988 
L 978 2988 
L 1913 703 
L 2847 2988 
L 2350 2988 
L 2350 3322 
L 3597 3322 
L 3597 2988 
L 3225 2988 
L 1703 -750 
Q 1547 -1138 1356 -1280 
Q 1166 -1422 819 -1422 
Q 672 -1422 517 -1397 
Q 363 -1372 206 -1325 
L 206 -691 
L 500 -691 
Q 519 -903 608 -995 
Q 697 -1088 884 -1088 
Q 1056 -1088 1161 -992 
Q 1266 -897 1381 -609 
z
" transform="scale(0.015625)"/>
      </defs>
      <use xlink:href="#DejaVuSerif-50"/>
      <use xlink:href="#DejaVuSerif-6c" x="67.285156"/>
      <use xlink:href="#DejaVuSerif-61" x="99.267578"/>
      <use xlink:href="#DejaVuSerif-6e" x="158.886719"/>
      <use xlink:href="#DejaVuSerif-74" x="223.291016"/>
      <use xlink:href="#DejaVuSerif-20" x="263.476562"/>
      <use xlink:href="#DejaVuSerif-54" x="295.263672"/>
      <use xlink:href="#DejaVuSerif-79" x="361.962891"/>
      <use xlink:href="#DejaVuSerif-70" x="418.457031"/>
      <use xlink:href="#DejaVuSerif-65" x="482.470703"/>
     </g>
    </g>
    <g id="patch_12">
     <path d="M 61.2 70.299062 
L 77.2 70.299062 
L 77.2 64.699062 
L 61.2 64.699062 
z
" style="fill: #5481a6; stroke: #4b4b4b; stroke-linejoin: miter"/>
    </g>
    <g id="text_14">
     <!-- Mississippi -->
     <g style="fill: #030303" transform="translate(83.6 70.299062) scale(0.08 -0.08)">
      <defs>
       <path id="DejaVuSerif-4d" d="M 353 0 
L 353 331 
L 947 331 
L 947 4331 
L 319 4331 
L 319 4666 
L 1678 4666 
L 3316 1344 
L 4953 4666 
L 6228 4666 
L 6228 4331 
L 5606 4331 
L 5606 331 
L 6203 331 
L 6203 0 
L 4378 0 
L 4378 331 
L 4972 331 
L 4972 3938 
L 3372 684 
L 2931 684 
L 1331 3938 
L 1331 331 
L 1925 331 
L 1925 0 
L 353 0 
z
" transform="scale(0.015625)"/>
       <path id="DejaVuSerif-73" d="M 359 184 
L 359 959 
L 691 959 
Q 703 588 923 403 
Q 1144 219 1575 219 
Q 1963 219 2166 364 
Q 2369 509 2369 788 
Q 2369 1006 2220 1140 
Q 2072 1275 1594 1428 
L 1178 1569 
Q 750 1706 558 1912 
Q 366 2119 366 2438 
Q 366 2894 700 3153 
Q 1034 3413 1625 3413 
Q 1888 3413 2178 3344 
Q 2469 3275 2778 3144 
L 2778 2419 
L 2447 2419 
Q 2434 2741 2221 2922 
Q 2009 3103 1644 3103 
Q 1281 3103 1095 2975 
Q 909 2847 909 2591 
Q 909 2381 1050 2254 
Q 1191 2128 1613 1997 
L 2069 1856 
Q 2541 1709 2748 1489 
Q 2956 1269 2956 922 
Q 2956 450 2595 179 
Q 2234 -91 1600 -91 
Q 1278 -91 972 -22 
Q 666 47 359 184 
z
" transform="scale(0.015625)"/>
      </defs>
      <use xlink:href="#DejaVuSerif-4d"/>
      <use xlink:href="#DejaVuSerif-69" x="102.392578"/>
      <use xlink:href="#DejaVuSerif-73" x="134.375"/>
      <use xlink:href="#DejaVuSerif-73" x="185.693359"/>
      <use xlink:href="#DejaVuSerif-69" x="237.011719"/>
      <use xlink:href="#DejaVuSerif-73" x="268.994141"/>
      <use xlink:href="#DejaVuSerif-73" x="320.3125"/>
      <use xlink:href="#DejaVuSerif-69" x="371.630859"/>
      <use xlink:href="#DejaVuSerif-70" x="403.613281"/>
      <use xlink:href="#DejaVuSerif-70" x="467.626953"/>
      <use xlink:href="#DejaVuSerif-69" x="531.640625"/>
     </g>
    </g>
    <g id="patch_13">
     <path d="M 61.2 82.041562 
L 77.2 82.041562 
L 77.2 76.441562 
L 61.2 76.441562 
z
" style="fill: #e29d67; stroke: #4b4b4b; stroke-linejoin: miter"/>
    </g>
    <g id="text_15">
     <!-- Quebec -->
     <g style="fill: #030303" transform="translate(83.6 82.041562) scale(0.08 -0.08)">
      <defs>
       <path id="DejaVuSerif-51" d="M 2700 -91 
Q 1628 -91 993 567 
Q 359 1225 359 2328 
Q 359 2894 529 3339 
Q 700 3784 1050 4134 
Q 1356 4441 1750 4595 
Q 2144 4750 2625 4750 
Q 3641 4750 4266 4084 
Q 4891 3419 4891 2328 
Q 4891 1403 4422 773 
Q 3953 144 3128 -38 
Q 3297 -247 3539 -347 
Q 3781 -447 4122 -447 
L 4219 -447 
L 4219 -1025 
Q 3691 -1000 3314 -767 
Q 2938 -534 2700 -91 
z
M 2625 244 
Q 3391 244 3781 770 
Q 4172 1297 4172 2328 
Q 4172 3363 3781 3889 
Q 3391 4416 2625 4416 
Q 1856 4416 1465 3889 
Q 1075 3363 1075 2328 
Q 1075 1297 1465 770 
Q 1856 244 2625 244 
z
" transform="scale(0.015625)"/>
       <path id="DejaVuSerif-75" d="M 2266 3322 
L 3341 3322 
L 3341 331 
L 3884 331 
L 3884 0 
L 2766 0 
L 2766 588 
Q 2606 256 2353 82 
Q 2100 -91 1766 -91 
Q 1213 -91 952 223 
Q 691 538 691 1209 
L 691 2988 
L 172 2988 
L 172 3322 
L 1269 3322 
L 1269 1388 
Q 1269 781 1417 556 
Q 1566 331 1947 331 
Q 2347 331 2556 625 
Q 2766 919 2766 1478 
L 2766 2988 
L 2266 2988 
L 2266 3322 
z
" transform="scale(0.015625)"/>
       <path id="DejaVuSerif-62" d="M 738 331 
L 738 4531 
L 184 4531 
L 184 4863 
L 1313 4863 
L 1313 2803 
Q 1481 3116 1742 3264 
Q 2003 3413 2388 3413 
Q 3000 3413 3387 2928 
Q 3775 2444 3775 1663 
Q 3775 881 3387 395 
Q 3000 -91 2388 -91 
Q 2003 -91 1742 57 
Q 1481 206 1313 519 
L 1313 0 
L 184 0 
L 184 331 
L 738 331 
z
M 1313 1497 
Q 1313 897 1542 583 
Q 1772 269 2209 269 
Q 2650 269 2876 622 
Q 3103 975 3103 1663 
Q 3103 2353 2876 2703 
Q 2650 3053 2209 3053 
Q 1772 3053 1542 2737 
Q 1313 2422 1313 1825 
L 1313 1497 
z
" transform="scale(0.015625)"/>
      </defs>
      <use xlink:href="#DejaVuSerif-51"/>
      <use xlink:href="#DejaVuSerif-75" x="81.982422"/>
      <use xlink:href="#DejaVuSerif-65" x="146.386719"/>
      <use xlink:href="#DejaVuSerif-62" x="205.566406"/>
      <use xlink:href="#DejaVuSerif-65" x="269.580078"/>
      <use xlink:href="#DejaVuSerif-63" x="328.759766"/>
     </g>
    </g>
   </g>
  </g>
  <g id="axes_2">
   <g id="patch_14">
    <path d="M 54 320.4 
L 54 43.2 
" style="fill: none; stroke: #030303; stroke-width: 1.5; stroke-linejoin: miter; stroke-linecap: square"/>
   </g>
   <g id="patch_15">
    <path d="M 54 320.4 
L 388.8 320.4 
" style="fill: none; stroke: #030303; stroke-width: 1.5; stroke-linejoin: miter; stroke-linecap: square"/>
   </g>
   <g id="PathCollection_1">
    <defs>
     <path id="C0_0_9941501dca" d="M 0 2.5 
C 0.663008 2.5 1.29895 2.236584 1.767767 1.767767 
C 2.236584 1.29895 2.5 0.663008 2.5 -0 
C 2.5 -0.663008 2.236584 -1.29895 1.767767 -1.767767 
C 1.29895 -2.236584 0.663008 -2.5 0 -2.5 
C -0.663008 -2.5 -1.29895 -2.236584 -1.767767 -1.767767 
C -2.236584 -1.29895 -2.5 -0.663008 -2.5 0 
C -2.5 0.663008 -2.236584 1.29895 -1.767767 1.767767 
C -1.29895 2.236584 -0.663008 2.5 0 2.5 
z
"/>
    </defs>
    <g clip-path="url(#p0de5fc3609)">
     <use xlink:href="#C0_0_9941501dca" x="104.22" y="289.133333" style="fill: #4682b4; fill-opacity: 0.5"/>
    </g>
    <g clip-path="url(#p0de5fc3609)">
     <use xlink:href="#C0_0_9941501dca" x="106.248311" y="259.8" style="fill: #4682b4; fill-opacity: 0.5"/>
    </g>
    <g clip-path="url(#p0de5fc3609)">
     <use xlink:href="#C0_0_9941501dca" x="114.529891" y="238.466667" style="fill: #4682b4; fill-opacity: 0.5"/>
    </g>
    <g clip-path="url(#p0de5fc3609)">
     <use xlink:href="#C0_0_9941501dca" x="104.22" y="233.133333" style="fill: #4682b4; fill-opacity: 0.5"/>
    </g>
    <g clip-path="url(#p0de5fc3609)">
     <use xlink:href="#C0_0_9941501dca" x="107.37" y="229.133333" style="fill: #4682b4; fill-opacity: 0.5"/>
    </g>
    <g clip-path="url(#p0de5fc3609)">
     <use xlink:href="#C0_0_9941501dca" x="99.408296" y="211.133333" style="fill: #4682b4; fill-opacity: 0.5"/>
    </g>
    <g clip-path="url(#p0de5fc3609)">
     <use xlink:href="#C0_0_9941501dca" x="104.22" y="213.133333" style="fill: #4682b4; fill-opacity: 0.5"/>
    </g>
    <g clip-path="url(#p0de5fc3609)">
     <use xlink:href="#C0_0_9941501dca" x="104.22" y="307.8" style="fill: #4682b4; fill-opacity: 0.5"/>
    </g>
    <g clip-path="url(#p0de5fc3609)">
     <use xlink:href="#C0_0_9941501dca" x="104.22" y="283.133333" style="fill: #4682b4; fill-opacity: 0.5"/>
    </g>
    <g clip-path="url(#p0de5fc3609)">
     <use xlink:href="#C0_0_9941501dca" x="104.22" y="277.133333" style="fill: #4682b4; fill-opacity: 0.5"/>
    </g>
    <g clip-path="url(#p0de5fc3609)">
     <use xlink:href="#C0_0_9941501dca" x="106.104808" y="272.466667" style="fill: #4682b4; fill-opacity: 0.5"/>
    </g>
    <g clip-path="url(#p0de5fc3609)">
     <use xlink:href="#C0_0_9941501dca" x="99.160109" y="275.8" style="fill: #4682b4; fill-opacity: 0.5"/>
    </g>
    <g clip-path="url(#p0de5fc3609)">
     <use xlink:href="#C0_0_9941501dca" x="104.22" y="267.8" style="fill: #4682b4; fill-opacity: 0.5"/>
    </g>
    <g clip-path="url(#p0de5fc3609)">
     <use xlink:href="#C0_0_9941501dca" x="102.335192" y="263.133333" style="fill: #4682b4; fill-opacity: 0.5"/>
    </g>
    <g clip-path="url(#p0de5fc3609)">
     <use xlink:href="#C0_0_9941501dca" x="99.016876" y="288.466667" style="fill: #4682b4; fill-opacity: 0.5"/>
    </g>
    <g clip-path="url(#p0de5fc3609)">
     <use xlink:href="#C0_0_9941501dca" x="93.766876" y="239.133333" style="fill: #4682b4; fill-opacity: 0.5"/>
    </g>
    <g clip-path="url(#p0de5fc3609)">
     <use xlink:href="#C0_0_9941501dca" x="104.22" y="239.8" style="fill: #4682b4; fill-opacity: 0.5"/>
    </g>
    <g clip-path="url(#p0de5fc3609)">
     <use xlink:href="#C0_0_9941501dca" x="98.97" y="239.8" style="fill: #4682b4; fill-opacity: 0.5"/>
    </g>
    <g clip-path="url(#p0de5fc3609)">
     <use xlink:href="#C0_0_9941501dca" x="109.47" y="239.8" style="fill: #4682b4; fill-opacity: 0.5"/>
    </g>
    <g clip-path="url(#p0de5fc3609)">
     <use xlink:href="#C0_0_9941501dca" x="98.97" y="233.133333" style="fill: #4682b4; fill-opacity: 0.5"/>
    </g>
    <g clip-path="url(#p0de5fc3609)">
     <use xlink:href="#C0_0_9941501dca" x="102.928998" y="226.466667" style="fill: #4682b4; fill-opacity: 0.5"/>
    </g>
   </g>
   <g id="PathCollection_2">
    <defs>
     <path id="C1_0_5a84f19b8c" d="M 0 2.5 
C 0.663008 2.5 1.29895 2.236584 1.767767 1.767767 
C 2.236584 1.29895 2.5 0.663008 2.5 -0 
C 2.5 -0.663008 2.236584 -1.29895 1.767767 -1.767767 
C 1.29895 -2.236584 0.663008 -2.5 0 -2.5 
C -0.663008 -2.5 -1.29895 -2.236584 -1.767767 -1.767767 
C -2.236584 -1.29895 -2.5 -0.663008 -2.5 0 
C -2.5 0.663008 -2.236584 1.29895 -1.767767 1.767767 
C -1.29895 2.236584 -0.663008 2.5 0 2.5 
z
"/>
    </defs>
    <g clip-path="url(#p0de5fc3609)">
     <use xlink:href="#C1_0_5a84f19b8c" x="171.18" y="264.466667" style="fill: #f79a52; fill-opacity: 0.5"/>
    </g>
    <g clip-path="url(#p0de5fc3609)">
     <use xlink:href="#C1_0_5a84f19b8c" x="171.18" y="198.466667" style="fill: #f79a52; fill-opacity: 0.5"/>
    </g>
    <g clip-path="url(#p0de5fc3609)">
     <use xlink:href="#C1_0_5a84f19b8c" x="171.18" y="157.133333" style="fill: #f79a52; fill-opacity: 0.5"/>
    </g>
    <g clip-path="url(#p0de5fc3609)">
     <use xlink:href="#C1_0_5a84f19b8c" x="168.03" y="128.466667" style="fill: #f79a52; fill-opacity: 0.5"/>
    </g>
    <g clip-path="url(#p0de5fc3609)">
     <use xlink:href="#C1_0_5a84f19b8c" x="171.18" y="142.466667" style="fill: #f79a52; fill-opacity: 0.5"/>
    </g>
    <g clip-path="url(#p0de5fc3609)">
     <use xlink:href="#C1_0_5a84f19b8c" x="168.03" y="123.133333" style="fill: #f79a52; fill-opacity: 0.5"/>
    </g>
    <g clip-path="url(#p0de5fc3609)">
     <use xlink:href="#C1_0_5a84f19b8c" x="177.146243" y="101.133333" style="fill: #f79a52; fill-opacity: 0.5"/>
    </g>
    <g clip-path="url(#p0de5fc3609)">
     <use xlink:href="#C1_0_5a84f19b8c" x="171.18" y="297.133333" style="fill: #f79a52; fill-opacity: 0.5"/>
    </g>
    <g clip-path="url(#p0de5fc3609)">
     <use xlink:href="#C1_0_5a84f19b8c" x="171.18" y="177.133333" style="fill: #f79a52; fill-opacity: 0.5"/>
    </g>
    <g clip-path="url(#p0de5fc3609)">
     <use xlink:href="#C1_0_5a84f19b8c" x="172.471002" y="125.8" style="fill: #f79a52; fill-opacity: 0.5"/>
    </g>
    <g clip-path="url(#p0de5fc3609)">
     <use xlink:href="#C1_0_5a84f19b8c" x="166.145192" y="100.466667" style="fill: #f79a52; fill-opacity: 0.5"/>
    </g>
    <g clip-path="url(#p0de5fc3609)">
     <use xlink:href="#C1_0_5a84f19b8c" x="171.943119" y="101.8" style="fill: #f79a52; fill-opacity: 0.5"/>
    </g>
    <g clip-path="url(#p0de5fc3609)">
     <use xlink:href="#C1_0_5a84f19b8c" x="171.18" y="109.133333" style="fill: #f79a52; fill-opacity: 0.5"/>
    </g>
    <g clip-path="url(#p0de5fc3609)">
     <use xlink:href="#C1_0_5a84f19b8c" x="171.18" y="76.466667" style="fill: #f79a52; fill-opacity: 0.5"/>
    </g>
    <g clip-path="url(#p0de5fc3609)">
     <use xlink:href="#C1_0_5a84f19b8c" x="171.18" y="258.466667" style="fill: #f79a52; fill-opacity: 0.5"/>
    </g>
    <g clip-path="url(#p0de5fc3609)">
     <use xlink:href="#C1_0_5a84f19b8c" x="171.18" y="219.133333" style="fill: #f79a52; fill-opacity: 0.5"/>
    </g>
    <g clip-path="url(#p0de5fc3609)">
     <use xlink:href="#C1_0_5a84f19b8c" x="168.03" y="105.133333" style="fill: #f79a52; fill-opacity: 0.5"/>
    </g>
    <g clip-path="url(#p0de5fc3609)">
     <use xlink:href="#C1_0_5a84f19b8c" x="171.18" y="132.466667" style="fill: #f79a52; fill-opacity: 0.5"/>
    </g>
    <g clip-path="url(#p0de5fc3609)">
     <use xlink:href="#C1_0_5a84f19b8c" x="160.942068" y="99.8" style="fill: #f79a52; fill-opacity: 0.5"/>
    </g>
    <g clip-path="url(#p0de5fc3609)">
     <use xlink:href="#C1_0_5a84f19b8c" x="171.18" y="95.133333" style="fill: #f79a52; fill-opacity: 0.5"/>
    </g>
    <g clip-path="url(#p0de5fc3609)">
     <use xlink:href="#C1_0_5a84f19b8c" x="171.18" y="83.133333" style="fill: #f79a52; fill-opacity: 0.5"/>
    </g>
   </g>
   <g id="PathCollection_3">
    <defs>
     <path id="C2_0_7c6fe19be8" d="M 0 2.5 
C 0.663008 2.5 1.29895 2.236584 1.767767 1.767767 
C 2.236584 1.29895 2.5 0.663008 2.5 -0 
C 2.5 -0.663008 2.236584 -1.29895 1.767767 -1.767767 
C 1.29895 -2.236584 0.663008 -2.5 0 -2.5 
C -0.663008 -2.5 -1.29895 -2.236584 -1.767767 -1.767767 
C -2.236584 -1.29895 -2.5 -0.663008 -2.5 0 
C -2.5 0.663008 -2.236584 1.29895 -1.767767 1.767767 
C -1.29895 2.236584 -0.663008 2.5 0 2.5 
z
"/>
    </defs>
    <g clip-path="url(#p0de5fc3609)">
     <use xlink:href="#C2_0_7c6fe19be8" x="271.62" y="288.466667" style="fill: #4682b4; fill-opacity: 0.5"/>
    </g>
    <g clip-path="url(#p0de5fc3609)">
     <use xlink:href="#C2_0_7c6fe19be8" x="271.62" y="231.133333" style="fill: #4682b4; fill-opacity: 0.5"/>
    </g>
    <g clip-path="url(#p0de5fc3609)">
     <use xlink:href="#C2_0_7c6fe19be8" x="267.178998" y="184.466667" style="fill: #4682b4; fill-opacity: 0.5"/>
    </g>
    <g clip-path="url(#p0de5fc3609)">
     <use xlink:href="#C2_0_7c6fe19be8" x="271.62" y="159.133333" style="fill: #4682b4; fill-opacity: 0.5"/>
    </g>
    <g clip-path="url(#p0de5fc3609)">
     <use xlink:href="#C2_0_7c6fe19be8" x="273.281704" y="153.133333" style="fill: #4682b4; fill-opacity: 0.5"/>
    </g>
    <g clip-path="url(#p0de5fc3609)">
     <use xlink:href="#C2_0_7c6fe19be8" x="266.37" y="143.133333" style="fill: #4682b4; fill-opacity: 0.5"/>
    </g>
    <g clip-path="url(#p0de5fc3609)">
     <use xlink:href="#C2_0_7c6fe19be8" x="271.62" y="122.466667" style="fill: #4682b4; fill-opacity: 0.5"/>
    </g>
    <g clip-path="url(#p0de5fc3609)">
     <use xlink:href="#C2_0_7c6fe19be8" x="271.62" y="279.133333" style="fill: #4682b4; fill-opacity: 0.5"/>
    </g>
    <g clip-path="url(#p0de5fc3609)">
     <use xlink:href="#C2_0_7c6fe19be8" x="271.62" y="212.466667" style="fill: #4682b4; fill-opacity: 0.5"/>
    </g>
    <g clip-path="url(#p0de5fc3609)">
     <use xlink:href="#C2_0_7c6fe19be8" x="268.47" y="155.133333" style="fill: #4682b4; fill-opacity: 0.5"/>
    </g>
    <g clip-path="url(#p0de5fc3609)">
     <use xlink:href="#C2_0_7c6fe19be8" x="274.943409" y="147.133333" style="fill: #4682b4; fill-opacity: 0.5"/>
    </g>
    <g clip-path="url(#p0de5fc3609)">
     <use xlink:href="#C2_0_7c6fe19be8" x="271.62" y="143.133333" style="fill: #4682b4; fill-opacity: 0.5"/>
    </g>
    <g clip-path="url(#p0de5fc3609)">
     <use xlink:href="#C2_0_7c6fe19be8" x="278.341596" y="151.8" style="fill: #4682b4; fill-opacity: 0.5"/>
    </g>
    <g clip-path="url(#p0de5fc3609)">
     <use xlink:href="#C2_0_7c6fe19be8" x="270.131704" y="149.133333" style="fill: #4682b4; fill-opacity: 0.5"/>
    </g>
    <g clip-path="url(#p0de5fc3609)">
     <use xlink:href="#C2_0_7c6fe19be8" x="269.735192" y="283.8" style="fill: #4682b4; fill-opacity: 0.5"/>
    </g>
    <g clip-path="url(#p0de5fc3609)">
     <use xlink:href="#C2_0_7c6fe19be8" x="266.560109" y="229.8" style="fill: #4682b4; fill-opacity: 0.5"/>
    </g>
    <g clip-path="url(#p0de5fc3609)">
     <use xlink:href="#C2_0_7c6fe19be8" x="271.62" y="187.133333" style="fill: #4682b4; fill-opacity: 0.5"/>
    </g>
    <g clip-path="url(#p0de5fc3609)">
     <use xlink:href="#C2_0_7c6fe19be8" x="266.416876" y="173.133333" style="fill: #4682b4; fill-opacity: 0.5"/>
    </g>
    <g clip-path="url(#p0de5fc3609)">
     <use xlink:href="#C2_0_7c6fe19be8" x="269.735192" y="169.133333" style="fill: #4682b4; fill-opacity: 0.5"/>
    </g>
    <g clip-path="url(#p0de5fc3609)">
     <use xlink:href="#C2_0_7c6fe19be8" x="276.431704" y="171.8" style="fill: #4682b4; fill-opacity: 0.5"/>
    </g>
    <g clip-path="url(#p0de5fc3609)">
     <use xlink:href="#C2_0_7c6fe19be8" x="271.62" y="173.8" style="fill: #4682b4; fill-opacity: 0.5"/>
    </g>
   </g>
   <g id="PathCollection_4">
    <defs>
     <path id="C3_0_f75ff72d12" d="M 0 2.5 
C 0.663008 2.5 1.29895 2.236584 1.767767 1.767767 
C 2.236584 1.29895 2.5 0.663008 2.5 -0 
C 2.5 -0.663008 2.236584 -1.29895 1.767767 -1.767767 
C 1.29895 -2.236584 0.663008 -2.5 0 -2.5 
C -0.663008 -2.5 -1.29895 -2.236584 -1.767767 -1.767767 
C -2.236584 -1.29895 -2.5 -0.663008 -2.5 0 
C -2.5 0.663008 -2.236584 1.29895 -1.767767 1.767767 
C -1.29895 2.236584 -0.663008 2.5 0 2.5 
z
"/>
    </defs>
    <g clip-path="url(#p0de5fc3609)">
     <use xlink:href="#C3_0_f75ff72d12" x="338.58" y="252.466667" style="fill: #f79a52; fill-opacity: 0.5"/>
    </g>
    <g clip-path="url(#p0de5fc3609)">
     <use xlink:href="#C3_0_f75ff72d12" x="338.58" y="156.466667" style="fill: #f79a52; fill-opacity: 0.5"/>
    </g>
    <g clip-path="url(#p0de5fc3609)">
     <use xlink:href="#C3_0_f75ff72d12" x="338.58" y="127.133333" style="fill: #f79a52; fill-opacity: 0.5"/>
    </g>
    <g clip-path="url(#p0de5fc3609)">
     <use xlink:href="#C3_0_f75ff72d12" x="333.376876" y="111.133333" style="fill: #f79a52; fill-opacity: 0.5"/>
    </g>
    <g clip-path="url(#p0de5fc3609)">
     <use xlink:href="#C3_0_f75ff72d12" x="334.666881" y="123.8" style="fill: #f79a52; fill-opacity: 0.5"/>
    </g>
    <g clip-path="url(#p0de5fc3609)">
     <use xlink:href="#C3_0_f75ff72d12" x="338.58" y="97.8" style="fill: #f79a52; fill-opacity: 0.5"/>
    </g>
    <g clip-path="url(#p0de5fc3609)">
     <use xlink:href="#C3_0_f75ff72d12" x="334.666881" y="94.466667" style="fill: #f79a52; fill-opacity: 0.5"/>
    </g>
    <g clip-path="url(#p0de5fc3609)">
     <use xlink:href="#C3_0_f75ff72d12" x="338.58" y="268.466667" style="fill: #f79a52; fill-opacity: 0.5"/>
    </g>
    <g clip-path="url(#p0de5fc3609)">
     <use xlink:href="#C3_0_f75ff72d12" x="338.58" y="177.133333" style="fill: #f79a52; fill-opacity: 0.5"/>
    </g>
    <g clip-path="url(#p0de5fc3609)">
     <use xlink:href="#C3_0_f75ff72d12" x="338.58" y="111.8" style="fill: #f79a52; fill-opacity: 0.5"/>
    </g>
    <g clip-path="url(#p0de5fc3609)">
     <use xlink:href="#C3_0_f75ff72d12" x="334.138998" y="80.466667" style="fill: #f79a52; fill-opacity: 0.5"/>
    </g>
    <g clip-path="url(#p0de5fc3609)">
     <use xlink:href="#C3_0_f75ff72d12" x="333.768296" y="88.466667" style="fill: #f79a52; fill-opacity: 0.5"/>
    </g>
    <g clip-path="url(#p0de5fc3609)">
     <use xlink:href="#C3_0_f75ff72d12" x="338.58" y="83.133333" style="fill: #f79a52; fill-opacity: 0.5"/>
    </g>
    <g clip-path="url(#p0de5fc3609)">
     <use xlink:href="#C3_0_f75ff72d12" x="334.138998" y="63.8" style="fill: #f79a52; fill-opacity: 0.5"/>
    </g>
    <g clip-path="url(#p0de5fc3609)">
     <use xlink:href="#C3_0_f75ff72d12" x="333.520109" y="251.133333" style="fill: #f79a52; fill-opacity: 0.5"/>
    </g>
    <g clip-path="url(#p0de5fc3609)">
     <use xlink:href="#C3_0_f75ff72d12" x="338.58" y="143.133333" style="fill: #f79a52; fill-opacity: 0.5"/>
    </g>
    <g clip-path="url(#p0de5fc3609)">
     <use xlink:href="#C3_0_f75ff72d12" x="338.58" y="90.466667" style="fill: #f79a52; fill-opacity: 0.5"/>
    </g>
    <g clip-path="url(#p0de5fc3609)">
     <use xlink:href="#C3_0_f75ff72d12" x="340.464808" y="78.466667" style="fill: #f79a52; fill-opacity: 0.5"/>
    </g>
    <g clip-path="url(#p0de5fc3609)">
     <use xlink:href="#C3_0_f75ff72d12" x="338.58" y="73.133333" style="fill: #f79a52; fill-opacity: 0.5"/>
    </g>
    <g clip-path="url(#p0de5fc3609)">
     <use xlink:href="#C3_0_f75ff72d12" x="338.58" y="66.466667" style="fill: #f79a52; fill-opacity: 0.5"/>
    </g>
    <g clip-path="url(#p0de5fc3609)">
     <use xlink:href="#C3_0_f75ff72d12" x="338.58" y="55.8" style="fill: #f79a52; fill-opacity: 0.5"/>
    </g>
   </g>
  </g>
 </g>
 <defs>
  <clipPath id="p0de5fc3609">
   <rect x="54" y="43.2" width="334.8" height="277.2"/>
  </clipPath>
 </defs>
</svg>
