<?xml version="1.0" encoding="utf-8" standalone="no"?>
<!DOCTYPE svg PUBLIC "-//W3C//DTD SVG 1.1//EN"
  "http://www.w3.org/Graphics/SVG/1.1/DTD/svg11.dtd">
<svg xmlns:xlink="http://www.w3.org/1999/xlink" width="641.729244pt" height="388.269625pt" viewBox="0 0 641.729244 388.269625" xmlns="http://www.w3.org/2000/svg" version="1.1">
 <metadata>
  <rdf:RDF xmlns:dc="http://purl.org/dc/elements/1.1/" xmlns:cc="http://creativecommons.org/ns#" xmlns:rdf="http://www.w3.org/1999/02/22-rdf-syntax-ns#">
   <cc:Work>
    <dc:type rdf:resource="http://purl.org/dc/dcmitype/StillImage"/>
    <dc:date>2025-03-11T14:49:53.175911</dc:date>
    <dc:format>image/svg+xml</dc:format>
    <dc:creator>
     <cc:Agent>
      <dc:title>Matplotlib v3.10.0, https://matplotlib.org/</dc:title>
     </cc:Agent>
    </dc:creator>
   </cc:Work>
  </rdf:RDF>
 </metadata>
 <defs>
  <style type="text/css">*{stroke-linejoin: round; stroke-linecap: butt}</style>
 </defs>
 <g id="figure_1">
  <g id="patch_1">
   <path d="M 0 388.269625 
L 641.729244 388.269625 
L 641.729244 0 
L 0 0 
L 0 388.269625 
z
" style="fill: none"/>
  </g>
  <g id="axes_1">
   <g id="patch_2">
    <path d="M 66.35625 333.29275 
L 619.62548 333.29275 
L 619.62548 43.5015 
L 66.35625 43.5015 
L 66.35625 333.29275 
z
" style="fill: none"/>
   </g>
   <g id="matplotlib.axis_1">
    <g id="xtick_1">
     <g id="line2d_1">
      <path d="M 68.642486 333.29275 
L 68.642486 43.5015 
" clip-path="url(#p5ebeedc9bd)" style="fill: none; stroke: #a6a6a6; stroke-opacity: 0.3; stroke-width: 0.8; stroke-linecap: square"/>
     </g>
     <g id="line2d_2">
      <defs>
       <path id="mb39d9d5e0a" d="M 0 0 
L 0 3.5 
" style="stroke: #030303; stroke-width: 0.8"/>
      </defs>
      <g>
       <use xlink:href="#mb39d9d5e0a" x="68.642486" y="333.29275" style="fill: #030303; stroke: #030303; stroke-width: 0.8"/>
      </g>
     </g>
     <g id="text_1">
      <!-- $\mathdefault{0}$ -->
      <g style="fill: #030303" transform="translate(62.882486 353.969938) scale(0.18 -0.18)">
       <defs>
        <path id="DejaVuSerif-30" d="M 2034 219 
Q 2513 219 2750 744 
Q 2988 1269 2988 2328 
Q 2988 3391 2750 3916 
Q 2513 4441 2034 4441 
Q 1556 4441 1318 3916 
Q 1081 3391 1081 2328 
Q 1081 1269 1318 744 
Q 1556 219 2034 219 
z
M 2034 -91 
Q 1275 -91 848 546 
Q 422 1184 422 2328 
Q 422 3475 848 4112 
Q 1275 4750 2034 4750 
Q 2797 4750 3222 4112 
Q 3647 3475 3647 2328 
Q 3647 1184 3222 546 
Q 2797 -91 2034 -91 
z
" transform="scale(0.015625)"/>
       </defs>
       <use xlink:href="#DejaVuSerif-30" transform="translate(0 0.78125)"/>
      </g>
     </g>
    </g>
    <g id="xtick_2">
     <g id="line2d_3">
      <path d="M 160.091946 333.29275 
L 160.091946 43.5015 
" clip-path="url(#p5ebeedc9bd)" style="fill: none; stroke: #a6a6a6; stroke-opacity: 0.3; stroke-width: 0.8; stroke-linecap: square"/>
     </g>
     <g id="line2d_4">
      <g>
       <use xlink:href="#mb39d9d5e0a" x="160.091946" y="333.29275" style="fill: #030303; stroke: #030303; stroke-width: 0.8"/>
      </g>
     </g>
     <g id="text_2">
      <!-- $\mathdefault{20}$ -->
      <g style="fill: #030303" transform="translate(148.571946 353.969938) scale(0.18 -0.18)">
       <defs>
        <path id="DejaVuSerif-32" d="M 819 3553 
L 469 3553 
L 469 4384 
Q 803 4563 1142 4656 
Q 1481 4750 1806 4750 
Q 2534 4750 2956 4397 
Q 3378 4044 3378 3438 
Q 3378 2753 2422 1800 
Q 2347 1728 2309 1691 
L 1131 513 
L 3078 513 
L 3078 1088 
L 3444 1088 
L 3444 0 
L 434 0 
L 434 341 
L 1850 1753 
Q 2319 2222 2519 2614 
Q 2719 3006 2719 3438 
Q 2719 3909 2473 4175 
Q 2228 4441 1797 4441 
Q 1350 4441 1106 4219 
Q 863 3997 819 3553 
z
" transform="scale(0.015625)"/>
       </defs>
       <use xlink:href="#DejaVuSerif-32" transform="translate(0 0.78125)"/>
       <use xlink:href="#DejaVuSerif-30" transform="translate(63.623047 0.78125)"/>
      </g>
     </g>
    </g>
    <g id="xtick_3">
     <g id="line2d_5">
      <path d="M 251.541406 333.29275 
L 251.541406 43.5015 
" clip-path="url(#p5ebeedc9bd)" style="fill: none; stroke: #a6a6a6; stroke-opacity: 0.3; stroke-width: 0.8; stroke-linecap: square"/>
     </g>
     <g id="line2d_6">
      <g>
       <use xlink:href="#mb39d9d5e0a" x="251.541406" y="333.29275" style="fill: #030303; stroke: #030303; stroke-width: 0.8"/>
      </g>
     </g>
     <g id="text_3">
      <!-- $\mathdefault{40}$ -->
      <g style="fill: #030303" transform="translate(240.021406 353.969938) scale(0.18 -0.18)">
       <defs>
        <path id="DejaVuSerif-34" d="M 2234 1581 
L 2234 4063 
L 641 1581 
L 2234 1581 
z
M 3609 0 
L 1484 0 
L 1484 331 
L 2234 331 
L 2234 1247 
L 197 1247 
L 197 1588 
L 2241 4750 
L 2859 4750 
L 2859 1581 
L 3750 1581 
L 3750 1247 
L 2859 1247 
L 2859 331 
L 3609 331 
L 3609 0 
z
" transform="scale(0.015625)"/>
       </defs>
       <use xlink:href="#DejaVuSerif-34" transform="translate(0 0.78125)"/>
       <use xlink:href="#DejaVuSerif-30" transform="translate(63.623047 0.78125)"/>
      </g>
     </g>
    </g>
    <g id="xtick_4">
     <g id="line2d_7">
      <path d="M 342.990865 333.29275 
L 342.990865 43.5015 
" clip-path="url(#p5ebeedc9bd)" style="fill: none; stroke: #a6a6a6; stroke-opacity: 0.3; stroke-width: 0.8; stroke-linecap: square"/>
     </g>
     <g id="line2d_8">
      <g>
       <use xlink:href="#mb39d9d5e0a" x="342.990865" y="333.29275" style="fill: #030303; stroke: #030303; stroke-width: 0.8"/>
      </g>
     </g>
     <g id="text_4">
      <!-- $\mathdefault{60}$ -->
      <g style="fill: #030303" transform="translate(331.470865 353.969938) scale(0.18 -0.18)">
       <defs>
        <path id="DejaVuSerif-36" d="M 2094 219 
Q 2534 219 2771 542 
Q 3009 866 3009 1472 
Q 3009 2078 2771 2401 
Q 2534 2725 2094 2725 
Q 1647 2725 1412 2412 
Q 1178 2100 1178 1509 
Q 1178 888 1415 553 
Q 1653 219 2094 219 
z
M 1075 2569 
Q 1288 2803 1556 2918 
Q 1825 3034 2163 3034 
Q 2859 3034 3264 2615 
Q 3669 2197 3669 1472 
Q 3669 763 3233 336 
Q 2797 -91 2069 -91 
Q 1278 -91 853 498 
Q 428 1088 428 2181 
Q 428 3406 931 4078 
Q 1434 4750 2350 4750 
Q 2597 4750 2869 4703 
Q 3141 4656 3425 4563 
L 3425 3794 
L 3072 3794 
Q 3034 4109 2831 4275 
Q 2628 4441 2284 4441 
Q 1678 4441 1381 3981 
Q 1084 3522 1075 2569 
z
" transform="scale(0.015625)"/>
       </defs>
       <use xlink:href="#DejaVuSerif-36" transform="translate(0 0.78125)"/>
       <use xlink:href="#DejaVuSerif-30" transform="translate(63.623047 0.78125)"/>
      </g>
     </g>
    </g>
    <g id="xtick_5">
     <g id="line2d_9">
      <path d="M 434.440325 333.29275 
L 434.440325 43.5015 
" clip-path="url(#p5ebeedc9bd)" style="fill: none; stroke: #a6a6a6; stroke-opacity: 0.3; stroke-width: 0.8; stroke-linecap: square"/>
     </g>
     <g id="line2d_10">
      <g>
       <use xlink:href="#mb39d9d5e0a" x="434.440325" y="333.29275" style="fill: #030303; stroke: #030303; stroke-width: 0.8"/>
      </g>
     </g>
     <g id="text_5">
      <!-- $\mathdefault{80}$ -->
      <g style="fill: #030303" transform="translate(422.920325 353.969938) scale(0.18 -0.18)">
       <defs>
        <path id="DejaVuSerif-38" d="M 2981 1275 
Q 2981 1775 2732 2051 
Q 2484 2328 2034 2328 
Q 1584 2328 1336 2051 
Q 1088 1775 1088 1275 
Q 1088 772 1336 495 
Q 1584 219 2034 219 
Q 2484 219 2732 495 
Q 2981 772 2981 1275 
z
M 2853 3541 
Q 2853 3966 2637 4203 
Q 2422 4441 2034 4441 
Q 1650 4441 1433 4203 
Q 1216 3966 1216 3541 
Q 1216 3113 1433 2875 
Q 1650 2638 2034 2638 
Q 2422 2638 2637 2875 
Q 2853 3113 2853 3541 
z
M 2516 2484 
Q 3047 2413 3344 2092 
Q 3641 1772 3641 1275 
Q 3641 619 3225 264 
Q 2809 -91 2034 -91 
Q 1263 -91 845 264 
Q 428 619 428 1275 
Q 428 1772 725 2092 
Q 1022 2413 1556 2484 
Q 1084 2569 832 2842 
Q 581 3116 581 3541 
Q 581 4103 968 4426 
Q 1356 4750 2034 4750 
Q 2713 4750 3100 4426 
Q 3488 4103 3488 3541 
Q 3488 3116 3236 2842 
Q 2984 2569 2516 2484 
z
" transform="scale(0.015625)"/>
       </defs>
       <use xlink:href="#DejaVuSerif-38" transform="translate(0 0.78125)"/>
       <use xlink:href="#DejaVuSerif-30" transform="translate(63.623047 0.78125)"/>
      </g>
     </g>
    </g>
    <g id="xtick_6">
     <g id="line2d_11">
      <path d="M 525.889784 333.29275 
L 525.889784 43.5015 
" clip-path="url(#p5ebeedc9bd)" style="fill: none; stroke: #a6a6a6; stroke-opacity: 0.3; stroke-width: 0.8; stroke-linecap: square"/>
     </g>
     <g id="line2d_12">
      <g>
       <use xlink:href="#mb39d9d5e0a" x="525.889784" y="333.29275" style="fill: #030303; stroke: #030303; stroke-width: 0.8"/>
      </g>
     </g>
     <g id="text_6">
      <!-- $\mathdefault{100}$ -->
      <g style="fill: #030303" transform="translate(508.699784 353.969938) scale(0.18 -0.18)">
       <defs>
        <path id="DejaVuSerif-31" d="M 909 0 
L 909 331 
L 1722 331 
L 1722 4213 
L 781 3603 
L 781 4013 
L 1919 4750 
L 2350 4750 
L 2350 331 
L 3163 331 
L 3163 0 
L 909 0 
z
" transform="scale(0.015625)"/>
       </defs>
       <use xlink:href="#DejaVuSerif-31" transform="translate(0 0.78125)"/>
       <use xlink:href="#DejaVuSerif-30" transform="translate(63.623047 0.78125)"/>
       <use xlink:href="#DejaVuSerif-30" transform="translate(127.246094 0.78125)"/>
      </g>
     </g>
    </g>
    <g id="xtick_7">
     <g id="line2d_13">
      <path d="M 617.339244 333.29275 
L 617.339244 43.5015 
" clip-path="url(#p5ebeedc9bd)" style="fill: none; stroke: #a6a6a6; stroke-opacity: 0.3; stroke-width: 0.8; stroke-linecap: square"/>
     </g>
     <g id="line2d_14">
      <g>
       <use xlink:href="#mb39d9d5e0a" x="617.339244" y="333.29275" style="fill: #030303; stroke: #030303; stroke-width: 0.8"/>
      </g>
     </g>
     <g id="text_7">
      <!-- $\mathdefault{120}$ -->
      <g style="fill: #030303" transform="translate(600.149244 353.969938) scale(0.18 -0.18)">
       <use xlink:href="#DejaVuSerif-31" transform="translate(0 0.78125)"/>
       <use xlink:href="#DejaVuSerif-32" transform="translate(63.623047 0.78125)"/>
       <use xlink:href="#DejaVuSerif-30" transform="translate(127.246094 0.78125)"/>
      </g>
     </g>
    </g>
    <g id="text_8">
     <!-- Sample Size per Group (n) -->
     <g style="fill: #030303" transform="translate(208.253365 376.91025) scale(0.2 -0.2)">
      <defs>
       <path id="DejaVuSerif-53" d="M 594 225 
L 594 1288 
L 953 1284 
Q 969 753 1261 498 
Q 1553 244 2150 244 
Q 2706 244 2998 464 
Q 3291 684 3291 1106 
Q 3291 1444 3114 1625 
Q 2938 1806 2369 1978 
L 1753 2163 
Q 1084 2366 811 2669 
Q 538 2972 538 3500 
Q 538 4094 959 4422 
Q 1381 4750 2144 4750 
Q 2469 4750 2856 4679 
Q 3244 4609 3681 4475 
L 3681 3481 
L 3328 3481 
Q 3275 3975 2998 4195 
Q 2722 4416 2156 4416 
Q 1663 4416 1405 4214 
Q 1147 4013 1147 3628 
Q 1147 3294 1340 3103 
Q 1534 2913 2163 2725 
L 2741 2553 
Q 3375 2363 3645 2067 
Q 3916 1772 3916 1275 
Q 3916 597 3481 253 
Q 3047 -91 2188 -91 
Q 1803 -91 1404 -12 
Q 1006 66 594 225 
z
" transform="scale(0.015625)"/>
       <path id="DejaVuSerif-61" d="M 2547 1044 
L 2547 1747 
L 1806 1747 
Q 1378 1747 1168 1562 
Q 959 1378 959 997 
Q 959 650 1171 447 
Q 1384 244 1747 244 
Q 2106 244 2326 466 
Q 2547 688 2547 1044 
z
M 3122 2075 
L 3122 331 
L 3634 331 
L 3634 0 
L 2547 0 
L 2547 359 
Q 2356 128 2106 18 
Q 1856 -91 1522 -91 
Q 969 -91 644 203 
Q 319 497 319 997 
Q 319 1513 691 1797 
Q 1063 2081 1741 2081 
L 2547 2081 
L 2547 2309 
Q 2547 2688 2317 2895 
Q 2088 3103 1672 3103 
Q 1328 3103 1125 2947 
Q 922 2791 872 2484 
L 575 2484 
L 575 3156 
Q 875 3284 1158 3348 
Q 1441 3413 1709 3413 
Q 2400 3413 2761 3070 
Q 3122 2728 3122 2075 
z
" transform="scale(0.015625)"/>
       <path id="DejaVuSerif-6d" d="M 3316 2675 
Q 3481 3041 3739 3227 
Q 3997 3413 4341 3413 
Q 4863 3413 5119 3089 
Q 5375 2766 5375 2113 
L 5375 331 
L 5894 331 
L 5894 0 
L 4300 0 
L 4300 331 
L 4800 331 
L 4800 2047 
Q 4800 2556 4650 2772 
Q 4500 2988 4153 2988 
Q 3769 2988 3567 2697 
Q 3366 2406 3366 1850 
L 3366 331 
L 3866 331 
L 3866 0 
L 2291 0 
L 2291 331 
L 2791 331 
L 2791 2069 
Q 2791 2566 2641 2777 
Q 2491 2988 2144 2988 
Q 1759 2988 1557 2697 
Q 1356 2406 1356 1850 
L 1356 331 
L 1856 331 
L 1856 0 
L 263 0 
L 263 331 
L 781 331 
L 781 2994 
L 231 2994 
L 231 3322 
L 1356 3322 
L 1356 2731 
Q 1516 3063 1762 3238 
Q 2009 3413 2322 3413 
Q 2709 3413 2968 3220 
Q 3228 3028 3316 2675 
z
" transform="scale(0.015625)"/>
       <path id="DejaVuSerif-70" d="M 1313 1825 
L 1313 1497 
Q 1313 897 1542 583 
Q 1772 269 2209 269 
Q 2650 269 2876 622 
Q 3103 975 3103 1663 
Q 3103 2353 2876 2703 
Q 2650 3053 2209 3053 
Q 1772 3053 1542 2737 
Q 1313 2422 1313 1825 
z
M 738 2988 
L 184 2988 
L 184 3322 
L 1313 3322 
L 1313 2803 
Q 1481 3116 1742 3264 
Q 2003 3413 2388 3413 
Q 3000 3413 3387 2928 
Q 3775 2444 3775 1663 
Q 3775 881 3387 395 
Q 3000 -91 2388 -91 
Q 2003 -91 1742 57 
Q 1481 206 1313 519 
L 1313 -997 
L 1856 -997 
L 1856 -1331 
L 184 -1331 
L 184 -997 
L 738 -997 
L 738 2988 
z
" transform="scale(0.015625)"/>
       <path id="DejaVuSerif-6c" d="M 1313 331 
L 1856 331 
L 1856 0 
L 184 0 
L 184 331 
L 738 331 
L 738 4531 
L 184 4531 
L 184 4863 
L 1313 4863 
L 1313 331 
z
" transform="scale(0.015625)"/>
       <path id="DejaVuSerif-65" d="M 3469 1600 
L 991 1600 
L 991 1575 
Q 991 903 1244 561 
Q 1497 219 1991 219 
Q 2369 219 2611 417 
Q 2853 616 2950 1006 
L 3413 1006 
Q 3275 459 2904 184 
Q 2534 -91 1931 -91 
Q 1203 -91 761 389 
Q 319 869 319 1663 
Q 319 2450 753 2931 
Q 1188 3413 1894 3413 
Q 2647 3413 3050 2948 
Q 3453 2484 3469 1600 
z
M 2791 1931 
Q 2772 2513 2545 2808 
Q 2319 3103 1894 3103 
Q 1497 3103 1269 2806 
Q 1041 2509 991 1931 
L 2791 1931 
z
" transform="scale(0.015625)"/>
       <path id="DejaVuSerif-20" transform="scale(0.015625)"/>
       <path id="DejaVuSerif-69" d="M 622 4353 
Q 622 4497 726 4603 
Q 831 4709 978 4709 
Q 1122 4709 1226 4603 
Q 1331 4497 1331 4353 
Q 1331 4206 1228 4103 
Q 1125 4000 978 4000 
Q 831 4000 726 4103 
Q 622 4206 622 4353 
z
M 1356 331 
L 1900 331 
L 1900 0 
L 231 0 
L 231 331 
L 781 331 
L 781 2988 
L 231 2988 
L 231 3322 
L 1356 3322 
L 1356 331 
z
" transform="scale(0.015625)"/>
       <path id="DejaVuSerif-7a" d="M 256 0 
L 256 269 
L 2338 2988 
L 691 2988 
L 691 2413 
L 359 2413 
L 359 3322 
L 3078 3322 
L 3078 3053 
L 997 331 
L 2803 331 
L 2803 934 
L 3138 934 
L 3138 0 
L 256 0 
z
" transform="scale(0.015625)"/>
       <path id="DejaVuSerif-72" d="M 3059 3328 
L 3059 2497 
L 2728 2497 
Q 2713 2744 2591 2866 
Q 2469 2988 2234 2988 
Q 1809 2988 1582 2694 
Q 1356 2400 1356 1850 
L 1356 331 
L 2022 331 
L 2022 0 
L 263 0 
L 263 331 
L 781 331 
L 781 2994 
L 231 2994 
L 231 3322 
L 1356 3322 
L 1356 2731 
Q 1525 3078 1790 3245 
Q 2056 3413 2438 3413 
Q 2578 3413 2733 3391 
Q 2888 3369 3059 3328 
z
" transform="scale(0.015625)"/>
       <path id="DejaVuSerif-47" d="M 4097 3272 
Q 3988 3856 3641 4136 
Q 3294 4416 2675 4416 
Q 1869 4416 1472 3897 
Q 1075 3378 1075 2328 
Q 1075 1300 1484 772 
Q 1894 244 2688 244 
Q 3041 244 3362 331 
Q 3684 419 3975 594 
L 3975 1797 
L 3097 1797 
L 3097 2131 
L 4609 2131 
L 4609 391 
Q 4194 150 3714 29 
Q 3234 -91 2688 -91 
Q 1631 -91 995 570 
Q 359 1231 359 2328 
Q 359 3434 996 4092 
Q 1634 4750 2713 4750 
Q 3113 4750 3539 4658 
Q 3966 4566 4447 4378 
L 4447 3272 
L 4097 3272 
z
" transform="scale(0.015625)"/>
       <path id="DejaVuSerif-6f" d="M 1925 219 
Q 2388 219 2623 584 
Q 2859 950 2859 1663 
Q 2859 2375 2623 2739 
Q 2388 3103 1925 3103 
Q 1463 3103 1227 2739 
Q 991 2375 991 1663 
Q 991 950 1228 584 
Q 1466 219 1925 219 
z
M 1925 -91 
Q 1200 -91 759 389 
Q 319 869 319 1663 
Q 319 2456 758 2934 
Q 1197 3413 1925 3413 
Q 2653 3413 3092 2934 
Q 3531 2456 3531 1663 
Q 3531 869 3092 389 
Q 2653 -91 1925 -91 
z
" transform="scale(0.015625)"/>
       <path id="DejaVuSerif-75" d="M 2266 3322 
L 3341 3322 
L 3341 331 
L 3884 331 
L 3884 0 
L 2766 0 
L 2766 588 
Q 2606 256 2353 82 
Q 2100 -91 1766 -91 
Q 1213 -91 952 223 
Q 691 538 691 1209 
L 691 2988 
L 172 2988 
L 172 3322 
L 1269 3322 
L 1269 1388 
Q 1269 781 1417 556 
Q 1566 331 1947 331 
Q 2347 331 2556 625 
Q 2766 919 2766 1478 
L 2766 2988 
L 2266 2988 
L 2266 3322 
z
" transform="scale(0.015625)"/>
       <path id="DejaVuSerif-28" d="M 2041 -997 
Q 1281 -656 893 83 
Q 506 822 506 1931 
Q 506 3044 893 3783 
Q 1281 4522 2041 4863 
L 2041 4556 
Q 1559 4225 1350 3623 
Q 1141 3022 1141 1931 
Q 1141 844 1350 242 
Q 1559 -359 2041 -691 
L 2041 -997 
z
" transform="scale(0.015625)"/>
       <path id="DejaVuSerif-6e" d="M 263 0 
L 263 331 
L 781 331 
L 781 2988 
L 231 2988 
L 231 3322 
L 1356 3322 
L 1356 2731 
Q 1516 3069 1770 3241 
Q 2025 3413 2363 3413 
Q 2913 3413 3172 3097 
Q 3431 2781 3431 2113 
L 3431 331 
L 3944 331 
L 3944 0 
L 2356 0 
L 2356 331 
L 2853 331 
L 2853 1931 
Q 2853 2541 2703 2767 
Q 2553 2994 2175 2994 
Q 1775 2994 1565 2701 
Q 1356 2409 1356 1850 
L 1356 331 
L 1856 331 
L 1856 0 
L 263 0 
z
" transform="scale(0.015625)"/>
       <path id="DejaVuSerif-29" d="M 453 -997 
L 453 -691 
Q 934 -359 1145 242 
Q 1356 844 1356 1931 
Q 1356 3022 1145 3623 
Q 934 4225 453 4556 
L 453 4863 
Q 1216 4522 1603 3783 
Q 1991 3044 1991 1931 
Q 1991 822 1603 83 
Q 1216 -656 453 -997 
z
" transform="scale(0.015625)"/>
      </defs>
      <use xlink:href="#DejaVuSerif-53"/>
      <use xlink:href="#DejaVuSerif-61" transform="translate(68.505859 0)"/>
      <use xlink:href="#DejaVuSerif-6d" transform="translate(128.125 0)"/>
      <use xlink:href="#DejaVuSerif-70" transform="translate(222.949219 0)"/>
      <use xlink:href="#DejaVuSerif-6c" transform="translate(286.962891 0)"/>
      <use xlink:href="#DejaVuSerif-65" transform="translate(318.945312 0)"/>
      <use xlink:href="#DejaVuSerif-20" transform="translate(378.125 0)"/>
      <use xlink:href="#DejaVuSerif-53" transform="translate(409.912109 0)"/>
      <use xlink:href="#DejaVuSerif-69" transform="translate(478.417969 0)"/>
      <use xlink:href="#DejaVuSerif-7a" transform="translate(510.400391 0)"/>
      <use xlink:href="#DejaVuSerif-65" transform="translate(563.085938 0)"/>
      <use xlink:href="#DejaVuSerif-20" transform="translate(622.265625 0)"/>
      <use xlink:href="#DejaVuSerif-70" transform="translate(654.052734 0)"/>
      <use xlink:href="#DejaVuSerif-65" transform="translate(718.066406 0)"/>
      <use xlink:href="#DejaVuSerif-72" transform="translate(777.246094 0)"/>
      <use xlink:href="#DejaVuSerif-20" transform="translate(825.048828 0)"/>
      <use xlink:href="#DejaVuSerif-47" transform="translate(856.835938 0)"/>
      <use xlink:href="#DejaVuSerif-72" transform="translate(936.71875 0)"/>
      <use xlink:href="#DejaVuSerif-6f" transform="translate(984.521484 0)"/>
      <use xlink:href="#DejaVuSerif-75" transform="translate(1044.726562 0)"/>
      <use xlink:href="#DejaVuSerif-70" transform="translate(1109.130859 0)"/>
      <use xlink:href="#DejaVuSerif-20" transform="translate(1173.144531 0)"/>
      <use xlink:href="#DejaVuSerif-28" transform="translate(1204.931641 0)"/>
      <use xlink:href="#DejaVuSerif-6e" transform="translate(1243.945312 0)"/>
      <use xlink:href="#DejaVuSerif-29" transform="translate(1308.349609 0)"/>
     </g>
    </g>
   </g>
   <g id="matplotlib.axis_2">
    <g id="ytick_1">
     <g id="line2d_15">
      <path d="M 66.35625 327.348701 
L 619.62548 327.348701 
" clip-path="url(#p5ebeedc9bd)" style="fill: none; stroke: #a6a6a6; stroke-opacity: 0.3; stroke-width: 0.8; stroke-linecap: square"/>
     </g>
     <g id="line2d_16">
      <defs>
       <path id="mb3381d049c" d="M 0 0 
L -3.5 0 
" style="stroke: #030303; stroke-width: 0.8"/>
      </defs>
      <g>
       <use xlink:href="#mb3381d049c" x="66.35625" y="327.348701" style="fill: #030303; stroke: #030303; stroke-width: 0.8"/>
      </g>
     </g>
     <g id="text_9">
      <!-- $\mathdefault{0.3}$ -->
      <g style="fill: #030303" transform="translate(30.55625 334.187294) scale(0.18 -0.18)">
       <defs>
        <path id="DejaVuSerif-2e" d="M 603 325 
Q 603 500 722 622 
Q 841 744 1019 744 
Q 1191 744 1312 622 
Q 1434 500 1434 325 
Q 1434 153 1312 31 
Q 1191 -91 1019 -91 
Q 841 -91 722 29 
Q 603 150 603 325 
z
" transform="scale(0.015625)"/>
        <path id="DejaVuSerif-33" d="M 622 4469 
Q 988 4606 1323 4678 
Q 1659 4750 1953 4750 
Q 2638 4750 3022 4454 
Q 3406 4159 3406 3634 
Q 3406 3213 3140 2930 
Q 2875 2647 2388 2547 
Q 2963 2466 3280 2130 
Q 3597 1794 3597 1259 
Q 3597 606 3158 257 
Q 2719 -91 1894 -91 
Q 1528 -91 1179 -12 
Q 831 66 488 225 
L 488 1131 
L 838 1131 
Q 869 681 1141 450 
Q 1413 219 1906 219 
Q 2384 219 2661 495 
Q 2938 772 2938 1253 
Q 2938 1803 2653 2086 
Q 2369 2369 1819 2369 
L 1522 2369 
L 1522 2688 
L 1678 2688 
Q 2225 2688 2498 2914 
Q 2772 3141 2772 3597 
Q 2772 4006 2547 4223 
Q 2322 4441 1900 4441 
Q 1478 4441 1245 4241 
Q 1013 4041 972 3647 
L 622 3647 
L 622 4469 
z
" transform="scale(0.015625)"/>
       </defs>
       <use xlink:href="#DejaVuSerif-30" transform="translate(0 0.78125)"/>
       <use xlink:href="#DejaVuSerif-2e" transform="translate(63.623047 0.78125)"/>
       <use xlink:href="#DejaVuSerif-33" transform="translate(95.410156 0.78125)"/>
      </g>
     </g>
    </g>
    <g id="ytick_2">
     <g id="line2d_17">
      <path d="M 66.35625 287.437926 
L 619.62548 287.437926 
" clip-path="url(#p5ebeedc9bd)" style="fill: none; stroke: #a6a6a6; stroke-opacity: 0.3; stroke-width: 0.8; stroke-linecap: square"/>
     </g>
     <g id="line2d_18">
      <g>
       <use xlink:href="#mb3381d049c" x="66.35625" y="287.437926" style="fill: #030303; stroke: #030303; stroke-width: 0.8"/>
      </g>
     </g>
     <g id="text_10">
      <!-- $\mathdefault{0.4}$ -->
      <g style="fill: #030303" transform="translate(30.55625 294.27652) scale(0.18 -0.18)">
       <use xlink:href="#DejaVuSerif-30" transform="translate(0 0.78125)"/>
       <use xlink:href="#DejaVuSerif-2e" transform="translate(63.623047 0.78125)"/>
       <use xlink:href="#DejaVuSerif-34" transform="translate(95.410156 0.78125)"/>
      </g>
     </g>
    </g>
    <g id="ytick_3">
     <g id="line2d_19">
      <path d="M 66.35625 247.527152 
L 619.62548 247.527152 
" clip-path="url(#p5ebeedc9bd)" style="fill: none; stroke: #a6a6a6; stroke-opacity: 0.3; stroke-width: 0.8; stroke-linecap: square"/>
     </g>
     <g id="line2d_20">
      <g>
       <use xlink:href="#mb3381d049c" x="66.35625" y="247.527152" style="fill: #030303; stroke: #030303; stroke-width: 0.8"/>
      </g>
     </g>
     <g id="text_11">
      <!-- $\mathdefault{0.5}$ -->
      <g style="fill: #030303" transform="translate(30.55625 254.365746) scale(0.18 -0.18)">
       <defs>
        <path id="DejaVuSerif-35" d="M 3219 4666 
L 3219 4153 
L 1081 4153 
L 1081 2816 
Q 1244 2928 1461 2984 
Q 1678 3041 1947 3041 
Q 2703 3041 3140 2622 
Q 3578 2203 3578 1478 
Q 3578 738 3136 323 
Q 2694 -91 1894 -91 
Q 1572 -91 1234 -12 
Q 897 66 544 225 
L 544 1131 
L 897 1131 
Q 925 688 1179 453 
Q 1434 219 1894 219 
Q 2388 219 2653 544 
Q 2919 869 2919 1478 
Q 2919 2084 2655 2407 
Q 2391 2731 1894 2731 
Q 1613 2731 1398 2631 
Q 1184 2531 1019 2322 
L 750 2322 
L 750 4666 
L 3219 4666 
z
" transform="scale(0.015625)"/>
       </defs>
       <use xlink:href="#DejaVuSerif-30" transform="translate(0 0.78125)"/>
       <use xlink:href="#DejaVuSerif-2e" transform="translate(63.623047 0.78125)"/>
       <use xlink:href="#DejaVuSerif-35" transform="translate(95.410156 0.78125)"/>
      </g>
     </g>
    </g>
    <g id="ytick_4">
     <g id="line2d_21">
      <path d="M 66.35625 207.616378 
L 619.62548 207.616378 
" clip-path="url(#p5ebeedc9bd)" style="fill: none; stroke: #a6a6a6; stroke-opacity: 0.3; stroke-width: 0.8; stroke-linecap: square"/>
     </g>
     <g id="line2d_22">
      <g>
       <use xlink:href="#mb3381d049c" x="66.35625" y="207.616378" style="fill: #030303; stroke: #030303; stroke-width: 0.8"/>
      </g>
     </g>
     <g id="text_12">
      <!-- $\mathdefault{0.6}$ -->
      <g style="fill: #030303" transform="translate(30.55625 214.454972) scale(0.18 -0.18)">
       <use xlink:href="#DejaVuSerif-30" transform="translate(0 0.78125)"/>
       <use xlink:href="#DejaVuSerif-2e" transform="translate(63.623047 0.78125)"/>
       <use xlink:href="#DejaVuSerif-36" transform="translate(95.410156 0.78125)"/>
      </g>
     </g>
    </g>
    <g id="ytick_5">
     <g id="line2d_23">
      <path d="M 66.35625 167.705604 
L 619.62548 167.705604 
" clip-path="url(#p5ebeedc9bd)" style="fill: none; stroke: #a6a6a6; stroke-opacity: 0.3; stroke-width: 0.8; stroke-linecap: square"/>
     </g>
     <g id="line2d_24">
      <g>
       <use xlink:href="#mb3381d049c" x="66.35625" y="167.705604" style="fill: #030303; stroke: #030303; stroke-width: 0.8"/>
      </g>
     </g>
     <g id="text_13">
      <!-- $\mathdefault{0.7}$ -->
      <g style="fill: #030303" transform="translate(30.55625 174.544197) scale(0.18 -0.18)">
       <defs>
        <path id="DejaVuSerif-37" d="M 3609 4347 
L 1784 0 
L 1319 0 
L 3059 4153 
L 903 4153 
L 903 3578 
L 538 3578 
L 538 4666 
L 3609 4666 
L 3609 4347 
z
" transform="scale(0.015625)"/>
       </defs>
       <use xlink:href="#DejaVuSerif-30" transform="translate(0 0.78125)"/>
       <use xlink:href="#DejaVuSerif-2e" transform="translate(63.623047 0.78125)"/>
       <use xlink:href="#DejaVuSerif-37" transform="translate(95.410156 0.78125)"/>
      </g>
     </g>
    </g>
    <g id="ytick_6">
     <g id="line2d_25">
      <path d="M 66.35625 127.794829 
L 619.62548 127.794829 
" clip-path="url(#p5ebeedc9bd)" style="fill: none; stroke: #a6a6a6; stroke-opacity: 0.3; stroke-width: 0.8; stroke-linecap: square"/>
     </g>
     <g id="line2d_26">
      <g>
       <use xlink:href="#mb3381d049c" x="66.35625" y="127.794829" style="fill: #030303; stroke: #030303; stroke-width: 0.8"/>
      </g>
     </g>
     <g id="text_14">
      <!-- $\mathdefault{0.8}$ -->
      <g style="fill: #030303" transform="translate(31.27625 134.633423) scale(0.18 -0.18)">
       <use xlink:href="#DejaVuSerif-30" transform="translate(0 0.78125)"/>
       <use xlink:href="#DejaVuSerif-2e" transform="translate(63.623047 0.78125)"/>
       <use xlink:href="#DejaVuSerif-38" transform="translate(91.785156 0.78125)"/>
      </g>
     </g>
    </g>
    <g id="ytick_7">
     <g id="line2d_27">
      <path d="M 66.35625 87.884055 
L 619.62548 87.884055 
" clip-path="url(#p5ebeedc9bd)" style="fill: none; stroke: #a6a6a6; stroke-opacity: 0.3; stroke-width: 0.8; stroke-linecap: square"/>
     </g>
     <g id="line2d_28">
      <g>
       <use xlink:href="#mb3381d049c" x="66.35625" y="87.884055" style="fill: #030303; stroke: #030303; stroke-width: 0.8"/>
      </g>
     </g>
     <g id="text_15">
      <!-- $\mathdefault{0.9}$ -->
      <g style="fill: #030303" transform="translate(30.55625 94.722649) scale(0.18 -0.18)">
       <defs>
        <path id="DejaVuSerif-39" d="M 2994 2091 
Q 2784 1856 2512 1740 
Q 2241 1625 1900 1625 
Q 1206 1625 804 2044 
Q 403 2463 403 3188 
Q 403 3897 839 4323 
Q 1275 4750 2003 4750 
Q 2794 4750 3217 4161 
Q 3641 3572 3641 2478 
Q 3641 1253 3137 581 
Q 2634 -91 1722 -91 
Q 1475 -91 1203 -44 
Q 931 3 647 97 
L 647 872 
L 997 872 
Q 1038 556 1241 387 
Q 1444 219 1784 219 
Q 2391 219 2687 676 
Q 2984 1134 2994 2091 
z
M 1978 4441 
Q 1534 4441 1298 4117 
Q 1063 3794 1063 3188 
Q 1063 2581 1298 2256 
Q 1534 1931 1978 1931 
Q 2422 1931 2658 2245 
Q 2894 2559 2894 3150 
Q 2894 3772 2656 4106 
Q 2419 4441 1978 4441 
z
" transform="scale(0.015625)"/>
       </defs>
       <use xlink:href="#DejaVuSerif-30" transform="translate(0 0.78125)"/>
       <use xlink:href="#DejaVuSerif-2e" transform="translate(63.623047 0.78125)"/>
       <use xlink:href="#DejaVuSerif-39" transform="translate(95.410156 0.78125)"/>
      </g>
     </g>
    </g>
    <g id="ytick_8">
     <g id="line2d_29">
      <path d="M 66.35625 47.973281 
L 619.62548 47.973281 
" clip-path="url(#p5ebeedc9bd)" style="fill: none; stroke: #a6a6a6; stroke-opacity: 0.3; stroke-width: 0.8; stroke-linecap: square"/>
     </g>
     <g id="line2d_30">
      <g>
       <use xlink:href="#mb3381d049c" x="66.35625" y="47.973281" style="fill: #030303; stroke: #030303; stroke-width: 0.8"/>
      </g>
     </g>
     <g id="text_16">
      <!-- $\mathdefault{1.0}$ -->
      <g style="fill: #030303" transform="translate(30.55625 54.811875) scale(0.18 -0.18)">
       <use xlink:href="#DejaVuSerif-31" transform="translate(0 0.78125)"/>
       <use xlink:href="#DejaVuSerif-2e" transform="translate(63.623047 0.78125)"/>
       <use xlink:href="#DejaVuSerif-30" transform="translate(95.410156 0.78125)"/>
      </g>
     </g>
    </g>
    <g id="text_17">
     <!-- Statistical Power -->
     <g style="fill: #030303" transform="translate(22.396875 274.339313) rotate(-90) scale(0.2 -0.2)">
      <defs>
       <path id="DejaVuSerif-74" d="M 691 2988 
L 184 2988 
L 184 3322 
L 691 3322 
L 691 4353 
L 1269 4353 
L 1269 3322 
L 2350 3322 
L 2350 2988 
L 1269 2988 
L 1269 878 
Q 1269 456 1350 337 
Q 1431 219 1650 219 
Q 1875 219 1978 351 
Q 2081 484 2088 781 
L 2522 781 
Q 2497 328 2275 118 
Q 2053 -91 1600 -91 
Q 1103 -91 897 129 
Q 691 350 691 878 
L 691 2988 
z
" transform="scale(0.015625)"/>
       <path id="DejaVuSerif-73" d="M 359 184 
L 359 959 
L 691 959 
Q 703 588 923 403 
Q 1144 219 1575 219 
Q 1963 219 2166 364 
Q 2369 509 2369 788 
Q 2369 1006 2220 1140 
Q 2072 1275 1594 1428 
L 1178 1569 
Q 750 1706 558 1912 
Q 366 2119 366 2438 
Q 366 2894 700 3153 
Q 1034 3413 1625 3413 
Q 1888 3413 2178 3344 
Q 2469 3275 2778 3144 
L 2778 2419 
L 2447 2419 
Q 2434 2741 2221 2922 
Q 2009 3103 1644 3103 
Q 1281 3103 1095 2975 
Q 909 2847 909 2591 
Q 909 2381 1050 2254 
Q 1191 2128 1613 1997 
L 2069 1856 
Q 2541 1709 2748 1489 
Q 2956 1269 2956 922 
Q 2956 450 2595 179 
Q 2234 -91 1600 -91 
Q 1278 -91 972 -22 
Q 666 47 359 184 
z
" transform="scale(0.015625)"/>
       <path id="DejaVuSerif-63" d="M 3291 997 
Q 3169 466 2822 187 
Q 2475 -91 1925 -91 
Q 1200 -91 759 389 
Q 319 869 319 1663 
Q 319 2459 759 2936 
Q 1200 3413 1925 3413 
Q 2241 3413 2553 3339 
Q 2866 3266 3181 3116 
L 3181 2266 
L 2847 2266 
Q 2781 2703 2561 2903 
Q 2341 3103 1931 3103 
Q 1466 3103 1228 2742 
Q 991 2381 991 1663 
Q 991 944 1227 581 
Q 1463 219 1931 219 
Q 2303 219 2525 412 
Q 2747 606 2828 997 
L 3291 997 
z
" transform="scale(0.015625)"/>
       <path id="DejaVuSerif-50" d="M 1581 2375 
L 2406 2375 
Q 2872 2375 3115 2626 
Q 3359 2878 3359 3353 
Q 3359 3831 3115 4081 
Q 2872 4331 2406 4331 
L 1581 4331 
L 1581 2375 
z
M 353 0 
L 353 331 
L 947 331 
L 947 4331 
L 353 4331 
L 353 4666 
L 2559 4666 
Q 3259 4666 3668 4311 
Q 4078 3956 4078 3353 
Q 4078 2753 3668 2397 
Q 3259 2041 2559 2041 
L 1581 2041 
L 1581 331 
L 2303 331 
L 2303 0 
L 353 0 
z
" transform="scale(0.015625)"/>
       <path id="DejaVuSerif-77" d="M 3072 3322 
L 3922 728 
L 4672 2988 
L 4191 2988 
L 4191 3322 
L 5394 3322 
L 5394 2988 
L 5025 2988 
L 4038 0 
L 3559 0 
L 2741 2484 
L 1919 0 
L 1459 0 
L 475 2988 
L 103 2988 
L 103 3322 
L 1606 3322 
L 1606 2988 
L 1069 2988 
L 1813 728 
L 2669 3322 
L 3072 3322 
z
" transform="scale(0.015625)"/>
      </defs>
      <use xlink:href="#DejaVuSerif-53"/>
      <use xlink:href="#DejaVuSerif-74" transform="translate(68.505859 0)"/>
      <use xlink:href="#DejaVuSerif-61" transform="translate(108.691406 0)"/>
      <use xlink:href="#DejaVuSerif-74" transform="translate(168.310547 0)"/>
      <use xlink:href="#DejaVuSerif-69" transform="translate(208.496094 0)"/>
      <use xlink:href="#DejaVuSerif-73" transform="translate(240.478516 0)"/>
      <use xlink:href="#DejaVuSerif-74" transform="translate(291.796875 0)"/>
      <use xlink:href="#DejaVuSerif-69" transform="translate(331.982422 0)"/>
      <use xlink:href="#DejaVuSerif-63" transform="translate(363.964844 0)"/>
      <use xlink:href="#DejaVuSerif-61" transform="translate(419.970703 0)"/>
      <use xlink:href="#DejaVuSerif-6c" transform="translate(479.589844 0)"/>
      <use xlink:href="#DejaVuSerif-20" transform="translate(511.572266 0)"/>
      <use xlink:href="#DejaVuSerif-50" transform="translate(543.359375 0)"/>
      <use xlink:href="#DejaVuSerif-6f" transform="translate(606.644531 0)"/>
      <use xlink:href="#DejaVuSerif-77" transform="translate(666.849609 0)"/>
      <use xlink:href="#DejaVuSerif-65" transform="translate(752.445312 0)"/>
      <use xlink:href="#DejaVuSerif-72" transform="translate(811.625 0)"/>
     </g>
    </g>
   </g>
   <g id="line2d_31">
    <defs>
     <path id="mf3128d82b9" d="M 0 4 
C 1.060812 4 2.078319 3.578535 2.828427 2.828427 
C 3.578535 2.078319 4 1.060812 4 0 
C 4 -1.060812 3.578535 -2.078319 2.828427 -2.828427 
C 2.078319 -3.578535 1.060812 -4 0 -4 
C -1.060812 -4 -2.078319 -3.578535 -2.828427 -2.828427 
C -3.578535 -2.078319 -4 -1.060812 -4 0 
C -4 1.060812 -3.578535 2.078319 -2.828427 2.828427 
C -2.078319 3.578535 -1.060812 4 0 4 
z
" style="stroke: #000000"/>
    </defs>
    <g clip-path="url(#p5ebeedc9bd)">
     <use xlink:href="#mf3128d82b9" x="91.504851" y="314.41761" style="stroke: #000000"/>
     <use xlink:href="#mf3128d82b9" x="114.367216" y="310.3068" style="stroke: #000000"/>
     <use xlink:href="#mf3128d82b9" x="137.229581" y="260.737618" style="stroke: #000000"/>
     <use xlink:href="#mf3128d82b9" x="160.091946" y="220.148361" style="stroke: #000000"/>
     <use xlink:href="#mf3128d82b9" x="182.954311" y="216.197194" style="stroke: #000000"/>
     <use xlink:href="#mf3128d82b9" x="205.816676" y="195.044484" style="stroke: #000000"/>
     <use xlink:href="#mf3128d82b9" x="228.679041" y="166.787656" style="stroke: #000000"/>
     <use xlink:href="#mf3128d82b9" x="251.541406" y="150.543971" style="stroke: #000000"/>
     <use xlink:href="#mf3128d82b9" x="274.40377" y="129.790368" style="stroke: #000000"/>
     <use xlink:href="#mf3128d82b9" x="297.266135" y="124.562057" style="stroke: #000000"/>
     <use xlink:href="#mf3128d82b9" x="320.1285" y="110.273999" style="stroke: #000000"/>
     <use xlink:href="#mf3128d82b9" x="342.990865" y="106.402654" style="stroke: #000000"/>
     <use xlink:href="#mf3128d82b9" x="365.85323" y="97.821838" style="stroke: #000000"/>
     <use xlink:href="#mf3128d82b9" x="388.715595" y="87.08584" style="stroke: #000000"/>
     <use xlink:href="#mf3128d82b9" x="411.57796" y="81.179045" style="stroke: #000000"/>
     <use xlink:href="#mf3128d82b9" x="434.440325" y="77.187968" style="stroke: #000000"/>
     <use xlink:href="#mf3128d82b9" x="457.302689" y="72.877604" style="stroke: #000000"/>
     <use xlink:href="#mf3128d82b9" x="480.165054" y="66.412058" style="stroke: #000000"/>
     <use xlink:href="#mf3128d82b9" x="503.027419" y="65.534021" style="stroke: #000000"/>
     <use xlink:href="#mf3128d82b9" x="525.889784" y="61.183747" style="stroke: #000000"/>
     <use xlink:href="#mf3128d82b9" x="548.752149" y="60.265799" style="stroke: #000000"/>
     <use xlink:href="#mf3128d82b9" x="571.614514" y="57.871153" style="stroke: #000000"/>
     <use xlink:href="#mf3128d82b9" x="594.476879" y="56.67383" style="stroke: #000000"/>
    </g>
   </g>
   <g id="line2d_32">
    <path d="M 91.504851 320.12042 
L 139.527306 261.128842 
L 149.637297 249.182542 
L 159.747287 237.550526 
L 169.857278 226.280252 
L 179.967268 215.409771 
L 187.549761 207.537179 
L 195.132254 199.915415 
L 202.714747 192.55144 
L 210.29724 185.450051 
L 217.879733 178.614081 
L 225.462225 172.044592 
L 233.044718 165.741075 
L 240.627211 159.701633 
L 248.209704 153.923159 
L 255.792197 148.401501 
L 263.37469 143.131618 
L 270.957183 138.107725 
L 278.539676 133.323424 
L 286.122168 128.77182 
L 293.704661 124.445634 
L 301.287154 120.337296 
L 308.869647 116.439033 
L 316.45214 112.742945 
L 324.034633 109.241067 
L 334.144623 104.860241 
L 344.254614 100.791789 
L 354.364604 97.017293 
L 364.474595 93.518793 
L 374.584585 90.278894 
L 384.694576 87.280845 
L 394.804566 84.508598 
L 404.914557 81.946846 
L 415.024547 79.581046 
L 427.662035 76.878451 
L 440.299524 74.435373 
L 452.937012 72.228462 
L 465.5745 70.23616 
L 480.739486 68.100864 
L 495.904471 66.214925 
L 511.069457 64.550298 
L 528.76194 62.854559 
L 546.454424 61.390572 
L 566.674405 59.96171 
L 586.894386 58.755319 
L 594.476879 58.353151 
L 594.476879 58.353151 
" clip-path="url(#p5ebeedc9bd)" style="fill: none; stroke: #ff0000; stroke-width: 1.5; stroke-linecap: square"/>
   </g>
   <g id="line2d_33">
    <path d="M 66.35625 127.794829 
L 619.62548 127.794829 
" clip-path="url(#p5ebeedc9bd)" style="fill: none; stroke-dasharray: 5.55,2.4; stroke-dashoffset: 0; stroke: #4682b4; stroke-width: 1.5"/>
   </g>
   <g id="line2d_34">
    <path d="M 66.35625 67.928668 
L 619.62548 67.928668 
" clip-path="url(#p5ebeedc9bd)" style="fill: none; stroke-dasharray: 5.55,2.4; stroke-dashoffset: 0; stroke: #73b55b; stroke-width: 1.5"/>
   </g>
   <g id="patch_3">
    <path d="M 66.35625 333.29275 
L 66.35625 43.5015 
" style="fill: none; stroke: #030303; stroke-width: 1.5; stroke-linejoin: miter; stroke-linecap: square"/>
   </g>
   <g id="patch_4">
    <path d="M 66.35625 333.29275 
L 619.62548 333.29275 
" style="fill: none; stroke: #030303; stroke-width: 1.5; stroke-linejoin: miter; stroke-linecap: square"/>
   </g>
   <g id="text_18">
    <!-- Power Analysis for Different Sample Sizes -->
    <g style="fill: #030303" transform="translate(171.943365 19.3575) scale(0.16 -0.16)">
     <defs>
      <path id="DejaVuSerif-41" d="M 1281 1691 
L 2994 1691 
L 2138 3909 
L 1281 1691 
z
M -38 0 
L -38 331 
L 372 331 
L 2034 4666 
L 2559 4666 
L 4225 331 
L 4684 331 
L 4684 0 
L 2988 0 
L 2988 331 
L 3506 331 
L 3116 1356 
L 1153 1356 
L 763 331 
L 1275 331 
L 1275 0 
L -38 0 
z
" transform="scale(0.015625)"/>
      <path id="DejaVuSerif-79" d="M 1381 -609 
L 1600 -56 
L 359 2988 
L -19 2988 
L -19 3322 
L 1509 3322 
L 1509 2988 
L 978 2988 
L 1913 703 
L 2847 2988 
L 2350 2988 
L 2350 3322 
L 3597 3322 
L 3597 2988 
L 3225 2988 
L 1703 -750 
Q 1547 -1138 1356 -1280 
Q 1166 -1422 819 -1422 
Q 672 -1422 517 -1397 
Q 363 -1372 206 -1325 
L 206 -691 
L 500 -691 
Q 519 -903 608 -995 
Q 697 -1088 884 -1088 
Q 1056 -1088 1161 -992 
Q 1266 -897 1381 -609 
z
" transform="scale(0.015625)"/>
      <path id="DejaVuSerif-66" d="M 2753 4078 
L 2450 4078 
Q 2447 4313 2317 4434 
Q 2188 4556 1941 4556 
Q 1619 4556 1487 4379 
Q 1356 4203 1356 3750 
L 1356 3322 
L 2284 3322 
L 2284 2988 
L 1356 2988 
L 1356 331 
L 2094 331 
L 2094 0 
L 231 0 
L 231 331 
L 781 331 
L 781 2988 
L 231 2988 
L 231 3322 
L 781 3322 
L 781 3738 
Q 781 4294 1070 4578 
Q 1359 4863 1919 4863 
Q 2128 4863 2337 4825 
Q 2547 4788 2753 4709 
L 2753 4078 
z
" transform="scale(0.015625)"/>
      <path id="DejaVuSerif-44" d="M 1581 331 
L 2163 331 
Q 3072 331 3558 850 
Q 4044 1369 4044 2338 
Q 4044 3306 3559 3818 
Q 3075 4331 2163 4331 
L 1581 4331 
L 1581 331 
z
M 353 0 
L 353 331 
L 947 331 
L 947 4331 
L 353 4331 
L 353 4666 
L 2209 4666 
Q 3416 4666 4089 4050 
Q 4763 3434 4763 2338 
Q 4763 1238 4088 619 
Q 3413 0 2209 0 
L 353 0 
z
" transform="scale(0.015625)"/>
     </defs>
     <use xlink:href="#DejaVuSerif-50"/>
     <use xlink:href="#DejaVuSerif-6f" transform="translate(63.285156 0)"/>
     <use xlink:href="#DejaVuSerif-77" transform="translate(123.490234 0)"/>
     <use xlink:href="#DejaVuSerif-65" transform="translate(209.085938 0)"/>
     <use xlink:href="#DejaVuSerif-72" transform="translate(268.265625 0)"/>
     <use xlink:href="#DejaVuSerif-20" transform="translate(316.068359 0)"/>
     <use xlink:href="#DejaVuSerif-41" transform="translate(347.855469 0)"/>
     <use xlink:href="#DejaVuSerif-6e" transform="translate(420.072266 0)"/>
     <use xlink:href="#DejaVuSerif-61" transform="translate(484.476562 0)"/>
     <use xlink:href="#DejaVuSerif-6c" transform="translate(544.095703 0)"/>
     <use xlink:href="#DejaVuSerif-79" transform="translate(576.078125 0)"/>
     <use xlink:href="#DejaVuSerif-73" transform="translate(632.572266 0)"/>
     <use xlink:href="#DejaVuSerif-69" transform="translate(683.890625 0)"/>
     <use xlink:href="#DejaVuSerif-73" transform="translate(715.873047 0)"/>
     <use xlink:href="#DejaVuSerif-20" transform="translate(767.191406 0)"/>
     <use xlink:href="#DejaVuSerif-66" transform="translate(798.978516 0)"/>
     <use xlink:href="#DejaVuSerif-6f" transform="translate(835.990234 0)"/>
     <use xlink:href="#DejaVuSerif-72" transform="translate(896.195312 0)"/>
     <use xlink:href="#DejaVuSerif-20" transform="translate(943.998047 0)"/>
     <use xlink:href="#DejaVuSerif-44" transform="translate(975.785156 0)"/>
     <use xlink:href="#DejaVuSerif-69" transform="translate(1055.960938 0)"/>
     <use xlink:href="#DejaVuSerif-66" transform="translate(1087.943359 0)"/>
     <use xlink:href="#DejaVuSerif-66" transform="translate(1124.955078 0)"/>
     <use xlink:href="#DejaVuSerif-65" transform="translate(1161.966797 0)"/>
     <use xlink:href="#DejaVuSerif-72" transform="translate(1221.146484 0)"/>
     <use xlink:href="#DejaVuSerif-65" transform="translate(1268.949219 0)"/>
     <use xlink:href="#DejaVuSerif-6e" transform="translate(1328.128906 0)"/>
     <use xlink:href="#DejaVuSerif-74" transform="translate(1392.533203 0)"/>
     <use xlink:href="#DejaVuSerif-20" transform="translate(1432.71875 0)"/>
     <use xlink:href="#DejaVuSerif-53" transform="translate(1464.505859 0)"/>
     <use xlink:href="#DejaVuSerif-61" transform="translate(1533.011719 0)"/>
     <use xlink:href="#DejaVuSerif-6d" transform="translate(1592.630859 0)"/>
     <use xlink:href="#DejaVuSerif-70" transform="translate(1687.455078 0)"/>
     <use xlink:href="#DejaVuSerif-6c" transform="translate(1751.46875 0)"/>
     <use xlink:href="#DejaVuSerif-65" transform="translate(1783.451172 0)"/>
     <use xlink:href="#DejaVuSerif-20" transform="translate(1842.630859 0)"/>
     <use xlink:href="#DejaVuSerif-53" transform="translate(1874.417969 0)"/>
     <use xlink:href="#DejaVuSerif-69" transform="translate(1942.923828 0)"/>
     <use xlink:href="#DejaVuSerif-7a" transform="translate(1974.90625 0)"/>
     <use xlink:href="#DejaVuSerif-65" transform="translate(2027.591797 0)"/>
     <use xlink:href="#DejaVuSerif-73" transform="translate(2086.771484 0)"/>
    </g>
    <!-- Risk Ratio Test ($\alpha=0.05$) -->
    <g style="fill: #030303" transform="translate(244.430865 37.5015) scale(0.16 -0.16)">
     <defs>
      <path id="DejaVuSerif-52" d="M 3066 2316 
Q 3284 2256 3442 2114 
Q 3600 1972 3725 1716 
L 4403 331 
L 4972 331 
L 4972 0 
L 3872 0 
L 3144 1484 
Q 2934 1916 2759 2042 
Q 2584 2169 2278 2169 
L 1581 2169 
L 1581 331 
L 2241 331 
L 2241 0 
L 353 0 
L 353 331 
L 947 331 
L 947 4331 
L 353 4331 
L 353 4666 
L 2719 4666 
Q 3400 4666 3770 4341 
Q 4141 4016 4141 3419 
Q 4141 2938 3870 2661 
Q 3600 2384 3066 2316 
z
M 1581 2503 
L 2503 2503 
Q 2975 2503 3200 2726 
Q 3425 2950 3425 3419 
Q 3425 3888 3200 4109 
Q 2975 4331 2503 4331 
L 1581 4331 
L 1581 2503 
z
" transform="scale(0.015625)"/>
      <path id="DejaVuSerif-6b" d="M 1831 0 
L 219 0 
L 219 331 
L 738 331 
L 738 4531 
L 184 4531 
L 184 4863 
L 1313 4863 
L 1313 1697 
L 2713 2988 
L 2234 2988 
L 2234 3322 
L 3738 3322 
L 3738 2988 
L 3169 2988 
L 2181 2075 
L 3444 331 
L 3922 331 
L 3922 0 
L 2284 0 
L 2284 331 
L 2759 331 
L 1766 1697 
L 1313 1275 
L 1313 331 
L 1831 331 
L 1831 0 
z
" transform="scale(0.015625)"/>
      <path id="DejaVuSerif-54" d="M 1222 0 
L 1222 331 
L 1819 331 
L 1819 4294 
L 447 4294 
L 447 3566 
L 63 3566 
L 63 4666 
L 4206 4666 
L 4206 3566 
L 3822 3566 
L 3822 4294 
L 2450 4294 
L 2450 331 
L 3047 331 
L 3047 0 
L 1222 0 
z
" transform="scale(0.015625)"/>
      <path id="Cmmi10-ae" d="M 1288 -72 
Q 984 -72 748 72 
Q 513 216 384 459 
Q 256 703 256 1013 
Q 256 1447 498 1872 
Q 741 2297 1142 2562 
Q 1544 2828 1984 2828 
Q 2309 2828 2556 2658 
Q 2803 2488 2931 2205 
Q 3059 1922 3059 1600 
L 3066 1172 
Q 3284 1475 3436 1801 
Q 3588 2128 3669 2478 
Q 3681 2516 3719 2516 
L 3794 2516 
Q 3853 2516 3853 2456 
Q 3853 2450 3847 2438 
Q 3772 2144 3659 1873 
Q 3547 1603 3395 1350 
Q 3244 1097 3066 891 
Q 3066 97 3250 97 
Q 3369 97 3445 167 
Q 3522 238 3580 341 
Q 3638 444 3653 447 
L 3731 447 
Q 3781 447 3781 384 
Q 3781 225 3598 76 
Q 3416 -72 3238 -72 
Q 3006 -72 2853 78 
Q 2700 228 2644 469 
Q 2344 213 1994 70 
Q 1644 -72 1288 -72 
z
M 1300 97 
Q 1984 97 2613 659 
Q 2609 697 2603 751 
Q 2597 806 2597 813 
L 2597 1503 
Q 2597 2663 1972 2663 
Q 1597 2663 1315 2342 
Q 1034 2022 892 1576 
Q 750 1131 750 763 
Q 750 484 892 290 
Q 1034 97 1300 97 
z
" transform="scale(0.015625)"/>
      <path id="Cmr10-3d" d="M 481 850 
Q 428 850 393 890 
Q 359 931 359 978 
Q 359 1031 393 1068 
Q 428 1106 481 1106 
L 4500 1106 
Q 4547 1106 4581 1068 
Q 4616 1031 4616 978 
Q 4616 931 4581 890 
Q 4547 850 4500 850 
L 481 850 
z
M 481 2094 
Q 428 2094 393 2131 
Q 359 2169 359 2222 
Q 359 2269 393 2309 
Q 428 2350 481 2350 
L 4500 2350 
Q 4547 2350 4581 2309 
Q 4616 2269 4616 2222 
Q 4616 2169 4581 2131 
Q 4547 2094 4500 2094 
L 481 2094 
z
" transform="scale(0.015625)"/>
      <path id="Cmr10-30" d="M 1600 -141 
Q 816 -141 533 504 
Q 250 1150 250 2041 
Q 250 2597 351 3087 
Q 453 3578 754 3920 
Q 1056 4263 1600 4263 
Q 2022 4263 2290 4056 
Q 2559 3850 2700 3523 
Q 2841 3197 2892 2823 
Q 2944 2450 2944 2041 
Q 2944 1491 2842 1011 
Q 2741 531 2444 195 
Q 2147 -141 1600 -141 
z
M 1600 25 
Q 1956 25 2131 390 
Q 2306 756 2347 1200 
Q 2388 1644 2388 2144 
Q 2388 2625 2347 3031 
Q 2306 3438 2132 3767 
Q 1959 4097 1600 4097 
Q 1238 4097 1063 3765 
Q 888 3434 847 3029 
Q 806 2625 806 2144 
Q 806 1788 823 1472 
Q 841 1156 916 820 
Q 991 484 1158 254 
Q 1325 25 1600 25 
z
" transform="scale(0.015625)"/>
      <path id="Cmmi10-3a" d="M 538 353 
Q 538 497 644 600 
Q 750 703 891 703 
Q 978 703 1062 656 
Q 1147 609 1194 525 
Q 1241 441 1241 353 
Q 1241 213 1137 106 
Q 1034 0 891 0 
Q 750 0 644 106 
Q 538 213 538 353 
z
" transform="scale(0.015625)"/>
      <path id="Cmr10-35" d="M 556 728 
Q 622 541 758 387 
Q 894 234 1080 148 
Q 1266 63 1466 63 
Q 1928 63 2103 422 
Q 2278 781 2278 1294 
Q 2278 1516 2270 1667 
Q 2263 1819 2228 1959 
Q 2169 2184 2020 2353 
Q 1872 2522 1656 2522 
Q 1441 2522 1286 2456 
Q 1131 2391 1034 2303 
Q 938 2216 863 2119 
Q 788 2022 769 2016 
L 697 2016 
Q 681 2016 657 2036 
Q 634 2056 634 2075 
L 634 4213 
Q 634 4228 654 4245 
Q 675 4263 697 4263 
L 716 4263 
Q 1147 4056 1631 4056 
Q 2106 4056 2547 4263 
L 2566 4263 
Q 2588 4263 2606 4247 
Q 2625 4231 2625 4213 
L 2625 4153 
Q 2625 4122 2613 4122 
Q 2394 3831 2064 3668 
Q 1734 3506 1381 3506 
Q 1125 3506 856 3578 
L 856 2369 
Q 1069 2541 1236 2614 
Q 1403 2688 1663 2688 
Q 2016 2688 2295 2484 
Q 2575 2281 2725 1954 
Q 2875 1628 2875 1288 
Q 2875 903 2686 575 
Q 2497 247 2172 53 
Q 1847 -141 1466 -141 
Q 1150 -141 886 21 
Q 622 184 470 459 
Q 319 734 319 1044 
Q 319 1188 412 1278 
Q 506 1369 647 1369 
Q 788 1369 883 1276 
Q 978 1184 978 1044 
Q 978 906 883 811 
Q 788 716 647 716 
Q 625 716 597 720 
Q 569 725 556 728 
z
" transform="scale(0.015625)"/>
     </defs>
     <use xlink:href="#DejaVuSerif-52" transform="translate(0 0.015625)"/>
     <use xlink:href="#DejaVuSerif-69" transform="translate(75.292969 0.015625)"/>
     <use xlink:href="#DejaVuSerif-73" transform="translate(107.275391 0.015625)"/>
     <use xlink:href="#DejaVuSerif-6b" transform="translate(158.59375 0.015625)"/>
     <use xlink:href="#DejaVuSerif-20" transform="translate(219.189453 0.015625)"/>
     <use xlink:href="#DejaVuSerif-52" transform="translate(250.976562 0.015625)"/>
     <use xlink:href="#DejaVuSerif-61" transform="translate(326.269531 0.015625)"/>
     <use xlink:href="#DejaVuSerif-74" transform="translate(385.888672 0.015625)"/>
     <use xlink:href="#DejaVuSerif-69" transform="translate(426.074219 0.015625)"/>
     <use xlink:href="#DejaVuSerif-6f" transform="translate(458.056641 0.015625)"/>
     <use xlink:href="#DejaVuSerif-20" transform="translate(518.261719 0.015625)"/>
     <use xlink:href="#DejaVuSerif-54" transform="translate(550.048828 0.015625)"/>
     <use xlink:href="#DejaVuSerif-65" transform="translate(616.748047 0.015625)"/>
     <use xlink:href="#DejaVuSerif-73" transform="translate(675.927734 0.015625)"/>
     <use xlink:href="#DejaVuSerif-74" transform="translate(727.246094 0.015625)"/>
     <use xlink:href="#DejaVuSerif-20" transform="translate(767.431641 0.015625)"/>
     <use xlink:href="#DejaVuSerif-28" transform="translate(799.21875 0.015625)"/>
     <use xlink:href="#Cmmi10-ae" transform="translate(838.232422 0.015625)"/>
     <use xlink:href="#Cmr10-3d" transform="translate(919.707031 0.015625)"/>
     <use xlink:href="#Cmr10-30" transform="translate(1014.951172 0.015625)"/>
     <use xlink:href="#Cmmi10-3a" transform="translate(1064.951172 0.015625)"/>
     <use xlink:href="#Cmr10-30" transform="translate(1092.636719 0.015625)"/>
     <use xlink:href="#Cmr10-35" transform="translate(1142.636719 0.015625)"/>
     <use xlink:href="#DejaVuSerif-29" transform="translate(1192.636719 0.015625)"/>
    </g>
   </g>
   <g id="legend_1">
    <g id="patch_5">
     <path d="M 349.212043 324.29275 
L 607.02548 324.29275 
Q 610.62548 324.29275 610.62548 320.69275 
L 610.62548 216.81025 
Q 610.62548 213.21025 607.02548 213.21025 
L 349.212043 213.21025 
Q 345.612043 213.21025 345.612043 216.81025 
L 345.612043 320.69275 
Q 345.612043 324.29275 349.212043 324.29275 
z
" style="fill: #ffffff; opacity: 0.8; stroke: #cccccc; stroke-linejoin: miter"/>
    </g>
    <g id="line2d_35">
     <g>
      <use xlink:href="#mf3128d82b9" x="370.812043" y="227.787438" style="stroke: #000000"/>
     </g>
    </g>
    <g id="text_19">
     <!-- Simulated Data -->
     <g style="fill: #030303" transform="translate(403.212043 234.087438) scale(0.18 -0.18)">
      <defs>
       <path id="DejaVuSerif-64" d="M 3359 331 
L 3909 331 
L 3909 0 
L 2784 0 
L 2784 519 
Q 2616 206 2355 57 
Q 2094 -91 1709 -91 
Q 1097 -91 708 395 
Q 319 881 319 1663 
Q 319 2444 706 2928 
Q 1094 3413 1709 3413 
Q 2094 3413 2355 3264 
Q 2616 3116 2784 2803 
L 2784 4531 
L 2241 4531 
L 2241 4863 
L 3359 4863 
L 3359 331 
z
M 2784 1497 
L 2784 1825 
Q 2784 2422 2554 2737 
Q 2325 3053 1888 3053 
Q 1444 3053 1217 2703 
Q 991 2353 991 1663 
Q 991 975 1217 622 
Q 1444 269 1888 269 
Q 2325 269 2554 583 
Q 2784 897 2784 1497 
z
" transform="scale(0.015625)"/>
      </defs>
      <use xlink:href="#DejaVuSerif-53"/>
      <use xlink:href="#DejaVuSerif-69" transform="translate(68.505859 0)"/>
      <use xlink:href="#DejaVuSerif-6d" transform="translate(100.488281 0)"/>
      <use xlink:href="#DejaVuSerif-75" transform="translate(195.3125 0)"/>
      <use xlink:href="#DejaVuSerif-6c" transform="translate(259.716797 0)"/>
      <use xlink:href="#DejaVuSerif-61" transform="translate(291.699219 0)"/>
      <use xlink:href="#DejaVuSerif-74" transform="translate(351.318359 0)"/>
      <use xlink:href="#DejaVuSerif-65" transform="translate(391.503906 0)"/>
      <use xlink:href="#DejaVuSerif-64" transform="translate(450.683594 0)"/>
      <use xlink:href="#DejaVuSerif-20" transform="translate(514.697266 0)"/>
      <use xlink:href="#DejaVuSerif-44" transform="translate(546.484375 0)"/>
      <use xlink:href="#DejaVuSerif-61" transform="translate(626.660156 0)"/>
      <use xlink:href="#DejaVuSerif-74" transform="translate(686.279297 0)"/>
      <use xlink:href="#DejaVuSerif-61" transform="translate(726.464844 0)"/>
     </g>
    </g>
    <g id="line2d_36">
     <path d="M 352.812043 254.208063 
L 370.812043 254.208063 
L 388.812043 254.208063 
" style="fill: none; stroke: #ff0000; stroke-width: 1.5; stroke-linecap: square"/>
    </g>
    <g id="text_20">
     <!-- Gompertz Fit -->
     <g style="fill: #030303" transform="translate(403.212043 260.508063) scale(0.18 -0.18)">
      <defs>
       <path id="DejaVuSerif-46" d="M 353 0 
L 353 331 
L 947 331 
L 947 4331 
L 353 4331 
L 353 4666 
L 4172 4666 
L 4172 3628 
L 3788 3628 
L 3788 4281 
L 1581 4281 
L 1581 2719 
L 3175 2719 
L 3175 3303 
L 3559 3303 
L 3559 1753 
L 3175 1753 
L 3175 2338 
L 1581 2338 
L 1581 331 
L 2328 331 
L 2328 0 
L 353 0 
z
" transform="scale(0.015625)"/>
      </defs>
      <use xlink:href="#DejaVuSerif-47"/>
      <use xlink:href="#DejaVuSerif-6f" transform="translate(79.882812 0)"/>
      <use xlink:href="#DejaVuSerif-6d" transform="translate(140.087891 0)"/>
      <use xlink:href="#DejaVuSerif-70" transform="translate(234.912109 0)"/>
      <use xlink:href="#DejaVuSerif-65" transform="translate(298.925781 0)"/>
      <use xlink:href="#DejaVuSerif-72" transform="translate(358.105469 0)"/>
      <use xlink:href="#DejaVuSerif-74" transform="translate(405.908203 0)"/>
      <use xlink:href="#DejaVuSerif-7a" transform="translate(446.09375 0)"/>
      <use xlink:href="#DejaVuSerif-20" transform="translate(498.779297 0)"/>
      <use xlink:href="#DejaVuSerif-46" transform="translate(530.566406 0)"/>
      <use xlink:href="#DejaVuSerif-69" transform="translate(599.951172 0)"/>
      <use xlink:href="#DejaVuSerif-74" transform="translate(631.933594 0)"/>
     </g>
    </g>
    <g id="line2d_37">
     <path d="M 352.812043 280.628688 
L 370.812043 280.628688 
L 388.812043 280.628688 
" style="fill: none; stroke-dasharray: 5.55,2.4; stroke-dashoffset: 0; stroke: #4682b4; stroke-width: 1.5"/>
    </g>
    <g id="text_21">
     <!-- 0.8 Power Threshold -->
     <g style="fill: #030303" transform="translate(403.212043 286.928688) scale(0.18 -0.18)">
      <defs>
       <path id="DejaVuSerif-68" d="M 263 0 
L 263 331 
L 781 331 
L 781 4531 
L 231 4531 
L 231 4863 
L 1356 4863 
L 1356 2731 
Q 1516 3069 1770 3241 
Q 2025 3413 2363 3413 
Q 2913 3413 3172 3097 
Q 3431 2781 3431 2113 
L 3431 331 
L 3944 331 
L 3944 0 
L 2356 0 
L 2356 331 
L 2853 331 
L 2853 1931 
Q 2853 2541 2704 2764 
Q 2556 2988 2175 2988 
Q 1775 2988 1565 2697 
Q 1356 2406 1356 1850 
L 1356 331 
L 1856 331 
L 1856 0 
L 263 0 
z
" transform="scale(0.015625)"/>
      </defs>
      <use xlink:href="#DejaVuSerif-30"/>
      <use xlink:href="#DejaVuSerif-2e" transform="translate(63.623047 0)"/>
      <use xlink:href="#DejaVuSerif-38" transform="translate(95.410156 0)"/>
      <use xlink:href="#DejaVuSerif-20" transform="translate(159.033203 0)"/>
      <use xlink:href="#DejaVuSerif-50" transform="translate(190.820312 0)"/>
      <use xlink:href="#DejaVuSerif-6f" transform="translate(254.105469 0)"/>
      <use xlink:href="#DejaVuSerif-77" transform="translate(314.310547 0)"/>
      <use xlink:href="#DejaVuSerif-65" transform="translate(399.90625 0)"/>
      <use xlink:href="#DejaVuSerif-72" transform="translate(459.085938 0)"/>
      <use xlink:href="#DejaVuSerif-20" transform="translate(506.888672 0)"/>
      <use xlink:href="#DejaVuSerif-54" transform="translate(538.675781 0)"/>
      <use xlink:href="#DejaVuSerif-68" transform="translate(605.375 0)"/>
      <use xlink:href="#DejaVuSerif-72" transform="translate(669.779297 0)"/>
      <use xlink:href="#DejaVuSerif-65" transform="translate(717.582031 0)"/>
      <use xlink:href="#DejaVuSerif-73" transform="translate(776.761719 0)"/>
      <use xlink:href="#DejaVuSerif-68" transform="translate(828.080078 0)"/>
      <use xlink:href="#DejaVuSerif-6f" transform="translate(892.484375 0)"/>
      <use xlink:href="#DejaVuSerif-6c" transform="translate(952.689453 0)"/>
      <use xlink:href="#DejaVuSerif-64" transform="translate(984.671875 0)"/>
     </g>
    </g>
    <g id="line2d_38">
     <path d="M 352.812043 307.049312 
L 370.812043 307.049312 
L 388.812043 307.049312 
" style="fill: none; stroke-dasharray: 5.55,2.4; stroke-dashoffset: 0; stroke: #73b55b; stroke-width: 1.5"/>
    </g>
    <g id="text_22">
     <!-- 0.95 Power Threshold -->
     <g style="fill: #030303" transform="translate(403.212043 313.349312) scale(0.18 -0.18)">
      <use xlink:href="#DejaVuSerif-30"/>
      <use xlink:href="#DejaVuSerif-2e" transform="translate(63.623047 0)"/>
      <use xlink:href="#DejaVuSerif-39" transform="translate(95.410156 0)"/>
      <use xlink:href="#DejaVuSerif-35" transform="translate(159.033203 0)"/>
      <use xlink:href="#DejaVuSerif-20" transform="translate(222.65625 0)"/>
      <use xlink:href="#DejaVuSerif-50" transform="translate(254.443359 0)"/>
      <use xlink:href="#DejaVuSerif-6f" transform="translate(317.728516 0)"/>
      <use xlink:href="#DejaVuSerif-77" transform="translate(377.933594 0)"/>
      <use xlink:href="#DejaVuSerif-65" transform="translate(463.529297 0)"/>
      <use xlink:href="#DejaVuSerif-72" transform="translate(522.708984 0)"/>
      <use xlink:href="#DejaVuSerif-20" transform="translate(570.511719 0)"/>
      <use xlink:href="#DejaVuSerif-54" transform="translate(602.298828 0)"/>
      <use xlink:href="#DejaVuSerif-68" transform="translate(668.998047 0)"/>
      <use xlink:href="#DejaVuSerif-72" transform="translate(733.402344 0)"/>
      <use xlink:href="#DejaVuSerif-65" transform="translate(781.205078 0)"/>
      <use xlink:href="#DejaVuSerif-73" transform="translate(840.384766 0)"/>
      <use xlink:href="#DejaVuSerif-68" transform="translate(891.703125 0)"/>
      <use xlink:href="#DejaVuSerif-6f" transform="translate(956.107422 0)"/>
      <use xlink:href="#DejaVuSerif-6c" transform="translate(1016.3125 0)"/>
      <use xlink:href="#DejaVuSerif-64" transform="translate(1048.294922 0)"/>
     </g>
    </g>
   </g>
  </g>
 </g>
 <defs>
  <clipPath id="p5ebeedc9bd">
   <rect x="66.35625" y="43.5015" width="553.26923" height="289.79125"/>
  </clipPath>
 </defs>
</svg>
