<?xml version="1.0" encoding="utf-8" standalone="no"?>
<!DOCTYPE svg PUBLIC "-//W3C//DTD SVG 1.1//EN"
  "http://www.w3.org/Graphics/SVG/1.1/DTD/svg11.dtd">
<svg xmlns:xlink="http://www.w3.org/1999/xlink" width="710.635672pt" height="388.818125pt" viewBox="0 0 710.635672 388.818125" xmlns="http://www.w3.org/2000/svg" version="1.1">
 <metadata>
  <rdf:RDF xmlns:dc="http://purl.org/dc/elements/1.1/" xmlns:cc="http://creativecommons.org/ns#" xmlns:rdf="http://www.w3.org/1999/02/22-rdf-syntax-ns#">
   <cc:Work>
    <dc:type rdf:resource="http://purl.org/dc/dcmitype/StillImage"/>
    <dc:date>2025-01-20T22:15:16.549613</dc:date>
    <dc:format>image/svg+xml</dc:format>
    <dc:creator>
     <cc:Agent>
      <dc:title>Matplotlib v3.10.0, https://matplotlib.org/</dc:title>
     </cc:Agent>
    </dc:creator>
   </cc:Work>
  </rdf:RDF>
 </metadata>
 <defs>
  <style type="text/css">*{stroke-linejoin: round; stroke-linecap: butt}</style>
 </defs>
 <g id="figure_1">
  <g id="patch_1">
   <path d="M 0 388.818125 
L 710.635672 388.818125 
L 710.635672 0 
L 0 0 
L 0 388.818125 
z
" style="fill: none"/>
  </g>
  <g id="axes_1">
   <g id="patch_2">
    <path d="M 9.354364 340.36 
L 703.435672 340.36 
L 703.435672 7.2 
L 9.354364 7.2 
L 9.354364 340.36 
z
" style="fill: none"/>
   </g>
   <g id="matplotlib.axis_1">
    <g id="xtick_1">
     <g id="line2d_1">
      <defs>
       <path id="m26a98e7ae2" d="M 0 0 
L 0 3.5 
" style="stroke: #030303; stroke-width: 0.8"/>
      </defs>
      <g>
       <use xlink:href="#m26a98e7ae2" x="20.326953" y="340.36" style="fill: #030303; stroke: #030303; stroke-width: 0.8"/>
      </g>
     </g>
     <g id="text_1">
      <!-- $0K -->
      <g style="fill: #030303" transform="translate(7.2 357.237969) scale(0.13 -0.13)">
       <defs>
        <path id="DejaVuSerif-24" d="M 2156 213 
Q 2509 244 2695 416 
Q 2881 588 2881 884 
Q 2881 1153 2697 1340 
Q 2513 1528 2156 1625 
L 2156 213 
z
M 1844 3709 
Q 1522 3688 1344 3523 
Q 1166 3359 1166 3084 
Q 1166 2834 1330 2668 
Q 1494 2503 1844 2400 
L 1844 3709 
z
M 550 225 
L 550 1088 
L 888 1088 
Q 900 659 1137 440 
Q 1375 222 1844 213 
L 1844 1728 
Q 1125 1928 834 2189 
Q 544 2450 544 2881 
Q 544 3381 887 3684 
Q 1231 3988 1844 4025 
L 1844 4863 
L 2156 4863 
L 2156 4025 
Q 2472 4000 2764 3923 
Q 3056 3847 3334 3719 
L 3334 2900 
L 2994 2900 
Q 2956 3263 2740 3472 
Q 2525 3681 2156 3709 
L 2156 2297 
Q 2925 2088 3233 1817 
Q 3541 1547 3541 1094 
Q 3541 575 3178 262 
Q 2816 -50 2156 -97 
L 2156 -941 
L 1844 -941 
L 1844 -97 
Q 1544 -91 1222 -11 
Q 900 69 550 225 
z
" transform="scale(0.015625)"/>
        <path id="DejaVuSerif-30" d="M 2034 219 
Q 2513 219 2750 744 
Q 2988 1269 2988 2328 
Q 2988 3391 2750 3916 
Q 2513 4441 2034 4441 
Q 1556 4441 1318 3916 
Q 1081 3391 1081 2328 
Q 1081 1269 1318 744 
Q 1556 219 2034 219 
z
M 2034 -91 
Q 1275 -91 848 546 
Q 422 1184 422 2328 
Q 422 3475 848 4112 
Q 1275 4750 2034 4750 
Q 2797 4750 3222 4112 
Q 3647 3475 3647 2328 
Q 3647 1184 3222 546 
Q 2797 -91 2034 -91 
z
" transform="scale(0.015625)"/>
        <path id="DejaVuSerif-4b" d="M 353 0 
L 353 331 
L 947 331 
L 947 4331 
L 353 4331 
L 353 4666 
L 2175 4666 
L 2175 4331 
L 1581 4331 
L 1581 2566 
L 3591 4331 
L 3084 4331 
L 3084 4666 
L 4634 4666 
L 4634 4331 
L 4109 4331 
L 2106 2572 
L 4347 331 
L 4878 331 
L 4878 0 
L 3794 0 
L 1581 2216 
L 1581 331 
L 2175 331 
L 2175 0 
L 353 0 
z
" transform="scale(0.015625)"/>
       </defs>
       <use xlink:href="#DejaVuSerif-24"/>
       <use xlink:href="#DejaVuSerif-30" transform="translate(63.623047 0)"/>
       <use xlink:href="#DejaVuSerif-4b" transform="translate(127.246094 0)"/>
      </g>
     </g>
    </g>
    <g id="xtick_2">
     <g id="line2d_2">
      <g>
       <use xlink:href="#m26a98e7ae2" x="123.199474" y="340.36" style="fill: #030303; stroke: #030303; stroke-width: 0.8"/>
      </g>
     </g>
     <g id="text_2">
      <!-- $50K -->
      <g style="fill: #030303" transform="translate(105.936896 357.237969) scale(0.13 -0.13)">
       <defs>
        <path id="DejaVuSerif-35" d="M 3219 4666 
L 3219 4153 
L 1081 4153 
L 1081 2816 
Q 1244 2928 1461 2984 
Q 1678 3041 1947 3041 
Q 2703 3041 3140 2622 
Q 3578 2203 3578 1478 
Q 3578 738 3136 323 
Q 2694 -91 1894 -91 
Q 1572 -91 1234 -12 
Q 897 66 544 225 
L 544 1131 
L 897 1131 
Q 925 688 1179 453 
Q 1434 219 1894 219 
Q 2388 219 2653 544 
Q 2919 869 2919 1478 
Q 2919 2084 2655 2407 
Q 2391 2731 1894 2731 
Q 1613 2731 1398 2631 
Q 1184 2531 1019 2322 
L 750 2322 
L 750 4666 
L 3219 4666 
z
" transform="scale(0.015625)"/>
       </defs>
       <use xlink:href="#DejaVuSerif-24"/>
       <use xlink:href="#DejaVuSerif-35" transform="translate(63.623047 0)"/>
       <use xlink:href="#DejaVuSerif-30" transform="translate(127.246094 0)"/>
       <use xlink:href="#DejaVuSerif-4b" transform="translate(190.869141 0)"/>
      </g>
     </g>
    </g>
    <g id="xtick_3">
     <g id="line2d_3">
      <g>
       <use xlink:href="#m26a98e7ae2" x="226.071994" y="340.36" style="fill: #030303; stroke: #030303; stroke-width: 0.8"/>
      </g>
     </g>
     <g id="text_3">
      <!-- $100K -->
      <g style="fill: #030303" transform="translate(204.673791 357.237969) scale(0.13 -0.13)">
       <defs>
        <path id="DejaVuSerif-31" d="M 909 0 
L 909 331 
L 1722 331 
L 1722 4213 
L 781 3603 
L 781 4013 
L 1919 4750 
L 2350 4750 
L 2350 331 
L 3163 331 
L 3163 0 
L 909 0 
z
" transform="scale(0.015625)"/>
       </defs>
       <use xlink:href="#DejaVuSerif-24"/>
       <use xlink:href="#DejaVuSerif-31" transform="translate(63.623047 0)"/>
       <use xlink:href="#DejaVuSerif-30" transform="translate(127.246094 0)"/>
       <use xlink:href="#DejaVuSerif-30" transform="translate(190.869141 0)"/>
       <use xlink:href="#DejaVuSerif-4b" transform="translate(254.492188 0)"/>
      </g>
     </g>
    </g>
    <g id="xtick_4">
     <g id="line2d_4">
      <g>
       <use xlink:href="#m26a98e7ae2" x="328.944515" y="340.36" style="fill: #030303; stroke: #030303; stroke-width: 0.8"/>
      </g>
     </g>
     <g id="text_4">
      <!-- $150K -->
      <g style="fill: #030303" transform="translate(307.546312 357.237969) scale(0.13 -0.13)">
       <use xlink:href="#DejaVuSerif-24"/>
       <use xlink:href="#DejaVuSerif-31" transform="translate(63.623047 0)"/>
       <use xlink:href="#DejaVuSerif-35" transform="translate(127.246094 0)"/>
       <use xlink:href="#DejaVuSerif-30" transform="translate(190.869141 0)"/>
       <use xlink:href="#DejaVuSerif-4b" transform="translate(254.492188 0)"/>
      </g>
     </g>
    </g>
    <g id="xtick_5">
     <g id="line2d_5">
      <g>
       <use xlink:href="#m26a98e7ae2" x="431.817035" y="340.36" style="fill: #030303; stroke: #030303; stroke-width: 0.8"/>
      </g>
     </g>
     <g id="text_5">
      <!-- $200K -->
      <g style="fill: #030303" transform="translate(410.418832 357.237969) scale(0.13 -0.13)">
       <defs>
        <path id="DejaVuSerif-32" d="M 819 3553 
L 469 3553 
L 469 4384 
Q 803 4563 1142 4656 
Q 1481 4750 1806 4750 
Q 2534 4750 2956 4397 
Q 3378 4044 3378 3438 
Q 3378 2753 2422 1800 
Q 2347 1728 2309 1691 
L 1131 513 
L 3078 513 
L 3078 1088 
L 3444 1088 
L 3444 0 
L 434 0 
L 434 341 
L 1850 1753 
Q 2319 2222 2519 2614 
Q 2719 3006 2719 3438 
Q 2719 3909 2473 4175 
Q 2228 4441 1797 4441 
Q 1350 4441 1106 4219 
Q 863 3997 819 3553 
z
" transform="scale(0.015625)"/>
       </defs>
       <use xlink:href="#DejaVuSerif-24"/>
       <use xlink:href="#DejaVuSerif-32" transform="translate(63.623047 0)"/>
       <use xlink:href="#DejaVuSerif-30" transform="translate(127.246094 0)"/>
       <use xlink:href="#DejaVuSerif-30" transform="translate(190.869141 0)"/>
       <use xlink:href="#DejaVuSerif-4b" transform="translate(254.492188 0)"/>
      </g>
     </g>
    </g>
    <g id="xtick_6">
     <g id="line2d_6">
      <g>
       <use xlink:href="#m26a98e7ae2" x="534.689556" y="340.36" style="fill: #030303; stroke: #030303; stroke-width: 0.8"/>
      </g>
     </g>
     <g id="text_6">
      <!-- $250K -->
      <g style="fill: #030303" transform="translate(513.291353 357.237969) scale(0.13 -0.13)">
       <use xlink:href="#DejaVuSerif-24"/>
       <use xlink:href="#DejaVuSerif-32" transform="translate(63.623047 0)"/>
       <use xlink:href="#DejaVuSerif-35" transform="translate(127.246094 0)"/>
       <use xlink:href="#DejaVuSerif-30" transform="translate(190.869141 0)"/>
       <use xlink:href="#DejaVuSerif-4b" transform="translate(254.492188 0)"/>
      </g>
     </g>
    </g>
    <g id="xtick_7">
     <g id="line2d_7">
      <g>
       <use xlink:href="#m26a98e7ae2" x="637.562076" y="340.36" style="fill: #030303; stroke: #030303; stroke-width: 0.8"/>
      </g>
     </g>
     <g id="text_7">
      <!-- $300K -->
      <g style="fill: #030303" transform="translate(616.163873 357.237969) scale(0.13 -0.13)">
       <defs>
        <path id="DejaVuSerif-33" d="M 622 4469 
Q 988 4606 1323 4678 
Q 1659 4750 1953 4750 
Q 2638 4750 3022 4454 
Q 3406 4159 3406 3634 
Q 3406 3213 3140 2930 
Q 2875 2647 2388 2547 
Q 2963 2466 3280 2130 
Q 3597 1794 3597 1259 
Q 3597 606 3158 257 
Q 2719 -91 1894 -91 
Q 1528 -91 1179 -12 
Q 831 66 488 225 
L 488 1131 
L 838 1131 
Q 869 681 1141 450 
Q 1413 219 1906 219 
Q 2384 219 2661 495 
Q 2938 772 2938 1253 
Q 2938 1803 2653 2086 
Q 2369 2369 1819 2369 
L 1522 2369 
L 1522 2688 
L 1678 2688 
Q 2225 2688 2498 2914 
Q 2772 3141 2772 3597 
Q 2772 4006 2547 4223 
Q 2322 4441 1900 4441 
Q 1478 4441 1245 4241 
Q 1013 4041 972 3647 
L 622 3647 
L 622 4469 
z
" transform="scale(0.015625)"/>
       </defs>
       <use xlink:href="#DejaVuSerif-24"/>
       <use xlink:href="#DejaVuSerif-33" transform="translate(63.623047 0)"/>
       <use xlink:href="#DejaVuSerif-30" transform="translate(127.246094 0)"/>
       <use xlink:href="#DejaVuSerif-30" transform="translate(190.869141 0)"/>
       <use xlink:href="#DejaVuSerif-4b" transform="translate(254.492188 0)"/>
      </g>
     </g>
    </g>
    <g id="text_8">
     <!-- Salary (USD) -->
     <g style="fill: #030303" transform="translate(296.383299 377.61875) scale(0.18 -0.18)">
      <defs>
       <path id="DejaVuSerif-53" d="M 594 225 
L 594 1288 
L 953 1284 
Q 969 753 1261 498 
Q 1553 244 2150 244 
Q 2706 244 2998 464 
Q 3291 684 3291 1106 
Q 3291 1444 3114 1625 
Q 2938 1806 2369 1978 
L 1753 2163 
Q 1084 2366 811 2669 
Q 538 2972 538 3500 
Q 538 4094 959 4422 
Q 1381 4750 2144 4750 
Q 2469 4750 2856 4679 
Q 3244 4609 3681 4475 
L 3681 3481 
L 3328 3481 
Q 3275 3975 2998 4195 
Q 2722 4416 2156 4416 
Q 1663 4416 1405 4214 
Q 1147 4013 1147 3628 
Q 1147 3294 1340 3103 
Q 1534 2913 2163 2725 
L 2741 2553 
Q 3375 2363 3645 2067 
Q 3916 1772 3916 1275 
Q 3916 597 3481 253 
Q 3047 -91 2188 -91 
Q 1803 -91 1404 -12 
Q 1006 66 594 225 
z
" transform="scale(0.015625)"/>
       <path id="DejaVuSerif-61" d="M 2547 1044 
L 2547 1747 
L 1806 1747 
Q 1378 1747 1168 1562 
Q 959 1378 959 997 
Q 959 650 1171 447 
Q 1384 244 1747 244 
Q 2106 244 2326 466 
Q 2547 688 2547 1044 
z
M 3122 2075 
L 3122 331 
L 3634 331 
L 3634 0 
L 2547 0 
L 2547 359 
Q 2356 128 2106 18 
Q 1856 -91 1522 -91 
Q 969 -91 644 203 
Q 319 497 319 997 
Q 319 1513 691 1797 
Q 1063 2081 1741 2081 
L 2547 2081 
L 2547 2309 
Q 2547 2688 2317 2895 
Q 2088 3103 1672 3103 
Q 1328 3103 1125 2947 
Q 922 2791 872 2484 
L 575 2484 
L 575 3156 
Q 875 3284 1158 3348 
Q 1441 3413 1709 3413 
Q 2400 3413 2761 3070 
Q 3122 2728 3122 2075 
z
" transform="scale(0.015625)"/>
       <path id="DejaVuSerif-6c" d="M 1313 331 
L 1856 331 
L 1856 0 
L 184 0 
L 184 331 
L 738 331 
L 738 4531 
L 184 4531 
L 184 4863 
L 1313 4863 
L 1313 331 
z
" transform="scale(0.015625)"/>
       <path id="DejaVuSerif-72" d="M 3059 3328 
L 3059 2497 
L 2728 2497 
Q 2713 2744 2591 2866 
Q 2469 2988 2234 2988 
Q 1809 2988 1582 2694 
Q 1356 2400 1356 1850 
L 1356 331 
L 2022 331 
L 2022 0 
L 263 0 
L 263 331 
L 781 331 
L 781 2994 
L 231 2994 
L 231 3322 
L 1356 3322 
L 1356 2731 
Q 1525 3078 1790 3245 
Q 2056 3413 2438 3413 
Q 2578 3413 2733 3391 
Q 2888 3369 3059 3328 
z
" transform="scale(0.015625)"/>
       <path id="DejaVuSerif-79" d="M 1381 -609 
L 1600 -56 
L 359 2988 
L -19 2988 
L -19 3322 
L 1509 3322 
L 1509 2988 
L 978 2988 
L 1913 703 
L 2847 2988 
L 2350 2988 
L 2350 3322 
L 3597 3322 
L 3597 2988 
L 3225 2988 
L 1703 -750 
Q 1547 -1138 1356 -1280 
Q 1166 -1422 819 -1422 
Q 672 -1422 517 -1397 
Q 363 -1372 206 -1325 
L 206 -691 
L 500 -691 
Q 519 -903 608 -995 
Q 697 -1088 884 -1088 
Q 1056 -1088 1161 -992 
Q 1266 -897 1381 -609 
z
" transform="scale(0.015625)"/>
       <path id="DejaVuSerif-20" transform="scale(0.015625)"/>
       <path id="DejaVuSerif-28" d="M 2041 -997 
Q 1281 -656 893 83 
Q 506 822 506 1931 
Q 506 3044 893 3783 
Q 1281 4522 2041 4863 
L 2041 4556 
Q 1559 4225 1350 3623 
Q 1141 3022 1141 1931 
Q 1141 844 1350 242 
Q 1559 -359 2041 -691 
L 2041 -997 
z
" transform="scale(0.015625)"/>
       <path id="DejaVuSerif-55" d="M 897 4331 
L 300 4331 
L 300 4666 
L 2125 4666 
L 2125 4331 
L 1528 4331 
L 1528 1919 
Q 1528 1025 1820 672 
Q 2113 319 2828 319 
Q 3544 319 3836 672 
Q 4128 1025 4128 1919 
L 4128 4331 
L 3531 4331 
L 3531 4666 
L 5106 4666 
L 5106 4331 
L 4513 4331 
L 4513 1856 
Q 4513 791 4103 350 
Q 3694 -91 2713 -91 
Q 1731 -91 1314 353 
Q 897 797 897 1856 
L 897 4331 
z
" transform="scale(0.015625)"/>
       <path id="DejaVuSerif-44" d="M 1581 331 
L 2163 331 
Q 3072 331 3558 850 
Q 4044 1369 4044 2338 
Q 4044 3306 3559 3818 
Q 3075 4331 2163 4331 
L 1581 4331 
L 1581 331 
z
M 353 0 
L 353 331 
L 947 331 
L 947 4331 
L 353 4331 
L 353 4666 
L 2209 4666 
Q 3416 4666 4089 4050 
Q 4763 3434 4763 2338 
Q 4763 1238 4088 619 
Q 3413 0 2209 0 
L 353 0 
z
" transform="scale(0.015625)"/>
       <path id="DejaVuSerif-29" d="M 453 -997 
L 453 -691 
Q 934 -359 1145 242 
Q 1356 844 1356 1931 
Q 1356 3022 1145 3623 
Q 934 4225 453 4556 
L 453 4863 
Q 1216 4522 1603 3783 
Q 1991 3044 1991 1931 
Q 1991 822 1603 83 
Q 1216 -656 453 -997 
z
" transform="scale(0.015625)"/>
      </defs>
      <use xlink:href="#DejaVuSerif-53"/>
      <use xlink:href="#DejaVuSerif-61" transform="translate(68.505859 0)"/>
      <use xlink:href="#DejaVuSerif-6c" transform="translate(128.125 0)"/>
      <use xlink:href="#DejaVuSerif-61" transform="translate(160.107422 0)"/>
      <use xlink:href="#DejaVuSerif-72" transform="translate(219.726562 0)"/>
      <use xlink:href="#DejaVuSerif-79" transform="translate(267.529297 0)"/>
      <use xlink:href="#DejaVuSerif-20" transform="translate(324.023438 0)"/>
      <use xlink:href="#DejaVuSerif-28" transform="translate(355.810547 0)"/>
      <use xlink:href="#DejaVuSerif-55" transform="translate(394.824219 0)"/>
      <use xlink:href="#DejaVuSerif-53" transform="translate(479.101562 0)"/>
      <use xlink:href="#DejaVuSerif-44" transform="translate(547.607422 0)"/>
      <use xlink:href="#DejaVuSerif-29" transform="translate(627.783203 0)"/>
     </g>
    </g>
   </g>
   <g id="matplotlib.axis_2"/>
   <g id="patch_3">
    <path d="M 9.354364 340.36 
L 703.435672 340.36 
" style="fill: none; stroke: #030303; stroke-width: 1.5; stroke-linejoin: miter; stroke-linecap: square"/>
   </g>
   <g id="PathCollection_1">
    <defs>
     <path id="mf3e55291c2" d="M 0 3 
C 0.795609 3 1.55874 2.683901 2.12132 2.12132 
C 2.683901 1.55874 3 0.795609 3 0 
C 3 -0.795609 2.683901 -1.55874 2.12132 -2.12132 
C 1.55874 -2.683901 0.795609 -3 0 -3 
C -0.795609 -3 -1.55874 -2.683901 -2.12132 -2.12132 
C -2.683901 -1.55874 -3 -0.795609 -3 0 
C -3 0.795609 -2.683901 1.55874 -2.12132 2.12132 
C -1.55874 2.683901 -0.795609 3 0 3 
z
"/>
    </defs>
    <g clip-path="url(#p445cf6b4e4)">
     <use xlink:href="#mf3e55291c2" x="126.872023" y="64.426441" style="fill: #ffb81c"/>
     <use xlink:href="#mf3e55291c2" x="217.85248" y="58.455385" style="fill: #ffb81c"/>
     <use xlink:href="#mf3e55291c2" x="671.886521" y="58.455385" style="fill: #ffb81c"/>
     <use xlink:href="#mf3e55291c2" x="263.80152" y="58.455385" style="fill: #ffb81c"/>
     <use xlink:href="#mf3e55291c2" x="375.683616" y="58.455385" style="fill: #ffb81c"/>
     <use xlink:href="#mf3e55291c2" x="185.079352" y="58.455385" style="fill: #ffb81c"/>
     <use xlink:href="#mf3e55291c2" x="313.694692" y="62.637516" style="fill: #ffb81c"/>
     <use xlink:href="#mf3e55291c2" x="272.432524" y="58.455385" style="fill: #ffb81c"/>
     <use xlink:href="#mf3e55291c2" x="162.912381" y="58.455385" style="fill: #ffb81c"/>
     <use xlink:href="#mf3e55291c2" x="54.299574" y="69.315694" style="fill: #ffb81c"/>
     <use xlink:href="#mf3e55291c2" x="158.715183" y="63.231016" style="fill: #ffb81c"/>
     <use xlink:href="#mf3e55291c2" x="185.513474" y="64.738873" style="fill: #ffb81c"/>
     <use xlink:href="#mf3e55291c2" x="348.012965" y="64.752041" style="fill: #ffb81c"/>
     <use xlink:href="#mf3e55291c2" x="124.958594" y="58.455385" style="fill: #ffb81c"/>
     <use xlink:href="#mf3e55291c2" x="255.952346" y="58.455385" style="fill: #ffb81c"/>
     <use xlink:href="#mf3e55291c2" x="141.815285" y="60.874171" style="fill: #ffb81c"/>
     <use xlink:href="#mf3e55291c2" x="105.42516" y="55.116534" style="fill: #ffb81c"/>
     <use xlink:href="#mf3e55291c2" x="223.345872" y="55.92172" style="fill: #ffb81c"/>
     <use xlink:href="#mf3e55291c2" x="188.70458" y="53.435361" style="fill: #ffb81c"/>
     <use xlink:href="#mf3e55291c2" x="542.781508" y="58.455385" style="fill: #ffb81c"/>
     <use xlink:href="#mf3e55291c2" x="220.190258" y="64.257506" style="fill: #ffb81c"/>
     <use xlink:href="#mf3e55291c2" x="409.699443" y="52.377189" style="fill: #ffb81c"/>
     <use xlink:href="#mf3e55291c2" x="133.319386" y="58.455385" style="fill: #ffb81c"/>
     <use xlink:href="#mf3e55291c2" x="178.902886" y="58.455385" style="fill: #ffb81c"/>
     <use xlink:href="#mf3e55291c2" x="100.337085" y="58.455385" style="fill: #ffb81c"/>
     <use xlink:href="#mf3e55291c2" x="422.16142" y="58.455385" style="fill: #ffb81c"/>
     <use xlink:href="#mf3e55291c2" x="50.715496" y="64.2632" style="fill: #ffb81c"/>
     <use xlink:href="#mf3e55291c2" x="465.643577" y="58.455385" style="fill: #ffb81c"/>
     <use xlink:href="#mf3e55291c2" x="309.207393" y="58.455385" style="fill: #ffb81c"/>
     <use xlink:href="#mf3e55291c2" x="399.519179" y="58.455385" style="fill: #ffb81c"/>
     <use xlink:href="#mf3e55291c2" x="205.530409" y="60.310035" style="fill: #ffb81c"/>
     <use xlink:href="#mf3e55291c2" x="85.914357" y="58.455385" style="fill: #ffb81c"/>
     <use xlink:href="#mf3e55291c2" x="347.817507" y="58.455385" style="fill: #ffb81c"/>
     <use xlink:href="#mf3e55291c2" x="118.891172" y="58.455385" style="fill: #ffb81c"/>
     <use xlink:href="#mf3e55291c2" x="408.121379" y="58.455385" style="fill: #ffb81c"/>
     <use xlink:href="#mf3e55291c2" x="51.161962" y="52.867705" style="fill: #ffb81c"/>
     <use xlink:href="#mf3e55291c2" x="138.825809" y="49.235527" style="fill: #ffb81c"/>
     <use xlink:href="#mf3e55291c2" x="199.796295" y="58.455385" style="fill: #ffb81c"/>
     <use xlink:href="#mf3e55291c2" x="40.903515" y="58.455385" style="fill: #ffb81c"/>
     <use xlink:href="#mf3e55291c2" x="154.801912" y="58.455385" style="fill: #ffb81c"/>
     <use xlink:href="#mf3e55291c2" x="134.155397" y="64.69393" style="fill: #ffb81c"/>
     <use xlink:href="#mf3e55291c2" x="138.634467" y="55.532323" style="fill: #ffb81c"/>
     <use xlink:href="#mf3e55291c2" x="662.457226" y="58.455385" style="fill: #ffb81c"/>
     <use xlink:href="#mf3e55291c2" x="190.55217" y="61.037672" style="fill: #ffb81c"/>
     <use xlink:href="#mf3e55291c2" x="71.143921" y="58.455385" style="fill: #ffb81c"/>
     <use xlink:href="#mf3e55291c2" x="120.43426" y="64.543473" style="fill: #ffb81c"/>
     <use xlink:href="#mf3e55291c2" x="408.611052" y="64.734369" style="fill: #ffb81c"/>
     <use xlink:href="#mf3e55291c2" x="285.398577" y="58.455385" style="fill: #ffb81c"/>
     <use xlink:href="#mf3e55291c2" x="103.894416" y="63.528677" style="fill: #ffb81c"/>
     <use xlink:href="#mf3e55291c2" x="48.390577" y="58.455385" style="fill: #ffb81c"/>
    </g>
   </g>
  </g>
  <g id="axes_2">
   <g id="patch_4">
    <path d="M 164.618419 340.36 
L 169.585965 340.36 
L 169.585965 339.449214 
L 164.618419 339.449214 
z
" clip-path="url(#p445cf6b4e4)" style="fill: #ffffff; opacity: 0.45; stroke: #000000; stroke-linejoin: miter"/>
   </g>
   <g id="patch_5">
    <path d="M 169.585965 340.36 
L 174.55351 340.36 
L 174.55351 338.766124 
L 169.585965 338.766124 
z
" clip-path="url(#p445cf6b4e4)" style="fill: #ffffff; opacity: 0.45; stroke: #000000; stroke-linejoin: miter"/>
   </g>
   <g id="patch_6">
    <path d="M 174.55351 340.36 
L 179.521055 340.36 
L 179.521055 332.390618 
L 174.55351 332.390618 
z
" clip-path="url(#p445cf6b4e4)" style="fill: #ffffff; opacity: 0.45; stroke: #000000; stroke-linejoin: miter"/>
   </g>
   <g id="patch_7">
    <path d="M 179.521055 340.36 
L 184.488601 340.36 
L 184.488601 323.965843 
L 179.521055 323.965843 
z
" clip-path="url(#p445cf6b4e4)" style="fill: #ffffff; opacity: 0.45; stroke: #000000; stroke-linejoin: miter"/>
   </g>
   <g id="patch_8">
    <path d="M 184.488601 340.36 
L 189.456146 340.36 
L 189.456146 312.808709 
L 184.488601 312.808709 
z
" clip-path="url(#p445cf6b4e4)" style="fill: #ffffff; opacity: 0.45; stroke: #000000; stroke-linejoin: miter"/>
   </g>
   <g id="patch_9">
    <path d="M 189.456146 340.36 
L 194.423691 340.36 
L 194.423691 300.513092 
L 189.456146 300.513092 
z
" clip-path="url(#p445cf6b4e4)" style="fill: #ffffff; opacity: 0.45; stroke: #000000; stroke-linejoin: miter"/>
   </g>
   <g id="patch_10">
    <path d="M 194.423691 340.36 
L 199.391236 340.36 
L 199.391236 284.118935 
L 194.423691 284.118935 
z
" clip-path="url(#p445cf6b4e4)" style="fill: #ffffff; opacity: 0.45; stroke: #000000; stroke-linejoin: miter"/>
   </g>
   <g id="patch_11">
    <path d="M 199.391236 340.36 
L 204.358782 340.36 
L 204.358782 250.875229 
L 199.391236 250.875229 
z
" clip-path="url(#p445cf6b4e4)" style="fill: #ffffff; opacity: 0.45; stroke: #000000; stroke-linejoin: miter"/>
   </g>
   <g id="patch_12">
    <path d="M 204.358782 340.36 
L 209.326327 340.36 
L 209.326327 223.323938 
L 204.358782 223.323938 
z
" clip-path="url(#p445cf6b4e4)" style="fill: #ffffff; opacity: 0.45; stroke: #000000; stroke-linejoin: miter"/>
   </g>
   <g id="patch_13">
    <path d="M 209.326327 340.36 
L 214.293872 340.36 
L 214.293872 179.833884 
L 209.326327 179.833884 
z
" clip-path="url(#p445cf6b4e4)" style="fill: #ffffff; opacity: 0.45; stroke: #000000; stroke-linejoin: miter"/>
   </g>
   <g id="patch_14">
    <path d="M 214.293872 340.36 
L 219.261418 340.36 
L 219.261418 157.291919 
L 214.293872 157.291919 
z
" clip-path="url(#p445cf6b4e4)" style="fill: #ffffff; opacity: 0.45; stroke: #000000; stroke-linejoin: miter"/>
   </g>
   <g id="patch_15">
    <path d="M 219.261418 340.36 
L 224.228963 340.36 
L 224.228963 145.223998 
L 219.261418 145.223998 
z
" clip-path="url(#p445cf6b4e4)" style="fill: #ffffff; opacity: 0.45; stroke: #000000; stroke-linejoin: miter"/>
   </g>
   <g id="patch_16">
    <path d="M 224.228963 340.36 
L 229.196508 340.36 
L 229.196508 136.799223 
L 224.228963 136.799223 
z
" clip-path="url(#p445cf6b4e4)" style="fill: #ffffff; opacity: 0.45; stroke: #000000; stroke-linejoin: miter"/>
   </g>
   <g id="patch_17">
    <path d="M 229.196508 340.36 
L 234.164054 340.36 
L 234.164054 128.829841 
L 229.196508 128.829841 
z
" clip-path="url(#p445cf6b4e4)" style="fill: #ffffff; opacity: 0.45; stroke: #000000; stroke-linejoin: miter"/>
   </g>
   <g id="patch_18">
    <path d="M 234.164054 340.36 
L 239.131599 340.36 
L 239.131599 132.92838 
L 234.164054 132.92838 
z
" clip-path="url(#p445cf6b4e4)" style="fill: #ffffff; opacity: 0.45; stroke: #000000; stroke-linejoin: miter"/>
   </g>
   <g id="patch_19">
    <path d="M 239.131599 340.36 
L 244.099144 340.36 
L 244.099144 164.350514 
L 239.131599 164.350514 
z
" clip-path="url(#p445cf6b4e4)" style="fill: #ffffff; opacity: 0.45; stroke: #000000; stroke-linejoin: miter"/>
   </g>
   <g id="patch_20">
    <path d="M 244.099144 340.36 
L 249.06669 340.36 
L 249.06669 197.59422 
L 244.099144 197.59422 
z
" clip-path="url(#p445cf6b4e4)" style="fill: #ffffff; opacity: 0.45; stroke: #000000; stroke-linejoin: miter"/>
   </g>
   <g id="patch_21">
    <path d="M 249.06669 340.36 
L 254.034235 340.36 
L 254.034235 216.265343 
L 249.06669 216.265343 
z
" clip-path="url(#p445cf6b4e4)" style="fill: #ffffff; opacity: 0.45; stroke: #000000; stroke-linejoin: miter"/>
   </g>
   <g id="patch_22">
    <path d="M 254.034235 340.36 
L 259.00178 340.36 
L 259.00178 242.905847 
L 254.034235 242.905847 
z
" clip-path="url(#p445cf6b4e4)" style="fill: #ffffff; opacity: 0.45; stroke: #000000; stroke-linejoin: miter"/>
   </g>
   <g id="patch_23">
    <path d="M 259.00178 340.36 
L 263.969325 340.36 
L 263.969325 269.546352 
L 259.00178 269.546352 
z
" clip-path="url(#p445cf6b4e4)" style="fill: #ffffff; opacity: 0.45; stroke: #000000; stroke-linejoin: miter"/>
   </g>
   <g id="patch_24">
    <path d="M 263.969325 340.36 
L 268.936871 340.36 
L 268.936871 287.306688 
L 263.969325 287.306688 
z
" clip-path="url(#p445cf6b4e4)" style="fill: #ffffff; opacity: 0.45; stroke: #000000; stroke-linejoin: miter"/>
   </g>
   <g id="patch_25">
    <path d="M 268.936871 340.36 
L 273.904416 340.36 
L 273.904416 304.839327 
L 268.936871 304.839327 
z
" clip-path="url(#p445cf6b4e4)" style="fill: #ffffff; opacity: 0.45; stroke: #000000; stroke-linejoin: miter"/>
   </g>
   <g id="patch_26">
    <path d="M 273.904416 340.36 
L 278.871961 340.36 
L 278.871961 318.273428 
L 273.904416 318.273428 
z
" clip-path="url(#p445cf6b4e4)" style="fill: #ffffff; opacity: 0.45; stroke: #000000; stroke-linejoin: miter"/>
   </g>
   <g id="patch_27">
    <path d="M 278.871961 340.36 
L 283.839507 340.36 
L 283.839507 324.19354 
L 278.871961 324.19354 
z
" clip-path="url(#p445cf6b4e4)" style="fill: #ffffff; opacity: 0.45; stroke: #000000; stroke-linejoin: miter"/>
   </g>
   <g id="patch_28">
    <path d="M 283.839507 340.36 
L 288.807052 340.36 
L 288.807052 331.479832 
L 283.839507 331.479832 
z
" clip-path="url(#p445cf6b4e4)" style="fill: #ffffff; opacity: 0.45; stroke: #000000; stroke-linejoin: miter"/>
   </g>
   <g id="patch_29">
    <path d="M 288.807052 340.36 
L 293.774597 340.36 
L 293.774597 333.529101 
L 288.807052 333.529101 
z
" clip-path="url(#p445cf6b4e4)" style="fill: #ffffff; opacity: 0.45; stroke: #000000; stroke-linejoin: miter"/>
   </g>
   <g id="patch_30">
    <path d="M 293.774597 340.36 
L 298.742143 340.36 
L 298.742143 337.627641 
L 293.774597 337.627641 
z
" clip-path="url(#p445cf6b4e4)" style="fill: #ffffff; opacity: 0.45; stroke: #000000; stroke-linejoin: miter"/>
   </g>
   <g id="patch_31">
    <path d="M 298.742143 340.36 
L 303.709688 340.36 
L 303.709688 338.99382 
L 298.742143 338.99382 
z
" clip-path="url(#p445cf6b4e4)" style="fill: #ffffff; opacity: 0.45; stroke: #000000; stroke-linejoin: miter"/>
   </g>
   <g id="patch_32">
    <path d="M 303.709688 340.36 
L 308.677233 340.36 
L 308.677233 339.67691 
L 303.709688 339.67691 
z
" clip-path="url(#p445cf6b4e4)" style="fill: #ffffff; opacity: 0.45; stroke: #000000; stroke-linejoin: miter"/>
   </g>
   <g id="patch_33">
    <path d="M 308.677233 340.36 
L 313.644778 340.36 
L 313.644778 340.132303 
L 308.677233 340.132303 
z
" clip-path="url(#p445cf6b4e4)" style="fill: #ffffff; opacity: 0.45; stroke: #000000; stroke-linejoin: miter"/>
   </g>
   <g id="matplotlib.axis_3"/>
   <g id="LineCollection_1">
    <path d="M 230.497443 340.36 
L 230.497443 123.806 
" clip-path="url(#p445cf6b4e4)" style="fill: none; stroke: #ffb81c; stroke-width: 1.5"/>
   </g>
   <g id="patch_34">
    <path d="M 9.354364 340.36 
L 703.435672 340.36 
" style="fill: none; stroke: #030303; stroke-width: 1.5; stroke-linejoin: miter; stroke-linecap: square"/>
   </g>
   <g id="text_9">
    <!-- $\bar{{x}}$ -->
    <g style="fill: #ffb81c" transform="translate(223.297443 102.15675) scale(0.24 -0.24)">
     <defs>
      <path id="DejaVuSans-304" d="M -2518 4769 
L -650 4769 
L -650 4306 
L -2518 4306 
L -2518 4769 
z
" transform="scale(0.015625)"/>
      <path id="DejaVuSans-Oblique-78" d="M 3841 3500 
L 2234 1784 
L 3219 0 
L 2559 0 
L 1819 1388 
L 531 0 
L -166 0 
L 1556 1844 
L 641 3500 
L 1300 3500 
L 1972 2234 
L 3144 3500 
L 3841 3500 
z
" transform="scale(0.015625)"/>
     </defs>
     <use xlink:href="#DejaVuSans-304" transform="translate(62.138672 0.484375)"/>
     <use xlink:href="#DejaVuSans-Oblique-78" transform="translate(0 0.578125)"/>
    </g>
   </g>
  </g>
  <g id="axes_3">
   <g id="patch_35">
    <path d="M 164.618419 340.36 
L 169.585965 340.36 
L 169.585965 339.449214 
L 164.618419 339.449214 
z
" clip-path="url(#p445cf6b4e4)" style="fill: #ffffff; opacity: 0.3"/>
   </g>
   <g id="patch_36">
    <path d="M 169.585965 340.36 
L 174.55351 340.36 
L 174.55351 338.766124 
L 169.585965 338.766124 
z
" clip-path="url(#p445cf6b4e4)" style="fill: #ffffff; opacity: 0.3"/>
   </g>
   <g id="patch_37">
    <path d="M 174.55351 340.36 
L 179.521055 340.36 
L 179.521055 332.390618 
L 174.55351 332.390618 
z
" clip-path="url(#p445cf6b4e4)" style="fill: #ffffff; opacity: 0.3"/>
   </g>
   <g id="patch_38">
    <path d="M 179.521055 340.36 
L 184.488601 340.36 
L 184.488601 323.965843 
L 179.521055 323.965843 
z
" clip-path="url(#p445cf6b4e4)" style="fill: #ffffff; opacity: 0.3"/>
   </g>
   <g id="patch_39">
    <path d="M 184.488601 340.36 
L 189.456146 340.36 
L 189.456146 312.808709 
L 184.488601 312.808709 
z
" clip-path="url(#p445cf6b4e4)" style="fill: #ffffff; opacity: 0.3"/>
   </g>
   <g id="patch_40">
    <path d="M 189.456146 340.36 
L 194.423691 340.36 
L 194.423691 300.513092 
L 189.456146 300.513092 
z
" clip-path="url(#p445cf6b4e4)" style="fill: #ffc72c; opacity: 0.3"/>
   </g>
   <g id="patch_41">
    <path d="M 194.423691 340.36 
L 199.391236 340.36 
L 199.391236 284.118935 
L 194.423691 284.118935 
z
" clip-path="url(#p445cf6b4e4)" style="fill: #ffc72c; opacity: 0.3"/>
   </g>
   <g id="patch_42">
    <path d="M 199.391236 340.36 
L 204.358782 340.36 
L 204.358782 250.875229 
L 199.391236 250.875229 
z
" clip-path="url(#p445cf6b4e4)" style="fill: #ffc72c; opacity: 0.3"/>
   </g>
   <g id="patch_43">
    <path d="M 204.358782 340.36 
L 209.326327 340.36 
L 209.326327 223.323938 
L 204.358782 223.323938 
z
" clip-path="url(#p445cf6b4e4)" style="fill: #ffc72c; opacity: 0.3"/>
   </g>
   <g id="patch_44">
    <path d="M 209.326327 340.36 
L 214.293872 340.36 
L 214.293872 179.833884 
L 209.326327 179.833884 
z
" clip-path="url(#p445cf6b4e4)" style="fill: #ffc72c; opacity: 0.3"/>
   </g>
   <g id="patch_45">
    <path d="M 214.293872 340.36 
L 219.261418 340.36 
L 219.261418 157.291919 
L 214.293872 157.291919 
z
" clip-path="url(#p445cf6b4e4)" style="fill: #ffc72c; opacity: 0.3"/>
   </g>
   <g id="patch_46">
    <path d="M 219.261418 340.36 
L 224.228963 340.36 
L 224.228963 145.223998 
L 219.261418 145.223998 
z
" clip-path="url(#p445cf6b4e4)" style="fill: #ffc72c; opacity: 0.3"/>
   </g>
   <g id="patch_47">
    <path d="M 224.228963 340.36 
L 229.196508 340.36 
L 229.196508 136.799223 
L 224.228963 136.799223 
z
" clip-path="url(#p445cf6b4e4)" style="fill: #ffc72c; opacity: 0.3"/>
   </g>
   <g id="patch_48">
    <path d="M 229.196508 340.36 
L 234.164054 340.36 
L 234.164054 128.829841 
L 229.196508 128.829841 
z
" clip-path="url(#p445cf6b4e4)" style="fill: #ffc72c; opacity: 0.3"/>
   </g>
   <g id="patch_49">
    <path d="M 234.164054 340.36 
L 239.131599 340.36 
L 239.131599 132.92838 
L 234.164054 132.92838 
z
" clip-path="url(#p445cf6b4e4)" style="fill: #ffc72c; opacity: 0.3"/>
   </g>
   <g id="patch_50">
    <path d="M 239.131599 340.36 
L 244.099144 340.36 
L 244.099144 164.350514 
L 239.131599 164.350514 
z
" clip-path="url(#p445cf6b4e4)" style="fill: #ffc72c; opacity: 0.3"/>
   </g>
   <g id="patch_51">
    <path d="M 244.099144 340.36 
L 249.06669 340.36 
L 249.06669 197.59422 
L 244.099144 197.59422 
z
" clip-path="url(#p445cf6b4e4)" style="fill: #ffc72c; opacity: 0.3"/>
   </g>
   <g id="patch_52">
    <path d="M 249.06669 340.36 
L 254.034235 340.36 
L 254.034235 216.265343 
L 249.06669 216.265343 
z
" clip-path="url(#p445cf6b4e4)" style="fill: #ffc72c; opacity: 0.3"/>
   </g>
   <g id="patch_53">
    <path d="M 254.034235 340.36 
L 259.00178 340.36 
L 259.00178 242.905847 
L 254.034235 242.905847 
z
" clip-path="url(#p445cf6b4e4)" style="fill: #ffc72c; opacity: 0.3"/>
   </g>
   <g id="patch_54">
    <path d="M 259.00178 340.36 
L 263.969325 340.36 
L 263.969325 269.546352 
L 259.00178 269.546352 
z
" clip-path="url(#p445cf6b4e4)" style="fill: #ffc72c; opacity: 0.3"/>
   </g>
   <g id="patch_55">
    <path d="M 263.969325 340.36 
L 268.936871 340.36 
L 268.936871 287.306688 
L 263.969325 287.306688 
z
" clip-path="url(#p445cf6b4e4)" style="fill: #ffc72c; opacity: 0.3"/>
   </g>
   <g id="patch_56">
    <path d="M 268.936871 340.36 
L 273.904416 340.36 
L 273.904416 304.839327 
L 268.936871 304.839327 
z
" clip-path="url(#p445cf6b4e4)" style="fill: #ffc72c; opacity: 0.3"/>
   </g>
   <g id="patch_57">
    <path d="M 273.904416 340.36 
L 278.871961 340.36 
L 278.871961 318.273428 
L 273.904416 318.273428 
z
" clip-path="url(#p445cf6b4e4)" style="fill: #ffffff; opacity: 0.3"/>
   </g>
   <g id="patch_58">
    <path d="M 278.871961 340.36 
L 283.839507 340.36 
L 283.839507 324.19354 
L 278.871961 324.19354 
z
" clip-path="url(#p445cf6b4e4)" style="fill: #ffffff; opacity: 0.3"/>
   </g>
   <g id="patch_59">
    <path d="M 283.839507 340.36 
L 288.807052 340.36 
L 288.807052 331.479832 
L 283.839507 331.479832 
z
" clip-path="url(#p445cf6b4e4)" style="fill: #ffffff; opacity: 0.3"/>
   </g>
   <g id="patch_60">
    <path d="M 288.807052 340.36 
L 293.774597 340.36 
L 293.774597 333.529101 
L 288.807052 333.529101 
z
" clip-path="url(#p445cf6b4e4)" style="fill: #ffffff; opacity: 0.3"/>
   </g>
   <g id="patch_61">
    <path d="M 293.774597 340.36 
L 298.742143 340.36 
L 298.742143 337.627641 
L 293.774597 337.627641 
z
" clip-path="url(#p445cf6b4e4)" style="fill: #ffffff; opacity: 0.3"/>
   </g>
   <g id="patch_62">
    <path d="M 298.742143 340.36 
L 303.709688 340.36 
L 303.709688 338.99382 
L 298.742143 338.99382 
z
" clip-path="url(#p445cf6b4e4)" style="fill: #ffffff; opacity: 0.3"/>
   </g>
   <g id="patch_63">
    <path d="M 303.709688 340.36 
L 308.677233 340.36 
L 308.677233 339.67691 
L 303.709688 339.67691 
z
" clip-path="url(#p445cf6b4e4)" style="fill: #ffffff; opacity: 0.3"/>
   </g>
   <g id="patch_64">
    <path d="M 308.677233 340.36 
L 313.644778 340.36 
L 313.644778 340.132303 
L 308.677233 340.132303 
z
" clip-path="url(#p445cf6b4e4)" style="fill: #ffffff; opacity: 0.3"/>
   </g>
   <g id="matplotlib.axis_4"/>
   <g id="patch_65">
    <path d="M 9.354364 340.36 
L 703.435672 340.36 
" style="fill: none; stroke: #030303; stroke-width: 1.5; stroke-linejoin: miter; stroke-linecap: square"/>
   </g>
  </g>
  <g id="axes_4">
   <g id="matplotlib.axis_5"/>
   <g id="LineCollection_2">
    <path d="M 214.584158 340.36 
L 214.584158 128.829841 
" clip-path="url(#p445cf6b4e4)" style="fill: none; stroke: #003b5c; stroke-width: 2"/>
   </g>
   <g id="patch_66">
    <path d="M 9.354364 340.36 
L 703.435672 340.36 
" style="fill: none; stroke: #030303; stroke-width: 1.5; stroke-linejoin: miter; stroke-linecap: square"/>
   </g>
   <g id="text_10">
    <!-- $\mu$ -->
    <g style="fill: #003b5c" transform="translate(206.904158 102.108) scale(0.24 -0.24)">
     <defs>
      <path id="DejaVuSans-Oblique-3bc" d="M -84 -1331 
L 856 3500 
L 1434 3500 
L 1009 1322 
Q 997 1256 987 1175 
Q 978 1094 978 1013 
Q 978 722 1161 565 
Q 1344 409 1684 409 
Q 2147 409 2431 671 
Q 2716 934 2816 1459 
L 3213 3500 
L 3788 3500 
L 3266 809 
Q 3253 750 3248 706 
Q 3244 663 3244 628 
Q 3244 531 3283 486 
Q 3322 441 3406 441 
Q 3438 441 3492 456 
Q 3547 472 3647 513 
L 3559 50 
Q 3422 -19 3297 -55 
Q 3172 -91 3053 -91 
Q 2847 -91 2730 40 
Q 2613 172 2613 403 
Q 2438 153 2195 31 
Q 1953 -91 1625 -91 
Q 1334 -91 1117 43 
Q 900 178 831 397 
L 494 -1331 
L -84 -1331 
z
" transform="scale(0.015625)"/>
     </defs>
     <use xlink:href="#DejaVuSans-Oblique-3bc" transform="translate(0 0.3125)"/>
    </g>
   </g>
   <g id="patch_67">
    <path d="M 270.08338 323.702 
Q 232.052037 323.702 194.020693 323.702 
" style="fill: none; stroke: #000000; stroke-width: 2; stroke-linecap: round"/>
    <path d="M 266.08338 321.702 
L 270.08338 323.702 
L 266.08338 325.702 
" style="fill: none; stroke: #000000; stroke-width: 2; stroke-linecap: round"/>
    <path d="M 198.020693 325.702 
L 194.020693 323.702 
L 198.020693 321.702 
" style="fill: none; stroke: #000000; stroke-width: 2; stroke-linecap: round"/>
   </g>
   <g id="patch_68">
    <path d="M 386.932823 201.604271 
Q 296.494404 239.845333 234.496157 318.614629 
" style="fill: none; stroke: #ff0000; stroke-width: 4; stroke-linecap: round"/>
    <path d="M 242.587238 314.802228 
L 234.496157 318.614629 
L 236.300884 309.854324 
z
" style="fill: #ff0000; stroke: #ff0000; stroke-width: 4; stroke-linecap: round"/>
   </g>
   <g id="text_11">
    <!-- 95% Confidence Interval -->
    <g transform="translate(336.726244 166.965125) scale(0.24 -0.24)">
     <defs>
      <path id="DejaVuSerif-39" d="M 2994 2091 
Q 2784 1856 2512 1740 
Q 2241 1625 1900 1625 
Q 1206 1625 804 2044 
Q 403 2463 403 3188 
Q 403 3897 839 4323 
Q 1275 4750 2003 4750 
Q 2794 4750 3217 4161 
Q 3641 3572 3641 2478 
Q 3641 1253 3137 581 
Q 2634 -91 1722 -91 
Q 1475 -91 1203 -44 
Q 931 3 647 97 
L 647 872 
L 997 872 
Q 1038 556 1241 387 
Q 1444 219 1784 219 
Q 2391 219 2687 676 
Q 2984 1134 2994 2091 
z
M 1978 4441 
Q 1534 4441 1298 4117 
Q 1063 3794 1063 3188 
Q 1063 2581 1298 2256 
Q 1534 1931 1978 1931 
Q 2422 1931 2658 2245 
Q 2894 2559 2894 3150 
Q 2894 3772 2656 4106 
Q 2419 4441 1978 4441 
z
" transform="scale(0.015625)"/>
      <path id="DejaVuSerif-25" d="M 1434 4459 
Q 1159 4459 1004 4200 
Q 850 3941 850 3475 
Q 850 3016 1008 2753 
Q 1166 2491 1434 2491 
Q 1700 2491 1854 2752 
Q 2009 3013 2009 3475 
Q 2009 3938 1854 4198 
Q 1700 4459 1434 4459 
z
M 4653 2169 
Q 4381 2169 4226 1906 
Q 4072 1644 4072 1178 
Q 4072 719 4228 458 
Q 4384 197 4653 197 
Q 4922 197 5075 458 
Q 5228 719 5228 1178 
Q 5228 1641 5073 1905 
Q 4919 2169 4653 2169 
z
M 4653 2450 
Q 5147 2450 5437 2106 
Q 5728 1763 5728 1178 
Q 5728 594 5436 251 
Q 5144 -91 4653 -91 
Q 4153 -91 3862 251 
Q 3572 594 3572 1178 
Q 3572 1766 3864 2108 
Q 4156 2450 4653 2450 
z
M 4263 4750 
L 4738 4750 
L 1819 -91 
L 1344 -91 
L 4263 4750 
z
M 1428 4750 
Q 1922 4750 2215 4408 
Q 2509 4066 2509 3481 
Q 2509 2891 2217 2550 
Q 1925 2209 1428 2209 
Q 931 2209 642 2551 
Q 353 2894 353 3481 
Q 353 4063 643 4406 
Q 934 4750 1428 4750 
z
" transform="scale(0.015625)"/>
      <path id="DejaVuSerif-43" d="M 4513 1234 
Q 4306 581 3820 245 
Q 3334 -91 2591 -91 
Q 2134 -91 1743 65 
Q 1353 222 1050 525 
Q 700 875 529 1320 
Q 359 1766 359 2328 
Q 359 3416 987 4083 
Q 1616 4750 2644 4750 
Q 3025 4750 3456 4650 
Q 3888 4550 4384 4347 
L 4384 3272 
L 4031 3272 
Q 3916 3859 3567 4137 
Q 3219 4416 2591 4416 
Q 1844 4416 1459 3886 
Q 1075 3356 1075 2328 
Q 1075 1303 1459 773 
Q 1844 244 2591 244 
Q 3113 244 3450 492 
Q 3788 741 3938 1234 
L 4513 1234 
z
" transform="scale(0.015625)"/>
      <path id="DejaVuSerif-6f" d="M 1925 219 
Q 2388 219 2623 584 
Q 2859 950 2859 1663 
Q 2859 2375 2623 2739 
Q 2388 3103 1925 3103 
Q 1463 3103 1227 2739 
Q 991 2375 991 1663 
Q 991 950 1228 584 
Q 1466 219 1925 219 
z
M 1925 -91 
Q 1200 -91 759 389 
Q 319 869 319 1663 
Q 319 2456 758 2934 
Q 1197 3413 1925 3413 
Q 2653 3413 3092 2934 
Q 3531 2456 3531 1663 
Q 3531 869 3092 389 
Q 2653 -91 1925 -91 
z
" transform="scale(0.015625)"/>
      <path id="DejaVuSerif-6e" d="M 263 0 
L 263 331 
L 781 331 
L 781 2988 
L 231 2988 
L 231 3322 
L 1356 3322 
L 1356 2731 
Q 1516 3069 1770 3241 
Q 2025 3413 2363 3413 
Q 2913 3413 3172 3097 
Q 3431 2781 3431 2113 
L 3431 331 
L 3944 331 
L 3944 0 
L 2356 0 
L 2356 331 
L 2853 331 
L 2853 1931 
Q 2853 2541 2703 2767 
Q 2553 2994 2175 2994 
Q 1775 2994 1565 2701 
Q 1356 2409 1356 1850 
L 1356 331 
L 1856 331 
L 1856 0 
L 263 0 
z
" transform="scale(0.015625)"/>
      <path id="DejaVuSerif-66" d="M 2753 4078 
L 2450 4078 
Q 2447 4313 2317 4434 
Q 2188 4556 1941 4556 
Q 1619 4556 1487 4379 
Q 1356 4203 1356 3750 
L 1356 3322 
L 2284 3322 
L 2284 2988 
L 1356 2988 
L 1356 331 
L 2094 331 
L 2094 0 
L 231 0 
L 231 331 
L 781 331 
L 781 2988 
L 231 2988 
L 231 3322 
L 781 3322 
L 781 3738 
Q 781 4294 1070 4578 
Q 1359 4863 1919 4863 
Q 2128 4863 2337 4825 
Q 2547 4788 2753 4709 
L 2753 4078 
z
" transform="scale(0.015625)"/>
      <path id="DejaVuSerif-69" d="M 622 4353 
Q 622 4497 726 4603 
Q 831 4709 978 4709 
Q 1122 4709 1226 4603 
Q 1331 4497 1331 4353 
Q 1331 4206 1228 4103 
Q 1125 4000 978 4000 
Q 831 4000 726 4103 
Q 622 4206 622 4353 
z
M 1356 331 
L 1900 331 
L 1900 0 
L 231 0 
L 231 331 
L 781 331 
L 781 2988 
L 231 2988 
L 231 3322 
L 1356 3322 
L 1356 331 
z
" transform="scale(0.015625)"/>
      <path id="DejaVuSerif-64" d="M 3359 331 
L 3909 331 
L 3909 0 
L 2784 0 
L 2784 519 
Q 2616 206 2355 57 
Q 2094 -91 1709 -91 
Q 1097 -91 708 395 
Q 319 881 319 1663 
Q 319 2444 706 2928 
Q 1094 3413 1709 3413 
Q 2094 3413 2355 3264 
Q 2616 3116 2784 2803 
L 2784 4531 
L 2241 4531 
L 2241 4863 
L 3359 4863 
L 3359 331 
z
M 2784 1497 
L 2784 1825 
Q 2784 2422 2554 2737 
Q 2325 3053 1888 3053 
Q 1444 3053 1217 2703 
Q 991 2353 991 1663 
Q 991 975 1217 622 
Q 1444 269 1888 269 
Q 2325 269 2554 583 
Q 2784 897 2784 1497 
z
" transform="scale(0.015625)"/>
      <path id="DejaVuSerif-65" d="M 3469 1600 
L 991 1600 
L 991 1575 
Q 991 903 1244 561 
Q 1497 219 1991 219 
Q 2369 219 2611 417 
Q 2853 616 2950 1006 
L 3413 1006 
Q 3275 459 2904 184 
Q 2534 -91 1931 -91 
Q 1203 -91 761 389 
Q 319 869 319 1663 
Q 319 2450 753 2931 
Q 1188 3413 1894 3413 
Q 2647 3413 3050 2948 
Q 3453 2484 3469 1600 
z
M 2791 1931 
Q 2772 2513 2545 2808 
Q 2319 3103 1894 3103 
Q 1497 3103 1269 2806 
Q 1041 2509 991 1931 
L 2791 1931 
z
" transform="scale(0.015625)"/>
      <path id="DejaVuSerif-63" d="M 3291 997 
Q 3169 466 2822 187 
Q 2475 -91 1925 -91 
Q 1200 -91 759 389 
Q 319 869 319 1663 
Q 319 2459 759 2936 
Q 1200 3413 1925 3413 
Q 2241 3413 2553 3339 
Q 2866 3266 3181 3116 
L 3181 2266 
L 2847 2266 
Q 2781 2703 2561 2903 
Q 2341 3103 1931 3103 
Q 1466 3103 1228 2742 
Q 991 2381 991 1663 
Q 991 944 1227 581 
Q 1463 219 1931 219 
Q 2303 219 2525 412 
Q 2747 606 2828 997 
L 3291 997 
z
" transform="scale(0.015625)"/>
      <path id="DejaVuSerif-49" d="M 1581 331 
L 2175 331 
L 2175 0 
L 353 0 
L 353 331 
L 947 331 
L 947 4331 
L 353 4331 
L 353 4666 
L 2175 4666 
L 2175 4331 
L 1581 4331 
L 1581 331 
z
" transform="scale(0.015625)"/>
      <path id="DejaVuSerif-74" d="M 691 2988 
L 184 2988 
L 184 3322 
L 691 3322 
L 691 4353 
L 1269 4353 
L 1269 3322 
L 2350 3322 
L 2350 2988 
L 1269 2988 
L 1269 878 
Q 1269 456 1350 337 
Q 1431 219 1650 219 
Q 1875 219 1978 351 
Q 2081 484 2088 781 
L 2522 781 
Q 2497 328 2275 118 
Q 2053 -91 1600 -91 
Q 1103 -91 897 129 
Q 691 350 691 878 
L 691 2988 
z
" transform="scale(0.015625)"/>
      <path id="DejaVuSerif-76" d="M 1581 0 
L 359 2988 
L -19 2988 
L -19 3322 
L 1509 3322 
L 1509 2988 
L 978 2988 
L 1913 703 
L 2847 2988 
L 2350 2988 
L 2350 3322 
L 3597 3322 
L 3597 2988 
L 3225 2988 
L 2003 0 
L 1581 0 
z
" transform="scale(0.015625)"/>
     </defs>
     <use xlink:href="#DejaVuSerif-39"/>
     <use xlink:href="#DejaVuSerif-35" transform="translate(63.623047 0)"/>
     <use xlink:href="#DejaVuSerif-25" transform="translate(127.246094 0)"/>
     <use xlink:href="#DejaVuSerif-20" transform="translate(222.265625 0)"/>
     <use xlink:href="#DejaVuSerif-43" transform="translate(254.052734 0)"/>
     <use xlink:href="#DejaVuSerif-6f" transform="translate(330.566406 0)"/>
     <use xlink:href="#DejaVuSerif-6e" transform="translate(390.771484 0)"/>
     <use xlink:href="#DejaVuSerif-66" transform="translate(455.175781 0)"/>
     <use xlink:href="#DejaVuSerif-69" transform="translate(492.1875 0)"/>
     <use xlink:href="#DejaVuSerif-64" transform="translate(524.169922 0)"/>
     <use xlink:href="#DejaVuSerif-65" transform="translate(588.183594 0)"/>
     <use xlink:href="#DejaVuSerif-6e" transform="translate(647.363281 0)"/>
     <use xlink:href="#DejaVuSerif-63" transform="translate(711.767578 0)"/>
     <use xlink:href="#DejaVuSerif-65" transform="translate(767.773438 0)"/>
     <use xlink:href="#DejaVuSerif-20" transform="translate(826.953125 0)"/>
     <use xlink:href="#DejaVuSerif-49" transform="translate(858.740234 0)"/>
     <use xlink:href="#DejaVuSerif-6e" transform="translate(898.242188 0)"/>
     <use xlink:href="#DejaVuSerif-74" transform="translate(962.646484 0)"/>
     <use xlink:href="#DejaVuSerif-65" transform="translate(1002.832031 0)"/>
     <use xlink:href="#DejaVuSerif-72" transform="translate(1062.011719 0)"/>
     <use xlink:href="#DejaVuSerif-76" transform="translate(1109.814453 0)"/>
     <use xlink:href="#DejaVuSerif-61" transform="translate(1166.308594 0)"/>
     <use xlink:href="#DejaVuSerif-6c" transform="translate(1225.927734 0)"/>
    </g>
    <!-- of the mean ($N=50$) -->
    <g transform="translate(363.118744 193.839875) scale(0.24 -0.24)">
     <defs>
      <path id="DejaVuSerif-68" d="M 263 0 
L 263 331 
L 781 331 
L 781 4531 
L 231 4531 
L 231 4863 
L 1356 4863 
L 1356 2731 
Q 1516 3069 1770 3241 
Q 2025 3413 2363 3413 
Q 2913 3413 3172 3097 
Q 3431 2781 3431 2113 
L 3431 331 
L 3944 331 
L 3944 0 
L 2356 0 
L 2356 331 
L 2853 331 
L 2853 1931 
Q 2853 2541 2704 2764 
Q 2556 2988 2175 2988 
Q 1775 2988 1565 2697 
Q 1356 2406 1356 1850 
L 1356 331 
L 1856 331 
L 1856 0 
L 263 0 
z
" transform="scale(0.015625)"/>
      <path id="DejaVuSerif-6d" d="M 3316 2675 
Q 3481 3041 3739 3227 
Q 3997 3413 4341 3413 
Q 4863 3413 5119 3089 
Q 5375 2766 5375 2113 
L 5375 331 
L 5894 331 
L 5894 0 
L 4300 0 
L 4300 331 
L 4800 331 
L 4800 2047 
Q 4800 2556 4650 2772 
Q 4500 2988 4153 2988 
Q 3769 2988 3567 2697 
Q 3366 2406 3366 1850 
L 3366 331 
L 3866 331 
L 3866 0 
L 2291 0 
L 2291 331 
L 2791 331 
L 2791 2069 
Q 2791 2566 2641 2777 
Q 2491 2988 2144 2988 
Q 1759 2988 1557 2697 
Q 1356 2406 1356 1850 
L 1356 331 
L 1856 331 
L 1856 0 
L 263 0 
L 263 331 
L 781 331 
L 781 2994 
L 231 2994 
L 231 3322 
L 1356 3322 
L 1356 2731 
Q 1516 3063 1762 3238 
Q 2009 3413 2322 3413 
Q 2709 3413 2968 3220 
Q 3228 3028 3316 2675 
z
" transform="scale(0.015625)"/>
      <path id="DejaVuSans-Oblique-4e" d="M 1081 4666 
L 1931 4666 
L 3219 666 
L 4000 4666 
L 4616 4666 
L 3706 0 
L 2853 0 
L 1569 4025 
L 788 0 
L 172 0 
L 1081 4666 
z
" transform="scale(0.015625)"/>
      <path id="DejaVuSans-3d" d="M 678 2906 
L 4684 2906 
L 4684 2381 
L 678 2381 
L 678 2906 
z
M 678 1631 
L 4684 1631 
L 4684 1100 
L 678 1100 
L 678 1631 
z
" transform="scale(0.015625)"/>
      <path id="DejaVuSans-35" d="M 691 4666 
L 3169 4666 
L 3169 4134 
L 1269 4134 
L 1269 2991 
Q 1406 3038 1543 3061 
Q 1681 3084 1819 3084 
Q 2600 3084 3056 2656 
Q 3513 2228 3513 1497 
Q 3513 744 3044 326 
Q 2575 -91 1722 -91 
Q 1428 -91 1123 -41 
Q 819 9 494 109 
L 494 744 
Q 775 591 1075 516 
Q 1375 441 1709 441 
Q 2250 441 2565 725 
Q 2881 1009 2881 1497 
Q 2881 1984 2565 2268 
Q 2250 2553 1709 2553 
Q 1456 2553 1204 2497 
Q 953 2441 691 2322 
L 691 4666 
z
" transform="scale(0.015625)"/>
      <path id="DejaVuSans-30" d="M 2034 4250 
Q 1547 4250 1301 3770 
Q 1056 3291 1056 2328 
Q 1056 1369 1301 889 
Q 1547 409 2034 409 
Q 2525 409 2770 889 
Q 3016 1369 3016 2328 
Q 3016 3291 2770 3770 
Q 2525 4250 2034 4250 
z
M 2034 4750 
Q 2819 4750 3233 4129 
Q 3647 3509 3647 2328 
Q 3647 1150 3233 529 
Q 2819 -91 2034 -91 
Q 1250 -91 836 529 
Q 422 1150 422 2328 
Q 422 3509 836 4129 
Q 1250 4750 2034 4750 
z
" transform="scale(0.015625)"/>
     </defs>
     <use xlink:href="#DejaVuSerif-6f" transform="translate(0 0.015625)"/>
     <use xlink:href="#DejaVuSerif-66" transform="translate(60.205078 0.015625)"/>
     <use xlink:href="#DejaVuSerif-20" transform="translate(97.216797 0.015625)"/>
     <use xlink:href="#DejaVuSerif-74" transform="translate(129.003906 0.015625)"/>
     <use xlink:href="#DejaVuSerif-68" transform="translate(169.189453 0.015625)"/>
     <use xlink:href="#DejaVuSerif-65" transform="translate(233.59375 0.015625)"/>
     <use xlink:href="#DejaVuSerif-20" transform="translate(292.773438 0.015625)"/>
     <use xlink:href="#DejaVuSerif-6d" transform="translate(324.560547 0.015625)"/>
     <use xlink:href="#DejaVuSerif-65" transform="translate(419.384766 0.015625)"/>
     <use xlink:href="#DejaVuSerif-61" transform="translate(478.564453 0.015625)"/>
     <use xlink:href="#DejaVuSerif-6e" transform="translate(538.183594 0.015625)"/>
     <use xlink:href="#DejaVuSerif-20" transform="translate(602.587891 0.015625)"/>
     <use xlink:href="#DejaVuSerif-28" transform="translate(634.375 0.015625)"/>
     <use xlink:href="#DejaVuSans-Oblique-4e" transform="translate(673.388672 0.015625)"/>
     <use xlink:href="#DejaVuSans-3d" transform="translate(767.675781 0.015625)"/>
     <use xlink:href="#DejaVuSans-35" transform="translate(870.947266 0.015625)"/>
     <use xlink:href="#DejaVuSans-30" transform="translate(934.570312 0.015625)"/>
     <use xlink:href="#DejaVuSerif-29" transform="translate(998.193359 0.015625)"/>
    </g>
   </g>
  </g>
 </g>
 <defs>
  <clipPath id="p445cf6b4e4">
   <rect x="9.354364" y="7.2" width="694.081307" height="333.16"/>
  </clipPath>
 </defs>
</svg>
