<?xml version="1.0" encoding="utf-8" standalone="no"?>
<!DOCTYPE svg PUBLIC "-//W3C//DTD SVG 1.1//EN"
  "http://www.w3.org/Graphics/SVG/1.1/DTD/svg11.dtd">
<svg xmlns:xlink="http://www.w3.org/1999/xlink" width="712.8pt" height="388.728725pt" viewBox="0 0 712.8 388.728725" xmlns="http://www.w3.org/2000/svg" version="1.1">
 <metadata>
  <rdf:RDF xmlns:dc="http://purl.org/dc/elements/1.1/" xmlns:cc="http://creativecommons.org/ns#" xmlns:rdf="http://www.w3.org/1999/02/22-rdf-syntax-ns#">
   <cc:Work>
    <dc:type rdf:resource="http://purl.org/dc/dcmitype/StillImage"/>
    <dc:date>2025-01-21T06:48:52.674089</dc:date>
    <dc:format>image/svg+xml</dc:format>
    <dc:creator>
     <cc:Agent>
      <dc:title>Matplotlib v3.10.0, https://matplotlib.org/</dc:title>
     </cc:Agent>
    </dc:creator>
   </cc:Work>
  </rdf:RDF>
 </metadata>
 <defs>
  <style type="text/css">*{stroke-linejoin: round; stroke-linecap: butt}</style>
 </defs>
 <g id="figure_1">
  <g id="patch_1">
   <path d="M 0 388.728725 
L 712.8 388.728725 
L 712.8 0 
L 0 0 
L 0 388.728725 
z
" style="fill: none"/>
  </g>
  <g id="axes_1">
   <g id="patch_2">
    <path d="M 7.2 340.2706 
L 705.6 340.2706 
L 705.6 7.2 
L 7.2 7.2 
L 7.2 340.2706 
z
" style="fill: none"/>
   </g>
   <g id="patch_3">
    <path d="M 38.945455 340.2706 
L 55.409698 340.2706 
L 55.409698 339.799665 
L 38.945455 339.799665 
z
" clip-path="url(#pfde01bdc14)" style="fill: #362121; opacity: 0.45"/>
   </g>
   <g id="patch_4">
    <path d="M 55.409698 340.2706 
L 71.873942 340.2706 
L 71.873942 339.32873 
L 55.409698 339.32873 
z
" clip-path="url(#pfde01bdc14)" style="fill: #362121; opacity: 0.45"/>
   </g>
   <g id="patch_5">
    <path d="M 71.873942 340.2706 
L 88.338186 340.2706 
L 88.338186 337.915925 
L 71.873942 337.915925 
z
" clip-path="url(#pfde01bdc14)" style="fill: #362121; opacity: 0.45"/>
   </g>
   <g id="patch_6">
    <path d="M 88.338186 340.2706 
L 104.80243 340.2706 
L 104.80243 327.319885 
L 88.338186 327.319885 
z
" clip-path="url(#pfde01bdc14)" style="fill: #362121; opacity: 0.45"/>
   </g>
   <g id="patch_7">
    <path d="M 104.80243 340.2706 
L 121.266674 340.2706 
L 121.266674 324.494275 
L 104.80243 324.494275 
z
" clip-path="url(#pfde01bdc14)" style="fill: #362121; opacity: 0.45"/>
   </g>
   <g id="patch_8">
    <path d="M 121.266674 340.2706 
L 137.730918 340.2706 
L 137.730918 309.188885 
L 121.266674 309.188885 
z
" clip-path="url(#pfde01bdc14)" style="fill: #362121; opacity: 0.45"/>
   </g>
   <g id="patch_9">
    <path d="M 137.730918 340.2706 
L 154.195161 340.2706 
L 154.195161 283.051988 
L 137.730918 283.051988 
z
" clip-path="url(#pfde01bdc14)" style="fill: #362121; opacity: 0.45"/>
   </g>
   <g id="patch_10">
    <path d="M 154.195161 340.2706 
L 170.659405 340.2706 
L 170.659405 215.472804 
L 154.195161 215.472804 
z
" clip-path="url(#pfde01bdc14)" style="fill: #362121; opacity: 0.45"/>
   </g>
   <g id="patch_11">
    <path d="M 170.659405 340.2706 
L 187.123649 340.2706 
L 187.123649 228.188051 
L 170.659405 228.188051 
z
" clip-path="url(#pfde01bdc14)" style="fill: #362121; opacity: 0.45"/>
   </g>
   <g id="patch_12">
    <path d="M 187.123649 340.2706 
L 203.587893 340.2706 
L 203.587893 244.670779 
L 187.123649 244.670779 
z
" clip-path="url(#pfde01bdc14)" style="fill: #362121; opacity: 0.45"/>
   </g>
   <g id="patch_13">
    <path d="M 203.587893 340.2706 
L 220.052137 340.2706 
L 220.052137 237.842221 
L 203.587893 237.842221 
z
" clip-path="url(#pfde01bdc14)" style="fill: #362121; opacity: 0.45"/>
   </g>
   <g id="patch_14">
    <path d="M 220.052137 340.2706 
L 236.516381 340.2706 
L 236.516381 183.449219 
L 220.052137 183.449219 
z
" clip-path="url(#pfde01bdc14)" style="fill: #362121; opacity: 0.45"/>
   </g>
   <g id="patch_15">
    <path d="M 236.516381 340.2706 
L 252.980624 340.2706 
L 252.980624 38.165747 
L 236.516381 38.165747 
z
" clip-path="url(#pfde01bdc14)" style="fill: #362121; opacity: 0.45"/>
   </g>
   <g id="patch_16">
    <path d="M 252.980624 340.2706 
L 269.444868 340.2706 
L 269.444868 38.87215 
L 252.980624 38.87215 
z
" clip-path="url(#pfde01bdc14)" style="fill: #362121; opacity: 0.45"/>
   </g>
   <g id="patch_17">
    <path d="M 269.444868 340.2706 
L 285.909112 340.2706 
L 285.909112 163.669946 
L 269.444868 163.669946 
z
" clip-path="url(#pfde01bdc14)" style="fill: #362121; opacity: 0.45"/>
   </g>
   <g id="patch_18">
    <path d="M 285.909112 340.2706 
L 302.373356 340.2706 
L 302.373356 201.109284 
L 285.909112 201.109284 
z
" clip-path="url(#pfde01bdc14)" style="fill: #362121; opacity: 0.45"/>
   </g>
   <g id="patch_19">
    <path d="M 302.373356 340.2706 
L 318.8376 340.2706 
L 318.8376 208.173311 
L 302.373356 208.173311 
z
" clip-path="url(#pfde01bdc14)" style="fill: #362121; opacity: 0.45"/>
   </g>
   <g id="patch_20">
    <path d="M 318.8376 340.2706 
L 335.301844 340.2706 
L 335.301844 194.516193 
L 318.8376 194.516193 
z
" clip-path="url(#pfde01bdc14)" style="fill: #362121; opacity: 0.45"/>
   </g>
   <g id="patch_21">
    <path d="M 335.301844 340.2706 
L 351.766087 340.2706 
L 351.766087 115.870035 
L 335.301844 115.870035 
z
" clip-path="url(#pfde01bdc14)" style="fill: #362121; opacity: 0.45"/>
   </g>
   <g id="patch_22">
    <path d="M 351.766087 340.2706 
L 368.230331 340.2706 
L 368.230331 186.039362 
L 351.766087 186.039362 
z
" clip-path="url(#pfde01bdc14)" style="fill: #362121; opacity: 0.45"/>
   </g>
   <g id="patch_23">
    <path d="M 368.230331 340.2706 
L 384.694575 340.2706 
L 384.694575 296.473638 
L 368.230331 296.473638 
z
" clip-path="url(#pfde01bdc14)" style="fill: #362121; opacity: 0.45"/>
   </g>
   <g id="patch_24">
    <path d="M 384.694575 340.2706 
L 401.158819 340.2706 
L 401.158819 331.087366 
L 384.694575 331.087366 
z
" clip-path="url(#pfde01bdc14)" style="fill: #362121; opacity: 0.45"/>
   </g>
   <g id="patch_25">
    <path d="M 401.158819 340.2706 
L 417.623063 340.2706 
L 417.623063 336.738587 
L 401.158819 336.738587 
z
" clip-path="url(#pfde01bdc14)" style="fill: #362121; opacity: 0.45"/>
   </g>
   <g id="patch_26">
    <path d="M 417.623063 340.2706 
L 434.087307 340.2706 
L 434.087307 337.915925 
L 417.623063 337.915925 
z
" clip-path="url(#pfde01bdc14)" style="fill: #362121; opacity: 0.45"/>
   </g>
   <g id="patch_27">
    <path d="M 434.087307 340.2706 
L 450.551551 340.2706 
L 450.551551 336.974054 
L 434.087307 336.974054 
z
" clip-path="url(#pfde01bdc14)" style="fill: #362121; opacity: 0.45"/>
   </g>
   <g id="patch_28">
    <path d="M 450.551551 340.2706 
L 467.015794 340.2706 
L 467.015794 339.32873 
L 450.551551 339.32873 
z
" clip-path="url(#pfde01bdc14)" style="fill: #362121; opacity: 0.45"/>
   </g>
   <g id="patch_29">
    <path d="M 467.015794 340.2706 
L 483.480038 340.2706 
L 483.480038 338.622327 
L 467.015794 338.622327 
z
" clip-path="url(#pfde01bdc14)" style="fill: #362121; opacity: 0.45"/>
   </g>
   <g id="patch_30">
    <path d="M 483.480038 340.2706 
L 499.944282 340.2706 
L 499.944282 339.799665 
L 483.480038 339.799665 
z
" clip-path="url(#pfde01bdc14)" style="fill: #362121; opacity: 0.45"/>
   </g>
   <g id="patch_31">
    <path d="M 499.944282 340.2706 
L 516.408526 340.2706 
L 516.408526 340.2706 
L 499.944282 340.2706 
z
" clip-path="url(#pfde01bdc14)" style="fill: #362121; opacity: 0.45"/>
   </g>
   <g id="patch_32">
    <path d="M 516.408526 340.2706 
L 532.87277 340.2706 
L 532.87277 339.093262 
L 516.408526 339.093262 
z
" clip-path="url(#pfde01bdc14)" style="fill: #362121; opacity: 0.45"/>
   </g>
   <g id="matplotlib.axis_1">
    <g id="xtick_1">
     <g id="line2d_1">
      <defs>
       <path id="mc17d17754e" d="M 0 0 
L 0 3.5 
" style="stroke: #030303; stroke-width: 0.8"/>
      </defs>
      <g>
       <use xlink:href="#mc17d17754e" x="114.949951" y="340.2706" style="fill: #030303; stroke: #030303; stroke-width: 0.8"/>
      </g>
     </g>
     <g id="text_1">
      <!-- $60K -->
      <g style="fill: #030303" transform="translate(97.687373 357.148569) scale(0.13 -0.13)">
       <defs>
        <path id="DejaVuSerif-24" d="M 2156 213 
Q 2509 244 2695 416 
Q 2881 588 2881 884 
Q 2881 1153 2697 1340 
Q 2513 1528 2156 1625 
L 2156 213 
z
M 1844 3709 
Q 1522 3688 1344 3523 
Q 1166 3359 1166 3084 
Q 1166 2834 1330 2668 
Q 1494 2503 1844 2400 
L 1844 3709 
z
M 550 225 
L 550 1088 
L 888 1088 
Q 900 659 1137 440 
Q 1375 222 1844 213 
L 1844 1728 
Q 1125 1928 834 2189 
Q 544 2450 544 2881 
Q 544 3381 887 3684 
Q 1231 3988 1844 4025 
L 1844 4863 
L 2156 4863 
L 2156 4025 
Q 2472 4000 2764 3923 
Q 3056 3847 3334 3719 
L 3334 2900 
L 2994 2900 
Q 2956 3263 2740 3472 
Q 2525 3681 2156 3709 
L 2156 2297 
Q 2925 2088 3233 1817 
Q 3541 1547 3541 1094 
Q 3541 575 3178 262 
Q 2816 -50 2156 -97 
L 2156 -941 
L 1844 -941 
L 1844 -97 
Q 1544 -91 1222 -11 
Q 900 69 550 225 
z
" transform="scale(0.015625)"/>
        <path id="DejaVuSerif-36" d="M 2094 219 
Q 2534 219 2771 542 
Q 3009 866 3009 1472 
Q 3009 2078 2771 2401 
Q 2534 2725 2094 2725 
Q 1647 2725 1412 2412 
Q 1178 2100 1178 1509 
Q 1178 888 1415 553 
Q 1653 219 2094 219 
z
M 1075 2569 
Q 1288 2803 1556 2918 
Q 1825 3034 2163 3034 
Q 2859 3034 3264 2615 
Q 3669 2197 3669 1472 
Q 3669 763 3233 336 
Q 2797 -91 2069 -91 
Q 1278 -91 853 498 
Q 428 1088 428 2181 
Q 428 3406 931 4078 
Q 1434 4750 2350 4750 
Q 2597 4750 2869 4703 
Q 3141 4656 3425 4563 
L 3425 3794 
L 3072 3794 
Q 3034 4109 2831 4275 
Q 2628 4441 2284 4441 
Q 1678 4441 1381 3981 
Q 1084 3522 1075 2569 
z
" transform="scale(0.015625)"/>
        <path id="DejaVuSerif-30" d="M 2034 219 
Q 2513 219 2750 744 
Q 2988 1269 2988 2328 
Q 2988 3391 2750 3916 
Q 2513 4441 2034 4441 
Q 1556 4441 1318 3916 
Q 1081 3391 1081 2328 
Q 1081 1269 1318 744 
Q 1556 219 2034 219 
z
M 2034 -91 
Q 1275 -91 848 546 
Q 422 1184 422 2328 
Q 422 3475 848 4112 
Q 1275 4750 2034 4750 
Q 2797 4750 3222 4112 
Q 3647 3475 3647 2328 
Q 3647 1184 3222 546 
Q 2797 -91 2034 -91 
z
" transform="scale(0.015625)"/>
        <path id="DejaVuSerif-4b" d="M 353 0 
L 353 331 
L 947 331 
L 947 4331 
L 353 4331 
L 353 4666 
L 2175 4666 
L 2175 4331 
L 1581 4331 
L 1581 2566 
L 3591 4331 
L 3084 4331 
L 3084 4666 
L 4634 4666 
L 4634 4331 
L 4109 4331 
L 2106 2572 
L 4347 331 
L 4878 331 
L 4878 0 
L 3794 0 
L 1581 2216 
L 1581 331 
L 2175 331 
L 2175 0 
L 353 0 
z
" transform="scale(0.015625)"/>
       </defs>
       <use xlink:href="#DejaVuSerif-24"/>
       <use xlink:href="#DejaVuSerif-36" transform="translate(63.623047 0)"/>
       <use xlink:href="#DejaVuSerif-30" transform="translate(127.246094 0)"/>
       <use xlink:href="#DejaVuSerif-4b" transform="translate(190.869141 0)"/>
      </g>
     </g>
    </g>
    <g id="xtick_2">
     <g id="line2d_2">
      <g>
       <use xlink:href="#mc17d17754e" x="248.282298" y="340.2706" style="fill: #030303; stroke: #030303; stroke-width: 0.8"/>
      </g>
     </g>
     <g id="text_2">
      <!-- $80K -->
      <g style="fill: #030303" transform="translate(231.01972 357.148569) scale(0.13 -0.13)">
       <defs>
        <path id="DejaVuSerif-38" d="M 2981 1275 
Q 2981 1775 2732 2051 
Q 2484 2328 2034 2328 
Q 1584 2328 1336 2051 
Q 1088 1775 1088 1275 
Q 1088 772 1336 495 
Q 1584 219 2034 219 
Q 2484 219 2732 495 
Q 2981 772 2981 1275 
z
M 2853 3541 
Q 2853 3966 2637 4203 
Q 2422 4441 2034 4441 
Q 1650 4441 1433 4203 
Q 1216 3966 1216 3541 
Q 1216 3113 1433 2875 
Q 1650 2638 2034 2638 
Q 2422 2638 2637 2875 
Q 2853 3113 2853 3541 
z
M 2516 2484 
Q 3047 2413 3344 2092 
Q 3641 1772 3641 1275 
Q 3641 619 3225 264 
Q 2809 -91 2034 -91 
Q 1263 -91 845 264 
Q 428 619 428 1275 
Q 428 1772 725 2092 
Q 1022 2413 1556 2484 
Q 1084 2569 832 2842 
Q 581 3116 581 3541 
Q 581 4103 968 4426 
Q 1356 4750 2034 4750 
Q 2713 4750 3100 4426 
Q 3488 4103 3488 3541 
Q 3488 3116 3236 2842 
Q 2984 2569 2516 2484 
z
" transform="scale(0.015625)"/>
       </defs>
       <use xlink:href="#DejaVuSerif-24"/>
       <use xlink:href="#DejaVuSerif-38" transform="translate(63.623047 0)"/>
       <use xlink:href="#DejaVuSerif-30" transform="translate(127.246094 0)"/>
       <use xlink:href="#DejaVuSerif-4b" transform="translate(190.869141 0)"/>
      </g>
     </g>
    </g>
    <g id="xtick_3">
     <g id="line2d_3">
      <g>
       <use xlink:href="#mc17d17754e" x="381.614646" y="340.2706" style="fill: #030303; stroke: #030303; stroke-width: 0.8"/>
      </g>
     </g>
     <g id="text_3">
      <!-- $100K -->
      <g style="fill: #030303" transform="translate(360.216443 357.148569) scale(0.13 -0.13)">
       <defs>
        <path id="DejaVuSerif-31" d="M 909 0 
L 909 331 
L 1722 331 
L 1722 4213 
L 781 3603 
L 781 4013 
L 1919 4750 
L 2350 4750 
L 2350 331 
L 3163 331 
L 3163 0 
L 909 0 
z
" transform="scale(0.015625)"/>
       </defs>
       <use xlink:href="#DejaVuSerif-24"/>
       <use xlink:href="#DejaVuSerif-31" transform="translate(63.623047 0)"/>
       <use xlink:href="#DejaVuSerif-30" transform="translate(127.246094 0)"/>
       <use xlink:href="#DejaVuSerif-30" transform="translate(190.869141 0)"/>
       <use xlink:href="#DejaVuSerif-4b" transform="translate(254.492188 0)"/>
      </g>
     </g>
    </g>
    <g id="xtick_4">
     <g id="line2d_4">
      <g>
       <use xlink:href="#mc17d17754e" x="514.946994" y="340.2706" style="fill: #030303; stroke: #030303; stroke-width: 0.8"/>
      </g>
     </g>
     <g id="text_4">
      <!-- $120K -->
      <g style="fill: #030303" transform="translate(493.548791 357.148569) scale(0.13 -0.13)">
       <defs>
        <path id="DejaVuSerif-32" d="M 819 3553 
L 469 3553 
L 469 4384 
Q 803 4563 1142 4656 
Q 1481 4750 1806 4750 
Q 2534 4750 2956 4397 
Q 3378 4044 3378 3438 
Q 3378 2753 2422 1800 
Q 2347 1728 2309 1691 
L 1131 513 
L 3078 513 
L 3078 1088 
L 3444 1088 
L 3444 0 
L 434 0 
L 434 341 
L 1850 1753 
Q 2319 2222 2519 2614 
Q 2719 3006 2719 3438 
Q 2719 3909 2473 4175 
Q 2228 4441 1797 4441 
Q 1350 4441 1106 4219 
Q 863 3997 819 3553 
z
" transform="scale(0.015625)"/>
       </defs>
       <use xlink:href="#DejaVuSerif-24"/>
       <use xlink:href="#DejaVuSerif-31" transform="translate(63.623047 0)"/>
       <use xlink:href="#DejaVuSerif-32" transform="translate(127.246094 0)"/>
       <use xlink:href="#DejaVuSerif-30" transform="translate(190.869141 0)"/>
       <use xlink:href="#DejaVuSerif-4b" transform="translate(254.492188 0)"/>
      </g>
     </g>
    </g>
    <g id="xtick_5">
     <g id="line2d_5">
      <g>
       <use xlink:href="#mc17d17754e" x="648.279341" y="340.2706" style="fill: #030303; stroke: #030303; stroke-width: 0.8"/>
      </g>
     </g>
     <g id="text_5">
      <!-- $140K -->
      <g style="fill: #030303" transform="translate(626.881138 357.148569) scale(0.13 -0.13)">
       <defs>
        <path id="DejaVuSerif-34" d="M 2234 1581 
L 2234 4063 
L 641 1581 
L 2234 1581 
z
M 3609 0 
L 1484 0 
L 1484 331 
L 2234 331 
L 2234 1247 
L 197 1247 
L 197 1588 
L 2241 4750 
L 2859 4750 
L 2859 1581 
L 3750 1581 
L 3750 1247 
L 2859 1247 
L 2859 331 
L 3609 331 
L 3609 0 
z
" transform="scale(0.015625)"/>
       </defs>
       <use xlink:href="#DejaVuSerif-24"/>
       <use xlink:href="#DejaVuSerif-31" transform="translate(63.623047 0)"/>
       <use xlink:href="#DejaVuSerif-34" transform="translate(127.246094 0)"/>
       <use xlink:href="#DejaVuSerif-30" transform="translate(190.869141 0)"/>
       <use xlink:href="#DejaVuSerif-4b" transform="translate(254.492188 0)"/>
      </g>
     </g>
    </g>
    <g id="text_6">
     <!-- Salary (USD) -->
     <g style="fill: #030303" transform="translate(296.388281 377.52935) scale(0.18 -0.18)">
      <defs>
       <path id="DejaVuSerif-53" d="M 594 225 
L 594 1288 
L 953 1284 
Q 969 753 1261 498 
Q 1553 244 2150 244 
Q 2706 244 2998 464 
Q 3291 684 3291 1106 
Q 3291 1444 3114 1625 
Q 2938 1806 2369 1978 
L 1753 2163 
Q 1084 2366 811 2669 
Q 538 2972 538 3500 
Q 538 4094 959 4422 
Q 1381 4750 2144 4750 
Q 2469 4750 2856 4679 
Q 3244 4609 3681 4475 
L 3681 3481 
L 3328 3481 
Q 3275 3975 2998 4195 
Q 2722 4416 2156 4416 
Q 1663 4416 1405 4214 
Q 1147 4013 1147 3628 
Q 1147 3294 1340 3103 
Q 1534 2913 2163 2725 
L 2741 2553 
Q 3375 2363 3645 2067 
Q 3916 1772 3916 1275 
Q 3916 597 3481 253 
Q 3047 -91 2188 -91 
Q 1803 -91 1404 -12 
Q 1006 66 594 225 
z
" transform="scale(0.015625)"/>
       <path id="DejaVuSerif-61" d="M 2547 1044 
L 2547 1747 
L 1806 1747 
Q 1378 1747 1168 1562 
Q 959 1378 959 997 
Q 959 650 1171 447 
Q 1384 244 1747 244 
Q 2106 244 2326 466 
Q 2547 688 2547 1044 
z
M 3122 2075 
L 3122 331 
L 3634 331 
L 3634 0 
L 2547 0 
L 2547 359 
Q 2356 128 2106 18 
Q 1856 -91 1522 -91 
Q 969 -91 644 203 
Q 319 497 319 997 
Q 319 1513 691 1797 
Q 1063 2081 1741 2081 
L 2547 2081 
L 2547 2309 
Q 2547 2688 2317 2895 
Q 2088 3103 1672 3103 
Q 1328 3103 1125 2947 
Q 922 2791 872 2484 
L 575 2484 
L 575 3156 
Q 875 3284 1158 3348 
Q 1441 3413 1709 3413 
Q 2400 3413 2761 3070 
Q 3122 2728 3122 2075 
z
" transform="scale(0.015625)"/>
       <path id="DejaVuSerif-6c" d="M 1313 331 
L 1856 331 
L 1856 0 
L 184 0 
L 184 331 
L 738 331 
L 738 4531 
L 184 4531 
L 184 4863 
L 1313 4863 
L 1313 331 
z
" transform="scale(0.015625)"/>
       <path id="DejaVuSerif-72" d="M 3059 3328 
L 3059 2497 
L 2728 2497 
Q 2713 2744 2591 2866 
Q 2469 2988 2234 2988 
Q 1809 2988 1582 2694 
Q 1356 2400 1356 1850 
L 1356 331 
L 2022 331 
L 2022 0 
L 263 0 
L 263 331 
L 781 331 
L 781 2994 
L 231 2994 
L 231 3322 
L 1356 3322 
L 1356 2731 
Q 1525 3078 1790 3245 
Q 2056 3413 2438 3413 
Q 2578 3413 2733 3391 
Q 2888 3369 3059 3328 
z
" transform="scale(0.015625)"/>
       <path id="DejaVuSerif-79" d="M 1381 -609 
L 1600 -56 
L 359 2988 
L -19 2988 
L -19 3322 
L 1509 3322 
L 1509 2988 
L 978 2988 
L 1913 703 
L 2847 2988 
L 2350 2988 
L 2350 3322 
L 3597 3322 
L 3597 2988 
L 3225 2988 
L 1703 -750 
Q 1547 -1138 1356 -1280 
Q 1166 -1422 819 -1422 
Q 672 -1422 517 -1397 
Q 363 -1372 206 -1325 
L 206 -691 
L 500 -691 
Q 519 -903 608 -995 
Q 697 -1088 884 -1088 
Q 1056 -1088 1161 -992 
Q 1266 -897 1381 -609 
z
" transform="scale(0.015625)"/>
       <path id="DejaVuSerif-20" transform="scale(0.015625)"/>
       <path id="DejaVuSerif-28" d="M 2041 -997 
Q 1281 -656 893 83 
Q 506 822 506 1931 
Q 506 3044 893 3783 
Q 1281 4522 2041 4863 
L 2041 4556 
Q 1559 4225 1350 3623 
Q 1141 3022 1141 1931 
Q 1141 844 1350 242 
Q 1559 -359 2041 -691 
L 2041 -997 
z
" transform="scale(0.015625)"/>
       <path id="DejaVuSerif-55" d="M 897 4331 
L 300 4331 
L 300 4666 
L 2125 4666 
L 2125 4331 
L 1528 4331 
L 1528 1919 
Q 1528 1025 1820 672 
Q 2113 319 2828 319 
Q 3544 319 3836 672 
Q 4128 1025 4128 1919 
L 4128 4331 
L 3531 4331 
L 3531 4666 
L 5106 4666 
L 5106 4331 
L 4513 4331 
L 4513 1856 
Q 4513 791 4103 350 
Q 3694 -91 2713 -91 
Q 1731 -91 1314 353 
Q 897 797 897 1856 
L 897 4331 
z
" transform="scale(0.015625)"/>
       <path id="DejaVuSerif-44" d="M 1581 331 
L 2163 331 
Q 3072 331 3558 850 
Q 4044 1369 4044 2338 
Q 4044 3306 3559 3818 
Q 3075 4331 2163 4331 
L 1581 4331 
L 1581 331 
z
M 353 0 
L 353 331 
L 947 331 
L 947 4331 
L 353 4331 
L 353 4666 
L 2209 4666 
Q 3416 4666 4089 4050 
Q 4763 3434 4763 2338 
Q 4763 1238 4088 619 
Q 3413 0 2209 0 
L 353 0 
z
" transform="scale(0.015625)"/>
       <path id="DejaVuSerif-29" d="M 453 -997 
L 453 -691 
Q 934 -359 1145 242 
Q 1356 844 1356 1931 
Q 1356 3022 1145 3623 
Q 934 4225 453 4556 
L 453 4863 
Q 1216 4522 1603 3783 
Q 1991 3044 1991 1931 
Q 1991 822 1603 83 
Q 1216 -656 453 -997 
z
" transform="scale(0.015625)"/>
      </defs>
      <use xlink:href="#DejaVuSerif-53"/>
      <use xlink:href="#DejaVuSerif-61" transform="translate(68.505859 0)"/>
      <use xlink:href="#DejaVuSerif-6c" transform="translate(128.125 0)"/>
      <use xlink:href="#DejaVuSerif-61" transform="translate(160.107422 0)"/>
      <use xlink:href="#DejaVuSerif-72" transform="translate(219.726562 0)"/>
      <use xlink:href="#DejaVuSerif-79" transform="translate(267.529297 0)"/>
      <use xlink:href="#DejaVuSerif-20" transform="translate(324.023438 0)"/>
      <use xlink:href="#DejaVuSerif-28" transform="translate(355.810547 0)"/>
      <use xlink:href="#DejaVuSerif-55" transform="translate(394.824219 0)"/>
      <use xlink:href="#DejaVuSerif-53" transform="translate(479.101562 0)"/>
      <use xlink:href="#DejaVuSerif-44" transform="translate(547.607422 0)"/>
      <use xlink:href="#DejaVuSerif-29" transform="translate(627.783203 0)"/>
     </g>
    </g>
   </g>
   <g id="matplotlib.axis_2"/>
   <g id="LineCollection_1">
    <path d="M 255.572245 340.2706 
L 255.572245 23.85353 
" clip-path="url(#pfde01bdc14)" style="fill: none; stroke: #362121; stroke-width: 1.5"/>
   </g>
   <g id="patch_33">
    <path d="M 7.2 340.2706 
L 705.6 340.2706 
" style="fill: none; stroke: #030303; stroke-width: 1.5; stroke-linejoin: miter; stroke-linecap: square"/>
   </g>
   <g id="text_7">
    <!-- $\tilde{x}_{\text{You}}$ -->
    <g style="fill: #362121" transform="translate(238.202245 22.35868) scale(0.18 -0.18)">
     <defs>
      <path id="DejaVuSans-303" d="M -1621 4281 
L -1799 4453 
Q -1867 4516 -1919 4545 
Q -1971 4575 -2011 4575 
Q -2130 4575 -2186 4461 
Q -2242 4347 -2249 4091 
L -2639 4091 
Q -2633 4513 -2473 4742 
Q -2314 4972 -2030 4972 
Q -1911 4972 -1811 4928 
Q -1711 4884 -1596 4781 
L -1417 4609 
Q -1349 4547 -1297 4517 
Q -1246 4488 -1205 4488 
Q -1086 4488 -1030 4602 
Q -974 4716 -967 4972 
L -577 4972 
Q -583 4550 -742 4320 
Q -902 4091 -1186 4091 
Q -1305 4091 -1405 4134 
Q -1505 4178 -1621 4281 
z
" transform="scale(0.015625)"/>
      <path id="DejaVuSans-Oblique-78" d="M 3841 3500 
L 2234 1784 
L 3219 0 
L 2559 0 
L 1819 1388 
L 531 0 
L -166 0 
L 1556 1844 
L 641 3500 
L 1300 3500 
L 1972 2234 
L 3144 3500 
L 3841 3500 
z
" transform="scale(0.015625)"/>
      <path id="DejaVuSans-59" d="M -13 4666 
L 666 4666 
L 1959 2747 
L 3244 4666 
L 3922 4666 
L 2272 2222 
L 2272 0 
L 1638 0 
L 1638 2222 
L -13 4666 
z
" transform="scale(0.015625)"/>
      <path id="DejaVuSans-6f" d="M 1959 3097 
Q 1497 3097 1228 2736 
Q 959 2375 959 1747 
Q 959 1119 1226 758 
Q 1494 397 1959 397 
Q 2419 397 2687 759 
Q 2956 1122 2956 1747 
Q 2956 2369 2687 2733 
Q 2419 3097 1959 3097 
z
M 1959 3584 
Q 2709 3584 3137 3096 
Q 3566 2609 3566 1747 
Q 3566 888 3137 398 
Q 2709 -91 1959 -91 
Q 1206 -91 779 398 
Q 353 888 353 1747 
Q 353 2609 779 3096 
Q 1206 3584 1959 3584 
z
" transform="scale(0.015625)"/>
      <path id="DejaVuSans-75" d="M 544 1381 
L 544 3500 
L 1119 3500 
L 1119 1403 
Q 1119 906 1312 657 
Q 1506 409 1894 409 
Q 2359 409 2629 706 
Q 2900 1003 2900 1516 
L 2900 3500 
L 3475 3500 
L 3475 0 
L 2900 0 
L 2900 538 
Q 2691 219 2414 64 
Q 2138 -91 1772 -91 
Q 1169 -91 856 284 
Q 544 659 544 1381 
z
M 1991 3584 
L 1991 3584 
z
" transform="scale(0.015625)"/>
     </defs>
     <use xlink:href="#DejaVuSans-303" transform="translate(62.029297 3.3125)"/>
     <use xlink:href="#DejaVuSans-Oblique-78" transform="translate(0 0.046875)"/>
     <use xlink:href="#DejaVuSans-59" transform="translate(60.136719 -16.359375) scale(0.7)"/>
     <use xlink:href="#DejaVuSans-6f" transform="translate(102.895508 -16.359375) scale(0.7)"/>
     <use xlink:href="#DejaVuSans-75" transform="translate(145.722656 -16.359375) scale(0.7)"/>
    </g>
   </g>
  </g>
  <g id="axes_2">
   <g id="patch_34">
    <path d="M 125.528356 340.2706 
L 141.18344 340.2706 
L 141.18344 339.341047 
L 125.528356 339.341047 
z
" clip-path="url(#pfde01bdc14)" style="fill: #9469ad; opacity: 0.45"/>
   </g>
   <g id="patch_35">
    <path d="M 141.18344 340.2706 
L 156.838523 340.2706 
L 156.838523 339.87222 
L 141.18344 339.87222 
z
" clip-path="url(#pfde01bdc14)" style="fill: #9469ad; opacity: 0.45"/>
   </g>
   <g id="patch_36">
    <path d="M 156.838523 340.2706 
L 172.493607 340.2706 
L 172.493607 338.809873 
L 156.838523 338.809873 
z
" clip-path="url(#pfde01bdc14)" style="fill: #9469ad; opacity: 0.45"/>
   </g>
   <g id="patch_37">
    <path d="M 172.493607 340.2706 
L 188.148691 340.2706 
L 188.148691 339.606633 
L 172.493607 339.606633 
z
" clip-path="url(#pfde01bdc14)" style="fill: #9469ad; opacity: 0.45"/>
   </g>
   <g id="patch_38">
    <path d="M 188.148691 340.2706 
L 203.803774 340.2706 
L 203.803774 338.67708 
L 188.148691 338.67708 
z
" clip-path="url(#pfde01bdc14)" style="fill: #9469ad; opacity: 0.45"/>
   </g>
   <g id="patch_39">
    <path d="M 203.803774 340.2706 
L 219.458858 340.2706 
L 219.458858 338.809873 
L 203.803774 338.809873 
z
" clip-path="url(#pfde01bdc14)" style="fill: #9469ad; opacity: 0.45"/>
   </g>
   <g id="patch_40">
    <path d="M 219.458858 340.2706 
L 235.113942 340.2706 
L 235.113942 335.357246 
L 219.458858 335.357246 
z
" clip-path="url(#pfde01bdc14)" style="fill: #9469ad; opacity: 0.45"/>
   </g>
   <g id="patch_41">
    <path d="M 235.113942 340.2706 
L 250.769025 340.2706 
L 250.769025 336.950766 
L 235.113942 336.950766 
z
" clip-path="url(#pfde01bdc14)" style="fill: #9469ad; opacity: 0.45"/>
   </g>
   <g id="patch_42">
    <path d="M 250.769025 340.2706 
L 266.424109 340.2706 
L 266.424109 335.622833 
L 250.769025 335.622833 
z
" clip-path="url(#pfde01bdc14)" style="fill: #9469ad; opacity: 0.45"/>
   </g>
   <g id="patch_43">
    <path d="M 266.424109 340.2706 
L 282.079192 340.2706 
L 282.079192 318.359699 
L 266.424109 318.359699 
z
" clip-path="url(#pfde01bdc14)" style="fill: #9469ad; opacity: 0.45"/>
   </g>
   <g id="patch_44">
    <path d="M 282.079192 340.2706 
L 297.734276 340.2706 
L 297.734276 288.879577 
L 282.079192 288.879577 
z
" clip-path="url(#pfde01bdc14)" style="fill: #9469ad; opacity: 0.45"/>
   </g>
   <g id="patch_45">
    <path d="M 297.734276 340.2706 
L 313.38936 340.2706 
L 313.38936 254.884481 
L 297.734276 254.884481 
z
" clip-path="url(#pfde01bdc14)" style="fill: #9469ad; opacity: 0.45"/>
   </g>
   <g id="patch_46">
    <path d="M 313.38936 340.2706 
L 329.044443 340.2706 
L 329.044443 232.97358 
L 313.38936 232.97358 
z
" clip-path="url(#pfde01bdc14)" style="fill: #9469ad; opacity: 0.45"/>
   </g>
   <g id="patch_47">
    <path d="M 329.044443 340.2706 
L 344.699527 340.2706 
L 344.699527 166.975289 
L 329.044443 166.975289 
z
" clip-path="url(#pfde01bdc14)" style="fill: #9469ad; opacity: 0.45"/>
   </g>
   <g id="patch_48">
    <path d="M 344.699527 340.2706 
L 360.35461 340.2706 
L 360.35461 49.851561 
L 344.699527 49.851561 
z
" clip-path="url(#pfde01bdc14)" style="fill: #9469ad; opacity: 0.45"/>
   </g>
   <g id="patch_49">
    <path d="M 360.35461 340.2706 
L 376.009694 340.2706 
L 376.009694 38.165747 
L 360.35461 38.165747 
z
" clip-path="url(#pfde01bdc14)" style="fill: #9469ad; opacity: 0.45"/>
   </g>
   <g id="patch_50">
    <path d="M 376.009694 340.2706 
L 391.664778 340.2706 
L 391.664778 173.216576 
L 376.009694 173.216576 
z
" clip-path="url(#pfde01bdc14)" style="fill: #9469ad; opacity: 0.45"/>
   </g>
   <g id="patch_51">
    <path d="M 391.664778 340.2706 
L 407.319861 340.2706 
L 407.319861 286.754883 
L 391.664778 286.754883 
z
" clip-path="url(#pfde01bdc14)" style="fill: #9469ad; opacity: 0.45"/>
   </g>
   <g id="patch_52">
    <path d="M 407.319861 340.2706 
L 422.974945 340.2706 
L 422.974945 313.313552 
L 407.319861 313.313552 
z
" clip-path="url(#pfde01bdc14)" style="fill: #9469ad; opacity: 0.45"/>
   </g>
   <g id="patch_53">
    <path d="M 422.974945 340.2706 
L 438.630029 340.2706 
L 438.630029 328.451993 
L 422.974945 328.451993 
z
" clip-path="url(#pfde01bdc14)" style="fill: #9469ad; opacity: 0.45"/>
   </g>
   <g id="patch_54">
    <path d="M 438.630029 340.2706 
L 454.285112 340.2706 
L 454.285112 331.506239 
L 438.630029 331.506239 
z
" clip-path="url(#pfde01bdc14)" style="fill: #9469ad; opacity: 0.45"/>
   </g>
   <g id="patch_55">
    <path d="M 454.285112 340.2706 
L 469.940196 340.2706 
L 469.940196 335.622833 
L 454.285112 335.622833 
z
" clip-path="url(#pfde01bdc14)" style="fill: #9469ad; opacity: 0.45"/>
   </g>
   <g id="patch_56">
    <path d="M 469.940196 340.2706 
L 485.595279 340.2706 
L 485.595279 338.2787 
L 469.940196 338.2787 
z
" clip-path="url(#pfde01bdc14)" style="fill: #9469ad; opacity: 0.45"/>
   </g>
   <g id="patch_57">
    <path d="M 485.595279 340.2706 
L 501.250363 340.2706 
L 501.250363 339.606633 
L 485.595279 339.606633 
z
" clip-path="url(#pfde01bdc14)" style="fill: #9469ad; opacity: 0.45"/>
   </g>
   <g id="patch_58">
    <path d="M 501.250363 340.2706 
L 516.905447 340.2706 
L 516.905447 339.47384 
L 501.250363 339.47384 
z
" clip-path="url(#pfde01bdc14)" style="fill: #9469ad; opacity: 0.45"/>
   </g>
   <g id="patch_59">
    <path d="M 516.905447 340.2706 
L 532.56053 340.2706 
L 532.56053 340.137807 
L 516.905447 340.137807 
z
" clip-path="url(#pfde01bdc14)" style="fill: #9469ad; opacity: 0.45"/>
   </g>
   <g id="patch_60">
    <path d="M 532.56053 340.2706 
L 548.215614 340.2706 
L 548.215614 340.005013 
L 532.56053 340.005013 
z
" clip-path="url(#pfde01bdc14)" style="fill: #9469ad; opacity: 0.45"/>
   </g>
   <g id="patch_61">
    <path d="M 548.215614 340.2706 
L 563.870697 340.2706 
L 563.870697 340.2706 
L 548.215614 340.2706 
z
" clip-path="url(#pfde01bdc14)" style="fill: #9469ad; opacity: 0.45"/>
   </g>
   <g id="patch_62">
    <path d="M 563.870697 340.2706 
L 579.525781 340.2706 
L 579.525781 340.2706 
L 563.870697 340.2706 
z
" clip-path="url(#pfde01bdc14)" style="fill: #9469ad; opacity: 0.45"/>
   </g>
   <g id="patch_63">
    <path d="M 579.525781 340.2706 
L 595.180865 340.2706 
L 595.180865 340.137807 
L 579.525781 340.137807 
z
" clip-path="url(#pfde01bdc14)" style="fill: #9469ad; opacity: 0.45"/>
   </g>
   <g id="matplotlib.axis_3"/>
   <g id="LineCollection_2">
    <path d="M 359.578142 340.2706 
L 359.578142 23.85353 
" clip-path="url(#pfde01bdc14)" style="fill: none; stroke: #9469ad; stroke-width: 1.5"/>
   </g>
   <g id="patch_64">
    <path d="M 7.2 340.2706 
L 705.6 340.2706 
" style="fill: none; stroke: #030303; stroke-width: 1.5; stroke-linejoin: miter; stroke-linecap: square"/>
   </g>
   <g id="text_8">
    <!-- $\tilde{x}_{1}$ -->
    <g style="fill: #9469ad" transform="translate(349.858142 22.268681) scale(0.18 -0.18)">
     <defs>
      <path id="DejaVuSans-31" d="M 794 531 
L 1825 531 
L 1825 4091 
L 703 3866 
L 703 4441 
L 1819 4666 
L 2450 4666 
L 2450 531 
L 3481 531 
L 3481 0 
L 794 0 
L 794 531 
z
" transform="scale(0.015625)"/>
     </defs>
     <use xlink:href="#DejaVuSans-303" transform="translate(62.029297 3.3125)"/>
     <use xlink:href="#DejaVuSans-Oblique-78" transform="translate(0 0.046875)"/>
     <use xlink:href="#DejaVuSans-31" transform="translate(60.136719 -16.359375) scale(0.7)"/>
    </g>
   </g>
  </g>
  <g id="axes_3">
   <g id="patch_65">
    <path d="M 85.079867 340.2706 
L 104.70569 340.2706 
L 104.70569 337.597106 
L 85.079867 337.597106 
z
" clip-path="url(#pfde01bdc14)" style="fill: #88c9c1; opacity: 0.45"/>
   </g>
   <g id="patch_66">
    <path d="M 104.70569 340.2706 
L 124.331513 340.2706 
L 124.331513 335.814776 
L 104.70569 335.814776 
z
" clip-path="url(#pfde01bdc14)" style="fill: #88c9c1; opacity: 0.45"/>
   </g>
   <g id="patch_67">
    <path d="M 124.331513 340.2706 
L 143.957335 340.2706 
L 143.957335 320.070866 
L 124.331513 320.070866 
z
" clip-path="url(#pfde01bdc14)" style="fill: #88c9c1; opacity: 0.45"/>
   </g>
   <g id="patch_68">
    <path d="M 143.957335 340.2706 
L 163.583158 340.2706 
L 163.583158 321.259085 
L 143.957335 321.259085 
z
" clip-path="url(#pfde01bdc14)" style="fill: #88c9c1; opacity: 0.45"/>
   </g>
   <g id="patch_69">
    <path d="M 163.583158 340.2706 
L 183.20898 340.2706 
L 183.20898 318.288536 
L 163.583158 318.288536 
z
" clip-path="url(#pfde01bdc14)" style="fill: #88c9c1; opacity: 0.45"/>
   </g>
   <g id="patch_70">
    <path d="M 183.20898 340.2706 
L 202.834803 340.2706 
L 202.834803 292.147703 
L 183.20898 292.147703 
z
" clip-path="url(#pfde01bdc14)" style="fill: #88c9c1; opacity: 0.45"/>
   </g>
   <g id="patch_71">
    <path d="M 202.834803 340.2706 
L 222.460626 340.2706 
L 222.460626 190.554921 
L 202.834803 190.554921 
z
" clip-path="url(#pfde01bdc14)" style="fill: #88c9c1; opacity: 0.45"/>
   </g>
   <g id="patch_72">
    <path d="M 222.460626 340.2706 
L 242.086448 340.2706 
L 242.086448 38.165747 
L 222.460626 38.165747 
z
" clip-path="url(#pfde01bdc14)" style="fill: #88c9c1; opacity: 0.45"/>
   </g>
   <g id="patch_73">
    <path d="M 242.086448 340.2706 
L 261.712271 340.2706 
L 261.712271 42.027461 
L 242.086448 42.027461 
z
" clip-path="url(#pfde01bdc14)" style="fill: #88c9c1; opacity: 0.45"/>
   </g>
   <g id="patch_74">
    <path d="M 261.712271 340.2706 
L 281.338093 340.2706 
L 281.338093 58.959592 
L 261.712271 58.959592 
z
" clip-path="url(#pfde01bdc14)" style="fill: #88c9c1; opacity: 0.45"/>
   </g>
   <g id="patch_75">
    <path d="M 281.338093 340.2706 
L 300.963916 340.2706 
L 300.963916 52.424384 
L 281.338093 52.424384 
z
" clip-path="url(#pfde01bdc14)" style="fill: #88c9c1; opacity: 0.45"/>
   </g>
   <g id="patch_76">
    <path d="M 300.963916 340.2706 
L 320.589739 340.2706 
L 320.589739 51.533219 
L 300.963916 51.533219 
z
" clip-path="url(#pfde01bdc14)" style="fill: #88c9c1; opacity: 0.45"/>
   </g>
   <g id="patch_77">
    <path d="M 320.589739 340.2706 
L 340.215561 340.2706 
L 340.215561 68.168294 
L 320.589739 68.168294 
z
" clip-path="url(#pfde01bdc14)" style="fill: #88c9c1; opacity: 0.45"/>
   </g>
   <g id="patch_78">
    <path d="M 340.215561 340.2706 
L 359.841384 340.2706 
L 359.841384 102.92372 
L 340.215561 102.92372 
z
" clip-path="url(#pfde01bdc14)" style="fill: #88c9c1; opacity: 0.45"/>
   </g>
   <g id="patch_79">
    <path d="M 359.841384 340.2706 
L 379.467206 340.2706 
L 379.467206 137.679145 
L 359.841384 137.679145 
z
" clip-path="url(#pfde01bdc14)" style="fill: #88c9c1; opacity: 0.45"/>
   </g>
   <g id="patch_80">
    <path d="M 379.467206 340.2706 
L 399.093029 340.2706 
L 399.093029 166.196417 
L 379.467206 166.196417 
z
" clip-path="url(#pfde01bdc14)" style="fill: #88c9c1; opacity: 0.45"/>
   </g>
   <g id="patch_81">
    <path d="M 399.093029 340.2706 
L 418.718852 340.2706 
L 418.718852 216.101644 
L 399.093029 216.101644 
z
" clip-path="url(#pfde01bdc14)" style="fill: #88c9c1; opacity: 0.45"/>
   </g>
   <g id="patch_82">
    <path d="M 418.718852 340.2706 
L 438.344674 340.2706 
L 438.344674 252.936454 
L 418.718852 252.936454 
z
" clip-path="url(#pfde01bdc14)" style="fill: #88c9c1; opacity: 0.45"/>
   </g>
   <g id="patch_83">
    <path d="M 438.344674 340.2706 
L 457.970497 340.2706 
L 457.970497 274.918518 
L 438.344674 274.918518 
z
" clip-path="url(#pfde01bdc14)" style="fill: #88c9c1; opacity: 0.45"/>
   </g>
   <g id="patch_84">
    <path d="M 457.970497 340.2706 
L 477.596319 340.2706 
L 477.596319 293.335923 
L 457.970497 293.335923 
z
" clip-path="url(#pfde01bdc14)" style="fill: #88c9c1; opacity: 0.45"/>
   </g>
   <g id="patch_85">
    <path d="M 477.596319 340.2706 
L 497.222142 340.2706 
L 497.222142 316.209152 
L 477.596319 316.209152 
z
" clip-path="url(#pfde01bdc14)" style="fill: #88c9c1; opacity: 0.45"/>
   </g>
   <g id="patch_86">
    <path d="M 497.222142 340.2706 
L 516.847965 340.2706 
L 516.847965 334.329502 
L 497.222142 334.329502 
z
" clip-path="url(#pfde01bdc14)" style="fill: #88c9c1; opacity: 0.45"/>
   </g>
   <g id="patch_87">
    <path d="M 516.847965 340.2706 
L 536.473787 340.2706 
L 536.473787 339.08238 
L 516.847965 339.08238 
z
" clip-path="url(#pfde01bdc14)" style="fill: #88c9c1; opacity: 0.45"/>
   </g>
   <g id="patch_88">
    <path d="M 536.473787 340.2706 
L 556.09961 340.2706 
L 556.09961 337.597106 
L 536.473787 337.597106 
z
" clip-path="url(#pfde01bdc14)" style="fill: #88c9c1; opacity: 0.45"/>
   </g>
   <g id="patch_89">
    <path d="M 556.09961 340.2706 
L 575.725432 340.2706 
L 575.725432 339.379435 
L 556.09961 339.379435 
z
" clip-path="url(#pfde01bdc14)" style="fill: #88c9c1; opacity: 0.45"/>
   </g>
   <g id="patch_90">
    <path d="M 575.725432 340.2706 
L 595.351255 340.2706 
L 595.351255 339.379435 
L 575.725432 339.379435 
z
" clip-path="url(#pfde01bdc14)" style="fill: #88c9c1; opacity: 0.45"/>
   </g>
   <g id="patch_91">
    <path d="M 595.351255 340.2706 
L 614.977078 340.2706 
L 614.977078 339.973545 
L 595.351255 339.973545 
z
" clip-path="url(#pfde01bdc14)" style="fill: #88c9c1; opacity: 0.45"/>
   </g>
   <g id="patch_92">
    <path d="M 614.977078 340.2706 
L 634.6029 340.2706 
L 634.6029 340.2706 
L 614.977078 340.2706 
z
" clip-path="url(#pfde01bdc14)" style="fill: #88c9c1; opacity: 0.45"/>
   </g>
   <g id="patch_93">
    <path d="M 634.6029 340.2706 
L 654.228723 340.2706 
L 654.228723 340.2706 
L 634.6029 340.2706 
z
" clip-path="url(#pfde01bdc14)" style="fill: #88c9c1; opacity: 0.45"/>
   </g>
   <g id="patch_94">
    <path d="M 654.228723 340.2706 
L 673.854545 340.2706 
L 673.854545 339.973545 
L 654.228723 339.973545 
z
" clip-path="url(#pfde01bdc14)" style="fill: #88c9c1; opacity: 0.45"/>
   </g>
   <g id="matplotlib.axis_4"/>
   <g id="LineCollection_3">
    <path d="M 303.725222 340.2706 
L 303.725222 23.85353 
" clip-path="url(#pfde01bdc14)" style="fill: none; stroke: #88c9c1; stroke-width: 1.5"/>
   </g>
   <g id="patch_95">
    <path d="M 7.2 340.2706 
L 705.6 340.2706 
" style="fill: none; stroke: #030303; stroke-width: 1.5; stroke-linejoin: miter; stroke-linecap: square"/>
   </g>
   <g id="text_9">
    <!-- $\tilde{x}_{2}$ -->
    <g style="fill: #88c9c1" transform="translate(294.005222 22.268681) scale(0.18 -0.18)">
     <defs>
      <path id="DejaVuSans-32" d="M 1228 531 
L 3431 531 
L 3431 0 
L 469 0 
L 469 531 
Q 828 903 1448 1529 
Q 2069 2156 2228 2338 
Q 2531 2678 2651 2914 
Q 2772 3150 2772 3378 
Q 2772 3750 2511 3984 
Q 2250 4219 1831 4219 
Q 1534 4219 1204 4116 
Q 875 4013 500 3803 
L 500 4441 
Q 881 4594 1212 4672 
Q 1544 4750 1819 4750 
Q 2544 4750 2975 4387 
Q 3406 4025 3406 3419 
Q 3406 3131 3298 2873 
Q 3191 2616 2906 2266 
Q 2828 2175 2409 1742 
Q 1991 1309 1228 531 
z
" transform="scale(0.015625)"/>
     </defs>
     <use xlink:href="#DejaVuSans-303" transform="translate(62.029297 3.3125)"/>
     <use xlink:href="#DejaVuSans-Oblique-78" transform="translate(0 0.046875)"/>
     <use xlink:href="#DejaVuSans-32" transform="translate(60.136719 -16.359375) scale(0.7)"/>
    </g>
   </g>
  </g>
  <g id="axes_4">
   <g id="patch_96">
    <path d="M 68.548637 340.2706 
L 82.433559 340.2706 
L 82.433559 339.447105 
L 68.548637 339.447105 
z
" clip-path="url(#pfde01bdc14)" style="fill: #f79a52; opacity: 0.45"/>
   </g>
   <g id="patch_97">
    <path d="M 82.433559 340.2706 
L 96.318482 340.2706 
L 96.318482 339.211821 
L 82.433559 339.211821 
z
" clip-path="url(#pfde01bdc14)" style="fill: #f79a52; opacity: 0.45"/>
   </g>
   <g id="patch_98">
    <path d="M 96.318482 340.2706 
L 110.203405 340.2706 
L 110.203405 338.741253 
L 96.318482 338.741253 
z
" clip-path="url(#pfde01bdc14)" style="fill: #f79a52; opacity: 0.45"/>
   </g>
   <g id="patch_99">
    <path d="M 110.203405 340.2706 
L 124.088327 340.2706 
L 124.088327 334.741422 
L 110.203405 334.741422 
z
" clip-path="url(#pfde01bdc14)" style="fill: #f79a52; opacity: 0.45"/>
   </g>
   <g id="patch_100">
    <path d="M 124.088327 340.2706 
L 137.97325 340.2706 
L 137.97325 305.801472 
L 124.088327 305.801472 
z
" clip-path="url(#pfde01bdc14)" style="fill: #f79a52; opacity: 0.45"/>
   </g>
   <g id="patch_101">
    <path d="M 137.97325 340.2706 
L 151.858173 340.2706 
L 151.858173 180.277376 
L 137.97325 180.277376 
z
" clip-path="url(#pfde01bdc14)" style="fill: #f79a52; opacity: 0.45"/>
   </g>
   <g id="patch_102">
    <path d="M 151.858173 340.2706 
L 165.743095 340.2706 
L 165.743095 38.165747 
L 151.858173 38.165747 
z
" clip-path="url(#pfde01bdc14)" style="fill: #f79a52; opacity: 0.45"/>
   </g>
   <g id="patch_103">
    <path d="M 165.743095 340.2706 
L 179.628018 340.2706 
L 179.628018 143.455406 
L 165.743095 143.455406 
z
" clip-path="url(#pfde01bdc14)" style="fill: #f79a52; opacity: 0.45"/>
   </g>
   <g id="patch_104">
    <path d="M 179.628018 340.2706 
L 193.512941 340.2706 
L 193.512941 248.274496 
L 179.628018 248.274496 
z
" clip-path="url(#pfde01bdc14)" style="fill: #f79a52; opacity: 0.45"/>
   </g>
   <g id="patch_105">
    <path d="M 193.512941 340.2706 
L 207.397863 340.2706 
L 207.397863 268.273649 
L 193.512941 268.273649 
z
" clip-path="url(#pfde01bdc14)" style="fill: #f79a52; opacity: 0.45"/>
   </g>
   <g id="patch_106">
    <path d="M 207.397863 340.2706 
L 221.282786 340.2706 
L 221.282786 284.390614 
L 207.397863 284.390614 
z
" clip-path="url(#pfde01bdc14)" style="fill: #f79a52; opacity: 0.45"/>
   </g>
   <g id="patch_107">
    <path d="M 221.282786 340.2706 
L 235.167708 340.2706 
L 235.167708 271.214701 
L 221.282786 271.214701 
z
" clip-path="url(#pfde01bdc14)" style="fill: #f79a52; opacity: 0.45"/>
   </g>
   <g id="patch_108">
    <path d="M 235.167708 340.2706 
L 249.052631 340.2706 
L 249.052631 279.214362 
L 235.167708 279.214362 
z
" clip-path="url(#pfde01bdc14)" style="fill: #f79a52; opacity: 0.45"/>
   </g>
   <g id="patch_109">
    <path d="M 249.052631 340.2706 
L 262.937554 340.2706 
L 262.937554 317.212753 
L 249.052631 317.212753 
z
" clip-path="url(#pfde01bdc14)" style="fill: #f79a52; opacity: 0.45"/>
   </g>
   <g id="patch_110">
    <path d="M 262.937554 340.2706 
L 276.822476 340.2706 
L 276.822476 316.271616 
L 262.937554 316.271616 
z
" clip-path="url(#pfde01bdc14)" style="fill: #f79a52; opacity: 0.45"/>
   </g>
   <g id="patch_111">
    <path d="M 276.822476 340.2706 
L 290.707399 340.2706 
L 290.707399 325.56534 
L 276.822476 325.56534 
z
" clip-path="url(#pfde01bdc14)" style="fill: #f79a52; opacity: 0.45"/>
   </g>
   <g id="patch_112">
    <path d="M 290.707399 340.2706 
L 304.592322 340.2706 
L 304.592322 323.094857 
L 290.707399 323.094857 
z
" clip-path="url(#pfde01bdc14)" style="fill: #f79a52; opacity: 0.45"/>
   </g>
   <g id="patch_113">
    <path d="M 304.592322 340.2706 
L 318.477244 340.2706 
L 318.477244 323.565425 
L 304.592322 323.565425 
z
" clip-path="url(#pfde01bdc14)" style="fill: #f79a52; opacity: 0.45"/>
   </g>
   <g id="patch_114">
    <path d="M 318.477244 340.2706 
L 332.362167 340.2706 
L 332.362167 327.447614 
L 318.477244 327.447614 
z
" clip-path="url(#pfde01bdc14)" style="fill: #f79a52; opacity: 0.45"/>
   </g>
   <g id="patch_115">
    <path d="M 332.362167 340.2706 
L 346.24709 340.2706 
L 346.24709 330.976876 
L 332.362167 330.976876 
z
" clip-path="url(#pfde01bdc14)" style="fill: #f79a52; opacity: 0.45"/>
   </g>
   <g id="patch_116">
    <path d="M 346.24709 340.2706 
L 360.132012 340.2706 
L 360.132012 336.270769 
L 346.24709 336.270769 
z
" clip-path="url(#pfde01bdc14)" style="fill: #f79a52; opacity: 0.45"/>
   </g>
   <g id="patch_117">
    <path d="M 360.132012 340.2706 
L 374.016935 340.2706 
L 374.016935 339.329463 
L 360.132012 339.329463 
z
" clip-path="url(#pfde01bdc14)" style="fill: #f79a52; opacity: 0.45"/>
   </g>
   <g id="patch_118">
    <path d="M 374.016935 340.2706 
L 387.901858 340.2706 
L 387.901858 339.447105 
L 374.016935 339.447105 
z
" clip-path="url(#pfde01bdc14)" style="fill: #f79a52; opacity: 0.45"/>
   </g>
   <g id="patch_119">
    <path d="M 387.901858 340.2706 
L 401.78678 340.2706 
L 401.78678 340.152958 
L 387.901858 340.152958 
z
" clip-path="url(#pfde01bdc14)" style="fill: #f79a52; opacity: 0.45"/>
   </g>
   <g id="patch_120">
    <path d="M 401.78678 340.2706 
L 415.671703 340.2706 
L 415.671703 339.917674 
L 401.78678 339.917674 
z
" clip-path="url(#pfde01bdc14)" style="fill: #f79a52; opacity: 0.45"/>
   </g>
   <g id="patch_121">
    <path d="M 415.671703 340.2706 
L 429.556626 340.2706 
L 429.556626 340.2706 
L 415.671703 340.2706 
z
" clip-path="url(#pfde01bdc14)" style="fill: #f79a52; opacity: 0.45"/>
   </g>
   <g id="patch_122">
    <path d="M 429.556626 340.2706 
L 443.441548 340.2706 
L 443.441548 340.2706 
L 429.556626 340.2706 
z
" clip-path="url(#pfde01bdc14)" style="fill: #f79a52; opacity: 0.45"/>
   </g>
   <g id="patch_123">
    <path d="M 443.441548 340.2706 
L 457.326471 340.2706 
L 457.326471 340.2706 
L 443.441548 340.2706 
z
" clip-path="url(#pfde01bdc14)" style="fill: #f79a52; opacity: 0.45"/>
   </g>
   <g id="patch_124">
    <path d="M 457.326471 340.2706 
L 471.211394 340.2706 
L 471.211394 340.2706 
L 457.326471 340.2706 
z
" clip-path="url(#pfde01bdc14)" style="fill: #f79a52; opacity: 0.45"/>
   </g>
   <g id="patch_125">
    <path d="M 471.211394 340.2706 
L 485.096316 340.2706 
L 485.096316 340.152958 
L 471.211394 340.152958 
z
" clip-path="url(#pfde01bdc14)" style="fill: #f79a52; opacity: 0.45"/>
   </g>
   <g id="matplotlib.axis_5"/>
   <g id="LineCollection_4">
    <path d="M 162.342934 340.2706 
L 162.342934 23.85353 
" clip-path="url(#pfde01bdc14)" style="fill: none; stroke: #f79a52; stroke-width: 1.5"/>
   </g>
   <g id="patch_126">
    <path d="M 7.2 340.2706 
L 705.6 340.2706 
" style="fill: none; stroke: #030303; stroke-width: 1.5; stroke-linejoin: miter; stroke-linecap: square"/>
   </g>
   <g id="text_10">
    <!-- $\tilde{x}_{3}$ -->
    <g style="fill: #f79a52" transform="translate(152.622934 22.35868) scale(0.18 -0.18)">
     <defs>
      <path id="DejaVuSans-33" d="M 2597 2516 
Q 3050 2419 3304 2112 
Q 3559 1806 3559 1356 
Q 3559 666 3084 287 
Q 2609 -91 1734 -91 
Q 1441 -91 1130 -33 
Q 819 25 488 141 
L 488 750 
Q 750 597 1062 519 
Q 1375 441 1716 441 
Q 2309 441 2620 675 
Q 2931 909 2931 1356 
Q 2931 1769 2642 2001 
Q 2353 2234 1838 2234 
L 1294 2234 
L 1294 2753 
L 1863 2753 
Q 2328 2753 2575 2939 
Q 2822 3125 2822 3475 
Q 2822 3834 2567 4026 
Q 2313 4219 1838 4219 
Q 1578 4219 1281 4162 
Q 984 4106 628 3988 
L 628 4550 
Q 988 4650 1302 4700 
Q 1616 4750 1894 4750 
Q 2613 4750 3031 4423 
Q 3450 4097 3450 3541 
Q 3450 3153 3228 2886 
Q 3006 2619 2597 2516 
z
" transform="scale(0.015625)"/>
     </defs>
     <use xlink:href="#DejaVuSans-303" transform="translate(62.029297 3.3125)"/>
     <use xlink:href="#DejaVuSans-Oblique-78" transform="translate(0 0.046875)"/>
     <use xlink:href="#DejaVuSans-33" transform="translate(60.136719 -16.359375) scale(0.7)"/>
    </g>
   </g>
  </g>
  <g id="axes_5">
   <g id="patch_127">
    <path d="M 72.557981 340.2706 
L 83.698613 340.2706 
L 83.698613 340.000139 
L 72.557981 340.000139 
z
" clip-path="url(#pfde01bdc14)" style="fill: #e04b4b; opacity: 0.45"/>
   </g>
   <g id="patch_128">
    <path d="M 83.698613 340.2706 
L 94.839245 340.2706 
L 94.839245 340.2706 
L 83.698613 340.2706 
z
" clip-path="url(#pfde01bdc14)" style="fill: #e04b4b; opacity: 0.45"/>
   </g>
   <g id="patch_129">
    <path d="M 94.839245 340.2706 
L 105.979877 340.2706 
L 105.979877 338.918295 
L 94.839245 338.918295 
z
" clip-path="url(#pfde01bdc14)" style="fill: #e04b4b; opacity: 0.45"/>
   </g>
   <g id="patch_130">
    <path d="M 105.979877 340.2706 
L 117.120509 340.2706 
L 117.120509 333.779538 
L 105.979877 333.779538 
z
" clip-path="url(#pfde01bdc14)" style="fill: #e04b4b; opacity: 0.45"/>
   </g>
   <g id="patch_131">
    <path d="M 117.120509 340.2706 
L 128.261141 340.2706 
L 128.261141 324.042945 
L 117.120509 324.042945 
z
" clip-path="url(#pfde01bdc14)" style="fill: #e04b4b; opacity: 0.45"/>
   </g>
   <g id="patch_132">
    <path d="M 128.261141 340.2706 
L 139.401773 340.2706 
L 139.401773 303.487914 
L 128.261141 303.487914 
z
" clip-path="url(#pfde01bdc14)" style="fill: #e04b4b; opacity: 0.45"/>
   </g>
   <g id="patch_133">
    <path d="M 139.401773 340.2706 
L 150.542406 340.2706 
L 150.542406 286.719337 
L 139.401773 286.719337 
z
" clip-path="url(#pfde01bdc14)" style="fill: #e04b4b; opacity: 0.45"/>
   </g>
   <g id="patch_134">
    <path d="M 150.542406 340.2706 
L 161.683038 340.2706 
L 161.683038 256.157252 
L 150.542406 256.157252 
z
" clip-path="url(#pfde01bdc14)" style="fill: #e04b4b; opacity: 0.45"/>
   </g>
   <g id="patch_135">
    <path d="M 161.683038 340.2706 
L 172.82367 340.2706 
L 172.82367 230.193004 
L 161.683038 230.193004 
z
" clip-path="url(#pfde01bdc14)" style="fill: #e04b4b; opacity: 0.45"/>
   </g>
   <g id="patch_136">
    <path d="M 172.82367 340.2706 
L 183.964302 340.2706 
L 183.964302 179.887272 
L 172.82367 179.887272 
z
" clip-path="url(#pfde01bdc14)" style="fill: #e04b4b; opacity: 0.45"/>
   </g>
   <g id="patch_137">
    <path d="M 183.964302 340.2706 
L 195.104934 340.2706 
L 195.104934 83.332722 
L 183.964302 83.332722 
z
" clip-path="url(#pfde01bdc14)" style="fill: #e04b4b; opacity: 0.45"/>
   </g>
   <g id="patch_138">
    <path d="M 195.104934 340.2706 
L 206.245566 340.2706 
L 206.245566 73.055207 
L 195.104934 73.055207 
z
" clip-path="url(#pfde01bdc14)" style="fill: #e04b4b; opacity: 0.45"/>
   </g>
   <g id="patch_139">
    <path d="M 206.245566 340.2706 
L 217.386198 340.2706 
L 217.386198 109.837892 
L 206.245566 109.837892 
z
" clip-path="url(#pfde01bdc14)" style="fill: #e04b4b; opacity: 0.45"/>
   </g>
   <g id="patch_140">
    <path d="M 217.386198 340.2706 
L 228.52683 340.2706 
L 228.52683 118.222181 
L 217.386198 118.222181 
z
" clip-path="url(#pfde01bdc14)" style="fill: #e04b4b; opacity: 0.45"/>
   </g>
   <g id="patch_141">
    <path d="M 228.52683 340.2706 
L 239.667462 340.2706 
L 239.667462 90.364706 
L 228.52683 90.364706 
z
" clip-path="url(#pfde01bdc14)" style="fill: #e04b4b; opacity: 0.45"/>
   </g>
   <g id="patch_142">
    <path d="M 239.667462 340.2706 
L 250.808094 340.2706 
L 250.808094 38.165747 
L 239.667462 38.165747 
z
" clip-path="url(#pfde01bdc14)" style="fill: #e04b4b; opacity: 0.45"/>
   </g>
   <g id="patch_143">
    <path d="M 250.808094 340.2706 
L 261.948726 340.2706 
L 261.948726 59.53216 
L 250.808094 59.53216 
z
" clip-path="url(#pfde01bdc14)" style="fill: #e04b4b; opacity: 0.45"/>
   </g>
   <g id="patch_144">
    <path d="M 261.948726 340.2706 
L 273.089358 340.2706 
L 273.089358 165.552843 
L 261.948726 165.552843 
z
" clip-path="url(#pfde01bdc14)" style="fill: #e04b4b; opacity: 0.45"/>
   </g>
   <g id="patch_145">
    <path d="M 273.089358 340.2706 
L 284.22999 340.2706 
L 284.22999 256.698174 
L 273.089358 256.698174 
z
" clip-path="url(#pfde01bdc14)" style="fill: #e04b4b; opacity: 0.45"/>
   </g>
   <g id="patch_146">
    <path d="M 284.22999 340.2706 
L 295.370622 340.2706 
L 295.370622 307.544828 
L 284.22999 307.544828 
z
" clip-path="url(#pfde01bdc14)" style="fill: #e04b4b; opacity: 0.45"/>
   </g>
   <g id="patch_147">
    <path d="M 295.370622 340.2706 
L 306.511254 340.2706 
L 306.511254 312.142664 
L 295.370622 312.142664 
z
" clip-path="url(#pfde01bdc14)" style="fill: #e04b4b; opacity: 0.45"/>
   </g>
   <g id="patch_148">
    <path d="M 306.511254 340.2706 
L 317.651887 340.2706 
L 317.651887 321.338335 
L 306.511254 321.338335 
z
" clip-path="url(#pfde01bdc14)" style="fill: #e04b4b; opacity: 0.45"/>
   </g>
   <g id="patch_149">
    <path d="M 317.651887 340.2706 
L 328.792519 340.2706 
L 328.792519 324.583866 
L 317.651887 324.583866 
z
" clip-path="url(#pfde01bdc14)" style="fill: #e04b4b; opacity: 0.45"/>
   </g>
   <g id="patch_150">
    <path d="M 328.792519 340.2706 
L 339.933151 340.2706 
L 339.933151 315.929117 
L 328.792519 315.929117 
z
" clip-path="url(#pfde01bdc14)" style="fill: #e04b4b; opacity: 0.45"/>
   </g>
   <g id="patch_151">
    <path d="M 339.933151 340.2706 
L 351.073783 340.2706 
L 351.073783 318.092804 
L 339.933151 318.092804 
z
" clip-path="url(#pfde01bdc14)" style="fill: #e04b4b; opacity: 0.45"/>
   </g>
   <g id="patch_152">
    <path d="M 351.073783 340.2706 
L 362.214415 340.2706 
L 362.214415 324.042945 
L 351.073783 324.042945 
z
" clip-path="url(#pfde01bdc14)" style="fill: #e04b4b; opacity: 0.45"/>
   </g>
   <g id="patch_153">
    <path d="M 362.214415 340.2706 
L 373.355047 340.2706 
L 373.355047 335.672764 
L 362.214415 335.672764 
z
" clip-path="url(#pfde01bdc14)" style="fill: #e04b4b; opacity: 0.45"/>
   </g>
   <g id="patch_154">
    <path d="M 373.355047 340.2706 
L 384.495679 340.2706 
L 384.495679 337.565991 
L 373.355047 337.565991 
z
" clip-path="url(#pfde01bdc14)" style="fill: #e04b4b; opacity: 0.45"/>
   </g>
   <g id="patch_155">
    <path d="M 384.495679 340.2706 
L 395.636311 340.2706 
L 395.636311 338.918295 
L 384.495679 338.918295 
z
" clip-path="url(#pfde01bdc14)" style="fill: #e04b4b; opacity: 0.45"/>
   </g>
   <g id="patch_156">
    <path d="M 395.636311 340.2706 
L 406.776943 340.2706 
L 406.776943 339.459217 
L 395.636311 339.459217 
z
" clip-path="url(#pfde01bdc14)" style="fill: #e04b4b; opacity: 0.45"/>
   </g>
   <g id="matplotlib.axis_6"/>
   <g id="LineCollection_5">
    <path d="M 226.615792 340.2706 
L 226.615792 23.85353 
" clip-path="url(#pfde01bdc14)" style="fill: none; stroke: #e04b4b; stroke-width: 1.5"/>
   </g>
   <g id="patch_157">
    <path d="M 7.2 340.2706 
L 705.6 340.2706 
" style="fill: none; stroke: #030303; stroke-width: 1.5; stroke-linejoin: miter; stroke-linecap: square"/>
   </g>
   <g id="text_11">
    <!-- $\tilde{x}_{4}$ -->
    <g style="fill: #e04b4b" transform="translate(216.895792 22.26868) scale(0.18 -0.18)">
     <defs>
      <path id="DejaVuSans-34" d="M 2419 4116 
L 825 1625 
L 2419 1625 
L 2419 4116 
z
M 2253 4666 
L 3047 4666 
L 3047 1625 
L 3713 1625 
L 3713 1100 
L 3047 1100 
L 3047 0 
L 2419 0 
L 2419 1100 
L 313 1100 
L 313 1709 
L 2253 4666 
z
" transform="scale(0.015625)"/>
     </defs>
     <use xlink:href="#DejaVuSans-303" transform="translate(62.029297 3.3125)"/>
     <use xlink:href="#DejaVuSans-Oblique-78" transform="translate(0 0.046875)"/>
     <use xlink:href="#DejaVuSans-34" transform="translate(60.136719 -16.359375) scale(0.7)"/>
    </g>
   </g>
   <g id="legend_1">
    <g id="patch_158">
     <path d="M 565.760938 220.894675 
L 698.6 220.894675 
Q 700.6 220.894675 700.6 218.894675 
L 700.6 128.575925 
Q 700.6 126.575925 698.6 126.575925 
L 565.760938 126.575925 
Q 563.760938 126.575925 563.760938 128.575925 
L 563.760938 218.894675 
Q 563.760938 220.894675 565.760938 220.894675 
z
" style="fill: #ffffff; opacity: 0.9; stroke: #cccccc; stroke-linejoin: miter"/>
    </g>
    <g id="text_12">
     <!-- Resampling Distributions -->
     <g style="fill: #030303" transform="translate(567.760938 138.174362) scale(0.1 -0.1)">
      <defs>
       <path id="DejaVuSerif-52" d="M 3066 2316 
Q 3284 2256 3442 2114 
Q 3600 1972 3725 1716 
L 4403 331 
L 4972 331 
L 4972 0 
L 3872 0 
L 3144 1484 
Q 2934 1916 2759 2042 
Q 2584 2169 2278 2169 
L 1581 2169 
L 1581 331 
L 2241 331 
L 2241 0 
L 353 0 
L 353 331 
L 947 331 
L 947 4331 
L 353 4331 
L 353 4666 
L 2719 4666 
Q 3400 4666 3770 4341 
Q 4141 4016 4141 3419 
Q 4141 2938 3870 2661 
Q 3600 2384 3066 2316 
z
M 1581 2503 
L 2503 2503 
Q 2975 2503 3200 2726 
Q 3425 2950 3425 3419 
Q 3425 3888 3200 4109 
Q 2975 4331 2503 4331 
L 1581 4331 
L 1581 2503 
z
" transform="scale(0.015625)"/>
       <path id="DejaVuSerif-65" d="M 3469 1600 
L 991 1600 
L 991 1575 
Q 991 903 1244 561 
Q 1497 219 1991 219 
Q 2369 219 2611 417 
Q 2853 616 2950 1006 
L 3413 1006 
Q 3275 459 2904 184 
Q 2534 -91 1931 -91 
Q 1203 -91 761 389 
Q 319 869 319 1663 
Q 319 2450 753 2931 
Q 1188 3413 1894 3413 
Q 2647 3413 3050 2948 
Q 3453 2484 3469 1600 
z
M 2791 1931 
Q 2772 2513 2545 2808 
Q 2319 3103 1894 3103 
Q 1497 3103 1269 2806 
Q 1041 2509 991 1931 
L 2791 1931 
z
" transform="scale(0.015625)"/>
       <path id="DejaVuSerif-73" d="M 359 184 
L 359 959 
L 691 959 
Q 703 588 923 403 
Q 1144 219 1575 219 
Q 1963 219 2166 364 
Q 2369 509 2369 788 
Q 2369 1006 2220 1140 
Q 2072 1275 1594 1428 
L 1178 1569 
Q 750 1706 558 1912 
Q 366 2119 366 2438 
Q 366 2894 700 3153 
Q 1034 3413 1625 3413 
Q 1888 3413 2178 3344 
Q 2469 3275 2778 3144 
L 2778 2419 
L 2447 2419 
Q 2434 2741 2221 2922 
Q 2009 3103 1644 3103 
Q 1281 3103 1095 2975 
Q 909 2847 909 2591 
Q 909 2381 1050 2254 
Q 1191 2128 1613 1997 
L 2069 1856 
Q 2541 1709 2748 1489 
Q 2956 1269 2956 922 
Q 2956 450 2595 179 
Q 2234 -91 1600 -91 
Q 1278 -91 972 -22 
Q 666 47 359 184 
z
" transform="scale(0.015625)"/>
       <path id="DejaVuSerif-6d" d="M 3316 2675 
Q 3481 3041 3739 3227 
Q 3997 3413 4341 3413 
Q 4863 3413 5119 3089 
Q 5375 2766 5375 2113 
L 5375 331 
L 5894 331 
L 5894 0 
L 4300 0 
L 4300 331 
L 4800 331 
L 4800 2047 
Q 4800 2556 4650 2772 
Q 4500 2988 4153 2988 
Q 3769 2988 3567 2697 
Q 3366 2406 3366 1850 
L 3366 331 
L 3866 331 
L 3866 0 
L 2291 0 
L 2291 331 
L 2791 331 
L 2791 2069 
Q 2791 2566 2641 2777 
Q 2491 2988 2144 2988 
Q 1759 2988 1557 2697 
Q 1356 2406 1356 1850 
L 1356 331 
L 1856 331 
L 1856 0 
L 263 0 
L 263 331 
L 781 331 
L 781 2994 
L 231 2994 
L 231 3322 
L 1356 3322 
L 1356 2731 
Q 1516 3063 1762 3238 
Q 2009 3413 2322 3413 
Q 2709 3413 2968 3220 
Q 3228 3028 3316 2675 
z
" transform="scale(0.015625)"/>
       <path id="DejaVuSerif-70" d="M 1313 1825 
L 1313 1497 
Q 1313 897 1542 583 
Q 1772 269 2209 269 
Q 2650 269 2876 622 
Q 3103 975 3103 1663 
Q 3103 2353 2876 2703 
Q 2650 3053 2209 3053 
Q 1772 3053 1542 2737 
Q 1313 2422 1313 1825 
z
M 738 2988 
L 184 2988 
L 184 3322 
L 1313 3322 
L 1313 2803 
Q 1481 3116 1742 3264 
Q 2003 3413 2388 3413 
Q 3000 3413 3387 2928 
Q 3775 2444 3775 1663 
Q 3775 881 3387 395 
Q 3000 -91 2388 -91 
Q 2003 -91 1742 57 
Q 1481 206 1313 519 
L 1313 -997 
L 1856 -997 
L 1856 -1331 
L 184 -1331 
L 184 -997 
L 738 -997 
L 738 2988 
z
" transform="scale(0.015625)"/>
       <path id="DejaVuSerif-69" d="M 622 4353 
Q 622 4497 726 4603 
Q 831 4709 978 4709 
Q 1122 4709 1226 4603 
Q 1331 4497 1331 4353 
Q 1331 4206 1228 4103 
Q 1125 4000 978 4000 
Q 831 4000 726 4103 
Q 622 4206 622 4353 
z
M 1356 331 
L 1900 331 
L 1900 0 
L 231 0 
L 231 331 
L 781 331 
L 781 2988 
L 231 2988 
L 231 3322 
L 1356 3322 
L 1356 331 
z
" transform="scale(0.015625)"/>
       <path id="DejaVuSerif-6e" d="M 263 0 
L 263 331 
L 781 331 
L 781 2988 
L 231 2988 
L 231 3322 
L 1356 3322 
L 1356 2731 
Q 1516 3069 1770 3241 
Q 2025 3413 2363 3413 
Q 2913 3413 3172 3097 
Q 3431 2781 3431 2113 
L 3431 331 
L 3944 331 
L 3944 0 
L 2356 0 
L 2356 331 
L 2853 331 
L 2853 1931 
Q 2853 2541 2703 2767 
Q 2553 2994 2175 2994 
Q 1775 2994 1565 2701 
Q 1356 2409 1356 1850 
L 1356 331 
L 1856 331 
L 1856 0 
L 263 0 
z
" transform="scale(0.015625)"/>
       <path id="DejaVuSerif-67" d="M 3359 2988 
L 3359 72 
Q 3359 -644 2965 -1033 
Q 2572 -1422 1844 -1422 
Q 1516 -1422 1216 -1362 
Q 916 -1303 641 -1184 
L 641 -488 
L 941 -488 
Q 997 -813 1206 -963 
Q 1416 -1113 1806 -1113 
Q 2313 -1113 2548 -827 
Q 2784 -541 2784 72 
L 2784 519 
Q 2616 206 2355 57 
Q 2094 -91 1709 -91 
Q 1097 -91 708 395 
Q 319 881 319 1663 
Q 319 2444 706 2928 
Q 1094 3413 1709 3413 
Q 2094 3413 2355 3264 
Q 2616 3116 2784 2803 
L 2784 3322 
L 3909 3322 
L 3909 2988 
L 3359 2988 
z
M 2784 1825 
Q 2784 2422 2554 2737 
Q 2325 3053 1888 3053 
Q 1444 3053 1217 2703 
Q 991 2353 991 1663 
Q 991 975 1217 622 
Q 1444 269 1888 269 
Q 2325 269 2554 583 
Q 2784 897 2784 1497 
L 2784 1825 
z
" transform="scale(0.015625)"/>
       <path id="DejaVuSerif-74" d="M 691 2988 
L 184 2988 
L 184 3322 
L 691 3322 
L 691 4353 
L 1269 4353 
L 1269 3322 
L 2350 3322 
L 2350 2988 
L 1269 2988 
L 1269 878 
Q 1269 456 1350 337 
Q 1431 219 1650 219 
Q 1875 219 1978 351 
Q 2081 484 2088 781 
L 2522 781 
Q 2497 328 2275 118 
Q 2053 -91 1600 -91 
Q 1103 -91 897 129 
Q 691 350 691 878 
L 691 2988 
z
" transform="scale(0.015625)"/>
       <path id="DejaVuSerif-62" d="M 738 331 
L 738 4531 
L 184 4531 
L 184 4863 
L 1313 4863 
L 1313 2803 
Q 1481 3116 1742 3264 
Q 2003 3413 2388 3413 
Q 3000 3413 3387 2928 
Q 3775 2444 3775 1663 
Q 3775 881 3387 395 
Q 3000 -91 2388 -91 
Q 2003 -91 1742 57 
Q 1481 206 1313 519 
L 1313 0 
L 184 0 
L 184 331 
L 738 331 
z
M 1313 1497 
Q 1313 897 1542 583 
Q 1772 269 2209 269 
Q 2650 269 2876 622 
Q 3103 975 3103 1663 
Q 3103 2353 2876 2703 
Q 2650 3053 2209 3053 
Q 1772 3053 1542 2737 
Q 1313 2422 1313 1825 
L 1313 1497 
z
" transform="scale(0.015625)"/>
       <path id="DejaVuSerif-75" d="M 2266 3322 
L 3341 3322 
L 3341 331 
L 3884 331 
L 3884 0 
L 2766 0 
L 2766 588 
Q 2606 256 2353 82 
Q 2100 -91 1766 -91 
Q 1213 -91 952 223 
Q 691 538 691 1209 
L 691 2988 
L 172 2988 
L 172 3322 
L 1269 3322 
L 1269 1388 
Q 1269 781 1417 556 
Q 1566 331 1947 331 
Q 2347 331 2556 625 
Q 2766 919 2766 1478 
L 2766 2988 
L 2266 2988 
L 2266 3322 
z
" transform="scale(0.015625)"/>
       <path id="DejaVuSerif-6f" d="M 1925 219 
Q 2388 219 2623 584 
Q 2859 950 2859 1663 
Q 2859 2375 2623 2739 
Q 2388 3103 1925 3103 
Q 1463 3103 1227 2739 
Q 991 2375 991 1663 
Q 991 950 1228 584 
Q 1466 219 1925 219 
z
M 1925 -91 
Q 1200 -91 759 389 
Q 319 869 319 1663 
Q 319 2456 758 2934 
Q 1197 3413 1925 3413 
Q 2653 3413 3092 2934 
Q 3531 2456 3531 1663 
Q 3531 869 3092 389 
Q 2653 -91 1925 -91 
z
" transform="scale(0.015625)"/>
      </defs>
      <use xlink:href="#DejaVuSerif-52"/>
      <use xlink:href="#DejaVuSerif-65" transform="translate(75.292969 0)"/>
      <use xlink:href="#DejaVuSerif-73" transform="translate(134.472656 0)"/>
      <use xlink:href="#DejaVuSerif-61" transform="translate(185.791016 0)"/>
      <use xlink:href="#DejaVuSerif-6d" transform="translate(245.410156 0)"/>
      <use xlink:href="#DejaVuSerif-70" transform="translate(340.234375 0)"/>
      <use xlink:href="#DejaVuSerif-6c" transform="translate(404.248047 0)"/>
      <use xlink:href="#DejaVuSerif-69" transform="translate(436.230469 0)"/>
      <use xlink:href="#DejaVuSerif-6e" transform="translate(468.212891 0)"/>
      <use xlink:href="#DejaVuSerif-67" transform="translate(532.617188 0)"/>
      <use xlink:href="#DejaVuSerif-20" transform="translate(596.630859 0)"/>
      <use xlink:href="#DejaVuSerif-44" transform="translate(628.417969 0)"/>
      <use xlink:href="#DejaVuSerif-69" transform="translate(708.59375 0)"/>
      <use xlink:href="#DejaVuSerif-73" transform="translate(740.576172 0)"/>
      <use xlink:href="#DejaVuSerif-74" transform="translate(791.894531 0)"/>
      <use xlink:href="#DejaVuSerif-72" transform="translate(832.080078 0)"/>
      <use xlink:href="#DejaVuSerif-69" transform="translate(879.882812 0)"/>
      <use xlink:href="#DejaVuSerif-62" transform="translate(911.865234 0)"/>
      <use xlink:href="#DejaVuSerif-75" transform="translate(975.878906 0)"/>
      <use xlink:href="#DejaVuSerif-74" transform="translate(1040.283203 0)"/>
      <use xlink:href="#DejaVuSerif-69" transform="translate(1080.46875 0)"/>
      <use xlink:href="#DejaVuSerif-6f" transform="translate(1112.451172 0)"/>
      <use xlink:href="#DejaVuSerif-6e" transform="translate(1172.65625 0)"/>
      <use xlink:href="#DejaVuSerif-73" transform="translate(1237.060547 0)"/>
     </g>
    </g>
    <g id="line2d_6">
     <path d="M 580.780469 149.494675 
L 600.780469 149.494675 
" style="fill: none; stroke: #362121; stroke-width: 1.5"/>
    </g>
    <g id="text_13">
     <!-- $\text{You}_{\text{m}=\$81\text{K}}$ -->
     <g style="fill: #030303" transform="translate(608.780469 152.994675) scale(0.1 -0.1)">
      <defs>
       <path id="DejaVuSans-6d" d="M 3328 2828 
Q 3544 3216 3844 3400 
Q 4144 3584 4550 3584 
Q 5097 3584 5394 3201 
Q 5691 2819 5691 2113 
L 5691 0 
L 5113 0 
L 5113 2094 
Q 5113 2597 4934 2840 
Q 4756 3084 4391 3084 
Q 3944 3084 3684 2787 
Q 3425 2491 3425 1978 
L 3425 0 
L 2847 0 
L 2847 2094 
Q 2847 2600 2669 2842 
Q 2491 3084 2119 3084 
Q 1678 3084 1418 2786 
Q 1159 2488 1159 1978 
L 1159 0 
L 581 0 
L 581 3500 
L 1159 3500 
L 1159 2956 
Q 1356 3278 1631 3431 
Q 1906 3584 2284 3584 
Q 2666 3584 2933 3390 
Q 3200 3197 3328 2828 
z
" transform="scale(0.015625)"/>
       <path id="DejaVuSans-3d" d="M 678 2906 
L 4684 2906 
L 4684 2381 
L 678 2381 
L 678 2906 
z
M 678 1631 
L 4684 1631 
L 4684 1100 
L 678 1100 
L 678 1631 
z
" transform="scale(0.015625)"/>
       <path id="DejaVuSans-24" d="M 2163 -941 
L 1850 -941 
L 1847 0 
Q 1519 6 1191 76 
Q 863 147 531 288 
L 531 850 
Q 850 650 1176 548 
Q 1503 447 1850 444 
L 1850 1869 
Q 1159 1981 845 2250 
Q 531 2519 531 2988 
Q 531 3497 872 3790 
Q 1213 4084 1850 4128 
L 1850 4863 
L 2163 4863 
L 2163 4138 
Q 2453 4125 2725 4076 
Q 2997 4028 3256 3944 
L 3256 3397 
Q 2997 3528 2723 3600 
Q 2450 3672 2163 3684 
L 2163 2350 
Q 2872 2241 3206 1959 
Q 3541 1678 3541 1191 
Q 3541 663 3186 358 
Q 2831 53 2163 6 
L 2163 -941 
z
M 1850 2406 
L 1850 3688 
Q 1488 3647 1297 3481 
Q 1106 3316 1106 3041 
Q 1106 2772 1282 2622 
Q 1459 2472 1850 2406 
z
M 2163 1806 
L 2163 453 
Q 2559 506 2761 678 
Q 2963 850 2963 1131 
Q 2963 1406 2770 1568 
Q 2578 1731 2163 1806 
z
" transform="scale(0.015625)"/>
       <path id="DejaVuSans-38" d="M 2034 2216 
Q 1584 2216 1326 1975 
Q 1069 1734 1069 1313 
Q 1069 891 1326 650 
Q 1584 409 2034 409 
Q 2484 409 2743 651 
Q 3003 894 3003 1313 
Q 3003 1734 2745 1975 
Q 2488 2216 2034 2216 
z
M 1403 2484 
Q 997 2584 770 2862 
Q 544 3141 544 3541 
Q 544 4100 942 4425 
Q 1341 4750 2034 4750 
Q 2731 4750 3128 4425 
Q 3525 4100 3525 3541 
Q 3525 3141 3298 2862 
Q 3072 2584 2669 2484 
Q 3125 2378 3379 2068 
Q 3634 1759 3634 1313 
Q 3634 634 3220 271 
Q 2806 -91 2034 -91 
Q 1263 -91 848 271 
Q 434 634 434 1313 
Q 434 1759 690 2068 
Q 947 2378 1403 2484 
z
M 1172 3481 
Q 1172 3119 1398 2916 
Q 1625 2713 2034 2713 
Q 2441 2713 2670 2916 
Q 2900 3119 2900 3481 
Q 2900 3844 2670 4047 
Q 2441 4250 2034 4250 
Q 1625 4250 1398 4047 
Q 1172 3844 1172 3481 
z
" transform="scale(0.015625)"/>
       <path id="DejaVuSans-4b" d="M 628 4666 
L 1259 4666 
L 1259 2694 
L 3353 4666 
L 4166 4666 
L 1850 2491 
L 4331 0 
L 3500 0 
L 1259 2247 
L 1259 0 
L 628 0 
L 628 4666 
z
" transform="scale(0.015625)"/>
      </defs>
      <use xlink:href="#DejaVuSans-59" transform="translate(0 0.09375)"/>
      <use xlink:href="#DejaVuSans-6f" transform="translate(61.083984 0.09375)"/>
      <use xlink:href="#DejaVuSans-75" transform="translate(122.265625 0.09375)"/>
      <use xlink:href="#DejaVuSans-6d" transform="translate(186.601562 -16.3125) scale(0.7)"/>
      <use xlink:href="#DejaVuSans-3d" transform="translate(268.427734 -16.3125) scale(0.7)"/>
      <use xlink:href="#DejaVuSans-24" transform="translate(340.717773 -16.3125) scale(0.7)"/>
      <use xlink:href="#DejaVuSans-38" transform="translate(385.253906 -16.3125) scale(0.7)"/>
      <use xlink:href="#DejaVuSans-31" transform="translate(429.790039 -16.3125) scale(0.7)"/>
      <use xlink:href="#DejaVuSans-4b" transform="translate(474.326172 -16.3125) scale(0.7)"/>
     </g>
    </g>
    <g id="line2d_7">
     <path d="M 580.780469 164.794675 
L 600.780469 164.794675 
" style="fill: none; stroke: #9469ad; stroke-width: 1.5"/>
    </g>
    <g id="text_14">
     <!-- $\text{Friend 1}_{\text{m}=\$97\text{K}}$ -->
     <g style="fill: #030303" transform="translate(608.780469 168.294675) scale(0.1 -0.1)">
      <defs>
       <path id="DejaVuSans-46" d="M 628 4666 
L 3309 4666 
L 3309 4134 
L 1259 4134 
L 1259 2759 
L 3109 2759 
L 3109 2228 
L 1259 2228 
L 1259 0 
L 628 0 
L 628 4666 
z
" transform="scale(0.015625)"/>
       <path id="DejaVuSans-72" d="M 2631 2963 
Q 2534 3019 2420 3045 
Q 2306 3072 2169 3072 
Q 1681 3072 1420 2755 
Q 1159 2438 1159 1844 
L 1159 0 
L 581 0 
L 581 3500 
L 1159 3500 
L 1159 2956 
Q 1341 3275 1631 3429 
Q 1922 3584 2338 3584 
Q 2397 3584 2469 3576 
Q 2541 3569 2628 3553 
L 2631 2963 
z
" transform="scale(0.015625)"/>
       <path id="DejaVuSans-69" d="M 603 3500 
L 1178 3500 
L 1178 0 
L 603 0 
L 603 3500 
z
M 603 4863 
L 1178 4863 
L 1178 4134 
L 603 4134 
L 603 4863 
z
" transform="scale(0.015625)"/>
       <path id="DejaVuSans-65" d="M 3597 1894 
L 3597 1613 
L 953 1613 
Q 991 1019 1311 708 
Q 1631 397 2203 397 
Q 2534 397 2845 478 
Q 3156 559 3463 722 
L 3463 178 
Q 3153 47 2828 -22 
Q 2503 -91 2169 -91 
Q 1331 -91 842 396 
Q 353 884 353 1716 
Q 353 2575 817 3079 
Q 1281 3584 2069 3584 
Q 2775 3584 3186 3129 
Q 3597 2675 3597 1894 
z
M 3022 2063 
Q 3016 2534 2758 2815 
Q 2500 3097 2075 3097 
Q 1594 3097 1305 2825 
Q 1016 2553 972 2059 
L 3022 2063 
z
" transform="scale(0.015625)"/>
       <path id="DejaVuSans-6e" d="M 3513 2113 
L 3513 0 
L 2938 0 
L 2938 2094 
Q 2938 2591 2744 2837 
Q 2550 3084 2163 3084 
Q 1697 3084 1428 2787 
Q 1159 2491 1159 1978 
L 1159 0 
L 581 0 
L 581 3500 
L 1159 3500 
L 1159 2956 
Q 1366 3272 1645 3428 
Q 1925 3584 2291 3584 
Q 2894 3584 3203 3211 
Q 3513 2838 3513 2113 
z
" transform="scale(0.015625)"/>
       <path id="DejaVuSans-64" d="M 2906 2969 
L 2906 4863 
L 3481 4863 
L 3481 0 
L 2906 0 
L 2906 525 
Q 2725 213 2448 61 
Q 2172 -91 1784 -91 
Q 1150 -91 751 415 
Q 353 922 353 1747 
Q 353 2572 751 3078 
Q 1150 3584 1784 3584 
Q 2172 3584 2448 3432 
Q 2725 3281 2906 2969 
z
M 947 1747 
Q 947 1113 1208 752 
Q 1469 391 1925 391 
Q 2381 391 2643 752 
Q 2906 1113 2906 1747 
Q 2906 2381 2643 2742 
Q 2381 3103 1925 3103 
Q 1469 3103 1208 2742 
Q 947 2381 947 1747 
z
" transform="scale(0.015625)"/>
       <path id="DejaVuSans-20" transform="scale(0.015625)"/>
       <path id="DejaVuSans-39" d="M 703 97 
L 703 672 
Q 941 559 1184 500 
Q 1428 441 1663 441 
Q 2288 441 2617 861 
Q 2947 1281 2994 2138 
Q 2813 1869 2534 1725 
Q 2256 1581 1919 1581 
Q 1219 1581 811 2004 
Q 403 2428 403 3163 
Q 403 3881 828 4315 
Q 1253 4750 1959 4750 
Q 2769 4750 3195 4129 
Q 3622 3509 3622 2328 
Q 3622 1225 3098 567 
Q 2575 -91 1691 -91 
Q 1453 -91 1209 -44 
Q 966 3 703 97 
z
M 1959 2075 
Q 2384 2075 2632 2365 
Q 2881 2656 2881 3163 
Q 2881 3666 2632 3958 
Q 2384 4250 1959 4250 
Q 1534 4250 1286 3958 
Q 1038 3666 1038 3163 
Q 1038 2656 1286 2365 
Q 1534 2075 1959 2075 
z
" transform="scale(0.015625)"/>
       <path id="DejaVuSans-37" d="M 525 4666 
L 3525 4666 
L 3525 4397 
L 1831 0 
L 1172 0 
L 2766 4134 
L 525 4134 
L 525 4666 
z
" transform="scale(0.015625)"/>
      </defs>
      <use xlink:href="#DejaVuSans-46" transform="translate(0 0.015625)"/>
      <use xlink:href="#DejaVuSans-72" transform="translate(57.519531 0.015625)"/>
      <use xlink:href="#DejaVuSans-69" transform="translate(98.632812 0.015625)"/>
      <use xlink:href="#DejaVuSans-65" transform="translate(126.416016 0.015625)"/>
      <use xlink:href="#DejaVuSans-6e" transform="translate(187.939453 0.015625)"/>
      <use xlink:href="#DejaVuSans-64" transform="translate(251.318359 0.015625)"/>
      <use xlink:href="#DejaVuSans-20" transform="translate(314.794922 0.015625)"/>
      <use xlink:href="#DejaVuSans-31" transform="translate(346.582031 0.015625)"/>
      <use xlink:href="#DejaVuSans-6d" transform="translate(411.162109 -16.390625) scale(0.7)"/>
      <use xlink:href="#DejaVuSans-3d" transform="translate(492.988281 -16.390625) scale(0.7)"/>
      <use xlink:href="#DejaVuSans-24" transform="translate(565.27832 -16.390625) scale(0.7)"/>
      <use xlink:href="#DejaVuSans-39" transform="translate(605.351953 -16.390625) scale(0.7)"/>
      <use xlink:href="#DejaVuSans-37" transform="translate(649.888086 -16.390625) scale(0.7)"/>
      <use xlink:href="#DejaVuSans-4b" transform="translate(694.424219 -16.390625) scale(0.7)"/>
     </g>
    </g>
    <g id="line2d_8">
     <path d="M 580.780469 180.094675 
L 600.780469 180.094675 
" style="fill: none; stroke: #88c9c1; stroke-width: 1.5"/>
    </g>
    <g id="text_15">
     <!-- $\text{Friend 2}_{\text{m}=\$88\text{K}}$ -->
     <g style="fill: #030303" transform="translate(608.780469 183.594675) scale(0.1 -0.1)">
      <use xlink:href="#DejaVuSans-46" transform="translate(0 0.015625)"/>
      <use xlink:href="#DejaVuSans-72" transform="translate(57.519531 0.015625)"/>
      <use xlink:href="#DejaVuSans-69" transform="translate(98.632812 0.015625)"/>
      <use xlink:href="#DejaVuSans-65" transform="translate(126.416016 0.015625)"/>
      <use xlink:href="#DejaVuSans-6e" transform="translate(187.939453 0.015625)"/>
      <use xlink:href="#DejaVuSans-64" transform="translate(251.318359 0.015625)"/>
      <use xlink:href="#DejaVuSans-20" transform="translate(314.794922 0.015625)"/>
      <use xlink:href="#DejaVuSans-32" transform="translate(346.582031 0.015625)"/>
      <use xlink:href="#DejaVuSans-6d" transform="translate(411.162109 -16.390625) scale(0.7)"/>
      <use xlink:href="#DejaVuSans-3d" transform="translate(492.988281 -16.390625) scale(0.7)"/>
      <use xlink:href="#DejaVuSans-24" transform="translate(565.27832 -16.390625) scale(0.7)"/>
      <use xlink:href="#DejaVuSans-38" transform="translate(609.814453 -16.390625) scale(0.7)"/>
      <use xlink:href="#DejaVuSans-38" transform="translate(654.350586 -16.390625) scale(0.7)"/>
      <use xlink:href="#DejaVuSans-4b" transform="translate(698.886719 -16.390625) scale(0.7)"/>
     </g>
    </g>
    <g id="line2d_9">
     <path d="M 580.780469 195.394675 
L 600.780469 195.394675 
" style="fill: none; stroke: #f79a52; stroke-width: 1.5"/>
    </g>
    <g id="text_16">
     <!-- $\text{Friend 3}_{\text{m}=\$67\text{K}}$ -->
     <g style="fill: #030303" transform="translate(608.780469 198.894675) scale(0.1 -0.1)">
      <defs>
       <path id="DejaVuSans-36" d="M 2113 2584 
Q 1688 2584 1439 2293 
Q 1191 2003 1191 1497 
Q 1191 994 1439 701 
Q 1688 409 2113 409 
Q 2538 409 2786 701 
Q 3034 994 3034 1497 
Q 3034 2003 2786 2293 
Q 2538 2584 2113 2584 
z
M 3366 4563 
L 3366 3988 
Q 3128 4100 2886 4159 
Q 2644 4219 2406 4219 
Q 1781 4219 1451 3797 
Q 1122 3375 1075 2522 
Q 1259 2794 1537 2939 
Q 1816 3084 2150 3084 
Q 2853 3084 3261 2657 
Q 3669 2231 3669 1497 
Q 3669 778 3244 343 
Q 2819 -91 2113 -91 
Q 1303 -91 875 529 
Q 447 1150 447 2328 
Q 447 3434 972 4092 
Q 1497 4750 2381 4750 
Q 2619 4750 2861 4703 
Q 3103 4656 3366 4563 
z
" transform="scale(0.015625)"/>
      </defs>
      <use xlink:href="#DejaVuSans-46" transform="translate(0 0.015625)"/>
      <use xlink:href="#DejaVuSans-72" transform="translate(57.519531 0.015625)"/>
      <use xlink:href="#DejaVuSans-69" transform="translate(98.632812 0.015625)"/>
      <use xlink:href="#DejaVuSans-65" transform="translate(126.416016 0.015625)"/>
      <use xlink:href="#DejaVuSans-6e" transform="translate(187.939453 0.015625)"/>
      <use xlink:href="#DejaVuSans-64" transform="translate(251.318359 0.015625)"/>
      <use xlink:href="#DejaVuSans-20" transform="translate(314.794922 0.015625)"/>
      <use xlink:href="#DejaVuSans-33" transform="translate(346.582031 0.015625)"/>
      <use xlink:href="#DejaVuSans-6d" transform="translate(411.162109 -16.390625) scale(0.7)"/>
      <use xlink:href="#DejaVuSans-3d" transform="translate(492.988281 -16.390625) scale(0.7)"/>
      <use xlink:href="#DejaVuSans-24" transform="translate(565.27832 -16.390625) scale(0.7)"/>
      <use xlink:href="#DejaVuSans-36" transform="translate(609.814453 -16.390625) scale(0.7)"/>
      <use xlink:href="#DejaVuSans-37" transform="translate(654.350586 -16.390625) scale(0.7)"/>
      <use xlink:href="#DejaVuSans-4b" transform="translate(698.886719 -16.390625) scale(0.7)"/>
     </g>
    </g>
    <g id="line2d_10">
     <path d="M 580.780469 210.694675 
L 600.780469 210.694675 
" style="fill: none; stroke: #e04b4b; stroke-width: 1.5"/>
    </g>
    <g id="text_17">
     <!-- $\text{Friend 4}_{\text{m}=\$77\text{K}}$ -->
     <g style="fill: #030303" transform="translate(608.780469 214.194675) scale(0.1 -0.1)">
      <use xlink:href="#DejaVuSans-46" transform="translate(0 0.015625)"/>
      <use xlink:href="#DejaVuSans-72" transform="translate(57.519531 0.015625)"/>
      <use xlink:href="#DejaVuSans-69" transform="translate(98.632812 0.015625)"/>
      <use xlink:href="#DejaVuSans-65" transform="translate(126.416016 0.015625)"/>
      <use xlink:href="#DejaVuSans-6e" transform="translate(187.939453 0.015625)"/>
      <use xlink:href="#DejaVuSans-64" transform="translate(251.318359 0.015625)"/>
      <use xlink:href="#DejaVuSans-20" transform="translate(314.794922 0.015625)"/>
      <use xlink:href="#DejaVuSans-34" transform="translate(346.582031 0.015625)"/>
      <use xlink:href="#DejaVuSans-6d" transform="translate(411.162109 -16.390625) scale(0.7)"/>
      <use xlink:href="#DejaVuSans-3d" transform="translate(492.988281 -16.390625) scale(0.7)"/>
      <use xlink:href="#DejaVuSans-24" transform="translate(565.27832 -16.390625) scale(0.7)"/>
      <use xlink:href="#DejaVuSans-37" transform="translate(604.389453 -16.390625) scale(0.7)"/>
      <use xlink:href="#DejaVuSans-37" transform="translate(647.700586 -16.390625) scale(0.7)"/>
      <use xlink:href="#DejaVuSans-4b" transform="translate(692.236719 -16.390625) scale(0.7)"/>
     </g>
    </g>
   </g>
  </g>
  <g id="axes_6">
   <g id="patch_159">
    <path d="M 77.393562 340.2706 
L 92.666782 340.2706 
L 92.666782 338.976842 
L 77.393562 338.976842 
z
" clip-path="url(#pfde01bdc14)" style="fill: #8bb8e8"/>
   </g>
   <g id="patch_160">
    <path d="M 92.666782 340.2706 
L 107.940003 340.2706 
L 107.940003 336.906828 
L 92.666782 336.906828 
z
" clip-path="url(#pfde01bdc14)" style="fill: #8bb8e8"/>
   </g>
   <g id="patch_161">
    <path d="M 107.940003 340.2706 
L 123.213223 340.2706 
L 123.213223 331.214292 
L 107.940003 331.214292 
z
" clip-path="url(#pfde01bdc14)" style="fill: #8bb8e8"/>
   </g>
   <g id="patch_162">
    <path d="M 123.213223 340.2706 
L 138.486443 340.2706 
L 138.486443 305.597878 
L 123.213223 305.597878 
z
" clip-path="url(#pfde01bdc14)" style="fill: #8bb8e8"/>
   </g>
   <g id="patch_163">
    <path d="M 138.486443 340.2706 
L 153.759664 340.2706 
L 153.759664 279.722712 
L 138.486443 279.722712 
z
" clip-path="url(#pfde01bdc14)" style="fill: #8bb8e8"/>
   </g>
   <g id="patch_164">
    <path d="M 153.759664 340.2706 
L 169.032884 340.2706 
L 169.032884 218.398569 
L 153.759664 218.398569 
z
" clip-path="url(#pfde01bdc14)" style="fill: #8bb8e8"/>
   </g>
   <g id="patch_165">
    <path d="M 169.032884 340.2706 
L 184.306105 340.2706 
L 184.306105 177.774558 
L 169.032884 177.774558 
z
" clip-path="url(#pfde01bdc14)" style="fill: #8bb8e8"/>
   </g>
   <g id="patch_166">
    <path d="M 184.306105 340.2706 
L 199.579325 340.2706 
L 199.579325 134.821783 
L 184.306105 134.821783 
z
" clip-path="url(#pfde01bdc14)" style="fill: #8bb8e8"/>
   </g>
   <g id="patch_167">
    <path d="M 199.579325 340.2706 
L 214.852546 340.2706 
L 214.852546 86.176471 
L 199.579325 86.176471 
z
" clip-path="url(#pfde01bdc14)" style="fill: #8bb8e8"/>
   </g>
   <g id="patch_168">
    <path d="M 214.852546 340.2706 
L 230.125766 340.2706 
L 230.125766 66.252593 
L 214.852546 66.252593 
z
" clip-path="url(#pfde01bdc14)" style="fill: #8bb8e8"/>
   </g>
   <g id="patch_169">
    <path d="M 230.125766 340.2706 
L 245.398986 340.2706 
L 245.398986 76.602659 
L 230.125766 76.602659 
z
" clip-path="url(#pfde01bdc14)" style="fill: #8bb8e8"/>
   </g>
   <g id="patch_170">
    <path d="M 245.398986 340.2706 
L 260.672207 340.2706 
L 260.672207 86.435223 
L 245.398986 86.435223 
z
" clip-path="url(#pfde01bdc14)" style="fill: #8bb8e8"/>
   </g>
   <g id="patch_171">
    <path d="M 260.672207 340.2706 
L 275.945427 340.2706 
L 275.945427 111.534133 
L 260.672207 111.534133 
z
" clip-path="url(#pfde01bdc14)" style="fill: #8bb8e8"/>
   </g>
   <g id="patch_172">
    <path d="M 275.945427 340.2706 
L 291.218648 340.2706 
L 291.218648 146.724359 
L 275.945427 146.724359 
z
" clip-path="url(#pfde01bdc14)" style="fill: #8bb8e8"/>
   </g>
   <g id="patch_173">
    <path d="M 291.218648 340.2706 
L 306.491868 340.2706 
L 306.491868 187.34837 
L 291.218648 187.34837 
z
" clip-path="url(#pfde01bdc14)" style="fill: #8bb8e8"/>
   </g>
   <g id="patch_174">
    <path d="M 306.491868 340.2706 
L 321.765089 340.2706 
L 321.765089 237.28744 
L 306.491868 237.28744 
z
" clip-path="url(#pfde01bdc14)" style="fill: #8bb8e8"/>
   </g>
   <g id="patch_175">
    <path d="M 321.765089 340.2706 
L 337.038309 340.2706 
L 337.038309 251.001278 
L 321.765089 251.001278 
z
" clip-path="url(#pfde01bdc14)" style="fill: #8bb8e8"/>
   </g>
   <g id="patch_176">
    <path d="M 337.038309 340.2706 
L 352.311529 340.2706 
L 352.311529 285.415248 
L 337.038309 285.415248 
z
" clip-path="url(#pfde01bdc14)" style="fill: #8bb8e8"/>
   </g>
   <g id="patch_177">
    <path d="M 352.311529 340.2706 
L 367.58475 340.2706 
L 367.58475 303.010361 
L 352.311529 303.010361 
z
" clip-path="url(#pfde01bdc14)" style="fill: #8bb8e8"/>
   </g>
   <g id="patch_178">
    <path d="M 367.58475 340.2706 
L 382.85797 340.2706 
L 382.85797 310.255408 
L 367.58475 310.255408 
z
" clip-path="url(#pfde01bdc14)" style="fill: #8bb8e8"/>
   </g>
   <g id="patch_179">
    <path d="M 382.85797 340.2706 
L 398.131191 340.2706 
L 398.131191 321.640481 
L 382.85797 321.640481 
z
" clip-path="url(#pfde01bdc14)" style="fill: #8bb8e8"/>
   </g>
   <g id="patch_180">
    <path d="M 398.131191 340.2706 
L 413.404411 340.2706 
L 413.404411 326.039259 
L 398.131191 326.039259 
z
" clip-path="url(#pfde01bdc14)" style="fill: #8bb8e8"/>
   </g>
   <g id="patch_181">
    <path d="M 413.404411 340.2706 
L 428.677631 340.2706 
L 428.677631 332.50805 
L 413.404411 332.50805 
z
" clip-path="url(#pfde01bdc14)" style="fill: #8bb8e8"/>
   </g>
   <g id="patch_182">
    <path d="M 428.677631 340.2706 
L 443.950852 340.2706 
L 443.950852 334.319312 
L 428.677631 334.319312 
z
" clip-path="url(#pfde01bdc14)" style="fill: #8bb8e8"/>
   </g>
   <g id="patch_183">
    <path d="M 443.950852 340.2706 
L 459.224072 340.2706 
L 459.224072 337.683083 
L 443.950852 337.683083 
z
" clip-path="url(#pfde01bdc14)" style="fill: #8bb8e8"/>
   </g>
   <g id="patch_184">
    <path d="M 459.224072 340.2706 
L 474.497293 340.2706 
L 474.497293 339.235593 
L 459.224072 339.235593 
z
" clip-path="url(#pfde01bdc14)" style="fill: #8bb8e8"/>
   </g>
   <g id="patch_185">
    <path d="M 474.497293 340.2706 
L 489.770513 340.2706 
L 489.770513 339.753097 
L 474.497293 339.753097 
z
" clip-path="url(#pfde01bdc14)" style="fill: #8bb8e8"/>
   </g>
   <g id="patch_186">
    <path d="M 489.770513 340.2706 
L 505.043734 340.2706 
L 505.043734 339.235593 
L 489.770513 339.235593 
z
" clip-path="url(#pfde01bdc14)" style="fill: #8bb8e8"/>
   </g>
   <g id="patch_187">
    <path d="M 505.043734 340.2706 
L 520.316954 340.2706 
L 520.316954 338.976842 
L 505.043734 338.976842 
z
" clip-path="url(#pfde01bdc14)" style="fill: #8bb8e8"/>
   </g>
   <g id="patch_188">
    <path d="M 520.316954 340.2706 
L 535.590174 340.2706 
L 535.590174 339.753097 
L 520.316954 339.753097 
z
" clip-path="url(#pfde01bdc14)" style="fill: #8bb8e8"/>
   </g>
   <g id="matplotlib.axis_7"/>
   <g id="LineCollection_6">
    <path d="M 241.095685 340.2706 
L 241.095685 38.165747 
" clip-path="url(#pfde01bdc14)" style="fill: none; stroke: #003b5c; stroke-width: 1.5"/>
   </g>
   <g id="patch_189">
    <path d="M 7.2 340.2706 
L 705.6 340.2706 
" style="fill: none; stroke: #030303; stroke-width: 1.5; stroke-linejoin: miter; stroke-linecap: square"/>
   </g>
   <g id="legend_2">
    <g id="patch_190">
     <path d="M 582.621875 335.2706 
L 698.6 335.2706 
Q 700.6 335.2706 700.6 333.2706 
L 700.6 304.772162 
Q 700.6 302.772162 698.6 302.772162 
L 582.621875 302.772162 
Q 580.621875 302.772162 580.621875 304.772162 
L 580.621875 333.2706 
Q 580.621875 335.2706 582.621875 335.2706 
z
" style="fill: #ffffff; opacity: 0.9; stroke: #cccccc; stroke-linejoin: miter"/>
    </g>
    <g id="text_18">
     <!-- Sampling Distribution -->
     <g style="fill: #030303" transform="translate(584.621875 314.3706) scale(0.1 -0.1)">
      <use xlink:href="#DejaVuSerif-53"/>
      <use xlink:href="#DejaVuSerif-61" transform="translate(68.505859 0)"/>
      <use xlink:href="#DejaVuSerif-6d" transform="translate(128.125 0)"/>
      <use xlink:href="#DejaVuSerif-70" transform="translate(222.949219 0)"/>
      <use xlink:href="#DejaVuSerif-6c" transform="translate(286.962891 0)"/>
      <use xlink:href="#DejaVuSerif-69" transform="translate(318.945312 0)"/>
      <use xlink:href="#DejaVuSerif-6e" transform="translate(350.927734 0)"/>
      <use xlink:href="#DejaVuSerif-67" transform="translate(415.332031 0)"/>
      <use xlink:href="#DejaVuSerif-20" transform="translate(479.345703 0)"/>
      <use xlink:href="#DejaVuSerif-44" transform="translate(511.132812 0)"/>
      <use xlink:href="#DejaVuSerif-69" transform="translate(591.308594 0)"/>
      <use xlink:href="#DejaVuSerif-73" transform="translate(623.291016 0)"/>
      <use xlink:href="#DejaVuSerif-74" transform="translate(674.609375 0)"/>
      <use xlink:href="#DejaVuSerif-72" transform="translate(714.794922 0)"/>
      <use xlink:href="#DejaVuSerif-69" transform="translate(762.597656 0)"/>
      <use xlink:href="#DejaVuSerif-62" transform="translate(794.580078 0)"/>
      <use xlink:href="#DejaVuSerif-75" transform="translate(858.59375 0)"/>
      <use xlink:href="#DejaVuSerif-74" transform="translate(922.998047 0)"/>
      <use xlink:href="#DejaVuSerif-69" transform="translate(963.183594 0)"/>
      <use xlink:href="#DejaVuSerif-6f" transform="translate(995.166016 0)"/>
      <use xlink:href="#DejaVuSerif-6e" transform="translate(1055.371094 0)"/>
     </g>
    </g>
    <g id="line2d_11">
     <path d="M 595.866406 325.690912 
L 615.866406 325.690912 
" style="fill: none; stroke: #003b5c; stroke-width: 1.5"/>
    </g>
    <g id="text_19">
     <!-- CLT Median -->
     <g style="fill: #030303" transform="translate(623.866406 329.190912) scale(0.1 -0.1)">
      <defs>
       <path id="DejaVuSerif-43" d="M 4513 1234 
Q 4306 581 3820 245 
Q 3334 -91 2591 -91 
Q 2134 -91 1743 65 
Q 1353 222 1050 525 
Q 700 875 529 1320 
Q 359 1766 359 2328 
Q 359 3416 987 4083 
Q 1616 4750 2644 4750 
Q 3025 4750 3456 4650 
Q 3888 4550 4384 4347 
L 4384 3272 
L 4031 3272 
Q 3916 3859 3567 4137 
Q 3219 4416 2591 4416 
Q 1844 4416 1459 3886 
Q 1075 3356 1075 2328 
Q 1075 1303 1459 773 
Q 1844 244 2591 244 
Q 3113 244 3450 492 
Q 3788 741 3938 1234 
L 4513 1234 
z
" transform="scale(0.015625)"/>
       <path id="DejaVuSerif-4c" d="M 353 0 
L 353 331 
L 947 331 
L 947 4331 
L 353 4331 
L 353 4666 
L 2175 4666 
L 2175 4331 
L 1581 4331 
L 1581 384 
L 3713 384 
L 3713 1166 
L 4097 1166 
L 4097 0 
L 353 0 
z
" transform="scale(0.015625)"/>
       <path id="DejaVuSerif-54" d="M 1222 0 
L 1222 331 
L 1819 331 
L 1819 4294 
L 447 4294 
L 447 3566 
L 63 3566 
L 63 4666 
L 4206 4666 
L 4206 3566 
L 3822 3566 
L 3822 4294 
L 2450 4294 
L 2450 331 
L 3047 331 
L 3047 0 
L 1222 0 
z
" transform="scale(0.015625)"/>
       <path id="DejaVuSerif-4d" d="M 353 0 
L 353 331 
L 947 331 
L 947 4331 
L 319 4331 
L 319 4666 
L 1678 4666 
L 3316 1344 
L 4953 4666 
L 6228 4666 
L 6228 4331 
L 5606 4331 
L 5606 331 
L 6203 331 
L 6203 0 
L 4378 0 
L 4378 331 
L 4972 331 
L 4972 3938 
L 3372 684 
L 2931 684 
L 1331 3938 
L 1331 331 
L 1925 331 
L 1925 0 
L 353 0 
z
" transform="scale(0.015625)"/>
       <path id="DejaVuSerif-64" d="M 3359 331 
L 3909 331 
L 3909 0 
L 2784 0 
L 2784 519 
Q 2616 206 2355 57 
Q 2094 -91 1709 -91 
Q 1097 -91 708 395 
Q 319 881 319 1663 
Q 319 2444 706 2928 
Q 1094 3413 1709 3413 
Q 2094 3413 2355 3264 
Q 2616 3116 2784 2803 
L 2784 4531 
L 2241 4531 
L 2241 4863 
L 3359 4863 
L 3359 331 
z
M 2784 1497 
L 2784 1825 
Q 2784 2422 2554 2737 
Q 2325 3053 1888 3053 
Q 1444 3053 1217 2703 
Q 991 2353 991 1663 
Q 991 975 1217 622 
Q 1444 269 1888 269 
Q 2325 269 2554 583 
Q 2784 897 2784 1497 
z
" transform="scale(0.015625)"/>
      </defs>
      <use xlink:href="#DejaVuSerif-43"/>
      <use xlink:href="#DejaVuSerif-4c" transform="translate(76.513672 0)"/>
      <use xlink:href="#DejaVuSerif-54" transform="translate(134.794922 0)"/>
      <use xlink:href="#DejaVuSerif-20" transform="translate(201.494141 0)"/>
      <use xlink:href="#DejaVuSerif-4d" transform="translate(233.28125 0)"/>
      <use xlink:href="#DejaVuSerif-65" transform="translate(335.673828 0)"/>
      <use xlink:href="#DejaVuSerif-64" transform="translate(394.853516 0)"/>
      <use xlink:href="#DejaVuSerif-69" transform="translate(458.867188 0)"/>
      <use xlink:href="#DejaVuSerif-61" transform="translate(490.849609 0)"/>
      <use xlink:href="#DejaVuSerif-6e" transform="translate(550.46875 0)"/>
     </g>
    </g>
   </g>
  </g>
 </g>
 <defs>
  <clipPath id="pfde01bdc14">
   <rect x="7.2" y="7.2" width="698.4" height="333.0706"/>
  </clipPath>
 </defs>
</svg>
