<?xml version="1.0" encoding="utf-8" standalone="no"?>
<!DOCTYPE svg PUBLIC "-//W3C//DTD SVG 1.1//EN"
  "http://www.w3.org/Graphics/SVG/1.1/DTD/svg11.dtd">
<svg xmlns:xlink="http://www.w3.org/1999/xlink" width="539.440625pt" height="412.910312pt" viewBox="0 0 539.440625 412.910312" xmlns="http://www.w3.org/2000/svg" version="1.1">
 <metadata>
  <rdf:RDF xmlns:dc="http://purl.org/dc/elements/1.1/" xmlns:cc="http://creativecommons.org/ns#" xmlns:rdf="http://www.w3.org/1999/02/22-rdf-syntax-ns#">
   <cc:Work>
    <dc:type rdf:resource="http://purl.org/dc/dcmitype/StillImage"/>
    <dc:date>2025-01-21T06:02:29.665812</dc:date>
    <dc:format>image/svg+xml</dc:format>
    <dc:creator>
     <cc:Agent>
      <dc:title>Matplotlib v3.10.0, https://matplotlib.org/</dc:title>
     </cc:Agent>
    </dc:creator>
   </cc:Work>
  </rdf:RDF>
 </metadata>
 <defs>
  <style type="text/css">*{stroke-linejoin: round; stroke-linecap: butt}</style>
 </defs>
 <g id="figure_1">
  <g id="patch_1">
   <path d="M 0 412.910312 
L 539.440625 412.910312 
L 539.440625 0 
L 0 0 
L 0 412.910312 
z
" style="fill: none"/>
  </g>
  <g id="axes_1">
   <g id="patch_2">
    <path d="M 35.620625 363.484375 
L 532.240625 363.484375 
L 532.240625 16.984375 
L 35.620625 16.984375 
L 35.620625 363.484375 
z
" style="fill: none"/>
   </g>
   <g id="patch_3">
    <path d="M 58.194261 363.484375 
L 72.757898 363.484375 
L 72.757898 189.878081 
L 58.194261 189.878081 
z
" clip-path="url(#p460ac2855f)" style="fill: #8bb8e8; opacity: 0.7; stroke: #666666; stroke-linejoin: miter"/>
   </g>
   <g id="patch_4">
    <path d="M 72.757898 363.484375 
L 87.321534 363.484375 
L 87.321534 221.74015 
L 72.757898 221.74015 
z
" clip-path="url(#p460ac2855f)" style="fill: #8bb8e8; opacity: 0.7; stroke: #666666; stroke-linejoin: miter"/>
   </g>
   <g id="patch_5">
    <path d="M 87.321534 363.484375 
L 101.88517 363.484375 
L 101.88517 217.652437 
L 87.321534 217.652437 
z
" clip-path="url(#p460ac2855f)" style="fill: #8bb8e8; opacity: 0.7; stroke: #666666; stroke-linejoin: miter"/>
   </g>
   <g id="patch_6">
    <path d="M 101.88517 363.484375 
L 116.448807 363.484375 
L 116.448807 186.210187 
L 101.88517 186.210187 
z
" clip-path="url(#p460ac2855f)" style="fill: #8bb8e8; opacity: 0.7; stroke: #666666; stroke-linejoin: miter"/>
   </g>
   <g id="patch_7">
    <path d="M 116.448807 363.484375 
L 131.012443 363.484375 
L 131.012443 137.002956 
L 116.448807 137.002956 
z
" clip-path="url(#p460ac2855f)" style="fill: #8bb8e8; opacity: 0.7; stroke: #666666; stroke-linejoin: miter"/>
   </g>
   <g id="patch_8">
    <path d="M 131.012443 363.484375 
L 145.57608 363.484375 
L 145.57608 93.253374 
L 131.012443 93.253374 
z
" clip-path="url(#p460ac2855f)" style="fill: #8bb8e8; opacity: 0.7; stroke: #666666; stroke-linejoin: miter"/>
   </g>
   <g id="patch_9">
    <path d="M 145.57608 363.484375 
L 160.139716 363.484375 
L 160.139716 33.484375 
L 145.57608 33.484375 
z
" clip-path="url(#p460ac2855f)" style="fill: #8bb8e8; opacity: 0.7; stroke: #666666; stroke-linejoin: miter"/>
   </g>
   <g id="patch_10">
    <path d="M 160.139716 363.484375 
L 174.703352 363.484375 
L 174.703352 47.669845 
L 160.139716 47.669845 
z
" clip-path="url(#p460ac2855f)" style="fill: #8bb8e8; opacity: 0.7; stroke: #666666; stroke-linejoin: miter"/>
   </g>
   <g id="patch_11">
    <path d="M 174.703352 363.484375 
L 189.266989 363.484375 
L 189.266989 111.438175 
L 174.703352 111.438175 
z
" clip-path="url(#p460ac2855f)" style="fill: #8bb8e8; opacity: 0.7; stroke: #666666; stroke-linejoin: miter"/>
   </g>
   <g id="patch_12">
    <path d="M 189.266989 363.484375 
L 203.830625 363.484375 
L 203.830625 125.02706 
L 189.266989 125.02706 
z
" clip-path="url(#p460ac2855f)" style="fill: #8bb8e8; opacity: 0.7; stroke: #666666; stroke-linejoin: miter"/>
   </g>
   <g id="patch_13">
    <path d="M 203.830625 363.484375 
L 218.394261 363.484375 
L 218.394261 167.406705 
L 203.830625 167.406705 
z
" clip-path="url(#p460ac2855f)" style="fill: #8bb8e8; opacity: 0.7; stroke: #666666; stroke-linejoin: miter"/>
   </g>
   <g id="patch_14">
    <path d="M 218.394261 363.484375 
L 232.957898 363.484375 
L 232.957898 206.913903 
L 218.394261 206.913903 
z
" clip-path="url(#p460ac2855f)" style="fill: #8bb8e8; opacity: 0.7; stroke: #666666; stroke-linejoin: miter"/>
   </g>
   <g id="patch_15">
    <path d="M 232.957898 363.484375 
L 247.521534 363.484375 
L 247.521534 217.365192 
L 232.957898 217.365192 
z
" clip-path="url(#p460ac2855f)" style="fill: #8bb8e8; opacity: 0.7; stroke: #666666; stroke-linejoin: miter"/>
   </g>
   <g id="patch_16">
    <path d="M 247.521534 363.484375 
L 262.08517 363.484375 
L 262.08517 229.783002 
L 247.521534 229.783002 
z
" clip-path="url(#p460ac2855f)" style="fill: #8bb8e8; opacity: 0.7; stroke: #666666; stroke-linejoin: miter"/>
   </g>
   <g id="patch_17">
    <path d="M 262.08517 363.484375 
L 276.648807 363.484375 
L 276.648807 242.709015 
L 262.08517 242.709015 
z
" clip-path="url(#p460ac2855f)" style="fill: #8bb8e8; opacity: 0.7; stroke: #666666; stroke-linejoin: miter"/>
   </g>
   <g id="patch_18">
    <path d="M 276.648807 363.484375 
L 291.212443 363.484375 
L 291.212443 238.113099 
L 276.648807 238.113099 
z
" clip-path="url(#p460ac2855f)" style="fill: #8bb8e8; opacity: 0.7; stroke: #666666; stroke-linejoin: miter"/>
   </g>
   <g id="patch_19">
    <path d="M 291.212443 363.484375 
L 305.77608 363.484375 
L 305.77608 253.049825 
L 291.212443 253.049825 
z
" clip-path="url(#p460ac2855f)" style="fill: #8bb8e8; opacity: 0.7; stroke: #666666; stroke-linejoin: miter"/>
   </g>
   <g id="patch_20">
    <path d="M 305.77608 363.484375 
L 320.339716 363.484375 
L 320.339716 263.920933 
L 305.77608 263.920933 
z
" clip-path="url(#p460ac2855f)" style="fill: #8bb8e8; opacity: 0.7; stroke: #666666; stroke-linejoin: miter"/>
   </g>
   <g id="patch_21">
    <path d="M 320.339716 363.484375 
L 334.903352 363.484375 
L 334.903352 275.300244 
L 320.339716 275.300244 
z
" clip-path="url(#p460ac2855f)" style="fill: #8bb8e8; opacity: 0.7; stroke: #666666; stroke-linejoin: miter"/>
   </g>
   <g id="patch_22">
    <path d="M 334.903352 363.484375 
L 349.466989 363.484375 
L 349.466989 287.74015 
L 334.903352 287.74015 
z
" clip-path="url(#p460ac2855f)" style="fill: #8bb8e8; opacity: 0.7; stroke: #666666; stroke-linejoin: miter"/>
   </g>
   <g id="patch_23">
    <path d="M 349.466989 363.484375 
L 364.030625 363.484375 
L 364.030625 294.788694 
L 349.466989 294.788694 
z
" clip-path="url(#p460ac2855f)" style="fill: #8bb8e8; opacity: 0.7; stroke: #666666; stroke-linejoin: miter"/>
   </g>
   <g id="patch_24">
    <path d="M 364.030625 363.484375 
L 378.594261 363.484375 
L 378.594261 304.223578 
L 364.030625 304.223578 
z
" clip-path="url(#p460ac2855f)" style="fill: #8bb8e8; opacity: 0.7; stroke: #666666; stroke-linejoin: miter"/>
   </g>
   <g id="patch_25">
    <path d="M 378.594261 363.484375 
L 393.157898 363.484375 
L 393.157898 306.101717 
L 378.594261 306.101717 
z
" clip-path="url(#p460ac2855f)" style="fill: #8bb8e8; opacity: 0.7; stroke: #666666; stroke-linejoin: miter"/>
   </g>
   <g id="patch_26">
    <path d="M 393.157898 363.484375 
L 407.721534 363.484375 
L 407.721534 315.868038 
L 393.157898 315.868038 
z
" clip-path="url(#p460ac2855f)" style="fill: #8bb8e8; opacity: 0.7; stroke: #666666; stroke-linejoin: miter"/>
   </g>
   <g id="patch_27">
    <path d="M 407.721534 363.484375 
L 422.28517 363.484375 
L 422.28517 324.64005 
L 407.721534 324.64005 
z
" clip-path="url(#p460ac2855f)" style="fill: #8bb8e8; opacity: 0.7; stroke: #666666; stroke-linejoin: miter"/>
   </g>
   <g id="patch_28">
    <path d="M 422.28517 363.484375 
L 436.848807 363.484375 
L 436.848807 332.240987 
L 422.28517 332.240987 
z
" clip-path="url(#p460ac2855f)" style="fill: #8bb8e8; opacity: 0.7; stroke: #666666; stroke-linejoin: miter"/>
   </g>
   <g id="patch_29">
    <path d="M 436.848807 363.484375 
L 451.412443 363.484375 
L 451.412443 335.687924 
L 436.848807 335.687924 
z
" clip-path="url(#p460ac2855f)" style="fill: #8bb8e8; opacity: 0.7; stroke: #666666; stroke-linejoin: miter"/>
   </g>
   <g id="patch_30">
    <path d="M 451.412443 363.484375 
L 465.97608 363.484375 
L 465.97608 340.725754 
L 451.412443 340.725754 
z
" clip-path="url(#p460ac2855f)" style="fill: #8bb8e8; opacity: 0.7; stroke: #666666; stroke-linejoin: miter"/>
   </g>
   <g id="patch_31">
    <path d="M 465.97608 363.484375 
L 480.539716 363.484375 
L 480.539716 345.034425 
L 465.97608 345.034425 
z
" clip-path="url(#p460ac2855f)" style="fill: #8bb8e8; opacity: 0.7; stroke: #666666; stroke-linejoin: miter"/>
   </g>
   <g id="patch_32">
    <path d="M 480.539716 363.484375 
L 495.103352 363.484375 
L 495.103352 348.039447 
L 480.539716 348.039447 
z
" clip-path="url(#p460ac2855f)" style="fill: #8bb8e8; opacity: 0.7; stroke: #666666; stroke-linejoin: miter"/>
   </g>
   <g id="patch_33">
    <path d="M 495.103352 363.484375 
L 509.666989 363.484375 
L 509.666989 257.137539 
L 495.103352 257.137539 
z
" clip-path="url(#p460ac2855f)" style="fill: #8bb8e8; opacity: 0.7; stroke: #666666; stroke-linejoin: miter"/>
   </g>
   <g id="matplotlib.axis_1">
    <g id="xtick_1">
     <g id="line2d_1">
      <defs>
       <path id="m94de9ccdc5" d="M 0 0 
L 0 3.5 
" style="stroke: #030303; stroke-width: 0.8"/>
      </defs>
      <g>
       <use xlink:href="#m94de9ccdc5" x="126.154763" y="363.484375" style="fill: #030303; stroke: #030303; stroke-width: 0.8"/>
      </g>
     </g>
     <g id="text_1">
      <!-- $50K -->
      <g style="fill: #030303" transform="translate(107.564294 381.122187) scale(0.14 -0.14)">
       <defs>
        <path id="DejaVuSerif-24" d="M 2156 213 
Q 2509 244 2695 416 
Q 2881 588 2881 884 
Q 2881 1153 2697 1340 
Q 2513 1528 2156 1625 
L 2156 213 
z
M 1844 3709 
Q 1522 3688 1344 3523 
Q 1166 3359 1166 3084 
Q 1166 2834 1330 2668 
Q 1494 2503 1844 2400 
L 1844 3709 
z
M 550 225 
L 550 1088 
L 888 1088 
Q 900 659 1137 440 
Q 1375 222 1844 213 
L 1844 1728 
Q 1125 1928 834 2189 
Q 544 2450 544 2881 
Q 544 3381 887 3684 
Q 1231 3988 1844 4025 
L 1844 4863 
L 2156 4863 
L 2156 4025 
Q 2472 4000 2764 3923 
Q 3056 3847 3334 3719 
L 3334 2900 
L 2994 2900 
Q 2956 3263 2740 3472 
Q 2525 3681 2156 3709 
L 2156 2297 
Q 2925 2088 3233 1817 
Q 3541 1547 3541 1094 
Q 3541 575 3178 262 
Q 2816 -50 2156 -97 
L 2156 -941 
L 1844 -941 
L 1844 -97 
Q 1544 -91 1222 -11 
Q 900 69 550 225 
z
" transform="scale(0.015625)"/>
        <path id="DejaVuSerif-35" d="M 3219 4666 
L 3219 4153 
L 1081 4153 
L 1081 2816 
Q 1244 2928 1461 2984 
Q 1678 3041 1947 3041 
Q 2703 3041 3140 2622 
Q 3578 2203 3578 1478 
Q 3578 738 3136 323 
Q 2694 -91 1894 -91 
Q 1572 -91 1234 -12 
Q 897 66 544 225 
L 544 1131 
L 897 1131 
Q 925 688 1179 453 
Q 1434 219 1894 219 
Q 2388 219 2653 544 
Q 2919 869 2919 1478 
Q 2919 2084 2655 2407 
Q 2391 2731 1894 2731 
Q 1613 2731 1398 2631 
Q 1184 2531 1019 2322 
L 750 2322 
L 750 4666 
L 3219 4666 
z
" transform="scale(0.015625)"/>
        <path id="DejaVuSerif-30" d="M 2034 219 
Q 2513 219 2750 744 
Q 2988 1269 2988 2328 
Q 2988 3391 2750 3916 
Q 2513 4441 2034 4441 
Q 1556 4441 1318 3916 
Q 1081 3391 1081 2328 
Q 1081 1269 1318 744 
Q 1556 219 2034 219 
z
M 2034 -91 
Q 1275 -91 848 546 
Q 422 1184 422 2328 
Q 422 3475 848 4112 
Q 1275 4750 2034 4750 
Q 2797 4750 3222 4112 
Q 3647 3475 3647 2328 
Q 3647 1184 3222 546 
Q 2797 -91 2034 -91 
z
" transform="scale(0.015625)"/>
        <path id="DejaVuSerif-4b" d="M 353 0 
L 353 331 
L 947 331 
L 947 4331 
L 353 4331 
L 353 4666 
L 2175 4666 
L 2175 4331 
L 1581 4331 
L 1581 2566 
L 3591 4331 
L 3084 4331 
L 3084 4666 
L 4634 4666 
L 4634 4331 
L 4109 4331 
L 2106 2572 
L 4347 331 
L 4878 331 
L 4878 0 
L 3794 0 
L 1581 2216 
L 1581 331 
L 2175 331 
L 2175 0 
L 353 0 
z
" transform="scale(0.015625)"/>
       </defs>
       <use xlink:href="#DejaVuSerif-24"/>
       <use xlink:href="#DejaVuSerif-35" transform="translate(63.623047 0)"/>
       <use xlink:href="#DejaVuSerif-30" transform="translate(127.246094 0)"/>
       <use xlink:href="#DejaVuSerif-4b" transform="translate(190.869141 0)"/>
      </g>
     </g>
    </g>
    <g id="xtick_2">
     <g id="line2d_2">
      <g>
       <use xlink:href="#m94de9ccdc5" x="220.207662" y="363.484375" style="fill: #030303; stroke: #030303; stroke-width: 0.8"/>
      </g>
     </g>
     <g id="text_2">
      <!-- $100K -->
      <g style="fill: #030303" transform="translate(197.163443 381.122187) scale(0.14 -0.14)">
       <defs>
        <path id="DejaVuSerif-31" d="M 909 0 
L 909 331 
L 1722 331 
L 1722 4213 
L 781 3603 
L 781 4013 
L 1919 4750 
L 2350 4750 
L 2350 331 
L 3163 331 
L 3163 0 
L 909 0 
z
" transform="scale(0.015625)"/>
       </defs>
       <use xlink:href="#DejaVuSerif-24"/>
       <use xlink:href="#DejaVuSerif-31" transform="translate(63.623047 0)"/>
       <use xlink:href="#DejaVuSerif-30" transform="translate(127.246094 0)"/>
       <use xlink:href="#DejaVuSerif-30" transform="translate(190.869141 0)"/>
       <use xlink:href="#DejaVuSerif-4b" transform="translate(254.492188 0)"/>
      </g>
     </g>
    </g>
    <g id="xtick_3">
     <g id="line2d_3">
      <g>
       <use xlink:href="#m94de9ccdc5" x="314.260561" y="363.484375" style="fill: #030303; stroke: #030303; stroke-width: 0.8"/>
      </g>
     </g>
     <g id="text_3">
      <!-- $150K -->
      <g style="fill: #030303" transform="translate(291.216343 381.122187) scale(0.14 -0.14)">
       <use xlink:href="#DejaVuSerif-24"/>
       <use xlink:href="#DejaVuSerif-31" transform="translate(63.623047 0)"/>
       <use xlink:href="#DejaVuSerif-35" transform="translate(127.246094 0)"/>
       <use xlink:href="#DejaVuSerif-30" transform="translate(190.869141 0)"/>
       <use xlink:href="#DejaVuSerif-4b" transform="translate(254.492188 0)"/>
      </g>
     </g>
    </g>
    <g id="xtick_4">
     <g id="line2d_4">
      <g>
       <use xlink:href="#m94de9ccdc5" x="408.313461" y="363.484375" style="fill: #030303; stroke: #030303; stroke-width: 0.8"/>
      </g>
     </g>
     <g id="text_4">
      <!-- $200K -->
      <g style="fill: #030303" transform="translate(385.269242 381.122187) scale(0.14 -0.14)">
       <defs>
        <path id="DejaVuSerif-32" d="M 819 3553 
L 469 3553 
L 469 4384 
Q 803 4563 1142 4656 
Q 1481 4750 1806 4750 
Q 2534 4750 2956 4397 
Q 3378 4044 3378 3438 
Q 3378 2753 2422 1800 
Q 2347 1728 2309 1691 
L 1131 513 
L 3078 513 
L 3078 1088 
L 3444 1088 
L 3444 0 
L 434 0 
L 434 341 
L 1850 1753 
Q 2319 2222 2519 2614 
Q 2719 3006 2719 3438 
Q 2719 3909 2473 4175 
Q 2228 4441 1797 4441 
Q 1350 4441 1106 4219 
Q 863 3997 819 3553 
z
" transform="scale(0.015625)"/>
       </defs>
       <use xlink:href="#DejaVuSerif-24"/>
       <use xlink:href="#DejaVuSerif-32" transform="translate(63.623047 0)"/>
       <use xlink:href="#DejaVuSerif-30" transform="translate(127.246094 0)"/>
       <use xlink:href="#DejaVuSerif-30" transform="translate(190.869141 0)"/>
       <use xlink:href="#DejaVuSerif-4b" transform="translate(254.492188 0)"/>
      </g>
     </g>
    </g>
    <g id="xtick_5">
     <g id="line2d_5">
      <g>
       <use xlink:href="#m94de9ccdc5" x="502.36636" y="363.484375" style="fill: #030303; stroke: #030303; stroke-width: 0.8"/>
      </g>
     </g>
     <g id="text_5">
      <!-- &gt;$250K -->
      <g style="fill: #030303" transform="translate(473.45636 381.122187) scale(0.14 -0.14)">
       <defs>
        <path id="DejaVuSerif-3e" d="M 678 3188 
L 678 3719 
L 4684 2266 
L 4684 1747 
L 678 294 
L 678 825 
L 3922 2003 
L 678 3188 
z
" transform="scale(0.015625)"/>
       </defs>
       <use xlink:href="#DejaVuSerif-3e"/>
       <use xlink:href="#DejaVuSerif-24" transform="translate(83.789062 0)"/>
       <use xlink:href="#DejaVuSerif-32" transform="translate(147.412109 0)"/>
       <use xlink:href="#DejaVuSerif-35" transform="translate(211.035156 0)"/>
       <use xlink:href="#DejaVuSerif-30" transform="translate(274.658203 0)"/>
       <use xlink:href="#DejaVuSerif-4b" transform="translate(338.28125 0)"/>
      </g>
     </g>
    </g>
    <g id="text_6">
     <!-- Salary (USD) -->
     <g style="fill: #030303" transform="translate(223.918906 401.710937) scale(0.18 -0.18)">
      <defs>
       <path id="DejaVuSerif-53" d="M 594 225 
L 594 1288 
L 953 1284 
Q 969 753 1261 498 
Q 1553 244 2150 244 
Q 2706 244 2998 464 
Q 3291 684 3291 1106 
Q 3291 1444 3114 1625 
Q 2938 1806 2369 1978 
L 1753 2163 
Q 1084 2366 811 2669 
Q 538 2972 538 3500 
Q 538 4094 959 4422 
Q 1381 4750 2144 4750 
Q 2469 4750 2856 4679 
Q 3244 4609 3681 4475 
L 3681 3481 
L 3328 3481 
Q 3275 3975 2998 4195 
Q 2722 4416 2156 4416 
Q 1663 4416 1405 4214 
Q 1147 4013 1147 3628 
Q 1147 3294 1340 3103 
Q 1534 2913 2163 2725 
L 2741 2553 
Q 3375 2363 3645 2067 
Q 3916 1772 3916 1275 
Q 3916 597 3481 253 
Q 3047 -91 2188 -91 
Q 1803 -91 1404 -12 
Q 1006 66 594 225 
z
" transform="scale(0.015625)"/>
       <path id="DejaVuSerif-61" d="M 2547 1044 
L 2547 1747 
L 1806 1747 
Q 1378 1747 1168 1562 
Q 959 1378 959 997 
Q 959 650 1171 447 
Q 1384 244 1747 244 
Q 2106 244 2326 466 
Q 2547 688 2547 1044 
z
M 3122 2075 
L 3122 331 
L 3634 331 
L 3634 0 
L 2547 0 
L 2547 359 
Q 2356 128 2106 18 
Q 1856 -91 1522 -91 
Q 969 -91 644 203 
Q 319 497 319 997 
Q 319 1513 691 1797 
Q 1063 2081 1741 2081 
L 2547 2081 
L 2547 2309 
Q 2547 2688 2317 2895 
Q 2088 3103 1672 3103 
Q 1328 3103 1125 2947 
Q 922 2791 872 2484 
L 575 2484 
L 575 3156 
Q 875 3284 1158 3348 
Q 1441 3413 1709 3413 
Q 2400 3413 2761 3070 
Q 3122 2728 3122 2075 
z
" transform="scale(0.015625)"/>
       <path id="DejaVuSerif-6c" d="M 1313 331 
L 1856 331 
L 1856 0 
L 184 0 
L 184 331 
L 738 331 
L 738 4531 
L 184 4531 
L 184 4863 
L 1313 4863 
L 1313 331 
z
" transform="scale(0.015625)"/>
       <path id="DejaVuSerif-72" d="M 3059 3328 
L 3059 2497 
L 2728 2497 
Q 2713 2744 2591 2866 
Q 2469 2988 2234 2988 
Q 1809 2988 1582 2694 
Q 1356 2400 1356 1850 
L 1356 331 
L 2022 331 
L 2022 0 
L 263 0 
L 263 331 
L 781 331 
L 781 2994 
L 231 2994 
L 231 3322 
L 1356 3322 
L 1356 2731 
Q 1525 3078 1790 3245 
Q 2056 3413 2438 3413 
Q 2578 3413 2733 3391 
Q 2888 3369 3059 3328 
z
" transform="scale(0.015625)"/>
       <path id="DejaVuSerif-79" d="M 1381 -609 
L 1600 -56 
L 359 2988 
L -19 2988 
L -19 3322 
L 1509 3322 
L 1509 2988 
L 978 2988 
L 1913 703 
L 2847 2988 
L 2350 2988 
L 2350 3322 
L 3597 3322 
L 3597 2988 
L 3225 2988 
L 1703 -750 
Q 1547 -1138 1356 -1280 
Q 1166 -1422 819 -1422 
Q 672 -1422 517 -1397 
Q 363 -1372 206 -1325 
L 206 -691 
L 500 -691 
Q 519 -903 608 -995 
Q 697 -1088 884 -1088 
Q 1056 -1088 1161 -992 
Q 1266 -897 1381 -609 
z
" transform="scale(0.015625)"/>
       <path id="DejaVuSerif-20" transform="scale(0.015625)"/>
       <path id="DejaVuSerif-28" d="M 2041 -997 
Q 1281 -656 893 83 
Q 506 822 506 1931 
Q 506 3044 893 3783 
Q 1281 4522 2041 4863 
L 2041 4556 
Q 1559 4225 1350 3623 
Q 1141 3022 1141 1931 
Q 1141 844 1350 242 
Q 1559 -359 2041 -691 
L 2041 -997 
z
" transform="scale(0.015625)"/>
       <path id="DejaVuSerif-55" d="M 897 4331 
L 300 4331 
L 300 4666 
L 2125 4666 
L 2125 4331 
L 1528 4331 
L 1528 1919 
Q 1528 1025 1820 672 
Q 2113 319 2828 319 
Q 3544 319 3836 672 
Q 4128 1025 4128 1919 
L 4128 4331 
L 3531 4331 
L 3531 4666 
L 5106 4666 
L 5106 4331 
L 4513 4331 
L 4513 1856 
Q 4513 791 4103 350 
Q 3694 -91 2713 -91 
Q 1731 -91 1314 353 
Q 897 797 897 1856 
L 897 4331 
z
" transform="scale(0.015625)"/>
       <path id="DejaVuSerif-44" d="M 1581 331 
L 2163 331 
Q 3072 331 3558 850 
Q 4044 1369 4044 2338 
Q 4044 3306 3559 3818 
Q 3075 4331 2163 4331 
L 1581 4331 
L 1581 331 
z
M 353 0 
L 353 331 
L 947 331 
L 947 4331 
L 353 4331 
L 353 4666 
L 2209 4666 
Q 3416 4666 4089 4050 
Q 4763 3434 4763 2338 
Q 4763 1238 4088 619 
Q 3413 0 2209 0 
L 353 0 
z
" transform="scale(0.015625)"/>
       <path id="DejaVuSerif-29" d="M 453 -997 
L 453 -691 
Q 934 -359 1145 242 
Q 1356 844 1356 1931 
Q 1356 3022 1145 3623 
Q 934 4225 453 4556 
L 453 4863 
Q 1216 4522 1603 3783 
Q 1991 3044 1991 1931 
Q 1991 822 1603 83 
Q 1216 -656 453 -997 
z
" transform="scale(0.015625)"/>
      </defs>
      <use xlink:href="#DejaVuSerif-53"/>
      <use xlink:href="#DejaVuSerif-61" transform="translate(68.505859 0)"/>
      <use xlink:href="#DejaVuSerif-6c" transform="translate(128.125 0)"/>
      <use xlink:href="#DejaVuSerif-61" transform="translate(160.107422 0)"/>
      <use xlink:href="#DejaVuSerif-72" transform="translate(219.726562 0)"/>
      <use xlink:href="#DejaVuSerif-79" transform="translate(267.529297 0)"/>
      <use xlink:href="#DejaVuSerif-20" transform="translate(324.023438 0)"/>
      <use xlink:href="#DejaVuSerif-28" transform="translate(355.810547 0)"/>
      <use xlink:href="#DejaVuSerif-55" transform="translate(394.824219 0)"/>
      <use xlink:href="#DejaVuSerif-53" transform="translate(479.101562 0)"/>
      <use xlink:href="#DejaVuSerif-44" transform="translate(547.607422 0)"/>
      <use xlink:href="#DejaVuSerif-29" transform="translate(627.783203 0)"/>
     </g>
    </g>
   </g>
   <g id="matplotlib.axis_2">
    <g id="ytick_1">
     <g id="line2d_6">
      <defs>
       <path id="m0f42166028" d="M 0 0 
L -3.5 0 
" style="stroke: #030303; stroke-width: 0.8"/>
      </defs>
      <g>
       <use xlink:href="#m0f42166028" x="35.620625" y="363.484375" style="fill: #030303; stroke: #030303; stroke-width: 0.8"/>
      </g>
     </g>
    </g>
    <g id="ytick_2">
     <g id="line2d_7">
      <g>
       <use xlink:href="#m0f42166028" x="35.620625" y="319.292879" style="fill: #030303; stroke: #030303; stroke-width: 0.8"/>
      </g>
     </g>
    </g>
    <g id="ytick_3">
     <g id="line2d_8">
      <g>
       <use xlink:href="#m0f42166028" x="35.620625" y="275.101382" style="fill: #030303; stroke: #030303; stroke-width: 0.8"/>
      </g>
     </g>
    </g>
    <g id="ytick_4">
     <g id="line2d_9">
      <g>
       <use xlink:href="#m0f42166028" x="35.620625" y="230.909886" style="fill: #030303; stroke: #030303; stroke-width: 0.8"/>
      </g>
     </g>
    </g>
    <g id="ytick_5">
     <g id="line2d_10">
      <g>
       <use xlink:href="#m0f42166028" x="35.620625" y="186.718389" style="fill: #030303; stroke: #030303; stroke-width: 0.8"/>
      </g>
     </g>
    </g>
    <g id="ytick_6">
     <g id="line2d_11">
      <g>
       <use xlink:href="#m0f42166028" x="35.620625" y="142.526893" style="fill: #030303; stroke: #030303; stroke-width: 0.8"/>
      </g>
     </g>
    </g>
    <g id="ytick_7">
     <g id="line2d_12">
      <g>
       <use xlink:href="#m0f42166028" x="35.620625" y="98.335396" style="fill: #030303; stroke: #030303; stroke-width: 0.8"/>
      </g>
     </g>
    </g>
    <g id="ytick_8">
     <g id="line2d_13">
      <g>
       <use xlink:href="#m0f42166028" x="35.620625" y="54.1439" style="fill: #030303; stroke: #030303; stroke-width: 0.8"/>
      </g>
     </g>
    </g>
    <g id="text_7">
     <!-- Frequency -->
     <g style="fill: #030303" transform="translate(20.62125 238.914531) rotate(-90) scale(0.18 -0.18)">
      <defs>
       <path id="DejaVuSerif-46" d="M 353 0 
L 353 331 
L 947 331 
L 947 4331 
L 353 4331 
L 353 4666 
L 4172 4666 
L 4172 3628 
L 3788 3628 
L 3788 4281 
L 1581 4281 
L 1581 2719 
L 3175 2719 
L 3175 3303 
L 3559 3303 
L 3559 1753 
L 3175 1753 
L 3175 2338 
L 1581 2338 
L 1581 331 
L 2328 331 
L 2328 0 
L 353 0 
z
" transform="scale(0.015625)"/>
       <path id="DejaVuSerif-65" d="M 3469 1600 
L 991 1600 
L 991 1575 
Q 991 903 1244 561 
Q 1497 219 1991 219 
Q 2369 219 2611 417 
Q 2853 616 2950 1006 
L 3413 1006 
Q 3275 459 2904 184 
Q 2534 -91 1931 -91 
Q 1203 -91 761 389 
Q 319 869 319 1663 
Q 319 2450 753 2931 
Q 1188 3413 1894 3413 
Q 2647 3413 3050 2948 
Q 3453 2484 3469 1600 
z
M 2791 1931 
Q 2772 2513 2545 2808 
Q 2319 3103 1894 3103 
Q 1497 3103 1269 2806 
Q 1041 2509 991 1931 
L 2791 1931 
z
" transform="scale(0.015625)"/>
       <path id="DejaVuSerif-71" d="M 3359 2988 
L 3359 -997 
L 3909 -997 
L 3909 -1331 
L 2241 -1331 
L 2241 -997 
L 2784 -997 
L 2784 519 
Q 2616 206 2355 57 
Q 2094 -91 1709 -91 
Q 1097 -91 708 395 
Q 319 881 319 1663 
Q 319 2444 706 2928 
Q 1094 3413 1709 3413 
Q 2094 3413 2355 3264 
Q 2616 3116 2784 2803 
L 2784 3322 
L 3909 3322 
L 3909 2988 
L 3359 2988 
z
M 2784 1825 
Q 2784 2422 2554 2737 
Q 2325 3053 1888 3053 
Q 1444 3053 1217 2703 
Q 991 2353 991 1663 
Q 991 975 1217 622 
Q 1444 269 1888 269 
Q 2325 269 2554 583 
Q 2784 897 2784 1497 
L 2784 1825 
z
" transform="scale(0.015625)"/>
       <path id="DejaVuSerif-75" d="M 2266 3322 
L 3341 3322 
L 3341 331 
L 3884 331 
L 3884 0 
L 2766 0 
L 2766 588 
Q 2606 256 2353 82 
Q 2100 -91 1766 -91 
Q 1213 -91 952 223 
Q 691 538 691 1209 
L 691 2988 
L 172 2988 
L 172 3322 
L 1269 3322 
L 1269 1388 
Q 1269 781 1417 556 
Q 1566 331 1947 331 
Q 2347 331 2556 625 
Q 2766 919 2766 1478 
L 2766 2988 
L 2266 2988 
L 2266 3322 
z
" transform="scale(0.015625)"/>
       <path id="DejaVuSerif-6e" d="M 263 0 
L 263 331 
L 781 331 
L 781 2988 
L 231 2988 
L 231 3322 
L 1356 3322 
L 1356 2731 
Q 1516 3069 1770 3241 
Q 2025 3413 2363 3413 
Q 2913 3413 3172 3097 
Q 3431 2781 3431 2113 
L 3431 331 
L 3944 331 
L 3944 0 
L 2356 0 
L 2356 331 
L 2853 331 
L 2853 1931 
Q 2853 2541 2703 2767 
Q 2553 2994 2175 2994 
Q 1775 2994 1565 2701 
Q 1356 2409 1356 1850 
L 1356 331 
L 1856 331 
L 1856 0 
L 263 0 
z
" transform="scale(0.015625)"/>
       <path id="DejaVuSerif-63" d="M 3291 997 
Q 3169 466 2822 187 
Q 2475 -91 1925 -91 
Q 1200 -91 759 389 
Q 319 869 319 1663 
Q 319 2459 759 2936 
Q 1200 3413 1925 3413 
Q 2241 3413 2553 3339 
Q 2866 3266 3181 3116 
L 3181 2266 
L 2847 2266 
Q 2781 2703 2561 2903 
Q 2341 3103 1931 3103 
Q 1466 3103 1228 2742 
Q 991 2381 991 1663 
Q 991 944 1227 581 
Q 1463 219 1931 219 
Q 2303 219 2525 412 
Q 2747 606 2828 997 
L 3291 997 
z
" transform="scale(0.015625)"/>
      </defs>
      <use xlink:href="#DejaVuSerif-46"/>
      <use xlink:href="#DejaVuSerif-72" transform="translate(69.384766 0)"/>
      <use xlink:href="#DejaVuSerif-65" transform="translate(117.1875 0)"/>
      <use xlink:href="#DejaVuSerif-71" transform="translate(176.367188 0)"/>
      <use xlink:href="#DejaVuSerif-75" transform="translate(240.380859 0)"/>
      <use xlink:href="#DejaVuSerif-65" transform="translate(304.785156 0)"/>
      <use xlink:href="#DejaVuSerif-6e" transform="translate(363.964844 0)"/>
      <use xlink:href="#DejaVuSerif-63" transform="translate(428.369141 0)"/>
      <use xlink:href="#DejaVuSerif-79" transform="translate(484.375 0)"/>
     </g>
    </g>
   </g>
   <g id="patch_34">
    <path d="M 35.620625 363.484375 
L 35.620625 16.984375 
" style="fill: none; stroke: #030303; stroke-width: 1.5; stroke-linejoin: miter; stroke-linecap: square"/>
   </g>
   <g id="patch_35">
    <path d="M 35.620625 363.484375 
L 532.240625 363.484375 
" style="fill: none; stroke: #030303; stroke-width: 1.5; stroke-linejoin: miter; stroke-linecap: square"/>
   </g>
  </g>
  <g id="axes_2">
   <g id="patch_36">
    <path d="M 136.453646 363.484375 
L 140.624134 363.484375 
L 140.624134 362.600779 
L 136.453646 362.600779 
z
" clip-path="url(#p460ac2855f)" style="fill: #ff00a5; opacity: 0.5; stroke: #000000; stroke-linejoin: miter"/>
   </g>
   <g id="patch_37">
    <path d="M 140.624134 363.484375 
L 144.794621 363.484375 
L 144.794621 361.540464 
L 140.624134 361.540464 
z
" clip-path="url(#p460ac2855f)" style="fill: #ff00a5; opacity: 0.5; stroke: #000000; stroke-linejoin: miter"/>
   </g>
   <g id="patch_38">
    <path d="M 144.794621 363.484375 
L 148.965109 363.484375 
L 148.965109 357.652642 
L 144.794621 357.652642 
z
" clip-path="url(#p460ac2855f)" style="fill: #ff00a5; opacity: 0.5; stroke: #000000; stroke-linejoin: miter"/>
   </g>
   <g id="patch_39">
    <path d="M 148.965109 363.484375 
L 153.135596 363.484375 
L 153.135596 344.221983 
L 148.965109 344.221983 
z
" clip-path="url(#p460ac2855f)" style="fill: #ff00a5; opacity: 0.5; stroke: #000000; stroke-linejoin: miter"/>
   </g>
   <g id="patch_40">
    <path d="M 153.135596 363.484375 
L 157.306084 363.484375 
L 157.306084 324.075996 
L 153.135596 324.075996 
z
" clip-path="url(#p460ac2855f)" style="fill: #ff00a5; opacity: 0.5; stroke: #000000; stroke-linejoin: miter"/>
   </g>
   <g id="patch_41">
    <path d="M 157.306084 363.484375 
L 161.476572 363.484375 
L 161.476572 293.150138 
L 157.306084 293.150138 
z
" clip-path="url(#p460ac2855f)" style="fill: #ff00a5; opacity: 0.5; stroke: #000000; stroke-linejoin: miter"/>
   </g>
   <g id="patch_42">
    <path d="M 161.476572 363.484375 
L 165.647059 363.484375 
L 165.647059 263.814753 
L 161.476572 263.814753 
z
" clip-path="url(#p460ac2855f)" style="fill: #ff00a5; opacity: 0.5; stroke: #000000; stroke-linejoin: miter"/>
   </g>
   <g id="patch_43">
    <path d="M 165.647059 363.484375 
L 169.817547 363.484375 
L 169.817547 232.358737 
L 165.647059 232.358737 
z
" clip-path="url(#p460ac2855f)" style="fill: #ff00a5; opacity: 0.5; stroke: #000000; stroke-linejoin: miter"/>
   </g>
   <g id="patch_44">
    <path d="M 169.817547 363.484375 
L 173.988034 363.484375 
L 173.988034 203.200071 
L 169.817547 203.200071 
z
" clip-path="url(#p460ac2855f)" style="fill: #ff00a5; opacity: 0.5; stroke: #000000; stroke-linejoin: miter"/>
   </g>
   <g id="patch_45">
    <path d="M 173.988034 363.484375 
L 178.158522 363.484375 
L 178.158522 184.821276 
L 173.988034 184.821276 
z
" clip-path="url(#p460ac2855f)" style="fill: #ff00a5; opacity: 0.5; stroke: #000000; stroke-linejoin: miter"/>
   </g>
   <g id="patch_46">
    <path d="M 178.158522 363.484375 
L 182.32901 363.484375 
L 182.32901 182.700646 
L 178.158522 182.700646 
z
" clip-path="url(#p460ac2855f)" style="fill: #ff00a5; opacity: 0.5; stroke: #000000; stroke-linejoin: miter"/>
   </g>
   <g id="patch_47">
    <path d="M 182.32901 363.484375 
L 186.499497 363.484375 
L 186.499497 190.299571 
L 182.32901 190.299571 
z
" clip-path="url(#p460ac2855f)" style="fill: #ff00a5; opacity: 0.5; stroke: #000000; stroke-linejoin: miter"/>
   </g>
   <g id="patch_48">
    <path d="M 186.499497 363.484375 
L 190.669985 363.484375 
L 190.669985 202.846633 
L 186.499497 202.846633 
z
" clip-path="url(#p460ac2855f)" style="fill: #ff00a5; opacity: 0.5; stroke: #000000; stroke-linejoin: miter"/>
   </g>
   <g id="patch_49">
    <path d="M 190.669985 363.484375 
L 194.840472 363.484375 
L 194.840472 229.70795 
L 190.669985 229.70795 
z
" clip-path="url(#p460ac2855f)" style="fill: #ff00a5; opacity: 0.5; stroke: #000000; stroke-linejoin: miter"/>
   </g>
   <g id="patch_50">
    <path d="M 194.840472 363.484375 
L 199.01096 363.484375 
L 199.01096 251.621129 
L 194.840472 251.621129 
z
" clip-path="url(#p460ac2855f)" style="fill: #ff00a5; opacity: 0.5; stroke: #000000; stroke-linejoin: miter"/>
   </g>
   <g id="patch_51">
    <path d="M 199.01096 363.484375 
L 203.181448 363.484375 
L 203.181448 279.189322 
L 199.01096 279.189322 
z
" clip-path="url(#p460ac2855f)" style="fill: #ff00a5; opacity: 0.5; stroke: #000000; stroke-linejoin: miter"/>
   </g>
   <g id="patch_52">
    <path d="M 203.181448 363.484375 
L 207.351935 363.484375 
L 207.351935 300.218906 
L 203.181448 300.218906 
z
" clip-path="url(#p460ac2855f)" style="fill: #ff00a5; opacity: 0.5; stroke: #000000; stroke-linejoin: miter"/>
   </g>
   <g id="patch_53">
    <path d="M 207.351935 363.484375 
L 211.522423 363.484375 
L 211.522423 312.41253 
L 207.351935 312.41253 
z
" clip-path="url(#p460ac2855f)" style="fill: #ff00a5; opacity: 0.5; stroke: #000000; stroke-linejoin: miter"/>
   </g>
   <g id="patch_54">
    <path d="M 211.522423 363.484375 
L 215.69291 363.484375 
L 215.69291 334.679147 
L 211.522423 334.679147 
z
" clip-path="url(#p460ac2855f)" style="fill: #ff00a5; opacity: 0.5; stroke: #000000; stroke-linejoin: miter"/>
   </g>
   <g id="patch_55">
    <path d="M 215.69291 363.484375 
L 219.863398 363.484375 
L 219.863398 340.6876 
L 215.69291 340.6876 
z
" clip-path="url(#p460ac2855f)" style="fill: #ff00a5; opacity: 0.5; stroke: #000000; stroke-linejoin: miter"/>
   </g>
   <g id="patch_56">
    <path d="M 219.863398 363.484375 
L 224.033886 363.484375 
L 224.033886 346.342614 
L 219.863398 346.342614 
z
" clip-path="url(#p460ac2855f)" style="fill: #ff00a5; opacity: 0.5; stroke: #000000; stroke-linejoin: miter"/>
   </g>
   <g id="patch_57">
    <path d="M 224.033886 363.484375 
L 228.204373 363.484375 
L 228.204373 351.997628 
L 224.033886 351.997628 
z
" clip-path="url(#p460ac2855f)" style="fill: #ff00a5; opacity: 0.5; stroke: #000000; stroke-linejoin: miter"/>
   </g>
   <g id="patch_58">
    <path d="M 228.204373 363.484375 
L 232.374861 363.484375 
L 232.374861 355.001854 
L 228.204373 355.001854 
z
" clip-path="url(#p460ac2855f)" style="fill: #ff00a5; opacity: 0.5; stroke: #000000; stroke-linejoin: miter"/>
   </g>
   <g id="patch_59">
    <path d="M 232.374861 363.484375 
L 236.545348 363.484375 
L 236.545348 359.066395 
L 232.374861 359.066395 
z
" clip-path="url(#p460ac2855f)" style="fill: #ff00a5; opacity: 0.5; stroke: #000000; stroke-linejoin: miter"/>
   </g>
   <g id="patch_60">
    <path d="M 236.545348 363.484375 
L 240.715836 363.484375 
L 240.715836 360.30343 
L 236.545348 360.30343 
z
" clip-path="url(#p460ac2855f)" style="fill: #ff00a5; opacity: 0.5; stroke: #000000; stroke-linejoin: miter"/>
   </g>
   <g id="patch_61">
    <path d="M 240.715836 363.484375 
L 244.886324 363.484375 
L 244.886324 361.893902 
L 240.715836 361.893902 
z
" clip-path="url(#p460ac2855f)" style="fill: #ff00a5; opacity: 0.5; stroke: #000000; stroke-linejoin: miter"/>
   </g>
   <g id="patch_62">
    <path d="M 244.886324 363.484375 
L 249.056811 363.484375 
L 249.056811 362.777498 
L 244.886324 362.777498 
z
" clip-path="url(#p460ac2855f)" style="fill: #ff00a5; opacity: 0.5; stroke: #000000; stroke-linejoin: miter"/>
   </g>
   <g id="patch_63">
    <path d="M 249.056811 363.484375 
L 253.227299 363.484375 
L 253.227299 363.130937 
L 249.056811 363.130937 
z
" clip-path="url(#p460ac2855f)" style="fill: #ff00a5; opacity: 0.5; stroke: #000000; stroke-linejoin: miter"/>
   </g>
   <g id="patch_64">
    <path d="M 253.227299 363.484375 
L 257.397786 363.484375 
L 257.397786 362.777498 
L 253.227299 362.777498 
z
" clip-path="url(#p460ac2855f)" style="fill: #ff00a5; opacity: 0.5; stroke: #000000; stroke-linejoin: miter"/>
   </g>
   <g id="patch_65">
    <path d="M 257.397786 363.484375 
L 261.568274 363.484375 
L 261.568274 362.600779 
L 257.397786 362.600779 
z
" clip-path="url(#p460ac2855f)" style="fill: #ff00a5; opacity: 0.5; stroke: #000000; stroke-linejoin: miter"/>
   </g>
   <g id="patch_66">
    <path d="M 261.568274 363.484375 
L 265.738762 363.484375 
L 265.738762 363.130937 
L 261.568274 363.130937 
z
" clip-path="url(#p460ac2855f)" style="fill: #ff00a5; opacity: 0.5; stroke: #000000; stroke-linejoin: miter"/>
   </g>
   <g id="matplotlib.axis_3"/>
   <g id="LineCollection_1">
    <path d="M 180.558722 363.484375 
L 180.558722 55.484375 
" clip-path="url(#p460ac2855f)" style="fill: none; stroke: #ff00a5; stroke-width: 2"/>
   </g>
   <g id="text_8">
    <!-- $m$ -->
    <g style="fill: #ff00a5" transform="translate(165.858722 29.995312) scale(0.3 -0.3)">
     <defs>
      <path id="DejaVuSans-Oblique-6d" d="M 5747 2113 
L 5338 0 
L 4763 0 
L 5166 2094 
Q 5191 2228 5203 2325 
Q 5216 2422 5216 2491 
Q 5216 2772 5059 2928 
Q 4903 3084 4622 3084 
Q 4203 3084 3875 2770 
Q 3547 2456 3450 1953 
L 3066 0 
L 2491 0 
L 2900 2094 
Q 2925 2209 2937 2307 
Q 2950 2406 2950 2484 
Q 2950 2769 2794 2926 
Q 2638 3084 2363 3084 
Q 1938 3084 1609 2770 
Q 1281 2456 1184 1953 
L 800 0 
L 225 0 
L 909 3500 
L 1484 3500 
L 1375 2956 
Q 1609 3263 1923 3423 
Q 2238 3584 2597 3584 
Q 2978 3584 3223 3384 
Q 3469 3184 3519 2828 
Q 3781 3197 4126 3390 
Q 4472 3584 4856 3584 
Q 5306 3584 5551 3325 
Q 5797 3066 5797 2591 
Q 5797 2488 5784 2364 
Q 5772 2241 5747 2113 
z
" transform="scale(0.015625)"/>
     </defs>
     <use xlink:href="#DejaVuSans-Oblique-6d"/>
    </g>
   </g>
  </g>
  <g id="axes_3">
   <g id="matplotlib.axis_4"/>
   <g id="patch_67">
    <path d="M 318.613328 117.267517 
Q 228.291341 174.983206 192.161139 274.893034 
" style="fill: none; stroke: #ff0000; stroke-width: 4; stroke-linecap: round"/>
    <path d="M 198.643329 268.730144 
L 192.161139 274.893034 
L 191.120141 266.009548 
z
" style="fill: #ff0000; stroke: #ff0000; stroke-width: 4; stroke-linecap: round"/>
   </g>
   <g id="text_9">
    <!-- Sampling Distribution by -->
    <g transform="translate(260.808472 95.4095) scale(0.14 -0.14)">
     <defs>
      <path id="DejaVuSerif-6d" d="M 3316 2675 
Q 3481 3041 3739 3227 
Q 3997 3413 4341 3413 
Q 4863 3413 5119 3089 
Q 5375 2766 5375 2113 
L 5375 331 
L 5894 331 
L 5894 0 
L 4300 0 
L 4300 331 
L 4800 331 
L 4800 2047 
Q 4800 2556 4650 2772 
Q 4500 2988 4153 2988 
Q 3769 2988 3567 2697 
Q 3366 2406 3366 1850 
L 3366 331 
L 3866 331 
L 3866 0 
L 2291 0 
L 2291 331 
L 2791 331 
L 2791 2069 
Q 2791 2566 2641 2777 
Q 2491 2988 2144 2988 
Q 1759 2988 1557 2697 
Q 1356 2406 1356 1850 
L 1356 331 
L 1856 331 
L 1856 0 
L 263 0 
L 263 331 
L 781 331 
L 781 2994 
L 231 2994 
L 231 3322 
L 1356 3322 
L 1356 2731 
Q 1516 3063 1762 3238 
Q 2009 3413 2322 3413 
Q 2709 3413 2968 3220 
Q 3228 3028 3316 2675 
z
" transform="scale(0.015625)"/>
      <path id="DejaVuSerif-70" d="M 1313 1825 
L 1313 1497 
Q 1313 897 1542 583 
Q 1772 269 2209 269 
Q 2650 269 2876 622 
Q 3103 975 3103 1663 
Q 3103 2353 2876 2703 
Q 2650 3053 2209 3053 
Q 1772 3053 1542 2737 
Q 1313 2422 1313 1825 
z
M 738 2988 
L 184 2988 
L 184 3322 
L 1313 3322 
L 1313 2803 
Q 1481 3116 1742 3264 
Q 2003 3413 2388 3413 
Q 3000 3413 3387 2928 
Q 3775 2444 3775 1663 
Q 3775 881 3387 395 
Q 3000 -91 2388 -91 
Q 2003 -91 1742 57 
Q 1481 206 1313 519 
L 1313 -997 
L 1856 -997 
L 1856 -1331 
L 184 -1331 
L 184 -997 
L 738 -997 
L 738 2988 
z
" transform="scale(0.015625)"/>
      <path id="DejaVuSerif-69" d="M 622 4353 
Q 622 4497 726 4603 
Q 831 4709 978 4709 
Q 1122 4709 1226 4603 
Q 1331 4497 1331 4353 
Q 1331 4206 1228 4103 
Q 1125 4000 978 4000 
Q 831 4000 726 4103 
Q 622 4206 622 4353 
z
M 1356 331 
L 1900 331 
L 1900 0 
L 231 0 
L 231 331 
L 781 331 
L 781 2988 
L 231 2988 
L 231 3322 
L 1356 3322 
L 1356 331 
z
" transform="scale(0.015625)"/>
      <path id="DejaVuSerif-67" d="M 3359 2988 
L 3359 72 
Q 3359 -644 2965 -1033 
Q 2572 -1422 1844 -1422 
Q 1516 -1422 1216 -1362 
Q 916 -1303 641 -1184 
L 641 -488 
L 941 -488 
Q 997 -813 1206 -963 
Q 1416 -1113 1806 -1113 
Q 2313 -1113 2548 -827 
Q 2784 -541 2784 72 
L 2784 519 
Q 2616 206 2355 57 
Q 2094 -91 1709 -91 
Q 1097 -91 708 395 
Q 319 881 319 1663 
Q 319 2444 706 2928 
Q 1094 3413 1709 3413 
Q 2094 3413 2355 3264 
Q 2616 3116 2784 2803 
L 2784 3322 
L 3909 3322 
L 3909 2988 
L 3359 2988 
z
M 2784 1825 
Q 2784 2422 2554 2737 
Q 2325 3053 1888 3053 
Q 1444 3053 1217 2703 
Q 991 2353 991 1663 
Q 991 975 1217 622 
Q 1444 269 1888 269 
Q 2325 269 2554 583 
Q 2784 897 2784 1497 
L 2784 1825 
z
" transform="scale(0.015625)"/>
      <path id="DejaVuSerif-73" d="M 359 184 
L 359 959 
L 691 959 
Q 703 588 923 403 
Q 1144 219 1575 219 
Q 1963 219 2166 364 
Q 2369 509 2369 788 
Q 2369 1006 2220 1140 
Q 2072 1275 1594 1428 
L 1178 1569 
Q 750 1706 558 1912 
Q 366 2119 366 2438 
Q 366 2894 700 3153 
Q 1034 3413 1625 3413 
Q 1888 3413 2178 3344 
Q 2469 3275 2778 3144 
L 2778 2419 
L 2447 2419 
Q 2434 2741 2221 2922 
Q 2009 3103 1644 3103 
Q 1281 3103 1095 2975 
Q 909 2847 909 2591 
Q 909 2381 1050 2254 
Q 1191 2128 1613 1997 
L 2069 1856 
Q 2541 1709 2748 1489 
Q 2956 1269 2956 922 
Q 2956 450 2595 179 
Q 2234 -91 1600 -91 
Q 1278 -91 972 -22 
Q 666 47 359 184 
z
" transform="scale(0.015625)"/>
      <path id="DejaVuSerif-74" d="M 691 2988 
L 184 2988 
L 184 3322 
L 691 3322 
L 691 4353 
L 1269 4353 
L 1269 3322 
L 2350 3322 
L 2350 2988 
L 1269 2988 
L 1269 878 
Q 1269 456 1350 337 
Q 1431 219 1650 219 
Q 1875 219 1978 351 
Q 2081 484 2088 781 
L 2522 781 
Q 2497 328 2275 118 
Q 2053 -91 1600 -91 
Q 1103 -91 897 129 
Q 691 350 691 878 
L 691 2988 
z
" transform="scale(0.015625)"/>
      <path id="DejaVuSerif-62" d="M 738 331 
L 738 4531 
L 184 4531 
L 184 4863 
L 1313 4863 
L 1313 2803 
Q 1481 3116 1742 3264 
Q 2003 3413 2388 3413 
Q 3000 3413 3387 2928 
Q 3775 2444 3775 1663 
Q 3775 881 3387 395 
Q 3000 -91 2388 -91 
Q 2003 -91 1742 57 
Q 1481 206 1313 519 
L 1313 0 
L 184 0 
L 184 331 
L 738 331 
z
M 1313 1497 
Q 1313 897 1542 583 
Q 1772 269 2209 269 
Q 2650 269 2876 622 
Q 3103 975 3103 1663 
Q 3103 2353 2876 2703 
Q 2650 3053 2209 3053 
Q 1772 3053 1542 2737 
Q 1313 2422 1313 1825 
L 1313 1497 
z
" transform="scale(0.015625)"/>
      <path id="DejaVuSerif-6f" d="M 1925 219 
Q 2388 219 2623 584 
Q 2859 950 2859 1663 
Q 2859 2375 2623 2739 
Q 2388 3103 1925 3103 
Q 1463 3103 1227 2739 
Q 991 2375 991 1663 
Q 991 950 1228 584 
Q 1466 219 1925 219 
z
M 1925 -91 
Q 1200 -91 759 389 
Q 319 869 319 1663 
Q 319 2456 758 2934 
Q 1197 3413 1925 3413 
Q 2653 3413 3092 2934 
Q 3531 2456 3531 1663 
Q 3531 869 3092 389 
Q 2653 -91 1925 -91 
z
" transform="scale(0.015625)"/>
     </defs>
     <use xlink:href="#DejaVuSerif-53"/>
     <use xlink:href="#DejaVuSerif-61" transform="translate(68.505859 0)"/>
     <use xlink:href="#DejaVuSerif-6d" transform="translate(128.125 0)"/>
     <use xlink:href="#DejaVuSerif-70" transform="translate(222.949219 0)"/>
     <use xlink:href="#DejaVuSerif-6c" transform="translate(286.962891 0)"/>
     <use xlink:href="#DejaVuSerif-69" transform="translate(318.945312 0)"/>
     <use xlink:href="#DejaVuSerif-6e" transform="translate(350.927734 0)"/>
     <use xlink:href="#DejaVuSerif-67" transform="translate(415.332031 0)"/>
     <use xlink:href="#DejaVuSerif-20" transform="translate(479.345703 0)"/>
     <use xlink:href="#DejaVuSerif-44" transform="translate(511.132812 0)"/>
     <use xlink:href="#DejaVuSerif-69" transform="translate(591.308594 0)"/>
     <use xlink:href="#DejaVuSerif-73" transform="translate(623.291016 0)"/>
     <use xlink:href="#DejaVuSerif-74" transform="translate(674.609375 0)"/>
     <use xlink:href="#DejaVuSerif-72" transform="translate(714.794922 0)"/>
     <use xlink:href="#DejaVuSerif-69" transform="translate(762.597656 0)"/>
     <use xlink:href="#DejaVuSerif-62" transform="translate(794.580078 0)"/>
     <use xlink:href="#DejaVuSerif-75" transform="translate(858.59375 0)"/>
     <use xlink:href="#DejaVuSerif-74" transform="translate(922.998047 0)"/>
     <use xlink:href="#DejaVuSerif-69" transform="translate(963.183594 0)"/>
     <use xlink:href="#DejaVuSerif-6f" transform="translate(995.166016 0)"/>
     <use xlink:href="#DejaVuSerif-6e" transform="translate(1055.371094 0)"/>
     <use xlink:href="#DejaVuSerif-20" transform="translate(1119.775391 0)"/>
     <use xlink:href="#DejaVuSerif-62" transform="translate(1151.5625 0)"/>
     <use xlink:href="#DejaVuSerif-79" transform="translate(1215.576172 0)"/>
    </g>
    <!-- Central Limit Theorem -->
    <g transform="translate(268.586128 111.2855) scale(0.14 -0.14)">
     <defs>
      <path id="DejaVuSerif-43" d="M 4513 1234 
Q 4306 581 3820 245 
Q 3334 -91 2591 -91 
Q 2134 -91 1743 65 
Q 1353 222 1050 525 
Q 700 875 529 1320 
Q 359 1766 359 2328 
Q 359 3416 987 4083 
Q 1616 4750 2644 4750 
Q 3025 4750 3456 4650 
Q 3888 4550 4384 4347 
L 4384 3272 
L 4031 3272 
Q 3916 3859 3567 4137 
Q 3219 4416 2591 4416 
Q 1844 4416 1459 3886 
Q 1075 3356 1075 2328 
Q 1075 1303 1459 773 
Q 1844 244 2591 244 
Q 3113 244 3450 492 
Q 3788 741 3938 1234 
L 4513 1234 
z
" transform="scale(0.015625)"/>
      <path id="DejaVuSerif-4c" d="M 353 0 
L 353 331 
L 947 331 
L 947 4331 
L 353 4331 
L 353 4666 
L 2175 4666 
L 2175 4331 
L 1581 4331 
L 1581 384 
L 3713 384 
L 3713 1166 
L 4097 1166 
L 4097 0 
L 353 0 
z
" transform="scale(0.015625)"/>
      <path id="DejaVuSerif-54" d="M 1222 0 
L 1222 331 
L 1819 331 
L 1819 4294 
L 447 4294 
L 447 3566 
L 63 3566 
L 63 4666 
L 4206 4666 
L 4206 3566 
L 3822 3566 
L 3822 4294 
L 2450 4294 
L 2450 331 
L 3047 331 
L 3047 0 
L 1222 0 
z
" transform="scale(0.015625)"/>
      <path id="DejaVuSerif-68" d="M 263 0 
L 263 331 
L 781 331 
L 781 4531 
L 231 4531 
L 231 4863 
L 1356 4863 
L 1356 2731 
Q 1516 3069 1770 3241 
Q 2025 3413 2363 3413 
Q 2913 3413 3172 3097 
Q 3431 2781 3431 2113 
L 3431 331 
L 3944 331 
L 3944 0 
L 2356 0 
L 2356 331 
L 2853 331 
L 2853 1931 
Q 2853 2541 2704 2764 
Q 2556 2988 2175 2988 
Q 1775 2988 1565 2697 
Q 1356 2406 1356 1850 
L 1356 331 
L 1856 331 
L 1856 0 
L 263 0 
z
" transform="scale(0.015625)"/>
     </defs>
     <use xlink:href="#DejaVuSerif-43"/>
     <use xlink:href="#DejaVuSerif-65" transform="translate(76.513672 0)"/>
     <use xlink:href="#DejaVuSerif-6e" transform="translate(135.693359 0)"/>
     <use xlink:href="#DejaVuSerif-74" transform="translate(200.097656 0)"/>
     <use xlink:href="#DejaVuSerif-72" transform="translate(240.283203 0)"/>
     <use xlink:href="#DejaVuSerif-61" transform="translate(288.085938 0)"/>
     <use xlink:href="#DejaVuSerif-6c" transform="translate(347.705078 0)"/>
     <use xlink:href="#DejaVuSerif-20" transform="translate(379.6875 0)"/>
     <use xlink:href="#DejaVuSerif-4c" transform="translate(411.474609 0)"/>
     <use xlink:href="#DejaVuSerif-69" transform="translate(477.880859 0)"/>
     <use xlink:href="#DejaVuSerif-6d" transform="translate(509.863281 0)"/>
     <use xlink:href="#DejaVuSerif-69" transform="translate(604.6875 0)"/>
     <use xlink:href="#DejaVuSerif-74" transform="translate(636.669922 0)"/>
     <use xlink:href="#DejaVuSerif-20" transform="translate(676.855469 0)"/>
     <use xlink:href="#DejaVuSerif-54" transform="translate(708.642578 0)"/>
     <use xlink:href="#DejaVuSerif-68" transform="translate(775.341797 0)"/>
     <use xlink:href="#DejaVuSerif-65" transform="translate(839.746094 0)"/>
     <use xlink:href="#DejaVuSerif-6f" transform="translate(898.925781 0)"/>
     <use xlink:href="#DejaVuSerif-72" transform="translate(959.130859 0)"/>
     <use xlink:href="#DejaVuSerif-65" transform="translate(1006.933594 0)"/>
     <use xlink:href="#DejaVuSerif-6d" transform="translate(1066.113281 0)"/>
    </g>
   </g>
  </g>
 </g>
 <defs>
  <clipPath id="p460ac2855f">
   <rect x="35.620625" y="16.984375" width="496.62" height="346.5"/>
  </clipPath>
 </defs>
</svg>
