<?xml version="1.0" encoding="utf-8" standalone="no"?>
<!DOCTYPE svg PUBLIC "-//W3C//DTD SVG 1.1//EN"
  "http://www.w3.org/Graphics/SVG/1.1/DTD/svg11.dtd">
<svg xmlns:xlink="http://www.w3.org/1999/xlink" width="710.589211pt" height="388.818125pt" viewBox="0 0 710.589211 388.818125" xmlns="http://www.w3.org/2000/svg" version="1.1">
 <metadata>
  <rdf:RDF xmlns:dc="http://purl.org/dc/elements/1.1/" xmlns:cc="http://creativecommons.org/ns#" xmlns:rdf="http://www.w3.org/1999/02/22-rdf-syntax-ns#">
   <cc:Work>
    <dc:type rdf:resource="http://purl.org/dc/dcmitype/StillImage"/>
    <dc:date>2025-01-20T20:05:35.277238</dc:date>
    <dc:format>image/svg+xml</dc:format>
    <dc:creator>
     <cc:Agent>
      <dc:title>Matplotlib v3.10.0, https://matplotlib.org/</dc:title>
     </cc:Agent>
    </dc:creator>
   </cc:Work>
  </rdf:RDF>
 </metadata>
 <defs>
  <style type="text/css">*{stroke-linejoin: round; stroke-linecap: butt}</style>
 </defs>
 <g id="figure_1">
  <g id="patch_1">
   <path d="M 0 388.818125 
L 710.589211 388.818125 
L 710.589211 0 
L 0 0 
L 0 388.818125 
z
" style="fill: none"/>
  </g>
  <g id="axes_1">
   <g id="patch_2">
    <path d="M 9.129211 340.36 
L 703.389211 340.36 
L 703.389211 7.2 
L 9.129211 7.2 
L 9.129211 340.36 
z
" style="fill: none"/>
   </g>
   <g id="matplotlib.axis_1">
    <g id="xtick_1">
     <g id="line2d_1">
      <defs>
       <path id="ma6a1621e4f" d="M 0 0 
L 0 3.5 
" style="stroke: #030303; stroke-width: 0.8"/>
      </defs>
      <g>
       <use xlink:href="#ma6a1621e4f" x="20.326953" y="340.36" style="fill: #030303; stroke: #030303; stroke-width: 0.8"/>
      </g>
     </g>
     <g id="text_1">
      <!-- $0K -->
      <g style="fill: #030303" transform="translate(7.2 357.237969) scale(0.13 -0.13)">
       <defs>
        <path id="DejaVuSerif-24" d="M 2156 213 
Q 2509 244 2695 416 
Q 2881 588 2881 884 
Q 2881 1153 2697 1340 
Q 2513 1528 2156 1625 
L 2156 213 
z
M 1844 3709 
Q 1522 3688 1344 3523 
Q 1166 3359 1166 3084 
Q 1166 2834 1330 2668 
Q 1494 2503 1844 2400 
L 1844 3709 
z
M 550 225 
L 550 1088 
L 888 1088 
Q 900 659 1137 440 
Q 1375 222 1844 213 
L 1844 1728 
Q 1125 1928 834 2189 
Q 544 2450 544 2881 
Q 544 3381 887 3684 
Q 1231 3988 1844 4025 
L 1844 4863 
L 2156 4863 
L 2156 4025 
Q 2472 4000 2764 3923 
Q 3056 3847 3334 3719 
L 3334 2900 
L 2994 2900 
Q 2956 3263 2740 3472 
Q 2525 3681 2156 3709 
L 2156 2297 
Q 2925 2088 3233 1817 
Q 3541 1547 3541 1094 
Q 3541 575 3178 262 
Q 2816 -50 2156 -97 
L 2156 -941 
L 1844 -941 
L 1844 -97 
Q 1544 -91 1222 -11 
Q 900 69 550 225 
z
" transform="scale(0.015625)"/>
        <path id="DejaVuSerif-30" d="M 2034 219 
Q 2513 219 2750 744 
Q 2988 1269 2988 2328 
Q 2988 3391 2750 3916 
Q 2513 4441 2034 4441 
Q 1556 4441 1318 3916 
Q 1081 3391 1081 2328 
Q 1081 1269 1318 744 
Q 1556 219 2034 219 
z
M 2034 -91 
Q 1275 -91 848 546 
Q 422 1184 422 2328 
Q 422 3475 848 4112 
Q 1275 4750 2034 4750 
Q 2797 4750 3222 4112 
Q 3647 3475 3647 2328 
Q 3647 1184 3222 546 
Q 2797 -91 2034 -91 
z
" transform="scale(0.015625)"/>
        <path id="DejaVuSerif-4b" d="M 353 0 
L 353 331 
L 947 331 
L 947 4331 
L 353 4331 
L 353 4666 
L 2175 4666 
L 2175 4331 
L 1581 4331 
L 1581 2566 
L 3591 4331 
L 3084 4331 
L 3084 4666 
L 4634 4666 
L 4634 4331 
L 4109 4331 
L 2106 2572 
L 4347 331 
L 4878 331 
L 4878 0 
L 3794 0 
L 1581 2216 
L 1581 331 
L 2175 331 
L 2175 0 
L 353 0 
z
" transform="scale(0.015625)"/>
       </defs>
       <use xlink:href="#DejaVuSerif-24"/>
       <use xlink:href="#DejaVuSerif-30" transform="translate(63.623047 0)"/>
       <use xlink:href="#DejaVuSerif-4b" transform="translate(127.246094 0)"/>
      </g>
     </g>
    </g>
    <g id="xtick_2">
     <g id="line2d_2">
      <g>
       <use xlink:href="#ma6a1621e4f" x="122.124607" y="340.36" style="fill: #030303; stroke: #030303; stroke-width: 0.8"/>
      </g>
     </g>
     <g id="text_2">
      <!-- $50K -->
      <g style="fill: #030303" transform="translate(104.862029 357.237969) scale(0.13 -0.13)">
       <defs>
        <path id="DejaVuSerif-35" d="M 3219 4666 
L 3219 4153 
L 1081 4153 
L 1081 2816 
Q 1244 2928 1461 2984 
Q 1678 3041 1947 3041 
Q 2703 3041 3140 2622 
Q 3578 2203 3578 1478 
Q 3578 738 3136 323 
Q 2694 -91 1894 -91 
Q 1572 -91 1234 -12 
Q 897 66 544 225 
L 544 1131 
L 897 1131 
Q 925 688 1179 453 
Q 1434 219 1894 219 
Q 2388 219 2653 544 
Q 2919 869 2919 1478 
Q 2919 2084 2655 2407 
Q 2391 2731 1894 2731 
Q 1613 2731 1398 2631 
Q 1184 2531 1019 2322 
L 750 2322 
L 750 4666 
L 3219 4666 
z
" transform="scale(0.015625)"/>
       </defs>
       <use xlink:href="#DejaVuSerif-24"/>
       <use xlink:href="#DejaVuSerif-35" transform="translate(63.623047 0)"/>
       <use xlink:href="#DejaVuSerif-30" transform="translate(127.246094 0)"/>
       <use xlink:href="#DejaVuSerif-4b" transform="translate(190.869141 0)"/>
      </g>
     </g>
    </g>
    <g id="xtick_3">
     <g id="line2d_3">
      <g>
       <use xlink:href="#ma6a1621e4f" x="223.922261" y="340.36" style="fill: #030303; stroke: #030303; stroke-width: 0.8"/>
      </g>
     </g>
     <g id="text_3">
      <!-- $100K -->
      <g style="fill: #030303" transform="translate(202.524058 357.237969) scale(0.13 -0.13)">
       <defs>
        <path id="DejaVuSerif-31" d="M 909 0 
L 909 331 
L 1722 331 
L 1722 4213 
L 781 3603 
L 781 4013 
L 1919 4750 
L 2350 4750 
L 2350 331 
L 3163 331 
L 3163 0 
L 909 0 
z
" transform="scale(0.015625)"/>
       </defs>
       <use xlink:href="#DejaVuSerif-24"/>
       <use xlink:href="#DejaVuSerif-31" transform="translate(63.623047 0)"/>
       <use xlink:href="#DejaVuSerif-30" transform="translate(127.246094 0)"/>
       <use xlink:href="#DejaVuSerif-30" transform="translate(190.869141 0)"/>
       <use xlink:href="#DejaVuSerif-4b" transform="translate(254.492188 0)"/>
      </g>
     </g>
    </g>
    <g id="xtick_4">
     <g id="line2d_4">
      <g>
       <use xlink:href="#ma6a1621e4f" x="325.719915" y="340.36" style="fill: #030303; stroke: #030303; stroke-width: 0.8"/>
      </g>
     </g>
     <g id="text_4">
      <!-- $150K -->
      <g style="fill: #030303" transform="translate(304.321712 357.237969) scale(0.13 -0.13)">
       <use xlink:href="#DejaVuSerif-24"/>
       <use xlink:href="#DejaVuSerif-31" transform="translate(63.623047 0)"/>
       <use xlink:href="#DejaVuSerif-35" transform="translate(127.246094 0)"/>
       <use xlink:href="#DejaVuSerif-30" transform="translate(190.869141 0)"/>
       <use xlink:href="#DejaVuSerif-4b" transform="translate(254.492188 0)"/>
      </g>
     </g>
    </g>
    <g id="xtick_5">
     <g id="line2d_5">
      <g>
       <use xlink:href="#ma6a1621e4f" x="427.517569" y="340.36" style="fill: #030303; stroke: #030303; stroke-width: 0.8"/>
      </g>
     </g>
     <g id="text_5">
      <!-- $200K -->
      <g style="fill: #030303" transform="translate(406.119366 357.237969) scale(0.13 -0.13)">
       <defs>
        <path id="DejaVuSerif-32" d="M 819 3553 
L 469 3553 
L 469 4384 
Q 803 4563 1142 4656 
Q 1481 4750 1806 4750 
Q 2534 4750 2956 4397 
Q 3378 4044 3378 3438 
Q 3378 2753 2422 1800 
Q 2347 1728 2309 1691 
L 1131 513 
L 3078 513 
L 3078 1088 
L 3444 1088 
L 3444 0 
L 434 0 
L 434 341 
L 1850 1753 
Q 2319 2222 2519 2614 
Q 2719 3006 2719 3438 
Q 2719 3909 2473 4175 
Q 2228 4441 1797 4441 
Q 1350 4441 1106 4219 
Q 863 3997 819 3553 
z
" transform="scale(0.015625)"/>
       </defs>
       <use xlink:href="#DejaVuSerif-24"/>
       <use xlink:href="#DejaVuSerif-32" transform="translate(63.623047 0)"/>
       <use xlink:href="#DejaVuSerif-30" transform="translate(127.246094 0)"/>
       <use xlink:href="#DejaVuSerif-30" transform="translate(190.869141 0)"/>
       <use xlink:href="#DejaVuSerif-4b" transform="translate(254.492188 0)"/>
      </g>
     </g>
    </g>
    <g id="xtick_6">
     <g id="line2d_6">
      <g>
       <use xlink:href="#ma6a1621e4f" x="529.315223" y="340.36" style="fill: #030303; stroke: #030303; stroke-width: 0.8"/>
      </g>
     </g>
     <g id="text_6">
      <!-- $250K -->
      <g style="fill: #030303" transform="translate(507.91702 357.237969) scale(0.13 -0.13)">
       <use xlink:href="#DejaVuSerif-24"/>
       <use xlink:href="#DejaVuSerif-32" transform="translate(63.623047 0)"/>
       <use xlink:href="#DejaVuSerif-35" transform="translate(127.246094 0)"/>
       <use xlink:href="#DejaVuSerif-30" transform="translate(190.869141 0)"/>
       <use xlink:href="#DejaVuSerif-4b" transform="translate(254.492188 0)"/>
      </g>
     </g>
    </g>
    <g id="xtick_7">
     <g id="line2d_7">
      <g>
       <use xlink:href="#ma6a1621e4f" x="631.112877" y="340.36" style="fill: #030303; stroke: #030303; stroke-width: 0.8"/>
      </g>
     </g>
     <g id="text_7">
      <!-- $300K -->
      <g style="fill: #030303" transform="translate(609.714674 357.237969) scale(0.13 -0.13)">
       <defs>
        <path id="DejaVuSerif-33" d="M 622 4469 
Q 988 4606 1323 4678 
Q 1659 4750 1953 4750 
Q 2638 4750 3022 4454 
Q 3406 4159 3406 3634 
Q 3406 3213 3140 2930 
Q 2875 2647 2388 2547 
Q 2963 2466 3280 2130 
Q 3597 1794 3597 1259 
Q 3597 606 3158 257 
Q 2719 -91 1894 -91 
Q 1528 -91 1179 -12 
Q 831 66 488 225 
L 488 1131 
L 838 1131 
Q 869 681 1141 450 
Q 1413 219 1906 219 
Q 2384 219 2661 495 
Q 2938 772 2938 1253 
Q 2938 1803 2653 2086 
Q 2369 2369 1819 2369 
L 1522 2369 
L 1522 2688 
L 1678 2688 
Q 2225 2688 2498 2914 
Q 2772 3141 2772 3597 
Q 2772 4006 2547 4223 
Q 2322 4441 1900 4441 
Q 1478 4441 1245 4241 
Q 1013 4041 972 3647 
L 622 3647 
L 622 4469 
z
" transform="scale(0.015625)"/>
       </defs>
       <use xlink:href="#DejaVuSerif-24"/>
       <use xlink:href="#DejaVuSerif-33" transform="translate(63.623047 0)"/>
       <use xlink:href="#DejaVuSerif-30" transform="translate(127.246094 0)"/>
       <use xlink:href="#DejaVuSerif-30" transform="translate(190.869141 0)"/>
       <use xlink:href="#DejaVuSerif-4b" transform="translate(254.492188 0)"/>
      </g>
     </g>
    </g>
    <g id="text_8">
     <!-- Salary (USD) -->
     <g style="fill: #030303" transform="translate(296.247492 377.61875) scale(0.18 -0.18)">
      <defs>
       <path id="DejaVuSerif-53" d="M 594 225 
L 594 1288 
L 953 1284 
Q 969 753 1261 498 
Q 1553 244 2150 244 
Q 2706 244 2998 464 
Q 3291 684 3291 1106 
Q 3291 1444 3114 1625 
Q 2938 1806 2369 1978 
L 1753 2163 
Q 1084 2366 811 2669 
Q 538 2972 538 3500 
Q 538 4094 959 4422 
Q 1381 4750 2144 4750 
Q 2469 4750 2856 4679 
Q 3244 4609 3681 4475 
L 3681 3481 
L 3328 3481 
Q 3275 3975 2998 4195 
Q 2722 4416 2156 4416 
Q 1663 4416 1405 4214 
Q 1147 4013 1147 3628 
Q 1147 3294 1340 3103 
Q 1534 2913 2163 2725 
L 2741 2553 
Q 3375 2363 3645 2067 
Q 3916 1772 3916 1275 
Q 3916 597 3481 253 
Q 3047 -91 2188 -91 
Q 1803 -91 1404 -12 
Q 1006 66 594 225 
z
" transform="scale(0.015625)"/>
       <path id="DejaVuSerif-61" d="M 2547 1044 
L 2547 1747 
L 1806 1747 
Q 1378 1747 1168 1562 
Q 959 1378 959 997 
Q 959 650 1171 447 
Q 1384 244 1747 244 
Q 2106 244 2326 466 
Q 2547 688 2547 1044 
z
M 3122 2075 
L 3122 331 
L 3634 331 
L 3634 0 
L 2547 0 
L 2547 359 
Q 2356 128 2106 18 
Q 1856 -91 1522 -91 
Q 969 -91 644 203 
Q 319 497 319 997 
Q 319 1513 691 1797 
Q 1063 2081 1741 2081 
L 2547 2081 
L 2547 2309 
Q 2547 2688 2317 2895 
Q 2088 3103 1672 3103 
Q 1328 3103 1125 2947 
Q 922 2791 872 2484 
L 575 2484 
L 575 3156 
Q 875 3284 1158 3348 
Q 1441 3413 1709 3413 
Q 2400 3413 2761 3070 
Q 3122 2728 3122 2075 
z
" transform="scale(0.015625)"/>
       <path id="DejaVuSerif-6c" d="M 1313 331 
L 1856 331 
L 1856 0 
L 184 0 
L 184 331 
L 738 331 
L 738 4531 
L 184 4531 
L 184 4863 
L 1313 4863 
L 1313 331 
z
" transform="scale(0.015625)"/>
       <path id="DejaVuSerif-72" d="M 3059 3328 
L 3059 2497 
L 2728 2497 
Q 2713 2744 2591 2866 
Q 2469 2988 2234 2988 
Q 1809 2988 1582 2694 
Q 1356 2400 1356 1850 
L 1356 331 
L 2022 331 
L 2022 0 
L 263 0 
L 263 331 
L 781 331 
L 781 2994 
L 231 2994 
L 231 3322 
L 1356 3322 
L 1356 2731 
Q 1525 3078 1790 3245 
Q 2056 3413 2438 3413 
Q 2578 3413 2733 3391 
Q 2888 3369 3059 3328 
z
" transform="scale(0.015625)"/>
       <path id="DejaVuSerif-79" d="M 1381 -609 
L 1600 -56 
L 359 2988 
L -19 2988 
L -19 3322 
L 1509 3322 
L 1509 2988 
L 978 2988 
L 1913 703 
L 2847 2988 
L 2350 2988 
L 2350 3322 
L 3597 3322 
L 3597 2988 
L 3225 2988 
L 1703 -750 
Q 1547 -1138 1356 -1280 
Q 1166 -1422 819 -1422 
Q 672 -1422 517 -1397 
Q 363 -1372 206 -1325 
L 206 -691 
L 500 -691 
Q 519 -903 608 -995 
Q 697 -1088 884 -1088 
Q 1056 -1088 1161 -992 
Q 1266 -897 1381 -609 
z
" transform="scale(0.015625)"/>
       <path id="DejaVuSerif-20" transform="scale(0.015625)"/>
       <path id="DejaVuSerif-28" d="M 2041 -997 
Q 1281 -656 893 83 
Q 506 822 506 1931 
Q 506 3044 893 3783 
Q 1281 4522 2041 4863 
L 2041 4556 
Q 1559 4225 1350 3623 
Q 1141 3022 1141 1931 
Q 1141 844 1350 242 
Q 1559 -359 2041 -691 
L 2041 -997 
z
" transform="scale(0.015625)"/>
       <path id="DejaVuSerif-55" d="M 897 4331 
L 300 4331 
L 300 4666 
L 2125 4666 
L 2125 4331 
L 1528 4331 
L 1528 1919 
Q 1528 1025 1820 672 
Q 2113 319 2828 319 
Q 3544 319 3836 672 
Q 4128 1025 4128 1919 
L 4128 4331 
L 3531 4331 
L 3531 4666 
L 5106 4666 
L 5106 4331 
L 4513 4331 
L 4513 1856 
Q 4513 791 4103 350 
Q 3694 -91 2713 -91 
Q 1731 -91 1314 353 
Q 897 797 897 1856 
L 897 4331 
z
" transform="scale(0.015625)"/>
       <path id="DejaVuSerif-44" d="M 1581 331 
L 2163 331 
Q 3072 331 3558 850 
Q 4044 1369 4044 2338 
Q 4044 3306 3559 3818 
Q 3075 4331 2163 4331 
L 1581 4331 
L 1581 331 
z
M 353 0 
L 353 331 
L 947 331 
L 947 4331 
L 353 4331 
L 353 4666 
L 2209 4666 
Q 3416 4666 4089 4050 
Q 4763 3434 4763 2338 
Q 4763 1238 4088 619 
Q 3413 0 2209 0 
L 353 0 
z
" transform="scale(0.015625)"/>
       <path id="DejaVuSerif-29" d="M 453 -997 
L 453 -691 
Q 934 -359 1145 242 
Q 1356 844 1356 1931 
Q 1356 3022 1145 3623 
Q 934 4225 453 4556 
L 453 4863 
Q 1216 4522 1603 3783 
Q 1991 3044 1991 1931 
Q 1991 822 1603 83 
Q 1216 -656 453 -997 
z
" transform="scale(0.015625)"/>
      </defs>
      <use xlink:href="#DejaVuSerif-53"/>
      <use xlink:href="#DejaVuSerif-61" transform="translate(68.505859 0)"/>
      <use xlink:href="#DejaVuSerif-6c" transform="translate(128.125 0)"/>
      <use xlink:href="#DejaVuSerif-61" transform="translate(160.107422 0)"/>
      <use xlink:href="#DejaVuSerif-72" transform="translate(219.726562 0)"/>
      <use xlink:href="#DejaVuSerif-79" transform="translate(267.529297 0)"/>
      <use xlink:href="#DejaVuSerif-20" transform="translate(324.023438 0)"/>
      <use xlink:href="#DejaVuSerif-28" transform="translate(355.810547 0)"/>
      <use xlink:href="#DejaVuSerif-55" transform="translate(394.824219 0)"/>
      <use xlink:href="#DejaVuSerif-53" transform="translate(479.101562 0)"/>
      <use xlink:href="#DejaVuSerif-44" transform="translate(547.607422 0)"/>
      <use xlink:href="#DejaVuSerif-29" transform="translate(627.783203 0)"/>
     </g>
    </g>
   </g>
   <g id="matplotlib.axis_2"/>
   <g id="patch_3">
    <path d="M 9.129211 340.36 
L 703.389211 340.36 
" style="fill: none; stroke: #030303; stroke-width: 1.5; stroke-linejoin: miter; stroke-linecap: square"/>
   </g>
   <g id="PathCollection_1">
    <defs>
     <path id="m43c310fd9b" d="M 0 3 
C 0.795609 3 1.55874 2.683901 2.12132 2.12132 
C 2.683901 1.55874 3 0.795609 3 0 
C 3 -0.795609 2.683901 -1.55874 2.12132 -2.12132 
C 1.55874 -2.683901 0.795609 -3 0 -3 
C -0.795609 -3 -1.55874 -2.683901 -2.12132 -2.12132 
C -2.683901 -1.55874 -3 -0.795609 -3 0 
C -3 0.795609 -2.683901 1.55874 -2.12132 2.12132 
C -1.55874 2.683901 -0.795609 3 0 3 
z
"/>
    </defs>
    <g clip-path="url(#p1e7e08b331)">
     <use xlink:href="#m43c310fd9b" x="125.758783" y="64.433463" style="fill: #ffb81c"/>
     <use xlink:href="#m43c310fd9b" x="215.788628" y="58.455385" style="fill: #ffb81c"/>
     <use xlink:href="#m43c310fd9b" x="665.078682" y="58.455385" style="fill: #ffb81c"/>
     <use xlink:href="#m43c310fd9b" x="261.257569" y="58.455385" style="fill: #ffb81c"/>
     <use xlink:href="#m43c310fd9b" x="371.970661" y="58.455385" style="fill: #ffb81c"/>
     <use xlink:href="#m43c310fd9b" x="183.357932" y="58.455385" style="fill: #ffb81c"/>
     <use xlink:href="#m43c310fd9b" x="310.629431" y="62.69233" style="fill: #ffb81c"/>
     <use xlink:href="#m43c310fd9b" x="269.798392" y="58.455385" style="fill: #ffb81c"/>
     <use xlink:href="#m43c310fd9b" x="161.422573" y="58.455385" style="fill: #ffb81c"/>
     <use xlink:href="#m43c310fd9b" x="53.94461" y="69.355401" style="fill: #ffb81c"/>
     <use xlink:href="#m43c310fd9b" x="157.269229" y="63.267622" style="fill: #ffb81c"/>
     <use xlink:href="#m43c310fd9b" x="183.787518" y="64.739216" style="fill: #ffb81c"/>
     <use xlink:href="#m43c310fd9b" x="344.589128" y="64.75211" style="fill: #ffb81c"/>
     <use xlink:href="#m43c310fd9b" x="123.865347" y="58.455385" style="fill: #ffb81c"/>
     <use xlink:href="#m43c310fd9b" x="253.490408" y="58.455385" style="fill: #ffb81c"/>
     <use xlink:href="#m43c310fd9b" x="140.545911" y="60.787104" style="fill: #ffb81c"/>
     <use xlink:href="#m43c310fd9b" x="104.536008" y="55.028834" style="fill: #ffb81c"/>
     <use xlink:href="#m43c310fd9b" x="221.224623" y="55.788723" style="fill: #ffb81c"/>
     <use xlink:href="#m43c310fd9b" x="186.945281" y="53.40545" style="fill: #ffb81c"/>
     <use xlink:href="#m43c310fd9b" x="537.322626" y="58.455385" style="fill: #ffb81c"/>
     <use xlink:href="#m43c310fd9b" x="218.10198" y="64.26829" style="fill: #ffb81c"/>
     <use xlink:href="#m43c310fd9b" x="405.631073" y="52.372496" style="fill: #ffb81c"/>
     <use xlink:href="#m43c310fd9b" x="132.138782" y="58.455385" style="fill: #ffb81c"/>
     <use xlink:href="#m43c310fd9b" x="177.246001" y="58.455385" style="fill: #ffb81c"/>
     <use xlink:href="#m43c310fd9b" x="99.501096" y="58.455385" style="fill: #ffb81c"/>
     <use xlink:href="#m43c310fd9b" x="417.962841" y="58.455385" style="fill: #ffb81c"/>
     <use xlink:href="#m43c310fd9b" x="50.39798" y="64.273855" style="fill: #ffb81c"/>
     <use xlink:href="#m43c310fd9b" x="460.990674" y="58.455385" style="fill: #ffb81c"/>
     <use xlink:href="#m43c310fd9b" x="306.189017" y="58.455385" style="fill: #ffb81c"/>
     <use xlink:href="#m43c310fd9b" x="395.557178" y="58.455385" style="fill: #ffb81c"/>
     <use xlink:href="#m43c310fd9b" x="203.595306" y="60.503138" style="fill: #ffb81c"/>
     <use xlink:href="#m43c310fd9b" x="85.229065" y="58.455385" style="fill: #ffb81c"/>
     <use xlink:href="#m43c310fd9b" x="344.395713" y="58.455385" style="fill: #ffb81c"/>
     <use xlink:href="#m43c310fd9b" x="117.861321" y="58.455385" style="fill: #ffb81c"/>
     <use xlink:href="#m43c310fd9b" x="404.069497" y="58.455385" style="fill: #ffb81c"/>
     <use xlink:href="#m43c310fd9b" x="50.839782" y="52.851976" style="fill: #ffb81c"/>
     <use xlink:href="#m43c310fd9b" x="137.587671" y="49.126734" style="fill: #ffb81c"/>
     <use xlink:href="#m43c310fd9b" x="197.921104" y="58.455385" style="fill: #ffb81c"/>
     <use xlink:href="#m43c310fd9b" x="40.68852" y="58.455385" style="fill: #ffb81c"/>
     <use xlink:href="#m43c310fd9b" x="153.396846" y="58.455385" style="fill: #ffb81c"/>
     <use xlink:href="#m43c310fd9b" x="132.966057" y="64.695214" style="fill: #ffb81c"/>
     <use xlink:href="#m43c310fd9b" x="137.398327" y="55.423596" style="fill: #ffb81c"/>
     <use xlink:href="#m43c310fd9b" x="655.747909" y="58.455385" style="fill: #ffb81c"/>
     <use xlink:href="#m43c310fd9b" x="188.773567" y="61.167333" style="fill: #ffb81c"/>
     <use xlink:href="#m43c310fd9b" x="70.612958" y="58.455385" style="fill: #ffb81c"/>
     <use xlink:href="#m43c310fd9b" x="119.388286" y="64.547953" style="fill: #ffb81c"/>
     <use xlink:href="#m43c310fd9b" x="404.554054" y="64.734806" style="fill: #ffb81c"/>
     <use xlink:href="#m43c310fd9b" x="282.628968" y="58.455385" style="fill: #ffb81c"/>
     <use xlink:href="#m43c310fd9b" x="103.021259" y="63.55718" style="fill: #ffb81c"/>
     <use xlink:href="#m43c310fd9b" x="48.097353" y="58.455385" style="fill: #ffb81c"/>
    </g>
   </g>
  </g>
  <g id="axes_2">
   <g id="patch_4">
    <path d="M 40.686484 340.36 
L 49.702848 340.36 
L 49.702848 206.965595 
L 40.686484 206.965595 
z
" clip-path="url(#p1e7e08b331)" style="fill: #2774ae; opacity: 0.25; stroke: #000000; stroke-linejoin: miter"/>
   </g>
   <g id="patch_5">
    <path d="M 49.702848 340.36 
L 58.719211 340.36 
L 58.719211 215.317397 
L 49.702848 215.317397 
z
" clip-path="url(#p1e7e08b331)" style="fill: #2774ae; opacity: 0.25; stroke: #000000; stroke-linejoin: miter"/>
   </g>
   <g id="patch_6">
    <path d="M 58.719211 340.36 
L 67.735575 340.36 
L 67.735575 232.988053 
L 58.719211 232.988053 
z
" clip-path="url(#p1e7e08b331)" style="fill: #2774ae; opacity: 0.25; stroke: #000000; stroke-linejoin: miter"/>
   </g>
   <g id="patch_7">
    <path d="M 67.735575 340.36 
L 76.751938 340.36 
L 76.751938 234.804937 
L 67.735575 234.804937 
z
" clip-path="url(#p1e7e08b331)" style="fill: #2774ae; opacity: 0.25; stroke: #000000; stroke-linejoin: miter"/>
   </g>
   <g id="patch_8">
    <path d="M 76.751938 340.36 
L 85.768302 340.36 
L 85.768302 228.621672 
L 76.751938 228.621672 
z
" clip-path="url(#p1e7e08b331)" style="fill: #2774ae; opacity: 0.25; stroke: #000000; stroke-linejoin: miter"/>
   </g>
   <g id="patch_9">
    <path d="M 85.768302 340.36 
L 94.784666 340.36 
L 94.784666 223.083108 
L 85.768302 223.083108 
z
" clip-path="url(#p1e7e08b331)" style="fill: #2774ae; opacity: 0.25; stroke: #000000; stroke-linejoin: miter"/>
   </g>
   <g id="patch_10">
    <path d="M 94.784666 340.36 
L 103.801029 340.36 
L 103.801029 193.28036 
L 94.784666 193.28036 
z
" clip-path="url(#p1e7e08b331)" style="fill: #2774ae; opacity: 0.25; stroke: #000000; stroke-linejoin: miter"/>
   </g>
   <g id="patch_11">
    <path d="M 103.801029 340.36 
L 112.817393 340.36 
L 112.817393 175.258049 
L 103.801029 175.258049 
z
" clip-path="url(#p1e7e08b331)" style="fill: #2774ae; opacity: 0.25; stroke: #000000; stroke-linejoin: miter"/>
   </g>
   <g id="patch_12">
    <path d="M 112.817393 340.36 
L 121.833757 340.36 
L 121.833757 153.308926 
L 112.817393 153.308926 
z
" clip-path="url(#p1e7e08b331)" style="fill: #2774ae; opacity: 0.25; stroke: #000000; stroke-linejoin: miter"/>
   </g>
   <g id="patch_13">
    <path d="M 121.833757 340.36 
L 130.85012 340.36 
L 130.85012 138.275681 
L 121.833757 138.275681 
z
" clip-path="url(#p1e7e08b331)" style="fill: #2774ae; opacity: 0.25; stroke: #000000; stroke-linejoin: miter"/>
   </g>
   <g id="patch_14">
    <path d="M 130.85012 340.36 
L 139.866484 340.36 
L 139.866484 109.410679 
L 130.85012 109.410679 
z
" clip-path="url(#p1e7e08b331)" style="fill: #2774ae; opacity: 0.25; stroke: #000000; stroke-linejoin: miter"/>
   </g>
   <g id="patch_15">
    <path d="M 139.866484 340.36 
L 148.882848 340.36 
L 148.882848 86.52381 
L 139.866484 86.52381 
z
" clip-path="url(#p1e7e08b331)" style="fill: #2774ae; opacity: 0.25; stroke: #000000; stroke-linejoin: miter"/>
   </g>
   <g id="patch_16">
    <path d="M 148.882848 340.36 
L 157.899211 340.36 
L 157.899211 98.948947 
L 148.882848 98.948947 
z
" clip-path="url(#p1e7e08b331)" style="fill: #2774ae; opacity: 0.25; stroke: #000000; stroke-linejoin: miter"/>
   </g>
   <g id="patch_17">
    <path d="M 157.899211 340.36 
L 166.915575 340.36 
L 166.915575 103.666983 
L 157.899211 103.666983 
z
" clip-path="url(#p1e7e08b331)" style="fill: #2774ae; opacity: 0.25; stroke: #000000; stroke-linejoin: miter"/>
   </g>
   <g id="patch_18">
    <path d="M 166.915575 340.36 
L 175.931938 340.36 
L 175.931938 147.56523 
L 166.915575 147.56523 
z
" clip-path="url(#p1e7e08b331)" style="fill: #2774ae; opacity: 0.25; stroke: #000000; stroke-linejoin: miter"/>
   </g>
   <g id="patch_19">
    <path d="M 175.931938 340.36 
L 184.948302 340.36 
L 184.948302 150.935256 
L 175.931938 150.935256 
z
" clip-path="url(#p1e7e08b331)" style="fill: #2774ae; opacity: 0.25; stroke: #000000; stroke-linejoin: miter"/>
   </g>
   <g id="patch_20">
    <path d="M 184.948302 340.36 
L 193.964666 340.36 
L 193.964666 159.990368 
L 184.948302 159.990368 
z
" clip-path="url(#p1e7e08b331)" style="fill: #2774ae; opacity: 0.25; stroke: #000000; stroke-linejoin: miter"/>
   </g>
   <g id="patch_21">
    <path d="M 193.964666 340.36 
L 202.981029 340.36 
L 202.981029 174.994308 
L 193.964666 174.994308 
z
" clip-path="url(#p1e7e08b331)" style="fill: #2774ae; opacity: 0.25; stroke: #000000; stroke-linejoin: miter"/>
   </g>
   <g id="patch_22">
    <path d="M 202.981029 340.36 
L 211.997393 340.36 
L 211.997393 194.071584 
L 202.981029 194.071584 
z
" clip-path="url(#p1e7e08b331)" style="fill: #2774ae; opacity: 0.25; stroke: #000000; stroke-linejoin: miter"/>
   </g>
   <g id="patch_23">
    <path d="M 211.997393 340.36 
L 221.013757 340.36 
L 221.013757 209.603006 
L 211.997393 209.603006 
z
" clip-path="url(#p1e7e08b331)" style="fill: #2774ae; opacity: 0.25; stroke: #000000; stroke-linejoin: miter"/>
   </g>
   <g id="patch_24">
    <path d="M 221.013757 340.36 
L 230.03012 340.36 
L 230.03012 227.566708 
L 221.013757 227.566708 
z
" clip-path="url(#p1e7e08b331)" style="fill: #2774ae; opacity: 0.25; stroke: #000000; stroke-linejoin: miter"/>
   </g>
   <g id="patch_25">
    <path d="M 230.03012 340.36 
L 239.046484 340.36 
L 239.046484 228.064885 
L 230.03012 228.064885 
z
" clip-path="url(#p1e7e08b331)" style="fill: #2774ae; opacity: 0.25; stroke: #000000; stroke-linejoin: miter"/>
   </g>
   <g id="patch_26">
    <path d="M 239.046484 340.36 
L 248.062848 340.36 
L 248.062848 231.903784 
L 239.046484 231.903784 
z
" clip-path="url(#p1e7e08b331)" style="fill: #2774ae; opacity: 0.25; stroke: #000000; stroke-linejoin: miter"/>
   </g>
   <g id="patch_27">
    <path d="M 248.062848 340.36 
L 257.079211 340.36 
L 257.079211 241.076115 
L 248.062848 241.076115 
z
" clip-path="url(#p1e7e08b331)" style="fill: #2774ae; opacity: 0.25; stroke: #000000; stroke-linejoin: miter"/>
   </g>
   <g id="patch_28">
    <path d="M 257.079211 340.36 
L 266.095575 340.36 
L 266.095575 243.713526 
L 257.079211 243.713526 
z
" clip-path="url(#p1e7e08b331)" style="fill: #2774ae; opacity: 0.25; stroke: #000000; stroke-linejoin: miter"/>
   </g>
   <g id="patch_29">
    <path d="M 266.095575 340.36 
L 275.111938 340.36 
L 275.111938 246.350938 
L 266.095575 246.350938 
z
" clip-path="url(#p1e7e08b331)" style="fill: #2774ae; opacity: 0.25; stroke: #000000; stroke-linejoin: miter"/>
   </g>
   <g id="patch_30">
    <path d="M 275.111938 340.36 
L 284.128302 340.36 
L 284.128302 245.647628 
L 275.111938 245.647628 
z
" clip-path="url(#p1e7e08b331)" style="fill: #2774ae; opacity: 0.25; stroke: #000000; stroke-linejoin: miter"/>
   </g>
   <g id="patch_31">
    <path d="M 284.128302 340.36 
L 293.144666 340.36 
L 293.144666 247.845471 
L 284.128302 247.845471 
z
" clip-path="url(#p1e7e08b331)" style="fill: #2774ae; opacity: 0.25; stroke: #000000; stroke-linejoin: miter"/>
   </g>
   <g id="patch_32">
    <path d="M 293.144666 340.36 
L 302.161029 340.36 
L 302.161029 253.794298 
L 293.144666 253.794298 
z
" clip-path="url(#p1e7e08b331)" style="fill: #2774ae; opacity: 0.25; stroke: #000000; stroke-linejoin: miter"/>
   </g>
   <g id="patch_33">
    <path d="M 302.161029 340.36 
L 311.177393 340.36 
L 311.177393 260.299913 
L 302.161029 260.299913 
z
" clip-path="url(#p1e7e08b331)" style="fill: #2774ae; opacity: 0.25; stroke: #000000; stroke-linejoin: miter"/>
   </g>
   <g id="patch_34">
    <path d="M 311.177393 340.36 
L 320.193757 340.36 
L 320.193757 267.127878 
L 311.177393 267.127878 
z
" clip-path="url(#p1e7e08b331)" style="fill: #2774ae; opacity: 0.25; stroke: #000000; stroke-linejoin: miter"/>
   </g>
   <g id="patch_35">
    <path d="M 320.193757 340.36 
L 329.21012 340.36 
L 329.21012 269.941117 
L 320.193757 269.941117 
z
" clip-path="url(#p1e7e08b331)" style="fill: #2774ae; opacity: 0.25; stroke: #000000; stroke-linejoin: miter"/>
   </g>
   <g id="patch_36">
    <path d="M 329.21012 340.36 
L 338.226484 340.36 
L 338.226484 271.406345 
L 329.21012 271.406345 
z
" clip-path="url(#p1e7e08b331)" style="fill: #2774ae; opacity: 0.25; stroke: #000000; stroke-linejoin: miter"/>
   </g>
   <g id="patch_37">
    <path d="M 338.226484 340.36 
L 347.242848 340.36 
L 347.242848 280.139107 
L 338.226484 280.139107 
z
" clip-path="url(#p1e7e08b331)" style="fill: #2774ae; opacity: 0.25; stroke: #000000; stroke-linejoin: miter"/>
   </g>
   <g id="patch_38">
    <path d="M 347.242848 340.36 
L 356.259211 340.36 
L 356.259211 284.739925 
L 347.242848 284.739925 
z
" clip-path="url(#p1e7e08b331)" style="fill: #2774ae; opacity: 0.25; stroke: #000000; stroke-linejoin: miter"/>
   </g>
   <g id="patch_39">
    <path d="M 356.259211 340.36 
L 365.275575 340.36 
L 365.275575 290.600839 
L 356.259211 290.600839 
z
" clip-path="url(#p1e7e08b331)" style="fill: #2774ae; opacity: 0.25; stroke: #000000; stroke-linejoin: miter"/>
   </g>
   <g id="patch_40">
    <path d="M 365.275575 340.36 
L 374.291938 340.36 
L 374.291938 288.256473 
L 365.275575 288.256473 
z
" clip-path="url(#p1e7e08b331)" style="fill: #2774ae; opacity: 0.25; stroke: #000000; stroke-linejoin: miter"/>
   </g>
   <g id="patch_41">
    <path d="M 374.291938 340.36 
L 383.308302 340.36 
L 383.308302 294.64487 
L 374.291938 294.64487 
z
" clip-path="url(#p1e7e08b331)" style="fill: #2774ae; opacity: 0.25; stroke: #000000; stroke-linejoin: miter"/>
   </g>
   <g id="patch_42">
    <path d="M 383.308302 340.36 
L 392.324666 340.36 
L 392.324666 295.34818 
L 383.308302 295.34818 
z
" clip-path="url(#p1e7e08b331)" style="fill: #2774ae; opacity: 0.25; stroke: #000000; stroke-linejoin: miter"/>
   </g>
   <g id="patch_43">
    <path d="M 392.324666 340.36 
L 401.341029 340.36 
L 401.341029 297.282281 
L 392.324666 297.282281 
z
" clip-path="url(#p1e7e08b331)" style="fill: #2774ae; opacity: 0.25; stroke: #000000; stroke-linejoin: miter"/>
   </g>
   <g id="patch_44">
    <path d="M 401.341029 340.36 
L 410.357393 340.36 
L 410.357393 302.46919 
L 401.341029 302.46919 
z
" clip-path="url(#p1e7e08b331)" style="fill: #2774ae; opacity: 0.25; stroke: #000000; stroke-linejoin: miter"/>
   </g>
   <g id="patch_45">
    <path d="M 410.357393 340.36 
L 419.373757 340.36 
L 419.373757 305.282429 
L 410.357393 305.282429 
z
" clip-path="url(#p1e7e08b331)" style="fill: #2774ae; opacity: 0.25; stroke: #000000; stroke-linejoin: miter"/>
   </g>
   <g id="patch_46">
    <path d="M 419.373757 340.36 
L 428.39012 340.36 
L 428.39012 312.344831 
L 419.373757 312.344831 
z
" clip-path="url(#p1e7e08b331)" style="fill: #2774ae; opacity: 0.25; stroke: #000000; stroke-linejoin: miter"/>
   </g>
   <g id="patch_47">
    <path d="M 428.39012 340.36 
L 437.406484 340.36 
L 437.406484 310.440033 
L 428.39012 310.440033 
z
" clip-path="url(#p1e7e08b331)" style="fill: #2774ae; opacity: 0.25; stroke: #000000; stroke-linejoin: miter"/>
   </g>
   <g id="patch_48">
    <path d="M 437.406484 340.36 
L 446.422848 340.36 
L 446.422848 315.919988 
L 437.406484 315.919988 
z
" clip-path="url(#p1e7e08b331)" style="fill: #2774ae; opacity: 0.25; stroke: #000000; stroke-linejoin: miter"/>
   </g>
   <g id="patch_49">
    <path d="M 446.422848 340.36 
L 455.439211 340.36 
L 455.439211 318.733227 
L 446.422848 318.733227 
z
" clip-path="url(#p1e7e08b331)" style="fill: #2774ae; opacity: 0.25; stroke: #000000; stroke-linejoin: miter"/>
   </g>
   <g id="patch_50">
    <path d="M 455.439211 340.36 
L 464.455575 340.36 
L 464.455575 320.432892 
L 455.439211 320.432892 
z
" clip-path="url(#p1e7e08b331)" style="fill: #2774ae; opacity: 0.25; stroke: #000000; stroke-linejoin: miter"/>
   </g>
   <g id="patch_51">
    <path d="M 464.455575 340.36 
L 473.471938 340.36 
L 473.471938 322.396298 
L 464.455575 322.396298 
z
" clip-path="url(#p1e7e08b331)" style="fill: #2774ae; opacity: 0.25; stroke: #000000; stroke-linejoin: miter"/>
   </g>
   <g id="patch_52">
    <path d="M 473.471938 340.36 
L 482.488302 340.36 
L 482.488302 322.689344 
L 473.471938 322.689344 
z
" clip-path="url(#p1e7e08b331)" style="fill: #2774ae; opacity: 0.25; stroke: #000000; stroke-linejoin: miter"/>
   </g>
   <g id="patch_53">
    <path d="M 482.488302 340.36 
L 491.504666 340.36 
L 491.504666 326.821288 
L 482.488302 326.821288 
z
" clip-path="url(#p1e7e08b331)" style="fill: #2774ae; opacity: 0.25; stroke: #000000; stroke-linejoin: miter"/>
   </g>
   <g id="patch_54">
    <path d="M 491.504666 340.36 
L 500.521029 340.36 
L 500.521029 325.883542 
L 491.504666 325.883542 
z
" clip-path="url(#p1e7e08b331)" style="fill: #2774ae; opacity: 0.25; stroke: #000000; stroke-linejoin: miter"/>
   </g>
   <g id="patch_55">
    <path d="M 500.521029 340.36 
L 509.537393 340.36 
L 509.537393 329.400091 
L 500.521029 329.400091 
z
" clip-path="url(#p1e7e08b331)" style="fill: #2774ae; opacity: 0.25; stroke: #000000; stroke-linejoin: miter"/>
   </g>
   <g id="patch_56">
    <path d="M 509.537393 340.36 
L 518.553757 340.36 
L 518.553757 327.671121 
L 509.537393 327.671121 
z
" clip-path="url(#p1e7e08b331)" style="fill: #2774ae; opacity: 0.25; stroke: #000000; stroke-linejoin: miter"/>
   </g>
   <g id="patch_57">
    <path d="M 518.553757 340.36 
L 527.57012 340.36 
L 527.57012 329.605223 
L 518.553757 329.605223 
z
" clip-path="url(#p1e7e08b331)" style="fill: #2774ae; opacity: 0.25; stroke: #000000; stroke-linejoin: miter"/>
   </g>
   <g id="patch_58">
    <path d="M 527.57012 340.36 
L 536.586484 340.36 
L 536.586484 330.80671 
L 527.57012 330.80671 
z
" clip-path="url(#p1e7e08b331)" style="fill: #2774ae; opacity: 0.25; stroke: #000000; stroke-linejoin: miter"/>
   </g>
   <g id="patch_59">
    <path d="M 536.586484 340.36 
L 545.602848 340.36 
L 545.602848 333.004553 
L 536.586484 333.004553 
z
" clip-path="url(#p1e7e08b331)" style="fill: #2774ae; opacity: 0.25; stroke: #000000; stroke-linejoin: miter"/>
   </g>
   <g id="patch_60">
    <path d="M 545.602848 340.36 
L 554.619211 340.36 
L 554.619211 332.418461 
L 545.602848 332.418461 
z
" clip-path="url(#p1e7e08b331)" style="fill: #2774ae; opacity: 0.25; stroke: #000000; stroke-linejoin: miter"/>
   </g>
   <g id="patch_61">
    <path d="M 554.619211 340.36 
L 563.635575 340.36 
L 563.635575 332.594289 
L 554.619211 332.594289 
z
" clip-path="url(#p1e7e08b331)" style="fill: #2774ae; opacity: 0.25; stroke: #000000; stroke-linejoin: miter"/>
   </g>
   <g id="patch_62">
    <path d="M 563.635575 340.36 
L 572.651938 340.36 
L 572.651938 335.173091 
L 563.635575 335.173091 
z
" clip-path="url(#p1e7e08b331)" style="fill: #2774ae; opacity: 0.25; stroke: #000000; stroke-linejoin: miter"/>
   </g>
   <g id="patch_63">
    <path d="M 572.651938 340.36 
L 581.668302 340.36 
L 581.668302 333.385512 
L 572.651938 333.385512 
z
" clip-path="url(#p1e7e08b331)" style="fill: #2774ae; opacity: 0.25; stroke: #000000; stroke-linejoin: miter"/>
   </g>
   <g id="patch_64">
    <path d="M 581.668302 340.36 
L 590.684666 340.36 
L 590.684666 335.407528 
L 581.668302 335.407528 
z
" clip-path="url(#p1e7e08b331)" style="fill: #2774ae; opacity: 0.25; stroke: #000000; stroke-linejoin: miter"/>
   </g>
   <g id="patch_65">
    <path d="M 590.684666 340.36 
L 599.701029 340.36 
L 599.701029 335.173091 
L 590.684666 335.173091 
z
" clip-path="url(#p1e7e08b331)" style="fill: #2774ae; opacity: 0.25; stroke: #000000; stroke-linejoin: miter"/>
   </g>
   <g id="patch_66">
    <path d="M 599.701029 340.36 
L 608.717393 340.36 
L 608.717393 334.880045 
L 599.701029 334.880045 
z
" clip-path="url(#p1e7e08b331)" style="fill: #2774ae; opacity: 0.25; stroke: #000000; stroke-linejoin: miter"/>
   </g>
   <g id="patch_67">
    <path d="M 608.717393 340.36 
L 617.733757 340.36 
L 617.733757 336.198751 
L 608.717393 336.198751 
z
" clip-path="url(#p1e7e08b331)" style="fill: #2774ae; opacity: 0.25; stroke: #000000; stroke-linejoin: miter"/>
   </g>
   <g id="patch_68">
    <path d="M 617.733757 340.36 
L 626.75012 340.36 
L 626.75012 336.667624 
L 617.733757 336.667624 
z
" clip-path="url(#p1e7e08b331)" style="fill: #2774ae; opacity: 0.25; stroke: #000000; stroke-linejoin: miter"/>
   </g>
   <g id="patch_69">
    <path d="M 626.75012 340.36 
L 635.766484 340.36 
L 635.766484 337.312325 
L 626.75012 337.312325 
z
" clip-path="url(#p1e7e08b331)" style="fill: #2774ae; opacity: 0.25; stroke: #000000; stroke-linejoin: miter"/>
   </g>
   <g id="patch_70">
    <path d="M 635.766484 340.36 
L 644.782848 340.36 
L 644.782848 337.019279 
L 635.766484 337.019279 
z
" clip-path="url(#p1e7e08b331)" style="fill: #2774ae; opacity: 0.25; stroke: #000000; stroke-linejoin: miter"/>
   </g>
   <g id="patch_71">
    <path d="M 644.782848 340.36 
L 653.799211 340.36 
L 653.799211 337.400238 
L 644.782848 337.400238 
z
" clip-path="url(#p1e7e08b331)" style="fill: #2774ae; opacity: 0.25; stroke: #000000; stroke-linejoin: miter"/>
   </g>
   <g id="patch_72">
    <path d="M 653.799211 340.36 
L 662.815575 340.36 
L 662.815575 337.077888 
L 653.799211 337.077888 
z
" clip-path="url(#p1e7e08b331)" style="fill: #2774ae; opacity: 0.25; stroke: #000000; stroke-linejoin: miter"/>
   </g>
   <g id="patch_73">
    <path d="M 662.815575 340.36 
L 671.831938 340.36 
L 671.831938 337.751893 
L 662.815575 337.751893 
z
" clip-path="url(#p1e7e08b331)" style="fill: #2774ae; opacity: 0.25; stroke: #000000; stroke-linejoin: miter"/>
   </g>
   <g id="matplotlib.axis_3"/>
   <g id="patch_74">
    <path d="M 9.129211 340.36 
L 703.389211 340.36 
" style="fill: none; stroke: #030303; stroke-width: 1.5; stroke-linejoin: miter; stroke-linecap: square"/>
   </g>
  </g>
  <g id="axes_3">
   <g id="patch_75">
    <path d="M 149.604363 340.36 
L 155.145757 340.36 
L 155.145757 340.033753 
L 149.604363 340.033753 
z
" clip-path="url(#p1e7e08b331)" style="fill: #005587; opacity: 0.4; stroke: #000000; stroke-linejoin: miter"/>
   </g>
   <g id="patch_76">
    <path d="M 155.145757 340.36 
L 160.68715 340.36 
L 160.68715 340.36 
L 155.145757 340.36 
z
" clip-path="url(#p1e7e08b331)" style="fill: #005587; opacity: 0.4; stroke: #000000; stroke-linejoin: miter"/>
   </g>
   <g id="patch_77">
    <path d="M 160.68715 340.36 
L 166.228543 340.36 
L 166.228543 338.89189 
L 160.68715 338.89189 
z
" clip-path="url(#p1e7e08b331)" style="fill: #005587; opacity: 0.4; stroke: #000000; stroke-linejoin: miter"/>
   </g>
   <g id="patch_78">
    <path d="M 166.228543 340.36 
L 171.769936 340.36 
L 171.769936 336.44504 
L 166.228543 336.44504 
z
" clip-path="url(#p1e7e08b331)" style="fill: #005587; opacity: 0.4; stroke: #000000; stroke-linejoin: miter"/>
   </g>
   <g id="patch_79">
    <path d="M 171.769936 340.36 
L 177.31133 340.36 
L 177.31133 328.125751 
L 171.769936 328.125751 
z
" clip-path="url(#p1e7e08b331)" style="fill: #005587; opacity: 0.4; stroke: #000000; stroke-linejoin: miter"/>
   </g>
   <g id="patch_80">
    <path d="M 177.31133 340.36 
L 182.852723 340.36 
L 182.852723 312.629036 
L 177.31133 312.629036 
z
" clip-path="url(#p1e7e08b331)" style="fill: #005587; opacity: 0.4; stroke: #000000; stroke-linejoin: miter"/>
   </g>
   <g id="patch_81">
    <path d="M 182.852723 340.36 
L 188.394116 340.36 
L 188.394116 289.628649 
L 182.852723 289.628649 
z
" clip-path="url(#p1e7e08b331)" style="fill: #005587; opacity: 0.4; stroke: #000000; stroke-linejoin: miter"/>
   </g>
   <g id="patch_82">
    <path d="M 188.394116 340.36 
L 193.93551 340.36 
L 193.93551 254.883383 
L 188.394116 254.883383 
z
" clip-path="url(#p1e7e08b331)" style="fill: #005587; opacity: 0.4; stroke: #000000; stroke-linejoin: miter"/>
   </g>
   <g id="patch_83">
    <path d="M 193.93551 340.36 
L 199.476903 340.36 
L 199.476903 217.038774 
L 193.93551 217.038774 
z
" clip-path="url(#p1e7e08b331)" style="fill: #005587; opacity: 0.4; stroke: #000000; stroke-linejoin: miter"/>
   </g>
   <g id="patch_84">
    <path d="M 199.476903 340.36 
L 205.018296 340.36 
L 205.018296 169.569889 
L 199.476903 169.569889 
z
" clip-path="url(#p1e7e08b331)" style="fill: #005587; opacity: 0.4; stroke: #000000; stroke-linejoin: miter"/>
   </g>
   <g id="patch_85">
    <path d="M 205.018296 340.36 
L 210.55969 340.36 
L 210.55969 141.838926 
L 205.018296 141.838926 
z
" clip-path="url(#p1e7e08b331)" style="fill: #005587; opacity: 0.4; stroke: #000000; stroke-linejoin: miter"/>
   </g>
   <g id="patch_86">
    <path d="M 210.55969 340.36 
L 216.101083 340.36 
L 216.101083 138.902706 
L 210.55969 138.902706 
z
" clip-path="url(#p1e7e08b331)" style="fill: #005587; opacity: 0.4; stroke: #000000; stroke-linejoin: miter"/>
   </g>
   <g id="patch_87">
    <path d="M 216.101083 340.36 
L 221.642476 340.36 
L 221.642476 147.548242 
L 216.101083 147.548242 
z
" clip-path="url(#p1e7e08b331)" style="fill: #005587; opacity: 0.4; stroke: #000000; stroke-linejoin: miter"/>
   </g>
   <g id="patch_88">
    <path d="M 221.642476 340.36 
L 227.183869 340.36 
L 227.183869 171.527369 
L 221.642476 171.527369 
z
" clip-path="url(#p1e7e08b331)" style="fill: #005587; opacity: 0.4; stroke: #000000; stroke-linejoin: miter"/>
   </g>
   <g id="patch_89">
    <path d="M 227.183869 340.36 
L 232.725263 340.36 
L 232.725263 206.925128 
L 227.183869 206.925128 
z
" clip-path="url(#p1e7e08b331)" style="fill: #005587; opacity: 0.4; stroke: #000000; stroke-linejoin: miter"/>
   </g>
   <g id="patch_90">
    <path d="M 232.725263 340.36 
L 238.266656 340.36 
L 238.266656 242.649134 
L 232.725263 242.649134 
z
" clip-path="url(#p1e7e08b331)" style="fill: #005587; opacity: 0.4; stroke: #000000; stroke-linejoin: miter"/>
   </g>
   <g id="patch_91">
    <path d="M 238.266656 340.36 
L 243.808049 340.36 
L 243.808049 275.273797 
L 238.266656 275.273797 
z
" clip-path="url(#p1e7e08b331)" style="fill: #005587; opacity: 0.4; stroke: #000000; stroke-linejoin: miter"/>
   </g>
   <g id="patch_92">
    <path d="M 243.808049 340.36 
L 249.349443 340.36 
L 249.349443 301.210404 
L 243.808049 301.210404 
z
" clip-path="url(#p1e7e08b331)" style="fill: #005587; opacity: 0.4; stroke: #000000; stroke-linejoin: miter"/>
   </g>
   <g id="patch_93">
    <path d="M 249.349443 340.36 
L 254.890836 340.36 
L 254.890836 312.79216 
L 249.349443 312.79216 
z
" clip-path="url(#p1e7e08b331)" style="fill: #005587; opacity: 0.4; stroke: #000000; stroke-linejoin: miter"/>
   </g>
   <g id="patch_94">
    <path d="M 254.890836 340.36 
L 260.432229 340.36 
L 260.432229 327.310135 
L 254.890836 327.310135 
z
" clip-path="url(#p1e7e08b331)" style="fill: #005587; opacity: 0.4; stroke: #000000; stroke-linejoin: miter"/>
   </g>
   <g id="patch_95">
    <path d="M 260.432229 340.36 
L 265.973622 340.36 
L 265.973622 333.182574 
L 260.432229 333.182574 
z
" clip-path="url(#p1e7e08b331)" style="fill: #005587; opacity: 0.4; stroke: #000000; stroke-linejoin: miter"/>
   </g>
   <g id="patch_96">
    <path d="M 265.973622 340.36 
L 271.515016 340.36 
L 271.515016 336.281917 
L 265.973622 336.281917 
z
" clip-path="url(#p1e7e08b331)" style="fill: #005587; opacity: 0.4; stroke: #000000; stroke-linejoin: miter"/>
   </g>
   <g id="patch_97">
    <path d="M 271.515016 340.36 
L 277.056409 340.36 
L 277.056409 337.097534 
L 271.515016 337.097534 
z
" clip-path="url(#p1e7e08b331)" style="fill: #005587; opacity: 0.4; stroke: #000000; stroke-linejoin: miter"/>
   </g>
   <g id="patch_98">
    <path d="M 277.056409 340.36 
L 282.597802 340.36 
L 282.597802 338.40252 
L 277.056409 338.40252 
z
" clip-path="url(#p1e7e08b331)" style="fill: #005587; opacity: 0.4; stroke: #000000; stroke-linejoin: miter"/>
   </g>
   <g id="patch_99">
    <path d="M 282.597802 340.36 
L 288.139196 340.36 
L 288.139196 340.196877 
L 282.597802 340.196877 
z
" clip-path="url(#p1e7e08b331)" style="fill: #005587; opacity: 0.4; stroke: #000000; stroke-linejoin: miter"/>
   </g>
   <g id="patch_100">
    <path d="M 288.139196 340.36 
L 293.680589 340.36 
L 293.680589 340.033753 
L 288.139196 340.033753 
z
" clip-path="url(#p1e7e08b331)" style="fill: #005587; opacity: 0.4; stroke: #000000; stroke-linejoin: miter"/>
   </g>
   <g id="patch_101">
    <path d="M 293.680589 340.36 
L 299.221982 340.36 
L 299.221982 340.196877 
L 293.680589 340.196877 
z
" clip-path="url(#p1e7e08b331)" style="fill: #005587; opacity: 0.4; stroke: #000000; stroke-linejoin: miter"/>
   </g>
   <g id="patch_102">
    <path d="M 299.221982 340.36 
L 304.763376 340.36 
L 304.763376 340.033753 
L 299.221982 340.033753 
z
" clip-path="url(#p1e7e08b331)" style="fill: #005587; opacity: 0.4; stroke: #000000; stroke-linejoin: miter"/>
   </g>
   <g id="patch_103">
    <path d="M 304.763376 340.36 
L 310.304769 340.36 
L 310.304769 340.36 
L 304.763376 340.36 
z
" clip-path="url(#p1e7e08b331)" style="fill: #005587; opacity: 0.4; stroke: #000000; stroke-linejoin: miter"/>
   </g>
   <g id="patch_104">
    <path d="M 310.304769 340.36 
L 315.846162 340.36 
L 315.846162 340.196877 
L 310.304769 340.196877 
z
" clip-path="url(#p1e7e08b331)" style="fill: #005587; opacity: 0.4; stroke: #000000; stroke-linejoin: miter"/>
   </g>
   <g id="matplotlib.axis_4"/>
   <g id="LineCollection_1">
    <path d="M 212.554456 340.36 
L 212.554456 128.829841 
" clip-path="url(#p1e7e08b331)" style="fill: none; stroke: #003b5c; stroke-width: 2"/>
   </g>
   <g id="patch_105">
    <path d="M 9.129211 340.36 
L 703.389211 340.36 
" style="fill: none; stroke: #030303; stroke-width: 1.5; stroke-linejoin: miter; stroke-linecap: square"/>
   </g>
   <g id="text_9">
    <!-- $\mu$ -->
    <g style="fill: #003b5c" transform="translate(204.874456 102.108) scale(0.24 -0.24)">
     <defs>
      <path id="DejaVuSans-Oblique-3bc" d="M -84 -1331 
L 856 3500 
L 1434 3500 
L 1009 1322 
Q 997 1256 987 1175 
Q 978 1094 978 1013 
Q 978 722 1161 565 
Q 1344 409 1684 409 
Q 2147 409 2431 671 
Q 2716 934 2816 1459 
L 3213 3500 
L 3788 3500 
L 3266 809 
Q 3253 750 3248 706 
Q 3244 663 3244 628 
Q 3244 531 3283 486 
Q 3322 441 3406 441 
Q 3438 441 3492 456 
Q 3547 472 3647 513 
L 3559 50 
Q 3422 -19 3297 -55 
Q 3172 -91 3053 -91 
Q 2847 -91 2730 40 
Q 2613 172 2613 403 
Q 2438 153 2195 31 
Q 1953 -91 1625 -91 
Q 1334 -91 1117 43 
Q 900 178 831 397 
L 494 -1331 
L -84 -1331 
z
" transform="scale(0.015625)"/>
     </defs>
     <use xlink:href="#DejaVuSans-Oblique-3bc" transform="translate(0 0.3125)"/>
    </g>
   </g>
  </g>
  <g id="axes_4">
   <g id="patch_106">
    <path d="M 163.110786 340.36 
L 168.026427 340.36 
L 168.026427 339.449214 
L 163.110786 339.449214 
z
" clip-path="url(#p1e7e08b331)" style="fill: #ffb81c; opacity: 0.45"/>
   </g>
   <g id="patch_107">
    <path d="M 168.026427 340.36 
L 172.942069 340.36 
L 172.942069 338.766124 
L 168.026427 338.766124 
z
" clip-path="url(#p1e7e08b331)" style="fill: #ffb81c; opacity: 0.45"/>
   </g>
   <g id="patch_108">
    <path d="M 172.942069 340.36 
L 177.857711 340.36 
L 177.857711 332.390618 
L 172.942069 332.390618 
z
" clip-path="url(#p1e7e08b331)" style="fill: #ffb81c; opacity: 0.45"/>
   </g>
   <g id="patch_109">
    <path d="M 177.857711 340.36 
L 182.773353 340.36 
L 182.773353 323.965843 
L 177.857711 323.965843 
z
" clip-path="url(#p1e7e08b331)" style="fill: #ffb81c; opacity: 0.45"/>
   </g>
   <g id="patch_110">
    <path d="M 182.773353 340.36 
L 187.688995 340.36 
L 187.688995 312.808709 
L 182.773353 312.808709 
z
" clip-path="url(#p1e7e08b331)" style="fill: #ffb81c; opacity: 0.45"/>
   </g>
   <g id="patch_111">
    <path d="M 187.688995 340.36 
L 192.604636 340.36 
L 192.604636 300.513092 
L 187.688995 300.513092 
z
" clip-path="url(#p1e7e08b331)" style="fill: #ffb81c; opacity: 0.45"/>
   </g>
   <g id="patch_112">
    <path d="M 192.604636 340.36 
L 197.520278 340.36 
L 197.520278 284.118935 
L 192.604636 284.118935 
z
" clip-path="url(#p1e7e08b331)" style="fill: #ffb81c; opacity: 0.45"/>
   </g>
   <g id="patch_113">
    <path d="M 197.520278 340.36 
L 202.43592 340.36 
L 202.43592 250.875229 
L 197.520278 250.875229 
z
" clip-path="url(#p1e7e08b331)" style="fill: #ffb81c; opacity: 0.45"/>
   </g>
   <g id="patch_114">
    <path d="M 202.43592 340.36 
L 207.351562 340.36 
L 207.351562 223.323938 
L 202.43592 223.323938 
z
" clip-path="url(#p1e7e08b331)" style="fill: #ffb81c; opacity: 0.45"/>
   </g>
   <g id="patch_115">
    <path d="M 207.351562 340.36 
L 212.267203 340.36 
L 212.267203 179.833884 
L 207.351562 179.833884 
z
" clip-path="url(#p1e7e08b331)" style="fill: #ffb81c; opacity: 0.45"/>
   </g>
   <g id="patch_116">
    <path d="M 212.267203 340.36 
L 217.182845 340.36 
L 217.182845 157.291919 
L 212.267203 157.291919 
z
" clip-path="url(#p1e7e08b331)" style="fill: #ffb81c; opacity: 0.45"/>
   </g>
   <g id="patch_117">
    <path d="M 217.182845 340.36 
L 222.098487 340.36 
L 222.098487 145.223998 
L 217.182845 145.223998 
z
" clip-path="url(#p1e7e08b331)" style="fill: #ffb81c; opacity: 0.45"/>
   </g>
   <g id="patch_118">
    <path d="M 222.098487 340.36 
L 227.014129 340.36 
L 227.014129 136.799223 
L 222.098487 136.799223 
z
" clip-path="url(#p1e7e08b331)" style="fill: #ffb81c; opacity: 0.45"/>
   </g>
   <g id="patch_119">
    <path d="M 227.014129 340.36 
L 231.92977 340.36 
L 231.92977 128.829841 
L 227.014129 128.829841 
z
" clip-path="url(#p1e7e08b331)" style="fill: #ffb81c; opacity: 0.45"/>
   </g>
   <g id="patch_120">
    <path d="M 231.92977 340.36 
L 236.845412 340.36 
L 236.845412 132.92838 
L 231.92977 132.92838 
z
" clip-path="url(#p1e7e08b331)" style="fill: #ffb81c; opacity: 0.45"/>
   </g>
   <g id="patch_121">
    <path d="M 236.845412 340.36 
L 241.761054 340.36 
L 241.761054 164.350514 
L 236.845412 164.350514 
z
" clip-path="url(#p1e7e08b331)" style="fill: #ffb81c; opacity: 0.45"/>
   </g>
   <g id="patch_122">
    <path d="M 241.761054 340.36 
L 246.676696 340.36 
L 246.676696 197.59422 
L 241.761054 197.59422 
z
" clip-path="url(#p1e7e08b331)" style="fill: #ffb81c; opacity: 0.45"/>
   </g>
   <g id="patch_123">
    <path d="M 246.676696 340.36 
L 251.592337 340.36 
L 251.592337 216.265343 
L 246.676696 216.265343 
z
" clip-path="url(#p1e7e08b331)" style="fill: #ffb81c; opacity: 0.45"/>
   </g>
   <g id="patch_124">
    <path d="M 251.592337 340.36 
L 256.507979 340.36 
L 256.507979 242.905847 
L 251.592337 242.905847 
z
" clip-path="url(#p1e7e08b331)" style="fill: #ffb81c; opacity: 0.45"/>
   </g>
   <g id="patch_125">
    <path d="M 256.507979 340.36 
L 261.423621 340.36 
L 261.423621 269.546352 
L 256.507979 269.546352 
z
" clip-path="url(#p1e7e08b331)" style="fill: #ffb81c; opacity: 0.45"/>
   </g>
   <g id="patch_126">
    <path d="M 261.423621 340.36 
L 266.339263 340.36 
L 266.339263 287.306688 
L 261.423621 287.306688 
z
" clip-path="url(#p1e7e08b331)" style="fill: #ffb81c; opacity: 0.45"/>
   </g>
   <g id="patch_127">
    <path d="M 266.339263 340.36 
L 271.254904 340.36 
L 271.254904 304.839327 
L 266.339263 304.839327 
z
" clip-path="url(#p1e7e08b331)" style="fill: #ffb81c; opacity: 0.45"/>
   </g>
   <g id="patch_128">
    <path d="M 271.254904 340.36 
L 276.170546 340.36 
L 276.170546 318.273428 
L 271.254904 318.273428 
z
" clip-path="url(#p1e7e08b331)" style="fill: #ffb81c; opacity: 0.45"/>
   </g>
   <g id="patch_129">
    <path d="M 276.170546 340.36 
L 281.086188 340.36 
L 281.086188 324.19354 
L 276.170546 324.19354 
z
" clip-path="url(#p1e7e08b331)" style="fill: #ffb81c; opacity: 0.45"/>
   </g>
   <g id="patch_130">
    <path d="M 281.086188 340.36 
L 286.00183 340.36 
L 286.00183 331.479832 
L 281.086188 331.479832 
z
" clip-path="url(#p1e7e08b331)" style="fill: #ffb81c; opacity: 0.45"/>
   </g>
   <g id="patch_131">
    <path d="M 286.00183 340.36 
L 290.917472 340.36 
L 290.917472 333.529101 
L 286.00183 333.529101 
z
" clip-path="url(#p1e7e08b331)" style="fill: #ffb81c; opacity: 0.45"/>
   </g>
   <g id="patch_132">
    <path d="M 290.917472 340.36 
L 295.833113 340.36 
L 295.833113 337.627641 
L 290.917472 337.627641 
z
" clip-path="url(#p1e7e08b331)" style="fill: #ffb81c; opacity: 0.45"/>
   </g>
   <g id="patch_133">
    <path d="M 295.833113 340.36 
L 300.748755 340.36 
L 300.748755 338.99382 
L 295.833113 338.99382 
z
" clip-path="url(#p1e7e08b331)" style="fill: #ffb81c; opacity: 0.45"/>
   </g>
   <g id="patch_134">
    <path d="M 300.748755 340.36 
L 305.664397 340.36 
L 305.664397 339.67691 
L 300.748755 339.67691 
z
" clip-path="url(#p1e7e08b331)" style="fill: #ffb81c; opacity: 0.45"/>
   </g>
   <g id="patch_135">
    <path d="M 305.664397 340.36 
L 310.580039 340.36 
L 310.580039 340.132303 
L 305.664397 340.132303 
z
" clip-path="url(#p1e7e08b331)" style="fill: #ffb81c; opacity: 0.45"/>
   </g>
   <g id="matplotlib.axis_5"/>
   <g id="LineCollection_2">
    <path d="M 228.301471 340.36 
L 228.301471 123.806 
" clip-path="url(#p1e7e08b331)" style="fill: none; stroke: #ffb81c; stroke-width: 1.5"/>
   </g>
   <g id="patch_136">
    <path d="M 9.129211 340.36 
L 703.389211 340.36 
" style="fill: none; stroke: #030303; stroke-width: 1.5; stroke-linejoin: miter; stroke-linecap: square"/>
   </g>
   <g id="text_10">
    <!-- $\bar{{x}}$ -->
    <g style="fill: #ffb81c" transform="translate(221.101471 102.15675) scale(0.24 -0.24)">
     <defs>
      <path id="DejaVuSans-304" d="M -2518 4769 
L -650 4769 
L -650 4306 
L -2518 4306 
L -2518 4769 
z
" transform="scale(0.015625)"/>
      <path id="DejaVuSans-Oblique-78" d="M 3841 3500 
L 2234 1784 
L 3219 0 
L 2559 0 
L 1819 1388 
L 531 0 
L -166 0 
L 1556 1844 
L 641 3500 
L 1300 3500 
L 1972 2234 
L 3144 3500 
L 3841 3500 
z
" transform="scale(0.015625)"/>
     </defs>
     <use xlink:href="#DejaVuSans-304" transform="translate(62.138672 0.484375)"/>
     <use xlink:href="#DejaVuSans-Oblique-78" transform="translate(0 0.578125)"/>
    </g>
   </g>
   <g id="legend_1">
    <g id="patch_137">
     <path d="M 568.681399 335.36 
L 696.389211 335.36 
Q 698.389211 335.36 698.389211 333.36 
L 698.389211 304.861562 
Q 698.389211 302.861562 696.389211 302.861562 
L 568.681399 302.861562 
Q 566.681399 302.861562 566.681399 304.861562 
L 566.681399 333.36 
Q 566.681399 335.36 568.681399 335.36 
z
" style="fill: #ffffff; opacity: 0.9; stroke: #cccccc; stroke-linejoin: miter"/>
    </g>
    <g id="text_11">
     <!-- Resampling Distribution -->
     <g style="fill: #030303" transform="translate(570.681399 314.46) scale(0.1 -0.1)">
      <defs>
       <path id="DejaVuSerif-52" d="M 3066 2316 
Q 3284 2256 3442 2114 
Q 3600 1972 3725 1716 
L 4403 331 
L 4972 331 
L 4972 0 
L 3872 0 
L 3144 1484 
Q 2934 1916 2759 2042 
Q 2584 2169 2278 2169 
L 1581 2169 
L 1581 331 
L 2241 331 
L 2241 0 
L 353 0 
L 353 331 
L 947 331 
L 947 4331 
L 353 4331 
L 353 4666 
L 2719 4666 
Q 3400 4666 3770 4341 
Q 4141 4016 4141 3419 
Q 4141 2938 3870 2661 
Q 3600 2384 3066 2316 
z
M 1581 2503 
L 2503 2503 
Q 2975 2503 3200 2726 
Q 3425 2950 3425 3419 
Q 3425 3888 3200 4109 
Q 2975 4331 2503 4331 
L 1581 4331 
L 1581 2503 
z
" transform="scale(0.015625)"/>
       <path id="DejaVuSerif-65" d="M 3469 1600 
L 991 1600 
L 991 1575 
Q 991 903 1244 561 
Q 1497 219 1991 219 
Q 2369 219 2611 417 
Q 2853 616 2950 1006 
L 3413 1006 
Q 3275 459 2904 184 
Q 2534 -91 1931 -91 
Q 1203 -91 761 389 
Q 319 869 319 1663 
Q 319 2450 753 2931 
Q 1188 3413 1894 3413 
Q 2647 3413 3050 2948 
Q 3453 2484 3469 1600 
z
M 2791 1931 
Q 2772 2513 2545 2808 
Q 2319 3103 1894 3103 
Q 1497 3103 1269 2806 
Q 1041 2509 991 1931 
L 2791 1931 
z
" transform="scale(0.015625)"/>
       <path id="DejaVuSerif-73" d="M 359 184 
L 359 959 
L 691 959 
Q 703 588 923 403 
Q 1144 219 1575 219 
Q 1963 219 2166 364 
Q 2369 509 2369 788 
Q 2369 1006 2220 1140 
Q 2072 1275 1594 1428 
L 1178 1569 
Q 750 1706 558 1912 
Q 366 2119 366 2438 
Q 366 2894 700 3153 
Q 1034 3413 1625 3413 
Q 1888 3413 2178 3344 
Q 2469 3275 2778 3144 
L 2778 2419 
L 2447 2419 
Q 2434 2741 2221 2922 
Q 2009 3103 1644 3103 
Q 1281 3103 1095 2975 
Q 909 2847 909 2591 
Q 909 2381 1050 2254 
Q 1191 2128 1613 1997 
L 2069 1856 
Q 2541 1709 2748 1489 
Q 2956 1269 2956 922 
Q 2956 450 2595 179 
Q 2234 -91 1600 -91 
Q 1278 -91 972 -22 
Q 666 47 359 184 
z
" transform="scale(0.015625)"/>
       <path id="DejaVuSerif-6d" d="M 3316 2675 
Q 3481 3041 3739 3227 
Q 3997 3413 4341 3413 
Q 4863 3413 5119 3089 
Q 5375 2766 5375 2113 
L 5375 331 
L 5894 331 
L 5894 0 
L 4300 0 
L 4300 331 
L 4800 331 
L 4800 2047 
Q 4800 2556 4650 2772 
Q 4500 2988 4153 2988 
Q 3769 2988 3567 2697 
Q 3366 2406 3366 1850 
L 3366 331 
L 3866 331 
L 3866 0 
L 2291 0 
L 2291 331 
L 2791 331 
L 2791 2069 
Q 2791 2566 2641 2777 
Q 2491 2988 2144 2988 
Q 1759 2988 1557 2697 
Q 1356 2406 1356 1850 
L 1356 331 
L 1856 331 
L 1856 0 
L 263 0 
L 263 331 
L 781 331 
L 781 2994 
L 231 2994 
L 231 3322 
L 1356 3322 
L 1356 2731 
Q 1516 3063 1762 3238 
Q 2009 3413 2322 3413 
Q 2709 3413 2968 3220 
Q 3228 3028 3316 2675 
z
" transform="scale(0.015625)"/>
       <path id="DejaVuSerif-70" d="M 1313 1825 
L 1313 1497 
Q 1313 897 1542 583 
Q 1772 269 2209 269 
Q 2650 269 2876 622 
Q 3103 975 3103 1663 
Q 3103 2353 2876 2703 
Q 2650 3053 2209 3053 
Q 1772 3053 1542 2737 
Q 1313 2422 1313 1825 
z
M 738 2988 
L 184 2988 
L 184 3322 
L 1313 3322 
L 1313 2803 
Q 1481 3116 1742 3264 
Q 2003 3413 2388 3413 
Q 3000 3413 3387 2928 
Q 3775 2444 3775 1663 
Q 3775 881 3387 395 
Q 3000 -91 2388 -91 
Q 2003 -91 1742 57 
Q 1481 206 1313 519 
L 1313 -997 
L 1856 -997 
L 1856 -1331 
L 184 -1331 
L 184 -997 
L 738 -997 
L 738 2988 
z
" transform="scale(0.015625)"/>
       <path id="DejaVuSerif-69" d="M 622 4353 
Q 622 4497 726 4603 
Q 831 4709 978 4709 
Q 1122 4709 1226 4603 
Q 1331 4497 1331 4353 
Q 1331 4206 1228 4103 
Q 1125 4000 978 4000 
Q 831 4000 726 4103 
Q 622 4206 622 4353 
z
M 1356 331 
L 1900 331 
L 1900 0 
L 231 0 
L 231 331 
L 781 331 
L 781 2988 
L 231 2988 
L 231 3322 
L 1356 3322 
L 1356 331 
z
" transform="scale(0.015625)"/>
       <path id="DejaVuSerif-6e" d="M 263 0 
L 263 331 
L 781 331 
L 781 2988 
L 231 2988 
L 231 3322 
L 1356 3322 
L 1356 2731 
Q 1516 3069 1770 3241 
Q 2025 3413 2363 3413 
Q 2913 3413 3172 3097 
Q 3431 2781 3431 2113 
L 3431 331 
L 3944 331 
L 3944 0 
L 2356 0 
L 2356 331 
L 2853 331 
L 2853 1931 
Q 2853 2541 2703 2767 
Q 2553 2994 2175 2994 
Q 1775 2994 1565 2701 
Q 1356 2409 1356 1850 
L 1356 331 
L 1856 331 
L 1856 0 
L 263 0 
z
" transform="scale(0.015625)"/>
       <path id="DejaVuSerif-67" d="M 3359 2988 
L 3359 72 
Q 3359 -644 2965 -1033 
Q 2572 -1422 1844 -1422 
Q 1516 -1422 1216 -1362 
Q 916 -1303 641 -1184 
L 641 -488 
L 941 -488 
Q 997 -813 1206 -963 
Q 1416 -1113 1806 -1113 
Q 2313 -1113 2548 -827 
Q 2784 -541 2784 72 
L 2784 519 
Q 2616 206 2355 57 
Q 2094 -91 1709 -91 
Q 1097 -91 708 395 
Q 319 881 319 1663 
Q 319 2444 706 2928 
Q 1094 3413 1709 3413 
Q 2094 3413 2355 3264 
Q 2616 3116 2784 2803 
L 2784 3322 
L 3909 3322 
L 3909 2988 
L 3359 2988 
z
M 2784 1825 
Q 2784 2422 2554 2737 
Q 2325 3053 1888 3053 
Q 1444 3053 1217 2703 
Q 991 2353 991 1663 
Q 991 975 1217 622 
Q 1444 269 1888 269 
Q 2325 269 2554 583 
Q 2784 897 2784 1497 
L 2784 1825 
z
" transform="scale(0.015625)"/>
       <path id="DejaVuSerif-74" d="M 691 2988 
L 184 2988 
L 184 3322 
L 691 3322 
L 691 4353 
L 1269 4353 
L 1269 3322 
L 2350 3322 
L 2350 2988 
L 1269 2988 
L 1269 878 
Q 1269 456 1350 337 
Q 1431 219 1650 219 
Q 1875 219 1978 351 
Q 2081 484 2088 781 
L 2522 781 
Q 2497 328 2275 118 
Q 2053 -91 1600 -91 
Q 1103 -91 897 129 
Q 691 350 691 878 
L 691 2988 
z
" transform="scale(0.015625)"/>
       <path id="DejaVuSerif-62" d="M 738 331 
L 738 4531 
L 184 4531 
L 184 4863 
L 1313 4863 
L 1313 2803 
Q 1481 3116 1742 3264 
Q 2003 3413 2388 3413 
Q 3000 3413 3387 2928 
Q 3775 2444 3775 1663 
Q 3775 881 3387 395 
Q 3000 -91 2388 -91 
Q 2003 -91 1742 57 
Q 1481 206 1313 519 
L 1313 0 
L 184 0 
L 184 331 
L 738 331 
z
M 1313 1497 
Q 1313 897 1542 583 
Q 1772 269 2209 269 
Q 2650 269 2876 622 
Q 3103 975 3103 1663 
Q 3103 2353 2876 2703 
Q 2650 3053 2209 3053 
Q 1772 3053 1542 2737 
Q 1313 2422 1313 1825 
L 1313 1497 
z
" transform="scale(0.015625)"/>
       <path id="DejaVuSerif-75" d="M 2266 3322 
L 3341 3322 
L 3341 331 
L 3884 331 
L 3884 0 
L 2766 0 
L 2766 588 
Q 2606 256 2353 82 
Q 2100 -91 1766 -91 
Q 1213 -91 952 223 
Q 691 538 691 1209 
L 691 2988 
L 172 2988 
L 172 3322 
L 1269 3322 
L 1269 1388 
Q 1269 781 1417 556 
Q 1566 331 1947 331 
Q 2347 331 2556 625 
Q 2766 919 2766 1478 
L 2766 2988 
L 2266 2988 
L 2266 3322 
z
" transform="scale(0.015625)"/>
       <path id="DejaVuSerif-6f" d="M 1925 219 
Q 2388 219 2623 584 
Q 2859 950 2859 1663 
Q 2859 2375 2623 2739 
Q 2388 3103 1925 3103 
Q 1463 3103 1227 2739 
Q 991 2375 991 1663 
Q 991 950 1228 584 
Q 1466 219 1925 219 
z
M 1925 -91 
Q 1200 -91 759 389 
Q 319 869 319 1663 
Q 319 2456 758 2934 
Q 1197 3413 1925 3413 
Q 2653 3413 3092 2934 
Q 3531 2456 3531 1663 
Q 3531 869 3092 389 
Q 2653 -91 1925 -91 
z
" transform="scale(0.015625)"/>
      </defs>
      <use xlink:href="#DejaVuSerif-52"/>
      <use xlink:href="#DejaVuSerif-65" transform="translate(75.292969 0)"/>
      <use xlink:href="#DejaVuSerif-73" transform="translate(134.472656 0)"/>
      <use xlink:href="#DejaVuSerif-61" transform="translate(185.791016 0)"/>
      <use xlink:href="#DejaVuSerif-6d" transform="translate(245.410156 0)"/>
      <use xlink:href="#DejaVuSerif-70" transform="translate(340.234375 0)"/>
      <use xlink:href="#DejaVuSerif-6c" transform="translate(404.248047 0)"/>
      <use xlink:href="#DejaVuSerif-69" transform="translate(436.230469 0)"/>
      <use xlink:href="#DejaVuSerif-6e" transform="translate(468.212891 0)"/>
      <use xlink:href="#DejaVuSerif-67" transform="translate(532.617188 0)"/>
      <use xlink:href="#DejaVuSerif-20" transform="translate(596.630859 0)"/>
      <use xlink:href="#DejaVuSerif-44" transform="translate(628.417969 0)"/>
      <use xlink:href="#DejaVuSerif-69" transform="translate(708.59375 0)"/>
      <use xlink:href="#DejaVuSerif-73" transform="translate(740.576172 0)"/>
      <use xlink:href="#DejaVuSerif-74" transform="translate(791.894531 0)"/>
      <use xlink:href="#DejaVuSerif-72" transform="translate(832.080078 0)"/>
      <use xlink:href="#DejaVuSerif-69" transform="translate(879.882812 0)"/>
      <use xlink:href="#DejaVuSerif-62" transform="translate(911.865234 0)"/>
      <use xlink:href="#DejaVuSerif-75" transform="translate(975.878906 0)"/>
      <use xlink:href="#DejaVuSerif-74" transform="translate(1040.283203 0)"/>
      <use xlink:href="#DejaVuSerif-69" transform="translate(1080.46875 0)"/>
      <use xlink:href="#DejaVuSerif-6f" transform="translate(1112.451172 0)"/>
      <use xlink:href="#DejaVuSerif-6e" transform="translate(1172.65625 0)"/>
     </g>
    </g>
    <g id="line2d_8">
     <path d="M 571.235305 325.780313 
L 591.235305 325.780313 
" style="fill: none; stroke: #ffb81c; stroke-width: 1.5"/>
    </g>
    <g id="text_12">
     <!-- $\bar{x}=\$102$K ($N=50$) -->
     <g style="fill: #030303" transform="translate(599.235305 329.280313) scale(0.1 -0.1)">
      <defs>
       <path id="DejaVuSans-3d" d="M 678 2906 
L 4684 2906 
L 4684 2381 
L 678 2381 
L 678 2906 
z
M 678 1631 
L 4684 1631 
L 4684 1100 
L 678 1100 
L 678 1631 
z
" transform="scale(0.015625)"/>
       <path id="DejaVuSans-24" d="M 2163 -941 
L 1850 -941 
L 1847 0 
Q 1519 6 1191 76 
Q 863 147 531 288 
L 531 850 
Q 850 650 1176 548 
Q 1503 447 1850 444 
L 1850 1869 
Q 1159 1981 845 2250 
Q 531 2519 531 2988 
Q 531 3497 872 3790 
Q 1213 4084 1850 4128 
L 1850 4863 
L 2163 4863 
L 2163 4138 
Q 2453 4125 2725 4076 
Q 2997 4028 3256 3944 
L 3256 3397 
Q 2997 3528 2723 3600 
Q 2450 3672 2163 3684 
L 2163 2350 
Q 2872 2241 3206 1959 
Q 3541 1678 3541 1191 
Q 3541 663 3186 358 
Q 2831 53 2163 6 
L 2163 -941 
z
M 1850 2406 
L 1850 3688 
Q 1488 3647 1297 3481 
Q 1106 3316 1106 3041 
Q 1106 2772 1282 2622 
Q 1459 2472 1850 2406 
z
M 2163 1806 
L 2163 453 
Q 2559 506 2761 678 
Q 2963 850 2963 1131 
Q 2963 1406 2770 1568 
Q 2578 1731 2163 1806 
z
" transform="scale(0.015625)"/>
       <path id="DejaVuSans-31" d="M 794 531 
L 1825 531 
L 1825 4091 
L 703 3866 
L 703 4441 
L 1819 4666 
L 2450 4666 
L 2450 531 
L 3481 531 
L 3481 0 
L 794 0 
L 794 531 
z
" transform="scale(0.015625)"/>
       <path id="DejaVuSans-30" d="M 2034 4250 
Q 1547 4250 1301 3770 
Q 1056 3291 1056 2328 
Q 1056 1369 1301 889 
Q 1547 409 2034 409 
Q 2525 409 2770 889 
Q 3016 1369 3016 2328 
Q 3016 3291 2770 3770 
Q 2525 4250 2034 4250 
z
M 2034 4750 
Q 2819 4750 3233 4129 
Q 3647 3509 3647 2328 
Q 3647 1150 3233 529 
Q 2819 -91 2034 -91 
Q 1250 -91 836 529 
Q 422 1150 422 2328 
Q 422 3509 836 4129 
Q 1250 4750 2034 4750 
z
" transform="scale(0.015625)"/>
       <path id="DejaVuSans-32" d="M 1228 531 
L 3431 531 
L 3431 0 
L 469 0 
L 469 531 
Q 828 903 1448 1529 
Q 2069 2156 2228 2338 
Q 2531 2678 2651 2914 
Q 2772 3150 2772 3378 
Q 2772 3750 2511 3984 
Q 2250 4219 1831 4219 
Q 1534 4219 1204 4116 
Q 875 4013 500 3803 
L 500 4441 
Q 881 4594 1212 4672 
Q 1544 4750 1819 4750 
Q 2544 4750 2975 4387 
Q 3406 4025 3406 3419 
Q 3406 3131 3298 2873 
Q 3191 2616 2906 2266 
Q 2828 2175 2409 1742 
Q 1991 1309 1228 531 
z
" transform="scale(0.015625)"/>
       <path id="DejaVuSans-Oblique-4e" d="M 1081 4666 
L 1931 4666 
L 3219 666 
L 4000 4666 
L 4616 4666 
L 3706 0 
L 2853 0 
L 1569 4025 
L 788 0 
L 172 0 
L 1081 4666 
z
" transform="scale(0.015625)"/>
       <path id="DejaVuSans-35" d="M 691 4666 
L 3169 4666 
L 3169 4134 
L 1269 4134 
L 1269 2991 
Q 1406 3038 1543 3061 
Q 1681 3084 1819 3084 
Q 2600 3084 3056 2656 
Q 3513 2228 3513 1497 
Q 3513 744 3044 326 
Q 2575 -91 1722 -91 
Q 1428 -91 1123 -41 
Q 819 9 494 109 
L 494 744 
Q 775 591 1075 516 
Q 1375 441 1709 441 
Q 2250 441 2565 725 
Q 2881 1009 2881 1497 
Q 2881 1984 2565 2268 
Q 2250 2553 1709 2553 
Q 1456 2553 1204 2497 
Q 953 2441 691 2322 
L 691 4666 
z
" transform="scale(0.015625)"/>
      </defs>
      <use xlink:href="#DejaVuSans-304" transform="translate(62.138672 -0.078125)"/>
      <use xlink:href="#DejaVuSans-Oblique-78" transform="translate(0 0.015625)"/>
      <use xlink:href="#DejaVuSans-3d" transform="translate(78.662109 0.015625)"/>
      <use xlink:href="#DejaVuSans-24" transform="translate(181.933594 0.015625)"/>
      <use xlink:href="#DejaVuSans-31" transform="translate(245.556641 0.015625)"/>
      <use xlink:href="#DejaVuSans-30" transform="translate(309.179688 0.015625)"/>
      <use xlink:href="#DejaVuSans-32" transform="translate(372.802734 0.015625)"/>
      <use xlink:href="#DejaVuSerif-4b" transform="translate(436.425781 0.015625)"/>
      <use xlink:href="#DejaVuSerif-20" transform="translate(511.132812 0.015625)"/>
      <use xlink:href="#DejaVuSerif-28" transform="translate(542.919922 0.015625)"/>
      <use xlink:href="#DejaVuSans-Oblique-4e" transform="translate(581.933594 0.015625)"/>
      <use xlink:href="#DejaVuSans-3d" transform="translate(676.220703 0.015625)"/>
      <use xlink:href="#DejaVuSans-35" transform="translate(779.492188 0.015625)"/>
      <use xlink:href="#DejaVuSans-30" transform="translate(843.115234 0.015625)"/>
      <use xlink:href="#DejaVuSerif-29" transform="translate(906.738281 0.015625)"/>
     </g>
    </g>
   </g>
  </g>
 </g>
 <defs>
  <clipPath id="p1e7e08b331">
   <rect x="9.129211" y="7.2" width="694.26" height="333.16"/>
  </clipPath>
 </defs>
</svg>
