<?xml version="1.0" encoding="utf-8" standalone="no"?>
<!DOCTYPE svg PUBLIC "-//W3C//DTD SVG 1.1//EN"
  "http://www.w3.org/Graphics/SVG/1.1/DTD/svg11.dtd">
<svg xmlns:xlink="http://www.w3.org/1999/xlink" width="712.700625pt" height="425.593715pt" viewBox="0 0 712.700625 425.593715" xmlns="http://www.w3.org/2000/svg" version="1.1">
 <metadata>
  <rdf:RDF xmlns:dc="http://purl.org/dc/elements/1.1/" xmlns:cc="http://creativecommons.org/ns#" xmlns:rdf="http://www.w3.org/1999/02/22-rdf-syntax-ns#">
   <cc:Work>
    <dc:type rdf:resource="http://purl.org/dc/dcmitype/StillImage"/>
    <dc:date>2025-01-20T16:14:34.642976</dc:date>
    <dc:format>image/svg+xml</dc:format>
    <dc:creator>
     <cc:Agent>
      <dc:title>Matplotlib v3.10.0, https://matplotlib.org/</dc:title>
     </cc:Agent>
    </dc:creator>
   </cc:Work>
  </rdf:RDF>
 </metadata>
 <defs>
  <style type="text/css">*{stroke-linejoin: round; stroke-linecap: butt}</style>
 </defs>
 <g id="figure_1">
  <g id="patch_1">
   <path d="M 0 425.593715 
L 712.700625 425.593715 
L 712.700625 0 
L 0 0 
L 0 425.593715 
z
" style="fill: none"/>
  </g>
  <g id="axes_1">
   <g id="patch_2">
    <path d="M 35.620625 165.567778 
L 705.500625 165.567778 
L 705.500625 28.626528 
L 35.620625 28.626528 
L 35.620625 165.567778 
z
" style="fill: none"/>
   </g>
   <g id="patch_3">
    <path d="M 66.069716 165.567778 
L 85.714291 165.567778 
L 85.714291 96.956341 
L 66.069716 96.956341 
z
" clip-path="url(#p3bd7bae9a6)" style="fill: #8bb8e8; opacity: 0.7; stroke: #666666; stroke-linejoin: miter"/>
   </g>
   <g id="patch_4">
    <path d="M 85.714291 165.567778 
L 105.358865 165.567778 
L 105.358865 109.54864 
L 85.714291 109.54864 
z
" clip-path="url(#p3bd7bae9a6)" style="fill: #8bb8e8; opacity: 0.7; stroke: #666666; stroke-linejoin: miter"/>
   </g>
   <g id="patch_5">
    <path d="M 105.358865 165.567778 
L 125.00344 165.567778 
L 125.00344 107.933123 
L 105.358865 107.933123 
z
" clip-path="url(#p3bd7bae9a6)" style="fill: #8bb8e8; opacity: 0.7; stroke: #666666; stroke-linejoin: miter"/>
   </g>
   <g id="patch_6">
    <path d="M 125.00344 165.567778 
L 144.648015 165.567778 
L 144.648015 95.506742 
L 125.00344 95.506742 
z
" clip-path="url(#p3bd7bae9a6)" style="fill: #8bb8e8; opacity: 0.7; stroke: #666666; stroke-linejoin: miter"/>
   </g>
   <g id="patch_7">
    <path d="M 144.648015 165.567778 
L 164.29259 165.567778 
L 164.29259 76.059412 
L 144.648015 76.059412 
z
" clip-path="url(#p3bd7bae9a6)" style="fill: #8bb8e8; opacity: 0.7; stroke: #666666; stroke-linejoin: miter"/>
   </g>
   <g id="patch_8">
    <path d="M 164.29259 165.567778 
L 183.937165 165.567778 
L 183.937165 58.769016 
L 164.29259 58.769016 
z
" clip-path="url(#p3bd7bae9a6)" style="fill: #8bb8e8; opacity: 0.7; stroke: #666666; stroke-linejoin: miter"/>
   </g>
   <g id="patch_9">
    <path d="M 183.937165 165.567778 
L 203.581739 165.567778 
L 203.581739 35.14754 
L 183.937165 35.14754 
z
" clip-path="url(#p3bd7bae9a6)" style="fill: #8bb8e8; opacity: 0.7; stroke: #666666; stroke-linejoin: miter"/>
   </g>
   <g id="patch_10">
    <path d="M 203.581739 165.567778 
L 223.226314 165.567778 
L 223.226314 40.75382 
L 203.581739 40.75382 
z
" clip-path="url(#p3bd7bae9a6)" style="fill: #8bb8e8; opacity: 0.7; stroke: #666666; stroke-linejoin: miter"/>
   </g>
   <g id="patch_11">
    <path d="M 223.226314 165.567778 
L 242.870889 165.567778 
L 242.870889 65.955883 
L 223.226314 65.955883 
z
" clip-path="url(#p3bd7bae9a6)" style="fill: #8bb8e8; opacity: 0.7; stroke: #666666; stroke-linejoin: miter"/>
   </g>
   <g id="patch_12">
    <path d="M 242.870889 165.567778 
L 262.515464 165.567778 
L 262.515464 71.326384 
L 242.870889 71.326384 
z
" clip-path="url(#p3bd7bae9a6)" style="fill: #8bb8e8; opacity: 0.7; stroke: #666666; stroke-linejoin: miter"/>
   </g>
   <g id="patch_13">
    <path d="M 262.515464 165.567778 
L 282.160038 165.567778 
L 282.160038 88.075364 
L 262.515464 88.075364 
z
" clip-path="url(#p3bd7bae9a6)" style="fill: #8bb8e8; opacity: 0.7; stroke: #666666; stroke-linejoin: miter"/>
   </g>
   <g id="patch_14">
    <path d="M 282.160038 165.567778 
L 301.804613 165.567778 
L 301.804613 103.689116 
L 282.160038 103.689116 
z
" clip-path="url(#p3bd7bae9a6)" style="fill: #8bb8e8; opacity: 0.7; stroke: #666666; stroke-linejoin: miter"/>
   </g>
   <g id="patch_15">
    <path d="M 301.804613 165.567778 
L 321.449188 165.567778 
L 321.449188 107.8196 
L 301.804613 107.8196 
z
" clip-path="url(#p3bd7bae9a6)" style="fill: #8bb8e8; opacity: 0.7; stroke: #666666; stroke-linejoin: miter"/>
   </g>
   <g id="patch_16">
    <path d="M 321.449188 165.567778 
L 341.093763 165.567778 
L 341.093763 112.727278 
L 321.449188 112.727278 
z
" clip-path="url(#p3bd7bae9a6)" style="fill: #8bb8e8; opacity: 0.7; stroke: #666666; stroke-linejoin: miter"/>
   </g>
   <g id="patch_17">
    <path d="M 341.093763 165.567778 
L 360.738338 165.567778 
L 360.738338 117.835804 
L 341.093763 117.835804 
z
" clip-path="url(#p3bd7bae9a6)" style="fill: #8bb8e8; opacity: 0.7; stroke: #666666; stroke-linejoin: miter"/>
   </g>
   <g id="patch_18">
    <path d="M 360.738338 165.567778 
L 380.382912 165.567778 
L 380.382912 116.01944 
L 360.738338 116.01944 
z
" clip-path="url(#p3bd7bae9a6)" style="fill: #8bb8e8; opacity: 0.7; stroke: #666666; stroke-linejoin: miter"/>
   </g>
   <g id="patch_19">
    <path d="M 380.382912 165.567778 
L 400.027487 165.567778 
L 400.027487 121.922625 
L 380.382912 121.922625 
z
" clip-path="url(#p3bd7bae9a6)" style="fill: #8bb8e8; opacity: 0.7; stroke: #666666; stroke-linejoin: miter"/>
   </g>
   <g id="patch_20">
    <path d="M 400.027487 165.567778 
L 419.672062 165.567778 
L 419.672062 126.219027 
L 400.027487 126.219027 
z
" clip-path="url(#p3bd7bae9a6)" style="fill: #8bb8e8; opacity: 0.7; stroke: #666666; stroke-linejoin: miter"/>
   </g>
   <g id="patch_21">
    <path d="M 419.672062 165.567778 
L 439.316637 165.567778 
L 439.316637 130.716277 
L 419.672062 130.716277 
z
" clip-path="url(#p3bd7bae9a6)" style="fill: #8bb8e8; opacity: 0.7; stroke: #666666; stroke-linejoin: miter"/>
   </g>
   <g id="patch_22">
    <path d="M 439.316637 165.567778 
L 458.961212 165.567778 
L 458.961212 135.632687 
L 439.316637 135.632687 
z
" clip-path="url(#p3bd7bae9a6)" style="fill: #8bb8e8; opacity: 0.7; stroke: #666666; stroke-linejoin: miter"/>
   </g>
   <g id="patch_23">
    <path d="M 458.961212 165.567778 
L 478.605786 165.567778 
L 478.605786 138.418362 
L 458.961212 138.418362 
z
" clip-path="url(#p3bd7bae9a6)" style="fill: #8bb8e8; opacity: 0.7; stroke: #666666; stroke-linejoin: miter"/>
   </g>
   <g id="patch_24">
    <path d="M 478.605786 165.567778 
L 498.250361 165.567778 
L 498.250361 142.14715 
L 478.605786 142.14715 
z
" clip-path="url(#p3bd7bae9a6)" style="fill: #8bb8e8; opacity: 0.7; stroke: #666666; stroke-linejoin: miter"/>
   </g>
   <g id="patch_25">
    <path d="M 498.250361 165.567778 
L 517.894936 165.567778 
L 517.894936 142.889414 
L 498.250361 142.889414 
z
" clip-path="url(#p3bd7bae9a6)" style="fill: #8bb8e8; opacity: 0.7; stroke: #666666; stroke-linejoin: miter"/>
   </g>
   <g id="patch_26">
    <path d="M 517.894936 165.567778 
L 537.539511 165.567778 
L 537.539511 146.74919 
L 517.894936 146.74919 
z
" clip-path="url(#p3bd7bae9a6)" style="fill: #8bb8e8; opacity: 0.7; stroke: #666666; stroke-linejoin: miter"/>
   </g>
   <g id="patch_27">
    <path d="M 537.539511 165.567778 
L 557.184085 165.567778 
L 557.184085 150.216002 
L 537.539511 150.216002 
z
" clip-path="url(#p3bd7bae9a6)" style="fill: #8bb8e8; opacity: 0.7; stroke: #666666; stroke-linejoin: miter"/>
   </g>
   <g id="patch_28">
    <path d="M 557.184085 165.567778 
L 576.82866 165.567778 
L 576.82866 153.21999 
L 557.184085 153.21999 
z
" clip-path="url(#p3bd7bae9a6)" style="fill: #8bb8e8; opacity: 0.7; stroke: #666666; stroke-linejoin: miter"/>
   </g>
   <g id="patch_29">
    <path d="M 576.82866 165.567778 
L 596.473235 165.567778 
L 596.473235 154.582263 
L 576.82866 154.582263 
z
" clip-path="url(#p3bd7bae9a6)" style="fill: #8bb8e8; opacity: 0.7; stroke: #666666; stroke-linejoin: miter"/>
   </g>
   <g id="patch_30">
    <path d="M 596.473235 165.567778 
L 616.11781 165.567778 
L 616.11781 156.573279 
L 596.473235 156.573279 
z
" clip-path="url(#p3bd7bae9a6)" style="fill: #8bb8e8; opacity: 0.7; stroke: #666666; stroke-linejoin: miter"/>
   </g>
   <g id="patch_31">
    <path d="M 616.11781 165.567778 
L 635.762385 165.567778 
L 635.762385 158.276121 
L 616.11781 158.276121 
z
" clip-path="url(#p3bd7bae9a6)" style="fill: #8bb8e8; opacity: 0.7; stroke: #666666; stroke-linejoin: miter"/>
   </g>
   <g id="patch_32">
    <path d="M 635.762385 165.567778 
L 655.406959 165.567778 
L 655.406959 159.463744 
L 635.762385 159.463744 
z
" clip-path="url(#p3bd7bae9a6)" style="fill: #8bb8e8; opacity: 0.7; stroke: #666666; stroke-linejoin: miter"/>
   </g>
   <g id="patch_33">
    <path d="M 655.406959 165.567778 
L 675.051534 165.567778 
L 675.051534 123.538142 
L 655.406959 123.538142 
z
" clip-path="url(#p3bd7bae9a6)" style="fill: #8bb8e8; opacity: 0.7; stroke: #666666; stroke-linejoin: miter"/>
   </g>
   <g id="matplotlib.axis_1">
    <g id="xtick_1">
     <g id="line2d_1">
      <defs>
       <path id="mb5fc9487f3" d="M 0 0 
L 0 3.5 
" style="stroke: #030303; stroke-width: 0.8"/>
      </defs>
      <g>
       <use xlink:href="#mb5fc9487f3" x="157.740169" y="165.567778" style="fill: #030303; stroke: #030303; stroke-width: 0.8"/>
      </g>
     </g>
     <g id="text_1">
      <!-- $50K -->
      <g style="fill: #030303" transform="translate(139.149701 183.20559) scale(0.14 -0.14)">
       <defs>
        <path id="DejaVuSerif-24" d="M 2156 213 
Q 2509 244 2695 416 
Q 2881 588 2881 884 
Q 2881 1153 2697 1340 
Q 2513 1528 2156 1625 
L 2156 213 
z
M 1844 3709 
Q 1522 3688 1344 3523 
Q 1166 3359 1166 3084 
Q 1166 2834 1330 2668 
Q 1494 2503 1844 2400 
L 1844 3709 
z
M 550 225 
L 550 1088 
L 888 1088 
Q 900 659 1137 440 
Q 1375 222 1844 213 
L 1844 1728 
Q 1125 1928 834 2189 
Q 544 2450 544 2881 
Q 544 3381 887 3684 
Q 1231 3988 1844 4025 
L 1844 4863 
L 2156 4863 
L 2156 4025 
Q 2472 4000 2764 3923 
Q 3056 3847 3334 3719 
L 3334 2900 
L 2994 2900 
Q 2956 3263 2740 3472 
Q 2525 3681 2156 3709 
L 2156 2297 
Q 2925 2088 3233 1817 
Q 3541 1547 3541 1094 
Q 3541 575 3178 262 
Q 2816 -50 2156 -97 
L 2156 -941 
L 1844 -941 
L 1844 -97 
Q 1544 -91 1222 -11 
Q 900 69 550 225 
z
" transform="scale(0.015625)"/>
        <path id="DejaVuSerif-35" d="M 3219 4666 
L 3219 4153 
L 1081 4153 
L 1081 2816 
Q 1244 2928 1461 2984 
Q 1678 3041 1947 3041 
Q 2703 3041 3140 2622 
Q 3578 2203 3578 1478 
Q 3578 738 3136 323 
Q 2694 -91 1894 -91 
Q 1572 -91 1234 -12 
Q 897 66 544 225 
L 544 1131 
L 897 1131 
Q 925 688 1179 453 
Q 1434 219 1894 219 
Q 2388 219 2653 544 
Q 2919 869 2919 1478 
Q 2919 2084 2655 2407 
Q 2391 2731 1894 2731 
Q 1613 2731 1398 2631 
Q 1184 2531 1019 2322 
L 750 2322 
L 750 4666 
L 3219 4666 
z
" transform="scale(0.015625)"/>
        <path id="DejaVuSerif-30" d="M 2034 219 
Q 2513 219 2750 744 
Q 2988 1269 2988 2328 
Q 2988 3391 2750 3916 
Q 2513 4441 2034 4441 
Q 1556 4441 1318 3916 
Q 1081 3391 1081 2328 
Q 1081 1269 1318 744 
Q 1556 219 2034 219 
z
M 2034 -91 
Q 1275 -91 848 546 
Q 422 1184 422 2328 
Q 422 3475 848 4112 
Q 1275 4750 2034 4750 
Q 2797 4750 3222 4112 
Q 3647 3475 3647 2328 
Q 3647 1184 3222 546 
Q 2797 -91 2034 -91 
z
" transform="scale(0.015625)"/>
        <path id="DejaVuSerif-4b" d="M 353 0 
L 353 331 
L 947 331 
L 947 4331 
L 353 4331 
L 353 4666 
L 2175 4666 
L 2175 4331 
L 1581 4331 
L 1581 2566 
L 3591 4331 
L 3084 4331 
L 3084 4666 
L 4634 4666 
L 4634 4331 
L 4109 4331 
L 2106 2572 
L 4347 331 
L 4878 331 
L 4878 0 
L 3794 0 
L 1581 2216 
L 1581 331 
L 2175 331 
L 2175 0 
L 353 0 
z
" transform="scale(0.015625)"/>
       </defs>
       <use xlink:href="#DejaVuSerif-24"/>
       <use xlink:href="#DejaVuSerif-35" transform="translate(63.623047 0)"/>
       <use xlink:href="#DejaVuSerif-30" transform="translate(127.246094 0)"/>
       <use xlink:href="#DejaVuSerif-4b" transform="translate(190.869141 0)"/>
      </g>
     </g>
    </g>
    <g id="xtick_2">
     <g id="line2d_2">
      <g>
       <use xlink:href="#mb5fc9487f3" x="284.606095" y="165.567778" style="fill: #030303; stroke: #030303; stroke-width: 0.8"/>
      </g>
     </g>
     <g id="text_2">
      <!-- $100K -->
      <g style="fill: #030303" transform="translate(261.561877 183.20559) scale(0.14 -0.14)">
       <defs>
        <path id="DejaVuSerif-31" d="M 909 0 
L 909 331 
L 1722 331 
L 1722 4213 
L 781 3603 
L 781 4013 
L 1919 4750 
L 2350 4750 
L 2350 331 
L 3163 331 
L 3163 0 
L 909 0 
z
" transform="scale(0.015625)"/>
       </defs>
       <use xlink:href="#DejaVuSerif-24"/>
       <use xlink:href="#DejaVuSerif-31" transform="translate(63.623047 0)"/>
       <use xlink:href="#DejaVuSerif-30" transform="translate(127.246094 0)"/>
       <use xlink:href="#DejaVuSerif-30" transform="translate(190.869141 0)"/>
       <use xlink:href="#DejaVuSerif-4b" transform="translate(254.492188 0)"/>
      </g>
     </g>
    </g>
    <g id="xtick_3">
     <g id="line2d_3">
      <g>
       <use xlink:href="#mb5fc9487f3" x="411.472021" y="165.567778" style="fill: #030303; stroke: #030303; stroke-width: 0.8"/>
      </g>
     </g>
     <g id="text_3">
      <!-- $150K -->
      <g style="fill: #030303" transform="translate(388.427803 183.20559) scale(0.14 -0.14)">
       <use xlink:href="#DejaVuSerif-24"/>
       <use xlink:href="#DejaVuSerif-31" transform="translate(63.623047 0)"/>
       <use xlink:href="#DejaVuSerif-35" transform="translate(127.246094 0)"/>
       <use xlink:href="#DejaVuSerif-30" transform="translate(190.869141 0)"/>
       <use xlink:href="#DejaVuSerif-4b" transform="translate(254.492188 0)"/>
      </g>
     </g>
    </g>
    <g id="xtick_4">
     <g id="line2d_4">
      <g>
       <use xlink:href="#mb5fc9487f3" x="538.337947" y="165.567778" style="fill: #030303; stroke: #030303; stroke-width: 0.8"/>
      </g>
     </g>
     <g id="text_4">
      <!-- $200K -->
      <g style="fill: #030303" transform="translate(515.293729 183.20559) scale(0.14 -0.14)">
       <defs>
        <path id="DejaVuSerif-32" d="M 819 3553 
L 469 3553 
L 469 4384 
Q 803 4563 1142 4656 
Q 1481 4750 1806 4750 
Q 2534 4750 2956 4397 
Q 3378 4044 3378 3438 
Q 3378 2753 2422 1800 
Q 2347 1728 2309 1691 
L 1131 513 
L 3078 513 
L 3078 1088 
L 3444 1088 
L 3444 0 
L 434 0 
L 434 341 
L 1850 1753 
Q 2319 2222 2519 2614 
Q 2719 3006 2719 3438 
Q 2719 3909 2473 4175 
Q 2228 4441 1797 4441 
Q 1350 4441 1106 4219 
Q 863 3997 819 3553 
z
" transform="scale(0.015625)"/>
       </defs>
       <use xlink:href="#DejaVuSerif-24"/>
       <use xlink:href="#DejaVuSerif-32" transform="translate(63.623047 0)"/>
       <use xlink:href="#DejaVuSerif-30" transform="translate(127.246094 0)"/>
       <use xlink:href="#DejaVuSerif-30" transform="translate(190.869141 0)"/>
       <use xlink:href="#DejaVuSerif-4b" transform="translate(254.492188 0)"/>
      </g>
     </g>
    </g>
    <g id="xtick_5">
     <g id="line2d_5">
      <g>
       <use xlink:href="#mb5fc9487f3" x="665.203874" y="165.567778" style="fill: #030303; stroke: #030303; stroke-width: 0.8"/>
      </g>
     </g>
     <g id="text_5">
      <!-- &gt;$250K -->
      <g style="fill: #030303" transform="translate(636.293874 183.20559) scale(0.14 -0.14)">
       <defs>
        <path id="DejaVuSerif-3e" d="M 678 3188 
L 678 3719 
L 4684 2266 
L 4684 1747 
L 678 294 
L 678 825 
L 3922 2003 
L 678 3188 
z
" transform="scale(0.015625)"/>
       </defs>
       <use xlink:href="#DejaVuSerif-3e"/>
       <use xlink:href="#DejaVuSerif-24" transform="translate(83.789062 0)"/>
       <use xlink:href="#DejaVuSerif-32" transform="translate(147.412109 0)"/>
       <use xlink:href="#DejaVuSerif-35" transform="translate(211.035156 0)"/>
       <use xlink:href="#DejaVuSerif-30" transform="translate(274.658203 0)"/>
       <use xlink:href="#DejaVuSerif-4b" transform="translate(338.28125 0)"/>
      </g>
     </g>
    </g>
    <g id="text_6">
     <!-- Salary (USD) -->
     <g style="fill: #030303" transform="translate(310.548906 203.79434) scale(0.18 -0.18)">
      <defs>
       <path id="DejaVuSerif-53" d="M 594 225 
L 594 1288 
L 953 1284 
Q 969 753 1261 498 
Q 1553 244 2150 244 
Q 2706 244 2998 464 
Q 3291 684 3291 1106 
Q 3291 1444 3114 1625 
Q 2938 1806 2369 1978 
L 1753 2163 
Q 1084 2366 811 2669 
Q 538 2972 538 3500 
Q 538 4094 959 4422 
Q 1381 4750 2144 4750 
Q 2469 4750 2856 4679 
Q 3244 4609 3681 4475 
L 3681 3481 
L 3328 3481 
Q 3275 3975 2998 4195 
Q 2722 4416 2156 4416 
Q 1663 4416 1405 4214 
Q 1147 4013 1147 3628 
Q 1147 3294 1340 3103 
Q 1534 2913 2163 2725 
L 2741 2553 
Q 3375 2363 3645 2067 
Q 3916 1772 3916 1275 
Q 3916 597 3481 253 
Q 3047 -91 2188 -91 
Q 1803 -91 1404 -12 
Q 1006 66 594 225 
z
" transform="scale(0.015625)"/>
       <path id="DejaVuSerif-61" d="M 2547 1044 
L 2547 1747 
L 1806 1747 
Q 1378 1747 1168 1562 
Q 959 1378 959 997 
Q 959 650 1171 447 
Q 1384 244 1747 244 
Q 2106 244 2326 466 
Q 2547 688 2547 1044 
z
M 3122 2075 
L 3122 331 
L 3634 331 
L 3634 0 
L 2547 0 
L 2547 359 
Q 2356 128 2106 18 
Q 1856 -91 1522 -91 
Q 969 -91 644 203 
Q 319 497 319 997 
Q 319 1513 691 1797 
Q 1063 2081 1741 2081 
L 2547 2081 
L 2547 2309 
Q 2547 2688 2317 2895 
Q 2088 3103 1672 3103 
Q 1328 3103 1125 2947 
Q 922 2791 872 2484 
L 575 2484 
L 575 3156 
Q 875 3284 1158 3348 
Q 1441 3413 1709 3413 
Q 2400 3413 2761 3070 
Q 3122 2728 3122 2075 
z
" transform="scale(0.015625)"/>
       <path id="DejaVuSerif-6c" d="M 1313 331 
L 1856 331 
L 1856 0 
L 184 0 
L 184 331 
L 738 331 
L 738 4531 
L 184 4531 
L 184 4863 
L 1313 4863 
L 1313 331 
z
" transform="scale(0.015625)"/>
       <path id="DejaVuSerif-72" d="M 3059 3328 
L 3059 2497 
L 2728 2497 
Q 2713 2744 2591 2866 
Q 2469 2988 2234 2988 
Q 1809 2988 1582 2694 
Q 1356 2400 1356 1850 
L 1356 331 
L 2022 331 
L 2022 0 
L 263 0 
L 263 331 
L 781 331 
L 781 2994 
L 231 2994 
L 231 3322 
L 1356 3322 
L 1356 2731 
Q 1525 3078 1790 3245 
Q 2056 3413 2438 3413 
Q 2578 3413 2733 3391 
Q 2888 3369 3059 3328 
z
" transform="scale(0.015625)"/>
       <path id="DejaVuSerif-79" d="M 1381 -609 
L 1600 -56 
L 359 2988 
L -19 2988 
L -19 3322 
L 1509 3322 
L 1509 2988 
L 978 2988 
L 1913 703 
L 2847 2988 
L 2350 2988 
L 2350 3322 
L 3597 3322 
L 3597 2988 
L 3225 2988 
L 1703 -750 
Q 1547 -1138 1356 -1280 
Q 1166 -1422 819 -1422 
Q 672 -1422 517 -1397 
Q 363 -1372 206 -1325 
L 206 -691 
L 500 -691 
Q 519 -903 608 -995 
Q 697 -1088 884 -1088 
Q 1056 -1088 1161 -992 
Q 1266 -897 1381 -609 
z
" transform="scale(0.015625)"/>
       <path id="DejaVuSerif-20" transform="scale(0.015625)"/>
       <path id="DejaVuSerif-28" d="M 2041 -997 
Q 1281 -656 893 83 
Q 506 822 506 1931 
Q 506 3044 893 3783 
Q 1281 4522 2041 4863 
L 2041 4556 
Q 1559 4225 1350 3623 
Q 1141 3022 1141 1931 
Q 1141 844 1350 242 
Q 1559 -359 2041 -691 
L 2041 -997 
z
" transform="scale(0.015625)"/>
       <path id="DejaVuSerif-55" d="M 897 4331 
L 300 4331 
L 300 4666 
L 2125 4666 
L 2125 4331 
L 1528 4331 
L 1528 1919 
Q 1528 1025 1820 672 
Q 2113 319 2828 319 
Q 3544 319 3836 672 
Q 4128 1025 4128 1919 
L 4128 4331 
L 3531 4331 
L 3531 4666 
L 5106 4666 
L 5106 4331 
L 4513 4331 
L 4513 1856 
Q 4513 791 4103 350 
Q 3694 -91 2713 -91 
Q 1731 -91 1314 353 
Q 897 797 897 1856 
L 897 4331 
z
" transform="scale(0.015625)"/>
       <path id="DejaVuSerif-44" d="M 1581 331 
L 2163 331 
Q 3072 331 3558 850 
Q 4044 1369 4044 2338 
Q 4044 3306 3559 3818 
Q 3075 4331 2163 4331 
L 1581 4331 
L 1581 331 
z
M 353 0 
L 353 331 
L 947 331 
L 947 4331 
L 353 4331 
L 353 4666 
L 2209 4666 
Q 3416 4666 4089 4050 
Q 4763 3434 4763 2338 
Q 4763 1238 4088 619 
Q 3413 0 2209 0 
L 353 0 
z
" transform="scale(0.015625)"/>
       <path id="DejaVuSerif-29" d="M 453 -997 
L 453 -691 
Q 934 -359 1145 242 
Q 1356 844 1356 1931 
Q 1356 3022 1145 3623 
Q 934 4225 453 4556 
L 453 4863 
Q 1216 4522 1603 3783 
Q 1991 3044 1991 1931 
Q 1991 822 1603 83 
Q 1216 -656 453 -997 
z
" transform="scale(0.015625)"/>
      </defs>
      <use xlink:href="#DejaVuSerif-53"/>
      <use xlink:href="#DejaVuSerif-61" transform="translate(68.505859 0)"/>
      <use xlink:href="#DejaVuSerif-6c" transform="translate(128.125 0)"/>
      <use xlink:href="#DejaVuSerif-61" transform="translate(160.107422 0)"/>
      <use xlink:href="#DejaVuSerif-72" transform="translate(219.726562 0)"/>
      <use xlink:href="#DejaVuSerif-79" transform="translate(267.529297 0)"/>
      <use xlink:href="#DejaVuSerif-20" transform="translate(324.023438 0)"/>
      <use xlink:href="#DejaVuSerif-28" transform="translate(355.810547 0)"/>
      <use xlink:href="#DejaVuSerif-55" transform="translate(394.824219 0)"/>
      <use xlink:href="#DejaVuSerif-53" transform="translate(479.101562 0)"/>
      <use xlink:href="#DejaVuSerif-44" transform="translate(547.607422 0)"/>
      <use xlink:href="#DejaVuSerif-29" transform="translate(627.783203 0)"/>
     </g>
    </g>
   </g>
   <g id="matplotlib.axis_2">
    <g id="ytick_1">
     <g id="line2d_6">
      <defs>
       <path id="mfa73909648" d="M 0 0 
L -3.5 0 
" style="stroke: #030303; stroke-width: 0.8"/>
      </defs>
      <g>
       <use xlink:href="#mfa73909648" x="35.620625" y="165.567778" style="fill: #030303; stroke: #030303; stroke-width: 0.8"/>
      </g>
     </g>
    </g>
    <g id="ytick_2">
     <g id="line2d_7">
      <g>
       <use xlink:href="#mfa73909648" x="35.620625" y="121.90516" style="fill: #030303; stroke: #030303; stroke-width: 0.8"/>
      </g>
     </g>
    </g>
    <g id="ytick_3">
     <g id="line2d_8">
      <g>
       <use xlink:href="#mfa73909648" x="35.620625" y="78.242543" style="fill: #030303; stroke: #030303; stroke-width: 0.8"/>
      </g>
     </g>
    </g>
    <g id="ytick_4">
     <g id="line2d_9">
      <g>
       <use xlink:href="#mfa73909648" x="35.620625" y="34.579926" style="fill: #030303; stroke: #030303; stroke-width: 0.8"/>
      </g>
     </g>
    </g>
    <g id="text_7">
     <!-- Frequency -->
     <g style="fill: #030303" transform="translate(20.62125 145.777309) rotate(-90) scale(0.18 -0.18)">
      <defs>
       <path id="DejaVuSerif-46" d="M 353 0 
L 353 331 
L 947 331 
L 947 4331 
L 353 4331 
L 353 4666 
L 4172 4666 
L 4172 3628 
L 3788 3628 
L 3788 4281 
L 1581 4281 
L 1581 2719 
L 3175 2719 
L 3175 3303 
L 3559 3303 
L 3559 1753 
L 3175 1753 
L 3175 2338 
L 1581 2338 
L 1581 331 
L 2328 331 
L 2328 0 
L 353 0 
z
" transform="scale(0.015625)"/>
       <path id="DejaVuSerif-65" d="M 3469 1600 
L 991 1600 
L 991 1575 
Q 991 903 1244 561 
Q 1497 219 1991 219 
Q 2369 219 2611 417 
Q 2853 616 2950 1006 
L 3413 1006 
Q 3275 459 2904 184 
Q 2534 -91 1931 -91 
Q 1203 -91 761 389 
Q 319 869 319 1663 
Q 319 2450 753 2931 
Q 1188 3413 1894 3413 
Q 2647 3413 3050 2948 
Q 3453 2484 3469 1600 
z
M 2791 1931 
Q 2772 2513 2545 2808 
Q 2319 3103 1894 3103 
Q 1497 3103 1269 2806 
Q 1041 2509 991 1931 
L 2791 1931 
z
" transform="scale(0.015625)"/>
       <path id="DejaVuSerif-71" d="M 3359 2988 
L 3359 -997 
L 3909 -997 
L 3909 -1331 
L 2241 -1331 
L 2241 -997 
L 2784 -997 
L 2784 519 
Q 2616 206 2355 57 
Q 2094 -91 1709 -91 
Q 1097 -91 708 395 
Q 319 881 319 1663 
Q 319 2444 706 2928 
Q 1094 3413 1709 3413 
Q 2094 3413 2355 3264 
Q 2616 3116 2784 2803 
L 2784 3322 
L 3909 3322 
L 3909 2988 
L 3359 2988 
z
M 2784 1825 
Q 2784 2422 2554 2737 
Q 2325 3053 1888 3053 
Q 1444 3053 1217 2703 
Q 991 2353 991 1663 
Q 991 975 1217 622 
Q 1444 269 1888 269 
Q 2325 269 2554 583 
Q 2784 897 2784 1497 
L 2784 1825 
z
" transform="scale(0.015625)"/>
       <path id="DejaVuSerif-75" d="M 2266 3322 
L 3341 3322 
L 3341 331 
L 3884 331 
L 3884 0 
L 2766 0 
L 2766 588 
Q 2606 256 2353 82 
Q 2100 -91 1766 -91 
Q 1213 -91 952 223 
Q 691 538 691 1209 
L 691 2988 
L 172 2988 
L 172 3322 
L 1269 3322 
L 1269 1388 
Q 1269 781 1417 556 
Q 1566 331 1947 331 
Q 2347 331 2556 625 
Q 2766 919 2766 1478 
L 2766 2988 
L 2266 2988 
L 2266 3322 
z
" transform="scale(0.015625)"/>
       <path id="DejaVuSerif-6e" d="M 263 0 
L 263 331 
L 781 331 
L 781 2988 
L 231 2988 
L 231 3322 
L 1356 3322 
L 1356 2731 
Q 1516 3069 1770 3241 
Q 2025 3413 2363 3413 
Q 2913 3413 3172 3097 
Q 3431 2781 3431 2113 
L 3431 331 
L 3944 331 
L 3944 0 
L 2356 0 
L 2356 331 
L 2853 331 
L 2853 1931 
Q 2853 2541 2703 2767 
Q 2553 2994 2175 2994 
Q 1775 2994 1565 2701 
Q 1356 2409 1356 1850 
L 1356 331 
L 1856 331 
L 1856 0 
L 263 0 
z
" transform="scale(0.015625)"/>
       <path id="DejaVuSerif-63" d="M 3291 997 
Q 3169 466 2822 187 
Q 2475 -91 1925 -91 
Q 1200 -91 759 389 
Q 319 869 319 1663 
Q 319 2459 759 2936 
Q 1200 3413 1925 3413 
Q 2241 3413 2553 3339 
Q 2866 3266 3181 3116 
L 3181 2266 
L 2847 2266 
Q 2781 2703 2561 2903 
Q 2341 3103 1931 3103 
Q 1466 3103 1228 2742 
Q 991 2381 991 1663 
Q 991 944 1227 581 
Q 1463 219 1931 219 
Q 2303 219 2525 412 
Q 2747 606 2828 997 
L 3291 997 
z
" transform="scale(0.015625)"/>
      </defs>
      <use xlink:href="#DejaVuSerif-46"/>
      <use xlink:href="#DejaVuSerif-72" transform="translate(69.384766 0)"/>
      <use xlink:href="#DejaVuSerif-65" transform="translate(117.1875 0)"/>
      <use xlink:href="#DejaVuSerif-71" transform="translate(176.367188 0)"/>
      <use xlink:href="#DejaVuSerif-75" transform="translate(240.380859 0)"/>
      <use xlink:href="#DejaVuSerif-65" transform="translate(304.785156 0)"/>
      <use xlink:href="#DejaVuSerif-6e" transform="translate(363.964844 0)"/>
      <use xlink:href="#DejaVuSerif-63" transform="translate(428.369141 0)"/>
      <use xlink:href="#DejaVuSerif-79" transform="translate(484.375 0)"/>
     </g>
    </g>
   </g>
   <g id="patch_34">
    <path d="M 35.620625 165.567778 
L 35.620625 28.626528 
" style="fill: none; stroke: #030303; stroke-width: 1.5; stroke-linejoin: miter; stroke-linecap: square"/>
   </g>
   <g id="patch_35">
    <path d="M 35.620625 165.567778 
L 705.500625 165.567778 
" style="fill: none; stroke: #030303; stroke-width: 1.5; stroke-linejoin: miter; stroke-linecap: square"/>
   </g>
  </g>
  <g id="axes_2">
   <g id="patch_36">
    <path d="M 35.620625 376.167778 
L 705.500625 376.167778 
L 705.500625 239.226528 
L 35.620625 239.226528 
L 35.620625 376.167778 
z
" style="fill: none"/>
   </g>
   <g id="patch_37">
    <path d="M 66.069716 376.167778 
L 85.714291 376.167778 
L 85.714291 307.556341 
L 66.069716 307.556341 
z
" clip-path="url(#p9ee8e80233)" style="fill: #8bb8e8; opacity: 0.7; stroke: #666666; stroke-linejoin: miter"/>
   </g>
   <g id="patch_38">
    <path d="M 85.714291 376.167778 
L 105.358865 376.167778 
L 105.358865 320.14864 
L 85.714291 320.14864 
z
" clip-path="url(#p9ee8e80233)" style="fill: #8bb8e8; opacity: 0.7; stroke: #666666; stroke-linejoin: miter"/>
   </g>
   <g id="patch_39">
    <path d="M 105.358865 376.167778 
L 125.00344 376.167778 
L 125.00344 318.533123 
L 105.358865 318.533123 
z
" clip-path="url(#p9ee8e80233)" style="fill: #8bb8e8; opacity: 0.7; stroke: #666666; stroke-linejoin: miter"/>
   </g>
   <g id="patch_40">
    <path d="M 125.00344 376.167778 
L 144.648015 376.167778 
L 144.648015 306.106742 
L 125.00344 306.106742 
z
" clip-path="url(#p9ee8e80233)" style="fill: #8bb8e8; opacity: 0.7; stroke: #666666; stroke-linejoin: miter"/>
   </g>
   <g id="patch_41">
    <path d="M 144.648015 376.167778 
L 164.29259 376.167778 
L 164.29259 286.659412 
L 144.648015 286.659412 
z
" clip-path="url(#p9ee8e80233)" style="fill: #8bb8e8; opacity: 0.7; stroke: #666666; stroke-linejoin: miter"/>
   </g>
   <g id="patch_42">
    <path d="M 164.29259 376.167778 
L 183.937165 376.167778 
L 183.937165 269.369016 
L 164.29259 269.369016 
z
" clip-path="url(#p9ee8e80233)" style="fill: #8bb8e8; opacity: 0.7; stroke: #666666; stroke-linejoin: miter"/>
   </g>
   <g id="patch_43">
    <path d="M 183.937165 376.167778 
L 203.581739 376.167778 
L 203.581739 245.74754 
L 183.937165 245.74754 
z
" clip-path="url(#p9ee8e80233)" style="fill: #8bb8e8; opacity: 0.7; stroke: #666666; stroke-linejoin: miter"/>
   </g>
   <g id="patch_44">
    <path d="M 203.581739 376.167778 
L 223.226314 376.167778 
L 223.226314 251.35382 
L 203.581739 251.35382 
z
" clip-path="url(#p9ee8e80233)" style="fill: #8bb8e8; opacity: 0.7; stroke: #666666; stroke-linejoin: miter"/>
   </g>
   <g id="patch_45">
    <path d="M 223.226314 376.167778 
L 242.870889 376.167778 
L 242.870889 276.555883 
L 223.226314 276.555883 
z
" clip-path="url(#p9ee8e80233)" style="fill: #8bb8e8; opacity: 0.7; stroke: #666666; stroke-linejoin: miter"/>
   </g>
   <g id="patch_46">
    <path d="M 242.870889 376.167778 
L 262.515464 376.167778 
L 262.515464 281.926384 
L 242.870889 281.926384 
z
" clip-path="url(#p9ee8e80233)" style="fill: #8bb8e8; opacity: 0.7; stroke: #666666; stroke-linejoin: miter"/>
   </g>
   <g id="patch_47">
    <path d="M 262.515464 376.167778 
L 282.160038 376.167778 
L 282.160038 298.675364 
L 262.515464 298.675364 
z
" clip-path="url(#p9ee8e80233)" style="fill: #8bb8e8; opacity: 0.7; stroke: #666666; stroke-linejoin: miter"/>
   </g>
   <g id="patch_48">
    <path d="M 282.160038 376.167778 
L 301.804613 376.167778 
L 301.804613 314.289116 
L 282.160038 314.289116 
z
" clip-path="url(#p9ee8e80233)" style="fill: #8bb8e8; opacity: 0.7; stroke: #666666; stroke-linejoin: miter"/>
   </g>
   <g id="patch_49">
    <path d="M 301.804613 376.167778 
L 321.449188 376.167778 
L 321.449188 318.4196 
L 301.804613 318.4196 
z
" clip-path="url(#p9ee8e80233)" style="fill: #8bb8e8; opacity: 0.7; stroke: #666666; stroke-linejoin: miter"/>
   </g>
   <g id="patch_50">
    <path d="M 321.449188 376.167778 
L 341.093763 376.167778 
L 341.093763 323.327278 
L 321.449188 323.327278 
z
" clip-path="url(#p9ee8e80233)" style="fill: #8bb8e8; opacity: 0.7; stroke: #666666; stroke-linejoin: miter"/>
   </g>
   <g id="patch_51">
    <path d="M 341.093763 376.167778 
L 360.738338 376.167778 
L 360.738338 328.435804 
L 341.093763 328.435804 
z
" clip-path="url(#p9ee8e80233)" style="fill: #8bb8e8; opacity: 0.7; stroke: #666666; stroke-linejoin: miter"/>
   </g>
   <g id="patch_52">
    <path d="M 360.738338 376.167778 
L 380.382912 376.167778 
L 380.382912 326.61944 
L 360.738338 326.61944 
z
" clip-path="url(#p9ee8e80233)" style="fill: #8bb8e8; opacity: 0.7; stroke: #666666; stroke-linejoin: miter"/>
   </g>
   <g id="patch_53">
    <path d="M 380.382912 376.167778 
L 400.027487 376.167778 
L 400.027487 332.522625 
L 380.382912 332.522625 
z
" clip-path="url(#p9ee8e80233)" style="fill: #8bb8e8; opacity: 0.7; stroke: #666666; stroke-linejoin: miter"/>
   </g>
   <g id="patch_54">
    <path d="M 400.027487 376.167778 
L 419.672062 376.167778 
L 419.672062 336.819027 
L 400.027487 336.819027 
z
" clip-path="url(#p9ee8e80233)" style="fill: #8bb8e8; opacity: 0.7; stroke: #666666; stroke-linejoin: miter"/>
   </g>
   <g id="patch_55">
    <path d="M 419.672062 376.167778 
L 439.316637 376.167778 
L 439.316637 341.316277 
L 419.672062 341.316277 
z
" clip-path="url(#p9ee8e80233)" style="fill: #8bb8e8; opacity: 0.7; stroke: #666666; stroke-linejoin: miter"/>
   </g>
   <g id="patch_56">
    <path d="M 439.316637 376.167778 
L 458.961212 376.167778 
L 458.961212 346.232687 
L 439.316637 346.232687 
z
" clip-path="url(#p9ee8e80233)" style="fill: #8bb8e8; opacity: 0.7; stroke: #666666; stroke-linejoin: miter"/>
   </g>
   <g id="patch_57">
    <path d="M 458.961212 376.167778 
L 478.605786 376.167778 
L 478.605786 349.018362 
L 458.961212 349.018362 
z
" clip-path="url(#p9ee8e80233)" style="fill: #8bb8e8; opacity: 0.7; stroke: #666666; stroke-linejoin: miter"/>
   </g>
   <g id="patch_58">
    <path d="M 478.605786 376.167778 
L 498.250361 376.167778 
L 498.250361 352.74715 
L 478.605786 352.74715 
z
" clip-path="url(#p9ee8e80233)" style="fill: #8bb8e8; opacity: 0.7; stroke: #666666; stroke-linejoin: miter"/>
   </g>
   <g id="patch_59">
    <path d="M 498.250361 376.167778 
L 517.894936 376.167778 
L 517.894936 353.489414 
L 498.250361 353.489414 
z
" clip-path="url(#p9ee8e80233)" style="fill: #8bb8e8; opacity: 0.7; stroke: #666666; stroke-linejoin: miter"/>
   </g>
   <g id="patch_60">
    <path d="M 517.894936 376.167778 
L 537.539511 376.167778 
L 537.539511 357.34919 
L 517.894936 357.34919 
z
" clip-path="url(#p9ee8e80233)" style="fill: #8bb8e8; opacity: 0.7; stroke: #666666; stroke-linejoin: miter"/>
   </g>
   <g id="patch_61">
    <path d="M 537.539511 376.167778 
L 557.184085 376.167778 
L 557.184085 360.816002 
L 537.539511 360.816002 
z
" clip-path="url(#p9ee8e80233)" style="fill: #8bb8e8; opacity: 0.7; stroke: #666666; stroke-linejoin: miter"/>
   </g>
   <g id="patch_62">
    <path d="M 557.184085 376.167778 
L 576.82866 376.167778 
L 576.82866 363.81999 
L 557.184085 363.81999 
z
" clip-path="url(#p9ee8e80233)" style="fill: #8bb8e8; opacity: 0.7; stroke: #666666; stroke-linejoin: miter"/>
   </g>
   <g id="patch_63">
    <path d="M 576.82866 376.167778 
L 596.473235 376.167778 
L 596.473235 365.182263 
L 576.82866 365.182263 
z
" clip-path="url(#p9ee8e80233)" style="fill: #8bb8e8; opacity: 0.7; stroke: #666666; stroke-linejoin: miter"/>
   </g>
   <g id="patch_64">
    <path d="M 596.473235 376.167778 
L 616.11781 376.167778 
L 616.11781 367.173279 
L 596.473235 367.173279 
z
" clip-path="url(#p9ee8e80233)" style="fill: #8bb8e8; opacity: 0.7; stroke: #666666; stroke-linejoin: miter"/>
   </g>
   <g id="patch_65">
    <path d="M 616.11781 376.167778 
L 635.762385 376.167778 
L 635.762385 368.876121 
L 616.11781 368.876121 
z
" clip-path="url(#p9ee8e80233)" style="fill: #8bb8e8; opacity: 0.7; stroke: #666666; stroke-linejoin: miter"/>
   </g>
   <g id="patch_66">
    <path d="M 635.762385 376.167778 
L 655.406959 376.167778 
L 655.406959 370.063744 
L 635.762385 370.063744 
z
" clip-path="url(#p9ee8e80233)" style="fill: #8bb8e8; opacity: 0.7; stroke: #666666; stroke-linejoin: miter"/>
   </g>
   <g id="patch_67">
    <path d="M 655.406959 376.167778 
L 675.051534 376.167778 
L 675.051534 334.138142 
L 655.406959 334.138142 
z
" clip-path="url(#p9ee8e80233)" style="fill: #8bb8e8; opacity: 0.7; stroke: #666666; stroke-linejoin: miter"/>
   </g>
   <g id="matplotlib.axis_3">
    <g id="xtick_6">
     <g id="line2d_10">
      <g>
       <use xlink:href="#mb5fc9487f3" x="157.740169" y="376.167778" style="fill: #030303; stroke: #030303; stroke-width: 0.8"/>
      </g>
     </g>
     <g id="text_8">
      <!-- $50K -->
      <g style="fill: #030303" transform="translate(139.149701 393.80559) scale(0.14 -0.14)">
       <use xlink:href="#DejaVuSerif-24"/>
       <use xlink:href="#DejaVuSerif-35" transform="translate(63.623047 0)"/>
       <use xlink:href="#DejaVuSerif-30" transform="translate(127.246094 0)"/>
       <use xlink:href="#DejaVuSerif-4b" transform="translate(190.869141 0)"/>
      </g>
     </g>
    </g>
    <g id="xtick_7">
     <g id="line2d_11">
      <g>
       <use xlink:href="#mb5fc9487f3" x="284.606095" y="376.167778" style="fill: #030303; stroke: #030303; stroke-width: 0.8"/>
      </g>
     </g>
     <g id="text_9">
      <!-- $100K -->
      <g style="fill: #030303" transform="translate(261.561877 393.80559) scale(0.14 -0.14)">
       <use xlink:href="#DejaVuSerif-24"/>
       <use xlink:href="#DejaVuSerif-31" transform="translate(63.623047 0)"/>
       <use xlink:href="#DejaVuSerif-30" transform="translate(127.246094 0)"/>
       <use xlink:href="#DejaVuSerif-30" transform="translate(190.869141 0)"/>
       <use xlink:href="#DejaVuSerif-4b" transform="translate(254.492188 0)"/>
      </g>
     </g>
    </g>
    <g id="xtick_8">
     <g id="line2d_12">
      <g>
       <use xlink:href="#mb5fc9487f3" x="411.472021" y="376.167778" style="fill: #030303; stroke: #030303; stroke-width: 0.8"/>
      </g>
     </g>
     <g id="text_10">
      <!-- $150K -->
      <g style="fill: #030303" transform="translate(388.427803 393.80559) scale(0.14 -0.14)">
       <use xlink:href="#DejaVuSerif-24"/>
       <use xlink:href="#DejaVuSerif-31" transform="translate(63.623047 0)"/>
       <use xlink:href="#DejaVuSerif-35" transform="translate(127.246094 0)"/>
       <use xlink:href="#DejaVuSerif-30" transform="translate(190.869141 0)"/>
       <use xlink:href="#DejaVuSerif-4b" transform="translate(254.492188 0)"/>
      </g>
     </g>
    </g>
    <g id="xtick_9">
     <g id="line2d_13">
      <g>
       <use xlink:href="#mb5fc9487f3" x="538.337947" y="376.167778" style="fill: #030303; stroke: #030303; stroke-width: 0.8"/>
      </g>
     </g>
     <g id="text_11">
      <!-- $200K -->
      <g style="fill: #030303" transform="translate(515.293729 393.80559) scale(0.14 -0.14)">
       <use xlink:href="#DejaVuSerif-24"/>
       <use xlink:href="#DejaVuSerif-32" transform="translate(63.623047 0)"/>
       <use xlink:href="#DejaVuSerif-30" transform="translate(127.246094 0)"/>
       <use xlink:href="#DejaVuSerif-30" transform="translate(190.869141 0)"/>
       <use xlink:href="#DejaVuSerif-4b" transform="translate(254.492188 0)"/>
      </g>
     </g>
    </g>
    <g id="xtick_10">
     <g id="line2d_14">
      <g>
       <use xlink:href="#mb5fc9487f3" x="665.203874" y="376.167778" style="fill: #030303; stroke: #030303; stroke-width: 0.8"/>
      </g>
     </g>
     <g id="text_12">
      <!-- &gt;$250K -->
      <g style="fill: #030303" transform="translate(636.293874 393.80559) scale(0.14 -0.14)">
       <use xlink:href="#DejaVuSerif-3e"/>
       <use xlink:href="#DejaVuSerif-24" transform="translate(83.789062 0)"/>
       <use xlink:href="#DejaVuSerif-32" transform="translate(147.412109 0)"/>
       <use xlink:href="#DejaVuSerif-35" transform="translate(211.035156 0)"/>
       <use xlink:href="#DejaVuSerif-30" transform="translate(274.658203 0)"/>
       <use xlink:href="#DejaVuSerif-4b" transform="translate(338.28125 0)"/>
      </g>
     </g>
    </g>
    <g id="text_13">
     <!-- Salary (USD) -->
     <g style="fill: #030303" transform="translate(310.548906 414.39434) scale(0.18 -0.18)">
      <use xlink:href="#DejaVuSerif-53"/>
      <use xlink:href="#DejaVuSerif-61" transform="translate(68.505859 0)"/>
      <use xlink:href="#DejaVuSerif-6c" transform="translate(128.125 0)"/>
      <use xlink:href="#DejaVuSerif-61" transform="translate(160.107422 0)"/>
      <use xlink:href="#DejaVuSerif-72" transform="translate(219.726562 0)"/>
      <use xlink:href="#DejaVuSerif-79" transform="translate(267.529297 0)"/>
      <use xlink:href="#DejaVuSerif-20" transform="translate(324.023438 0)"/>
      <use xlink:href="#DejaVuSerif-28" transform="translate(355.810547 0)"/>
      <use xlink:href="#DejaVuSerif-55" transform="translate(394.824219 0)"/>
      <use xlink:href="#DejaVuSerif-53" transform="translate(479.101562 0)"/>
      <use xlink:href="#DejaVuSerif-44" transform="translate(547.607422 0)"/>
      <use xlink:href="#DejaVuSerif-29" transform="translate(627.783203 0)"/>
     </g>
    </g>
   </g>
   <g id="matplotlib.axis_4">
    <g id="ytick_5">
     <g id="line2d_15">
      <g>
       <use xlink:href="#mfa73909648" x="35.620625" y="376.167778" style="fill: #030303; stroke: #030303; stroke-width: 0.8"/>
      </g>
     </g>
    </g>
    <g id="ytick_6">
     <g id="line2d_16">
      <g>
       <use xlink:href="#mfa73909648" x="35.620625" y="332.50516" style="fill: #030303; stroke: #030303; stroke-width: 0.8"/>
      </g>
     </g>
    </g>
    <g id="ytick_7">
     <g id="line2d_17">
      <g>
       <use xlink:href="#mfa73909648" x="35.620625" y="288.842543" style="fill: #030303; stroke: #030303; stroke-width: 0.8"/>
      </g>
     </g>
    </g>
    <g id="ytick_8">
     <g id="line2d_18">
      <g>
       <use xlink:href="#mfa73909648" x="35.620625" y="245.179926" style="fill: #030303; stroke: #030303; stroke-width: 0.8"/>
      </g>
     </g>
    </g>
    <g id="text_14">
     <!-- Frequency -->
     <g style="fill: #030303" transform="translate(20.62125 356.377309) rotate(-90) scale(0.18 -0.18)">
      <use xlink:href="#DejaVuSerif-46"/>
      <use xlink:href="#DejaVuSerif-72" transform="translate(69.384766 0)"/>
      <use xlink:href="#DejaVuSerif-65" transform="translate(117.1875 0)"/>
      <use xlink:href="#DejaVuSerif-71" transform="translate(176.367188 0)"/>
      <use xlink:href="#DejaVuSerif-75" transform="translate(240.380859 0)"/>
      <use xlink:href="#DejaVuSerif-65" transform="translate(304.785156 0)"/>
      <use xlink:href="#DejaVuSerif-6e" transform="translate(363.964844 0)"/>
      <use xlink:href="#DejaVuSerif-63" transform="translate(428.369141 0)"/>
      <use xlink:href="#DejaVuSerif-79" transform="translate(484.375 0)"/>
     </g>
    </g>
   </g>
   <g id="patch_68">
    <path d="M 35.620625 376.167778 
L 35.620625 239.226528 
" style="fill: none; stroke: #030303; stroke-width: 1.5; stroke-linejoin: miter; stroke-linecap: square"/>
   </g>
   <g id="patch_69">
    <path d="M 35.620625 376.167778 
L 705.500625 376.167778 
" style="fill: none; stroke: #030303; stroke-width: 1.5; stroke-linejoin: miter; stroke-linecap: square"/>
   </g>
  </g>
  <g id="axes_3">
   <g id="patch_70">
    <path d="M 191.87559 165.567778 
L 198.55881 165.567778 
L 198.55881 165.448199 
L 191.87559 165.448199 
z
" clip-path="url(#p3bd7bae9a6)" style="fill: #ffd100; opacity: 0.5; stroke: #000000; stroke-linejoin: miter"/>
   </g>
   <g id="patch_71">
    <path d="M 198.55881 165.567778 
L 205.24203 165.567778 
L 205.24203 165.567778 
L 198.55881 165.567778 
z
" clip-path="url(#p3bd7bae9a6)" style="fill: #ffd100; opacity: 0.5; stroke: #000000; stroke-linejoin: miter"/>
   </g>
   <g id="patch_72">
    <path d="M 205.24203 165.567778 
L 211.925251 165.567778 
L 211.925251 165.089464 
L 205.24203 165.089464 
z
" clip-path="url(#p3bd7bae9a6)" style="fill: #ffd100; opacity: 0.5; stroke: #000000; stroke-linejoin: miter"/>
   </g>
   <g id="patch_73">
    <path d="M 211.925251 165.567778 
L 218.608471 165.567778 
L 218.608471 164.431784 
L 211.925251 164.431784 
z
" clip-path="url(#p3bd7bae9a6)" style="fill: #ffd100; opacity: 0.5; stroke: #000000; stroke-linejoin: miter"/>
   </g>
   <g id="patch_74">
    <path d="M 218.608471 165.567778 
L 225.291691 165.567778 
L 225.291691 161.741271 
L 218.608471 161.741271 
z
" clip-path="url(#p3bd7bae9a6)" style="fill: #ffd100; opacity: 0.5; stroke: #000000; stroke-linejoin: miter"/>
   </g>
   <g id="patch_75">
    <path d="M 225.291691 165.567778 
L 231.974911 165.567778 
L 231.974911 157.137506 
L 225.291691 157.137506 
z
" clip-path="url(#p3bd7bae9a6)" style="fill: #ffd100; opacity: 0.5; stroke: #000000; stroke-linejoin: miter"/>
   </g>
   <g id="patch_76">
    <path d="M 231.974911 165.567778 
L 238.658131 165.567778 
L 238.658131 148.527866 
L 231.974911 148.527866 
z
" clip-path="url(#p3bd7bae9a6)" style="fill: #ffd100; opacity: 0.5; stroke: #000000; stroke-linejoin: miter"/>
   </g>
   <g id="patch_77">
    <path d="M 238.658131 165.567778 
L 245.341351 165.567778 
L 245.341351 139.61928 
L 238.658131 139.61928 
z
" clip-path="url(#p3bd7bae9a6)" style="fill: #ffd100; opacity: 0.5; stroke: #000000; stroke-linejoin: miter"/>
   </g>
   <g id="patch_78">
    <path d="M 245.341351 165.567778 
L 252.024571 165.567778 
L 252.024571 125.150303 
L 245.341351 125.150303 
z
" clip-path="url(#p3bd7bae9a6)" style="fill: #ffd100; opacity: 0.5; stroke: #000000; stroke-linejoin: miter"/>
   </g>
   <g id="patch_79">
    <path d="M 252.024571 165.567778 
L 258.707791 165.567778 
L 258.707791 110.382379 
L 252.024571 110.382379 
z
" clip-path="url(#p3bd7bae9a6)" style="fill: #ffd100; opacity: 0.5; stroke: #000000; stroke-linejoin: miter"/>
   </g>
   <g id="patch_80">
    <path d="M 258.707791 165.567778 
L 265.391011 165.567778 
L 265.391011 97.587498 
L 258.707791 97.587498 
z
" clip-path="url(#p3bd7bae9a6)" style="fill: #ffd100; opacity: 0.5; stroke: #000000; stroke-linejoin: miter"/>
   </g>
   <g id="patch_81">
    <path d="M 265.391011 165.567778 
L 272.074231 165.567778 
L 272.074231 94.119726 
L 265.391011 94.119726 
z
" clip-path="url(#p3bd7bae9a6)" style="fill: #ffd100; opacity: 0.5; stroke: #000000; stroke-linejoin: miter"/>
   </g>
   <g id="patch_82">
    <path d="M 272.074231 165.567778 
L 278.757451 165.567778 
L 278.757451 95.554666 
L 272.074231 95.554666 
z
" clip-path="url(#p3bd7bae9a6)" style="fill: #ffd100; opacity: 0.5; stroke: #000000; stroke-linejoin: miter"/>
   </g>
   <g id="patch_83">
    <path d="M 278.757451 165.567778 
L 285.440671 165.567778 
L 285.440671 100.098643 
L 278.757451 100.098643 
z
" clip-path="url(#p3bd7bae9a6)" style="fill: #ffd100; opacity: 0.5; stroke: #000000; stroke-linejoin: miter"/>
   </g>
   <g id="patch_84">
    <path d="M 285.440671 165.567778 
L 292.123891 165.567778 
L 292.123891 111.159638 
L 285.440671 111.159638 
z
" clip-path="url(#p3bd7bae9a6)" style="fill: #ffd100; opacity: 0.5; stroke: #000000; stroke-linejoin: miter"/>
   </g>
   <g id="patch_85">
    <path d="M 292.123891 165.567778 
L 298.807111 165.567778 
L 298.807111 126.943977 
L 292.123891 126.943977 
z
" clip-path="url(#p3bd7bae9a6)" style="fill: #ffd100; opacity: 0.5; stroke: #000000; stroke-linejoin: miter"/>
   </g>
   <g id="patch_86">
    <path d="M 298.807111 165.567778 
L 305.490331 165.567778 
L 305.490331 135.493828 
L 298.807111 135.493828 
z
" clip-path="url(#p3bd7bae9a6)" style="fill: #ffd100; opacity: 0.5; stroke: #000000; stroke-linejoin: miter"/>
   </g>
   <g id="patch_87">
    <path d="M 305.490331 165.567778 
L 312.173551 165.567778 
L 312.173551 147.51145 
L 305.490331 147.51145 
z
" clip-path="url(#p3bd7bae9a6)" style="fill: #ffd100; opacity: 0.5; stroke: #000000; stroke-linejoin: miter"/>
   </g>
   <g id="patch_88">
    <path d="M 312.173551 165.567778 
L 318.856771 165.567778 
L 318.856771 153.131632 
L 312.173551 153.131632 
z
" clip-path="url(#p3bd7bae9a6)" style="fill: #ffd100; opacity: 0.5; stroke: #000000; stroke-linejoin: miter"/>
   </g>
   <g id="patch_89">
    <path d="M 318.856771 165.567778 
L 325.539991 165.567778 
L 325.539991 157.854976 
L 318.856771 157.854976 
z
" clip-path="url(#p3bd7bae9a6)" style="fill: #ffd100; opacity: 0.5; stroke: #000000; stroke-linejoin: miter"/>
   </g>
   <g id="patch_90">
    <path d="M 325.539991 165.567778 
L 332.223211 165.567778 
L 332.223211 161.502115 
L 325.539991 161.502115 
z
" clip-path="url(#p3bd7bae9a6)" style="fill: #ffd100; opacity: 0.5; stroke: #000000; stroke-linejoin: miter"/>
   </g>
   <g id="patch_91">
    <path d="M 332.223211 165.567778 
L 338.906431 165.567778 
L 338.906431 163.714314 
L 332.223211 163.714314 
z
" clip-path="url(#p3bd7bae9a6)" style="fill: #ffd100; opacity: 0.5; stroke: #000000; stroke-linejoin: miter"/>
   </g>
   <g id="patch_92">
    <path d="M 338.906431 165.567778 
L 345.589651 165.567778 
L 345.589651 164.073049 
L 338.906431 164.073049 
z
" clip-path="url(#p3bd7bae9a6)" style="fill: #ffd100; opacity: 0.5; stroke: #000000; stroke-linejoin: miter"/>
   </g>
   <g id="patch_93">
    <path d="M 345.589651 165.567778 
L 352.272871 165.567778 
L 352.272871 164.850308 
L 345.589651 164.850308 
z
" clip-path="url(#p3bd7bae9a6)" style="fill: #ffd100; opacity: 0.5; stroke: #000000; stroke-linejoin: miter"/>
   </g>
   <g id="patch_94">
    <path d="M 352.272871 165.567778 
L 358.956092 165.567778 
L 358.956092 165.029675 
L 352.272871 165.029675 
z
" clip-path="url(#p3bd7bae9a6)" style="fill: #ffd100; opacity: 0.5; stroke: #000000; stroke-linejoin: miter"/>
   </g>
   <g id="patch_95">
    <path d="M 358.956092 165.567778 
L 365.639312 165.567778 
L 365.639312 165.507989 
L 358.956092 165.507989 
z
" clip-path="url(#p3bd7bae9a6)" style="fill: #ffd100; opacity: 0.5; stroke: #000000; stroke-linejoin: miter"/>
   </g>
   <g id="patch_96">
    <path d="M 365.639312 165.567778 
L 372.322532 165.567778 
L 372.322532 165.38841 
L 365.639312 165.38841 
z
" clip-path="url(#p3bd7bae9a6)" style="fill: #ffd100; opacity: 0.5; stroke: #000000; stroke-linejoin: miter"/>
   </g>
   <g id="patch_97">
    <path d="M 372.322532 165.567778 
L 379.005752 165.567778 
L 379.005752 165.567778 
L 372.322532 165.567778 
z
" clip-path="url(#p3bd7bae9a6)" style="fill: #ffd100; opacity: 0.5; stroke: #000000; stroke-linejoin: miter"/>
   </g>
   <g id="patch_98">
    <path d="M 379.005752 165.567778 
L 385.688972 165.567778 
L 385.688972 165.448199 
L 379.005752 165.448199 
z
" clip-path="url(#p3bd7bae9a6)" style="fill: #ffd100; opacity: 0.5; stroke: #000000; stroke-linejoin: miter"/>
   </g>
   <g id="patch_99">
    <path d="M 385.688972 165.567778 
L 392.372192 165.567778 
L 392.372192 165.567778 
L 385.688972 165.567778 
z
" clip-path="url(#p3bd7bae9a6)" style="fill: #ffd100; opacity: 0.5; stroke: #000000; stroke-linejoin: miter"/>
   </g>
   <g id="patch_100">
    <path d="M 392.372192 165.567778 
L 399.055412 165.567778 
L 399.055412 165.507989 
L 392.372192 165.507989 
z
" clip-path="url(#p3bd7bae9a6)" style="fill: #ffd100; opacity: 0.5; stroke: #000000; stroke-linejoin: miter"/>
   </g>
   <g id="matplotlib.axis_5"/>
   <g id="LineCollection_1">
    <path d="M 270.438902 165.567778 
L 270.438902 43.842222 
" clip-path="url(#p3bd7bae9a6)" style="fill: none; stroke: #ffb81c; stroke-width: 2"/>
   </g>
   <g id="text_15">
    <!-- $\mu$ -->
    <g style="fill: #ffb81c" transform="translate(260.838902 29.934375) scale(0.3 -0.3)">
     <defs>
      <path id="DejaVuSans-Oblique-3bc" d="M -84 -1331 
L 856 3500 
L 1434 3500 
L 1009 1322 
Q 997 1256 987 1175 
Q 978 1094 978 1013 
Q 978 722 1161 565 
Q 1344 409 1684 409 
Q 2147 409 2431 671 
Q 2716 934 2816 1459 
L 3213 3500 
L 3788 3500 
L 3266 809 
Q 3253 750 3248 706 
Q 3244 663 3244 628 
Q 3244 531 3283 486 
Q 3322 441 3406 441 
Q 3438 441 3492 456 
Q 3547 472 3647 513 
L 3559 50 
Q 3422 -19 3297 -55 
Q 3172 -91 3053 -91 
Q 2847 -91 2730 40 
Q 2613 172 2613 403 
Q 2438 153 2195 31 
Q 1953 -91 1625 -91 
Q 1334 -91 1117 43 
Q 900 178 831 397 
L 494 -1331 
L -84 -1331 
z
" transform="scale(0.015625)"/>
     </defs>
     <use xlink:href="#DejaVuSans-Oblique-3bc" transform="translate(0 0.3125)"/>
    </g>
   </g>
  </g>
  <g id="axes_4">
   <g id="matplotlib.axis_6"/>
   <g id="patch_101">
    <path d="M 405.80892 69.178639 
Q 340.197037 85.280683 288.091917 128.806621 
" style="fill: none; stroke: #ff0000; stroke-width: 4; stroke-linecap: round"/>
    <path d="M 296.795985 126.747687 
L 288.091917 128.806621 
L 291.667211 120.608007 
z
" style="fill: #ff0000; stroke: #ff0000; stroke-width: 4; stroke-linecap: round"/>
   </g>
   <g id="text_16">
    <!-- Sampling Distribution by -->
    <g transform="translate(409.7521 57.156712) scale(0.14 -0.14)">
     <defs>
      <path id="DejaVuSerif-6d" d="M 3316 2675 
Q 3481 3041 3739 3227 
Q 3997 3413 4341 3413 
Q 4863 3413 5119 3089 
Q 5375 2766 5375 2113 
L 5375 331 
L 5894 331 
L 5894 0 
L 4300 0 
L 4300 331 
L 4800 331 
L 4800 2047 
Q 4800 2556 4650 2772 
Q 4500 2988 4153 2988 
Q 3769 2988 3567 2697 
Q 3366 2406 3366 1850 
L 3366 331 
L 3866 331 
L 3866 0 
L 2291 0 
L 2291 331 
L 2791 331 
L 2791 2069 
Q 2791 2566 2641 2777 
Q 2491 2988 2144 2988 
Q 1759 2988 1557 2697 
Q 1356 2406 1356 1850 
L 1356 331 
L 1856 331 
L 1856 0 
L 263 0 
L 263 331 
L 781 331 
L 781 2994 
L 231 2994 
L 231 3322 
L 1356 3322 
L 1356 2731 
Q 1516 3063 1762 3238 
Q 2009 3413 2322 3413 
Q 2709 3413 2968 3220 
Q 3228 3028 3316 2675 
z
" transform="scale(0.015625)"/>
      <path id="DejaVuSerif-70" d="M 1313 1825 
L 1313 1497 
Q 1313 897 1542 583 
Q 1772 269 2209 269 
Q 2650 269 2876 622 
Q 3103 975 3103 1663 
Q 3103 2353 2876 2703 
Q 2650 3053 2209 3053 
Q 1772 3053 1542 2737 
Q 1313 2422 1313 1825 
z
M 738 2988 
L 184 2988 
L 184 3322 
L 1313 3322 
L 1313 2803 
Q 1481 3116 1742 3264 
Q 2003 3413 2388 3413 
Q 3000 3413 3387 2928 
Q 3775 2444 3775 1663 
Q 3775 881 3387 395 
Q 3000 -91 2388 -91 
Q 2003 -91 1742 57 
Q 1481 206 1313 519 
L 1313 -997 
L 1856 -997 
L 1856 -1331 
L 184 -1331 
L 184 -997 
L 738 -997 
L 738 2988 
z
" transform="scale(0.015625)"/>
      <path id="DejaVuSerif-69" d="M 622 4353 
Q 622 4497 726 4603 
Q 831 4709 978 4709 
Q 1122 4709 1226 4603 
Q 1331 4497 1331 4353 
Q 1331 4206 1228 4103 
Q 1125 4000 978 4000 
Q 831 4000 726 4103 
Q 622 4206 622 4353 
z
M 1356 331 
L 1900 331 
L 1900 0 
L 231 0 
L 231 331 
L 781 331 
L 781 2988 
L 231 2988 
L 231 3322 
L 1356 3322 
L 1356 331 
z
" transform="scale(0.015625)"/>
      <path id="DejaVuSerif-67" d="M 3359 2988 
L 3359 72 
Q 3359 -644 2965 -1033 
Q 2572 -1422 1844 -1422 
Q 1516 -1422 1216 -1362 
Q 916 -1303 641 -1184 
L 641 -488 
L 941 -488 
Q 997 -813 1206 -963 
Q 1416 -1113 1806 -1113 
Q 2313 -1113 2548 -827 
Q 2784 -541 2784 72 
L 2784 519 
Q 2616 206 2355 57 
Q 2094 -91 1709 -91 
Q 1097 -91 708 395 
Q 319 881 319 1663 
Q 319 2444 706 2928 
Q 1094 3413 1709 3413 
Q 2094 3413 2355 3264 
Q 2616 3116 2784 2803 
L 2784 3322 
L 3909 3322 
L 3909 2988 
L 3359 2988 
z
M 2784 1825 
Q 2784 2422 2554 2737 
Q 2325 3053 1888 3053 
Q 1444 3053 1217 2703 
Q 991 2353 991 1663 
Q 991 975 1217 622 
Q 1444 269 1888 269 
Q 2325 269 2554 583 
Q 2784 897 2784 1497 
L 2784 1825 
z
" transform="scale(0.015625)"/>
      <path id="DejaVuSerif-73" d="M 359 184 
L 359 959 
L 691 959 
Q 703 588 923 403 
Q 1144 219 1575 219 
Q 1963 219 2166 364 
Q 2369 509 2369 788 
Q 2369 1006 2220 1140 
Q 2072 1275 1594 1428 
L 1178 1569 
Q 750 1706 558 1912 
Q 366 2119 366 2438 
Q 366 2894 700 3153 
Q 1034 3413 1625 3413 
Q 1888 3413 2178 3344 
Q 2469 3275 2778 3144 
L 2778 2419 
L 2447 2419 
Q 2434 2741 2221 2922 
Q 2009 3103 1644 3103 
Q 1281 3103 1095 2975 
Q 909 2847 909 2591 
Q 909 2381 1050 2254 
Q 1191 2128 1613 1997 
L 2069 1856 
Q 2541 1709 2748 1489 
Q 2956 1269 2956 922 
Q 2956 450 2595 179 
Q 2234 -91 1600 -91 
Q 1278 -91 972 -22 
Q 666 47 359 184 
z
" transform="scale(0.015625)"/>
      <path id="DejaVuSerif-74" d="M 691 2988 
L 184 2988 
L 184 3322 
L 691 3322 
L 691 4353 
L 1269 4353 
L 1269 3322 
L 2350 3322 
L 2350 2988 
L 1269 2988 
L 1269 878 
Q 1269 456 1350 337 
Q 1431 219 1650 219 
Q 1875 219 1978 351 
Q 2081 484 2088 781 
L 2522 781 
Q 2497 328 2275 118 
Q 2053 -91 1600 -91 
Q 1103 -91 897 129 
Q 691 350 691 878 
L 691 2988 
z
" transform="scale(0.015625)"/>
      <path id="DejaVuSerif-62" d="M 738 331 
L 738 4531 
L 184 4531 
L 184 4863 
L 1313 4863 
L 1313 2803 
Q 1481 3116 1742 3264 
Q 2003 3413 2388 3413 
Q 3000 3413 3387 2928 
Q 3775 2444 3775 1663 
Q 3775 881 3387 395 
Q 3000 -91 2388 -91 
Q 2003 -91 1742 57 
Q 1481 206 1313 519 
L 1313 0 
L 184 0 
L 184 331 
L 738 331 
z
M 1313 1497 
Q 1313 897 1542 583 
Q 1772 269 2209 269 
Q 2650 269 2876 622 
Q 3103 975 3103 1663 
Q 3103 2353 2876 2703 
Q 2650 3053 2209 3053 
Q 1772 3053 1542 2737 
Q 1313 2422 1313 1825 
L 1313 1497 
z
" transform="scale(0.015625)"/>
      <path id="DejaVuSerif-6f" d="M 1925 219 
Q 2388 219 2623 584 
Q 2859 950 2859 1663 
Q 2859 2375 2623 2739 
Q 2388 3103 1925 3103 
Q 1463 3103 1227 2739 
Q 991 2375 991 1663 
Q 991 950 1228 584 
Q 1466 219 1925 219 
z
M 1925 -91 
Q 1200 -91 759 389 
Q 319 869 319 1663 
Q 319 2456 758 2934 
Q 1197 3413 1925 3413 
Q 2653 3413 3092 2934 
Q 3531 2456 3531 1663 
Q 3531 869 3092 389 
Q 2653 -91 1925 -91 
z
" transform="scale(0.015625)"/>
     </defs>
     <use xlink:href="#DejaVuSerif-53"/>
     <use xlink:href="#DejaVuSerif-61" transform="translate(68.505859 0)"/>
     <use xlink:href="#DejaVuSerif-6d" transform="translate(128.125 0)"/>
     <use xlink:href="#DejaVuSerif-70" transform="translate(222.949219 0)"/>
     <use xlink:href="#DejaVuSerif-6c" transform="translate(286.962891 0)"/>
     <use xlink:href="#DejaVuSerif-69" transform="translate(318.945312 0)"/>
     <use xlink:href="#DejaVuSerif-6e" transform="translate(350.927734 0)"/>
     <use xlink:href="#DejaVuSerif-67" transform="translate(415.332031 0)"/>
     <use xlink:href="#DejaVuSerif-20" transform="translate(479.345703 0)"/>
     <use xlink:href="#DejaVuSerif-44" transform="translate(511.132812 0)"/>
     <use xlink:href="#DejaVuSerif-69" transform="translate(591.308594 0)"/>
     <use xlink:href="#DejaVuSerif-73" transform="translate(623.291016 0)"/>
     <use xlink:href="#DejaVuSerif-74" transform="translate(674.609375 0)"/>
     <use xlink:href="#DejaVuSerif-72" transform="translate(714.794922 0)"/>
     <use xlink:href="#DejaVuSerif-69" transform="translate(762.597656 0)"/>
     <use xlink:href="#DejaVuSerif-62" transform="translate(794.580078 0)"/>
     <use xlink:href="#DejaVuSerif-75" transform="translate(858.59375 0)"/>
     <use xlink:href="#DejaVuSerif-74" transform="translate(922.998047 0)"/>
     <use xlink:href="#DejaVuSerif-69" transform="translate(963.183594 0)"/>
     <use xlink:href="#DejaVuSerif-6f" transform="translate(995.166016 0)"/>
     <use xlink:href="#DejaVuSerif-6e" transform="translate(1055.371094 0)"/>
     <use xlink:href="#DejaVuSerif-20" transform="translate(1119.775391 0)"/>
     <use xlink:href="#DejaVuSerif-62" transform="translate(1151.5625 0)"/>
     <use xlink:href="#DejaVuSerif-79" transform="translate(1215.576172 0)"/>
    </g>
    <!-- Central Limit Theorem -->
    <g transform="translate(417.529756 73.032712) scale(0.14 -0.14)">
     <defs>
      <path id="DejaVuSerif-43" d="M 4513 1234 
Q 4306 581 3820 245 
Q 3334 -91 2591 -91 
Q 2134 -91 1743 65 
Q 1353 222 1050 525 
Q 700 875 529 1320 
Q 359 1766 359 2328 
Q 359 3416 987 4083 
Q 1616 4750 2644 4750 
Q 3025 4750 3456 4650 
Q 3888 4550 4384 4347 
L 4384 3272 
L 4031 3272 
Q 3916 3859 3567 4137 
Q 3219 4416 2591 4416 
Q 1844 4416 1459 3886 
Q 1075 3356 1075 2328 
Q 1075 1303 1459 773 
Q 1844 244 2591 244 
Q 3113 244 3450 492 
Q 3788 741 3938 1234 
L 4513 1234 
z
" transform="scale(0.015625)"/>
      <path id="DejaVuSerif-4c" d="M 353 0 
L 353 331 
L 947 331 
L 947 4331 
L 353 4331 
L 353 4666 
L 2175 4666 
L 2175 4331 
L 1581 4331 
L 1581 384 
L 3713 384 
L 3713 1166 
L 4097 1166 
L 4097 0 
L 353 0 
z
" transform="scale(0.015625)"/>
      <path id="DejaVuSerif-54" d="M 1222 0 
L 1222 331 
L 1819 331 
L 1819 4294 
L 447 4294 
L 447 3566 
L 63 3566 
L 63 4666 
L 4206 4666 
L 4206 3566 
L 3822 3566 
L 3822 4294 
L 2450 4294 
L 2450 331 
L 3047 331 
L 3047 0 
L 1222 0 
z
" transform="scale(0.015625)"/>
      <path id="DejaVuSerif-68" d="M 263 0 
L 263 331 
L 781 331 
L 781 4531 
L 231 4531 
L 231 4863 
L 1356 4863 
L 1356 2731 
Q 1516 3069 1770 3241 
Q 2025 3413 2363 3413 
Q 2913 3413 3172 3097 
Q 3431 2781 3431 2113 
L 3431 331 
L 3944 331 
L 3944 0 
L 2356 0 
L 2356 331 
L 2853 331 
L 2853 1931 
Q 2853 2541 2704 2764 
Q 2556 2988 2175 2988 
Q 1775 2988 1565 2697 
Q 1356 2406 1356 1850 
L 1356 331 
L 1856 331 
L 1856 0 
L 263 0 
z
" transform="scale(0.015625)"/>
     </defs>
     <use xlink:href="#DejaVuSerif-43"/>
     <use xlink:href="#DejaVuSerif-65" transform="translate(76.513672 0)"/>
     <use xlink:href="#DejaVuSerif-6e" transform="translate(135.693359 0)"/>
     <use xlink:href="#DejaVuSerif-74" transform="translate(200.097656 0)"/>
     <use xlink:href="#DejaVuSerif-72" transform="translate(240.283203 0)"/>
     <use xlink:href="#DejaVuSerif-61" transform="translate(288.085938 0)"/>
     <use xlink:href="#DejaVuSerif-6c" transform="translate(347.705078 0)"/>
     <use xlink:href="#DejaVuSerif-20" transform="translate(379.6875 0)"/>
     <use xlink:href="#DejaVuSerif-4c" transform="translate(411.474609 0)"/>
     <use xlink:href="#DejaVuSerif-69" transform="translate(477.880859 0)"/>
     <use xlink:href="#DejaVuSerif-6d" transform="translate(509.863281 0)"/>
     <use xlink:href="#DejaVuSerif-69" transform="translate(604.6875 0)"/>
     <use xlink:href="#DejaVuSerif-74" transform="translate(636.669922 0)"/>
     <use xlink:href="#DejaVuSerif-20" transform="translate(676.855469 0)"/>
     <use xlink:href="#DejaVuSerif-54" transform="translate(708.642578 0)"/>
     <use xlink:href="#DejaVuSerif-68" transform="translate(775.341797 0)"/>
     <use xlink:href="#DejaVuSerif-65" transform="translate(839.746094 0)"/>
     <use xlink:href="#DejaVuSerif-6f" transform="translate(898.925781 0)"/>
     <use xlink:href="#DejaVuSerif-72" transform="translate(959.130859 0)"/>
     <use xlink:href="#DejaVuSerif-65" transform="translate(1006.933594 0)"/>
     <use xlink:href="#DejaVuSerif-6d" transform="translate(1066.113281 0)"/>
    </g>
   </g>
  </g>
  <g id="axes_5">
   <g id="patch_102">
    <path d="M 211.783701 376.167778 
L 217.712231 376.167778 
L 217.712231 375.855095 
L 211.783701 375.855095 
z
" clip-path="url(#p9ee8e80233)" style="fill: #ffd100; opacity: 0.5; stroke: #000000; stroke-linejoin: miter"/>
   </g>
   <g id="patch_103">
    <path d="M 217.712231 376.167778 
L 223.640761 376.167778 
L 223.640761 375.620583 
L 217.712231 375.620583 
z
" clip-path="url(#p9ee8e80233)" style="fill: #ffd100; opacity: 0.5; stroke: #000000; stroke-linejoin: miter"/>
   </g>
   <g id="patch_104">
    <path d="M 223.640761 376.167778 
L 229.56929 376.167778 
L 229.56929 373.744485 
L 223.640761 373.744485 
z
" clip-path="url(#p9ee8e80233)" style="fill: #ffd100; opacity: 0.5; stroke: #000000; stroke-linejoin: miter"/>
   </g>
   <g id="patch_105">
    <path d="M 229.56929 376.167778 
L 235.49782 376.167778 
L 235.49782 370.930339 
L 229.56929 370.930339 
z
" clip-path="url(#p9ee8e80233)" style="fill: #ffd100; opacity: 0.5; stroke: #000000; stroke-linejoin: miter"/>
   </g>
   <g id="patch_106">
    <path d="M 235.49782 376.167778 
L 241.42635 376.167778 
L 241.42635 368.116192 
L 235.49782 368.116192 
z
" clip-path="url(#p9ee8e80233)" style="fill: #ffd100; opacity: 0.5; stroke: #000000; stroke-linejoin: miter"/>
   </g>
   <g id="patch_107">
    <path d="M 241.42635 376.167778 
L 247.35488 376.167778 
L 247.35488 363.113265 
L 241.42635 363.113265 
z
" clip-path="url(#p9ee8e80233)" style="fill: #ffd100; opacity: 0.5; stroke: #000000; stroke-linejoin: miter"/>
   </g>
   <g id="patch_108">
    <path d="M 247.35488 376.167778 
L 253.28341 376.167778 
L 253.28341 358.266679 
L 247.35488 358.266679 
z
" clip-path="url(#p9ee8e80233)" style="fill: #ffd100; opacity: 0.5; stroke: #000000; stroke-linejoin: miter"/>
   </g>
   <g id="patch_109">
    <path d="M 253.28341 376.167778 
L 259.21194 376.167778 
L 259.21194 351.700338 
L 253.28341 351.700338 
z
" clip-path="url(#p9ee8e80233)" style="fill: #ffd100; opacity: 0.5; stroke: #000000; stroke-linejoin: miter"/>
   </g>
   <g id="patch_110">
    <path d="M 259.21194 376.167778 
L 265.14047 376.167778 
L 265.14047 338.176801 
L 259.21194 338.176801 
z
" clip-path="url(#p9ee8e80233)" style="fill: #ffd100; opacity: 0.5; stroke: #000000; stroke-linejoin: miter"/>
   </g>
   <g id="patch_111">
    <path d="M 265.14047 376.167778 
L 271.068999 376.167778 
L 271.068999 327.936434 
L 265.14047 327.936434 
z
" clip-path="url(#p9ee8e80233)" style="fill: #ffd100; opacity: 0.5; stroke: #000000; stroke-linejoin: miter"/>
   </g>
   <g id="patch_112">
    <path d="M 271.068999 376.167778 
L 276.997529 376.167778 
L 276.997529 316.992531 
L 271.068999 316.992531 
z
" clip-path="url(#p9ee8e80233)" style="fill: #ffd100; opacity: 0.5; stroke: #000000; stroke-linejoin: miter"/>
   </g>
   <g id="patch_113">
    <path d="M 276.997529 376.167778 
L 282.926059 376.167778 
L 282.926059 314.491068 
L 276.997529 314.491068 
z
" clip-path="url(#p9ee8e80233)" style="fill: #ffd100; opacity: 0.5; stroke: #000000; stroke-linejoin: miter"/>
   </g>
   <g id="patch_114">
    <path d="M 282.926059 376.167778 
L 288.854589 376.167778 
L 288.854589 308.159238 
L 282.926059 308.159238 
z
" clip-path="url(#p9ee8e80233)" style="fill: #ffd100; opacity: 0.5; stroke: #000000; stroke-linejoin: miter"/>
   </g>
   <g id="patch_115">
    <path d="M 288.854589 376.167778 
L 294.783119 376.167778 
L 294.783119 306.048629 
L 288.854589 306.048629 
z
" clip-path="url(#p9ee8e80233)" style="fill: #ffd100; opacity: 0.5; stroke: #000000; stroke-linejoin: miter"/>
   </g>
   <g id="patch_116">
    <path d="M 294.783119 376.167778 
L 300.711649 376.167778 
L 300.711649 304.719726 
L 294.783119 304.719726 
z
" clip-path="url(#p9ee8e80233)" style="fill: #ffd100; opacity: 0.5; stroke: #000000; stroke-linejoin: miter"/>
   </g>
   <g id="patch_117">
    <path d="M 300.711649 376.167778 
L 306.640178 376.167778 
L 306.640178 313.474848 
L 300.711649 313.474848 
z
" clip-path="url(#p9ee8e80233)" style="fill: #ffd100; opacity: 0.5; stroke: #000000; stroke-linejoin: miter"/>
   </g>
   <g id="patch_118">
    <path d="M 306.640178 376.167778 
L 312.568708 376.167778 
L 312.568708 322.1518 
L 306.640178 322.1518 
z
" clip-path="url(#p9ee8e80233)" style="fill: #ffd100; opacity: 0.5; stroke: #000000; stroke-linejoin: miter"/>
   </g>
   <g id="patch_119">
    <path d="M 312.568708 376.167778 
L 318.497238 376.167778 
L 318.497238 331.923142 
L 312.568708 331.923142 
z
" clip-path="url(#p9ee8e80233)" style="fill: #ffd100; opacity: 0.5; stroke: #000000; stroke-linejoin: miter"/>
   </g>
   <g id="patch_120">
    <path d="M 318.497238 376.167778 
L 324.425768 376.167778 
L 324.425768 338.802167 
L 318.497238 338.802167 
z
" clip-path="url(#p9ee8e80233)" style="fill: #ffd100; opacity: 0.5; stroke: #000000; stroke-linejoin: miter"/>
   </g>
   <g id="patch_121">
    <path d="M 324.425768 376.167778 
L 330.354298 376.167778 
L 330.354298 346.462899 
L 324.425768 346.462899 
z
" clip-path="url(#p9ee8e80233)" style="fill: #ffd100; opacity: 0.5; stroke: #000000; stroke-linejoin: miter"/>
   </g>
   <g id="patch_122">
    <path d="M 330.354298 376.167778 
L 336.282828 376.167778 
L 336.282828 354.827167 
L 330.354298 354.827167 
z
" clip-path="url(#p9ee8e80233)" style="fill: #ffd100; opacity: 0.5; stroke: #000000; stroke-linejoin: miter"/>
   </g>
   <g id="patch_123">
    <path d="M 336.282828 376.167778 
L 342.211358 376.167778 
L 342.211358 359.986436 
L 336.282828 359.986436 
z
" clip-path="url(#p9ee8e80233)" style="fill: #ffd100; opacity: 0.5; stroke: #000000; stroke-linejoin: miter"/>
   </g>
   <g id="patch_124">
    <path d="M 342.211358 376.167778 
L 348.139887 376.167778 
L 348.139887 365.849241 
L 342.211358 365.849241 
z
" clip-path="url(#p9ee8e80233)" style="fill: #ffd100; opacity: 0.5; stroke: #000000; stroke-linejoin: miter"/>
   </g>
   <g id="patch_125">
    <path d="M 348.139887 376.167778 
L 354.068417 376.167778 
L 354.068417 370.461314 
L 348.139887 370.461314 
z
" clip-path="url(#p9ee8e80233)" style="fill: #ffd100; opacity: 0.5; stroke: #000000; stroke-linejoin: miter"/>
   </g>
   <g id="patch_126">
    <path d="M 354.068417 376.167778 
L 359.996947 376.167778 
L 359.996947 371.321192 
L 354.068417 371.321192 
z
" clip-path="url(#p9ee8e80233)" style="fill: #ffd100; opacity: 0.5; stroke: #000000; stroke-linejoin: miter"/>
   </g>
   <g id="patch_127">
    <path d="M 359.996947 376.167778 
L 365.925477 376.167778 
L 365.925477 373.353631 
L 359.996947 373.353631 
z
" clip-path="url(#p9ee8e80233)" style="fill: #ffd100; opacity: 0.5; stroke: #000000; stroke-linejoin: miter"/>
   </g>
   <g id="patch_128">
    <path d="M 365.925477 376.167778 
L 371.854007 376.167778 
L 371.854007 373.978997 
L 365.925477 373.978997 
z
" clip-path="url(#p9ee8e80233)" style="fill: #ffd100; opacity: 0.5; stroke: #000000; stroke-linejoin: miter"/>
   </g>
   <g id="patch_129">
    <path d="M 371.854007 376.167778 
L 377.782537 376.167778 
L 377.782537 375.229729 
L 371.854007 375.229729 
z
" clip-path="url(#p9ee8e80233)" style="fill: #ffd100; opacity: 0.5; stroke: #000000; stroke-linejoin: miter"/>
   </g>
   <g id="patch_130">
    <path d="M 377.782537 376.167778 
L 383.711066 376.167778 
L 383.711066 375.776924 
L 377.782537 375.776924 
z
" clip-path="url(#p9ee8e80233)" style="fill: #ffd100; opacity: 0.5; stroke: #000000; stroke-linejoin: miter"/>
   </g>
   <g id="patch_131">
    <path d="M 383.711066 376.167778 
L 389.639596 376.167778 
L 389.639596 375.933266 
L 383.711066 375.933266 
z
" clip-path="url(#p9ee8e80233)" style="fill: #ffd100; opacity: 0.5; stroke: #000000; stroke-linejoin: miter"/>
   </g>
   <g id="patch_132">
    <path d="M 389.639596 376.167778 
L 395.568126 376.167778 
L 395.568126 376.089607 
L 389.639596 376.089607 
z
" clip-path="url(#p9ee8e80233)" style="fill: #ffd100; opacity: 0.5; stroke: #000000; stroke-linejoin: miter"/>
   </g>
   <g id="matplotlib.axis_7"/>
   <g id="LineCollection_2">
    <path d="M 270.438902 376.167778 
L 270.438902 254.442222 
" clip-path="url(#p9ee8e80233)" style="fill: none; stroke: #ffb81c; stroke-width: 2"/>
   </g>
   <g id="text_17">
    <!-- $\mu$ -->
    <g style="fill: #ffb81c" transform="translate(260.838902 240.534375) scale(0.3 -0.3)">
     <use xlink:href="#DejaVuSans-Oblique-3bc" transform="translate(0 0.3125)"/>
    </g>
   </g>
  </g>
  <g id="axes_6">
   <g id="matplotlib.axis_8"/>
   <g id="patch_133">
    <path d="M 390.9066 283.865946 
Q 333.832335 301.196533 288.088988 339.409006 
" style="fill: none; stroke: #ff0000; stroke-width: 4; stroke-linecap: round"/>
    <path d="M 296.793033 337.349979 
L 288.088988 339.409006 
L 291.664194 331.210353 
z
" style="fill: #ff0000; stroke: #ff0000; stroke-width: 4; stroke-linecap: round"/>
   </g>
   <g id="text_18">
    <!-- Sampling Distribution by -->
    <g transform="translate(409.7521 267.756712) scale(0.14 -0.14)">
     <use xlink:href="#DejaVuSerif-53"/>
     <use xlink:href="#DejaVuSerif-61" transform="translate(68.505859 0)"/>
     <use xlink:href="#DejaVuSerif-6d" transform="translate(128.125 0)"/>
     <use xlink:href="#DejaVuSerif-70" transform="translate(222.949219 0)"/>
     <use xlink:href="#DejaVuSerif-6c" transform="translate(286.962891 0)"/>
     <use xlink:href="#DejaVuSerif-69" transform="translate(318.945312 0)"/>
     <use xlink:href="#DejaVuSerif-6e" transform="translate(350.927734 0)"/>
     <use xlink:href="#DejaVuSerif-67" transform="translate(415.332031 0)"/>
     <use xlink:href="#DejaVuSerif-20" transform="translate(479.345703 0)"/>
     <use xlink:href="#DejaVuSerif-44" transform="translate(511.132812 0)"/>
     <use xlink:href="#DejaVuSerif-69" transform="translate(591.308594 0)"/>
     <use xlink:href="#DejaVuSerif-73" transform="translate(623.291016 0)"/>
     <use xlink:href="#DejaVuSerif-74" transform="translate(674.609375 0)"/>
     <use xlink:href="#DejaVuSerif-72" transform="translate(714.794922 0)"/>
     <use xlink:href="#DejaVuSerif-69" transform="translate(762.597656 0)"/>
     <use xlink:href="#DejaVuSerif-62" transform="translate(794.580078 0)"/>
     <use xlink:href="#DejaVuSerif-75" transform="translate(858.59375 0)"/>
     <use xlink:href="#DejaVuSerif-74" transform="translate(922.998047 0)"/>
     <use xlink:href="#DejaVuSerif-69" transform="translate(963.183594 0)"/>
     <use xlink:href="#DejaVuSerif-6f" transform="translate(995.166016 0)"/>
     <use xlink:href="#DejaVuSerif-6e" transform="translate(1055.371094 0)"/>
     <use xlink:href="#DejaVuSerif-20" transform="translate(1119.775391 0)"/>
     <use xlink:href="#DejaVuSerif-62" transform="translate(1151.5625 0)"/>
     <use xlink:href="#DejaVuSerif-79" transform="translate(1215.576172 0)"/>
    </g>
    <!-- Bootstrap Simulation (N=50) -->
    <g transform="translate(394.828975 283.632712) scale(0.14 -0.14)">
     <defs>
      <path id="DejaVuSerif-42" d="M 1581 331 
L 2516 331 
Q 3078 331 3337 575 
Q 3597 819 3597 1350 
Q 3597 1878 3339 2120 
Q 3081 2363 2516 2363 
L 1581 2363 
L 1581 331 
z
M 1581 2694 
L 2375 2694 
Q 2888 2694 3123 2891 
Q 3359 3088 3359 3513 
Q 3359 3941 3123 4136 
Q 2888 4331 2375 4331 
L 1581 4331 
L 1581 2694 
z
M 353 0 
L 353 331 
L 947 331 
L 947 4331 
L 353 4331 
L 353 4666 
L 2656 4666 
Q 3363 4666 3720 4377 
Q 4078 4088 4078 3513 
Q 4078 3097 3829 2850 
Q 3581 2603 3103 2547 
Q 3697 2472 4005 2167 
Q 4313 1863 4313 1350 
Q 4313 656 3875 328 
Q 3438 0 2509 0 
L 353 0 
z
" transform="scale(0.015625)"/>
      <path id="DejaVuSerif-4e" d="M 313 0 
L 313 331 
L 941 331 
L 941 4331 
L 313 4331 
L 313 4666 
L 1509 4666 
L 4306 984 
L 4306 4331 
L 3681 4331 
L 3681 4666 
L 5319 4666 
L 5319 4331 
L 4691 4331 
L 4691 -91 
L 4313 -91 
L 1325 3841 
L 1325 331 
L 1953 331 
L 1953 0 
L 313 0 
z
" transform="scale(0.015625)"/>
      <path id="DejaVuSerif-3d" d="M 678 2894 
L 4684 2894 
L 4684 2394 
L 678 2394 
L 678 2894 
z
M 678 1619 
L 4684 1619 
L 4684 1119 
L 678 1119 
L 678 1619 
z
" transform="scale(0.015625)"/>
     </defs>
     <use xlink:href="#DejaVuSerif-42"/>
     <use xlink:href="#DejaVuSerif-6f" transform="translate(73.486328 0)"/>
     <use xlink:href="#DejaVuSerif-6f" transform="translate(133.691406 0)"/>
     <use xlink:href="#DejaVuSerif-74" transform="translate(193.896484 0)"/>
     <use xlink:href="#DejaVuSerif-73" transform="translate(234.082031 0)"/>
     <use xlink:href="#DejaVuSerif-74" transform="translate(285.400391 0)"/>
     <use xlink:href="#DejaVuSerif-72" transform="translate(325.585938 0)"/>
     <use xlink:href="#DejaVuSerif-61" transform="translate(373.388672 0)"/>
     <use xlink:href="#DejaVuSerif-70" transform="translate(433.007812 0)"/>
     <use xlink:href="#DejaVuSerif-20" transform="translate(497.021484 0)"/>
     <use xlink:href="#DejaVuSerif-53" transform="translate(528.808594 0)"/>
     <use xlink:href="#DejaVuSerif-69" transform="translate(597.314453 0)"/>
     <use xlink:href="#DejaVuSerif-6d" transform="translate(629.296875 0)"/>
     <use xlink:href="#DejaVuSerif-75" transform="translate(724.121094 0)"/>
     <use xlink:href="#DejaVuSerif-6c" transform="translate(788.525391 0)"/>
     <use xlink:href="#DejaVuSerif-61" transform="translate(820.507812 0)"/>
     <use xlink:href="#DejaVuSerif-74" transform="translate(880.126953 0)"/>
     <use xlink:href="#DejaVuSerif-69" transform="translate(920.3125 0)"/>
     <use xlink:href="#DejaVuSerif-6f" transform="translate(952.294922 0)"/>
     <use xlink:href="#DejaVuSerif-6e" transform="translate(1012.5 0)"/>
     <use xlink:href="#DejaVuSerif-20" transform="translate(1076.904297 0)"/>
     <use xlink:href="#DejaVuSerif-28" transform="translate(1108.691406 0)"/>
     <use xlink:href="#DejaVuSerif-4e" transform="translate(1147.705078 0)"/>
     <use xlink:href="#DejaVuSerif-3d" transform="translate(1235.205078 0)"/>
     <use xlink:href="#DejaVuSerif-35" transform="translate(1318.994141 0)"/>
     <use xlink:href="#DejaVuSerif-30" transform="translate(1382.617188 0)"/>
     <use xlink:href="#DejaVuSerif-29" transform="translate(1446.240234 0)"/>
    </g>
   </g>
  </g>
 </g>
 <defs>
  <clipPath id="p3bd7bae9a6">
   <rect x="35.620625" y="28.626528" width="669.88" height="136.94125"/>
  </clipPath>
  <clipPath id="p9ee8e80233">
   <rect x="35.620625" y="239.226528" width="669.88" height="136.94125"/>
  </clipPath>
 </defs>
</svg>
