<?xml version="1.0" encoding="utf-8" standalone="no"?>
<!DOCTYPE svg PUBLIC "-//W3C//DTD SVG 1.1//EN"
  "http://www.w3.org/Graphics/SVG/1.1/DTD/svg11.dtd">
<svg xmlns:xlink="http://www.w3.org/1999/xlink" width="1440pt" height="288pt" viewBox="0 0 1440 288" xmlns="http://www.w3.org/2000/svg" version="1.1">
 <metadata>
  <rdf:RDF xmlns:dc="http://purl.org/dc/elements/1.1/" xmlns:cc="http://creativecommons.org/ns#" xmlns:rdf="http://www.w3.org/1999/02/22-rdf-syntax-ns#">
   <cc:Work>
    <dc:type rdf:resource="http://purl.org/dc/dcmitype/StillImage"/>
    <dc:date>2024-09-22T19:59:30.727463</dc:date>
    <dc:format>image/svg+xml</dc:format>
    <dc:creator>
     <cc:Agent>
      <dc:title>Matplotlib v3.9.2, https://matplotlib.org/</dc:title>
     </cc:Agent>
    </dc:creator>
   </cc:Work>
  </rdf:RDF>
 </metadata>
 <defs>
  <style type="text/css">*{stroke-linejoin: round; stroke-linecap: butt}</style>
 </defs>
 <g id="figure_1">
  <g id="patch_1">
   <path d="M 0 288 
L 1440 288 
L 1440 0 
L 0 0 
L 0 288 
z
" style="fill: none"/>
  </g>
  <g id="axes_1">
   <g id="patch_2">
    <path d="M 10.8 248.48 
L 285.84 248.48 
L 285.84 10.8 
L 10.8 10.8 
L 10.8 248.48 
z
" style="fill: none"/>
   </g>
   <g id="matplotlib.axis_1">
    <g id="text_1">
     <!-- Normal (Z) -->
     <g style="fill: #030303" transform="translate(92.196562 267.676875) scale(0.2 -0.2)">
      <defs>
       <path id="DejaVuSerif-4e" d="M 313 0 
L 313 331 
L 941 331 
L 941 4331 
L 313 4331 
L 313 4666 
L 1509 4666 
L 4306 984 
L 4306 4331 
L 3681 4331 
L 3681 4666 
L 5319 4666 
L 5319 4331 
L 4691 4331 
L 4691 -91 
L 4313 -91 
L 1325 3841 
L 1325 331 
L 1953 331 
L 1953 0 
L 313 0 
z
" transform="scale(0.015625)"/>
       <path id="DejaVuSerif-6f" d="M 1925 219 
Q 2388 219 2623 584 
Q 2859 950 2859 1663 
Q 2859 2375 2623 2739 
Q 2388 3103 1925 3103 
Q 1463 3103 1227 2739 
Q 991 2375 991 1663 
Q 991 950 1228 584 
Q 1466 219 1925 219 
z
M 1925 -91 
Q 1200 -91 759 389 
Q 319 869 319 1663 
Q 319 2456 758 2934 
Q 1197 3413 1925 3413 
Q 2653 3413 3092 2934 
Q 3531 2456 3531 1663 
Q 3531 869 3092 389 
Q 2653 -91 1925 -91 
z
" transform="scale(0.015625)"/>
       <path id="DejaVuSerif-72" d="M 3059 3328 
L 3059 2497 
L 2728 2497 
Q 2713 2744 2591 2866 
Q 2469 2988 2234 2988 
Q 1809 2988 1582 2694 
Q 1356 2400 1356 1850 
L 1356 331 
L 2022 331 
L 2022 0 
L 263 0 
L 263 331 
L 781 331 
L 781 2994 
L 231 2994 
L 231 3322 
L 1356 3322 
L 1356 2731 
Q 1525 3078 1790 3245 
Q 2056 3413 2438 3413 
Q 2578 3413 2733 3391 
Q 2888 3369 3059 3328 
z
" transform="scale(0.015625)"/>
       <path id="DejaVuSerif-6d" d="M 3316 2675 
Q 3481 3041 3739 3227 
Q 3997 3413 4341 3413 
Q 4863 3413 5119 3089 
Q 5375 2766 5375 2113 
L 5375 331 
L 5894 331 
L 5894 0 
L 4300 0 
L 4300 331 
L 4800 331 
L 4800 2047 
Q 4800 2556 4650 2772 
Q 4500 2988 4153 2988 
Q 3769 2988 3567 2697 
Q 3366 2406 3366 1850 
L 3366 331 
L 3866 331 
L 3866 0 
L 2291 0 
L 2291 331 
L 2791 331 
L 2791 2069 
Q 2791 2566 2641 2777 
Q 2491 2988 2144 2988 
Q 1759 2988 1557 2697 
Q 1356 2406 1356 1850 
L 1356 331 
L 1856 331 
L 1856 0 
L 263 0 
L 263 331 
L 781 331 
L 781 2994 
L 231 2994 
L 231 3322 
L 1356 3322 
L 1356 2731 
Q 1516 3063 1762 3238 
Q 2009 3413 2322 3413 
Q 2709 3413 2968 3220 
Q 3228 3028 3316 2675 
z
" transform="scale(0.015625)"/>
       <path id="DejaVuSerif-61" d="M 2547 1044 
L 2547 1747 
L 1806 1747 
Q 1378 1747 1168 1562 
Q 959 1378 959 997 
Q 959 650 1171 447 
Q 1384 244 1747 244 
Q 2106 244 2326 466 
Q 2547 688 2547 1044 
z
M 3122 2075 
L 3122 331 
L 3634 331 
L 3634 0 
L 2547 0 
L 2547 359 
Q 2356 128 2106 18 
Q 1856 -91 1522 -91 
Q 969 -91 644 203 
Q 319 497 319 997 
Q 319 1513 691 1797 
Q 1063 2081 1741 2081 
L 2547 2081 
L 2547 2309 
Q 2547 2688 2317 2895 
Q 2088 3103 1672 3103 
Q 1328 3103 1125 2947 
Q 922 2791 872 2484 
L 575 2484 
L 575 3156 
Q 875 3284 1158 3348 
Q 1441 3413 1709 3413 
Q 2400 3413 2761 3070 
Q 3122 2728 3122 2075 
z
" transform="scale(0.015625)"/>
       <path id="DejaVuSerif-6c" d="M 1313 331 
L 1856 331 
L 1856 0 
L 184 0 
L 184 331 
L 738 331 
L 738 4531 
L 184 4531 
L 184 4863 
L 1313 4863 
L 1313 331 
z
" transform="scale(0.015625)"/>
       <path id="DejaVuSerif-20" transform="scale(0.015625)"/>
       <path id="DejaVuSerif-28" d="M 2041 -997 
Q 1281 -656 893 83 
Q 506 822 506 1931 
Q 506 3044 893 3783 
Q 1281 4522 2041 4863 
L 2041 4556 
Q 1559 4225 1350 3623 
Q 1141 3022 1141 1931 
Q 1141 844 1350 242 
Q 1559 -359 2041 -691 
L 2041 -997 
z
" transform="scale(0.015625)"/>
       <path id="DejaVuSerif-5a" d="M 288 0 
L 288 225 
L 3194 4281 
L 781 4281 
L 781 3584 
L 397 3584 
L 397 4666 
L 4084 4666 
L 4084 4441 
L 1178 384 
L 3816 384 
L 3816 1038 
L 4197 1038 
L 4197 0 
L 288 0 
z
" transform="scale(0.015625)"/>
       <path id="DejaVuSerif-29" d="M 453 -997 
L 453 -691 
Q 934 -359 1145 242 
Q 1356 844 1356 1931 
Q 1356 3022 1145 3623 
Q 934 4225 453 4556 
L 453 4863 
Q 1216 4522 1603 3783 
Q 1991 3044 1991 1931 
Q 1991 822 1603 83 
Q 1216 -656 453 -997 
z
" transform="scale(0.015625)"/>
      </defs>
      <use xlink:href="#DejaVuSerif-4e"/>
      <use xlink:href="#DejaVuSerif-6f" x="87.5"/>
      <use xlink:href="#DejaVuSerif-72" x="147.705078"/>
      <use xlink:href="#DejaVuSerif-6d" x="195.507812"/>
      <use xlink:href="#DejaVuSerif-61" x="290.332031"/>
      <use xlink:href="#DejaVuSerif-6c" x="349.951172"/>
      <use xlink:href="#DejaVuSerif-20" x="381.933594"/>
      <use xlink:href="#DejaVuSerif-28" x="413.720703"/>
      <use xlink:href="#DejaVuSerif-5a" x="452.734375"/>
      <use xlink:href="#DejaVuSerif-29" x="522.216797"/>
     </g>
    </g>
   </g>
   <g id="matplotlib.axis_2"/>
   <g id="line2d_1">
    <path d="M 23.301818 248.404062 
L 34.314431 248.187856 
L 41.322457 247.834516 
L 46.578477 247.348193 
L 50.83335 246.733337 
L 54.337363 246.017657 
L 57.591089 245.13075 
L 60.594529 244.073517 
L 63.347682 242.859372 
L 65.850549 241.51462 
L 68.353415 239.90331 
L 70.605995 238.193303 
L 72.858575 236.206278 
L 75.111155 233.911302 
L 77.363735 231.276798 
L 79.616314 228.271134 
L 81.868894 224.863328 
L 84.121474 221.023854 
L 86.374054 216.725553 
L 88.626634 211.944619 
L 90.879214 206.661656 
L 93.38208 200.186214 
L 95.884947 193.064582 
L 98.387813 185.299228 
L 101.140966 176.033412 
L 104.144406 165.109851 
L 107.398133 152.416097 
L 111.152432 136.862975 
L 116.658739 112.96784 
L 123.666765 82.633082 
L 127.170778 68.433816 
L 129.923931 58.115474 
L 132.426798 49.566789 
L 134.679378 42.676737 
L 136.681671 37.275161 
L 138.433677 33.15876 
L 139.935397 30.113438 
L 141.437117 27.535711 
L 142.68855 25.757498 
L 143.939984 24.32463 
L 145.191417 23.243932 
L 146.192563 22.636467 
L 147.19371 22.259597 
L 148.194857 22.114479 
L 149.196003 22.201561 
L 150.19715 22.520574 
L 151.198296 23.070538 
L 152.199443 23.849763 
L 153.450876 25.142491 
L 154.70231 26.783489 
L 155.953743 28.76496 
L 157.455463 31.578862 
L 158.957183 34.850483 
L 160.709189 39.216545 
L 162.711482 44.882065 
L 164.713776 51.205518 
L 166.966355 59.016706 
L 169.719509 69.412559 
L 172.973235 82.633082 
L 177.478395 101.987076 
L 187.239574 144.224857 
L 190.993874 159.354297 
L 194.2476 171.581313 
L 197.25104 182.015944 
L 200.004193 190.802113 
L 202.757346 198.813686 
L 205.260213 205.417968 
L 207.763079 211.382721 
L 210.015659 216.218569 
L 212.268239 220.569392 
L 214.520819 224.458557 
L 216.773399 227.912904 
L 219.025979 230.96174 
L 221.278559 233.635927 
L 223.531138 235.967062 
L 225.783718 237.98676 
L 228.036298 239.72605 
L 230.539165 241.366102 
L 233.042031 242.735845 
L 235.795184 243.973496 
L 238.548337 244.971807 
L 241.551777 245.833957 
L 245.05579 246.597968 
L 249.060377 247.224448 
L 253.565536 247.699189 
L 259.322129 248.067121 
L 266.830729 248.309101 
L 273.338182 248.404062 
L 273.338182 248.404062 
" clip-path="url(#pe17f51475b)" style="fill: none; stroke: #000000; stroke-width: 1.5; stroke-linecap: square"/>
   </g>
   <g id="patch_3">
    <path d="M 10.8 248.48 
L 285.84 248.48 
" style="fill: none; stroke: #030303; stroke-width: 1.5; stroke-linejoin: miter; stroke-linecap: square"/>
   </g>
  </g>
  <g id="axes_2">
   <g id="patch_4">
    <path d="M 296.64 248.48 
L 571.68 248.48 
L 571.68 10.8 
L 296.64 10.8 
L 296.64 248.48 
z
" style="fill: none"/>
   </g>
   <g id="matplotlib.axis_3">
    <g id="text_2">
     <!-- Student's t -->
     <g style="fill: #030303" transform="translate(378.994375 267.676875) scale(0.2 -0.2)">
      <defs>
       <path id="DejaVuSerif-53" d="M 594 225 
L 594 1288 
L 953 1284 
Q 969 753 1261 498 
Q 1553 244 2150 244 
Q 2706 244 2998 464 
Q 3291 684 3291 1106 
Q 3291 1444 3114 1625 
Q 2938 1806 2369 1978 
L 1753 2163 
Q 1084 2366 811 2669 
Q 538 2972 538 3500 
Q 538 4094 959 4422 
Q 1381 4750 2144 4750 
Q 2469 4750 2856 4679 
Q 3244 4609 3681 4475 
L 3681 3481 
L 3328 3481 
Q 3275 3975 2998 4195 
Q 2722 4416 2156 4416 
Q 1663 4416 1405 4214 
Q 1147 4013 1147 3628 
Q 1147 3294 1340 3103 
Q 1534 2913 2163 2725 
L 2741 2553 
Q 3375 2363 3645 2067 
Q 3916 1772 3916 1275 
Q 3916 597 3481 253 
Q 3047 -91 2188 -91 
Q 1803 -91 1404 -12 
Q 1006 66 594 225 
z
" transform="scale(0.015625)"/>
       <path id="DejaVuSerif-74" d="M 691 2988 
L 184 2988 
L 184 3322 
L 691 3322 
L 691 4353 
L 1269 4353 
L 1269 3322 
L 2350 3322 
L 2350 2988 
L 1269 2988 
L 1269 878 
Q 1269 456 1350 337 
Q 1431 219 1650 219 
Q 1875 219 1978 351 
Q 2081 484 2088 781 
L 2522 781 
Q 2497 328 2275 118 
Q 2053 -91 1600 -91 
Q 1103 -91 897 129 
Q 691 350 691 878 
L 691 2988 
z
" transform="scale(0.015625)"/>
       <path id="DejaVuSerif-75" d="M 2266 3322 
L 3341 3322 
L 3341 331 
L 3884 331 
L 3884 0 
L 2766 0 
L 2766 588 
Q 2606 256 2353 82 
Q 2100 -91 1766 -91 
Q 1213 -91 952 223 
Q 691 538 691 1209 
L 691 2988 
L 172 2988 
L 172 3322 
L 1269 3322 
L 1269 1388 
Q 1269 781 1417 556 
Q 1566 331 1947 331 
Q 2347 331 2556 625 
Q 2766 919 2766 1478 
L 2766 2988 
L 2266 2988 
L 2266 3322 
z
" transform="scale(0.015625)"/>
       <path id="DejaVuSerif-64" d="M 3359 331 
L 3909 331 
L 3909 0 
L 2784 0 
L 2784 519 
Q 2616 206 2355 57 
Q 2094 -91 1709 -91 
Q 1097 -91 708 395 
Q 319 881 319 1663 
Q 319 2444 706 2928 
Q 1094 3413 1709 3413 
Q 2094 3413 2355 3264 
Q 2616 3116 2784 2803 
L 2784 4531 
L 2241 4531 
L 2241 4863 
L 3359 4863 
L 3359 331 
z
M 2784 1497 
L 2784 1825 
Q 2784 2422 2554 2737 
Q 2325 3053 1888 3053 
Q 1444 3053 1217 2703 
Q 991 2353 991 1663 
Q 991 975 1217 622 
Q 1444 269 1888 269 
Q 2325 269 2554 583 
Q 2784 897 2784 1497 
z
" transform="scale(0.015625)"/>
       <path id="DejaVuSerif-65" d="M 3469 1600 
L 991 1600 
L 991 1575 
Q 991 903 1244 561 
Q 1497 219 1991 219 
Q 2369 219 2611 417 
Q 2853 616 2950 1006 
L 3413 1006 
Q 3275 459 2904 184 
Q 2534 -91 1931 -91 
Q 1203 -91 761 389 
Q 319 869 319 1663 
Q 319 2450 753 2931 
Q 1188 3413 1894 3413 
Q 2647 3413 3050 2948 
Q 3453 2484 3469 1600 
z
M 2791 1931 
Q 2772 2513 2545 2808 
Q 2319 3103 1894 3103 
Q 1497 3103 1269 2806 
Q 1041 2509 991 1931 
L 2791 1931 
z
" transform="scale(0.015625)"/>
       <path id="DejaVuSerif-6e" d="M 263 0 
L 263 331 
L 781 331 
L 781 2988 
L 231 2988 
L 231 3322 
L 1356 3322 
L 1356 2731 
Q 1516 3069 1770 3241 
Q 2025 3413 2363 3413 
Q 2913 3413 3172 3097 
Q 3431 2781 3431 2113 
L 3431 331 
L 3944 331 
L 3944 0 
L 2356 0 
L 2356 331 
L 2853 331 
L 2853 1931 
Q 2853 2541 2703 2767 
Q 2553 2994 2175 2994 
Q 1775 2994 1565 2701 
Q 1356 2409 1356 1850 
L 1356 331 
L 1856 331 
L 1856 0 
L 263 0 
z
" transform="scale(0.015625)"/>
       <path id="DejaVuSerif-27" d="M 1125 4666 
L 1125 2931 
L 628 2931 
L 628 4666 
L 1125 4666 
z
" transform="scale(0.015625)"/>
       <path id="DejaVuSerif-73" d="M 359 184 
L 359 959 
L 691 959 
Q 703 588 923 403 
Q 1144 219 1575 219 
Q 1963 219 2166 364 
Q 2369 509 2369 788 
Q 2369 1006 2220 1140 
Q 2072 1275 1594 1428 
L 1178 1569 
Q 750 1706 558 1912 
Q 366 2119 366 2438 
Q 366 2894 700 3153 
Q 1034 3413 1625 3413 
Q 1888 3413 2178 3344 
Q 2469 3275 2778 3144 
L 2778 2419 
L 2447 2419 
Q 2434 2741 2221 2922 
Q 2009 3103 1644 3103 
Q 1281 3103 1095 2975 
Q 909 2847 909 2591 
Q 909 2381 1050 2254 
Q 1191 2128 1613 1997 
L 2069 1856 
Q 2541 1709 2748 1489 
Q 2956 1269 2956 922 
Q 2956 450 2595 179 
Q 2234 -91 1600 -91 
Q 1278 -91 972 -22 
Q 666 47 359 184 
z
" transform="scale(0.015625)"/>
      </defs>
      <use xlink:href="#DejaVuSerif-53"/>
      <use xlink:href="#DejaVuSerif-74" x="68.505859"/>
      <use xlink:href="#DejaVuSerif-75" x="108.691406"/>
      <use xlink:href="#DejaVuSerif-64" x="173.095703"/>
      <use xlink:href="#DejaVuSerif-65" x="237.109375"/>
      <use xlink:href="#DejaVuSerif-6e" x="296.289062"/>
      <use xlink:href="#DejaVuSerif-74" x="360.693359"/>
      <use xlink:href="#DejaVuSerif-27" x="400.878906"/>
      <use xlink:href="#DejaVuSerif-73" x="428.369141"/>
      <use xlink:href="#DejaVuSerif-20" x="479.6875"/>
      <use xlink:href="#DejaVuSerif-74" x="511.474609"/>
     </g>
    </g>
   </g>
   <g id="matplotlib.axis_4"/>
   <g id="line2d_2">
    <path d="M 309.141818 245.879993 
L 317.901851 245.116889 
L 325.160164 244.269955 
L 331.41733 243.324758 
L 336.923636 242.274047 
L 341.679083 241.153794 
L 346.184242 239.862536 
L 350.188829 238.481817 
L 353.943129 236.943589 
L 357.196855 235.380951 
L 360.450581 233.564698 
L 363.454021 231.623286 
L 366.207174 229.582915 
L 368.960328 227.253796 
L 371.463194 224.848889 
L 373.966061 222.131336 
L 376.468927 219.058746 
L 378.721507 215.950808 
L 380.974087 212.478907 
L 383.226667 208.601683 
L 385.479247 204.274738 
L 387.731826 199.451157 
L 389.984406 194.082385 
L 392.236986 188.11958 
L 394.489566 181.515574 
L 396.742146 174.227583 
L 398.994726 166.220804 
L 401.497592 156.454914 
L 404.000459 145.771085 
L 406.753612 133.002598 
L 409.757052 118.001059 
L 413.761638 96.771124 
L 420.018804 63.531896 
L 422.521671 51.473401 
L 424.523964 42.85442 
L 426.275971 36.288167 
L 427.77769 31.517026 
L 429.029124 28.217287 
L 430.280557 25.582088 
L 431.281704 23.978206 
L 432.28285 22.839148 
L 433.03371 22.296566 
L 433.78457 22.024541 
L 434.53543 22.024541 
L 435.28629 22.296566 
L 436.03715 22.839148 
L 436.78801 23.649367 
L 437.789156 25.138294 
L 438.790303 27.081136 
L 440.041736 30.120178 
L 441.29317 33.796885 
L 442.794889 38.978819 
L 444.546896 45.959888 
L 446.549189 54.961217 
L 449.052056 67.356681 
L 452.806355 87.291639 
L 459.063522 120.569038 
L 462.317248 136.585386 
L 465.070401 149.071385 
L 467.573268 159.481553 
L 470.076134 168.971284 
L 472.579001 177.553595 
L 474.831581 184.532727 
L 477.084161 190.846139 
L 479.33674 196.538953 
L 481.58932 201.659367 
L 483.8419 206.256299 
L 486.09448 210.37771 
L 488.34706 214.069481 
L 490.59964 217.374707 
L 493.102506 220.642262 
L 495.605373 223.531728 
L 498.108239 226.087962 
L 500.861392 228.562527 
L 503.614545 230.729068 
L 506.617985 232.78911 
L 509.621425 234.576802 
L 512.875152 236.251258 
L 516.379165 237.796228 
L 520.133464 239.202593 
L 524.138051 240.46739 
L 528.64321 241.652765 
L 533.648943 242.73242 
L 539.15525 243.691998 
L 545.412416 244.557957 
L 552.670729 245.336607 
L 559.178182 245.879993 
L 559.178182 245.879993 
" clip-path="url(#pa58a8c049c)" style="fill: none; stroke: #000000; stroke-width: 1.5; stroke-linecap: square"/>
   </g>
   <g id="patch_5">
    <path d="M 296.64 248.48 
L 571.68 248.48 
" style="fill: none; stroke: #030303; stroke-width: 1.5; stroke-linejoin: miter; stroke-linecap: square"/>
   </g>
  </g>
  <g id="axes_3">
   <g id="patch_6">
    <path d="M 582.48 248.48 
L 857.52 248.48 
L 857.52 10.8 
L 582.48 10.8 
L 582.48 248.48 
z
" style="fill: none"/>
   </g>
   <g id="matplotlib.axis_5">
    <g id="text_3">
     <!-- F-Distribution -->
     <g style="fill: #030303" transform="translate(649.267187 267.676875) scale(0.2 -0.2)">
      <defs>
       <path id="DejaVuSerif-46" d="M 353 0 
L 353 331 
L 947 331 
L 947 4331 
L 353 4331 
L 353 4666 
L 4172 4666 
L 4172 3628 
L 3788 3628 
L 3788 4281 
L 1581 4281 
L 1581 2719 
L 3175 2719 
L 3175 3303 
L 3559 3303 
L 3559 1753 
L 3175 1753 
L 3175 2338 
L 1581 2338 
L 1581 331 
L 2328 331 
L 2328 0 
L 353 0 
z
" transform="scale(0.015625)"/>
       <path id="DejaVuSerif-2d" d="M 281 1959 
L 1881 1959 
L 1881 1472 
L 281 1472 
L 281 1959 
z
" transform="scale(0.015625)"/>
       <path id="DejaVuSerif-44" d="M 1581 331 
L 2163 331 
Q 3072 331 3558 850 
Q 4044 1369 4044 2338 
Q 4044 3306 3559 3818 
Q 3075 4331 2163 4331 
L 1581 4331 
L 1581 331 
z
M 353 0 
L 353 331 
L 947 331 
L 947 4331 
L 353 4331 
L 353 4666 
L 2209 4666 
Q 3416 4666 4089 4050 
Q 4763 3434 4763 2338 
Q 4763 1238 4088 619 
Q 3413 0 2209 0 
L 353 0 
z
" transform="scale(0.015625)"/>
       <path id="DejaVuSerif-69" d="M 622 4353 
Q 622 4497 726 4603 
Q 831 4709 978 4709 
Q 1122 4709 1226 4603 
Q 1331 4497 1331 4353 
Q 1331 4206 1228 4103 
Q 1125 4000 978 4000 
Q 831 4000 726 4103 
Q 622 4206 622 4353 
z
M 1356 331 
L 1900 331 
L 1900 0 
L 231 0 
L 231 331 
L 781 331 
L 781 2988 
L 231 2988 
L 231 3322 
L 1356 3322 
L 1356 331 
z
" transform="scale(0.015625)"/>
       <path id="DejaVuSerif-62" d="M 738 331 
L 738 4531 
L 184 4531 
L 184 4863 
L 1313 4863 
L 1313 2803 
Q 1481 3116 1742 3264 
Q 2003 3413 2388 3413 
Q 3000 3413 3387 2928 
Q 3775 2444 3775 1663 
Q 3775 881 3387 395 
Q 3000 -91 2388 -91 
Q 2003 -91 1742 57 
Q 1481 206 1313 519 
L 1313 0 
L 184 0 
L 184 331 
L 738 331 
z
M 1313 1497 
Q 1313 897 1542 583 
Q 1772 269 2209 269 
Q 2650 269 2876 622 
Q 3103 975 3103 1663 
Q 3103 2353 2876 2703 
Q 2650 3053 2209 3053 
Q 1772 3053 1542 2737 
Q 1313 2422 1313 1825 
L 1313 1497 
z
" transform="scale(0.015625)"/>
      </defs>
      <use xlink:href="#DejaVuSerif-46"/>
      <use xlink:href="#DejaVuSerif-2d" x="64.884766"/>
      <use xlink:href="#DejaVuSerif-44" x="98.673828"/>
      <use xlink:href="#DejaVuSerif-69" x="178.849609"/>
      <use xlink:href="#DejaVuSerif-73" x="210.832031"/>
      <use xlink:href="#DejaVuSerif-74" x="262.150391"/>
      <use xlink:href="#DejaVuSerif-72" x="302.335938"/>
      <use xlink:href="#DejaVuSerif-69" x="350.138672"/>
      <use xlink:href="#DejaVuSerif-62" x="382.121094"/>
      <use xlink:href="#DejaVuSerif-75" x="446.134766"/>
      <use xlink:href="#DejaVuSerif-74" x="510.539062"/>
      <use xlink:href="#DejaVuSerif-69" x="550.724609"/>
      <use xlink:href="#DejaVuSerif-6f" x="582.707031"/>
      <use xlink:href="#DejaVuSerif-6e" x="642.912109"/>
     </g>
    </g>
   </g>
   <g id="matplotlib.axis_6"/>
   <g id="line2d_3">
    <path d="M 594.981818 248.48 
L 595.232105 248.002742 
L 595.482391 246.653836 
L 595.982965 241.787111 
L 596.733825 230.447331 
L 597.734971 210.73521 
L 602.240131 115.151968 
L 603.741851 90.229199 
L 604.993284 73.009599 
L 606.244717 58.861418 
L 607.496151 47.526182 
L 608.497297 40.281627 
L 609.498444 34.486785 
L 610.49959 29.987688 
L 611.500737 26.63853 
L 612.251597 24.799379 
L 613.002457 23.477601 
L 613.753317 22.623817 
L 614.504177 22.192252 
L 615.00475 22.118095 
L 615.505324 22.201047 
L 616.256183 22.596061 
L 617.007043 23.28516 
L 618.00819 24.606923 
L 619.009337 26.327551 
L 620.26077 28.948607 
L 621.76249 32.651423 
L 623.764783 38.298053 
L 626.267649 46.117015 
L 630.272236 59.491131 
L 637.530549 83.759192 
L 641.535135 96.311139 
L 645.039148 106.597283 
L 648.543161 116.189022 
L 651.796888 124.472437 
L 655.050614 132.173003 
L 658.304341 139.317825 
L 661.558067 145.939358 
L 664.811794 152.072397 
L 668.06552 157.75215 
L 671.319247 163.013035 
L 674.82326 168.247866 
L 678.327273 173.073648 
L 681.831286 177.526152 
L 685.335299 181.638249 
L 689.089599 185.700389 
L 692.843898 189.439711 
L 696.848485 193.106483 
L 700.853071 196.473162 
L 705.107944 199.7542 
L 709.362817 202.760811 
L 713.867977 205.675894 
L 718.623423 208.484831 
L 723.629156 211.176422 
L 728.885176 213.742609 
L 734.391482 216.178156 
L 740.148075 218.480301 
L 746.154955 220.648403 
L 752.662408 222.760675 
L 759.670434 224.795632 
L 767.179034 226.736947 
L 775.188206 228.573056 
L 783.697952 230.296615 
L 792.958559 231.945683 
L 802.970025 233.503787 
L 813.982637 234.991633 
L 825.996396 236.390239 
L 839.261589 237.710646 
L 845.018182 238.221525 
L 845.018182 238.221525 
" clip-path="url(#pd35d2251fb)" style="fill: none; stroke: #000000; stroke-width: 1.5; stroke-linecap: square"/>
   </g>
   <g id="patch_7">
    <path d="M 582.48 248.48 
L 857.52 248.48 
" style="fill: none; stroke: #030303; stroke-width: 1.5; stroke-linejoin: miter; stroke-linecap: square"/>
   </g>
  </g>
  <g id="axes_4">
   <g id="patch_8">
    <path d="M 868.32 248.48 
L 1143.36 248.48 
L 1143.36 10.8 
L 868.32 10.8 
L 868.32 248.48 
z
" style="fill: none"/>
   </g>
   <g id="matplotlib.axis_7">
    <g id="text_4">
     <!-- $\chi^2$ -->
     <g style="fill: #030303" transform="translate(994.74 270.68) scale(0.2 -0.2)">
      <defs>
       <path id="DejaVuSans-Oblique-3c7" d="M 1922 -781 
L 1691 416 
L 394 -1334 
L -284 -1334 
L 1553 1141 
L 1269 2613 
Q 1194 3006 713 3006 
L 559 3006 
L 653 3500 
L 872 3494 
Q 1675 3472 1775 2950 
L 2006 1753 
L 3303 3503 
L 3981 3503 
L 2144 1028 
L 2428 -444 
Q 2503 -838 2984 -838 
L 3138 -838 
L 3044 -1331 
L 2825 -1325 
Q 2022 -1303 1922 -781 
z
" transform="scale(0.015625)"/>
       <path id="DejaVuSans-32" d="M 1228 531 
L 3431 531 
L 3431 0 
L 469 0 
L 469 531 
Q 828 903 1448 1529 
Q 2069 2156 2228 2338 
Q 2531 2678 2651 2914 
Q 2772 3150 2772 3378 
Q 2772 3750 2511 3984 
Q 2250 4219 1831 4219 
Q 1534 4219 1204 4116 
Q 875 4013 500 3803 
L 500 4441 
Q 881 4594 1212 4672 
Q 1544 4750 1819 4750 
Q 2544 4750 2975 4387 
Q 3406 4025 3406 3419 
Q 3406 3131 3298 2873 
Q 3191 2616 2906 2266 
Q 2828 2175 2409 1742 
Q 1991 1309 1228 531 
z
" transform="scale(0.015625)"/>
      </defs>
      <use xlink:href="#DejaVuSans-Oblique-3c7" transform="translate(0 0.765625)"/>
      <use xlink:href="#DejaVuSans-32" transform="translate(63.652396 39.046875) scale(0.7)"/>
     </g>
    </g>
   </g>
   <g id="matplotlib.axis_8"/>
   <g id="line2d_4">
    <path d="M 880.821818 248.48 
L 881.072105 248.285445 
L 881.572678 247.479133 
L 882.323538 245.69131 
L 883.324685 242.598626 
L 884.576118 237.94226 
L 886.328124 230.407049 
L 888.580704 219.581534 
L 891.834431 202.691769 
L 902.847043 144.56974 
L 906.351057 127.58631 
L 909.604783 112.869681 
L 912.608223 100.27331 
L 915.361376 89.599445 
L 918.114529 79.77754 
L 920.867682 70.810909 
L 923.370549 63.396021 
L 925.873415 56.671547 
L 928.376282 50.622314 
L 930.628862 45.740055 
L 932.881441 41.374374 
L 935.134021 37.508553 
L 937.136314 34.477578 
L 939.138608 31.814569 
L 941.140901 29.506208 
L 943.143194 27.538943 
L 945.145487 25.899085 
L 947.147781 24.572892 
L 948.899787 23.658985 
L 950.651794 22.965573 
L 952.4038 22.483584 
L 954.155807 22.204043 
L 956.1581 22.12111 
L 958.160393 22.278041 
L 960.162686 22.662098 
L 962.16498 23.260833 
L 964.417559 24.17591 
L 966.670139 25.330531 
L 969.173006 26.874633 
L 971.675872 28.672912 
L 974.429025 30.919999 
L 977.432465 33.662898 
L 980.686192 36.941295 
L 984.190205 40.785722 
L 988.194791 45.521589 
L 992.699951 51.211941 
L 997.955971 58.233051 
L 1004.213137 66.979365 
L 1012.97317 79.637785 
L 1032.996102 108.684291 
L 1041.005274 119.847189 
L 1048.013301 129.250313 
L 1054.520753 137.627851 
L 1060.77792 145.332882 
L 1066.784799 152.389716 
L 1072.791679 159.103819 
L 1078.548272 165.2125 
L 1084.304865 171.002277 
L 1090.061458 176.476006 
L 1095.818051 181.638982 
L 1101.574644 186.498465 
L 1107.331237 191.063269 
L 1113.08783 195.343408 
L 1118.844423 199.349787 
L 1124.601016 203.093943 
L 1130.607895 206.734245 
L 1130.858182 206.880214 
L 1130.858182 206.880214 
" clip-path="url(#p534e8c3f84)" style="fill: none; stroke: #000000; stroke-width: 1.5; stroke-linecap: square"/>
   </g>
   <g id="patch_9">
    <path d="M 868.32 248.48 
L 1143.36 248.48 
" style="fill: none; stroke: #030303; stroke-width: 1.5; stroke-linejoin: miter; stroke-linecap: square"/>
   </g>
  </g>
  <g id="axes_5">
   <g id="patch_10">
    <path d="M 1154.16 248.48 
L 1429.2 248.48 
L 1429.2 10.8 
L 1154.16 10.8 
L 1154.16 248.48 
z
" style="fill: none"/>
   </g>
   <g id="matplotlib.axis_9">
    <g id="text_5">
     <!-- $\Gamma$ -->
     <g style="fill: #030303" transform="translate(1286.08 267.676875) scale(0.2 -0.2)">
      <defs>
       <path id="DejaVuSans-393" d="M 628 0 
L 628 4666 
L 3531 4666 
L 3531 4134 
L 1259 4134 
L 1259 0 
L 628 0 
z
" transform="scale(0.015625)"/>
      </defs>
      <use xlink:href="#DejaVuSans-393" transform="translate(0 0.09375)"/>
     </g>
    </g>
   </g>
   <g id="matplotlib.axis_10"/>
   <g id="line2d_5">
    <path d="M 1166.661818 248.48 
L 1168.413825 208.282454 
L 1170.165831 173.525364 
L 1171.917838 143.656487 
L 1173.419558 121.563108 
L 1174.921278 102.401651 
L 1176.422998 85.905373 
L 1177.924717 71.828667 
L 1179.426437 59.945502 
L 1180.928157 50.047979 
L 1182.17959 43.178497 
L 1183.431024 37.452632 
L 1184.682457 32.775098 
L 1185.93389 29.057184 
L 1186.935037 26.718113 
L 1187.936183 24.900672 
L 1188.93733 23.567517 
L 1189.68819 22.864203 
L 1190.43905 22.399344 
L 1191.18991 22.159445 
L 1191.94077 22.131604 
L 1192.69163 22.303484 
L 1193.44249 22.663292 
L 1194.443636 23.415963 
L 1195.444783 24.457418 
L 1196.696216 26.129176 
L 1197.947649 28.171603 
L 1199.449369 31.05545 
L 1201.201376 34.937007 
L 1203.203669 39.944135 
L 1205.706536 46.885082 
L 1208.709975 55.950733 
L 1212.714562 68.821146 
L 1227.731761 117.80783 
L 1231.986634 130.575653 
L 1235.740934 141.182646 
L 1239.495233 151.123818 
L 1242.999247 159.78313 
L 1246.50326 167.842501 
L 1249.756986 174.796601 
L 1253.010713 181.254217 
L 1256.264439 187.232975 
L 1259.518165 192.753587 
L 1262.771892 197.838845 
L 1266.025618 202.512796 
L 1269.279345 206.800103 
L 1272.533071 210.725532 
L 1275.786798 214.313564 
L 1279.040524 217.588092 
L 1282.544537 220.790361 
L 1286.04855 223.683374 
L 1289.552563 226.293254 
L 1293.306863 228.803255 
L 1297.061163 231.044633 
L 1301.065749 233.168739 
L 1305.070336 235.046006 
L 1309.325209 236.799783 
L 1313.830369 238.417588 
L 1318.585815 239.891547 
L 1323.841835 241.279001 
L 1329.348141 242.499933 
L 1335.35502 243.603395 
L 1342.11276 244.609217 
L 1349.62136 245.490632 
L 1358.131106 246.254049 
L 1367.892285 246.896691 
L 1379.405471 247.423783 
L 1393.67181 247.842991 
L 1412.193022 248.151521 
L 1416.698182 248.200647 
L 1416.698182 248.200647 
" clip-path="url(#p164999e736)" style="fill: none; stroke: #000000; stroke-width: 1.5; stroke-linecap: square"/>
   </g>
   <g id="patch_11">
    <path d="M 1154.16 248.48 
L 1429.2 248.48 
" style="fill: none; stroke: #030303; stroke-width: 1.5; stroke-linejoin: miter; stroke-linecap: square"/>
   </g>
  </g>
 </g>
 <defs>
  <clipPath id="pe17f51475b">
   <rect x="10.8" y="10.8" width="275.04" height="237.68"/>
  </clipPath>
  <clipPath id="pa58a8c049c">
   <rect x="296.64" y="10.8" width="275.04" height="237.68"/>
  </clipPath>
  <clipPath id="pd35d2251fb">
   <rect x="582.48" y="10.8" width="275.04" height="237.68"/>
  </clipPath>
  <clipPath id="p534e8c3f84">
   <rect x="868.32" y="10.8" width="275.04" height="237.68"/>
  </clipPath>
  <clipPath id="p164999e736">
   <rect x="1154.16" y="10.8" width="275.04" height="237.68"/>
  </clipPath>
 </defs>
</svg>
