<?xml version="1.0" encoding="utf-8" standalone="no"?>
<!DOCTYPE svg PUBLIC "-//W3C//DTD SVG 1.1//EN"
  "http://www.w3.org/Graphics/SVG/1.1/DTD/svg11.dtd">
<svg xmlns:xlink="http://www.w3.org/1999/xlink" width="432pt" height="312pt" viewBox="0 0 432 312" xmlns="http://www.w3.org/2000/svg" version="1.1">
 <metadata>
  <rdf:RDF xmlns:dc="http://purl.org/dc/elements/1.1/" xmlns:cc="http://creativecommons.org/ns#" xmlns:rdf="http://www.w3.org/1999/02/22-rdf-syntax-ns#">
   <cc:Work>
    <dc:type rdf:resource="http://purl.org/dc/dcmitype/StillImage"/>
    <dc:date>2024-09-22T19:18:01.191026</dc:date>
    <dc:format>image/svg+xml</dc:format>
    <dc:creator>
     <cc:Agent>
      <dc:title>Matplotlib v3.9.2, https://matplotlib.org/</dc:title>
     </cc:Agent>
    </dc:creator>
   </cc:Work>
  </rdf:RDF>
 </metadata>
 <defs>
  <style type="text/css">*{stroke-linejoin: round; stroke-linecap: butt}</style>
 </defs>
 <g id="figure_1">
  <g id="patch_1">
   <path d="M 0 312 
L 432 312 
L 432 0 
L 0 0 
L 0 312 
z
" style="fill: none"/>
  </g>
  <g id="axes_1">
   <g id="patch_2">
    <path d="M 61.945127 259.96 
L 421.2 259.96 
L 421.2 10.8 
L 61.945127 10.8 
L 61.945127 259.96 
z
" style="fill: none"/>
   </g>
   <g id="matplotlib.axis_1">
    <g id="xtick_1">
     <g id="line2d_1">
      <defs>
       <path id="mbfc196931a" d="M 0 0 
L 0 3.5 
" style="stroke: #030303; stroke-width: 0.8"/>
      </defs>
      <g>
       <use xlink:href="#mbfc196931a" x="78.274894" y="259.96" style="fill: #030303; stroke: #030303; stroke-width: 0.8"/>
      </g>
     </g>
     <g id="text_1">
      <!-- $\mathdefault{−4}$ -->
      <g style="fill: #030303" transform="translate(68.654894 276.837969) scale(0.13 -0.13)">
       <defs>
        <path id="DejaVuSerif-2212" d="M 678 2259 
L 4684 2259 
L 4684 1753 
L 678 1753 
L 678 2259 
z
" transform="scale(0.015625)"/>
        <path id="DejaVuSerif-34" d="M 2234 1581 
L 2234 4063 
L 641 1581 
L 2234 1581 
z
M 3609 0 
L 1484 0 
L 1484 331 
L 2234 331 
L 2234 1247 
L 197 1247 
L 197 1588 
L 2241 4750 
L 2859 4750 
L 2859 1581 
L 3750 1581 
L 3750 1247 
L 2859 1247 
L 2859 331 
L 3609 331 
L 3609 0 
z
" transform="scale(0.015625)"/>
       </defs>
       <use xlink:href="#DejaVuSerif-2212" transform="translate(0 0.78125)"/>
       <use xlink:href="#DejaVuSerif-34" transform="translate(83.789062 0.78125)"/>
      </g>
     </g>
    </g>
    <g id="xtick_2">
     <g id="line2d_2">
      <g>
       <use xlink:href="#mbfc196931a" x="119.099311" y="259.96" style="fill: #030303; stroke: #030303; stroke-width: 0.8"/>
      </g>
     </g>
     <g id="text_2">
      <!-- $\mathdefault{−3}$ -->
      <g style="fill: #030303" transform="translate(109.479311 276.837969) scale(0.13 -0.13)">
       <defs>
        <path id="DejaVuSerif-33" d="M 622 4469 
Q 988 4606 1323 4678 
Q 1659 4750 1953 4750 
Q 2638 4750 3022 4454 
Q 3406 4159 3406 3634 
Q 3406 3213 3140 2930 
Q 2875 2647 2388 2547 
Q 2963 2466 3280 2130 
Q 3597 1794 3597 1259 
Q 3597 606 3158 257 
Q 2719 -91 1894 -91 
Q 1528 -91 1179 -12 
Q 831 66 488 225 
L 488 1131 
L 838 1131 
Q 869 681 1141 450 
Q 1413 219 1906 219 
Q 2384 219 2661 495 
Q 2938 772 2938 1253 
Q 2938 1803 2653 2086 
Q 2369 2369 1819 2369 
L 1522 2369 
L 1522 2688 
L 1678 2688 
Q 2225 2688 2498 2914 
Q 2772 3141 2772 3597 
Q 2772 4006 2547 4223 
Q 2322 4441 1900 4441 
Q 1478 4441 1245 4241 
Q 1013 4041 972 3647 
L 622 3647 
L 622 4469 
z
" transform="scale(0.015625)"/>
       </defs>
       <use xlink:href="#DejaVuSerif-2212" transform="translate(0 0.78125)"/>
       <use xlink:href="#DejaVuSerif-33" transform="translate(83.789062 0.78125)"/>
      </g>
     </g>
    </g>
    <g id="xtick_3">
     <g id="line2d_3">
      <g>
       <use xlink:href="#mbfc196931a" x="159.923729" y="259.96" style="fill: #030303; stroke: #030303; stroke-width: 0.8"/>
      </g>
     </g>
     <g id="text_3">
      <!-- $\mathdefault{−2}$ -->
      <g style="fill: #030303" transform="translate(150.303729 276.837969) scale(0.13 -0.13)">
       <defs>
        <path id="DejaVuSerif-32" d="M 819 3553 
L 469 3553 
L 469 4384 
Q 803 4563 1142 4656 
Q 1481 4750 1806 4750 
Q 2534 4750 2956 4397 
Q 3378 4044 3378 3438 
Q 3378 2753 2422 1800 
Q 2347 1728 2309 1691 
L 1131 513 
L 3078 513 
L 3078 1088 
L 3444 1088 
L 3444 0 
L 434 0 
L 434 341 
L 1850 1753 
Q 2319 2222 2519 2614 
Q 2719 3006 2719 3438 
Q 2719 3909 2473 4175 
Q 2228 4441 1797 4441 
Q 1350 4441 1106 4219 
Q 863 3997 819 3553 
z
" transform="scale(0.015625)"/>
       </defs>
       <use xlink:href="#DejaVuSerif-2212" transform="translate(0 0.78125)"/>
       <use xlink:href="#DejaVuSerif-32" transform="translate(83.789062 0.78125)"/>
      </g>
     </g>
    </g>
    <g id="xtick_4">
     <g id="line2d_4">
      <g>
       <use xlink:href="#mbfc196931a" x="200.748146" y="259.96" style="fill: #030303; stroke: #030303; stroke-width: 0.8"/>
      </g>
     </g>
     <g id="text_4">
      <!-- $\mathdefault{−1}$ -->
      <g style="fill: #030303" transform="translate(191.128146 276.837969) scale(0.13 -0.13)">
       <defs>
        <path id="DejaVuSerif-31" d="M 909 0 
L 909 331 
L 1722 331 
L 1722 4213 
L 781 3603 
L 781 4013 
L 1919 4750 
L 2350 4750 
L 2350 331 
L 3163 331 
L 3163 0 
L 909 0 
z
" transform="scale(0.015625)"/>
       </defs>
       <use xlink:href="#DejaVuSerif-2212" transform="translate(0 0.78125)"/>
       <use xlink:href="#DejaVuSerif-31" transform="translate(83.789062 0.78125)"/>
      </g>
     </g>
    </g>
    <g id="xtick_5">
     <g id="line2d_5">
      <g>
       <use xlink:href="#mbfc196931a" x="241.572563" y="259.96" style="fill: #030303; stroke: #030303; stroke-width: 0.8"/>
      </g>
     </g>
     <g id="text_5">
      <!-- $\mathdefault{0}$ -->
      <g style="fill: #030303" transform="translate(237.412563 276.837969) scale(0.13 -0.13)">
       <defs>
        <path id="DejaVuSerif-30" d="M 2034 219 
Q 2513 219 2750 744 
Q 2988 1269 2988 2328 
Q 2988 3391 2750 3916 
Q 2513 4441 2034 4441 
Q 1556 4441 1318 3916 
Q 1081 3391 1081 2328 
Q 1081 1269 1318 744 
Q 1556 219 2034 219 
z
M 2034 -91 
Q 1275 -91 848 546 
Q 422 1184 422 2328 
Q 422 3475 848 4112 
Q 1275 4750 2034 4750 
Q 2797 4750 3222 4112 
Q 3647 3475 3647 2328 
Q 3647 1184 3222 546 
Q 2797 -91 2034 -91 
z
" transform="scale(0.015625)"/>
       </defs>
       <use xlink:href="#DejaVuSerif-30" transform="translate(0 0.78125)"/>
      </g>
     </g>
    </g>
    <g id="xtick_6">
     <g id="line2d_6">
      <g>
       <use xlink:href="#mbfc196931a" x="282.396981" y="259.96" style="fill: #030303; stroke: #030303; stroke-width: 0.8"/>
      </g>
     </g>
     <g id="text_6">
      <!-- $\mathdefault{1}$ -->
      <g style="fill: #030303" transform="translate(278.236981 276.837969) scale(0.13 -0.13)">
       <use xlink:href="#DejaVuSerif-31" transform="translate(0 0.78125)"/>
      </g>
     </g>
    </g>
    <g id="xtick_7">
     <g id="line2d_7">
      <g>
       <use xlink:href="#mbfc196931a" x="323.221398" y="259.96" style="fill: #030303; stroke: #030303; stroke-width: 0.8"/>
      </g>
     </g>
     <g id="text_7">
      <!-- $\mathdefault{2}$ -->
      <g style="fill: #030303" transform="translate(319.061398 276.837969) scale(0.13 -0.13)">
       <use xlink:href="#DejaVuSerif-32" transform="translate(0 0.78125)"/>
      </g>
     </g>
    </g>
    <g id="xtick_8">
     <g id="line2d_8">
      <g>
       <use xlink:href="#mbfc196931a" x="364.045816" y="259.96" style="fill: #030303; stroke: #030303; stroke-width: 0.8"/>
      </g>
     </g>
     <g id="text_8">
      <!-- $\mathdefault{3}$ -->
      <g style="fill: #030303" transform="translate(359.885816 276.837969) scale(0.13 -0.13)">
       <use xlink:href="#DejaVuSerif-33" transform="translate(0 0.78125)"/>
      </g>
     </g>
    </g>
    <g id="xtick_9">
     <g id="line2d_9">
      <g>
       <use xlink:href="#mbfc196931a" x="404.870233" y="259.96" style="fill: #030303; stroke: #030303; stroke-width: 0.8"/>
      </g>
     </g>
     <g id="text_9">
      <!-- $\mathdefault{4}$ -->
      <g style="fill: #030303" transform="translate(400.710233 276.837969) scale(0.13 -0.13)">
       <use xlink:href="#DejaVuSerif-34" transform="translate(0 0.78125)"/>
      </g>
     </g>
    </g>
    <g id="text_10">
     <!-- Test Statistic -->
     <g style="fill: #030303" transform="translate(182.047407 297.21875) scale(0.18 -0.18)">
      <defs>
       <path id="DejaVuSerif-54" d="M 1222 0 
L 1222 331 
L 1819 331 
L 1819 4294 
L 447 4294 
L 447 3566 
L 63 3566 
L 63 4666 
L 4206 4666 
L 4206 3566 
L 3822 3566 
L 3822 4294 
L 2450 4294 
L 2450 331 
L 3047 331 
L 3047 0 
L 1222 0 
z
" transform="scale(0.015625)"/>
       <path id="DejaVuSerif-65" d="M 3469 1600 
L 991 1600 
L 991 1575 
Q 991 903 1244 561 
Q 1497 219 1991 219 
Q 2369 219 2611 417 
Q 2853 616 2950 1006 
L 3413 1006 
Q 3275 459 2904 184 
Q 2534 -91 1931 -91 
Q 1203 -91 761 389 
Q 319 869 319 1663 
Q 319 2450 753 2931 
Q 1188 3413 1894 3413 
Q 2647 3413 3050 2948 
Q 3453 2484 3469 1600 
z
M 2791 1931 
Q 2772 2513 2545 2808 
Q 2319 3103 1894 3103 
Q 1497 3103 1269 2806 
Q 1041 2509 991 1931 
L 2791 1931 
z
" transform="scale(0.015625)"/>
       <path id="DejaVuSerif-73" d="M 359 184 
L 359 959 
L 691 959 
Q 703 588 923 403 
Q 1144 219 1575 219 
Q 1963 219 2166 364 
Q 2369 509 2369 788 
Q 2369 1006 2220 1140 
Q 2072 1275 1594 1428 
L 1178 1569 
Q 750 1706 558 1912 
Q 366 2119 366 2438 
Q 366 2894 700 3153 
Q 1034 3413 1625 3413 
Q 1888 3413 2178 3344 
Q 2469 3275 2778 3144 
L 2778 2419 
L 2447 2419 
Q 2434 2741 2221 2922 
Q 2009 3103 1644 3103 
Q 1281 3103 1095 2975 
Q 909 2847 909 2591 
Q 909 2381 1050 2254 
Q 1191 2128 1613 1997 
L 2069 1856 
Q 2541 1709 2748 1489 
Q 2956 1269 2956 922 
Q 2956 450 2595 179 
Q 2234 -91 1600 -91 
Q 1278 -91 972 -22 
Q 666 47 359 184 
z
" transform="scale(0.015625)"/>
       <path id="DejaVuSerif-74" d="M 691 2988 
L 184 2988 
L 184 3322 
L 691 3322 
L 691 4353 
L 1269 4353 
L 1269 3322 
L 2350 3322 
L 2350 2988 
L 1269 2988 
L 1269 878 
Q 1269 456 1350 337 
Q 1431 219 1650 219 
Q 1875 219 1978 351 
Q 2081 484 2088 781 
L 2522 781 
Q 2497 328 2275 118 
Q 2053 -91 1600 -91 
Q 1103 -91 897 129 
Q 691 350 691 878 
L 691 2988 
z
" transform="scale(0.015625)"/>
       <path id="DejaVuSerif-20" transform="scale(0.015625)"/>
       <path id="DejaVuSerif-53" d="M 594 225 
L 594 1288 
L 953 1284 
Q 969 753 1261 498 
Q 1553 244 2150 244 
Q 2706 244 2998 464 
Q 3291 684 3291 1106 
Q 3291 1444 3114 1625 
Q 2938 1806 2369 1978 
L 1753 2163 
Q 1084 2366 811 2669 
Q 538 2972 538 3500 
Q 538 4094 959 4422 
Q 1381 4750 2144 4750 
Q 2469 4750 2856 4679 
Q 3244 4609 3681 4475 
L 3681 3481 
L 3328 3481 
Q 3275 3975 2998 4195 
Q 2722 4416 2156 4416 
Q 1663 4416 1405 4214 
Q 1147 4013 1147 3628 
Q 1147 3294 1340 3103 
Q 1534 2913 2163 2725 
L 2741 2553 
Q 3375 2363 3645 2067 
Q 3916 1772 3916 1275 
Q 3916 597 3481 253 
Q 3047 -91 2188 -91 
Q 1803 -91 1404 -12 
Q 1006 66 594 225 
z
" transform="scale(0.015625)"/>
       <path id="DejaVuSerif-61" d="M 2547 1044 
L 2547 1747 
L 1806 1747 
Q 1378 1747 1168 1562 
Q 959 1378 959 997 
Q 959 650 1171 447 
Q 1384 244 1747 244 
Q 2106 244 2326 466 
Q 2547 688 2547 1044 
z
M 3122 2075 
L 3122 331 
L 3634 331 
L 3634 0 
L 2547 0 
L 2547 359 
Q 2356 128 2106 18 
Q 1856 -91 1522 -91 
Q 969 -91 644 203 
Q 319 497 319 997 
Q 319 1513 691 1797 
Q 1063 2081 1741 2081 
L 2547 2081 
L 2547 2309 
Q 2547 2688 2317 2895 
Q 2088 3103 1672 3103 
Q 1328 3103 1125 2947 
Q 922 2791 872 2484 
L 575 2484 
L 575 3156 
Q 875 3284 1158 3348 
Q 1441 3413 1709 3413 
Q 2400 3413 2761 3070 
Q 3122 2728 3122 2075 
z
" transform="scale(0.015625)"/>
       <path id="DejaVuSerif-69" d="M 622 4353 
Q 622 4497 726 4603 
Q 831 4709 978 4709 
Q 1122 4709 1226 4603 
Q 1331 4497 1331 4353 
Q 1331 4206 1228 4103 
Q 1125 4000 978 4000 
Q 831 4000 726 4103 
Q 622 4206 622 4353 
z
M 1356 331 
L 1900 331 
L 1900 0 
L 231 0 
L 231 331 
L 781 331 
L 781 2988 
L 231 2988 
L 231 3322 
L 1356 3322 
L 1356 331 
z
" transform="scale(0.015625)"/>
       <path id="DejaVuSerif-63" d="M 3291 997 
Q 3169 466 2822 187 
Q 2475 -91 1925 -91 
Q 1200 -91 759 389 
Q 319 869 319 1663 
Q 319 2459 759 2936 
Q 1200 3413 1925 3413 
Q 2241 3413 2553 3339 
Q 2866 3266 3181 3116 
L 3181 2266 
L 2847 2266 
Q 2781 2703 2561 2903 
Q 2341 3103 1931 3103 
Q 1466 3103 1228 2742 
Q 991 2381 991 1663 
Q 991 944 1227 581 
Q 1463 219 1931 219 
Q 2303 219 2525 412 
Q 2747 606 2828 997 
L 3291 997 
z
" transform="scale(0.015625)"/>
      </defs>
      <use xlink:href="#DejaVuSerif-54"/>
      <use xlink:href="#DejaVuSerif-65" x="58.949219"/>
      <use xlink:href="#DejaVuSerif-73" x="118.128906"/>
      <use xlink:href="#DejaVuSerif-74" x="169.447266"/>
      <use xlink:href="#DejaVuSerif-20" x="209.632812"/>
      <use xlink:href="#DejaVuSerif-53" x="241.419922"/>
      <use xlink:href="#DejaVuSerif-74" x="309.925781"/>
      <use xlink:href="#DejaVuSerif-61" x="350.111328"/>
      <use xlink:href="#DejaVuSerif-74" x="409.730469"/>
      <use xlink:href="#DejaVuSerif-69" x="449.916016"/>
      <use xlink:href="#DejaVuSerif-73" x="481.898438"/>
      <use xlink:href="#DejaVuSerif-74" x="533.216797"/>
      <use xlink:href="#DejaVuSerif-69" x="573.402344"/>
      <use xlink:href="#DejaVuSerif-63" x="605.384766"/>
     </g>
    </g>
   </g>
   <g id="matplotlib.axis_2">
    <g id="ytick_1">
     <g id="line2d_10">
      <defs>
       <path id="mc9d8dffc50" d="M 0 0 
L -3.5 0 
" style="stroke: #030303; stroke-width: 0.8"/>
      </defs>
      <g>
       <use xlink:href="#mc9d8dffc50" x="61.945127" y="259.96" style="fill: #030303; stroke: #030303; stroke-width: 0.8"/>
      </g>
     </g>
     <g id="text_11">
      <!-- $\mathdefault{0.00}$ -->
      <g style="fill: #030303" transform="translate(32.645127 263.759219) scale(0.1 -0.1)">
       <defs>
        <path id="DejaVuSerif-2e" d="M 603 325 
Q 603 500 722 622 
Q 841 744 1019 744 
Q 1191 744 1312 622 
Q 1434 500 1434 325 
Q 1434 153 1312 31 
Q 1191 -91 1019 -91 
Q 841 -91 722 29 
Q 603 150 603 325 
z
" transform="scale(0.015625)"/>
       </defs>
       <use xlink:href="#DejaVuSerif-30" transform="translate(0 0.78125)"/>
       <use xlink:href="#DejaVuSerif-2e" transform="translate(63.623047 0.78125)"/>
       <use xlink:href="#DejaVuSerif-30" transform="translate(95.410156 0.78125)"/>
       <use xlink:href="#DejaVuSerif-30" transform="translate(159.033203 0.78125)"/>
      </g>
     </g>
    </g>
    <g id="ytick_2">
     <g id="line2d_11">
      <g>
       <use xlink:href="#mc9d8dffc50" x="61.945127" y="230.218739" style="fill: #030303; stroke: #030303; stroke-width: 0.8"/>
      </g>
     </g>
     <g id="text_12">
      <!-- $\mathdefault{0.05}$ -->
      <g style="fill: #030303" transform="translate(32.645127 234.017958) scale(0.1 -0.1)">
       <defs>
        <path id="DejaVuSerif-35" d="M 3219 4666 
L 3219 4153 
L 1081 4153 
L 1081 2816 
Q 1244 2928 1461 2984 
Q 1678 3041 1947 3041 
Q 2703 3041 3140 2622 
Q 3578 2203 3578 1478 
Q 3578 738 3136 323 
Q 2694 -91 1894 -91 
Q 1572 -91 1234 -12 
Q 897 66 544 225 
L 544 1131 
L 897 1131 
Q 925 688 1179 453 
Q 1434 219 1894 219 
Q 2388 219 2653 544 
Q 2919 869 2919 1478 
Q 2919 2084 2655 2407 
Q 2391 2731 1894 2731 
Q 1613 2731 1398 2631 
Q 1184 2531 1019 2322 
L 750 2322 
L 750 4666 
L 3219 4666 
z
" transform="scale(0.015625)"/>
       </defs>
       <use xlink:href="#DejaVuSerif-30" transform="translate(0 0.78125)"/>
       <use xlink:href="#DejaVuSerif-2e" transform="translate(63.623047 0.78125)"/>
       <use xlink:href="#DejaVuSerif-30" transform="translate(95.410156 0.78125)"/>
       <use xlink:href="#DejaVuSerif-35" transform="translate(159.033203 0.78125)"/>
      </g>
     </g>
    </g>
    <g id="ytick_3">
     <g id="line2d_12">
      <g>
       <use xlink:href="#mc9d8dffc50" x="61.945127" y="200.477478" style="fill: #030303; stroke: #030303; stroke-width: 0.8"/>
      </g>
     </g>
     <g id="text_13">
      <!-- $\mathdefault{0.10}$ -->
      <g style="fill: #030303" transform="translate(32.645127 204.276696) scale(0.1 -0.1)">
       <use xlink:href="#DejaVuSerif-30" transform="translate(0 0.78125)"/>
       <use xlink:href="#DejaVuSerif-2e" transform="translate(63.623047 0.78125)"/>
       <use xlink:href="#DejaVuSerif-31" transform="translate(95.410156 0.78125)"/>
       <use xlink:href="#DejaVuSerif-30" transform="translate(159.033203 0.78125)"/>
      </g>
     </g>
    </g>
    <g id="ytick_4">
     <g id="line2d_13">
      <g>
       <use xlink:href="#mc9d8dffc50" x="61.945127" y="170.736216" style="fill: #030303; stroke: #030303; stroke-width: 0.8"/>
      </g>
     </g>
     <g id="text_14">
      <!-- $\mathdefault{0.15}$ -->
      <g style="fill: #030303" transform="translate(32.645127 174.535435) scale(0.1 -0.1)">
       <use xlink:href="#DejaVuSerif-30" transform="translate(0 0.78125)"/>
       <use xlink:href="#DejaVuSerif-2e" transform="translate(63.623047 0.78125)"/>
       <use xlink:href="#DejaVuSerif-31" transform="translate(95.410156 0.78125)"/>
       <use xlink:href="#DejaVuSerif-35" transform="translate(159.033203 0.78125)"/>
      </g>
     </g>
    </g>
    <g id="ytick_5">
     <g id="line2d_14">
      <g>
       <use xlink:href="#mc9d8dffc50" x="61.945127" y="140.994955" style="fill: #030303; stroke: #030303; stroke-width: 0.8"/>
      </g>
     </g>
     <g id="text_15">
      <!-- $\mathdefault{0.20}$ -->
      <g style="fill: #030303" transform="translate(32.845127 144.794174) scale(0.1 -0.1)">
       <use xlink:href="#DejaVuSerif-30" transform="translate(0 0.78125)"/>
       <use xlink:href="#DejaVuSerif-2e" transform="translate(63.623047 0.78125)"/>
       <use xlink:href="#DejaVuSerif-32" transform="translate(92.785156 0.78125)"/>
       <use xlink:href="#DejaVuSerif-30" transform="translate(156.408203 0.78125)"/>
      </g>
     </g>
    </g>
    <g id="ytick_6">
     <g id="line2d_15">
      <g>
       <use xlink:href="#mc9d8dffc50" x="61.945127" y="111.253694" style="fill: #030303; stroke: #030303; stroke-width: 0.8"/>
      </g>
     </g>
     <g id="text_16">
      <!-- $\mathdefault{0.25}$ -->
      <g style="fill: #030303" transform="translate(32.845127 115.052913) scale(0.1 -0.1)">
       <use xlink:href="#DejaVuSerif-30" transform="translate(0 0.78125)"/>
       <use xlink:href="#DejaVuSerif-2e" transform="translate(63.623047 0.78125)"/>
       <use xlink:href="#DejaVuSerif-32" transform="translate(92.785156 0.78125)"/>
       <use xlink:href="#DejaVuSerif-35" transform="translate(156.408203 0.78125)"/>
      </g>
     </g>
    </g>
    <g id="ytick_7">
     <g id="line2d_16">
      <g>
       <use xlink:href="#mc9d8dffc50" x="61.945127" y="81.512433" style="fill: #030303; stroke: #030303; stroke-width: 0.8"/>
      </g>
     </g>
     <g id="text_17">
      <!-- $\mathdefault{0.30}$ -->
      <g style="fill: #030303" transform="translate(32.645127 85.311652) scale(0.1 -0.1)">
       <use xlink:href="#DejaVuSerif-30" transform="translate(0 0.78125)"/>
       <use xlink:href="#DejaVuSerif-2e" transform="translate(63.623047 0.78125)"/>
       <use xlink:href="#DejaVuSerif-33" transform="translate(95.410156 0.78125)"/>
       <use xlink:href="#DejaVuSerif-30" transform="translate(159.033203 0.78125)"/>
      </g>
     </g>
    </g>
    <g id="ytick_8">
     <g id="line2d_17">
      <g>
       <use xlink:href="#mc9d8dffc50" x="61.945127" y="51.771172" style="fill: #030303; stroke: #030303; stroke-width: 0.8"/>
      </g>
     </g>
     <g id="text_18">
      <!-- $\mathdefault{0.35}$ -->
      <g style="fill: #030303" transform="translate(32.645127 55.570391) scale(0.1 -0.1)">
       <use xlink:href="#DejaVuSerif-30" transform="translate(0 0.78125)"/>
       <use xlink:href="#DejaVuSerif-2e" transform="translate(63.623047 0.78125)"/>
       <use xlink:href="#DejaVuSerif-33" transform="translate(95.410156 0.78125)"/>
       <use xlink:href="#DejaVuSerif-35" transform="translate(159.033203 0.78125)"/>
      </g>
     </g>
    </g>
    <g id="ytick_9">
     <g id="line2d_18">
      <g>
       <use xlink:href="#mc9d8dffc50" x="61.945127" y="22.029911" style="fill: #030303; stroke: #030303; stroke-width: 0.8"/>
      </g>
     </g>
     <g id="text_19">
      <!-- $\mathdefault{0.40}$ -->
      <g style="fill: #030303" transform="translate(32.645127 25.829129) scale(0.1 -0.1)">
       <use xlink:href="#DejaVuSerif-30" transform="translate(0 0.78125)"/>
       <use xlink:href="#DejaVuSerif-2e" transform="translate(63.623047 0.78125)"/>
       <use xlink:href="#DejaVuSerif-34" transform="translate(95.410156 0.78125)"/>
       <use xlink:href="#DejaVuSerif-30" transform="translate(159.033203 0.78125)"/>
      </g>
     </g>
    </g>
    <g id="text_20">
     <!-- Probability Density -->
     <g style="fill: #030303" transform="translate(24.645752 222.779844) rotate(-90) scale(0.18 -0.18)">
      <defs>
       <path id="DejaVuSerif-50" d="M 1581 2375 
L 2406 2375 
Q 2872 2375 3115 2626 
Q 3359 2878 3359 3353 
Q 3359 3831 3115 4081 
Q 2872 4331 2406 4331 
L 1581 4331 
L 1581 2375 
z
M 353 0 
L 353 331 
L 947 331 
L 947 4331 
L 353 4331 
L 353 4666 
L 2559 4666 
Q 3259 4666 3668 4311 
Q 4078 3956 4078 3353 
Q 4078 2753 3668 2397 
Q 3259 2041 2559 2041 
L 1581 2041 
L 1581 331 
L 2303 331 
L 2303 0 
L 353 0 
z
" transform="scale(0.015625)"/>
       <path id="DejaVuSerif-72" d="M 3059 3328 
L 3059 2497 
L 2728 2497 
Q 2713 2744 2591 2866 
Q 2469 2988 2234 2988 
Q 1809 2988 1582 2694 
Q 1356 2400 1356 1850 
L 1356 331 
L 2022 331 
L 2022 0 
L 263 0 
L 263 331 
L 781 331 
L 781 2994 
L 231 2994 
L 231 3322 
L 1356 3322 
L 1356 2731 
Q 1525 3078 1790 3245 
Q 2056 3413 2438 3413 
Q 2578 3413 2733 3391 
Q 2888 3369 3059 3328 
z
" transform="scale(0.015625)"/>
       <path id="DejaVuSerif-6f" d="M 1925 219 
Q 2388 219 2623 584 
Q 2859 950 2859 1663 
Q 2859 2375 2623 2739 
Q 2388 3103 1925 3103 
Q 1463 3103 1227 2739 
Q 991 2375 991 1663 
Q 991 950 1228 584 
Q 1466 219 1925 219 
z
M 1925 -91 
Q 1200 -91 759 389 
Q 319 869 319 1663 
Q 319 2456 758 2934 
Q 1197 3413 1925 3413 
Q 2653 3413 3092 2934 
Q 3531 2456 3531 1663 
Q 3531 869 3092 389 
Q 2653 -91 1925 -91 
z
" transform="scale(0.015625)"/>
       <path id="DejaVuSerif-62" d="M 738 331 
L 738 4531 
L 184 4531 
L 184 4863 
L 1313 4863 
L 1313 2803 
Q 1481 3116 1742 3264 
Q 2003 3413 2388 3413 
Q 3000 3413 3387 2928 
Q 3775 2444 3775 1663 
Q 3775 881 3387 395 
Q 3000 -91 2388 -91 
Q 2003 -91 1742 57 
Q 1481 206 1313 519 
L 1313 0 
L 184 0 
L 184 331 
L 738 331 
z
M 1313 1497 
Q 1313 897 1542 583 
Q 1772 269 2209 269 
Q 2650 269 2876 622 
Q 3103 975 3103 1663 
Q 3103 2353 2876 2703 
Q 2650 3053 2209 3053 
Q 1772 3053 1542 2737 
Q 1313 2422 1313 1825 
L 1313 1497 
z
" transform="scale(0.015625)"/>
       <path id="DejaVuSerif-6c" d="M 1313 331 
L 1856 331 
L 1856 0 
L 184 0 
L 184 331 
L 738 331 
L 738 4531 
L 184 4531 
L 184 4863 
L 1313 4863 
L 1313 331 
z
" transform="scale(0.015625)"/>
       <path id="DejaVuSerif-79" d="M 1381 -609 
L 1600 -56 
L 359 2988 
L -19 2988 
L -19 3322 
L 1509 3322 
L 1509 2988 
L 978 2988 
L 1913 703 
L 2847 2988 
L 2350 2988 
L 2350 3322 
L 3597 3322 
L 3597 2988 
L 3225 2988 
L 1703 -750 
Q 1547 -1138 1356 -1280 
Q 1166 -1422 819 -1422 
Q 672 -1422 517 -1397 
Q 363 -1372 206 -1325 
L 206 -691 
L 500 -691 
Q 519 -903 608 -995 
Q 697 -1088 884 -1088 
Q 1056 -1088 1161 -992 
Q 1266 -897 1381 -609 
z
" transform="scale(0.015625)"/>
       <path id="DejaVuSerif-44" d="M 1581 331 
L 2163 331 
Q 3072 331 3558 850 
Q 4044 1369 4044 2338 
Q 4044 3306 3559 3818 
Q 3075 4331 2163 4331 
L 1581 4331 
L 1581 331 
z
M 353 0 
L 353 331 
L 947 331 
L 947 4331 
L 353 4331 
L 353 4666 
L 2209 4666 
Q 3416 4666 4089 4050 
Q 4763 3434 4763 2338 
Q 4763 1238 4088 619 
Q 3413 0 2209 0 
L 353 0 
z
" transform="scale(0.015625)"/>
       <path id="DejaVuSerif-6e" d="M 263 0 
L 263 331 
L 781 331 
L 781 2988 
L 231 2988 
L 231 3322 
L 1356 3322 
L 1356 2731 
Q 1516 3069 1770 3241 
Q 2025 3413 2363 3413 
Q 2913 3413 3172 3097 
Q 3431 2781 3431 2113 
L 3431 331 
L 3944 331 
L 3944 0 
L 2356 0 
L 2356 331 
L 2853 331 
L 2853 1931 
Q 2853 2541 2703 2767 
Q 2553 2994 2175 2994 
Q 1775 2994 1565 2701 
Q 1356 2409 1356 1850 
L 1356 331 
L 1856 331 
L 1856 0 
L 263 0 
z
" transform="scale(0.015625)"/>
      </defs>
      <use xlink:href="#DejaVuSerif-50"/>
      <use xlink:href="#DejaVuSerif-72" x="67.285156"/>
      <use xlink:href="#DejaVuSerif-6f" x="115.087891"/>
      <use xlink:href="#DejaVuSerif-62" x="175.292969"/>
      <use xlink:href="#DejaVuSerif-61" x="239.306641"/>
      <use xlink:href="#DejaVuSerif-62" x="298.925781"/>
      <use xlink:href="#DejaVuSerif-69" x="362.939453"/>
      <use xlink:href="#DejaVuSerif-6c" x="394.921875"/>
      <use xlink:href="#DejaVuSerif-69" x="426.904297"/>
      <use xlink:href="#DejaVuSerif-74" x="458.886719"/>
      <use xlink:href="#DejaVuSerif-79" x="499.072266"/>
      <use xlink:href="#DejaVuSerif-20" x="555.566406"/>
      <use xlink:href="#DejaVuSerif-44" x="587.353516"/>
      <use xlink:href="#DejaVuSerif-65" x="667.529297"/>
      <use xlink:href="#DejaVuSerif-6e" x="726.708984"/>
      <use xlink:href="#DejaVuSerif-73" x="791.113281"/>
      <use xlink:href="#DejaVuSerif-69" x="842.431641"/>
      <use xlink:href="#DejaVuSerif-74" x="874.414062"/>
      <use xlink:href="#DejaVuSerif-79" x="914.599609"/>
     </g>
    </g>
   </g>
   <g id="line2d_19">
    <path d="M 78.274894 259.880394 
L 92.332551 259.662571 
L 101.159452 259.319523 
L 108.02482 258.833944 
L 113.582498 258.21842 
L 118.15941 257.500409 
L 122.409399 256.608911 
L 126.005544 255.643143 
L 129.601689 254.442029 
L 132.870912 253.10867 
L 135.813212 251.680776 
L 138.755512 250.007126 
L 141.697813 248.057137 
L 144.313191 246.066013 
L 146.928569 243.808238 
L 149.543947 241.260478 
L 152.159325 238.399508 
L 154.774703 235.202637 
L 157.390081 231.648188 
L 160.005459 227.716029 
L 162.620837 223.388149 
L 165.236215 218.649264 
L 167.851594 213.487452 
L 170.793894 207.165197 
L 173.736194 200.293582 
L 176.678495 192.87694 
L 179.947717 184.014224 
L 183.543862 173.54946 
L 187.140007 162.402671 
L 191.389996 148.482047 
L 196.620753 130.532967 
L 211.005332 80.667824 
L 214.601477 69.185361 
L 217.8707 59.464424 
L 220.813 51.439234 
L 223.428378 44.97599 
L 225.716834 39.898662 
L 227.678367 36.012127 
L 229.639901 32.582486 
L 231.601435 29.632672 
L 233.236046 27.555495 
L 234.870657 25.835237 
L 236.505268 24.48007 
L 237.812957 23.663208 
L 239.120647 23.08668 
L 240.428336 22.752259 
L 241.736025 22.660971 
L 243.043714 22.813098 
L 244.351403 23.208171 
L 245.659092 23.844977 
L 246.966781 24.72156 
L 248.27447 25.835237 
L 249.909081 27.555495 
L 251.543692 29.632672 
L 253.178304 32.056952 
L 255.139837 35.408137 
L 257.101371 39.220236 
L 259.389827 44.216391 
L 261.678283 49.761009 
L 264.293661 56.707004 
L 267.235961 65.205048 
L 270.505184 75.359308 
L 274.428251 88.307223 
L 279.659007 106.391433 
L 291.755131 148.482047 
L 296.332042 163.441877 
L 300.255109 175.50525 
L 303.851254 185.837804 
L 307.120477 194.57163 
L 310.3897 202.64508 
L 313.332 209.333613 
L 316.2743 215.47329 
L 319.216601 221.070913 
L 321.831979 225.60258 
L 324.447357 229.730504 
L 327.062735 233.471411 
L 329.678113 236.844445 
L 332.293491 239.87058 
L 334.908869 242.572065 
L 337.524247 244.971913 
L 340.139625 247.093454 
L 343.081926 249.176453 
L 346.024226 250.969053 
L 348.966526 252.502499 
L 352.235749 253.938401 
L 355.504972 255.128908 
L 359.101116 256.19647 
L 363.024184 257.119185 
L 367.274173 257.887066 
L 372.178007 258.538246 
L 377.735685 259.048717 
L 384.601053 259.447236 
L 393.427954 259.725155 
L 404.870233 259.880394 
L 404.870233 259.880394 
" clip-path="url(#p3b322f938f)" style="fill: none; stroke: #000000; stroke-width: 1.5; stroke-linecap: square"/>
   </g>
   <g id="patch_3">
    <path d="M 61.945127 259.96 
L 61.945127 10.8 
" style="fill: none; stroke: #030303; stroke-width: 1.5; stroke-linejoin: miter; stroke-linecap: square"/>
   </g>
   <g id="patch_4">
    <path d="M 61.945127 259.96 
L 421.2 259.96 
" style="fill: none; stroke: #030303; stroke-width: 1.5; stroke-linejoin: miter; stroke-linecap: square"/>
   </g>
  </g>
  <g id="axes_2">
   <g id="PolyCollection_1">
    <defs>
     <path id="mb67992a3c8" d="M 308.72873 -113.372911 
L 308.72873 -52.04 
L 309.699856 -52.04 
L 310.670983 -52.04 
L 311.642109 -52.04 
L 312.613235 -52.04 
L 313.584362 -52.04 
L 314.555488 -52.04 
L 315.526614 -52.04 
L 316.49774 -52.04 
L 317.468867 -52.04 
L 318.439993 -52.04 
L 319.411119 -52.04 
L 320.382246 -52.04 
L 321.353372 -52.04 
L 322.324498 -52.04 
L 323.295624 -52.04 
L 324.266751 -52.04 
L 325.237877 -52.04 
L 326.209003 -52.04 
L 327.18013 -52.04 
L 328.151256 -52.04 
L 329.122382 -52.04 
L 330.093509 -52.04 
L 331.064635 -52.04 
L 332.035761 -52.04 
L 333.006887 -52.04 
L 333.978014 -52.04 
L 334.94914 -52.04 
L 335.920266 -52.04 
L 336.891393 -52.04 
L 337.862519 -52.04 
L 338.833645 -52.04 
L 339.804771 -52.04 
L 340.775898 -52.04 
L 341.747024 -52.04 
L 342.71815 -52.04 
L 343.689277 -52.04 
L 344.660403 -52.04 
L 345.631529 -52.04 
L 346.602655 -52.04 
L 347.573782 -52.04 
L 348.544908 -52.04 
L 349.516034 -52.04 
L 350.487161 -52.04 
L 351.458287 -52.04 
L 352.429413 -52.04 
L 353.40054 -52.04 
L 354.371666 -52.04 
L 355.342792 -52.04 
L 356.313918 -52.04 
L 357.285045 -52.04 
L 358.256171 -52.04 
L 359.227297 -52.04 
L 360.198424 -52.04 
L 361.16955 -52.04 
L 362.140676 -52.04 
L 363.111802 -52.04 
L 364.082929 -52.04 
L 365.054055 -52.04 
L 366.025181 -52.04 
L 366.996308 -52.04 
L 367.967434 -52.04 
L 368.93856 -52.04 
L 369.909687 -52.04 
L 370.880813 -52.04 
L 371.851939 -52.04 
L 372.823065 -52.04 
L 373.794192 -52.04 
L 374.765318 -52.04 
L 375.736444 -52.04 
L 376.707571 -52.04 
L 377.678697 -52.04 
L 378.649823 -52.04 
L 379.620949 -52.04 
L 380.592076 -52.04 
L 381.563202 -52.04 
L 382.534328 -52.04 
L 383.505455 -52.04 
L 384.476581 -52.04 
L 385.447707 -52.04 
L 386.418833 -52.04 
L 387.38996 -52.04 
L 388.361086 -52.04 
L 389.332212 -52.04 
L 390.303339 -52.04 
L 391.274465 -52.04 
L 392.245591 -52.04 
L 393.216718 -52.04 
L 394.187844 -52.04 
L 395.15897 -52.04 
L 396.130096 -52.04 
L 397.101223 -52.04 
L 398.072349 -52.04 
L 399.043475 -52.04 
L 400.014602 -52.04 
L 400.985728 -52.04 
L 401.956854 -52.04 
L 402.92798 -52.04 
L 403.899107 -52.04 
L 404.870233 -52.04 
L 404.870233 -52.119606 
L 404.870233 -52.119606 
L 403.899107 -52.127527 
L 402.92798 -52.136183 
L 401.956854 -52.145635 
L 400.985728 -52.155951 
L 400.014602 -52.167201 
L 399.043475 -52.179464 
L 398.072349 -52.192823 
L 397.101223 -52.207367 
L 396.130096 -52.223191 
L 395.15897 -52.240398 
L 394.187844 -52.259097 
L 393.216718 -52.279406 
L 392.245591 -52.301449 
L 391.274465 -52.32536 
L 390.303339 -52.351281 
L 389.332212 -52.379366 
L 388.361086 -52.409774 
L 387.38996 -52.44268 
L 386.418833 -52.478265 
L 385.447707 -52.516726 
L 384.476581 -52.558268 
L 383.505455 -52.603112 
L 382.534328 -52.65149 
L 381.563202 -52.703648 
L 380.592076 -52.759848 
L 379.620949 -52.820365 
L 378.649823 -52.885492 
L 377.678697 -52.955535 
L 376.707571 -53.03082 
L 375.736444 -53.111689 
L 374.765318 -53.198503 
L 373.794192 -53.291641 
L 372.823065 -53.391502 
L 371.851939 -53.498505 
L 370.880813 -53.613089 
L 369.909687 -53.735715 
L 368.93856 -53.866866 
L 367.967434 -54.007047 
L 366.996308 -54.156787 
L 366.025181 -54.316637 
L 365.054055 -54.487172 
L 364.082929 -54.668994 
L 363.111802 -54.862728 
L 362.140676 -55.069023 
L 361.16955 -55.288557 
L 360.198424 -55.52203 
L 359.227297 -55.770172 
L 358.256171 -56.033737 
L 357.285045 -56.313506 
L 356.313918 -56.610286 
L 355.342792 -56.924912 
L 354.371666 -57.258244 
L 353.40054 -57.611167 
L 352.429413 -57.984595 
L 351.458287 -58.379465 
L 350.487161 -58.79674 
L 349.516034 -59.237406 
L 348.544908 -59.702475 
L 347.573782 -60.192981 
L 346.602655 -60.709978 
L 345.631529 -61.254544 
L 344.660403 -61.827773 
L 343.689277 -62.430782 
L 342.71815 -63.064701 
L 341.747024 -63.730676 
L 340.775898 -64.429869 
L 339.804771 -65.16345 
L 338.833645 -65.932602 
L 337.862519 -66.738513 
L 336.891393 -67.582378 
L 335.920266 -68.465394 
L 334.94914 -69.388756 
L 333.978014 -70.353661 
L 333.006887 -71.361294 
L 332.035761 -72.412838 
L 331.064635 -73.509458 
L 330.093509 -74.652308 
L 329.122382 -75.842521 
L 328.151256 -77.081207 
L 327.18013 -78.369451 
L 326.209003 -79.708309 
L 325.237877 -81.098799 
L 324.266751 -82.541905 
L 323.295624 -84.038565 
L 322.324498 -85.589674 
L 321.353372 -87.196072 
L 320.382246 -88.858547 
L 319.411119 -90.577824 
L 318.439993 -92.354565 
L 317.468867 -94.189363 
L 316.49774 -96.082738 
L 315.526614 -98.03513 
L 314.555488 -100.046897 
L 313.584362 -102.118311 
L 312.613235 -104.249551 
L 311.642109 -106.4407 
L 310.670983 -108.691742 
L 309.699856 -111.002556 
L 308.72873 -113.372911 
z
" style="stroke: #ff5e5b; stroke-opacity: 0.3"/>
    </defs>
    <g clip-path="url(#p3b322f938f)">
     <use xlink:href="#mb67992a3c8" x="0" y="312" style="fill: #ff5e5b; fill-opacity: 0.3; stroke: #ff5e5b; stroke-opacity: 0.3"/>
    </g>
   </g>
   <g id="matplotlib.axis_3"/>
   <g id="patch_5">
    <path d="M 61.945127 259.96 
L 421.2 259.96 
" style="fill: none; stroke: #030303; stroke-width: 1.5; stroke-linejoin: miter; stroke-linecap: square"/>
   </g>
   <g id="patch_6">
    <path d="M 336.278924 207.166387 
Q 331.079159 213.872186 325.879394 220.577985 
L 329.040421 223.029087 
Q 322.993301 225.93191 316.94618 228.834732 
Q 318.251759 222.255256 319.557338 215.67578 
L 322.718366 218.126882 
Q 327.918131 211.421083 333.117896 204.715284 
L 336.278924 207.166387 
z
" style="stroke: #000000; stroke-linecap: round"/>
   </g>
   <g id="text_21">
    <!-- $\alpha = 0.05$ -->
    <g style="fill: #030303" transform="translate(337.322153 200.477478) scale(0.1 -0.1)">
     <defs>
      <path id="DejaVuSans-Oblique-3b1" d="M 2619 1628 
L 2622 2350 
Q 2625 3088 2069 3091 
Q 1653 3094 1394 2747 
Q 1069 2319 959 1747 
Q 825 1059 994 731 
Q 1169 397 1547 397 
Q 1966 397 2319 1063 
L 2619 1628 
z
M 2166 3578 
Q 3141 3594 3128 2584 
Q 3128 2584 3616 3500 
L 4128 3500 
L 3119 1603 
L 3109 919 
Q 3109 766 3194 638 
Q 3291 488 3391 488 
L 3669 488 
L 3575 0 
L 3228 0 
Q 2934 0 2722 263 
Q 2622 394 2619 669 
Q 2416 334 2066 50 
Q 1900 -81 1453 -78 
Q 722 -72 456 397 
Q 184 884 353 1747 
Q 534 2675 1009 3097 
Q 1544 3569 2166 3578 
z
" transform="scale(0.015625)"/>
      <path id="DejaVuSans-3d" d="M 678 2906 
L 4684 2906 
L 4684 2381 
L 678 2381 
L 678 2906 
z
M 678 1631 
L 4684 1631 
L 4684 1100 
L 678 1100 
L 678 1631 
z
" transform="scale(0.015625)"/>
      <path id="DejaVuSans-30" d="M 2034 4250 
Q 1547 4250 1301 3770 
Q 1056 3291 1056 2328 
Q 1056 1369 1301 889 
Q 1547 409 2034 409 
Q 2525 409 2770 889 
Q 3016 1369 3016 2328 
Q 3016 3291 2770 3770 
Q 2525 4250 2034 4250 
z
M 2034 4750 
Q 2819 4750 3233 4129 
Q 3647 3509 3647 2328 
Q 3647 1150 3233 529 
Q 2819 -91 2034 -91 
Q 1250 -91 836 529 
Q 422 1150 422 2328 
Q 422 3509 836 4129 
Q 1250 4750 2034 4750 
z
" transform="scale(0.015625)"/>
      <path id="DejaVuSans-2e" d="M 684 794 
L 1344 794 
L 1344 0 
L 684 0 
L 684 794 
z
" transform="scale(0.015625)"/>
      <path id="DejaVuSans-35" d="M 691 4666 
L 3169 4666 
L 3169 4134 
L 1269 4134 
L 1269 2991 
Q 1406 3038 1543 3061 
Q 1681 3084 1819 3084 
Q 2600 3084 3056 2656 
Q 3513 2228 3513 1497 
Q 3513 744 3044 326 
Q 2575 -91 1722 -91 
Q 1428 -91 1123 -41 
Q 819 9 494 109 
L 494 744 
Q 775 591 1075 516 
Q 1375 441 1709 441 
Q 2250 441 2565 725 
Q 2881 1009 2881 1497 
Q 2881 1984 2565 2268 
Q 2250 2553 1709 2553 
Q 1456 2553 1204 2497 
Q 953 2441 691 2322 
L 691 4666 
z
" transform="scale(0.015625)"/>
     </defs>
     <use xlink:href="#DejaVuSans-Oblique-3b1" transform="translate(0 0.78125)"/>
     <use xlink:href="#DejaVuSans-3d" transform="translate(85.400391 0.78125)"/>
     <use xlink:href="#DejaVuSans-30" transform="translate(188.671875 0.78125)"/>
     <use xlink:href="#DejaVuSans-2e" transform="translate(252.294922 0.78125)"/>
     <use xlink:href="#DejaVuSans-30" transform="translate(284.082031 0.78125)"/>
     <use xlink:href="#DejaVuSans-35" transform="translate(347.705078 0.78125)"/>
    </g>
   </g>
  </g>
  <g id="axes_3">
   <g id="PolyCollection_2">
    <path d="M 78.274894 259.96 
L 78.274894 259.880394 
L 78.601816 259.877806 
L 78.928738 259.875139 
L 79.255661 259.87239 
L 79.582583 259.869559 
L 79.909505 259.866642 
L 80.236427 259.863637 
L 80.56335 259.860542 
L 80.890272 259.857354 
L 81.217194 259.85407 
L 81.544117 259.850689 
L 81.871039 259.847207 
L 82.197961 259.843621 
L 82.524883 259.839929 
L 82.851806 259.836128 
L 83.178728 259.832215 
L 83.50565 259.828186 
L 83.832572 259.82404 
L 84.159495 259.819772 
L 84.486417 259.815379 
L 84.813339 259.810858 
L 85.140261 259.806206 
L 85.467184 259.801418 
L 85.794106 259.796492 
L 86.121028 259.791424 
L 86.44795 259.78621 
L 86.774873 259.780847 
L 87.101795 259.775329 
L 87.428717 259.769654 
L 87.755639 259.763817 
L 88.082562 259.757814 
L 88.409484 259.751641 
L 88.736406 259.745293 
L 89.063329 259.738765 
L 89.390251 259.732054 
L 89.717173 259.725155 
L 90.044095 259.718062 
L 90.371018 259.710771 
L 90.69794 259.703276 
L 91.024862 259.695573 
L 91.351784 259.687657 
L 91.678707 259.679521 
L 92.005629 259.671161 
L 92.332551 259.662571 
L 92.659473 259.653745 
L 92.986396 259.644677 
L 93.313318 259.635362 
L 93.64024 259.625793 
L 93.967162 259.615964 
L 94.294085 259.605869 
L 94.621007 259.5955 
L 94.947929 259.584852 
L 95.274852 259.573918 
L 95.601774 259.562691 
L 95.928696 259.551164 
L 96.255618 259.539329 
L 96.582541 259.527179 
L 96.909463 259.514706 
L 97.236385 259.501904 
L 97.563307 259.488764 
L 97.89023 259.475278 
L 98.217152 259.461438 
L 98.544074 259.447236 
L 98.870996 259.432663 
L 99.197919 259.417711 
L 99.524841 259.40237 
L 99.851763 259.386632 
L 100.178685 259.370488 
L 100.505608 259.353928 
L 100.83253 259.336943 
L 101.159452 259.319523 
L 101.486374 259.301659 
L 101.813297 259.283339 
L 102.140219 259.264554 
L 102.467141 259.245294 
L 102.794064 259.225547 
L 103.120986 259.205303 
L 103.447908 259.184551 
L 103.77483 259.163279 
L 104.101753 259.141476 
L 104.428675 259.11913 
L 104.755597 259.09623 
L 105.082519 259.072763 
L 105.409442 259.048717 
L 105.736364 259.024079 
L 106.063286 258.998837 
L 106.390208 258.972977 
L 106.717131 258.946487 
L 107.044053 258.919352 
L 107.370975 258.891559 
L 107.697897 258.863095 
L 108.02482 258.833944 
L 108.351742 258.804093 
L 108.678664 258.773526 
L 109.005586 258.742229 
L 109.332509 258.710187 
L 109.659431 258.677384 
L 109.986353 258.643805 
L 110.313276 258.609433 
L 110.640198 258.574252 
L 110.96712 258.538246 
L 111.294042 258.501398 
L 111.620965 258.463691 
L 111.947887 258.425107 
L 112.274809 258.38563 
L 112.601731 258.345241 
L 112.928654 258.303922 
L 113.255576 258.261654 
L 113.582498 258.21842 
L 113.90942 258.174199 
L 114.236343 258.128973 
L 114.563265 258.082722 
L 114.890187 258.035426 
L 115.217109 257.987065 
L 115.544032 257.937619 
L 115.870954 257.887066 
L 116.197876 257.835386 
L 116.524798 257.782557 
L 116.851721 257.728557 
L 117.178643 257.673365 
L 117.505565 257.616958 
L 117.832488 257.559314 
L 118.15941 257.500409 
L 118.486332 257.440221 
L 118.813254 257.378725 
L 119.140177 257.315898 
L 119.467099 257.251715 
L 119.794021 257.186152 
L 120.120943 257.119185 
L 120.447866 257.050787 
L 120.774788 256.980933 
L 121.10171 256.909598 
L 121.428632 256.836755 
L 121.755555 256.762378 
L 122.082477 256.686439 
L 122.409399 256.608911 
L 122.736321 256.529768 
L 123.063244 256.44898 
L 123.390166 256.366521 
L 123.717088 256.28236 
L 124.044011 256.19647 
L 124.370933 256.108821 
L 124.697855 256.019383 
L 125.024777 255.928127 
L 125.3517 255.835022 
L 125.678622 255.740038 
L 126.005544 255.643143 
L 126.332466 255.544307 
L 126.659389 255.443498 
L 126.986311 255.340683 
L 127.313233 255.235831 
L 127.640155 255.128908 
L 127.967078 255.019883 
L 128.294 254.908721 
L 128.620922 254.795388 
L 128.947844 254.679852 
L 129.274767 254.562077 
L 129.601689 254.442029 
L 129.928611 254.319673 
L 130.255533 254.194973 
L 130.582456 254.067895 
L 130.909378 253.938401 
L 131.2363 253.806456 
L 131.563223 253.672023 
L 131.890145 253.535066 
L 132.217067 253.395546 
L 132.543989 253.253426 
L 132.870912 253.10867 
L 133.197834 252.961237 
L 133.524756 252.81109 
L 133.851678 252.658191 
L 134.178601 252.502499 
L 134.505523 252.343977 
L 134.832445 252.182583 
L 135.159367 252.018278 
L 135.48629 251.851023 
L 135.813212 251.680776 
L 136.140134 251.507496 
L 136.467056 251.331144 
L 136.793979 251.151677 
L 137.120901 250.969053 
L 137.447823 250.783232 
L 137.774745 250.594172 
L 138.101668 250.401829 
L 138.42859 250.206161 
L 138.755512 250.007126 
L 139.082435 249.804681 
L 139.409357 249.598783 
L 139.736279 249.389388 
L 140.063201 249.176453 
L 140.390124 248.959934 
L 140.717046 248.739787 
L 141.043968 248.515968 
L 141.37089 248.288433 
L 141.697813 248.057137 
L 142.024735 247.822036 
L 142.351657 247.583085 
L 142.678579 247.340239 
L 143.005502 247.093454 
L 143.332424 246.842684 
L 143.659346 246.587884 
L 143.986268 246.329009 
L 144.313191 246.066013 
L 144.640113 245.798851 
L 144.967035 245.527477 
L 145.293957 245.251846 
L 145.62088 244.971913 
L 145.947802 244.687631 
L 146.274724 244.398955 
L 146.601647 244.105839 
L 146.928569 243.808238 
L 147.255491 243.506105 
L 147.582413 243.199396 
L 147.909336 242.888064 
L 148.236258 242.572065 
L 148.56318 242.251352 
L 148.890102 241.92588 
L 149.217025 241.595604 
L 149.543947 241.260478 
L 149.870869 240.920458 
L 150.197791 240.575498 
L 150.524714 240.225554 
L 150.851636 239.87058 
L 151.178558 239.510534 
L 151.50548 239.145369 
L 151.832403 238.775041 
L 152.159325 238.399508 
L 152.486247 238.018725 
L 152.81317 237.632649 
L 153.140092 237.241237 
L 153.467014 236.844445 
L 153.793936 236.442231 
L 154.120859 236.034553 
L 154.447781 235.621369 
L 154.774703 235.202637 
L 155.101625 234.778316 
L 155.428548 234.348365 
L 155.75547 233.912743 
L 156.082392 233.471411 
L 156.409314 233.024328 
L 156.736237 232.571456 
L 157.063159 232.112755 
L 157.390081 231.648188 
L 157.717003 231.177716 
L 158.043926 230.701303 
L 158.370848 230.218911 
L 158.69777 229.730504 
L 159.024692 229.236048 
L 159.351615 228.735506 
L 159.678537 228.228844 
L 160.005459 227.716029 
L 160.332382 227.197027 
L 160.659304 226.671806 
L 160.986226 226.140334 
L 161.313148 225.60258 
L 161.313148 259.96 
L 161.313148 259.96 
L 160.986226 259.96 
L 160.659304 259.96 
L 160.332382 259.96 
L 160.005459 259.96 
L 159.678537 259.96 
L 159.351615 259.96 
L 159.024692 259.96 
L 158.69777 259.96 
L 158.370848 259.96 
L 158.043926 259.96 
L 157.717003 259.96 
L 157.390081 259.96 
L 157.063159 259.96 
L 156.736237 259.96 
L 156.409314 259.96 
L 156.082392 259.96 
L 155.75547 259.96 
L 155.428548 259.96 
L 155.101625 259.96 
L 154.774703 259.96 
L 154.447781 259.96 
L 154.120859 259.96 
L 153.793936 259.96 
L 153.467014 259.96 
L 153.140092 259.96 
L 152.81317 259.96 
L 152.486247 259.96 
L 152.159325 259.96 
L 151.832403 259.96 
L 151.50548 259.96 
L 151.178558 259.96 
L 150.851636 259.96 
L 150.524714 259.96 
L 150.197791 259.96 
L 149.870869 259.96 
L 149.543947 259.96 
L 149.217025 259.96 
L 148.890102 259.96 
L 148.56318 259.96 
L 148.236258 259.96 
L 147.909336 259.96 
L 147.582413 259.96 
L 147.255491 259.96 
L 146.928569 259.96 
L 146.601647 259.96 
L 146.274724 259.96 
L 145.947802 259.96 
L 145.62088 259.96 
L 145.293957 259.96 
L 144.967035 259.96 
L 144.640113 259.96 
L 144.313191 259.96 
L 143.986268 259.96 
L 143.659346 259.96 
L 143.332424 259.96 
L 143.005502 259.96 
L 142.678579 259.96 
L 142.351657 259.96 
L 142.024735 259.96 
L 141.697813 259.96 
L 141.37089 259.96 
L 141.043968 259.96 
L 140.717046 259.96 
L 140.390124 259.96 
L 140.063201 259.96 
L 139.736279 259.96 
L 139.409357 259.96 
L 139.082435 259.96 
L 138.755512 259.96 
L 138.42859 259.96 
L 138.101668 259.96 
L 137.774745 259.96 
L 137.447823 259.96 
L 137.120901 259.96 
L 136.793979 259.96 
L 136.467056 259.96 
L 136.140134 259.96 
L 135.813212 259.96 
L 135.48629 259.96 
L 135.159367 259.96 
L 134.832445 259.96 
L 134.505523 259.96 
L 134.178601 259.96 
L 133.851678 259.96 
L 133.524756 259.96 
L 133.197834 259.96 
L 132.870912 259.96 
L 132.543989 259.96 
L 132.217067 259.96 
L 131.890145 259.96 
L 131.563223 259.96 
L 131.2363 259.96 
L 130.909378 259.96 
L 130.582456 259.96 
L 130.255533 259.96 
L 129.928611 259.96 
L 129.601689 259.96 
L 129.274767 259.96 
L 128.947844 259.96 
L 128.620922 259.96 
L 128.294 259.96 
L 127.967078 259.96 
L 127.640155 259.96 
L 127.313233 259.96 
L 126.986311 259.96 
L 126.659389 259.96 
L 126.332466 259.96 
L 126.005544 259.96 
L 125.678622 259.96 
L 125.3517 259.96 
L 125.024777 259.96 
L 124.697855 259.96 
L 124.370933 259.96 
L 124.044011 259.96 
L 123.717088 259.96 
L 123.390166 259.96 
L 123.063244 259.96 
L 122.736321 259.96 
L 122.409399 259.96 
L 122.082477 259.96 
L 121.755555 259.96 
L 121.428632 259.96 
L 121.10171 259.96 
L 120.774788 259.96 
L 120.447866 259.96 
L 120.120943 259.96 
L 119.794021 259.96 
L 119.467099 259.96 
L 119.140177 259.96 
L 118.813254 259.96 
L 118.486332 259.96 
L 118.15941 259.96 
L 117.832488 259.96 
L 117.505565 259.96 
L 117.178643 259.96 
L 116.851721 259.96 
L 116.524798 259.96 
L 116.197876 259.96 
L 115.870954 259.96 
L 115.544032 259.96 
L 115.217109 259.96 
L 114.890187 259.96 
L 114.563265 259.96 
L 114.236343 259.96 
L 113.90942 259.96 
L 113.582498 259.96 
L 113.255576 259.96 
L 112.928654 259.96 
L 112.601731 259.96 
L 112.274809 259.96 
L 111.947887 259.96 
L 111.620965 259.96 
L 111.294042 259.96 
L 110.96712 259.96 
L 110.640198 259.96 
L 110.313276 259.96 
L 109.986353 259.96 
L 109.659431 259.96 
L 109.332509 259.96 
L 109.005586 259.96 
L 108.678664 259.96 
L 108.351742 259.96 
L 108.02482 259.96 
L 107.697897 259.96 
L 107.370975 259.96 
L 107.044053 259.96 
L 106.717131 259.96 
L 106.390208 259.96 
L 106.063286 259.96 
L 105.736364 259.96 
L 105.409442 259.96 
L 105.082519 259.96 
L 104.755597 259.96 
L 104.428675 259.96 
L 104.101753 259.96 
L 103.77483 259.96 
L 103.447908 259.96 
L 103.120986 259.96 
L 102.794064 259.96 
L 102.467141 259.96 
L 102.140219 259.96 
L 101.813297 259.96 
L 101.486374 259.96 
L 101.159452 259.96 
L 100.83253 259.96 
L 100.505608 259.96 
L 100.178685 259.96 
L 99.851763 259.96 
L 99.524841 259.96 
L 99.197919 259.96 
L 98.870996 259.96 
L 98.544074 259.96 
L 98.217152 259.96 
L 97.89023 259.96 
L 97.563307 259.96 
L 97.236385 259.96 
L 96.909463 259.96 
L 96.582541 259.96 
L 96.255618 259.96 
L 95.928696 259.96 
L 95.601774 259.96 
L 95.274852 259.96 
L 94.947929 259.96 
L 94.621007 259.96 
L 94.294085 259.96 
L 93.967162 259.96 
L 93.64024 259.96 
L 93.313318 259.96 
L 92.986396 259.96 
L 92.659473 259.96 
L 92.332551 259.96 
L 92.005629 259.96 
L 91.678707 259.96 
L 91.351784 259.96 
L 91.024862 259.96 
L 90.69794 259.96 
L 90.371018 259.96 
L 90.044095 259.96 
L 89.717173 259.96 
L 89.390251 259.96 
L 89.063329 259.96 
L 88.736406 259.96 
L 88.409484 259.96 
L 88.082562 259.96 
L 87.755639 259.96 
L 87.428717 259.96 
L 87.101795 259.96 
L 86.774873 259.96 
L 86.44795 259.96 
L 86.121028 259.96 
L 85.794106 259.96 
L 85.467184 259.96 
L 85.140261 259.96 
L 84.813339 259.96 
L 84.486417 259.96 
L 84.159495 259.96 
L 83.832572 259.96 
L 83.50565 259.96 
L 83.178728 259.96 
L 82.851806 259.96 
L 82.524883 259.96 
L 82.197961 259.96 
L 81.871039 259.96 
L 81.544117 259.96 
L 81.217194 259.96 
L 80.890272 259.96 
L 80.56335 259.96 
L 80.236427 259.96 
L 79.909505 259.96 
L 79.582583 259.96 
L 79.255661 259.96 
L 78.928738 259.96 
L 78.601816 259.96 
L 78.274894 259.96 
z
" clip-path="url(#p3b322f938f)" style="fill: #00a8e8; fill-opacity: 0.25; stroke: #00a8e8; stroke-opacity: 0.25"/>
    <path d="M 321.831979 259.96 
L 321.831979 225.60258 
L 322.158901 226.140334 
L 322.485823 226.671806 
L 322.812745 227.197027 
L 323.139668 227.716029 
L 323.46659 228.228844 
L 323.793512 228.735506 
L 324.120434 229.236048 
L 324.447357 229.730504 
L 324.774279 230.218911 
L 325.101201 230.701303 
L 325.428124 231.177716 
L 325.755046 231.648188 
L 326.081968 232.112755 
L 326.40889 232.571456 
L 326.735813 233.024328 
L 327.062735 233.471411 
L 327.389657 233.912743 
L 327.716579 234.348365 
L 328.043502 234.778316 
L 328.370424 235.202637 
L 328.697346 235.621369 
L 329.024268 236.034553 
L 329.351191 236.442231 
L 329.678113 236.844445 
L 330.005035 237.241237 
L 330.331957 237.632649 
L 330.65888 238.018725 
L 330.985802 238.399508 
L 331.312724 238.775041 
L 331.639646 239.145369 
L 331.966569 239.510534 
L 332.293491 239.87058 
L 332.620413 240.225554 
L 332.947336 240.575498 
L 333.274258 240.920458 
L 333.60118 241.260478 
L 333.928102 241.595604 
L 334.255025 241.92588 
L 334.581947 242.251352 
L 334.908869 242.572065 
L 335.235791 242.888064 
L 335.562714 243.199396 
L 335.889636 243.506105 
L 336.216558 243.808238 
L 336.54348 244.105839 
L 336.870403 244.398955 
L 337.197325 244.687631 
L 337.524247 244.971913 
L 337.851169 245.251846 
L 338.178092 245.527477 
L 338.505014 245.798851 
L 338.831936 246.066013 
L 339.158859 246.329009 
L 339.485781 246.587884 
L 339.812703 246.842684 
L 340.139625 247.093454 
L 340.466548 247.340239 
L 340.79347 247.583085 
L 341.120392 247.822036 
L 341.447314 248.057137 
L 341.774237 248.288433 
L 342.101159 248.515968 
L 342.428081 248.739787 
L 342.755003 248.959934 
L 343.081926 249.176453 
L 343.408848 249.389388 
L 343.73577 249.598783 
L 344.062692 249.804681 
L 344.389615 250.007126 
L 344.716537 250.206161 
L 345.043459 250.401829 
L 345.370381 250.594172 
L 345.697304 250.783232 
L 346.024226 250.969053 
L 346.351148 251.151677 
L 346.678071 251.331144 
L 347.004993 251.507496 
L 347.331915 251.680776 
L 347.658837 251.851023 
L 347.98576 252.018278 
L 348.312682 252.182583 
L 348.639604 252.343977 
L 348.966526 252.502499 
L 349.293449 252.658191 
L 349.620371 252.81109 
L 349.947293 252.961237 
L 350.274215 253.10867 
L 350.601138 253.253426 
L 350.92806 253.395546 
L 351.254982 253.535066 
L 351.581904 253.672023 
L 351.908827 253.806456 
L 352.235749 253.938401 
L 352.562671 254.067895 
L 352.889593 254.194973 
L 353.216516 254.319673 
L 353.543438 254.442029 
L 353.87036 254.562077 
L 354.197283 254.679852 
L 354.524205 254.795388 
L 354.851127 254.908721 
L 355.178049 255.019883 
L 355.504972 255.128908 
L 355.831894 255.235831 
L 356.158816 255.340683 
L 356.485738 255.443498 
L 356.812661 255.544307 
L 357.139583 255.643143 
L 357.466505 255.740038 
L 357.793427 255.835022 
L 358.12035 255.928127 
L 358.447272 256.019383 
L 358.774194 256.108821 
L 359.101116 256.19647 
L 359.428039 256.28236 
L 359.754961 256.366521 
L 360.081883 256.44898 
L 360.408805 256.529768 
L 360.735728 256.608911 
L 361.06265 256.686439 
L 361.389572 256.762378 
L 361.716495 256.836755 
L 362.043417 256.909598 
L 362.370339 256.980933 
L 362.697261 257.050787 
L 363.024184 257.119185 
L 363.351106 257.186152 
L 363.678028 257.251715 
L 364.00495 257.315898 
L 364.331873 257.378725 
L 364.658795 257.440221 
L 364.985717 257.500409 
L 365.312639 257.559314 
L 365.639562 257.616958 
L 365.966484 257.673365 
L 366.293406 257.728557 
L 366.620328 257.782557 
L 366.947251 257.835386 
L 367.274173 257.887066 
L 367.601095 257.937619 
L 367.928018 257.987065 
L 368.25494 258.035426 
L 368.581862 258.082722 
L 368.908784 258.128973 
L 369.235707 258.174199 
L 369.562629 258.21842 
L 369.889551 258.261654 
L 370.216473 258.303922 
L 370.543396 258.345241 
L 370.870318 258.38563 
L 371.19724 258.425107 
L 371.524162 258.463691 
L 371.851085 258.501398 
L 372.178007 258.538246 
L 372.504929 258.574252 
L 372.831851 258.609433 
L 373.158774 258.643805 
L 373.485696 258.677384 
L 373.812618 258.710187 
L 374.13954 258.742229 
L 374.466463 258.773526 
L 374.793385 258.804093 
L 375.120307 258.833944 
L 375.44723 258.863095 
L 375.774152 258.891559 
L 376.101074 258.919352 
L 376.427996 258.946487 
L 376.754919 258.972977 
L 377.081841 258.998837 
L 377.408763 259.024079 
L 377.735685 259.048717 
L 378.062608 259.072763 
L 378.38953 259.09623 
L 378.716452 259.11913 
L 379.043374 259.141476 
L 379.370297 259.163279 
L 379.697219 259.184551 
L 380.024141 259.205303 
L 380.351063 259.225547 
L 380.677986 259.245294 
L 381.004908 259.264554 
L 381.33183 259.283339 
L 381.658752 259.301659 
L 381.985675 259.319523 
L 382.312597 259.336943 
L 382.639519 259.353928 
L 382.966442 259.370488 
L 383.293364 259.386632 
L 383.620286 259.40237 
L 383.947208 259.417711 
L 384.274131 259.432663 
L 384.601053 259.447236 
L 384.927975 259.461438 
L 385.254897 259.475278 
L 385.58182 259.488764 
L 385.908742 259.501904 
L 386.235664 259.514706 
L 386.562586 259.527179 
L 386.889509 259.539329 
L 387.216431 259.551164 
L 387.543353 259.562691 
L 387.870275 259.573918 
L 388.197198 259.584852 
L 388.52412 259.5955 
L 388.851042 259.605869 
L 389.177964 259.615964 
L 389.504887 259.625793 
L 389.831809 259.635362 
L 390.158731 259.644677 
L 390.485654 259.653745 
L 390.812576 259.662571 
L 391.139498 259.671161 
L 391.46642 259.679521 
L 391.793343 259.687657 
L 392.120265 259.695573 
L 392.447187 259.703276 
L 392.774109 259.710771 
L 393.101032 259.718062 
L 393.427954 259.725155 
L 393.754876 259.732054 
L 394.081798 259.738765 
L 394.408721 259.745293 
L 394.735643 259.751641 
L 395.062565 259.757814 
L 395.389487 259.763817 
L 395.71641 259.769654 
L 396.043332 259.775329 
L 396.370254 259.780847 
L 396.697177 259.78621 
L 397.024099 259.791424 
L 397.351021 259.796492 
L 397.677943 259.801418 
L 398.004866 259.806206 
L 398.331788 259.810858 
L 398.65871 259.815379 
L 398.985632 259.819772 
L 399.312555 259.82404 
L 399.639477 259.828186 
L 399.966399 259.832215 
L 400.293321 259.836128 
L 400.620244 259.839929 
L 400.947166 259.843621 
L 401.274088 259.847207 
L 401.60101 259.850689 
L 401.927933 259.85407 
L 402.254855 259.857354 
L 402.581777 259.860542 
L 402.908699 259.863637 
L 403.235622 259.866642 
L 403.562544 259.869559 
L 403.889466 259.87239 
L 404.216389 259.875139 
L 404.543311 259.877806 
L 404.870233 259.880394 
L 404.870233 259.96 
L 404.870233 259.96 
L 404.543311 259.96 
L 404.216389 259.96 
L 403.889466 259.96 
L 403.562544 259.96 
L 403.235622 259.96 
L 402.908699 259.96 
L 402.581777 259.96 
L 402.254855 259.96 
L 401.927933 259.96 
L 401.60101 259.96 
L 401.274088 259.96 
L 400.947166 259.96 
L 400.620244 259.96 
L 400.293321 259.96 
L 399.966399 259.96 
L 399.639477 259.96 
L 399.312555 259.96 
L 398.985632 259.96 
L 398.65871 259.96 
L 398.331788 259.96 
L 398.004866 259.96 
L 397.677943 259.96 
L 397.351021 259.96 
L 397.024099 259.96 
L 396.697177 259.96 
L 396.370254 259.96 
L 396.043332 259.96 
L 395.71641 259.96 
L 395.389487 259.96 
L 395.062565 259.96 
L 394.735643 259.96 
L 394.408721 259.96 
L 394.081798 259.96 
L 393.754876 259.96 
L 393.427954 259.96 
L 393.101032 259.96 
L 392.774109 259.96 
L 392.447187 259.96 
L 392.120265 259.96 
L 391.793343 259.96 
L 391.46642 259.96 
L 391.139498 259.96 
L 390.812576 259.96 
L 390.485654 259.96 
L 390.158731 259.96 
L 389.831809 259.96 
L 389.504887 259.96 
L 389.177964 259.96 
L 388.851042 259.96 
L 388.52412 259.96 
L 388.197198 259.96 
L 387.870275 259.96 
L 387.543353 259.96 
L 387.216431 259.96 
L 386.889509 259.96 
L 386.562586 259.96 
L 386.235664 259.96 
L 385.908742 259.96 
L 385.58182 259.96 
L 385.254897 259.96 
L 384.927975 259.96 
L 384.601053 259.96 
L 384.274131 259.96 
L 383.947208 259.96 
L 383.620286 259.96 
L 383.293364 259.96 
L 382.966442 259.96 
L 382.639519 259.96 
L 382.312597 259.96 
L 381.985675 259.96 
L 381.658752 259.96 
L 381.33183 259.96 
L 381.004908 259.96 
L 380.677986 259.96 
L 380.351063 259.96 
L 380.024141 259.96 
L 379.697219 259.96 
L 379.370297 259.96 
L 379.043374 259.96 
L 378.716452 259.96 
L 378.38953 259.96 
L 378.062608 259.96 
L 377.735685 259.96 
L 377.408763 259.96 
L 377.081841 259.96 
L 376.754919 259.96 
L 376.427996 259.96 
L 376.101074 259.96 
L 375.774152 259.96 
L 375.44723 259.96 
L 375.120307 259.96 
L 374.793385 259.96 
L 374.466463 259.96 
L 374.13954 259.96 
L 373.812618 259.96 
L 373.485696 259.96 
L 373.158774 259.96 
L 372.831851 259.96 
L 372.504929 259.96 
L 372.178007 259.96 
L 371.851085 259.96 
L 371.524162 259.96 
L 371.19724 259.96 
L 370.870318 259.96 
L 370.543396 259.96 
L 370.216473 259.96 
L 369.889551 259.96 
L 369.562629 259.96 
L 369.235707 259.96 
L 368.908784 259.96 
L 368.581862 259.96 
L 368.25494 259.96 
L 367.928018 259.96 
L 367.601095 259.96 
L 367.274173 259.96 
L 366.947251 259.96 
L 366.620328 259.96 
L 366.293406 259.96 
L 365.966484 259.96 
L 365.639562 259.96 
L 365.312639 259.96 
L 364.985717 259.96 
L 364.658795 259.96 
L 364.331873 259.96 
L 364.00495 259.96 
L 363.678028 259.96 
L 363.351106 259.96 
L 363.024184 259.96 
L 362.697261 259.96 
L 362.370339 259.96 
L 362.043417 259.96 
L 361.716495 259.96 
L 361.389572 259.96 
L 361.06265 259.96 
L 360.735728 259.96 
L 360.408805 259.96 
L 360.081883 259.96 
L 359.754961 259.96 
L 359.428039 259.96 
L 359.101116 259.96 
L 358.774194 259.96 
L 358.447272 259.96 
L 358.12035 259.96 
L 357.793427 259.96 
L 357.466505 259.96 
L 357.139583 259.96 
L 356.812661 259.96 
L 356.485738 259.96 
L 356.158816 259.96 
L 355.831894 259.96 
L 355.504972 259.96 
L 355.178049 259.96 
L 354.851127 259.96 
L 354.524205 259.96 
L 354.197283 259.96 
L 353.87036 259.96 
L 353.543438 259.96 
L 353.216516 259.96 
L 352.889593 259.96 
L 352.562671 259.96 
L 352.235749 259.96 
L 351.908827 259.96 
L 351.581904 259.96 
L 351.254982 259.96 
L 350.92806 259.96 
L 350.601138 259.96 
L 350.274215 259.96 
L 349.947293 259.96 
L 349.620371 259.96 
L 349.293449 259.96 
L 348.966526 259.96 
L 348.639604 259.96 
L 348.312682 259.96 
L 347.98576 259.96 
L 347.658837 259.96 
L 347.331915 259.96 
L 347.004993 259.96 
L 346.678071 259.96 
L 346.351148 259.96 
L 346.024226 259.96 
L 345.697304 259.96 
L 345.370381 259.96 
L 345.043459 259.96 
L 344.716537 259.96 
L 344.389615 259.96 
L 344.062692 259.96 
L 343.73577 259.96 
L 343.408848 259.96 
L 343.081926 259.96 
L 342.755003 259.96 
L 342.428081 259.96 
L 342.101159 259.96 
L 341.774237 259.96 
L 341.447314 259.96 
L 341.120392 259.96 
L 340.79347 259.96 
L 340.466548 259.96 
L 340.139625 259.96 
L 339.812703 259.96 
L 339.485781 259.96 
L 339.158859 259.96 
L 338.831936 259.96 
L 338.505014 259.96 
L 338.178092 259.96 
L 337.851169 259.96 
L 337.524247 259.96 
L 337.197325 259.96 
L 336.870403 259.96 
L 336.54348 259.96 
L 336.216558 259.96 
L 335.889636 259.96 
L 335.562714 259.96 
L 335.235791 259.96 
L 334.908869 259.96 
L 334.581947 259.96 
L 334.255025 259.96 
L 333.928102 259.96 
L 333.60118 259.96 
L 333.274258 259.96 
L 332.947336 259.96 
L 332.620413 259.96 
L 332.293491 259.96 
L 331.966569 259.96 
L 331.639646 259.96 
L 331.312724 259.96 
L 330.985802 259.96 
L 330.65888 259.96 
L 330.331957 259.96 
L 330.005035 259.96 
L 329.678113 259.96 
L 329.351191 259.96 
L 329.024268 259.96 
L 328.697346 259.96 
L 328.370424 259.96 
L 328.043502 259.96 
L 327.716579 259.96 
L 327.389657 259.96 
L 327.062735 259.96 
L 326.735813 259.96 
L 326.40889 259.96 
L 326.081968 259.96 
L 325.755046 259.96 
L 325.428124 259.96 
L 325.101201 259.96 
L 324.774279 259.96 
L 324.447357 259.96 
L 324.120434 259.96 
L 323.793512 259.96 
L 323.46659 259.96 
L 323.139668 259.96 
L 322.812745 259.96 
L 322.485823 259.96 
L 322.158901 259.96 
L 321.831979 259.96 
z
" clip-path="url(#p3b322f938f)" style="fill: #00a8e8; fill-opacity: 0.25; stroke: #00a8e8; stroke-opacity: 0.25"/>
   </g>
   <g id="matplotlib.axis_4"/>
   <g id="patch_7">
    <path d="M 61.945127 259.96 
L 421.2 259.96 
" style="fill: none; stroke: #030303; stroke-width: 1.5; stroke-linejoin: miter; stroke-linecap: square"/>
   </g>
   <g id="patch_8">
    <path d="M 125.986996 236.335407 
Q 129.71727 241.718834 133.447543 247.102261 
L 136.735372 244.824065 
Q 137.687391 251.465317 138.639409 258.106568 
Q 132.755646 254.882611 126.871884 251.658653 
L 130.159714 249.380457 
Q 126.42944 243.99703 122.699167 238.613603 
L 125.986996 236.335407 
z
" style="stroke: #000000; stroke-linecap: round"/>
   </g>
   <g id="text_22">
    <!-- $\frac{\alpha}{2} = 0.025$ -->
    <g style="fill: #030303" transform="translate(75.287103 230.218739) scale(0.1 -0.1)">
     <defs>
      <path id="DejaVuSans-32" d="M 1228 531 
L 3431 531 
L 3431 0 
L 469 0 
L 469 531 
Q 828 903 1448 1529 
Q 2069 2156 2228 2338 
Q 2531 2678 2651 2914 
Q 2772 3150 2772 3378 
Q 2772 3750 2511 3984 
Q 2250 4219 1831 4219 
Q 1534 4219 1204 4116 
Q 875 4013 500 3803 
L 500 4441 
Q 881 4594 1212 4672 
Q 1544 4750 1819 4750 
Q 2544 4750 2975 4387 
Q 3406 4025 3406 3419 
Q 3406 3131 3298 2873 
Q 3191 2616 2906 2266 
Q 2828 2175 2409 1742 
Q 1991 1309 1228 531 
z
" transform="scale(0.015625)"/>
     </defs>
     <use xlink:href="#DejaVuSans-Oblique-3b1" transform="translate(0 44.690625) scale(0.7)"/>
     <use xlink:href="#DejaVuSans-32" transform="translate(1 -39.398438) scale(0.7)"/>
     <use xlink:href="#DejaVuSans-3d" transform="translate(78.125 0.007812)"/>
     <use xlink:href="#DejaVuSans-30" transform="translate(181.396484 0.007812)"/>
     <use xlink:href="#DejaVuSans-2e" transform="translate(245.019531 0.007812)"/>
     <use xlink:href="#DejaVuSans-30" transform="translate(276.806641 0.007812)"/>
     <use xlink:href="#DejaVuSans-32" transform="translate(340.429688 0.007812)"/>
     <use xlink:href="#DejaVuSans-35" transform="translate(404.052734 0.007812)"/>
     <path d="M 0 18.804688 
L 0 25.054688 
L 46.142578 25.054688 
L 46.142578 18.804688 
L 0 18.804688 
z
"/>
    </g>
   </g>
   <g id="patch_9">
    <path d="M 360.44596 238.613603 
Q 356.715687 243.99703 352.985413 249.380457 
L 356.273243 251.658653 
Q 350.38948 254.882611 344.505718 258.106568 
Q 345.457736 251.465317 346.409754 244.824065 
L 349.697584 247.102261 
Q 353.427857 241.718834 357.158131 236.335407 
L 360.44596 238.613603 
z
" style="stroke: #000000; stroke-linecap: round"/>
   </g>
   <g id="text_23">
    <!-- $\frac{\alpha}{2} = 0.025$ -->
    <g style="fill: #030303" transform="translate(361.058024 230.218739) scale(0.1 -0.1)">
     <use xlink:href="#DejaVuSans-Oblique-3b1" transform="translate(0 44.690625) scale(0.7)"/>
     <use xlink:href="#DejaVuSans-32" transform="translate(1 -39.398438) scale(0.7)"/>
     <use xlink:href="#DejaVuSans-3d" transform="translate(78.125 0.007812)"/>
     <use xlink:href="#DejaVuSans-30" transform="translate(181.396484 0.007812)"/>
     <use xlink:href="#DejaVuSans-2e" transform="translate(245.019531 0.007812)"/>
     <use xlink:href="#DejaVuSans-30" transform="translate(276.806641 0.007812)"/>
     <use xlink:href="#DejaVuSans-32" transform="translate(340.429688 0.007812)"/>
     <use xlink:href="#DejaVuSans-35" transform="translate(404.052734 0.007812)"/>
     <path d="M 0 18.804688 
L 0 25.054688 
L 46.142578 25.054688 
L 46.142578 18.804688 
L 0 18.804688 
z
"/>
    </g>
   </g>
  </g>
 </g>
 <defs>
  <clipPath id="p3b322f938f">
   <rect x="61.945127" y="10.8" width="359.254873" height="249.16"/>
  </clipPath>
 </defs>
</svg>
