<?xml version="1.0" encoding="utf-8" standalone="no"?>
<!DOCTYPE svg PUBLIC "-//W3C//DTD SVG 1.1//EN"
  "http://www.w3.org/Graphics/SVG/1.1/DTD/svg11.dtd">
<svg xmlns:xlink="http://www.w3.org/1999/xlink" width="432pt" height="270pt" viewBox="0 0 432 270" xmlns="http://www.w3.org/2000/svg" version="1.1">
 <metadata>
  <rdf:RDF xmlns:dc="http://purl.org/dc/elements/1.1/" xmlns:cc="http://creativecommons.org/ns#" xmlns:rdf="http://www.w3.org/1999/02/22-rdf-syntax-ns#">
   <cc:Work>
    <dc:type rdf:resource="http://purl.org/dc/dcmitype/StillImage"/>
    <dc:date>2025-01-23T06:22:56.956257</dc:date>
    <dc:format>image/svg+xml</dc:format>
    <dc:creator>
     <cc:Agent>
      <dc:title>Matplotlib v3.10.0, https://matplotlib.org/</dc:title>
     </cc:Agent>
    </dc:creator>
   </cc:Work>
  </rdf:RDF>
 </metadata>
 <defs>
  <style type="text/css">*{stroke-linejoin: round; stroke-linecap: butt}</style>
 </defs>
 <g id="figure_1">
  <g id="patch_1">
   <path d="M 0 270 
L 432 270 
L 432 0 
L 0 0 
L 0 270 
z
" style="fill: none"/>
  </g>
  <g id="axes_1">
   <g id="patch_2">
    <path d="M 54 240.3 
L 388.8 240.3 
L 388.8 32.4 
L 54 32.4 
L 54 240.3 
z
" style="fill: none"/>
   </g>
   <g id="matplotlib.axis_1">
    <g id="xtick_1">
     <g id="line2d_1">
      <defs>
       <path id="m511d48fade" d="M 0 0 
L 0 3.5 
" style="stroke: #030303; stroke-width: 0.8"/>
      </defs>
      <g>
       <use xlink:href="#m511d48fade" x="94.581818" y="240.3" style="fill: #030303; stroke: #030303; stroke-width: 0.8"/>
      </g>
     </g>
     <g id="text_1">
      <!-- $\mathdefault{20}$ -->
      <g style="fill: #030303" transform="translate(86.261818 257.177969) scale(0.13 -0.13)">
       <defs>
        <path id="DejaVuSerif-32" d="M 819 3553 
L 469 3553 
L 469 4384 
Q 803 4563 1142 4656 
Q 1481 4750 1806 4750 
Q 2534 4750 2956 4397 
Q 3378 4044 3378 3438 
Q 3378 2753 2422 1800 
Q 2347 1728 2309 1691 
L 1131 513 
L 3078 513 
L 3078 1088 
L 3444 1088 
L 3444 0 
L 434 0 
L 434 341 
L 1850 1753 
Q 2319 2222 2519 2614 
Q 2719 3006 2719 3438 
Q 2719 3909 2473 4175 
Q 2228 4441 1797 4441 
Q 1350 4441 1106 4219 
Q 863 3997 819 3553 
z
" transform="scale(0.015625)"/>
        <path id="DejaVuSerif-30" d="M 2034 219 
Q 2513 219 2750 744 
Q 2988 1269 2988 2328 
Q 2988 3391 2750 3916 
Q 2513 4441 2034 4441 
Q 1556 4441 1318 3916 
Q 1081 3391 1081 2328 
Q 1081 1269 1318 744 
Q 1556 219 2034 219 
z
M 2034 -91 
Q 1275 -91 848 546 
Q 422 1184 422 2328 
Q 422 3475 848 4112 
Q 1275 4750 2034 4750 
Q 2797 4750 3222 4112 
Q 3647 3475 3647 2328 
Q 3647 1184 3222 546 
Q 2797 -91 2034 -91 
z
" transform="scale(0.015625)"/>
       </defs>
       <use xlink:href="#DejaVuSerif-32" transform="translate(0 0.78125)"/>
       <use xlink:href="#DejaVuSerif-30" transform="translate(63.623047 0.78125)"/>
      </g>
     </g>
    </g>
    <g id="xtick_2">
     <g id="line2d_2">
      <g>
       <use xlink:href="#m511d48fade" x="145.309091" y="240.3" style="fill: #030303; stroke: #030303; stroke-width: 0.8"/>
      </g>
     </g>
     <g id="text_2">
      <!-- $\mathdefault{30}$ -->
      <g style="fill: #030303" transform="translate(136.989091 257.177969) scale(0.13 -0.13)">
       <defs>
        <path id="DejaVuSerif-33" d="M 622 4469 
Q 988 4606 1323 4678 
Q 1659 4750 1953 4750 
Q 2638 4750 3022 4454 
Q 3406 4159 3406 3634 
Q 3406 3213 3140 2930 
Q 2875 2647 2388 2547 
Q 2963 2466 3280 2130 
Q 3597 1794 3597 1259 
Q 3597 606 3158 257 
Q 2719 -91 1894 -91 
Q 1528 -91 1179 -12 
Q 831 66 488 225 
L 488 1131 
L 838 1131 
Q 869 681 1141 450 
Q 1413 219 1906 219 
Q 2384 219 2661 495 
Q 2938 772 2938 1253 
Q 2938 1803 2653 2086 
Q 2369 2369 1819 2369 
L 1522 2369 
L 1522 2688 
L 1678 2688 
Q 2225 2688 2498 2914 
Q 2772 3141 2772 3597 
Q 2772 4006 2547 4223 
Q 2322 4441 1900 4441 
Q 1478 4441 1245 4241 
Q 1013 4041 972 3647 
L 622 3647 
L 622 4469 
z
" transform="scale(0.015625)"/>
       </defs>
       <use xlink:href="#DejaVuSerif-33" transform="translate(0 0.78125)"/>
       <use xlink:href="#DejaVuSerif-30" transform="translate(63.623047 0.78125)"/>
      </g>
     </g>
    </g>
    <g id="xtick_3">
     <g id="line2d_3">
      <g>
       <use xlink:href="#m511d48fade" x="196.036364" y="240.3" style="fill: #030303; stroke: #030303; stroke-width: 0.8"/>
      </g>
     </g>
     <g id="text_3">
      <!-- $\mathdefault{40}$ -->
      <g style="fill: #030303" transform="translate(187.716364 257.177969) scale(0.13 -0.13)">
       <defs>
        <path id="DejaVuSerif-34" d="M 2234 1581 
L 2234 4063 
L 641 1581 
L 2234 1581 
z
M 3609 0 
L 1484 0 
L 1484 331 
L 2234 331 
L 2234 1247 
L 197 1247 
L 197 1588 
L 2241 4750 
L 2859 4750 
L 2859 1581 
L 3750 1581 
L 3750 1247 
L 2859 1247 
L 2859 331 
L 3609 331 
L 3609 0 
z
" transform="scale(0.015625)"/>
       </defs>
       <use xlink:href="#DejaVuSerif-34" transform="translate(0 0.78125)"/>
       <use xlink:href="#DejaVuSerif-30" transform="translate(63.623047 0.78125)"/>
      </g>
     </g>
    </g>
    <g id="xtick_4">
     <g id="line2d_4">
      <g>
       <use xlink:href="#m511d48fade" x="246.763636" y="240.3" style="fill: #030303; stroke: #030303; stroke-width: 0.8"/>
      </g>
     </g>
     <g id="text_4">
      <!-- $\mathdefault{50}$ -->
      <g style="fill: #030303" transform="translate(238.443636 257.177969) scale(0.13 -0.13)">
       <defs>
        <path id="DejaVuSerif-35" d="M 3219 4666 
L 3219 4153 
L 1081 4153 
L 1081 2816 
Q 1244 2928 1461 2984 
Q 1678 3041 1947 3041 
Q 2703 3041 3140 2622 
Q 3578 2203 3578 1478 
Q 3578 738 3136 323 
Q 2694 -91 1894 -91 
Q 1572 -91 1234 -12 
Q 897 66 544 225 
L 544 1131 
L 897 1131 
Q 925 688 1179 453 
Q 1434 219 1894 219 
Q 2388 219 2653 544 
Q 2919 869 2919 1478 
Q 2919 2084 2655 2407 
Q 2391 2731 1894 2731 
Q 1613 2731 1398 2631 
Q 1184 2531 1019 2322 
L 750 2322 
L 750 4666 
L 3219 4666 
z
" transform="scale(0.015625)"/>
       </defs>
       <use xlink:href="#DejaVuSerif-35" transform="translate(0 0.78125)"/>
       <use xlink:href="#DejaVuSerif-30" transform="translate(63.623047 0.78125)"/>
      </g>
     </g>
    </g>
    <g id="xtick_5">
     <g id="line2d_5">
      <g>
       <use xlink:href="#m511d48fade" x="297.490909" y="240.3" style="fill: #030303; stroke: #030303; stroke-width: 0.8"/>
      </g>
     </g>
     <g id="text_5">
      <!-- $\mathdefault{60}$ -->
      <g style="fill: #030303" transform="translate(289.170909 257.177969) scale(0.13 -0.13)">
       <defs>
        <path id="DejaVuSerif-36" d="M 2094 219 
Q 2534 219 2771 542 
Q 3009 866 3009 1472 
Q 3009 2078 2771 2401 
Q 2534 2725 2094 2725 
Q 1647 2725 1412 2412 
Q 1178 2100 1178 1509 
Q 1178 888 1415 553 
Q 1653 219 2094 219 
z
M 1075 2569 
Q 1288 2803 1556 2918 
Q 1825 3034 2163 3034 
Q 2859 3034 3264 2615 
Q 3669 2197 3669 1472 
Q 3669 763 3233 336 
Q 2797 -91 2069 -91 
Q 1278 -91 853 498 
Q 428 1088 428 2181 
Q 428 3406 931 4078 
Q 1434 4750 2350 4750 
Q 2597 4750 2869 4703 
Q 3141 4656 3425 4563 
L 3425 3794 
L 3072 3794 
Q 3034 4109 2831 4275 
Q 2628 4441 2284 4441 
Q 1678 4441 1381 3981 
Q 1084 3522 1075 2569 
z
" transform="scale(0.015625)"/>
       </defs>
       <use xlink:href="#DejaVuSerif-36" transform="translate(0 0.78125)"/>
       <use xlink:href="#DejaVuSerif-30" transform="translate(63.623047 0.78125)"/>
      </g>
     </g>
    </g>
    <g id="xtick_6">
     <g id="line2d_6">
      <g>
       <use xlink:href="#m511d48fade" x="348.218182" y="240.3" style="fill: #030303; stroke: #030303; stroke-width: 0.8"/>
      </g>
     </g>
     <g id="text_6">
      <!-- $\mathdefault{70}$ -->
      <g style="fill: #030303" transform="translate(339.898182 257.177969) scale(0.13 -0.13)">
       <defs>
        <path id="DejaVuSerif-37" d="M 3609 4347 
L 1784 0 
L 1319 0 
L 3059 4153 
L 903 4153 
L 903 3578 
L 538 3578 
L 538 4666 
L 3609 4666 
L 3609 4347 
z
" transform="scale(0.015625)"/>
       </defs>
       <use xlink:href="#DejaVuSerif-37" transform="translate(0 0.78125)"/>
       <use xlink:href="#DejaVuSerif-30" transform="translate(63.623047 0.78125)"/>
      </g>
     </g>
    </g>
    <g id="text_7">
     <!-- Young's Modulus (MPa) -->
     <g style="fill: #030303" transform="translate(113.921719 277.55875) scale(0.18 -0.18)">
      <defs>
       <path id="DejaVuSerif-59" d="M 1209 0 
L 1209 331 
L 1806 331 
L 1806 2009 
L 366 4331 
L -72 4331 
L -72 4666 
L 1663 4666 
L 1663 4331 
L 1119 4331 
L 2284 2444 
L 3450 4331 
L 2925 4331 
L 2925 4666 
L 4281 4666 
L 4281 4331 
L 3841 4331 
L 2438 2069 
L 2438 331 
L 3034 331 
L 3034 0 
L 1209 0 
z
" transform="scale(0.015625)"/>
       <path id="DejaVuSerif-6f" d="M 1925 219 
Q 2388 219 2623 584 
Q 2859 950 2859 1663 
Q 2859 2375 2623 2739 
Q 2388 3103 1925 3103 
Q 1463 3103 1227 2739 
Q 991 2375 991 1663 
Q 991 950 1228 584 
Q 1466 219 1925 219 
z
M 1925 -91 
Q 1200 -91 759 389 
Q 319 869 319 1663 
Q 319 2456 758 2934 
Q 1197 3413 1925 3413 
Q 2653 3413 3092 2934 
Q 3531 2456 3531 1663 
Q 3531 869 3092 389 
Q 2653 -91 1925 -91 
z
" transform="scale(0.015625)"/>
       <path id="DejaVuSerif-75" d="M 2266 3322 
L 3341 3322 
L 3341 331 
L 3884 331 
L 3884 0 
L 2766 0 
L 2766 588 
Q 2606 256 2353 82 
Q 2100 -91 1766 -91 
Q 1213 -91 952 223 
Q 691 538 691 1209 
L 691 2988 
L 172 2988 
L 172 3322 
L 1269 3322 
L 1269 1388 
Q 1269 781 1417 556 
Q 1566 331 1947 331 
Q 2347 331 2556 625 
Q 2766 919 2766 1478 
L 2766 2988 
L 2266 2988 
L 2266 3322 
z
" transform="scale(0.015625)"/>
       <path id="DejaVuSerif-6e" d="M 263 0 
L 263 331 
L 781 331 
L 781 2988 
L 231 2988 
L 231 3322 
L 1356 3322 
L 1356 2731 
Q 1516 3069 1770 3241 
Q 2025 3413 2363 3413 
Q 2913 3413 3172 3097 
Q 3431 2781 3431 2113 
L 3431 331 
L 3944 331 
L 3944 0 
L 2356 0 
L 2356 331 
L 2853 331 
L 2853 1931 
Q 2853 2541 2703 2767 
Q 2553 2994 2175 2994 
Q 1775 2994 1565 2701 
Q 1356 2409 1356 1850 
L 1356 331 
L 1856 331 
L 1856 0 
L 263 0 
z
" transform="scale(0.015625)"/>
       <path id="DejaVuSerif-67" d="M 3359 2988 
L 3359 72 
Q 3359 -644 2965 -1033 
Q 2572 -1422 1844 -1422 
Q 1516 -1422 1216 -1362 
Q 916 -1303 641 -1184 
L 641 -488 
L 941 -488 
Q 997 -813 1206 -963 
Q 1416 -1113 1806 -1113 
Q 2313 -1113 2548 -827 
Q 2784 -541 2784 72 
L 2784 519 
Q 2616 206 2355 57 
Q 2094 -91 1709 -91 
Q 1097 -91 708 395 
Q 319 881 319 1663 
Q 319 2444 706 2928 
Q 1094 3413 1709 3413 
Q 2094 3413 2355 3264 
Q 2616 3116 2784 2803 
L 2784 3322 
L 3909 3322 
L 3909 2988 
L 3359 2988 
z
M 2784 1825 
Q 2784 2422 2554 2737 
Q 2325 3053 1888 3053 
Q 1444 3053 1217 2703 
Q 991 2353 991 1663 
Q 991 975 1217 622 
Q 1444 269 1888 269 
Q 2325 269 2554 583 
Q 2784 897 2784 1497 
L 2784 1825 
z
" transform="scale(0.015625)"/>
       <path id="DejaVuSerif-27" d="M 1125 4666 
L 1125 2931 
L 628 2931 
L 628 4666 
L 1125 4666 
z
" transform="scale(0.015625)"/>
       <path id="DejaVuSerif-73" d="M 359 184 
L 359 959 
L 691 959 
Q 703 588 923 403 
Q 1144 219 1575 219 
Q 1963 219 2166 364 
Q 2369 509 2369 788 
Q 2369 1006 2220 1140 
Q 2072 1275 1594 1428 
L 1178 1569 
Q 750 1706 558 1912 
Q 366 2119 366 2438 
Q 366 2894 700 3153 
Q 1034 3413 1625 3413 
Q 1888 3413 2178 3344 
Q 2469 3275 2778 3144 
L 2778 2419 
L 2447 2419 
Q 2434 2741 2221 2922 
Q 2009 3103 1644 3103 
Q 1281 3103 1095 2975 
Q 909 2847 909 2591 
Q 909 2381 1050 2254 
Q 1191 2128 1613 1997 
L 2069 1856 
Q 2541 1709 2748 1489 
Q 2956 1269 2956 922 
Q 2956 450 2595 179 
Q 2234 -91 1600 -91 
Q 1278 -91 972 -22 
Q 666 47 359 184 
z
" transform="scale(0.015625)"/>
       <path id="DejaVuSerif-20" transform="scale(0.015625)"/>
       <path id="DejaVuSerif-4d" d="M 353 0 
L 353 331 
L 947 331 
L 947 4331 
L 319 4331 
L 319 4666 
L 1678 4666 
L 3316 1344 
L 4953 4666 
L 6228 4666 
L 6228 4331 
L 5606 4331 
L 5606 331 
L 6203 331 
L 6203 0 
L 4378 0 
L 4378 331 
L 4972 331 
L 4972 3938 
L 3372 684 
L 2931 684 
L 1331 3938 
L 1331 331 
L 1925 331 
L 1925 0 
L 353 0 
z
" transform="scale(0.015625)"/>
       <path id="DejaVuSerif-64" d="M 3359 331 
L 3909 331 
L 3909 0 
L 2784 0 
L 2784 519 
Q 2616 206 2355 57 
Q 2094 -91 1709 -91 
Q 1097 -91 708 395 
Q 319 881 319 1663 
Q 319 2444 706 2928 
Q 1094 3413 1709 3413 
Q 2094 3413 2355 3264 
Q 2616 3116 2784 2803 
L 2784 4531 
L 2241 4531 
L 2241 4863 
L 3359 4863 
L 3359 331 
z
M 2784 1497 
L 2784 1825 
Q 2784 2422 2554 2737 
Q 2325 3053 1888 3053 
Q 1444 3053 1217 2703 
Q 991 2353 991 1663 
Q 991 975 1217 622 
Q 1444 269 1888 269 
Q 2325 269 2554 583 
Q 2784 897 2784 1497 
z
" transform="scale(0.015625)"/>
       <path id="DejaVuSerif-6c" d="M 1313 331 
L 1856 331 
L 1856 0 
L 184 0 
L 184 331 
L 738 331 
L 738 4531 
L 184 4531 
L 184 4863 
L 1313 4863 
L 1313 331 
z
" transform="scale(0.015625)"/>
       <path id="DejaVuSerif-28" d="M 2041 -997 
Q 1281 -656 893 83 
Q 506 822 506 1931 
Q 506 3044 893 3783 
Q 1281 4522 2041 4863 
L 2041 4556 
Q 1559 4225 1350 3623 
Q 1141 3022 1141 1931 
Q 1141 844 1350 242 
Q 1559 -359 2041 -691 
L 2041 -997 
z
" transform="scale(0.015625)"/>
       <path id="DejaVuSerif-50" d="M 1581 2375 
L 2406 2375 
Q 2872 2375 3115 2626 
Q 3359 2878 3359 3353 
Q 3359 3831 3115 4081 
Q 2872 4331 2406 4331 
L 1581 4331 
L 1581 2375 
z
M 353 0 
L 353 331 
L 947 331 
L 947 4331 
L 353 4331 
L 353 4666 
L 2559 4666 
Q 3259 4666 3668 4311 
Q 4078 3956 4078 3353 
Q 4078 2753 3668 2397 
Q 3259 2041 2559 2041 
L 1581 2041 
L 1581 331 
L 2303 331 
L 2303 0 
L 353 0 
z
" transform="scale(0.015625)"/>
       <path id="DejaVuSerif-61" d="M 2547 1044 
L 2547 1747 
L 1806 1747 
Q 1378 1747 1168 1562 
Q 959 1378 959 997 
Q 959 650 1171 447 
Q 1384 244 1747 244 
Q 2106 244 2326 466 
Q 2547 688 2547 1044 
z
M 3122 2075 
L 3122 331 
L 3634 331 
L 3634 0 
L 2547 0 
L 2547 359 
Q 2356 128 2106 18 
Q 1856 -91 1522 -91 
Q 969 -91 644 203 
Q 319 497 319 997 
Q 319 1513 691 1797 
Q 1063 2081 1741 2081 
L 2547 2081 
L 2547 2309 
Q 2547 2688 2317 2895 
Q 2088 3103 1672 3103 
Q 1328 3103 1125 2947 
Q 922 2791 872 2484 
L 575 2484 
L 575 3156 
Q 875 3284 1158 3348 
Q 1441 3413 1709 3413 
Q 2400 3413 2761 3070 
Q 3122 2728 3122 2075 
z
" transform="scale(0.015625)"/>
       <path id="DejaVuSerif-29" d="M 453 -997 
L 453 -691 
Q 934 -359 1145 242 
Q 1356 844 1356 1931 
Q 1356 3022 1145 3623 
Q 934 4225 453 4556 
L 453 4863 
Q 1216 4522 1603 3783 
Q 1991 3044 1991 1931 
Q 1991 822 1603 83 
Q 1216 -656 453 -997 
z
" transform="scale(0.015625)"/>
      </defs>
      <use xlink:href="#DejaVuSerif-59"/>
      <use xlink:href="#DejaVuSerif-6f" transform="translate(57.265625 0)"/>
      <use xlink:href="#DejaVuSerif-75" transform="translate(117.470703 0)"/>
      <use xlink:href="#DejaVuSerif-6e" transform="translate(181.875 0)"/>
      <use xlink:href="#DejaVuSerif-67" transform="translate(246.279297 0)"/>
      <use xlink:href="#DejaVuSerif-27" transform="translate(310.292969 0)"/>
      <use xlink:href="#DejaVuSerif-73" transform="translate(337.783203 0)"/>
      <use xlink:href="#DejaVuSerif-20" transform="translate(389.101562 0)"/>
      <use xlink:href="#DejaVuSerif-4d" transform="translate(420.888672 0)"/>
      <use xlink:href="#DejaVuSerif-6f" transform="translate(523.28125 0)"/>
      <use xlink:href="#DejaVuSerif-64" transform="translate(583.486328 0)"/>
      <use xlink:href="#DejaVuSerif-75" transform="translate(647.5 0)"/>
      <use xlink:href="#DejaVuSerif-6c" transform="translate(711.904297 0)"/>
      <use xlink:href="#DejaVuSerif-75" transform="translate(743.886719 0)"/>
      <use xlink:href="#DejaVuSerif-73" transform="translate(808.291016 0)"/>
      <use xlink:href="#DejaVuSerif-20" transform="translate(859.609375 0)"/>
      <use xlink:href="#DejaVuSerif-28" transform="translate(891.396484 0)"/>
      <use xlink:href="#DejaVuSerif-4d" transform="translate(930.410156 0)"/>
      <use xlink:href="#DejaVuSerif-50" transform="translate(1032.802734 0)"/>
      <use xlink:href="#DejaVuSerif-61" transform="translate(1095.587891 0)"/>
      <use xlink:href="#DejaVuSerif-29" transform="translate(1155.207031 0)"/>
     </g>
    </g>
   </g>
   <g id="matplotlib.axis_2">
    <g id="text_8">
     <!-- Probability -->
     <g style="fill: #030303" transform="translate(46.000625 186.352031) rotate(-90) scale(0.18 -0.18)">
      <defs>
       <path id="DejaVuSerif-72" d="M 3059 3328 
L 3059 2497 
L 2728 2497 
Q 2713 2744 2591 2866 
Q 2469 2988 2234 2988 
Q 1809 2988 1582 2694 
Q 1356 2400 1356 1850 
L 1356 331 
L 2022 331 
L 2022 0 
L 263 0 
L 263 331 
L 781 331 
L 781 2994 
L 231 2994 
L 231 3322 
L 1356 3322 
L 1356 2731 
Q 1525 3078 1790 3245 
Q 2056 3413 2438 3413 
Q 2578 3413 2733 3391 
Q 2888 3369 3059 3328 
z
" transform="scale(0.015625)"/>
       <path id="DejaVuSerif-62" d="M 738 331 
L 738 4531 
L 184 4531 
L 184 4863 
L 1313 4863 
L 1313 2803 
Q 1481 3116 1742 3264 
Q 2003 3413 2388 3413 
Q 3000 3413 3387 2928 
Q 3775 2444 3775 1663 
Q 3775 881 3387 395 
Q 3000 -91 2388 -91 
Q 2003 -91 1742 57 
Q 1481 206 1313 519 
L 1313 0 
L 184 0 
L 184 331 
L 738 331 
z
M 1313 1497 
Q 1313 897 1542 583 
Q 1772 269 2209 269 
Q 2650 269 2876 622 
Q 3103 975 3103 1663 
Q 3103 2353 2876 2703 
Q 2650 3053 2209 3053 
Q 1772 3053 1542 2737 
Q 1313 2422 1313 1825 
L 1313 1497 
z
" transform="scale(0.015625)"/>
       <path id="DejaVuSerif-69" d="M 622 4353 
Q 622 4497 726 4603 
Q 831 4709 978 4709 
Q 1122 4709 1226 4603 
Q 1331 4497 1331 4353 
Q 1331 4206 1228 4103 
Q 1125 4000 978 4000 
Q 831 4000 726 4103 
Q 622 4206 622 4353 
z
M 1356 331 
L 1900 331 
L 1900 0 
L 231 0 
L 231 331 
L 781 331 
L 781 2988 
L 231 2988 
L 231 3322 
L 1356 3322 
L 1356 331 
z
" transform="scale(0.015625)"/>
       <path id="DejaVuSerif-74" d="M 691 2988 
L 184 2988 
L 184 3322 
L 691 3322 
L 691 4353 
L 1269 4353 
L 1269 3322 
L 2350 3322 
L 2350 2988 
L 1269 2988 
L 1269 878 
Q 1269 456 1350 337 
Q 1431 219 1650 219 
Q 1875 219 1978 351 
Q 2081 484 2088 781 
L 2522 781 
Q 2497 328 2275 118 
Q 2053 -91 1600 -91 
Q 1103 -91 897 129 
Q 691 350 691 878 
L 691 2988 
z
" transform="scale(0.015625)"/>
       <path id="DejaVuSerif-79" d="M 1381 -609 
L 1600 -56 
L 359 2988 
L -19 2988 
L -19 3322 
L 1509 3322 
L 1509 2988 
L 978 2988 
L 1913 703 
L 2847 2988 
L 2350 2988 
L 2350 3322 
L 3597 3322 
L 3597 2988 
L 3225 2988 
L 1703 -750 
Q 1547 -1138 1356 -1280 
Q 1166 -1422 819 -1422 
Q 672 -1422 517 -1397 
Q 363 -1372 206 -1325 
L 206 -691 
L 500 -691 
Q 519 -903 608 -995 
Q 697 -1088 884 -1088 
Q 1056 -1088 1161 -992 
Q 1266 -897 1381 -609 
z
" transform="scale(0.015625)"/>
      </defs>
      <use xlink:href="#DejaVuSerif-50"/>
      <use xlink:href="#DejaVuSerif-72" transform="translate(67.285156 0)"/>
      <use xlink:href="#DejaVuSerif-6f" transform="translate(115.087891 0)"/>
      <use xlink:href="#DejaVuSerif-62" transform="translate(175.292969 0)"/>
      <use xlink:href="#DejaVuSerif-61" transform="translate(239.306641 0)"/>
      <use xlink:href="#DejaVuSerif-62" transform="translate(298.925781 0)"/>
      <use xlink:href="#DejaVuSerif-69" transform="translate(362.939453 0)"/>
      <use xlink:href="#DejaVuSerif-6c" transform="translate(394.921875 0)"/>
      <use xlink:href="#DejaVuSerif-69" transform="translate(426.904297 0)"/>
      <use xlink:href="#DejaVuSerif-74" transform="translate(458.886719 0)"/>
      <use xlink:href="#DejaVuSerif-79" transform="translate(499.072266 0)"/>
     </g>
    </g>
   </g>
   <g id="line2d_7">
    <path d="M 69.218182 238.099245 
L 74.702211 237.27388 
L 79.576904 236.322857 
L 84.146929 235.204392 
L 88.412285 233.925213 
L 92.372973 232.501013 
L 96.028993 230.956181 
L 99.685012 229.163345 
L 103.036364 227.278804 
L 106.387715 225.141669 
L 109.739066 222.730625 
L 113.090418 220.024776 
L 116.441769 217.004102 
L 119.488452 213.969128 
L 122.535135 210.645921 
L 125.886486 206.644493 
L 129.237838 202.269479 
L 132.589189 197.512903 
L 135.940541 192.371063 
L 139.59656 186.323921 
L 143.25258 179.828746 
L 147.213268 172.307157 
L 151.173956 164.314645 
L 155.74398 154.570086 
L 160.923342 142.966856 
L 167.626044 127.350929 
L 181.03145 95.96237 
L 185.906143 85.209185 
L 189.86683 76.99919 
L 193.218182 70.524039 
L 196.264865 65.079919 
L 199.00688 60.586232 
L 201.748894 56.515075 
L 204.186241 53.278219 
L 206.623587 50.423213 
L 208.756265 48.253393 
L 210.888943 46.401802 
L 212.716953 45.07536 
L 214.544963 43.99493 
L 216.372973 43.164686 
L 218.200983 42.587846 
L 220.028993 42.26665 
L 221.857002 42.202348 
L 223.685012 42.395191 
L 225.513022 42.844427 
L 227.341032 43.548311 
L 229.169042 44.50411 
L 230.997052 45.708127 
L 232.825061 47.155719 
L 234.95774 49.144968 
L 237.090418 51.447827 
L 239.527764 54.448393 
L 241.965111 57.823041 
L 244.707125 62.038926 
L 247.44914 66.665482 
L 250.495823 72.242302 
L 253.847174 78.844228 
L 257.807862 87.177031 
L 262.377887 97.345849 
L 268.471253 111.4981 
L 283.4 146.432229 
L 288.579361 157.875459 
L 293.149386 167.441689 
L 297.414742 175.839553 
L 301.37543 183.131455 
L 305.03145 189.404246 
L 308.687469 195.223512 
L 312.038821 200.155029 
L 315.390172 204.702734 
L 318.741523 208.872737 
L 322.092875 212.675088 
L 325.444226 216.123152 
L 328.795577 219.232992 
L 332.146929 222.022765 
L 335.49828 224.512167 
L 338.849631 226.7219 
L 342.200983 228.673209 
L 345.857002 230.532273 
L 349.513022 232.136597 
L 353.47371 233.61795 
L 357.434398 234.863734 
L 361.699754 235.976477 
L 366.269779 236.943683 
L 371.44914 237.805613 
L 373.581818 238.099245 
L 373.581818 238.099245 
" clip-path="url(#p5981686d06)" style="fill: none; stroke: #28b80b; stroke-width: 1.5; stroke-linecap: square"/>
   </g>
   <g id="patch_3">
    <path d="M 54 240.3 
L 54 32.4 
" style="fill: none; stroke: #030303; stroke-width: 1.5; stroke-linejoin: miter; stroke-linecap: square"/>
   </g>
   <g id="patch_4">
    <path d="M 54 240.3 
L 388.8 240.3 
" style="fill: none; stroke: #030303; stroke-width: 1.5; stroke-linejoin: miter; stroke-linecap: square"/>
   </g>
  </g>
  <g id="axes_2">
   <g id="patch_5">
    <path d="M 272.127273 236.351536 
Q 272.127273 180.222823 272.127273 124.094109 
" clip-path="url(#p5981686d06)" style="fill: none; stroke: #000000; stroke-width: 1.5; stroke-linecap: round"/>
    <path d="M 274.627273 230.351536 
L 272.127273 236.351536 
L 269.627273 230.351536 
z
" clip-path="url(#p5981686d06)" style="stroke: #000000; stroke-width: 1.5; stroke-linecap: round"/>
    <path d="M 269.627273 130.094109 
L 272.127273 124.094109 
L 274.627273 130.094109 
z
" clip-path="url(#p5981686d06)" style="stroke: #000000; stroke-width: 1.5; stroke-linecap: round"/>
   </g>
   <g id="matplotlib.axis_3"/>
   <g id="patch_6">
    <path d="M 54 240.3 
L 388.8 240.3 
" style="fill: none; stroke: #030303; stroke-width: 1.5; stroke-linejoin: miter; stroke-linecap: square"/>
   </g>
  </g>
  <g id="axes_3">
   <g id="patch_7">
    <path d="M 237.47646 240.3 
L 240.070136 240.3 
L 240.070136 239.167629 
L 237.47646 239.167629 
z
" clip-path="url(#p5981686d06)" style="fill: #8237ff; opacity: 0.3; stroke: #000000; stroke-linejoin: miter"/>
   </g>
   <g id="patch_8">
    <path d="M 240.070136 240.3 
L 242.663812 240.3 
L 242.663812 238.035257 
L 240.070136 238.035257 
z
" clip-path="url(#p5981686d06)" style="fill: #8237ff; opacity: 0.3; stroke: #000000; stroke-linejoin: miter"/>
   </g>
   <g id="patch_9">
    <path d="M 242.663812 240.3 
L 245.257488 240.3 
L 245.257488 236.651248 
L 242.663812 236.651248 
z
" clip-path="url(#p5981686d06)" style="fill: #8237ff; opacity: 0.3; stroke: #000000; stroke-linejoin: miter"/>
   </g>
   <g id="patch_10">
    <path d="M 245.257488 240.3 
L 247.851164 240.3 
L 247.851164 232.247582 
L 245.257488 232.247582 
z
" clip-path="url(#p5981686d06)" style="fill: #8237ff; opacity: 0.3; stroke: #000000; stroke-linejoin: miter"/>
   </g>
   <g id="patch_11">
    <path d="M 247.851164 240.3 
L 250.44484 240.3 
L 250.44484 228.473011 
L 247.851164 228.473011 
z
" clip-path="url(#p5981686d06)" style="fill: #8237ff; opacity: 0.3; stroke: #000000; stroke-linejoin: miter"/>
   </g>
   <g id="patch_12">
    <path d="M 250.44484 240.3 
L 253.038516 240.3 
L 253.038516 220.168955 
L 250.44484 220.168955 
z
" clip-path="url(#p5981686d06)" style="fill: #8237ff; opacity: 0.3; stroke: #000000; stroke-linejoin: miter"/>
   </g>
   <g id="patch_13">
    <path d="M 253.038516 240.3 
L 255.632192 240.3 
L 255.632192 208.216147 
L 253.038516 208.216147 
z
" clip-path="url(#p5981686d06)" style="fill: #8237ff; opacity: 0.3; stroke: #000000; stroke-linejoin: miter"/>
   </g>
   <g id="patch_14">
    <path d="M 255.632192 240.3 
L 258.225868 240.3 
L 258.225868 194.75351 
L 255.632192 194.75351 
z
" clip-path="url(#p5981686d06)" style="fill: #8237ff; opacity: 0.3; stroke: #000000; stroke-linejoin: miter"/>
   </g>
   <g id="patch_15">
    <path d="M 258.225868 240.3 
L 260.819545 240.3 
L 260.819545 178.774493 
L 258.225868 178.774493 
z
" clip-path="url(#p5981686d06)" style="fill: #8237ff; opacity: 0.3; stroke: #000000; stroke-linejoin: miter"/>
   </g>
   <g id="patch_16">
    <path d="M 260.819545 240.3 
L 263.413221 240.3 
L 263.413221 159.901639 
L 260.819545 159.901639 
z
" clip-path="url(#p5981686d06)" style="fill: #8237ff; opacity: 0.3; stroke: #000000; stroke-linejoin: miter"/>
   </g>
   <g id="patch_17">
    <path d="M 263.413221 240.3 
L 266.006897 240.3 
L 266.006897 147.697192 
L 263.413221 147.697192 
z
" clip-path="url(#p5981686d06)" style="fill: #8237ff; opacity: 0.3; stroke: #000000; stroke-linejoin: miter"/>
   </g>
   <g id="patch_18">
    <path d="M 266.006897 240.3 
L 268.600573 240.3 
L 268.600573 128.069423 
L 266.006897 128.069423 
z
" clip-path="url(#p5981686d06)" style="fill: #8237ff; opacity: 0.3; stroke: #000000; stroke-linejoin: miter"/>
   </g>
   <g id="patch_19">
    <path d="M 268.600573 240.3 
L 271.194249 240.3 
L 271.194249 123.917395 
L 268.600573 123.917395 
z
" clip-path="url(#p5981686d06)" style="fill: #8237ff; opacity: 0.3; stroke: #000000; stroke-linejoin: miter"/>
   </g>
   <g id="patch_20">
    <path d="M 271.194249 240.3 
L 273.787925 240.3 
L 273.787925 120.142824 
L 271.194249 120.142824 
z
" clip-path="url(#p5981686d06)" style="fill: #8237ff; opacity: 0.3; stroke: #000000; stroke-linejoin: miter"/>
   </g>
   <g id="patch_21">
    <path d="M 273.787925 240.3 
L 276.381601 240.3 
L 276.381601 126.433776 
L 273.787925 126.433776 
z
" clip-path="url(#p5981686d06)" style="fill: #8237ff; opacity: 0.3; stroke: #000000; stroke-linejoin: miter"/>
   </g>
   <g id="patch_22">
    <path d="M 276.381601 240.3 
L 278.975277 240.3 
L 278.975277 132.221452 
L 276.381601 132.221452 
z
" clip-path="url(#p5981686d06)" style="fill: #8237ff; opacity: 0.3; stroke: #000000; stroke-linejoin: miter"/>
   </g>
   <g id="patch_23">
    <path d="M 278.975277 240.3 
L 281.568953 240.3 
L 281.568953 150.339392 
L 278.975277 150.339392 
z
" clip-path="url(#p5981686d06)" style="fill: #8237ff; opacity: 0.3; stroke: #000000; stroke-linejoin: miter"/>
   </g>
   <g id="patch_24">
    <path d="M 281.568953 240.3 
L 284.162629 240.3 
L 284.162629 170.09298 
L 281.568953 170.09298 
z
" clip-path="url(#p5981686d06)" style="fill: #8237ff; opacity: 0.3; stroke: #000000; stroke-linejoin: miter"/>
   </g>
   <g id="patch_25">
    <path d="M 284.162629 240.3 
L 286.756305 240.3 
L 286.756305 182.423245 
L 284.162629 182.423245 
z
" clip-path="url(#p5981686d06)" style="fill: #8237ff; opacity: 0.3; stroke: #000000; stroke-linejoin: miter"/>
   </g>
   <g id="patch_26">
    <path d="M 286.756305 240.3 
L 289.349981 240.3 
L 289.349981 200.163729 
L 286.756305 200.163729 
z
" clip-path="url(#p5981686d06)" style="fill: #8237ff; opacity: 0.3; stroke: #000000; stroke-linejoin: miter"/>
   </g>
   <g id="patch_27">
    <path d="M 289.349981 240.3 
L 291.943657 240.3 
L 291.943657 211.361623 
L 289.349981 211.361623 
z
" clip-path="url(#p5981686d06)" style="fill: #8237ff; opacity: 0.3; stroke: #000000; stroke-linejoin: miter"/>
   </g>
   <g id="patch_28">
    <path d="M 291.943657 240.3 
L 294.537333 240.3 
L 294.537333 223.943526 
L 291.943657 223.943526 
z
" clip-path="url(#p5981686d06)" style="fill: #8237ff; opacity: 0.3; stroke: #000000; stroke-linejoin: miter"/>
   </g>
   <g id="patch_29">
    <path d="M 294.537333 240.3 
L 297.131009 240.3 
L 297.131009 229.353744 
L 294.537333 229.353744 
z
" clip-path="url(#p5981686d06)" style="fill: #8237ff; opacity: 0.3; stroke: #000000; stroke-linejoin: miter"/>
   </g>
   <g id="patch_30">
    <path d="M 297.131009 240.3 
L 299.724685 240.3 
L 299.724685 233.505772 
L 297.131009 233.505772 
z
" clip-path="url(#p5981686d06)" style="fill: #8237ff; opacity: 0.3; stroke: #000000; stroke-linejoin: miter"/>
   </g>
   <g id="patch_31">
    <path d="M 299.724685 240.3 
L 302.318361 240.3 
L 302.318361 236.902886 
L 299.724685 236.902886 
z
" clip-path="url(#p5981686d06)" style="fill: #8237ff; opacity: 0.3; stroke: #000000; stroke-linejoin: miter"/>
   </g>
   <g id="patch_32">
    <path d="M 302.318361 240.3 
L 304.912037 240.3 
L 304.912037 238.161076 
L 302.318361 238.161076 
z
" clip-path="url(#p5981686d06)" style="fill: #8237ff; opacity: 0.3; stroke: #000000; stroke-linejoin: miter"/>
   </g>
   <g id="patch_33">
    <path d="M 304.912037 240.3 
L 307.505713 240.3 
L 307.505713 239.293448 
L 304.912037 239.293448 
z
" clip-path="url(#p5981686d06)" style="fill: #8237ff; opacity: 0.3; stroke: #000000; stroke-linejoin: miter"/>
   </g>
   <g id="patch_34">
    <path d="M 307.505713 240.3 
L 310.099389 240.3 
L 310.099389 240.048362 
L 307.505713 240.048362 
z
" clip-path="url(#p5981686d06)" style="fill: #8237ff; opacity: 0.3; stroke: #000000; stroke-linejoin: miter"/>
   </g>
   <g id="patch_35">
    <path d="M 310.099389 240.3 
L 312.693065 240.3 
L 312.693065 240.174181 
L 310.099389 240.174181 
z
" clip-path="url(#p5981686d06)" style="fill: #8237ff; opacity: 0.3; stroke: #000000; stroke-linejoin: miter"/>
   </g>
   <g id="patch_36">
    <path d="M 312.693065 240.3 
L 315.286741 240.3 
L 315.286741 240.174181 
L 312.693065 240.174181 
z
" clip-path="url(#p5981686d06)" style="fill: #8237ff; opacity: 0.3; stroke: #000000; stroke-linejoin: miter"/>
   </g>
   <g id="matplotlib.axis_4"/>
   <g id="patch_37">
    <path d="M 54 240.3 
L 388.8 240.3 
" style="fill: none; stroke: #030303; stroke-width: 1.5; stroke-linejoin: miter; stroke-linecap: square"/>
   </g>
  </g>
  <g id="axes_4">
   <g id="patch_38">
    <path d="M 221.4 236.351894 
Q 221.4 141.249047 221.4 46.146201 
" clip-path="url(#p5981686d06)" style="fill: none; stroke: #ffb81c; stroke-width: 1.5; stroke-linecap: round"/>
    <path d="M 223.9 230.351894 
L 221.4 236.351894 
L 218.9 230.351894 
z
" clip-path="url(#p5981686d06)" style="fill: #ffb81c; stroke: #ffb81c; stroke-width: 1.5; stroke-linecap: round"/>
    <path d="M 218.9 52.146201 
L 221.4 46.146201 
L 223.9 52.146201 
z
" clip-path="url(#p5981686d06)" style="fill: #ffb81c; stroke: #ffb81c; stroke-width: 1.5; stroke-linecap: round"/>
   </g>
   <g id="matplotlib.axis_5"/>
   <g id="line2d_8">
    <path d="M 188.191205 238.099245 
L 191.686867 234.900493 
L 195.18253 228.309777 
L 198.678193 216.20143 
L 202.173855 196.462464 
L 205.669518 168.124158 
L 209.165181 132.745536 
L 212.660843 95.237261 
L 216.156506 63.218104 
L 219.652169 44.648443 
L 223.147831 44.648443 
L 226.643494 63.218104 
L 230.139157 95.237261 
L 233.634819 132.745536 
L 237.130482 168.124158 
L 240.626145 196.462464 
L 244.121807 216.20143 
L 247.61747 228.309777 
L 251.113133 234.900493 
L 254.608795 238.099245 
" clip-path="url(#p5981686d06)" style="fill: none; stroke-dasharray: 5.55,2.4; stroke-dashoffset: 0; stroke: #ffb81c; stroke-opacity: 0.5; stroke-width: 1.5"/>
   </g>
   <g id="patch_39">
    <path d="M 54 240.3 
L 388.8 240.3 
" style="fill: none; stroke: #030303; stroke-width: 1.5; stroke-linejoin: miter; stroke-linecap: square"/>
   </g>
  </g>
 </g>
 <defs>
  <clipPath id="p5981686d06">
   <rect x="54" y="32.4" width="334.8" height="207.9"/>
  </clipPath>
 </defs>
</svg>
