<?xml version="1.0" encoding="utf-8" standalone="no"?>
<!DOCTYPE svg PUBLIC "-//W3C//DTD SVG 1.1//EN"
  "http://www.w3.org/Graphics/SVG/1.1/DTD/svg11.dtd">
<svg xmlns:xlink="http://www.w3.org/1999/xlink" width="432pt" height="648pt" viewBox="0 0 432 648" xmlns="http://www.w3.org/2000/svg" version="1.1">
 <metadata>
  <rdf:RDF xmlns:dc="http://purl.org/dc/elements/1.1/" xmlns:cc="http://creativecommons.org/ns#" xmlns:rdf="http://www.w3.org/1999/02/22-rdf-syntax-ns#">
   <cc:Work>
    <dc:type rdf:resource="http://purl.org/dc/dcmitype/StillImage"/>
    <dc:date>2025-01-13T20:21:41.596298</dc:date>
    <dc:format>image/svg+xml</dc:format>
    <dc:creator>
     <cc:Agent>
      <dc:title>Matplotlib v3.10.0, https://matplotlib.org/</dc:title>
     </cc:Agent>
    </dc:creator>
   </cc:Work>
  </rdf:RDF>
 </metadata>
 <defs>
  <style type="text/css">*{stroke-linejoin: round; stroke-linecap: butt}</style>
 </defs>
 <g id="figure_1">
  <g id="patch_1">
   <path d="M 0 648 
L 432 648 
L 432 0 
L 0 0 
L 0 648 
z
" style="fill: none"/>
  </g>
  <g id="axes_1">
   <g id="patch_2">
    <path d="M 68.606123 276.88 
L 421.2 276.88 
L 421.2 10.8 
L 68.606123 10.8 
L 68.606123 276.88 
z
" style="fill: none"/>
   </g>
   <g id="FillBetweenPolyCollection_1">
    <defs>
     <path id="m02a3ec832a" d="M 298.647237 -371.12 
L 298.647237 -523.898219 
L 298.968098 -522.975165 
L 299.288958 -522.052244 
L 299.609819 -521.12952 
L 299.93068 -520.20706 
L 300.251541 -519.284927 
L 300.572401 -518.363187 
L 300.893262 -517.441902 
L 301.214123 -516.521137 
L 301.534984 -515.600954 
L 301.855844 -514.681416 
L 302.176705 -513.762585 
L 302.497566 -512.844522 
L 302.818427 -511.927289 
L 303.139287 -511.010945 
L 303.460148 -510.095552 
L 303.781009 -509.181169 
L 304.10187 -508.267854 
L 304.42273 -507.355667 
L 304.743591 -506.444665 
L 305.064452 -505.534907 
L 305.385313 -504.626448 
L 305.706173 -503.719347 
L 306.027034 -502.813658 
L 306.347895 -501.909437 
L 306.668756 -501.006739 
L 306.989616 -500.105619 
L 307.310477 -499.20613 
L 307.631338 -498.308325 
L 307.952199 -497.412258 
L 308.273059 -496.517981 
L 308.59392 -495.625544 
L 308.914781 -494.735 
L 309.235642 -493.846399 
L 309.556502 -492.95979 
L 309.877363 -492.075223 
L 310.198224 -491.192747 
L 310.519085 -490.312409 
L 310.839945 -489.434258 
L 311.160806 -488.55834 
L 311.481667 -487.684703 
L 311.802528 -486.813391 
L 312.123388 -485.94445 
L 312.444249 -485.077924 
L 312.76511 -484.213859 
L 313.085971 -483.352296 
L 313.406831 -482.493279 
L 313.727692 -481.636851 
L 314.048553 -480.783052 
L 314.369414 -479.931924 
L 314.690274 -479.083508 
L 315.011135 -478.237842 
L 315.331996 -477.394967 
L 315.652857 -476.554921 
L 315.973717 -475.717742 
L 316.294578 -474.883468 
L 316.615439 -474.052134 
L 316.9363 -473.223778 
L 317.25716 -472.398435 
L 317.578021 -471.576139 
L 317.898882 -470.756926 
L 318.219743 -469.940828 
L 318.540603 -469.12788 
L 318.861464 -468.318113 
L 319.182325 -467.51156 
L 319.503186 -466.708251 
L 319.824046 -465.908217 
L 320.144907 -465.111489 
L 320.465768 -464.318096 
L 320.786629 -463.528067 
L 321.107489 -462.741429 
L 321.42835 -461.958211 
L 321.749211 -461.17844 
L 322.070072 -460.402141 
L 322.390932 -459.629342 
L 322.711793 -458.860067 
L 323.032654 -458.09434 
L 323.353515 -457.332186 
L 323.674375 -456.573629 
L 323.995236 -455.81869 
L 324.316097 -455.067393 
L 324.636958 -454.319758 
L 324.957818 -453.575808 
L 325.278679 -452.835562 
L 325.59954 -452.09904 
L 325.920401 -451.366263 
L 326.241261 -450.637247 
L 326.562122 -449.912013 
L 326.882983 -449.190576 
L 327.203844 -448.472955 
L 327.524704 -447.759166 
L 327.845565 -447.049224 
L 328.166426 -446.343146 
L 328.487287 -445.640945 
L 328.808147 -444.942636 
L 329.129008 -444.248232 
L 329.449869 -443.557748 
L 329.77073 -442.871195 
L 330.09159 -442.188585 
L 330.412451 -441.50993 
L 330.733312 -440.835241 
L 331.054173 -440.164529 
L 331.375033 -439.497802 
L 331.695894 -438.835071 
L 332.016755 -438.176345 
L 332.337616 -437.521631 
L 332.658476 -436.870938 
L 332.979337 -436.224273 
L 333.300198 -435.581642 
L 333.621059 -434.943052 
L 333.941919 -434.308509 
L 334.26278 -433.678019 
L 334.583641 -433.051585 
L 334.904502 -432.429212 
L 335.225362 -431.810905 
L 335.546223 -431.196666 
L 335.867084 -430.586499 
L 336.187945 -429.980406 
L 336.508805 -429.378388 
L 336.829666 -428.780448 
L 337.150527 -428.186586 
L 337.471388 -427.596804 
L 337.792248 -427.0111 
L 338.113109 -426.429476 
L 338.43397 -425.85193 
L 338.754831 -425.278461 
L 339.075691 -424.709067 
L 339.396552 -424.143748 
L 339.717413 -423.582499 
L 340.038274 -423.025319 
L 340.359134 -422.472204 
L 340.679995 -421.92315 
L 341.000856 -421.378154 
L 341.321717 -420.837211 
L 341.642577 -420.300316 
L 341.963438 -419.767464 
L 342.284299 -419.23865 
L 342.60516 -418.713867 
L 342.92602 -418.19311 
L 343.246881 -417.676371 
L 343.567742 -417.163644 
L 343.888603 -416.65492 
L 344.209463 -416.150194 
L 344.530324 -415.649455 
L 344.851185 -415.152696 
L 345.172046 -414.659909 
L 345.492906 -414.171083 
L 345.813767 -413.68621 
L 346.134628 -413.20528 
L 346.455489 -412.728282 
L 346.776349 -412.255207 
L 347.09721 -411.786044 
L 347.418071 -411.320782 
L 347.738932 -410.859409 
L 348.059792 -410.401915 
L 348.380653 -409.948286 
L 348.701514 -409.498512 
L 349.022375 -409.052579 
L 349.343235 -408.610476 
L 349.664096 -408.172188 
L 349.984957 -407.737704 
L 350.305818 -407.307009 
L 350.626678 -406.88009 
L 350.947539 -406.456933 
L 351.2684 -406.037523 
L 351.589261 -405.621847 
L 351.910121 -405.20989 
L 352.230982 -404.801636 
L 352.551843 -404.397071 
L 352.872704 -403.99618 
L 353.193564 -403.598946 
L 353.514425 -403.205355 
L 353.835286 -402.81539 
L 354.156147 -402.429036 
L 354.477007 -402.046275 
L 354.797868 -401.667092 
L 355.118729 -401.291469 
L 355.43959 -400.919391 
L 355.76045 -400.550839 
L 356.081311 -400.185797 
L 356.402172 -399.824247 
L 356.723033 -399.466172 
L 357.043893 -399.111555 
L 357.364754 -398.760376 
L 357.685615 -398.412619 
L 358.006476 -398.068265 
L 358.327336 -397.727296 
L 358.648197 -397.389693 
L 358.969058 -397.055439 
L 359.289919 -396.724514 
L 359.610779 -396.3969 
L 359.93164 -396.072577 
L 360.252501 -395.751527 
L 360.573361 -395.433731 
L 360.894222 -395.11917 
L 361.215083 -394.807823 
L 361.535944 -394.499673 
L 361.856804 -394.194698 
L 362.177665 -393.892881 
L 362.498526 -393.5942 
L 362.819387 -393.298637 
L 363.140247 -393.006171 
L 363.461108 -392.716783 
L 363.781969 -392.430453 
L 364.10283 -392.14716 
L 364.42369 -391.866885 
L 364.744551 -391.589608 
L 365.065412 -391.315307 
L 365.386273 -391.043964 
L 365.707133 -390.775557 
L 366.027994 -390.510067 
L 366.348855 -390.247473 
L 366.669716 -389.987754 
L 366.990576 -389.730891 
L 367.311437 -389.476862 
L 367.632298 -389.225648 
L 367.953159 -388.977227 
L 368.274019 -388.73158 
L 368.59488 -388.488685 
L 368.915741 -388.248522 
L 369.236602 -388.011071 
L 369.557462 -387.77631 
L 369.878323 -387.54422 
L 370.199184 -387.31478 
L 370.520045 -387.087969 
L 370.840905 -386.863766 
L 371.161766 -386.642152 
L 371.482627 -386.423105 
L 371.803488 -386.206605 
L 372.124348 -385.992632 
L 372.445209 -385.781164 
L 372.76607 -385.572182 
L 373.086931 -385.365665 
L 373.407791 -385.161592 
L 373.728652 -384.959943 
L 374.049513 -384.760699 
L 374.370374 -384.563837 
L 374.691234 -384.369339 
L 375.012095 -384.177184 
L 375.332956 -383.987351 
L 375.653817 -383.799821 
L 375.974677 -383.614574 
L 376.295538 -383.431588 
L 376.616399 -383.250845 
L 376.93726 -383.072324 
L 377.25812 -382.896006 
L 377.578981 -382.72187 
L 377.899842 -382.549896 
L 378.220703 -382.380066 
L 378.541563 -382.212359 
L 378.862424 -382.046755 
L 379.183285 -381.883236 
L 379.504146 -381.721782 
L 379.825006 -381.562372 
L 380.145867 -381.404989 
L 380.466728 -381.249612 
L 380.787589 -381.096222 
L 381.108449 -380.944801 
L 381.42931 -380.795329 
L 381.750171 -380.647788 
L 382.071032 -380.502158 
L 382.391892 -380.35842 
L 382.712753 -380.216557 
L 383.033614 -380.076549 
L 383.354475 -379.938377 
L 383.675335 -379.802024 
L 383.996196 -379.667471 
L 384.317057 -379.5347 
L 384.637918 -379.403693 
L 384.958778 -379.27443 
L 385.279639 -379.146896 
L 385.6005 -379.021071 
L 385.921361 -378.896938 
L 386.242221 -378.774479 
L 386.563082 -378.653676 
L 386.883943 -378.534513 
L 387.204804 -378.416971 
L 387.525664 -378.301033 
L 387.846525 -378.186683 
L 388.167386 -378.073903 
L 388.488247 -377.962675 
L 388.809107 -377.852984 
L 389.129968 -377.744813 
L 389.450829 -377.638144 
L 389.77169 -377.532961 
L 390.09255 -377.429248 
L 390.413411 -377.326989 
L 390.734272 -377.226166 
L 391.055133 -377.126765 
L 391.375993 -377.028769 
L 391.696854 -376.932161 
L 392.017715 -376.836927 
L 392.338576 -376.743051 
L 392.659436 -376.650517 
L 392.980297 -376.559309 
L 393.301158 -376.469412 
L 393.622019 -376.380811 
L 393.942879 -376.293492 
L 394.26374 -376.207438 
L 394.584601 -376.122635 
L 394.905462 -376.039068 
L 395.226322 -375.956722 
L 395.547183 -375.875584 
L 395.868044 -375.795638 
L 396.188905 -375.71687 
L 396.509765 -375.639266 
L 396.830626 -375.562812 
L 397.151487 -375.487494 
L 397.472348 -375.413297 
L 397.793208 -375.340209 
L 398.114069 -375.268216 
L 398.43493 -375.197303 
L 398.755791 -375.127459 
L 399.076651 -375.058668 
L 399.397512 -374.990919 
L 399.718373 -374.924198 
L 400.039234 -374.858492 
L 400.360094 -374.793789 
L 400.680955 -374.730075 
L 401.001816 -374.667338 
L 401.322677 -374.605566 
L 401.643537 -374.544746 
L 401.964398 -374.484865 
L 402.285259 -374.425913 
L 402.60612 -374.367876 
L 402.92698 -374.310743 
L 403.247841 -374.254502 
L 403.568702 -374.199141 
L 403.889563 -374.144648 
L 404.210423 -374.091013 
L 404.531284 -374.038224 
L 404.852145 -373.986269 
L 405.173006 -373.935138 
L 405.173006 -371.12 
L 405.173006 -371.12 
L 404.852145 -371.12 
L 404.531284 -371.12 
L 404.210423 -371.12 
L 403.889563 -371.12 
L 403.568702 -371.12 
L 403.247841 -371.12 
L 402.92698 -371.12 
L 402.60612 -371.12 
L 402.285259 -371.12 
L 401.964398 -371.12 
L 401.643537 -371.12 
L 401.322677 -371.12 
L 401.001816 -371.12 
L 400.680955 -371.12 
L 400.360094 -371.12 
L 400.039234 -371.12 
L 399.718373 -371.12 
L 399.397512 -371.12 
L 399.076651 -371.12 
L 398.755791 -371.12 
L 398.43493 -371.12 
L 398.114069 -371.12 
L 397.793208 -371.12 
L 397.472348 -371.12 
L 397.151487 -371.12 
L 396.830626 -371.12 
L 396.509765 -371.12 
L 396.188905 -371.12 
L 395.868044 -371.12 
L 395.547183 -371.12 
L 395.226322 -371.12 
L 394.905462 -371.12 
L 394.584601 -371.12 
L 394.26374 -371.12 
L 393.942879 -371.12 
L 393.622019 -371.12 
L 393.301158 -371.12 
L 392.980297 -371.12 
L 392.659436 -371.12 
L 392.338576 -371.12 
L 392.017715 -371.12 
L 391.696854 -371.12 
L 391.375993 -371.12 
L 391.055133 -371.12 
L 390.734272 -371.12 
L 390.413411 -371.12 
L 390.09255 -371.12 
L 389.77169 -371.12 
L 389.450829 -371.12 
L 389.129968 -371.12 
L 388.809107 -371.12 
L 388.488247 -371.12 
L 388.167386 -371.12 
L 387.846525 -371.12 
L 387.525664 -371.12 
L 387.204804 -371.12 
L 386.883943 -371.12 
L 386.563082 -371.12 
L 386.242221 -371.12 
L 385.921361 -371.12 
L 385.6005 -371.12 
L 385.279639 -371.12 
L 384.958778 -371.12 
L 384.637918 -371.12 
L 384.317057 -371.12 
L 383.996196 -371.12 
L 383.675335 -371.12 
L 383.354475 -371.12 
L 383.033614 -371.12 
L 382.712753 -371.12 
L 382.391892 -371.12 
L 382.071032 -371.12 
L 381.750171 -371.12 
L 381.42931 -371.12 
L 381.108449 -371.12 
L 380.787589 -371.12 
L 380.466728 -371.12 
L 380.145867 -371.12 
L 379.825006 -371.12 
L 379.504146 -371.12 
L 379.183285 -371.12 
L 378.862424 -371.12 
L 378.541563 -371.12 
L 378.220703 -371.12 
L 377.899842 -371.12 
L 377.578981 -371.12 
L 377.25812 -371.12 
L 376.93726 -371.12 
L 376.616399 -371.12 
L 376.295538 -371.12 
L 375.974677 -371.12 
L 375.653817 -371.12 
L 375.332956 -371.12 
L 375.012095 -371.12 
L 374.691234 -371.12 
L 374.370374 -371.12 
L 374.049513 -371.12 
L 373.728652 -371.12 
L 373.407791 -371.12 
L 373.086931 -371.12 
L 372.76607 -371.12 
L 372.445209 -371.12 
L 372.124348 -371.12 
L 371.803488 -371.12 
L 371.482627 -371.12 
L 371.161766 -371.12 
L 370.840905 -371.12 
L 370.520045 -371.12 
L 370.199184 -371.12 
L 369.878323 -371.12 
L 369.557462 -371.12 
L 369.236602 -371.12 
L 368.915741 -371.12 
L 368.59488 -371.12 
L 368.274019 -371.12 
L 367.953159 -371.12 
L 367.632298 -371.12 
L 367.311437 -371.12 
L 366.990576 -371.12 
L 366.669716 -371.12 
L 366.348855 -371.12 
L 366.027994 -371.12 
L 365.707133 -371.12 
L 365.386273 -371.12 
L 365.065412 -371.12 
L 364.744551 -371.12 
L 364.42369 -371.12 
L 364.10283 -371.12 
L 363.781969 -371.12 
L 363.461108 -371.12 
L 363.140247 -371.12 
L 362.819387 -371.12 
L 362.498526 -371.12 
L 362.177665 -371.12 
L 361.856804 -371.12 
L 361.535944 -371.12 
L 361.215083 -371.12 
L 360.894222 -371.12 
L 360.573361 -371.12 
L 360.252501 -371.12 
L 359.93164 -371.12 
L 359.610779 -371.12 
L 359.289919 -371.12 
L 358.969058 -371.12 
L 358.648197 -371.12 
L 358.327336 -371.12 
L 358.006476 -371.12 
L 357.685615 -371.12 
L 357.364754 -371.12 
L 357.043893 -371.12 
L 356.723033 -371.12 
L 356.402172 -371.12 
L 356.081311 -371.12 
L 355.76045 -371.12 
L 355.43959 -371.12 
L 355.118729 -371.12 
L 354.797868 -371.12 
L 354.477007 -371.12 
L 354.156147 -371.12 
L 353.835286 -371.12 
L 353.514425 -371.12 
L 353.193564 -371.12 
L 352.872704 -371.12 
L 352.551843 -371.12 
L 352.230982 -371.12 
L 351.910121 -371.12 
L 351.589261 -371.12 
L 351.2684 -371.12 
L 350.947539 -371.12 
L 350.626678 -371.12 
L 350.305818 -371.12 
L 349.984957 -371.12 
L 349.664096 -371.12 
L 349.343235 -371.12 
L 349.022375 -371.12 
L 348.701514 -371.12 
L 348.380653 -371.12 
L 348.059792 -371.12 
L 347.738932 -371.12 
L 347.418071 -371.12 
L 347.09721 -371.12 
L 346.776349 -371.12 
L 346.455489 -371.12 
L 346.134628 -371.12 
L 345.813767 -371.12 
L 345.492906 -371.12 
L 345.172046 -371.12 
L 344.851185 -371.12 
L 344.530324 -371.12 
L 344.209463 -371.12 
L 343.888603 -371.12 
L 343.567742 -371.12 
L 343.246881 -371.12 
L 342.92602 -371.12 
L 342.60516 -371.12 
L 342.284299 -371.12 
L 341.963438 -371.12 
L 341.642577 -371.12 
L 341.321717 -371.12 
L 341.000856 -371.12 
L 340.679995 -371.12 
L 340.359134 -371.12 
L 340.038274 -371.12 
L 339.717413 -371.12 
L 339.396552 -371.12 
L 339.075691 -371.12 
L 338.754831 -371.12 
L 338.43397 -371.12 
L 338.113109 -371.12 
L 337.792248 -371.12 
L 337.471388 -371.12 
L 337.150527 -371.12 
L 336.829666 -371.12 
L 336.508805 -371.12 
L 336.187945 -371.12 
L 335.867084 -371.12 
L 335.546223 -371.12 
L 335.225362 -371.12 
L 334.904502 -371.12 
L 334.583641 -371.12 
L 334.26278 -371.12 
L 333.941919 -371.12 
L 333.621059 -371.12 
L 333.300198 -371.12 
L 332.979337 -371.12 
L 332.658476 -371.12 
L 332.337616 -371.12 
L 332.016755 -371.12 
L 331.695894 -371.12 
L 331.375033 -371.12 
L 331.054173 -371.12 
L 330.733312 -371.12 
L 330.412451 -371.12 
L 330.09159 -371.12 
L 329.77073 -371.12 
L 329.449869 -371.12 
L 329.129008 -371.12 
L 328.808147 -371.12 
L 328.487287 -371.12 
L 328.166426 -371.12 
L 327.845565 -371.12 
L 327.524704 -371.12 
L 327.203844 -371.12 
L 326.882983 -371.12 
L 326.562122 -371.12 
L 326.241261 -371.12 
L 325.920401 -371.12 
L 325.59954 -371.12 
L 325.278679 -371.12 
L 324.957818 -371.12 
L 324.636958 -371.12 
L 324.316097 -371.12 
L 323.995236 -371.12 
L 323.674375 -371.12 
L 323.353515 -371.12 
L 323.032654 -371.12 
L 322.711793 -371.12 
L 322.390932 -371.12 
L 322.070072 -371.12 
L 321.749211 -371.12 
L 321.42835 -371.12 
L 321.107489 -371.12 
L 320.786629 -371.12 
L 320.465768 -371.12 
L 320.144907 -371.12 
L 319.824046 -371.12 
L 319.503186 -371.12 
L 319.182325 -371.12 
L 318.861464 -371.12 
L 318.540603 -371.12 
L 318.219743 -371.12 
L 317.898882 -371.12 
L 317.578021 -371.12 
L 317.25716 -371.12 
L 316.9363 -371.12 
L 316.615439 -371.12 
L 316.294578 -371.12 
L 315.973717 -371.12 
L 315.652857 -371.12 
L 315.331996 -371.12 
L 315.011135 -371.12 
L 314.690274 -371.12 
L 314.369414 -371.12 
L 314.048553 -371.12 
L 313.727692 -371.12 
L 313.406831 -371.12 
L 313.085971 -371.12 
L 312.76511 -371.12 
L 312.444249 -371.12 
L 312.123388 -371.12 
L 311.802528 -371.12 
L 311.481667 -371.12 
L 311.160806 -371.12 
L 310.839945 -371.12 
L 310.519085 -371.12 
L 310.198224 -371.12 
L 309.877363 -371.12 
L 309.556502 -371.12 
L 309.235642 -371.12 
L 308.914781 -371.12 
L 308.59392 -371.12 
L 308.273059 -371.12 
L 307.952199 -371.12 
L 307.631338 -371.12 
L 307.310477 -371.12 
L 306.989616 -371.12 
L 306.668756 -371.12 
L 306.347895 -371.12 
L 306.027034 -371.12 
L 305.706173 -371.12 
L 305.385313 -371.12 
L 305.064452 -371.12 
L 304.743591 -371.12 
L 304.42273 -371.12 
L 304.10187 -371.12 
L 303.781009 -371.12 
L 303.460148 -371.12 
L 303.139287 -371.12 
L 302.818427 -371.12 
L 302.497566 -371.12 
L 302.176705 -371.12 
L 301.855844 -371.12 
L 301.534984 -371.12 
L 301.214123 -371.12 
L 300.893262 -371.12 
L 300.572401 -371.12 
L 300.251541 -371.12 
L 299.93068 -371.12 
L 299.609819 -371.12 
L 299.288958 -371.12 
L 298.968098 -371.12 
L 298.647237 -371.12 
z
" style="stroke: #28b80b; stroke-opacity: 0.3"/>
    </defs>
    <g clip-path="url(#pabb5c1aa03)">
     <use xlink:href="#m02a3ec832a" x="0" y="648" style="fill: #28b80b; fill-opacity: 0.3; stroke: #28b80b; stroke-opacity: 0.3"/>
    </g>
   </g>
   <g id="patch_3">
    <path d="M 298.326376 272.927117 
Q 298.326376 200.030169 298.326376 127.133222 
" clip-path="url(#pabb5c1aa03)" style="fill: none; stroke: #000000; stroke-width: 1.5; stroke-linecap: round"/>
    <path d="M 300.826376 266.927117 
L 298.326376 272.927117 
L 295.826376 266.927117 
z
" clip-path="url(#pabb5c1aa03)" style="stroke: #000000; stroke-width: 1.5; stroke-linecap: round"/>
    <path d="M 295.826376 133.133222 
L 298.326376 127.133222 
L 300.826376 133.133222 
z
" clip-path="url(#pabb5c1aa03)" style="stroke: #000000; stroke-width: 1.5; stroke-linecap: round"/>
   </g>
   <g id="matplotlib.axis_1">
    <g id="xtick_1">
     <g id="line2d_1">
      <defs>
       <path id="mde0fe28e47" d="M 0 0 
L 0 3.5 
" style="stroke: #030303; stroke-width: 0.8"/>
      </defs>
      <g>
       <use xlink:href="#mde0fe28e47" x="111.344775" y="276.88" style="fill: #030303; stroke: #030303; stroke-width: 0.8"/>
      </g>
     </g>
     <g id="text_1">
      <!-- $\mathdefault{20}$ -->
      <g style="fill: #030303" transform="translate(103.024775 293.757969) scale(0.13 -0.13)">
       <defs>
        <path id="DejaVuSerif-32" d="M 819 3553 
L 469 3553 
L 469 4384 
Q 803 4563 1142 4656 
Q 1481 4750 1806 4750 
Q 2534 4750 2956 4397 
Q 3378 4044 3378 3438 
Q 3378 2753 2422 1800 
Q 2347 1728 2309 1691 
L 1131 513 
L 3078 513 
L 3078 1088 
L 3444 1088 
L 3444 0 
L 434 0 
L 434 341 
L 1850 1753 
Q 2319 2222 2519 2614 
Q 2719 3006 2719 3438 
Q 2719 3909 2473 4175 
Q 2228 4441 1797 4441 
Q 1350 4441 1106 4219 
Q 863 3997 819 3553 
z
" transform="scale(0.015625)"/>
        <path id="DejaVuSerif-30" d="M 2034 219 
Q 2513 219 2750 744 
Q 2988 1269 2988 2328 
Q 2988 3391 2750 3916 
Q 2513 4441 2034 4441 
Q 1556 4441 1318 3916 
Q 1081 3391 1081 2328 
Q 1081 1269 1318 744 
Q 1556 219 2034 219 
z
M 2034 -91 
Q 1275 -91 848 546 
Q 422 1184 422 2328 
Q 422 3475 848 4112 
Q 1275 4750 2034 4750 
Q 2797 4750 3222 4112 
Q 3647 3475 3647 2328 
Q 3647 1184 3222 546 
Q 2797 -91 2034 -91 
z
" transform="scale(0.015625)"/>
       </defs>
       <use xlink:href="#DejaVuSerif-32" transform="translate(0 0.78125)"/>
       <use xlink:href="#DejaVuSerif-30" transform="translate(63.623047 0.78125)"/>
      </g>
     </g>
    </g>
    <g id="xtick_2">
     <g id="line2d_2">
      <g>
       <use xlink:href="#mde0fe28e47" x="164.768089" y="276.88" style="fill: #030303; stroke: #030303; stroke-width: 0.8"/>
      </g>
     </g>
     <g id="text_2">
      <!-- $\mathdefault{30}$ -->
      <g style="fill: #030303" transform="translate(156.448089 293.757969) scale(0.13 -0.13)">
       <defs>
        <path id="DejaVuSerif-33" d="M 622 4469 
Q 988 4606 1323 4678 
Q 1659 4750 1953 4750 
Q 2638 4750 3022 4454 
Q 3406 4159 3406 3634 
Q 3406 3213 3140 2930 
Q 2875 2647 2388 2547 
Q 2963 2466 3280 2130 
Q 3597 1794 3597 1259 
Q 3597 606 3158 257 
Q 2719 -91 1894 -91 
Q 1528 -91 1179 -12 
Q 831 66 488 225 
L 488 1131 
L 838 1131 
Q 869 681 1141 450 
Q 1413 219 1906 219 
Q 2384 219 2661 495 
Q 2938 772 2938 1253 
Q 2938 1803 2653 2086 
Q 2369 2369 1819 2369 
L 1522 2369 
L 1522 2688 
L 1678 2688 
Q 2225 2688 2498 2914 
Q 2772 3141 2772 3597 
Q 2772 4006 2547 4223 
Q 2322 4441 1900 4441 
Q 1478 4441 1245 4241 
Q 1013 4041 972 3647 
L 622 3647 
L 622 4469 
z
" transform="scale(0.015625)"/>
       </defs>
       <use xlink:href="#DejaVuSerif-33" transform="translate(0 0.78125)"/>
       <use xlink:href="#DejaVuSerif-30" transform="translate(63.623047 0.78125)"/>
      </g>
     </g>
    </g>
    <g id="xtick_3">
     <g id="line2d_3">
      <g>
       <use xlink:href="#mde0fe28e47" x="218.191404" y="276.88" style="fill: #030303; stroke: #030303; stroke-width: 0.8"/>
      </g>
     </g>
     <g id="text_3">
      <!-- $\mathdefault{40}$ -->
      <g style="fill: #030303" transform="translate(209.871404 293.757969) scale(0.13 -0.13)">
       <defs>
        <path id="DejaVuSerif-34" d="M 2234 1581 
L 2234 4063 
L 641 1581 
L 2234 1581 
z
M 3609 0 
L 1484 0 
L 1484 331 
L 2234 331 
L 2234 1247 
L 197 1247 
L 197 1588 
L 2241 4750 
L 2859 4750 
L 2859 1581 
L 3750 1581 
L 3750 1247 
L 2859 1247 
L 2859 331 
L 3609 331 
L 3609 0 
z
" transform="scale(0.015625)"/>
       </defs>
       <use xlink:href="#DejaVuSerif-34" transform="translate(0 0.78125)"/>
       <use xlink:href="#DejaVuSerif-30" transform="translate(63.623047 0.78125)"/>
      </g>
     </g>
    </g>
    <g id="xtick_4">
     <g id="line2d_4">
      <g>
       <use xlink:href="#mde0fe28e47" x="271.614719" y="276.88" style="fill: #030303; stroke: #030303; stroke-width: 0.8"/>
      </g>
     </g>
     <g id="text_4">
      <!-- $\mathdefault{50}$ -->
      <g style="fill: #030303" transform="translate(263.294719 293.757969) scale(0.13 -0.13)">
       <defs>
        <path id="DejaVuSerif-35" d="M 3219 4666 
L 3219 4153 
L 1081 4153 
L 1081 2816 
Q 1244 2928 1461 2984 
Q 1678 3041 1947 3041 
Q 2703 3041 3140 2622 
Q 3578 2203 3578 1478 
Q 3578 738 3136 323 
Q 2694 -91 1894 -91 
Q 1572 -91 1234 -12 
Q 897 66 544 225 
L 544 1131 
L 897 1131 
Q 925 688 1179 453 
Q 1434 219 1894 219 
Q 2388 219 2653 544 
Q 2919 869 2919 1478 
Q 2919 2084 2655 2407 
Q 2391 2731 1894 2731 
Q 1613 2731 1398 2631 
Q 1184 2531 1019 2322 
L 750 2322 
L 750 4666 
L 3219 4666 
z
" transform="scale(0.015625)"/>
       </defs>
       <use xlink:href="#DejaVuSerif-35" transform="translate(0 0.78125)"/>
       <use xlink:href="#DejaVuSerif-30" transform="translate(63.623047 0.78125)"/>
      </g>
     </g>
    </g>
    <g id="xtick_5">
     <g id="line2d_5">
      <g>
       <use xlink:href="#mde0fe28e47" x="325.038034" y="276.88" style="fill: #030303; stroke: #030303; stroke-width: 0.8"/>
      </g>
     </g>
     <g id="text_5">
      <!-- $\mathdefault{60}$ -->
      <g style="fill: #030303" transform="translate(316.718034 293.757969) scale(0.13 -0.13)">
       <defs>
        <path id="DejaVuSerif-36" d="M 2094 219 
Q 2534 219 2771 542 
Q 3009 866 3009 1472 
Q 3009 2078 2771 2401 
Q 2534 2725 2094 2725 
Q 1647 2725 1412 2412 
Q 1178 2100 1178 1509 
Q 1178 888 1415 553 
Q 1653 219 2094 219 
z
M 1075 2569 
Q 1288 2803 1556 2918 
Q 1825 3034 2163 3034 
Q 2859 3034 3264 2615 
Q 3669 2197 3669 1472 
Q 3669 763 3233 336 
Q 2797 -91 2069 -91 
Q 1278 -91 853 498 
Q 428 1088 428 2181 
Q 428 3406 931 4078 
Q 1434 4750 2350 4750 
Q 2597 4750 2869 4703 
Q 3141 4656 3425 4563 
L 3425 3794 
L 3072 3794 
Q 3034 4109 2831 4275 
Q 2628 4441 2284 4441 
Q 1678 4441 1381 3981 
Q 1084 3522 1075 2569 
z
" transform="scale(0.015625)"/>
       </defs>
       <use xlink:href="#DejaVuSerif-36" transform="translate(0 0.78125)"/>
       <use xlink:href="#DejaVuSerif-30" transform="translate(63.623047 0.78125)"/>
      </g>
     </g>
    </g>
    <g id="xtick_6">
     <g id="line2d_6">
      <g>
       <use xlink:href="#mde0fe28e47" x="378.461348" y="276.88" style="fill: #030303; stroke: #030303; stroke-width: 0.8"/>
      </g>
     </g>
     <g id="text_6">
      <!-- $\mathdefault{70}$ -->
      <g style="fill: #030303" transform="translate(370.141348 293.757969) scale(0.13 -0.13)">
       <defs>
        <path id="DejaVuSerif-37" d="M 3609 4347 
L 1784 0 
L 1319 0 
L 3059 4153 
L 903 4153 
L 903 3578 
L 538 3578 
L 538 4666 
L 3609 4666 
L 3609 4347 
z
" transform="scale(0.015625)"/>
       </defs>
       <use xlink:href="#DejaVuSerif-37" transform="translate(0 0.78125)"/>
       <use xlink:href="#DejaVuSerif-30" transform="translate(63.623047 0.78125)"/>
      </g>
     </g>
    </g>
    <g id="text_7">
     <!-- Young's Modulus (MPa) -->
     <g style="fill: #030303" transform="translate(137.42478 314.13875) scale(0.18 -0.18)">
      <defs>
       <path id="DejaVuSerif-59" d="M 1209 0 
L 1209 331 
L 1806 331 
L 1806 2009 
L 366 4331 
L -72 4331 
L -72 4666 
L 1663 4666 
L 1663 4331 
L 1119 4331 
L 2284 2444 
L 3450 4331 
L 2925 4331 
L 2925 4666 
L 4281 4666 
L 4281 4331 
L 3841 4331 
L 2438 2069 
L 2438 331 
L 3034 331 
L 3034 0 
L 1209 0 
z
" transform="scale(0.015625)"/>
       <path id="DejaVuSerif-6f" d="M 1925 219 
Q 2388 219 2623 584 
Q 2859 950 2859 1663 
Q 2859 2375 2623 2739 
Q 2388 3103 1925 3103 
Q 1463 3103 1227 2739 
Q 991 2375 991 1663 
Q 991 950 1228 584 
Q 1466 219 1925 219 
z
M 1925 -91 
Q 1200 -91 759 389 
Q 319 869 319 1663 
Q 319 2456 758 2934 
Q 1197 3413 1925 3413 
Q 2653 3413 3092 2934 
Q 3531 2456 3531 1663 
Q 3531 869 3092 389 
Q 2653 -91 1925 -91 
z
" transform="scale(0.015625)"/>
       <path id="DejaVuSerif-75" d="M 2266 3322 
L 3341 3322 
L 3341 331 
L 3884 331 
L 3884 0 
L 2766 0 
L 2766 588 
Q 2606 256 2353 82 
Q 2100 -91 1766 -91 
Q 1213 -91 952 223 
Q 691 538 691 1209 
L 691 2988 
L 172 2988 
L 172 3322 
L 1269 3322 
L 1269 1388 
Q 1269 781 1417 556 
Q 1566 331 1947 331 
Q 2347 331 2556 625 
Q 2766 919 2766 1478 
L 2766 2988 
L 2266 2988 
L 2266 3322 
z
" transform="scale(0.015625)"/>
       <path id="DejaVuSerif-6e" d="M 263 0 
L 263 331 
L 781 331 
L 781 2988 
L 231 2988 
L 231 3322 
L 1356 3322 
L 1356 2731 
Q 1516 3069 1770 3241 
Q 2025 3413 2363 3413 
Q 2913 3413 3172 3097 
Q 3431 2781 3431 2113 
L 3431 331 
L 3944 331 
L 3944 0 
L 2356 0 
L 2356 331 
L 2853 331 
L 2853 1931 
Q 2853 2541 2703 2767 
Q 2553 2994 2175 2994 
Q 1775 2994 1565 2701 
Q 1356 2409 1356 1850 
L 1356 331 
L 1856 331 
L 1856 0 
L 263 0 
z
" transform="scale(0.015625)"/>
       <path id="DejaVuSerif-67" d="M 3359 2988 
L 3359 72 
Q 3359 -644 2965 -1033 
Q 2572 -1422 1844 -1422 
Q 1516 -1422 1216 -1362 
Q 916 -1303 641 -1184 
L 641 -488 
L 941 -488 
Q 997 -813 1206 -963 
Q 1416 -1113 1806 -1113 
Q 2313 -1113 2548 -827 
Q 2784 -541 2784 72 
L 2784 519 
Q 2616 206 2355 57 
Q 2094 -91 1709 -91 
Q 1097 -91 708 395 
Q 319 881 319 1663 
Q 319 2444 706 2928 
Q 1094 3413 1709 3413 
Q 2094 3413 2355 3264 
Q 2616 3116 2784 2803 
L 2784 3322 
L 3909 3322 
L 3909 2988 
L 3359 2988 
z
M 2784 1825 
Q 2784 2422 2554 2737 
Q 2325 3053 1888 3053 
Q 1444 3053 1217 2703 
Q 991 2353 991 1663 
Q 991 975 1217 622 
Q 1444 269 1888 269 
Q 2325 269 2554 583 
Q 2784 897 2784 1497 
L 2784 1825 
z
" transform="scale(0.015625)"/>
       <path id="DejaVuSerif-27" d="M 1125 4666 
L 1125 2931 
L 628 2931 
L 628 4666 
L 1125 4666 
z
" transform="scale(0.015625)"/>
       <path id="DejaVuSerif-73" d="M 359 184 
L 359 959 
L 691 959 
Q 703 588 923 403 
Q 1144 219 1575 219 
Q 1963 219 2166 364 
Q 2369 509 2369 788 
Q 2369 1006 2220 1140 
Q 2072 1275 1594 1428 
L 1178 1569 
Q 750 1706 558 1912 
Q 366 2119 366 2438 
Q 366 2894 700 3153 
Q 1034 3413 1625 3413 
Q 1888 3413 2178 3344 
Q 2469 3275 2778 3144 
L 2778 2419 
L 2447 2419 
Q 2434 2741 2221 2922 
Q 2009 3103 1644 3103 
Q 1281 3103 1095 2975 
Q 909 2847 909 2591 
Q 909 2381 1050 2254 
Q 1191 2128 1613 1997 
L 2069 1856 
Q 2541 1709 2748 1489 
Q 2956 1269 2956 922 
Q 2956 450 2595 179 
Q 2234 -91 1600 -91 
Q 1278 -91 972 -22 
Q 666 47 359 184 
z
" transform="scale(0.015625)"/>
       <path id="DejaVuSerif-20" transform="scale(0.015625)"/>
       <path id="DejaVuSerif-4d" d="M 353 0 
L 353 331 
L 947 331 
L 947 4331 
L 319 4331 
L 319 4666 
L 1678 4666 
L 3316 1344 
L 4953 4666 
L 6228 4666 
L 6228 4331 
L 5606 4331 
L 5606 331 
L 6203 331 
L 6203 0 
L 4378 0 
L 4378 331 
L 4972 331 
L 4972 3938 
L 3372 684 
L 2931 684 
L 1331 3938 
L 1331 331 
L 1925 331 
L 1925 0 
L 353 0 
z
" transform="scale(0.015625)"/>
       <path id="DejaVuSerif-64" d="M 3359 331 
L 3909 331 
L 3909 0 
L 2784 0 
L 2784 519 
Q 2616 206 2355 57 
Q 2094 -91 1709 -91 
Q 1097 -91 708 395 
Q 319 881 319 1663 
Q 319 2444 706 2928 
Q 1094 3413 1709 3413 
Q 2094 3413 2355 3264 
Q 2616 3116 2784 2803 
L 2784 4531 
L 2241 4531 
L 2241 4863 
L 3359 4863 
L 3359 331 
z
M 2784 1497 
L 2784 1825 
Q 2784 2422 2554 2737 
Q 2325 3053 1888 3053 
Q 1444 3053 1217 2703 
Q 991 2353 991 1663 
Q 991 975 1217 622 
Q 1444 269 1888 269 
Q 2325 269 2554 583 
Q 2784 897 2784 1497 
z
" transform="scale(0.015625)"/>
       <path id="DejaVuSerif-6c" d="M 1313 331 
L 1856 331 
L 1856 0 
L 184 0 
L 184 331 
L 738 331 
L 738 4531 
L 184 4531 
L 184 4863 
L 1313 4863 
L 1313 331 
z
" transform="scale(0.015625)"/>
       <path id="DejaVuSerif-28" d="M 2041 -997 
Q 1281 -656 893 83 
Q 506 822 506 1931 
Q 506 3044 893 3783 
Q 1281 4522 2041 4863 
L 2041 4556 
Q 1559 4225 1350 3623 
Q 1141 3022 1141 1931 
Q 1141 844 1350 242 
Q 1559 -359 2041 -691 
L 2041 -997 
z
" transform="scale(0.015625)"/>
       <path id="DejaVuSerif-50" d="M 1581 2375 
L 2406 2375 
Q 2872 2375 3115 2626 
Q 3359 2878 3359 3353 
Q 3359 3831 3115 4081 
Q 2872 4331 2406 4331 
L 1581 4331 
L 1581 2375 
z
M 353 0 
L 353 331 
L 947 331 
L 947 4331 
L 353 4331 
L 353 4666 
L 2559 4666 
Q 3259 4666 3668 4311 
Q 4078 3956 4078 3353 
Q 4078 2753 3668 2397 
Q 3259 2041 2559 2041 
L 1581 2041 
L 1581 331 
L 2303 331 
L 2303 0 
L 353 0 
z
" transform="scale(0.015625)"/>
       <path id="DejaVuSerif-61" d="M 2547 1044 
L 2547 1747 
L 1806 1747 
Q 1378 1747 1168 1562 
Q 959 1378 959 997 
Q 959 650 1171 447 
Q 1384 244 1747 244 
Q 2106 244 2326 466 
Q 2547 688 2547 1044 
z
M 3122 2075 
L 3122 331 
L 3634 331 
L 3634 0 
L 2547 0 
L 2547 359 
Q 2356 128 2106 18 
Q 1856 -91 1522 -91 
Q 969 -91 644 203 
Q 319 497 319 997 
Q 319 1513 691 1797 
Q 1063 2081 1741 2081 
L 2547 2081 
L 2547 2309 
Q 2547 2688 2317 2895 
Q 2088 3103 1672 3103 
Q 1328 3103 1125 2947 
Q 922 2791 872 2484 
L 575 2484 
L 575 3156 
Q 875 3284 1158 3348 
Q 1441 3413 1709 3413 
Q 2400 3413 2761 3070 
Q 3122 2728 3122 2075 
z
" transform="scale(0.015625)"/>
       <path id="DejaVuSerif-29" d="M 453 -997 
L 453 -691 
Q 934 -359 1145 242 
Q 1356 844 1356 1931 
Q 1356 3022 1145 3623 
Q 934 4225 453 4556 
L 453 4863 
Q 1216 4522 1603 3783 
Q 1991 3044 1991 1931 
Q 1991 822 1603 83 
Q 1216 -656 453 -997 
z
" transform="scale(0.015625)"/>
      </defs>
      <use xlink:href="#DejaVuSerif-59"/>
      <use xlink:href="#DejaVuSerif-6f" transform="translate(57.265625 0)"/>
      <use xlink:href="#DejaVuSerif-75" transform="translate(117.470703 0)"/>
      <use xlink:href="#DejaVuSerif-6e" transform="translate(181.875 0)"/>
      <use xlink:href="#DejaVuSerif-67" transform="translate(246.279297 0)"/>
      <use xlink:href="#DejaVuSerif-27" transform="translate(310.292969 0)"/>
      <use xlink:href="#DejaVuSerif-73" transform="translate(337.783203 0)"/>
      <use xlink:href="#DejaVuSerif-20" transform="translate(389.101562 0)"/>
      <use xlink:href="#DejaVuSerif-4d" transform="translate(420.888672 0)"/>
      <use xlink:href="#DejaVuSerif-6f" transform="translate(523.28125 0)"/>
      <use xlink:href="#DejaVuSerif-64" transform="translate(583.486328 0)"/>
      <use xlink:href="#DejaVuSerif-75" transform="translate(647.5 0)"/>
      <use xlink:href="#DejaVuSerif-6c" transform="translate(711.904297 0)"/>
      <use xlink:href="#DejaVuSerif-75" transform="translate(743.886719 0)"/>
      <use xlink:href="#DejaVuSerif-73" transform="translate(808.291016 0)"/>
      <use xlink:href="#DejaVuSerif-20" transform="translate(859.609375 0)"/>
      <use xlink:href="#DejaVuSerif-28" transform="translate(891.396484 0)"/>
      <use xlink:href="#DejaVuSerif-4d" transform="translate(930.410156 0)"/>
      <use xlink:href="#DejaVuSerif-50" transform="translate(1032.802734 0)"/>
      <use xlink:href="#DejaVuSerif-61" transform="translate(1095.587891 0)"/>
      <use xlink:href="#DejaVuSerif-29" transform="translate(1155.207031 0)"/>
     </g>
    </g>
   </g>
   <g id="matplotlib.axis_2">
    <g id="ytick_1">
     <g id="line2d_7">
      <defs>
       <path id="m1810070d52" d="M 0 0 
L -3.5 0 
" style="stroke: #030303; stroke-width: 0.8"/>
      </defs>
      <g>
       <use xlink:href="#m1810070d52" x="68.606123" y="276.88" style="fill: #030303; stroke: #030303; stroke-width: 0.8"/>
      </g>
     </g>
     <g id="text_8">
      <!-- $\mathdefault{0.000}$ -->
      <g style="fill: #030303" transform="translate(24.296123 281.818984) scale(0.13 -0.13)">
       <defs>
        <path id="DejaVuSerif-2e" d="M 603 325 
Q 603 500 722 622 
Q 841 744 1019 744 
Q 1191 744 1312 622 
Q 1434 500 1434 325 
Q 1434 153 1312 31 
Q 1191 -91 1019 -91 
Q 841 -91 722 29 
Q 603 150 603 325 
z
" transform="scale(0.015625)"/>
       </defs>
       <use xlink:href="#DejaVuSerif-30" transform="translate(0 0.78125)"/>
       <use xlink:href="#DejaVuSerif-2e" transform="translate(63.623047 0.78125)"/>
       <use xlink:href="#DejaVuSerif-30" transform="translate(95.410156 0.78125)"/>
       <use xlink:href="#DejaVuSerif-30" transform="translate(159.033203 0.78125)"/>
       <use xlink:href="#DejaVuSerif-30" transform="translate(222.65625 0.78125)"/>
      </g>
     </g>
    </g>
    <g id="ytick_2">
     <g id="line2d_8">
      <g>
       <use xlink:href="#m1810070d52" x="68.606123" y="245.119683" style="fill: #030303; stroke: #030303; stroke-width: 0.8"/>
      </g>
     </g>
     <g id="text_9">
      <!-- $\mathdefault{0.005}$ -->
      <g style="fill: #030303" transform="translate(24.296123 250.058667) scale(0.13 -0.13)">
       <use xlink:href="#DejaVuSerif-30" transform="translate(0 0.78125)"/>
       <use xlink:href="#DejaVuSerif-2e" transform="translate(63.623047 0.78125)"/>
       <use xlink:href="#DejaVuSerif-30" transform="translate(95.410156 0.78125)"/>
       <use xlink:href="#DejaVuSerif-30" transform="translate(159.033203 0.78125)"/>
       <use xlink:href="#DejaVuSerif-35" transform="translate(222.65625 0.78125)"/>
      </g>
     </g>
    </g>
    <g id="ytick_3">
     <g id="line2d_9">
      <g>
       <use xlink:href="#m1810070d52" x="68.606123" y="213.359366" style="fill: #030303; stroke: #030303; stroke-width: 0.8"/>
      </g>
     </g>
     <g id="text_10">
      <!-- $\mathdefault{0.010}$ -->
      <g style="fill: #030303" transform="translate(24.296123 218.29835) scale(0.13 -0.13)">
       <defs>
        <path id="DejaVuSerif-31" d="M 909 0 
L 909 331 
L 1722 331 
L 1722 4213 
L 781 3603 
L 781 4013 
L 1919 4750 
L 2350 4750 
L 2350 331 
L 3163 331 
L 3163 0 
L 909 0 
z
" transform="scale(0.015625)"/>
       </defs>
       <use xlink:href="#DejaVuSerif-30" transform="translate(0 0.78125)"/>
       <use xlink:href="#DejaVuSerif-2e" transform="translate(63.623047 0.78125)"/>
       <use xlink:href="#DejaVuSerif-30" transform="translate(95.410156 0.78125)"/>
       <use xlink:href="#DejaVuSerif-31" transform="translate(159.033203 0.78125)"/>
       <use xlink:href="#DejaVuSerif-30" transform="translate(222.65625 0.78125)"/>
      </g>
     </g>
    </g>
    <g id="ytick_4">
     <g id="line2d_10">
      <g>
       <use xlink:href="#m1810070d52" x="68.606123" y="181.599049" style="fill: #030303; stroke: #030303; stroke-width: 0.8"/>
      </g>
     </g>
     <g id="text_11">
      <!-- $\mathdefault{0.015}$ -->
      <g style="fill: #030303" transform="translate(24.296123 186.538033) scale(0.13 -0.13)">
       <use xlink:href="#DejaVuSerif-30" transform="translate(0 0.78125)"/>
       <use xlink:href="#DejaVuSerif-2e" transform="translate(63.623047 0.78125)"/>
       <use xlink:href="#DejaVuSerif-30" transform="translate(95.410156 0.78125)"/>
       <use xlink:href="#DejaVuSerif-31" transform="translate(159.033203 0.78125)"/>
       <use xlink:href="#DejaVuSerif-35" transform="translate(222.65625 0.78125)"/>
      </g>
     </g>
    </g>
    <g id="ytick_5">
     <g id="line2d_11">
      <g>
       <use xlink:href="#m1810070d52" x="68.606123" y="149.838732" style="fill: #030303; stroke: #030303; stroke-width: 0.8"/>
      </g>
     </g>
     <g id="text_12">
      <!-- $\mathdefault{0.020}$ -->
      <g style="fill: #030303" transform="translate(24.296123 154.777716) scale(0.13 -0.13)">
       <use xlink:href="#DejaVuSerif-30" transform="translate(0 0.78125)"/>
       <use xlink:href="#DejaVuSerif-2e" transform="translate(63.623047 0.78125)"/>
       <use xlink:href="#DejaVuSerif-30" transform="translate(95.410156 0.78125)"/>
       <use xlink:href="#DejaVuSerif-32" transform="translate(159.033203 0.78125)"/>
       <use xlink:href="#DejaVuSerif-30" transform="translate(222.65625 0.78125)"/>
      </g>
     </g>
    </g>
    <g id="ytick_6">
     <g id="line2d_12">
      <g>
       <use xlink:href="#m1810070d52" x="68.606123" y="118.078415" style="fill: #030303; stroke: #030303; stroke-width: 0.8"/>
      </g>
     </g>
     <g id="text_13">
      <!-- $\mathdefault{0.025}$ -->
      <g style="fill: #030303" transform="translate(24.296123 123.017399) scale(0.13 -0.13)">
       <use xlink:href="#DejaVuSerif-30" transform="translate(0 0.78125)"/>
       <use xlink:href="#DejaVuSerif-2e" transform="translate(63.623047 0.78125)"/>
       <use xlink:href="#DejaVuSerif-30" transform="translate(95.410156 0.78125)"/>
       <use xlink:href="#DejaVuSerif-32" transform="translate(159.033203 0.78125)"/>
       <use xlink:href="#DejaVuSerif-35" transform="translate(222.65625 0.78125)"/>
      </g>
     </g>
    </g>
    <g id="ytick_7">
     <g id="line2d_13">
      <g>
       <use xlink:href="#m1810070d52" x="68.606123" y="86.318098" style="fill: #030303; stroke: #030303; stroke-width: 0.8"/>
      </g>
     </g>
     <g id="text_14">
      <!-- $\mathdefault{0.030}$ -->
      <g style="fill: #030303" transform="translate(24.296123 91.257082) scale(0.13 -0.13)">
       <use xlink:href="#DejaVuSerif-30" transform="translate(0 0.78125)"/>
       <use xlink:href="#DejaVuSerif-2e" transform="translate(63.623047 0.78125)"/>
       <use xlink:href="#DejaVuSerif-30" transform="translate(95.410156 0.78125)"/>
       <use xlink:href="#DejaVuSerif-33" transform="translate(159.033203 0.78125)"/>
       <use xlink:href="#DejaVuSerif-30" transform="translate(222.65625 0.78125)"/>
      </g>
     </g>
    </g>
    <g id="ytick_8">
     <g id="line2d_14">
      <g>
       <use xlink:href="#m1810070d52" x="68.606123" y="54.55778" style="fill: #030303; stroke: #030303; stroke-width: 0.8"/>
      </g>
     </g>
     <g id="text_15">
      <!-- $\mathdefault{0.035}$ -->
      <g style="fill: #030303" transform="translate(24.296123 59.496765) scale(0.13 -0.13)">
       <use xlink:href="#DejaVuSerif-30" transform="translate(0 0.78125)"/>
       <use xlink:href="#DejaVuSerif-2e" transform="translate(63.623047 0.78125)"/>
       <use xlink:href="#DejaVuSerif-30" transform="translate(95.410156 0.78125)"/>
       <use xlink:href="#DejaVuSerif-33" transform="translate(159.033203 0.78125)"/>
       <use xlink:href="#DejaVuSerif-35" transform="translate(222.65625 0.78125)"/>
      </g>
     </g>
    </g>
    <g id="ytick_9">
     <g id="line2d_15">
      <g>
       <use xlink:href="#m1810070d52" x="68.606123" y="22.797463" style="fill: #030303; stroke: #030303; stroke-width: 0.8"/>
      </g>
     </g>
     <g id="text_16">
      <!-- $\mathdefault{0.040}$ -->
      <g style="fill: #030303" transform="translate(24.296123 27.736448) scale(0.13 -0.13)">
       <use xlink:href="#DejaVuSerif-30" transform="translate(0 0.78125)"/>
       <use xlink:href="#DejaVuSerif-2e" transform="translate(63.623047 0.78125)"/>
       <use xlink:href="#DejaVuSerif-30" transform="translate(95.410156 0.78125)"/>
       <use xlink:href="#DejaVuSerif-34" transform="translate(159.033203 0.78125)"/>
       <use xlink:href="#DejaVuSerif-30" transform="translate(222.65625 0.78125)"/>
      </g>
     </g>
    </g>
    <g id="text_17">
     <!-- Probability Density -->
     <g style="fill: #030303" transform="translate(16.296748 231.239844) rotate(-90) scale(0.18 -0.18)">
      <defs>
       <path id="DejaVuSerif-72" d="M 3059 3328 
L 3059 2497 
L 2728 2497 
Q 2713 2744 2591 2866 
Q 2469 2988 2234 2988 
Q 1809 2988 1582 2694 
Q 1356 2400 1356 1850 
L 1356 331 
L 2022 331 
L 2022 0 
L 263 0 
L 263 331 
L 781 331 
L 781 2994 
L 231 2994 
L 231 3322 
L 1356 3322 
L 1356 2731 
Q 1525 3078 1790 3245 
Q 2056 3413 2438 3413 
Q 2578 3413 2733 3391 
Q 2888 3369 3059 3328 
z
" transform="scale(0.015625)"/>
       <path id="DejaVuSerif-62" d="M 738 331 
L 738 4531 
L 184 4531 
L 184 4863 
L 1313 4863 
L 1313 2803 
Q 1481 3116 1742 3264 
Q 2003 3413 2388 3413 
Q 3000 3413 3387 2928 
Q 3775 2444 3775 1663 
Q 3775 881 3387 395 
Q 3000 -91 2388 -91 
Q 2003 -91 1742 57 
Q 1481 206 1313 519 
L 1313 0 
L 184 0 
L 184 331 
L 738 331 
z
M 1313 1497 
Q 1313 897 1542 583 
Q 1772 269 2209 269 
Q 2650 269 2876 622 
Q 3103 975 3103 1663 
Q 3103 2353 2876 2703 
Q 2650 3053 2209 3053 
Q 1772 3053 1542 2737 
Q 1313 2422 1313 1825 
L 1313 1497 
z
" transform="scale(0.015625)"/>
       <path id="DejaVuSerif-69" d="M 622 4353 
Q 622 4497 726 4603 
Q 831 4709 978 4709 
Q 1122 4709 1226 4603 
Q 1331 4497 1331 4353 
Q 1331 4206 1228 4103 
Q 1125 4000 978 4000 
Q 831 4000 726 4103 
Q 622 4206 622 4353 
z
M 1356 331 
L 1900 331 
L 1900 0 
L 231 0 
L 231 331 
L 781 331 
L 781 2988 
L 231 2988 
L 231 3322 
L 1356 3322 
L 1356 331 
z
" transform="scale(0.015625)"/>
       <path id="DejaVuSerif-74" d="M 691 2988 
L 184 2988 
L 184 3322 
L 691 3322 
L 691 4353 
L 1269 4353 
L 1269 3322 
L 2350 3322 
L 2350 2988 
L 1269 2988 
L 1269 878 
Q 1269 456 1350 337 
Q 1431 219 1650 219 
Q 1875 219 1978 351 
Q 2081 484 2088 781 
L 2522 781 
Q 2497 328 2275 118 
Q 2053 -91 1600 -91 
Q 1103 -91 897 129 
Q 691 350 691 878 
L 691 2988 
z
" transform="scale(0.015625)"/>
       <path id="DejaVuSerif-79" d="M 1381 -609 
L 1600 -56 
L 359 2988 
L -19 2988 
L -19 3322 
L 1509 3322 
L 1509 2988 
L 978 2988 
L 1913 703 
L 2847 2988 
L 2350 2988 
L 2350 3322 
L 3597 3322 
L 3597 2988 
L 3225 2988 
L 1703 -750 
Q 1547 -1138 1356 -1280 
Q 1166 -1422 819 -1422 
Q 672 -1422 517 -1397 
Q 363 -1372 206 -1325 
L 206 -691 
L 500 -691 
Q 519 -903 608 -995 
Q 697 -1088 884 -1088 
Q 1056 -1088 1161 -992 
Q 1266 -897 1381 -609 
z
" transform="scale(0.015625)"/>
       <path id="DejaVuSerif-44" d="M 1581 331 
L 2163 331 
Q 3072 331 3558 850 
Q 4044 1369 4044 2338 
Q 4044 3306 3559 3818 
Q 3075 4331 2163 4331 
L 1581 4331 
L 1581 331 
z
M 353 0 
L 353 331 
L 947 331 
L 947 4331 
L 353 4331 
L 353 4666 
L 2209 4666 
Q 3416 4666 4089 4050 
Q 4763 3434 4763 2338 
Q 4763 1238 4088 619 
Q 3413 0 2209 0 
L 353 0 
z
" transform="scale(0.015625)"/>
       <path id="DejaVuSerif-65" d="M 3469 1600 
L 991 1600 
L 991 1575 
Q 991 903 1244 561 
Q 1497 219 1991 219 
Q 2369 219 2611 417 
Q 2853 616 2950 1006 
L 3413 1006 
Q 3275 459 2904 184 
Q 2534 -91 1931 -91 
Q 1203 -91 761 389 
Q 319 869 319 1663 
Q 319 2450 753 2931 
Q 1188 3413 1894 3413 
Q 2647 3413 3050 2948 
Q 3453 2484 3469 1600 
z
M 2791 1931 
Q 2772 2513 2545 2808 
Q 2319 3103 1894 3103 
Q 1497 3103 1269 2806 
Q 1041 2509 991 1931 
L 2791 1931 
z
" transform="scale(0.015625)"/>
      </defs>
      <use xlink:href="#DejaVuSerif-50"/>
      <use xlink:href="#DejaVuSerif-72" transform="translate(67.285156 0)"/>
      <use xlink:href="#DejaVuSerif-6f" transform="translate(115.087891 0)"/>
      <use xlink:href="#DejaVuSerif-62" transform="translate(175.292969 0)"/>
      <use xlink:href="#DejaVuSerif-61" transform="translate(239.306641 0)"/>
      <use xlink:href="#DejaVuSerif-62" transform="translate(298.925781 0)"/>
      <use xlink:href="#DejaVuSerif-69" transform="translate(362.939453 0)"/>
      <use xlink:href="#DejaVuSerif-6c" transform="translate(394.921875 0)"/>
      <use xlink:href="#DejaVuSerif-69" transform="translate(426.904297 0)"/>
      <use xlink:href="#DejaVuSerif-74" transform="translate(458.886719 0)"/>
      <use xlink:href="#DejaVuSerif-79" transform="translate(499.072266 0)"/>
      <use xlink:href="#DejaVuSerif-20" transform="translate(555.566406 0)"/>
      <use xlink:href="#DejaVuSerif-44" transform="translate(587.353516 0)"/>
      <use xlink:href="#DejaVuSerif-65" transform="translate(667.529297 0)"/>
      <use xlink:href="#DejaVuSerif-6e" transform="translate(726.708984 0)"/>
      <use xlink:href="#DejaVuSerif-73" transform="translate(791.113281 0)"/>
      <use xlink:href="#DejaVuSerif-69" transform="translate(842.431641 0)"/>
      <use xlink:href="#DejaVuSerif-74" transform="translate(874.414062 0)"/>
      <use xlink:href="#DejaVuSerif-79" transform="translate(914.599609 0)"/>
     </g>
    </g>
   </g>
   <g id="line2d_16">
    <path d="M 84.633117 274.064862 
L 89.766889 273.141508 
L 94.579801 272.043278 
L 98.75099 270.873235 
L 102.92218 269.465487 
L 106.772509 267.923451 
L 110.301977 266.278218 
L 113.831446 264.385426 
L 117.040053 262.427818 
L 120.248661 260.22369 
L 123.457268 257.752527 
L 126.665876 254.993829 
L 129.874483 251.927423 
L 133.083091 248.533828 
L 136.291698 244.794645 
L 139.500306 240.692991 
L 142.708913 236.213956 
L 145.91752 231.34508 
L 149.126128 226.07685 
L 152.334735 220.403196 
L 155.864204 213.691491 
L 159.393672 206.49007 
L 163.244001 198.087987 
L 167.09433 189.139933 
L 171.26552 178.87212 
L 175.75757 167.216948 
L 180.891342 153.265 
L 187.629418 134.237415 
L 202.709873 91.366547 
L 207.522784 78.492632 
L 211.373113 68.77284 
L 214.902582 60.435175 
L 218.111189 53.413954 
L 220.998936 47.608532 
L 223.565822 42.896308 
L 226.132708 38.637878 
L 228.378733 35.306147 
L 230.624758 32.360401 
L 232.870783 29.815815 
L 234.795948 27.964101 
L 236.721112 26.42396 
L 238.646277 25.201331 
L 240.250581 24.428467 
L 241.854884 23.881488 
L 243.459188 23.56187 
L 245.063492 23.470476 
L 246.667796 23.607554 
L 248.272099 23.972734 
L 249.876403 24.565027 
L 251.480707 25.382837 
L 253.085011 26.42396 
L 255.010175 27.964101 
L 256.93534 29.815815 
L 258.860504 31.971998 
L 261.106529 34.86132 
L 263.352555 38.138911 
L 265.59858 41.788014 
L 268.165466 46.389568 
L 271.053213 52.079941 
L 273.940959 58.269509 
L 277.149567 65.672153 
L 280.679035 74.371345 
L 284.850225 85.272691 
L 289.983997 99.379195 
L 297.363794 120.409569 
L 308.59392 152.374456 
L 314.048553 167.216948 
L 318.861464 179.681887 
L 323.032654 189.90566 
L 326.882983 198.809424 
L 330.733312 207.164759 
L 334.26278 214.321981 
L 337.792248 220.9889 
L 341.321717 227.162789 
L 344.530324 232.350545 
L 347.738932 237.140591 
L 350.947539 241.543067 
L 354.156147 245.570964 
L 357.364754 249.239624 
L 360.573361 252.566269 
L 363.781969 255.569547 
L 366.990576 258.269109 
L 370.199184 260.68522 
L 373.407791 262.838408 
L 376.93726 264.927676 
L 380.466728 266.750388 
L 383.996196 268.332529 
L 387.846525 269.813317 
L 392.017715 271.163073 
L 396.188905 272.28313 
L 400.680955 273.269925 
L 405.173006 274.064862 
L 405.173006 274.064862 
" clip-path="url(#pabb5c1aa03)" style="fill: none; stroke: #28b80b; stroke-width: 2; stroke-linecap: square"/>
   </g>
   <g id="patch_4">
    <path d="M 68.606123 276.88 
L 68.606123 10.8 
" style="fill: none; stroke: #030303; stroke-width: 1.5; stroke-linejoin: miter; stroke-linecap: square"/>
   </g>
   <g id="patch_5">
    <path d="M 68.606123 276.88 
L 421.2 276.88 
" style="fill: none; stroke: #030303; stroke-width: 1.5; stroke-linejoin: miter; stroke-linecap: square"/>
   </g>
   <g id="legend_1">
    <g id="patch_6">
     <path d="M 270.959375 48.15625 
L 414.2 48.15625 
Q 416.2 48.15625 416.2 46.15625 
L 416.2 17.8 
Q 416.2 15.8 414.2 15.8 
L 270.959375 15.8 
Q 268.959375 15.8 268.959375 17.8 
L 268.959375 46.15625 
Q 268.959375 48.15625 270.959375 48.15625 
z
" style="fill: #ffffff; opacity: 0.8; stroke: #cccccc; stroke-linejoin: miter"/>
    </g>
    <g id="line2d_17">
     <path d="M 272.959375 23.898438 
L 282.959375 23.898438 
L 292.959375 23.898438 
" style="fill: none; stroke: #28b80b; stroke-width: 2; stroke-linecap: square"/>
    </g>
    <g id="text_18">
     <!-- Expected Distribution -->
     <g style="fill: #030303" transform="translate(300.959375 27.398438) scale(0.1 -0.1)">
      <defs>
       <path id="DejaVuSerif-45" d="M 353 0 
L 353 331 
L 947 331 
L 947 4331 
L 353 4331 
L 353 4666 
L 4109 4666 
L 4109 3628 
L 3725 3628 
L 3725 4281 
L 1581 4281 
L 1581 2719 
L 3109 2719 
L 3109 3303 
L 3494 3303 
L 3494 1753 
L 3109 1753 
L 3109 2338 
L 1581 2338 
L 1581 384 
L 3775 384 
L 3775 1038 
L 4159 1038 
L 4159 0 
L 353 0 
z
" transform="scale(0.015625)"/>
       <path id="DejaVuSerif-78" d="M 1863 2028 
L 2559 2988 
L 2113 2988 
L 2113 3322 
L 3391 3322 
L 3391 2988 
L 2950 2988 
L 2059 1759 
L 3097 331 
L 3531 331 
L 3531 0 
L 1997 0 
L 1997 331 
L 2419 331 
L 1697 1325 
L 972 331 
L 1403 331 
L 1403 0 
L 141 0 
L 141 331 
L 581 331 
L 1497 1594 
L 488 2988 
L 78 2988 
L 78 3322 
L 1563 3322 
L 1563 2988 
L 1166 2988 
L 1863 2028 
z
" transform="scale(0.015625)"/>
       <path id="DejaVuSerif-70" d="M 1313 1825 
L 1313 1497 
Q 1313 897 1542 583 
Q 1772 269 2209 269 
Q 2650 269 2876 622 
Q 3103 975 3103 1663 
Q 3103 2353 2876 2703 
Q 2650 3053 2209 3053 
Q 1772 3053 1542 2737 
Q 1313 2422 1313 1825 
z
M 738 2988 
L 184 2988 
L 184 3322 
L 1313 3322 
L 1313 2803 
Q 1481 3116 1742 3264 
Q 2003 3413 2388 3413 
Q 3000 3413 3387 2928 
Q 3775 2444 3775 1663 
Q 3775 881 3387 395 
Q 3000 -91 2388 -91 
Q 2003 -91 1742 57 
Q 1481 206 1313 519 
L 1313 -997 
L 1856 -997 
L 1856 -1331 
L 184 -1331 
L 184 -997 
L 738 -997 
L 738 2988 
z
" transform="scale(0.015625)"/>
       <path id="DejaVuSerif-63" d="M 3291 997 
Q 3169 466 2822 187 
Q 2475 -91 1925 -91 
Q 1200 -91 759 389 
Q 319 869 319 1663 
Q 319 2459 759 2936 
Q 1200 3413 1925 3413 
Q 2241 3413 2553 3339 
Q 2866 3266 3181 3116 
L 3181 2266 
L 2847 2266 
Q 2781 2703 2561 2903 
Q 2341 3103 1931 3103 
Q 1466 3103 1228 2742 
Q 991 2381 991 1663 
Q 991 944 1227 581 
Q 1463 219 1931 219 
Q 2303 219 2525 412 
Q 2747 606 2828 997 
L 3291 997 
z
" transform="scale(0.015625)"/>
      </defs>
      <use xlink:href="#DejaVuSerif-45"/>
      <use xlink:href="#DejaVuSerif-78" transform="translate(72.998047 0)"/>
      <use xlink:href="#DejaVuSerif-70" transform="translate(129.394531 0)"/>
      <use xlink:href="#DejaVuSerif-65" transform="translate(193.408203 0)"/>
      <use xlink:href="#DejaVuSerif-63" transform="translate(252.587891 0)"/>
      <use xlink:href="#DejaVuSerif-74" transform="translate(308.59375 0)"/>
      <use xlink:href="#DejaVuSerif-65" transform="translate(348.779297 0)"/>
      <use xlink:href="#DejaVuSerif-64" transform="translate(407.958984 0)"/>
      <use xlink:href="#DejaVuSerif-20" transform="translate(471.972656 0)"/>
      <use xlink:href="#DejaVuSerif-44" transform="translate(503.759766 0)"/>
      <use xlink:href="#DejaVuSerif-69" transform="translate(583.935547 0)"/>
      <use xlink:href="#DejaVuSerif-73" transform="translate(615.917969 0)"/>
      <use xlink:href="#DejaVuSerif-74" transform="translate(667.236328 0)"/>
      <use xlink:href="#DejaVuSerif-72" transform="translate(707.421875 0)"/>
      <use xlink:href="#DejaVuSerif-69" transform="translate(755.224609 0)"/>
      <use xlink:href="#DejaVuSerif-62" transform="translate(787.207031 0)"/>
      <use xlink:href="#DejaVuSerif-75" transform="translate(851.220703 0)"/>
      <use xlink:href="#DejaVuSerif-74" transform="translate(915.625 0)"/>
      <use xlink:href="#DejaVuSerif-69" transform="translate(955.810547 0)"/>
      <use xlink:href="#DejaVuSerif-6f" transform="translate(987.792969 0)"/>
      <use xlink:href="#DejaVuSerif-6e" transform="translate(1047.998047 0)"/>
     </g>
    </g>
    <g id="patch_7">
     <path d="M 272.959375 42.076563 
L 292.959375 42.076563 
L 292.959375 35.076563 
L 272.959375 35.076563 
z
" style="fill: #28b80b; fill-opacity: 0.3; stroke: #28b80b; stroke-opacity: 0.3; stroke-linejoin: miter"/>
    </g>
    <g id="text_19">
     <!-- Area: X &gt; 55 -->
     <g style="fill: #030303" transform="translate(300.959375 42.076563) scale(0.1 -0.1)">
      <defs>
       <path id="DejaVuSerif-41" d="M 1281 1691 
L 2994 1691 
L 2138 3909 
L 1281 1691 
z
M -38 0 
L -38 331 
L 372 331 
L 2034 4666 
L 2559 4666 
L 4225 331 
L 4684 331 
L 4684 0 
L 2988 0 
L 2988 331 
L 3506 331 
L 3116 1356 
L 1153 1356 
L 763 331 
L 1275 331 
L 1275 0 
L -38 0 
z
" transform="scale(0.015625)"/>
       <path id="DejaVuSerif-3a" d="M 666 325 
Q 666 500 786 622 
Q 906 744 1081 744 
Q 1256 744 1376 622 
Q 1497 500 1497 325 
Q 1497 150 1378 29 
Q 1259 -91 1081 -91 
Q 903 -91 784 29 
Q 666 150 666 325 
z
M 666 2363 
Q 666 2538 786 2658 
Q 906 2778 1081 2778 
Q 1259 2778 1378 2659 
Q 1497 2541 1497 2363 
Q 1497 2184 1378 2065 
Q 1259 1947 1081 1947 
Q 906 1947 786 2067 
Q 666 2188 666 2363 
z
" transform="scale(0.015625)"/>
       <path id="DejaVuSerif-58" d="M 2119 1997 
L 978 331 
L 1581 331 
L 1581 0 
L 38 0 
L 38 331 
L 575 331 
L 1919 2291 
L 556 4331 
L 56 4331 
L 56 4666 
L 1906 4666 
L 1906 4331 
L 1356 4331 
L 2356 2828 
L 3384 4331 
L 2784 4331 
L 2784 4666 
L 4313 4666 
L 4313 4331 
L 3788 4331 
L 2553 2534 
L 4025 331 
L 4525 331 
L 4525 0 
L 2675 0 
L 2675 331 
L 3231 331 
L 2119 1997 
z
" transform="scale(0.015625)"/>
       <path id="DejaVuSerif-3e" d="M 678 3188 
L 678 3719 
L 4684 2266 
L 4684 1747 
L 678 294 
L 678 825 
L 3922 2003 
L 678 3188 
z
" transform="scale(0.015625)"/>
      </defs>
      <use xlink:href="#DejaVuSerif-41"/>
      <use xlink:href="#DejaVuSerif-72" transform="translate(72.216797 0)"/>
      <use xlink:href="#DejaVuSerif-65" transform="translate(120.019531 0)"/>
      <use xlink:href="#DejaVuSerif-61" transform="translate(179.199219 0)"/>
      <use xlink:href="#DejaVuSerif-3a" transform="translate(238.818359 0)"/>
      <use xlink:href="#DejaVuSerif-20" transform="translate(272.509766 0)"/>
      <use xlink:href="#DejaVuSerif-58" transform="translate(304.296875 0)"/>
      <use xlink:href="#DejaVuSerif-20" transform="translate(375.488281 0)"/>
      <use xlink:href="#DejaVuSerif-3e" transform="translate(407.275391 0)"/>
      <use xlink:href="#DejaVuSerif-20" transform="translate(491.064453 0)"/>
      <use xlink:href="#DejaVuSerif-35" transform="translate(522.851562 0)"/>
      <use xlink:href="#DejaVuSerif-35" transform="translate(586.474609 0)"/>
     </g>
    </g>
   </g>
  </g>
  <g id="axes_2">
   <g id="patch_8">
    <path d="M 68.606123 595.48 
L 421.2 595.48 
L 421.2 329.4 
L 68.606123 329.4 
L 68.606123 595.48 
z
" style="fill: none"/>
   </g>
   <g id="FillBetweenPolyCollection_2">
    <defs>
     <path id="mcf6aa3bcd7" d="M 298.647237 -52.52 
L 298.647237 -266.38063 
L 298.968098 -266.74608 
L 299.288958 -267.109316 
L 299.609819 -267.470337 
L 299.93068 -267.829145 
L 300.251541 -268.18574 
L 300.572401 -268.540123 
L 300.893262 -268.892295 
L 301.214123 -269.242257 
L 301.534984 -269.590011 
L 301.855844 -269.935557 
L 302.176705 -270.278898 
L 302.497566 -270.620036 
L 302.818427 -270.958972 
L 303.139287 -271.295708 
L 303.460148 -271.630247 
L 303.781009 -271.962591 
L 304.10187 -272.292742 
L 304.42273 -272.620704 
L 304.743591 -272.946478 
L 305.064452 -273.270068 
L 305.385313 -273.591476 
L 305.706173 -273.910707 
L 306.027034 -274.227763 
L 306.347895 -274.542647 
L 306.668756 -274.855364 
L 306.989616 -275.165917 
L 307.310477 -275.47431 
L 307.631338 -275.780547 
L 307.952199 -276.084632 
L 308.273059 -276.386569 
L 308.59392 -276.686362 
L 308.914781 -276.984017 
L 309.235642 -277.279537 
L 309.556502 -277.572928 
L 309.877363 -277.864194 
L 310.198224 -278.15334 
L 310.519085 -278.440371 
L 310.839945 -278.725293 
L 311.160806 -279.008111 
L 311.481667 -279.288829 
L 311.802528 -279.567455 
L 312.123388 -279.843992 
L 312.444249 -280.118448 
L 312.76511 -280.390828 
L 313.085971 -280.661137 
L 313.406831 -280.929383 
L 313.727692 -281.19557 
L 314.048553 -281.459706 
L 314.369414 -281.721797 
L 314.690274 -281.981848 
L 315.011135 -282.239868 
L 315.331996 -282.495861 
L 315.652857 -282.749836 
L 315.973717 -283.001799 
L 316.294578 -283.251757 
L 316.615439 -283.499716 
L 316.9363 -283.745685 
L 317.25716 -283.989669 
L 317.578021 -284.231677 
L 317.898882 -284.471716 
L 318.219743 -284.709793 
L 318.540603 -284.945916 
L 318.861464 -285.180092 
L 319.182325 -285.412329 
L 319.503186 -285.642635 
L 319.824046 -285.871017 
L 320.144907 -286.097484 
L 320.465768 -286.322043 
L 320.786629 -286.544703 
L 321.107489 -286.765471 
L 321.42835 -286.984356 
L 321.749211 -287.201366 
L 322.070072 -287.416509 
L 322.390932 -287.629794 
L 322.711793 -287.841229 
L 323.032654 -288.050822 
L 323.353515 -288.258583 
L 323.674375 -288.464519 
L 323.995236 -288.66864 
L 324.316097 -288.870953 
L 324.636958 -289.071469 
L 324.957818 -289.270195 
L 325.278679 -289.467141 
L 325.59954 -289.662315 
L 325.920401 -289.855726 
L 326.241261 -290.047384 
L 326.562122 -290.237297 
L 326.882983 -290.425475 
L 327.203844 -290.611926 
L 327.524704 -290.79666 
L 327.845565 -290.979686 
L 328.166426 -291.161014 
L 328.487287 -291.340652 
L 328.808147 -291.51861 
L 329.129008 -291.694897 
L 329.449869 -291.869523 
L 329.77073 -292.042497 
L 330.09159 -292.213828 
L 330.412451 -292.383527 
L 330.733312 -292.551601 
L 331.054173 -292.718062 
L 331.375033 -292.882919 
L 331.695894 -293.04618 
L 332.016755 -293.207856 
L 332.337616 -293.367957 
L 332.658476 -293.526491 
L 332.979337 -293.68347 
L 333.300198 -293.838901 
L 333.621059 -293.992796 
L 333.941919 -294.145163 
L 334.26278 -294.296012 
L 334.583641 -294.445354 
L 334.904502 -294.593198 
L 335.225362 -294.739553 
L 335.546223 -294.88443 
L 335.867084 -295.027837 
L 336.187945 -295.169786 
L 336.508805 -295.310286 
L 336.829666 -295.449346 
L 337.150527 -295.586976 
L 337.471388 -295.723186 
L 337.792248 -295.857986 
L 338.113109 -295.991386 
L 338.43397 -296.123395 
L 338.754831 -296.254023 
L 339.075691 -296.383281 
L 339.396552 -296.511177 
L 339.717413 -296.637721 
L 340.038274 -296.762924 
L 340.359134 -296.886795 
L 340.679995 -297.009344 
L 341.000856 -297.13058 
L 341.321717 -297.250514 
L 341.642577 -297.369154 
L 341.963438 -297.486511 
L 342.284299 -297.602595 
L 342.60516 -297.717414 
L 342.92602 -297.83098 
L 343.246881 -297.943301 
L 343.567742 -298.054386 
L 343.888603 -298.164247 
L 344.209463 -298.272891 
L 344.530324 -298.38033 
L 344.851185 -298.486572 
L 345.172046 -298.591626 
L 345.492906 -298.695503 
L 345.813767 -298.798213 
L 346.134628 -298.899763 
L 346.455489 -299.000164 
L 346.776349 -299.099426 
L 347.09721 -299.197557 
L 347.418071 -299.294567 
L 347.738932 -299.390466 
L 348.059792 -299.485262 
L 348.380653 -299.578965 
L 348.701514 -299.671585 
L 349.022375 -299.76313 
L 349.343235 -299.853609 
L 349.664096 -299.943033 
L 349.984957 -300.031409 
L 350.305818 -300.118748 
L 350.626678 -300.205058 
L 350.947539 -300.290348 
L 351.2684 -300.374627 
L 351.589261 -300.457904 
L 351.910121 -300.540189 
L 352.230982 -300.62149 
L 352.551843 -300.701815 
L 352.872704 -300.781174 
L 353.193564 -300.859576 
L 353.514425 -300.937029 
L 353.835286 -301.013543 
L 354.156147 -301.089124 
L 354.477007 -301.163784 
L 354.797868 -301.237529 
L 355.118729 -301.310368 
L 355.43959 -301.382311 
L 355.76045 -301.453365 
L 356.081311 -301.523539 
L 356.402172 -301.592842 
L 356.723033 -301.661281 
L 357.043893 -301.728865 
L 357.364754 -301.795603 
L 357.685615 -301.861502 
L 358.006476 -301.926571 
L 358.327336 -301.990817 
L 358.648197 -302.05425 
L 358.969058 -302.116877 
L 359.289919 -302.178705 
L 359.610779 -302.239744 
L 359.93164 -302.3 
L 360.252501 -302.359483 
L 360.573361 -302.418199 
L 360.894222 -302.476156 
L 361.215083 -302.533363 
L 361.535944 -302.589826 
L 361.856804 -302.645554 
L 362.177665 -302.700554 
L 362.498526 -302.754833 
L 362.819387 -302.8084 
L 363.140247 -302.861261 
L 363.461108 -302.913424 
L 363.781969 -302.964897 
L 364.10283 -303.015686 
L 364.42369 -303.065799 
L 364.744551 -303.115244 
L 365.065412 -303.164026 
L 365.386273 -303.212154 
L 365.707133 -303.259635 
L 366.027994 -303.306475 
L 366.348855 -303.352682 
L 366.669716 -303.398262 
L 366.990576 -303.443222 
L 367.311437 -303.487569 
L 367.632298 -303.531311 
L 367.953159 -303.574452 
L 368.274019 -303.617002 
L 368.59488 -303.658965 
L 368.915741 -303.700348 
L 369.236602 -303.741159 
L 369.557462 -303.781403 
L 369.878323 -303.821087 
L 370.199184 -303.860218 
L 370.520045 -303.898801 
L 370.840905 -303.936843 
L 371.161766 -303.974351 
L 371.482627 -304.011329 
L 371.803488 -304.047785 
L 372.124348 -304.083725 
L 372.445209 -304.119155 
L 372.76607 -304.15408 
L 373.086931 -304.188506 
L 373.407791 -304.22244 
L 373.728652 -304.255887 
L 374.049513 -304.288854 
L 374.370374 -304.321345 
L 374.691234 -304.353367 
L 375.012095 -304.384925 
L 375.332956 -304.416024 
L 375.653817 -304.446671 
L 375.974677 -304.476871 
L 376.295538 -304.506629 
L 376.616399 -304.53595 
L 376.93726 -304.564841 
L 377.25812 -304.593306 
L 377.578981 -304.621351 
L 377.899842 -304.64898 
L 378.220703 -304.676199 
L 378.541563 -304.703014 
L 378.862424 -304.729428 
L 379.183285 -304.755448 
L 379.504146 -304.781078 
L 379.825006 -304.806323 
L 380.145867 -304.831188 
L 380.466728 -304.855678 
L 380.787589 -304.879797 
L 381.108449 -304.903551 
L 381.42931 -304.926943 
L 381.750171 -304.94998 
L 382.071032 -304.972665 
L 382.391892 -304.995002 
L 382.712753 -305.016997 
L 383.033614 -305.038654 
L 383.354475 -305.059977 
L 383.675335 -305.080971 
L 383.996196 -305.10164 
L 384.317057 -305.121988 
L 384.637918 -305.142019 
L 384.958778 -305.161739 
L 385.279639 -305.18115 
L 385.6005 -305.200258 
L 385.921361 -305.219065 
L 386.242221 -305.237577 
L 386.563082 -305.255797 
L 386.883943 -305.273729 
L 387.204804 -305.291377 
L 387.525664 -305.308746 
L 387.846525 -305.325837 
L 388.167386 -305.342657 
L 388.488247 -305.359207 
L 388.809107 -305.375493 
L 389.129968 -305.391517 
L 389.450829 -305.407284 
L 389.77169 -305.422796 
L 390.09255 -305.438058 
L 390.413411 -305.453072 
L 390.734272 -305.467843 
L 391.055133 -305.482374 
L 391.375993 -305.496668 
L 391.696854 -305.510729 
L 392.017715 -305.524559 
L 392.338576 -305.538163 
L 392.659436 -305.551543 
L 392.980297 -305.564703 
L 393.301158 -305.577645 
L 393.622019 -305.590373 
L 393.942879 -305.60289 
L 394.26374 -305.615199 
L 394.584601 -305.627304 
L 394.905462 -305.639206 
L 395.226322 -305.650909 
L 395.547183 -305.662416 
L 395.868044 -305.67373 
L 396.188905 -305.684853 
L 396.509765 -305.695789 
L 396.830626 -305.70654 
L 397.151487 -305.717109 
L 397.472348 -305.727499 
L 397.793208 -305.737712 
L 398.114069 -305.74775 
L 398.43493 -305.757618 
L 398.755791 -305.767316 
L 399.076651 -305.776849 
L 399.397512 -305.786217 
L 399.718373 -305.795424 
L 400.039234 -305.804473 
L 400.360094 -305.813365 
L 400.680955 -305.822102 
L 401.001816 -305.830688 
L 401.322677 -305.839125 
L 401.643537 -305.847415 
L 401.964398 -305.85556 
L 402.285259 -305.863562 
L 402.60612 -305.871424 
L 402.92698 -305.879148 
L 403.247841 -305.886736 
L 403.568702 -305.89419 
L 403.889563 -305.901512 
L 404.210423 -305.908704 
L 404.531284 -305.915769 
L 404.852145 -305.922708 
L 405.173006 -305.929524 
L 405.173006 -52.52 
L 405.173006 -52.52 
L 404.852145 -52.52 
L 404.531284 -52.52 
L 404.210423 -52.52 
L 403.889563 -52.52 
L 403.568702 -52.52 
L 403.247841 -52.52 
L 402.92698 -52.52 
L 402.60612 -52.52 
L 402.285259 -52.52 
L 401.964398 -52.52 
L 401.643537 -52.52 
L 401.322677 -52.52 
L 401.001816 -52.52 
L 400.680955 -52.52 
L 400.360094 -52.52 
L 400.039234 -52.52 
L 399.718373 -52.52 
L 399.397512 -52.52 
L 399.076651 -52.52 
L 398.755791 -52.52 
L 398.43493 -52.52 
L 398.114069 -52.52 
L 397.793208 -52.52 
L 397.472348 -52.52 
L 397.151487 -52.52 
L 396.830626 -52.52 
L 396.509765 -52.52 
L 396.188905 -52.52 
L 395.868044 -52.52 
L 395.547183 -52.52 
L 395.226322 -52.52 
L 394.905462 -52.52 
L 394.584601 -52.52 
L 394.26374 -52.52 
L 393.942879 -52.52 
L 393.622019 -52.52 
L 393.301158 -52.52 
L 392.980297 -52.52 
L 392.659436 -52.52 
L 392.338576 -52.52 
L 392.017715 -52.52 
L 391.696854 -52.52 
L 391.375993 -52.52 
L 391.055133 -52.52 
L 390.734272 -52.52 
L 390.413411 -52.52 
L 390.09255 -52.52 
L 389.77169 -52.52 
L 389.450829 -52.52 
L 389.129968 -52.52 
L 388.809107 -52.52 
L 388.488247 -52.52 
L 388.167386 -52.52 
L 387.846525 -52.52 
L 387.525664 -52.52 
L 387.204804 -52.52 
L 386.883943 -52.52 
L 386.563082 -52.52 
L 386.242221 -52.52 
L 385.921361 -52.52 
L 385.6005 -52.52 
L 385.279639 -52.52 
L 384.958778 -52.52 
L 384.637918 -52.52 
L 384.317057 -52.52 
L 383.996196 -52.52 
L 383.675335 -52.52 
L 383.354475 -52.52 
L 383.033614 -52.52 
L 382.712753 -52.52 
L 382.391892 -52.52 
L 382.071032 -52.52 
L 381.750171 -52.52 
L 381.42931 -52.52 
L 381.108449 -52.52 
L 380.787589 -52.52 
L 380.466728 -52.52 
L 380.145867 -52.52 
L 379.825006 -52.52 
L 379.504146 -52.52 
L 379.183285 -52.52 
L 378.862424 -52.52 
L 378.541563 -52.52 
L 378.220703 -52.52 
L 377.899842 -52.52 
L 377.578981 -52.52 
L 377.25812 -52.52 
L 376.93726 -52.52 
L 376.616399 -52.52 
L 376.295538 -52.52 
L 375.974677 -52.52 
L 375.653817 -52.52 
L 375.332956 -52.52 
L 375.012095 -52.52 
L 374.691234 -52.52 
L 374.370374 -52.52 
L 374.049513 -52.52 
L 373.728652 -52.52 
L 373.407791 -52.52 
L 373.086931 -52.52 
L 372.76607 -52.52 
L 372.445209 -52.52 
L 372.124348 -52.52 
L 371.803488 -52.52 
L 371.482627 -52.52 
L 371.161766 -52.52 
L 370.840905 -52.52 
L 370.520045 -52.52 
L 370.199184 -52.52 
L 369.878323 -52.52 
L 369.557462 -52.52 
L 369.236602 -52.52 
L 368.915741 -52.52 
L 368.59488 -52.52 
L 368.274019 -52.52 
L 367.953159 -52.52 
L 367.632298 -52.52 
L 367.311437 -52.52 
L 366.990576 -52.52 
L 366.669716 -52.52 
L 366.348855 -52.52 
L 366.027994 -52.52 
L 365.707133 -52.52 
L 365.386273 -52.52 
L 365.065412 -52.52 
L 364.744551 -52.52 
L 364.42369 -52.52 
L 364.10283 -52.52 
L 363.781969 -52.52 
L 363.461108 -52.52 
L 363.140247 -52.52 
L 362.819387 -52.52 
L 362.498526 -52.52 
L 362.177665 -52.52 
L 361.856804 -52.52 
L 361.535944 -52.52 
L 361.215083 -52.52 
L 360.894222 -52.52 
L 360.573361 -52.52 
L 360.252501 -52.52 
L 359.93164 -52.52 
L 359.610779 -52.52 
L 359.289919 -52.52 
L 358.969058 -52.52 
L 358.648197 -52.52 
L 358.327336 -52.52 
L 358.006476 -52.52 
L 357.685615 -52.52 
L 357.364754 -52.52 
L 357.043893 -52.52 
L 356.723033 -52.52 
L 356.402172 -52.52 
L 356.081311 -52.52 
L 355.76045 -52.52 
L 355.43959 -52.52 
L 355.118729 -52.52 
L 354.797868 -52.52 
L 354.477007 -52.52 
L 354.156147 -52.52 
L 353.835286 -52.52 
L 353.514425 -52.52 
L 353.193564 -52.52 
L 352.872704 -52.52 
L 352.551843 -52.52 
L 352.230982 -52.52 
L 351.910121 -52.52 
L 351.589261 -52.52 
L 351.2684 -52.52 
L 350.947539 -52.52 
L 350.626678 -52.52 
L 350.305818 -52.52 
L 349.984957 -52.52 
L 349.664096 -52.52 
L 349.343235 -52.52 
L 349.022375 -52.52 
L 348.701514 -52.52 
L 348.380653 -52.52 
L 348.059792 -52.52 
L 347.738932 -52.52 
L 347.418071 -52.52 
L 347.09721 -52.52 
L 346.776349 -52.52 
L 346.455489 -52.52 
L 346.134628 -52.52 
L 345.813767 -52.52 
L 345.492906 -52.52 
L 345.172046 -52.52 
L 344.851185 -52.52 
L 344.530324 -52.52 
L 344.209463 -52.52 
L 343.888603 -52.52 
L 343.567742 -52.52 
L 343.246881 -52.52 
L 342.92602 -52.52 
L 342.60516 -52.52 
L 342.284299 -52.52 
L 341.963438 -52.52 
L 341.642577 -52.52 
L 341.321717 -52.52 
L 341.000856 -52.52 
L 340.679995 -52.52 
L 340.359134 -52.52 
L 340.038274 -52.52 
L 339.717413 -52.52 
L 339.396552 -52.52 
L 339.075691 -52.52 
L 338.754831 -52.52 
L 338.43397 -52.52 
L 338.113109 -52.52 
L 337.792248 -52.52 
L 337.471388 -52.52 
L 337.150527 -52.52 
L 336.829666 -52.52 
L 336.508805 -52.52 
L 336.187945 -52.52 
L 335.867084 -52.52 
L 335.546223 -52.52 
L 335.225362 -52.52 
L 334.904502 -52.52 
L 334.583641 -52.52 
L 334.26278 -52.52 
L 333.941919 -52.52 
L 333.621059 -52.52 
L 333.300198 -52.52 
L 332.979337 -52.52 
L 332.658476 -52.52 
L 332.337616 -52.52 
L 332.016755 -52.52 
L 331.695894 -52.52 
L 331.375033 -52.52 
L 331.054173 -52.52 
L 330.733312 -52.52 
L 330.412451 -52.52 
L 330.09159 -52.52 
L 329.77073 -52.52 
L 329.449869 -52.52 
L 329.129008 -52.52 
L 328.808147 -52.52 
L 328.487287 -52.52 
L 328.166426 -52.52 
L 327.845565 -52.52 
L 327.524704 -52.52 
L 327.203844 -52.52 
L 326.882983 -52.52 
L 326.562122 -52.52 
L 326.241261 -52.52 
L 325.920401 -52.52 
L 325.59954 -52.52 
L 325.278679 -52.52 
L 324.957818 -52.52 
L 324.636958 -52.52 
L 324.316097 -52.52 
L 323.995236 -52.52 
L 323.674375 -52.52 
L 323.353515 -52.52 
L 323.032654 -52.52 
L 322.711793 -52.52 
L 322.390932 -52.52 
L 322.070072 -52.52 
L 321.749211 -52.52 
L 321.42835 -52.52 
L 321.107489 -52.52 
L 320.786629 -52.52 
L 320.465768 -52.52 
L 320.144907 -52.52 
L 319.824046 -52.52 
L 319.503186 -52.52 
L 319.182325 -52.52 
L 318.861464 -52.52 
L 318.540603 -52.52 
L 318.219743 -52.52 
L 317.898882 -52.52 
L 317.578021 -52.52 
L 317.25716 -52.52 
L 316.9363 -52.52 
L 316.615439 -52.52 
L 316.294578 -52.52 
L 315.973717 -52.52 
L 315.652857 -52.52 
L 315.331996 -52.52 
L 315.011135 -52.52 
L 314.690274 -52.52 
L 314.369414 -52.52 
L 314.048553 -52.52 
L 313.727692 -52.52 
L 313.406831 -52.52 
L 313.085971 -52.52 
L 312.76511 -52.52 
L 312.444249 -52.52 
L 312.123388 -52.52 
L 311.802528 -52.52 
L 311.481667 -52.52 
L 311.160806 -52.52 
L 310.839945 -52.52 
L 310.519085 -52.52 
L 310.198224 -52.52 
L 309.877363 -52.52 
L 309.556502 -52.52 
L 309.235642 -52.52 
L 308.914781 -52.52 
L 308.59392 -52.52 
L 308.273059 -52.52 
L 307.952199 -52.52 
L 307.631338 -52.52 
L 307.310477 -52.52 
L 306.989616 -52.52 
L 306.668756 -52.52 
L 306.347895 -52.52 
L 306.027034 -52.52 
L 305.706173 -52.52 
L 305.385313 -52.52 
L 305.064452 -52.52 
L 304.743591 -52.52 
L 304.42273 -52.52 
L 304.10187 -52.52 
L 303.781009 -52.52 
L 303.460148 -52.52 
L 303.139287 -52.52 
L 302.818427 -52.52 
L 302.497566 -52.52 
L 302.176705 -52.52 
L 301.855844 -52.52 
L 301.534984 -52.52 
L 301.214123 -52.52 
L 300.893262 -52.52 
L 300.572401 -52.52 
L 300.251541 -52.52 
L 299.93068 -52.52 
L 299.609819 -52.52 
L 299.288958 -52.52 
L 298.968098 -52.52 
L 298.647237 -52.52 
z
" style="stroke: #28b80b; stroke-opacity: 0.3"/>
    </defs>
    <g clip-path="url(#peefef209fe)">
     <use xlink:href="#mcf6aa3bcd7" x="0" y="648" style="fill: #28b80b; fill-opacity: 0.3; stroke: #28b80b; stroke-opacity: 0.3"/>
    </g>
   </g>
   <g id="matplotlib.axis_3">
    <g id="xtick_7">
     <g id="line2d_18">
      <g>
       <use xlink:href="#mde0fe28e47" x="111.344775" y="595.48" style="fill: #030303; stroke: #030303; stroke-width: 0.8"/>
      </g>
     </g>
     <g id="text_20">
      <!-- $\mathdefault{20}$ -->
      <g style="fill: #030303" transform="translate(103.024775 612.357969) scale(0.13 -0.13)">
       <use xlink:href="#DejaVuSerif-32" transform="translate(0 0.78125)"/>
       <use xlink:href="#DejaVuSerif-30" transform="translate(63.623047 0.78125)"/>
      </g>
     </g>
    </g>
    <g id="xtick_8">
     <g id="line2d_19">
      <g>
       <use xlink:href="#mde0fe28e47" x="164.768089" y="595.48" style="fill: #030303; stroke: #030303; stroke-width: 0.8"/>
      </g>
     </g>
     <g id="text_21">
      <!-- $\mathdefault{30}$ -->
      <g style="fill: #030303" transform="translate(156.448089 612.357969) scale(0.13 -0.13)">
       <use xlink:href="#DejaVuSerif-33" transform="translate(0 0.78125)"/>
       <use xlink:href="#DejaVuSerif-30" transform="translate(63.623047 0.78125)"/>
      </g>
     </g>
    </g>
    <g id="xtick_9">
     <g id="line2d_20">
      <g>
       <use xlink:href="#mde0fe28e47" x="218.191404" y="595.48" style="fill: #030303; stroke: #030303; stroke-width: 0.8"/>
      </g>
     </g>
     <g id="text_22">
      <!-- $\mathdefault{40}$ -->
      <g style="fill: #030303" transform="translate(209.871404 612.357969) scale(0.13 -0.13)">
       <use xlink:href="#DejaVuSerif-34" transform="translate(0 0.78125)"/>
       <use xlink:href="#DejaVuSerif-30" transform="translate(63.623047 0.78125)"/>
      </g>
     </g>
    </g>
    <g id="xtick_10">
     <g id="line2d_21">
      <g>
       <use xlink:href="#mde0fe28e47" x="271.614719" y="595.48" style="fill: #030303; stroke: #030303; stroke-width: 0.8"/>
      </g>
     </g>
     <g id="text_23">
      <!-- $\mathdefault{50}$ -->
      <g style="fill: #030303" transform="translate(263.294719 612.357969) scale(0.13 -0.13)">
       <use xlink:href="#DejaVuSerif-35" transform="translate(0 0.78125)"/>
       <use xlink:href="#DejaVuSerif-30" transform="translate(63.623047 0.78125)"/>
      </g>
     </g>
    </g>
    <g id="xtick_11">
     <g id="line2d_22">
      <g>
       <use xlink:href="#mde0fe28e47" x="325.038034" y="595.48" style="fill: #030303; stroke: #030303; stroke-width: 0.8"/>
      </g>
     </g>
     <g id="text_24">
      <!-- $\mathdefault{60}$ -->
      <g style="fill: #030303" transform="translate(316.718034 612.357969) scale(0.13 -0.13)">
       <use xlink:href="#DejaVuSerif-36" transform="translate(0 0.78125)"/>
       <use xlink:href="#DejaVuSerif-30" transform="translate(63.623047 0.78125)"/>
      </g>
     </g>
    </g>
    <g id="xtick_12">
     <g id="line2d_23">
      <g>
       <use xlink:href="#mde0fe28e47" x="378.461348" y="595.48" style="fill: #030303; stroke: #030303; stroke-width: 0.8"/>
      </g>
     </g>
     <g id="text_25">
      <!-- $\mathdefault{70}$ -->
      <g style="fill: #030303" transform="translate(370.141348 612.357969) scale(0.13 -0.13)">
       <use xlink:href="#DejaVuSerif-37" transform="translate(0 0.78125)"/>
       <use xlink:href="#DejaVuSerif-30" transform="translate(63.623047 0.78125)"/>
      </g>
     </g>
    </g>
    <g id="text_26">
     <!-- Young's Modulus (MPa) -->
     <g style="fill: #030303" transform="translate(137.42478 632.73875) scale(0.18 -0.18)">
      <use xlink:href="#DejaVuSerif-59"/>
      <use xlink:href="#DejaVuSerif-6f" transform="translate(57.265625 0)"/>
      <use xlink:href="#DejaVuSerif-75" transform="translate(117.470703 0)"/>
      <use xlink:href="#DejaVuSerif-6e" transform="translate(181.875 0)"/>
      <use xlink:href="#DejaVuSerif-67" transform="translate(246.279297 0)"/>
      <use xlink:href="#DejaVuSerif-27" transform="translate(310.292969 0)"/>
      <use xlink:href="#DejaVuSerif-73" transform="translate(337.783203 0)"/>
      <use xlink:href="#DejaVuSerif-20" transform="translate(389.101562 0)"/>
      <use xlink:href="#DejaVuSerif-4d" transform="translate(420.888672 0)"/>
      <use xlink:href="#DejaVuSerif-6f" transform="translate(523.28125 0)"/>
      <use xlink:href="#DejaVuSerif-64" transform="translate(583.486328 0)"/>
      <use xlink:href="#DejaVuSerif-75" transform="translate(647.5 0)"/>
      <use xlink:href="#DejaVuSerif-6c" transform="translate(711.904297 0)"/>
      <use xlink:href="#DejaVuSerif-75" transform="translate(743.886719 0)"/>
      <use xlink:href="#DejaVuSerif-73" transform="translate(808.291016 0)"/>
      <use xlink:href="#DejaVuSerif-20" transform="translate(859.609375 0)"/>
      <use xlink:href="#DejaVuSerif-28" transform="translate(891.396484 0)"/>
      <use xlink:href="#DejaVuSerif-4d" transform="translate(930.410156 0)"/>
      <use xlink:href="#DejaVuSerif-50" transform="translate(1032.802734 0)"/>
      <use xlink:href="#DejaVuSerif-61" transform="translate(1095.587891 0)"/>
      <use xlink:href="#DejaVuSerif-29" transform="translate(1155.207031 0)"/>
     </g>
    </g>
   </g>
   <g id="matplotlib.axis_4">
    <g id="ytick_10">
     <g id="line2d_24">
      <g>
       <use xlink:href="#m1810070d52" x="68.606123" y="595.48" style="fill: #030303; stroke: #030303; stroke-width: 0.8"/>
      </g>
     </g>
     <g id="text_27">
      <!-- $\mathdefault{0.0}$ -->
      <g style="fill: #030303" transform="translate(40.806123 600.418984) scale(0.13 -0.13)">
       <use xlink:href="#DejaVuSerif-30" transform="translate(0 0.78125)"/>
       <use xlink:href="#DejaVuSerif-2e" transform="translate(63.623047 0.78125)"/>
       <use xlink:href="#DejaVuSerif-30" transform="translate(95.410156 0.78125)"/>
      </g>
     </g>
    </g>
    <g id="ytick_11">
     <g id="line2d_25">
      <g>
       <use xlink:href="#m1810070d52" x="68.606123" y="544.729587" style="fill: #030303; stroke: #030303; stroke-width: 0.8"/>
      </g>
     </g>
     <g id="text_28">
      <!-- $\mathdefault{0.2}$ -->
      <g style="fill: #030303" transform="translate(41.196123 549.668572) scale(0.13 -0.13)">
       <use xlink:href="#DejaVuSerif-30" transform="translate(0 0.78125)"/>
       <use xlink:href="#DejaVuSerif-2e" transform="translate(63.623047 0.78125)"/>
       <use xlink:href="#DejaVuSerif-32" transform="translate(92.785156 0.78125)"/>
      </g>
     </g>
    </g>
    <g id="ytick_12">
     <g id="line2d_26">
      <g>
       <use xlink:href="#m1810070d52" x="68.606123" y="493.979175" style="fill: #030303; stroke: #030303; stroke-width: 0.8"/>
      </g>
     </g>
     <g id="text_29">
      <!-- $\mathdefault{0.4}$ -->
      <g style="fill: #030303" transform="translate(40.806123 498.918159) scale(0.13 -0.13)">
       <use xlink:href="#DejaVuSerif-30" transform="translate(0 0.78125)"/>
       <use xlink:href="#DejaVuSerif-2e" transform="translate(63.623047 0.78125)"/>
       <use xlink:href="#DejaVuSerif-34" transform="translate(95.410156 0.78125)"/>
      </g>
     </g>
    </g>
    <g id="ytick_13">
     <g id="line2d_27">
      <g>
       <use xlink:href="#m1810070d52" x="68.606123" y="443.228762" style="fill: #030303; stroke: #030303; stroke-width: 0.8"/>
      </g>
     </g>
     <g id="text_30">
      <!-- $\mathdefault{0.6}$ -->
      <g style="fill: #030303" transform="translate(40.806123 448.167746) scale(0.13 -0.13)">
       <use xlink:href="#DejaVuSerif-30" transform="translate(0 0.78125)"/>
       <use xlink:href="#DejaVuSerif-2e" transform="translate(63.623047 0.78125)"/>
       <use xlink:href="#DejaVuSerif-36" transform="translate(95.410156 0.78125)"/>
      </g>
     </g>
    </g>
    <g id="ytick_14">
     <g id="line2d_28">
      <g>
       <use xlink:href="#m1810070d52" x="68.606123" y="392.478349" style="fill: #030303; stroke: #030303; stroke-width: 0.8"/>
      </g>
     </g>
     <g id="text_31">
      <!-- $\mathdefault{0.8}$ -->
      <g style="fill: #030303" transform="translate(41.326123 397.417334) scale(0.13 -0.13)">
       <defs>
        <path id="DejaVuSerif-38" d="M 2981 1275 
Q 2981 1775 2732 2051 
Q 2484 2328 2034 2328 
Q 1584 2328 1336 2051 
Q 1088 1775 1088 1275 
Q 1088 772 1336 495 
Q 1584 219 2034 219 
Q 2484 219 2732 495 
Q 2981 772 2981 1275 
z
M 2853 3541 
Q 2853 3966 2637 4203 
Q 2422 4441 2034 4441 
Q 1650 4441 1433 4203 
Q 1216 3966 1216 3541 
Q 1216 3113 1433 2875 
Q 1650 2638 2034 2638 
Q 2422 2638 2637 2875 
Q 2853 3113 2853 3541 
z
M 2516 2484 
Q 3047 2413 3344 2092 
Q 3641 1772 3641 1275 
Q 3641 619 3225 264 
Q 2809 -91 2034 -91 
Q 1263 -91 845 264 
Q 428 619 428 1275 
Q 428 1772 725 2092 
Q 1022 2413 1556 2484 
Q 1084 2569 832 2842 
Q 581 3116 581 3541 
Q 581 4103 968 4426 
Q 1356 4750 2034 4750 
Q 2713 4750 3100 4426 
Q 3488 4103 3488 3541 
Q 3488 3116 3236 2842 
Q 2984 2569 2516 2484 
z
" transform="scale(0.015625)"/>
       </defs>
       <use xlink:href="#DejaVuSerif-30" transform="translate(0 0.78125)"/>
       <use xlink:href="#DejaVuSerif-2e" transform="translate(63.623047 0.78125)"/>
       <use xlink:href="#DejaVuSerif-38" transform="translate(91.785156 0.78125)"/>
      </g>
     </g>
    </g>
    <g id="ytick_15">
     <g id="line2d_29">
      <g>
       <use xlink:href="#m1810070d52" x="68.606123" y="341.727937" style="fill: #030303; stroke: #030303; stroke-width: 0.8"/>
      </g>
     </g>
     <g id="text_32">
      <!-- $\mathdefault{1.0}$ -->
      <g style="fill: #030303" transform="translate(40.806123 346.666921) scale(0.13 -0.13)">
       <use xlink:href="#DejaVuSerif-31" transform="translate(0 0.78125)"/>
       <use xlink:href="#DejaVuSerif-2e" transform="translate(63.623047 0.78125)"/>
       <use xlink:href="#DejaVuSerif-30" transform="translate(95.410156 0.78125)"/>
      </g>
     </g>
    </g>
    <g id="text_33">
     <!-- Cumulative Probability -->
     <g style="fill: #030303" transform="translate(32.806748 567.468594) rotate(-90) scale(0.18 -0.18)">
      <defs>
       <path id="DejaVuSerif-43" d="M 4513 1234 
Q 4306 581 3820 245 
Q 3334 -91 2591 -91 
Q 2134 -91 1743 65 
Q 1353 222 1050 525 
Q 700 875 529 1320 
Q 359 1766 359 2328 
Q 359 3416 987 4083 
Q 1616 4750 2644 4750 
Q 3025 4750 3456 4650 
Q 3888 4550 4384 4347 
L 4384 3272 
L 4031 3272 
Q 3916 3859 3567 4137 
Q 3219 4416 2591 4416 
Q 1844 4416 1459 3886 
Q 1075 3356 1075 2328 
Q 1075 1303 1459 773 
Q 1844 244 2591 244 
Q 3113 244 3450 492 
Q 3788 741 3938 1234 
L 4513 1234 
z
" transform="scale(0.015625)"/>
       <path id="DejaVuSerif-6d" d="M 3316 2675 
Q 3481 3041 3739 3227 
Q 3997 3413 4341 3413 
Q 4863 3413 5119 3089 
Q 5375 2766 5375 2113 
L 5375 331 
L 5894 331 
L 5894 0 
L 4300 0 
L 4300 331 
L 4800 331 
L 4800 2047 
Q 4800 2556 4650 2772 
Q 4500 2988 4153 2988 
Q 3769 2988 3567 2697 
Q 3366 2406 3366 1850 
L 3366 331 
L 3866 331 
L 3866 0 
L 2291 0 
L 2291 331 
L 2791 331 
L 2791 2069 
Q 2791 2566 2641 2777 
Q 2491 2988 2144 2988 
Q 1759 2988 1557 2697 
Q 1356 2406 1356 1850 
L 1356 331 
L 1856 331 
L 1856 0 
L 263 0 
L 263 331 
L 781 331 
L 781 2994 
L 231 2994 
L 231 3322 
L 1356 3322 
L 1356 2731 
Q 1516 3063 1762 3238 
Q 2009 3413 2322 3413 
Q 2709 3413 2968 3220 
Q 3228 3028 3316 2675 
z
" transform="scale(0.015625)"/>
       <path id="DejaVuSerif-76" d="M 1581 0 
L 359 2988 
L -19 2988 
L -19 3322 
L 1509 3322 
L 1509 2988 
L 978 2988 
L 1913 703 
L 2847 2988 
L 2350 2988 
L 2350 3322 
L 3597 3322 
L 3597 2988 
L 3225 2988 
L 2003 0 
L 1581 0 
z
" transform="scale(0.015625)"/>
      </defs>
      <use xlink:href="#DejaVuSerif-43"/>
      <use xlink:href="#DejaVuSerif-75" transform="translate(76.513672 0)"/>
      <use xlink:href="#DejaVuSerif-6d" transform="translate(140.917969 0)"/>
      <use xlink:href="#DejaVuSerif-75" transform="translate(235.742188 0)"/>
      <use xlink:href="#DejaVuSerif-6c" transform="translate(300.146484 0)"/>
      <use xlink:href="#DejaVuSerif-61" transform="translate(332.128906 0)"/>
      <use xlink:href="#DejaVuSerif-74" transform="translate(391.748047 0)"/>
      <use xlink:href="#DejaVuSerif-69" transform="translate(431.933594 0)"/>
      <use xlink:href="#DejaVuSerif-76" transform="translate(463.916016 0)"/>
      <use xlink:href="#DejaVuSerif-65" transform="translate(520.410156 0)"/>
      <use xlink:href="#DejaVuSerif-20" transform="translate(579.589844 0)"/>
      <use xlink:href="#DejaVuSerif-50" transform="translate(611.376953 0)"/>
      <use xlink:href="#DejaVuSerif-72" transform="translate(678.662109 0)"/>
      <use xlink:href="#DejaVuSerif-6f" transform="translate(726.464844 0)"/>
      <use xlink:href="#DejaVuSerif-62" transform="translate(786.669922 0)"/>
      <use xlink:href="#DejaVuSerif-61" transform="translate(850.683594 0)"/>
      <use xlink:href="#DejaVuSerif-62" transform="translate(910.302734 0)"/>
      <use xlink:href="#DejaVuSerif-69" transform="translate(974.316406 0)"/>
      <use xlink:href="#DejaVuSerif-6c" transform="translate(1006.298828 0)"/>
      <use xlink:href="#DejaVuSerif-69" transform="translate(1038.28125 0)"/>
      <use xlink:href="#DejaVuSerif-74" transform="translate(1070.263672 0)"/>
      <use xlink:href="#DejaVuSerif-79" transform="translate(1110.449219 0)"/>
     </g>
    </g>
   </g>
   <g id="line2d_30">
    <path d="M 84.633117 595.137461 
L 96.825826 594.772639 
L 106.451648 594.267914 
L 114.473167 593.623961 
L 121.211243 592.866902 
L 127.307597 591.96277 
L 132.76223 590.936802 
L 137.896002 589.748126 
L 142.708913 588.405494 
L 147.200963 586.925351 
L 151.372153 585.331332 
L 155.543343 583.503949 
L 159.714533 581.421765 
L 163.564862 579.255321 
L 167.415191 576.837731 
L 171.26552 574.153852 
L 175.115849 571.189785 
L 178.966178 567.93323 
L 182.816507 564.373854 
L 186.666836 560.503645 
L 190.517165 556.317252 
L 194.367494 551.812295 
L 198.538683 546.573518 
L 202.709873 540.967644 
L 207.201924 534.532412 
L 211.693974 527.704004 
L 216.506885 519.982354 
L 221.640657 511.32993 
L 227.416151 501.157779 
L 234.475087 488.239285 
L 244.742631 468.907969 
L 257.577061 444.811255 
L 264.635998 432.044948 
L 270.411491 422.043276 
L 275.545263 413.572302 
L 280.358174 406.042108 
L 284.850225 399.407344 
L 289.342275 393.176659 
L 293.513465 387.767445 
L 297.684655 382.729009 
L 301.534984 378.409989 
L 305.385313 374.408524 
L 309.235642 370.720463 
L 313.085971 367.338863 
L 316.9363 364.254315 
L 320.786629 361.455297 
L 324.636958 358.928531 
L 328.487287 356.659348 
L 332.337616 354.632043 
L 336.508805 352.689714 
L 340.679995 350.990656 
L 345.172046 349.408374 
L 349.664096 348.056967 
L 354.477007 346.836216 
L 359.610779 345.760256 
L 365.386273 344.787846 
L 371.482627 343.988671 
L 378.541563 343.296986 
L 386.563082 342.744203 
L 396.188905 342.315147 
L 405.173006 342.070476 
L 405.173006 342.070476 
" clip-path="url(#peefef209fe)" style="fill: none; stroke: #28b80b; stroke-width: 2; stroke-linecap: square"/>
   </g>
   <g id="patch_9">
    <path d="M 68.606123 595.48 
L 68.606123 329.4 
" style="fill: none; stroke: #030303; stroke-width: 1.5; stroke-linejoin: miter; stroke-linecap: square"/>
   </g>
   <g id="patch_10">
    <path d="M 68.606123 595.48 
L 421.2 595.48 
" style="fill: none; stroke: #030303; stroke-width: 1.5; stroke-linejoin: miter; stroke-linecap: square"/>
   </g>
   <g id="text_34">
    <!-- $1 - \text{CDF}(-\infty, 55)$ -->
    <g transform="translate(300.997542 471.915218) scale(0.12 -0.12)">
     <defs>
      <path id="DejaVuSans-31" d="M 794 531 
L 1825 531 
L 1825 4091 
L 703 3866 
L 703 4441 
L 1819 4666 
L 2450 4666 
L 2450 531 
L 3481 531 
L 3481 0 
L 794 0 
L 794 531 
z
" transform="scale(0.015625)"/>
      <path id="DejaVuSans-2212" d="M 678 2272 
L 4684 2272 
L 4684 1741 
L 678 1741 
L 678 2272 
z
" transform="scale(0.015625)"/>
      <path id="DejaVuSans-43" d="M 4122 4306 
L 4122 3641 
Q 3803 3938 3442 4084 
Q 3081 4231 2675 4231 
Q 1875 4231 1450 3742 
Q 1025 3253 1025 2328 
Q 1025 1406 1450 917 
Q 1875 428 2675 428 
Q 3081 428 3442 575 
Q 3803 722 4122 1019 
L 4122 359 
Q 3791 134 3420 21 
Q 3050 -91 2638 -91 
Q 1578 -91 968 557 
Q 359 1206 359 2328 
Q 359 3453 968 4101 
Q 1578 4750 2638 4750 
Q 3056 4750 3426 4639 
Q 3797 4528 4122 4306 
z
" transform="scale(0.015625)"/>
      <path id="DejaVuSans-44" d="M 1259 4147 
L 1259 519 
L 2022 519 
Q 2988 519 3436 956 
Q 3884 1394 3884 2338 
Q 3884 3275 3436 3711 
Q 2988 4147 2022 4147 
L 1259 4147 
z
M 628 4666 
L 1925 4666 
Q 3281 4666 3915 4102 
Q 4550 3538 4550 2338 
Q 4550 1131 3912 565 
Q 3275 0 1925 0 
L 628 0 
L 628 4666 
z
" transform="scale(0.015625)"/>
      <path id="DejaVuSans-46" d="M 628 4666 
L 3309 4666 
L 3309 4134 
L 1259 4134 
L 1259 2759 
L 3109 2759 
L 3109 2228 
L 1259 2228 
L 1259 0 
L 628 0 
L 628 4666 
z
" transform="scale(0.015625)"/>
      <path id="DejaVuSans-28" d="M 1984 4856 
Q 1566 4138 1362 3434 
Q 1159 2731 1159 2009 
Q 1159 1288 1364 580 
Q 1569 -128 1984 -844 
L 1484 -844 
Q 1016 -109 783 600 
Q 550 1309 550 2009 
Q 550 2706 781 3412 
Q 1013 4119 1484 4856 
L 1984 4856 
z
" transform="scale(0.015625)"/>
      <path id="DejaVuSans-221e" d="M 2916 1091 
Q 2819 1203 2666 1466 
Q 2456 1091 2272 925 
Q 2041 725 1681 725 
Q 1259 725 981 1041 
Q 688 1372 688 1919 
Q 688 2444 981 2800 
Q 1244 3116 1688 3116 
Q 1916 3116 2084 3022 
Q 2281 2919 2416 2741 
Q 2541 2581 2666 2366 
Q 2875 2741 3059 2906 
Q 3291 3106 3650 3106 
Q 4072 3106 4350 2791 
Q 4644 2459 4644 1913 
Q 4644 1388 4350 1031 
Q 4088 716 3644 716 
Q 3416 716 3247 809 
Q 3078 894 2916 1091 
z
M 1647 1134 
Q 2163 1134 2472 1884 
Q 2075 2703 1647 2703 
Q 1334 2703 1175 2478 
Q 1003 2238 1003 1919 
Q 1003 1569 1175 1353 
Q 1350 1134 1647 1134 
z
M 3684 2697 
Q 3219 2697 2859 1947 
Q 3253 1128 3684 1128 
Q 3997 1128 4156 1353 
Q 4328 1594 4328 1913 
Q 4328 2263 4156 2478 
Q 3981 2697 3684 2697 
z
" transform="scale(0.015625)"/>
      <path id="DejaVuSans-2c" d="M 750 794 
L 1409 794 
L 1409 256 
L 897 -744 
L 494 -744 
L 750 256 
L 750 794 
z
" transform="scale(0.015625)"/>
      <path id="DejaVuSans-35" d="M 691 4666 
L 3169 4666 
L 3169 4134 
L 1269 4134 
L 1269 2991 
Q 1406 3038 1543 3061 
Q 1681 3084 1819 3084 
Q 2600 3084 3056 2656 
Q 3513 2228 3513 1497 
Q 3513 744 3044 326 
Q 2575 -91 1722 -91 
Q 1428 -91 1123 -41 
Q 819 9 494 109 
L 494 744 
Q 775 591 1075 516 
Q 1375 441 1709 441 
Q 2250 441 2565 725 
Q 2881 1009 2881 1497 
Q 2881 1984 2565 2268 
Q 2250 2553 1709 2553 
Q 1456 2553 1204 2497 
Q 953 2441 691 2322 
L 691 4666 
z
" transform="scale(0.015625)"/>
      <path id="DejaVuSans-29" d="M 513 4856 
L 1013 4856 
Q 1481 4119 1714 3412 
Q 1947 2706 1947 2009 
Q 1947 1309 1714 600 
Q 1481 -109 1013 -844 
L 513 -844 
Q 928 -128 1133 580 
Q 1338 1288 1338 2009 
Q 1338 2731 1133 3434 
Q 928 4138 513 4856 
z
" transform="scale(0.015625)"/>
     </defs>
     <use xlink:href="#DejaVuSans-31" transform="translate(0 0.125)"/>
     <use xlink:href="#DejaVuSans-2212" transform="translate(83.105469 0.125)"/>
     <use xlink:href="#DejaVuSans-43" transform="translate(186.376953 0.125)"/>
     <use xlink:href="#DejaVuSans-44" transform="translate(256.201172 0.125)"/>
     <use xlink:href="#DejaVuSans-46" transform="translate(333.203125 0.125)"/>
     <use xlink:href="#DejaVuSans-28" transform="translate(390.722656 0.125)"/>
     <use xlink:href="#DejaVuSans-2212" transform="translate(429.736328 0.125)"/>
     <use xlink:href="#DejaVuSans-221e" transform="translate(513.525391 0.125)"/>
     <use xlink:href="#DejaVuSans-2c" transform="translate(596.826172 0.125)"/>
     <use xlink:href="#DejaVuSans-35" transform="translate(648.095703 0.125)"/>
     <use xlink:href="#DejaVuSans-35" transform="translate(711.71875 0.125)"/>
     <use xlink:href="#DejaVuSans-29" transform="translate(775.341797 0.125)"/>
    </g>
   </g>
   <g id="text_35">
    <!-- $\text{CDF}(-\infty, 55)$ -->
    <g transform="translate(217.624045 560.728441) scale(0.12 -0.12)">
     <use xlink:href="#DejaVuSans-43" transform="translate(0 0.125)"/>
     <use xlink:href="#DejaVuSans-44" transform="translate(69.824219 0.125)"/>
     <use xlink:href="#DejaVuSans-46" transform="translate(146.826172 0.125)"/>
     <use xlink:href="#DejaVuSans-28" transform="translate(204.345703 0.125)"/>
     <use xlink:href="#DejaVuSans-2212" transform="translate(243.359375 0.125)"/>
     <use xlink:href="#DejaVuSans-221e" transform="translate(327.148438 0.125)"/>
     <use xlink:href="#DejaVuSans-2c" transform="translate(410.449219 0.125)"/>
     <use xlink:href="#DejaVuSans-35" transform="translate(461.71875 0.125)"/>
     <use xlink:href="#DejaVuSans-35" transform="translate(525.341797 0.125)"/>
     <use xlink:href="#DejaVuSans-29" transform="translate(588.964844 0.125)"/>
    </g>
   </g>
  </g>
 </g>
 <defs>
  <clipPath id="pabb5c1aa03">
   <rect x="68.606123" y="10.8" width="352.593877" height="266.08"/>
  </clipPath>
  <clipPath id="peefef209fe">
   <rect x="68.606123" y="329.4" width="352.593877" height="266.08"/>
  </clipPath>
 </defs>
</svg>
