<?xml version="1.0" encoding="utf-8" standalone="no"?>
<!DOCTYPE svg PUBLIC "-//W3C//DTD SVG 1.1//EN"
  "http://www.w3.org/Graphics/SVG/1.1/DTD/svg11.dtd">
<svg xmlns:xlink="http://www.w3.org/1999/xlink" width="432pt" height="648pt" viewBox="0 0 432 648" xmlns="http://www.w3.org/2000/svg" version="1.1">
 <metadata>
  <rdf:RDF xmlns:dc="http://purl.org/dc/elements/1.1/" xmlns:cc="http://creativecommons.org/ns#" xmlns:rdf="http://www.w3.org/1999/02/22-rdf-syntax-ns#">
   <cc:Work>
    <dc:type rdf:resource="http://purl.org/dc/dcmitype/StillImage"/>
    <dc:date>2025-01-15T22:04:44.861931</dc:date>
    <dc:format>image/svg+xml</dc:format>
    <dc:creator>
     <cc:Agent>
      <dc:title>Matplotlib v3.10.0, https://matplotlib.org/</dc:title>
     </cc:Agent>
    </dc:creator>
   </cc:Work>
  </rdf:RDF>
 </metadata>
 <defs>
  <style type="text/css">*{stroke-linejoin: round; stroke-linecap: butt}</style>
 </defs>
 <g id="figure_1">
  <g id="patch_1">
   <path d="M 0 648 
L 432 648 
L 432 0 
L 0 0 
L 0 648 
z
" style="fill: none"/>
  </g>
  <g id="axes_1">
   <g id="patch_2">
    <path d="M 68.606123 274.36 
L 421.2 274.36 
L 421.2 10.8 
L 68.606123 10.8 
L 68.606123 274.36 
z
" style="fill: none"/>
   </g>
   <g id="FillBetweenPolyCollection_1">
    <defs>
     <path id="m7d1687f6be" d="M 298.647237 -373.64 
L 298.647237 -524.971281 
L 298.968098 -524.05697 
L 299.288958 -523.142789 
L 299.609819 -522.228805 
L 299.93068 -521.315081 
L 300.251541 -520.401682 
L 300.572401 -519.488671 
L 300.893262 -518.576112 
L 301.214123 -517.664067 
L 301.534984 -516.752599 
L 301.855844 -515.84177 
L 302.176705 -514.931641 
L 302.497566 -514.022273 
L 302.818427 -513.113726 
L 303.139287 -512.206061 
L 303.460148 -511.299338 
L 303.781009 -510.393614 
L 304.10187 -509.488949 
L 304.42273 -508.585401 
L 304.743591 -507.683027 
L 305.064452 -506.781885 
L 305.385313 -505.882031 
L 305.706173 -504.98352 
L 306.027034 -504.086409 
L 306.347895 -503.190751 
L 306.668756 -502.296603 
L 306.989616 -501.404017 
L 307.310477 -500.513047 
L 307.631338 -499.623746 
L 307.952199 -498.736165 
L 308.273059 -497.850357 
L 308.59392 -496.966373 
L 308.914781 -496.084263 
L 309.235642 -495.204077 
L 309.556502 -494.325865 
L 309.877363 -493.449676 
L 310.198224 -492.575557 
L 310.519085 -491.703557 
L 310.839945 -490.833723 
L 311.160806 -489.966101 
L 311.481667 -489.100738 
L 311.802528 -488.237678 
L 312.123388 -487.376966 
L 312.444249 -486.518648 
L 312.76511 -485.662765 
L 313.085971 -484.809362 
L 313.406831 -483.958481 
L 313.727692 -483.110164 
L 314.048553 -482.264451 
L 314.369414 -481.421384 
L 314.690274 -480.581003 
L 315.011135 -479.743347 
L 315.331996 -478.908454 
L 315.652857 -478.076364 
L 315.973717 -477.247114 
L 316.294578 -476.420741 
L 316.615439 -475.597281 
L 316.9363 -474.77677 
L 317.25716 -473.959243 
L 317.578021 -473.144735 
L 317.898882 -472.333281 
L 318.219743 -471.524913 
L 318.540603 -470.719663 
L 318.861464 -469.917566 
L 319.182325 -469.118651 
L 319.503186 -468.32295 
L 319.824046 -467.530494 
L 320.144907 -466.741311 
L 320.465768 -465.955432 
L 320.786629 -465.172885 
L 321.107489 -464.393697 
L 321.42835 -463.617897 
L 321.749211 -462.845511 
L 322.070072 -462.076565 
L 322.390932 -461.311085 
L 322.711793 -460.549095 
L 323.032654 -459.79062 
L 323.353515 -459.035685 
L 323.674375 -458.284311 
L 323.995236 -457.536522 
L 324.316097 -456.792341 
L 324.636958 -456.051787 
L 324.957818 -455.314882 
L 325.278679 -454.581647 
L 325.59954 -453.852101 
L 325.920401 -453.126263 
L 326.241261 -452.404152 
L 326.562122 -451.685786 
L 326.882983 -450.971183 
L 327.203844 -450.260358 
L 327.524704 -449.553329 
L 327.845565 -448.850111 
L 328.166426 -448.150719 
L 328.487287 -447.455169 
L 328.808147 -446.763474 
L 329.129008 -446.075647 
L 329.449869 -445.391702 
L 329.77073 -444.711651 
L 330.09159 -444.035506 
L 330.412451 -443.363279 
L 330.733312 -442.69498 
L 331.054173 -442.030619 
L 331.375033 -441.370207 
L 331.695894 -440.713753 
L 332.016755 -440.061265 
L 332.337616 -439.412752 
L 332.658476 -438.768221 
L 332.979337 -438.127681 
L 333.300198 -437.491136 
L 333.621059 -436.858595 
L 333.941919 -436.230061 
L 334.26278 -435.605542 
L 334.583641 -434.985041 
L 334.904502 -434.368563 
L 335.225362 -433.756112 
L 335.546223 -433.14769 
L 335.867084 -432.543302 
L 336.187945 -431.942948 
L 336.508805 -431.346632 
L 336.829666 -430.754355 
L 337.150527 -430.166118 
L 337.471388 -429.581921 
L 337.792248 -429.001765 
L 338.113109 -428.425649 
L 338.43397 -427.853573 
L 338.754831 -427.285535 
L 339.075691 -426.721534 
L 339.396552 -426.161568 
L 339.717413 -425.605635 
L 340.038274 -425.053732 
L 340.359134 -424.505855 
L 340.679995 -423.962002 
L 341.000856 -423.422167 
L 341.321717 -422.886347 
L 341.642577 -422.354537 
L 341.963438 -421.826732 
L 342.284299 -421.302926 
L 342.60516 -420.783114 
L 342.92602 -420.267288 
L 343.246881 -419.755443 
L 343.567742 -419.247572 
L 343.888603 -418.743667 
L 344.209463 -418.24372 
L 344.530324 -417.747724 
L 344.851185 -417.25567 
L 345.172046 -416.767549 
L 345.492906 -416.283353 
L 345.813767 -415.803072 
L 346.134628 -415.326697 
L 346.455489 -414.854217 
L 346.776349 -414.385623 
L 347.09721 -413.920903 
L 347.418071 -413.460047 
L 347.738932 -413.003044 
L 348.059792 -412.549882 
L 348.380653 -412.10055 
L 348.701514 -411.655035 
L 349.022375 -411.213326 
L 349.343235 -410.77541 
L 349.664096 -410.341273 
L 349.984957 -409.910904 
L 350.305818 -409.484288 
L 350.626678 -409.061412 
L 350.947539 -408.642262 
L 351.2684 -408.226825 
L 351.589261 -407.815086 
L 351.910121 -407.40703 
L 352.230982 -407.002643 
L 352.551843 -406.601909 
L 352.872704 -406.204815 
L 353.193564 -405.811344 
L 353.514425 -405.42148 
L 353.835286 -405.035209 
L 354.156147 -404.652513 
L 354.477007 -404.273378 
L 354.797868 -403.897785 
L 355.118729 -403.52572 
L 355.43959 -403.157166 
L 355.76045 -402.792105 
L 356.081311 -402.43052 
L 356.402172 -402.072394 
L 356.723033 -401.717711 
L 357.043893 -401.366451 
L 357.364754 -401.018599 
L 357.685615 -400.674135 
L 358.006476 -400.333042 
L 358.327336 -399.995303 
L 358.648197 -399.660898 
L 358.969058 -399.329809 
L 359.289919 -399.002018 
L 359.610779 -398.677506 
L 359.93164 -398.356255 
L 360.252501 -398.038246 
L 360.573361 -397.72346 
L 360.894222 -397.411877 
L 361.215083 -397.10348 
L 361.535944 -396.798248 
L 361.856804 -396.496162 
L 362.177665 -396.197203 
L 362.498526 -395.901351 
L 362.819387 -395.608587 
L 363.140247 -395.318891 
L 363.461108 -395.032244 
L 363.781969 -394.748625 
L 364.10283 -394.468016 
L 364.42369 -394.190395 
L 364.744551 -393.915743 
L 365.065412 -393.644041 
L 365.386273 -393.375267 
L 365.707133 -393.109403 
L 366.027994 -392.846427 
L 366.348855 -392.58632 
L 366.669716 -392.329061 
L 366.990576 -392.07463 
L 367.311437 -391.823007 
L 367.632298 -391.574172 
L 367.953159 -391.328104 
L 368.274019 -391.084783 
L 368.59488 -390.844189 
L 368.915741 -390.6063 
L 369.236602 -390.371098 
L 369.557462 -390.138561 
L 369.878323 -389.908669 
L 370.199184 -389.681402 
L 370.520045 -389.456739 
L 370.840905 -389.23466 
L 371.161766 -389.015144 
L 371.482627 -388.798172 
L 371.803488 -388.583722 
L 372.124348 -388.371775 
L 372.445209 -388.162311 
L 372.76607 -387.955308 
L 373.086931 -387.750746 
L 373.407791 -387.548606 
L 373.728652 -387.348868 
L 374.049513 -387.15151 
L 374.370374 -386.956513 
L 374.691234 -386.763857 
L 375.012095 -386.573522 
L 375.332956 -386.385487 
L 375.653817 -386.199733 
L 375.974677 -386.01624 
L 376.295538 -385.834987 
L 376.616399 -385.655956 
L 376.93726 -385.479126 
L 377.25812 -385.304477 
L 377.578981 -385.13199 
L 377.899842 -384.961646 
L 378.220703 -384.793424 
L 378.541563 -384.627305 
L 378.862424 -384.46327 
L 379.183285 -384.301299 
L 379.504146 -384.141374 
L 379.825006 -383.983474 
L 380.145867 -383.827581 
L 380.466728 -383.673676 
L 380.787589 -383.521739 
L 381.108449 -383.371752 
L 381.42931 -383.223696 
L 381.750171 -383.077552 
L 382.071032 -382.933301 
L 382.391892 -382.790925 
L 382.712753 -382.650405 
L 383.033614 -382.511723 
L 383.354475 -382.37486 
L 383.675335 -382.239798 
L 383.996196 -382.10652 
L 384.317057 -381.975006 
L 384.637918 -381.845239 
L 384.958778 -381.717201 
L 385.279639 -381.590874 
L 385.6005 -381.466241 
L 385.921361 -381.343284 
L 386.242221 -381.221984 
L 386.563082 -381.102326 
L 386.883943 -380.984291 
L 387.204804 -380.867862 
L 387.525664 -380.753023 
L 387.846525 -380.639756 
L 388.167386 -380.528043 
L 388.488247 -380.41787 
L 388.809107 -380.309217 
L 389.129968 -380.20207 
L 389.450829 -380.096412 
L 389.77169 -379.992225 
L 390.09255 -379.889495 
L 390.413411 -379.788204 
L 390.734272 -379.688336 
L 391.055133 -379.589876 
L 391.375993 -379.492808 
L 391.696854 -379.397115 
L 392.017715 -379.302783 
L 392.338576 -379.209796 
L 392.659436 -379.118138 
L 392.980297 -379.027794 
L 393.301158 -378.938749 
L 393.622019 -378.850987 
L 393.942879 -378.764494 
L 394.26374 -378.679255 
L 394.584601 -378.595255 
L 394.905462 -378.51248 
L 395.226322 -378.430914 
L 395.547183 -378.350544 
L 395.868044 -378.271356 
L 396.188905 -378.193334 
L 396.509765 -378.116465 
L 396.830626 -378.040735 
L 397.151487 -377.96613 
L 397.472348 -377.892636 
L 397.793208 -377.82024 
L 398.114069 -377.748929 
L 398.43493 -377.678688 
L 398.755791 -377.609505 
L 399.076651 -377.541366 
L 399.397512 -377.474258 
L 399.718373 -377.408169 
L 400.039234 -377.343086 
L 400.360094 -377.278995 
L 400.680955 -377.215885 
L 401.001816 -377.153742 
L 401.322677 -377.092555 
L 401.643537 -377.03231 
L 401.964398 -376.972997 
L 402.285259 -376.914603 
L 402.60612 -376.857116 
L 402.92698 -376.800524 
L 403.247841 -376.744815 
L 403.568702 -376.689979 
L 403.889563 -376.636002 
L 404.210423 -376.582875 
L 404.531284 -376.530586 
L 404.852145 -376.479123 
L 405.173006 -376.428477 
L 405.173006 -373.64 
L 405.173006 -373.64 
L 404.852145 -373.64 
L 404.531284 -373.64 
L 404.210423 -373.64 
L 403.889563 -373.64 
L 403.568702 -373.64 
L 403.247841 -373.64 
L 402.92698 -373.64 
L 402.60612 -373.64 
L 402.285259 -373.64 
L 401.964398 -373.64 
L 401.643537 -373.64 
L 401.322677 -373.64 
L 401.001816 -373.64 
L 400.680955 -373.64 
L 400.360094 -373.64 
L 400.039234 -373.64 
L 399.718373 -373.64 
L 399.397512 -373.64 
L 399.076651 -373.64 
L 398.755791 -373.64 
L 398.43493 -373.64 
L 398.114069 -373.64 
L 397.793208 -373.64 
L 397.472348 -373.64 
L 397.151487 -373.64 
L 396.830626 -373.64 
L 396.509765 -373.64 
L 396.188905 -373.64 
L 395.868044 -373.64 
L 395.547183 -373.64 
L 395.226322 -373.64 
L 394.905462 -373.64 
L 394.584601 -373.64 
L 394.26374 -373.64 
L 393.942879 -373.64 
L 393.622019 -373.64 
L 393.301158 -373.64 
L 392.980297 -373.64 
L 392.659436 -373.64 
L 392.338576 -373.64 
L 392.017715 -373.64 
L 391.696854 -373.64 
L 391.375993 -373.64 
L 391.055133 -373.64 
L 390.734272 -373.64 
L 390.413411 -373.64 
L 390.09255 -373.64 
L 389.77169 -373.64 
L 389.450829 -373.64 
L 389.129968 -373.64 
L 388.809107 -373.64 
L 388.488247 -373.64 
L 388.167386 -373.64 
L 387.846525 -373.64 
L 387.525664 -373.64 
L 387.204804 -373.64 
L 386.883943 -373.64 
L 386.563082 -373.64 
L 386.242221 -373.64 
L 385.921361 -373.64 
L 385.6005 -373.64 
L 385.279639 -373.64 
L 384.958778 -373.64 
L 384.637918 -373.64 
L 384.317057 -373.64 
L 383.996196 -373.64 
L 383.675335 -373.64 
L 383.354475 -373.64 
L 383.033614 -373.64 
L 382.712753 -373.64 
L 382.391892 -373.64 
L 382.071032 -373.64 
L 381.750171 -373.64 
L 381.42931 -373.64 
L 381.108449 -373.64 
L 380.787589 -373.64 
L 380.466728 -373.64 
L 380.145867 -373.64 
L 379.825006 -373.64 
L 379.504146 -373.64 
L 379.183285 -373.64 
L 378.862424 -373.64 
L 378.541563 -373.64 
L 378.220703 -373.64 
L 377.899842 -373.64 
L 377.578981 -373.64 
L 377.25812 -373.64 
L 376.93726 -373.64 
L 376.616399 -373.64 
L 376.295538 -373.64 
L 375.974677 -373.64 
L 375.653817 -373.64 
L 375.332956 -373.64 
L 375.012095 -373.64 
L 374.691234 -373.64 
L 374.370374 -373.64 
L 374.049513 -373.64 
L 373.728652 -373.64 
L 373.407791 -373.64 
L 373.086931 -373.64 
L 372.76607 -373.64 
L 372.445209 -373.64 
L 372.124348 -373.64 
L 371.803488 -373.64 
L 371.482627 -373.64 
L 371.161766 -373.64 
L 370.840905 -373.64 
L 370.520045 -373.64 
L 370.199184 -373.64 
L 369.878323 -373.64 
L 369.557462 -373.64 
L 369.236602 -373.64 
L 368.915741 -373.64 
L 368.59488 -373.64 
L 368.274019 -373.64 
L 367.953159 -373.64 
L 367.632298 -373.64 
L 367.311437 -373.64 
L 366.990576 -373.64 
L 366.669716 -373.64 
L 366.348855 -373.64 
L 366.027994 -373.64 
L 365.707133 -373.64 
L 365.386273 -373.64 
L 365.065412 -373.64 
L 364.744551 -373.64 
L 364.42369 -373.64 
L 364.10283 -373.64 
L 363.781969 -373.64 
L 363.461108 -373.64 
L 363.140247 -373.64 
L 362.819387 -373.64 
L 362.498526 -373.64 
L 362.177665 -373.64 
L 361.856804 -373.64 
L 361.535944 -373.64 
L 361.215083 -373.64 
L 360.894222 -373.64 
L 360.573361 -373.64 
L 360.252501 -373.64 
L 359.93164 -373.64 
L 359.610779 -373.64 
L 359.289919 -373.64 
L 358.969058 -373.64 
L 358.648197 -373.64 
L 358.327336 -373.64 
L 358.006476 -373.64 
L 357.685615 -373.64 
L 357.364754 -373.64 
L 357.043893 -373.64 
L 356.723033 -373.64 
L 356.402172 -373.64 
L 356.081311 -373.64 
L 355.76045 -373.64 
L 355.43959 -373.64 
L 355.118729 -373.64 
L 354.797868 -373.64 
L 354.477007 -373.64 
L 354.156147 -373.64 
L 353.835286 -373.64 
L 353.514425 -373.64 
L 353.193564 -373.64 
L 352.872704 -373.64 
L 352.551843 -373.64 
L 352.230982 -373.64 
L 351.910121 -373.64 
L 351.589261 -373.64 
L 351.2684 -373.64 
L 350.947539 -373.64 
L 350.626678 -373.64 
L 350.305818 -373.64 
L 349.984957 -373.64 
L 349.664096 -373.64 
L 349.343235 -373.64 
L 349.022375 -373.64 
L 348.701514 -373.64 
L 348.380653 -373.64 
L 348.059792 -373.64 
L 347.738932 -373.64 
L 347.418071 -373.64 
L 347.09721 -373.64 
L 346.776349 -373.64 
L 346.455489 -373.64 
L 346.134628 -373.64 
L 345.813767 -373.64 
L 345.492906 -373.64 
L 345.172046 -373.64 
L 344.851185 -373.64 
L 344.530324 -373.64 
L 344.209463 -373.64 
L 343.888603 -373.64 
L 343.567742 -373.64 
L 343.246881 -373.64 
L 342.92602 -373.64 
L 342.60516 -373.64 
L 342.284299 -373.64 
L 341.963438 -373.64 
L 341.642577 -373.64 
L 341.321717 -373.64 
L 341.000856 -373.64 
L 340.679995 -373.64 
L 340.359134 -373.64 
L 340.038274 -373.64 
L 339.717413 -373.64 
L 339.396552 -373.64 
L 339.075691 -373.64 
L 338.754831 -373.64 
L 338.43397 -373.64 
L 338.113109 -373.64 
L 337.792248 -373.64 
L 337.471388 -373.64 
L 337.150527 -373.64 
L 336.829666 -373.64 
L 336.508805 -373.64 
L 336.187945 -373.64 
L 335.867084 -373.64 
L 335.546223 -373.64 
L 335.225362 -373.64 
L 334.904502 -373.64 
L 334.583641 -373.64 
L 334.26278 -373.64 
L 333.941919 -373.64 
L 333.621059 -373.64 
L 333.300198 -373.64 
L 332.979337 -373.64 
L 332.658476 -373.64 
L 332.337616 -373.64 
L 332.016755 -373.64 
L 331.695894 -373.64 
L 331.375033 -373.64 
L 331.054173 -373.64 
L 330.733312 -373.64 
L 330.412451 -373.64 
L 330.09159 -373.64 
L 329.77073 -373.64 
L 329.449869 -373.64 
L 329.129008 -373.64 
L 328.808147 -373.64 
L 328.487287 -373.64 
L 328.166426 -373.64 
L 327.845565 -373.64 
L 327.524704 -373.64 
L 327.203844 -373.64 
L 326.882983 -373.64 
L 326.562122 -373.64 
L 326.241261 -373.64 
L 325.920401 -373.64 
L 325.59954 -373.64 
L 325.278679 -373.64 
L 324.957818 -373.64 
L 324.636958 -373.64 
L 324.316097 -373.64 
L 323.995236 -373.64 
L 323.674375 -373.64 
L 323.353515 -373.64 
L 323.032654 -373.64 
L 322.711793 -373.64 
L 322.390932 -373.64 
L 322.070072 -373.64 
L 321.749211 -373.64 
L 321.42835 -373.64 
L 321.107489 -373.64 
L 320.786629 -373.64 
L 320.465768 -373.64 
L 320.144907 -373.64 
L 319.824046 -373.64 
L 319.503186 -373.64 
L 319.182325 -373.64 
L 318.861464 -373.64 
L 318.540603 -373.64 
L 318.219743 -373.64 
L 317.898882 -373.64 
L 317.578021 -373.64 
L 317.25716 -373.64 
L 316.9363 -373.64 
L 316.615439 -373.64 
L 316.294578 -373.64 
L 315.973717 -373.64 
L 315.652857 -373.64 
L 315.331996 -373.64 
L 315.011135 -373.64 
L 314.690274 -373.64 
L 314.369414 -373.64 
L 314.048553 -373.64 
L 313.727692 -373.64 
L 313.406831 -373.64 
L 313.085971 -373.64 
L 312.76511 -373.64 
L 312.444249 -373.64 
L 312.123388 -373.64 
L 311.802528 -373.64 
L 311.481667 -373.64 
L 311.160806 -373.64 
L 310.839945 -373.64 
L 310.519085 -373.64 
L 310.198224 -373.64 
L 309.877363 -373.64 
L 309.556502 -373.64 
L 309.235642 -373.64 
L 308.914781 -373.64 
L 308.59392 -373.64 
L 308.273059 -373.64 
L 307.952199 -373.64 
L 307.631338 -373.64 
L 307.310477 -373.64 
L 306.989616 -373.64 
L 306.668756 -373.64 
L 306.347895 -373.64 
L 306.027034 -373.64 
L 305.706173 -373.64 
L 305.385313 -373.64 
L 305.064452 -373.64 
L 304.743591 -373.64 
L 304.42273 -373.64 
L 304.10187 -373.64 
L 303.781009 -373.64 
L 303.460148 -373.64 
L 303.139287 -373.64 
L 302.818427 -373.64 
L 302.497566 -373.64 
L 302.176705 -373.64 
L 301.855844 -373.64 
L 301.534984 -373.64 
L 301.214123 -373.64 
L 300.893262 -373.64 
L 300.572401 -373.64 
L 300.251541 -373.64 
L 299.93068 -373.64 
L 299.609819 -373.64 
L 299.288958 -373.64 
L 298.968098 -373.64 
L 298.647237 -373.64 
z
" style="stroke: #28b80b; stroke-opacity: 0.3"/>
    </defs>
    <g clip-path="url(#p0562089a74)">
     <use xlink:href="#m7d1687f6be" x="0" y="648" style="fill: #28b80b; fill-opacity: 0.3; stroke: #28b80b; stroke-opacity: 0.3"/>
    </g>
   </g>
   <g id="patch_3">
    <path d="M 298.326376 270.407501 
Q 298.326376 198.237756 298.326376 126.068012 
" clip-path="url(#p0562089a74)" style="fill: none; stroke: #000000; stroke-width: 1.5; stroke-linecap: round"/>
    <path d="M 300.826376 264.407501 
L 298.326376 270.407501 
L 295.826376 264.407501 
z
" clip-path="url(#p0562089a74)" style="stroke: #000000; stroke-width: 1.5; stroke-linecap: round"/>
    <path d="M 295.826376 132.068012 
L 298.326376 126.068012 
L 300.826376 132.068012 
z
" clip-path="url(#p0562089a74)" style="stroke: #000000; stroke-width: 1.5; stroke-linecap: round"/>
   </g>
   <g id="matplotlib.axis_1">
    <g id="xtick_1">
     <g id="line2d_1">
      <defs>
       <path id="m3c4fa5d2ac" d="M 0 0 
L 0 3.5 
" style="stroke: #030303; stroke-width: 0.8"/>
      </defs>
      <g>
       <use xlink:href="#m3c4fa5d2ac" x="111.344775" y="274.36" style="fill: #030303; stroke: #030303; stroke-width: 0.8"/>
      </g>
     </g>
     <g id="text_1">
      <!-- $\mathdefault{20}$ -->
      <g style="fill: #030303" transform="translate(103.024775 291.237969) scale(0.13 -0.13)">
       <defs>
        <path id="DejaVuSerif-32" d="M 819 3553 
L 469 3553 
L 469 4384 
Q 803 4563 1142 4656 
Q 1481 4750 1806 4750 
Q 2534 4750 2956 4397 
Q 3378 4044 3378 3438 
Q 3378 2753 2422 1800 
Q 2347 1728 2309 1691 
L 1131 513 
L 3078 513 
L 3078 1088 
L 3444 1088 
L 3444 0 
L 434 0 
L 434 341 
L 1850 1753 
Q 2319 2222 2519 2614 
Q 2719 3006 2719 3438 
Q 2719 3909 2473 4175 
Q 2228 4441 1797 4441 
Q 1350 4441 1106 4219 
Q 863 3997 819 3553 
z
" transform="scale(0.015625)"/>
        <path id="DejaVuSerif-30" d="M 2034 219 
Q 2513 219 2750 744 
Q 2988 1269 2988 2328 
Q 2988 3391 2750 3916 
Q 2513 4441 2034 4441 
Q 1556 4441 1318 3916 
Q 1081 3391 1081 2328 
Q 1081 1269 1318 744 
Q 1556 219 2034 219 
z
M 2034 -91 
Q 1275 -91 848 546 
Q 422 1184 422 2328 
Q 422 3475 848 4112 
Q 1275 4750 2034 4750 
Q 2797 4750 3222 4112 
Q 3647 3475 3647 2328 
Q 3647 1184 3222 546 
Q 2797 -91 2034 -91 
z
" transform="scale(0.015625)"/>
       </defs>
       <use xlink:href="#DejaVuSerif-32" transform="translate(0 0.78125)"/>
       <use xlink:href="#DejaVuSerif-30" transform="translate(63.623047 0.78125)"/>
      </g>
     </g>
    </g>
    <g id="xtick_2">
     <g id="line2d_2">
      <g>
       <use xlink:href="#m3c4fa5d2ac" x="164.768089" y="274.36" style="fill: #030303; stroke: #030303; stroke-width: 0.8"/>
      </g>
     </g>
     <g id="text_2">
      <!-- $\mathdefault{30}$ -->
      <g style="fill: #030303" transform="translate(156.448089 291.237969) scale(0.13 -0.13)">
       <defs>
        <path id="DejaVuSerif-33" d="M 622 4469 
Q 988 4606 1323 4678 
Q 1659 4750 1953 4750 
Q 2638 4750 3022 4454 
Q 3406 4159 3406 3634 
Q 3406 3213 3140 2930 
Q 2875 2647 2388 2547 
Q 2963 2466 3280 2130 
Q 3597 1794 3597 1259 
Q 3597 606 3158 257 
Q 2719 -91 1894 -91 
Q 1528 -91 1179 -12 
Q 831 66 488 225 
L 488 1131 
L 838 1131 
Q 869 681 1141 450 
Q 1413 219 1906 219 
Q 2384 219 2661 495 
Q 2938 772 2938 1253 
Q 2938 1803 2653 2086 
Q 2369 2369 1819 2369 
L 1522 2369 
L 1522 2688 
L 1678 2688 
Q 2225 2688 2498 2914 
Q 2772 3141 2772 3597 
Q 2772 4006 2547 4223 
Q 2322 4441 1900 4441 
Q 1478 4441 1245 4241 
Q 1013 4041 972 3647 
L 622 3647 
L 622 4469 
z
" transform="scale(0.015625)"/>
       </defs>
       <use xlink:href="#DejaVuSerif-33" transform="translate(0 0.78125)"/>
       <use xlink:href="#DejaVuSerif-30" transform="translate(63.623047 0.78125)"/>
      </g>
     </g>
    </g>
    <g id="xtick_3">
     <g id="line2d_3">
      <g>
       <use xlink:href="#m3c4fa5d2ac" x="218.191404" y="274.36" style="fill: #030303; stroke: #030303; stroke-width: 0.8"/>
      </g>
     </g>
     <g id="text_3">
      <!-- $\mathdefault{40}$ -->
      <g style="fill: #030303" transform="translate(209.871404 291.237969) scale(0.13 -0.13)">
       <defs>
        <path id="DejaVuSerif-34" d="M 2234 1581 
L 2234 4063 
L 641 1581 
L 2234 1581 
z
M 3609 0 
L 1484 0 
L 1484 331 
L 2234 331 
L 2234 1247 
L 197 1247 
L 197 1588 
L 2241 4750 
L 2859 4750 
L 2859 1581 
L 3750 1581 
L 3750 1247 
L 2859 1247 
L 2859 331 
L 3609 331 
L 3609 0 
z
" transform="scale(0.015625)"/>
       </defs>
       <use xlink:href="#DejaVuSerif-34" transform="translate(0 0.78125)"/>
       <use xlink:href="#DejaVuSerif-30" transform="translate(63.623047 0.78125)"/>
      </g>
     </g>
    </g>
    <g id="xtick_4">
     <g id="line2d_4">
      <g>
       <use xlink:href="#m3c4fa5d2ac" x="271.614719" y="274.36" style="fill: #030303; stroke: #030303; stroke-width: 0.8"/>
      </g>
     </g>
     <g id="text_4">
      <!-- $\mathdefault{50}$ -->
      <g style="fill: #030303" transform="translate(263.294719 291.237969) scale(0.13 -0.13)">
       <defs>
        <path id="DejaVuSerif-35" d="M 3219 4666 
L 3219 4153 
L 1081 4153 
L 1081 2816 
Q 1244 2928 1461 2984 
Q 1678 3041 1947 3041 
Q 2703 3041 3140 2622 
Q 3578 2203 3578 1478 
Q 3578 738 3136 323 
Q 2694 -91 1894 -91 
Q 1572 -91 1234 -12 
Q 897 66 544 225 
L 544 1131 
L 897 1131 
Q 925 688 1179 453 
Q 1434 219 1894 219 
Q 2388 219 2653 544 
Q 2919 869 2919 1478 
Q 2919 2084 2655 2407 
Q 2391 2731 1894 2731 
Q 1613 2731 1398 2631 
Q 1184 2531 1019 2322 
L 750 2322 
L 750 4666 
L 3219 4666 
z
" transform="scale(0.015625)"/>
       </defs>
       <use xlink:href="#DejaVuSerif-35" transform="translate(0 0.78125)"/>
       <use xlink:href="#DejaVuSerif-30" transform="translate(63.623047 0.78125)"/>
      </g>
     </g>
    </g>
    <g id="xtick_5">
     <g id="line2d_5">
      <g>
       <use xlink:href="#m3c4fa5d2ac" x="325.038034" y="274.36" style="fill: #030303; stroke: #030303; stroke-width: 0.8"/>
      </g>
     </g>
     <g id="text_5">
      <!-- $\mathdefault{60}$ -->
      <g style="fill: #030303" transform="translate(316.718034 291.237969) scale(0.13 -0.13)">
       <defs>
        <path id="DejaVuSerif-36" d="M 2094 219 
Q 2534 219 2771 542 
Q 3009 866 3009 1472 
Q 3009 2078 2771 2401 
Q 2534 2725 2094 2725 
Q 1647 2725 1412 2412 
Q 1178 2100 1178 1509 
Q 1178 888 1415 553 
Q 1653 219 2094 219 
z
M 1075 2569 
Q 1288 2803 1556 2918 
Q 1825 3034 2163 3034 
Q 2859 3034 3264 2615 
Q 3669 2197 3669 1472 
Q 3669 763 3233 336 
Q 2797 -91 2069 -91 
Q 1278 -91 853 498 
Q 428 1088 428 2181 
Q 428 3406 931 4078 
Q 1434 4750 2350 4750 
Q 2597 4750 2869 4703 
Q 3141 4656 3425 4563 
L 3425 3794 
L 3072 3794 
Q 3034 4109 2831 4275 
Q 2628 4441 2284 4441 
Q 1678 4441 1381 3981 
Q 1084 3522 1075 2569 
z
" transform="scale(0.015625)"/>
       </defs>
       <use xlink:href="#DejaVuSerif-36" transform="translate(0 0.78125)"/>
       <use xlink:href="#DejaVuSerif-30" transform="translate(63.623047 0.78125)"/>
      </g>
     </g>
    </g>
    <g id="xtick_6">
     <g id="line2d_6">
      <g>
       <use xlink:href="#m3c4fa5d2ac" x="378.461348" y="274.36" style="fill: #030303; stroke: #030303; stroke-width: 0.8"/>
      </g>
     </g>
     <g id="text_6">
      <!-- $\mathdefault{70}$ -->
      <g style="fill: #030303" transform="translate(370.141348 291.237969) scale(0.13 -0.13)">
       <defs>
        <path id="DejaVuSerif-37" d="M 3609 4347 
L 1784 0 
L 1319 0 
L 3059 4153 
L 903 4153 
L 903 3578 
L 538 3578 
L 538 4666 
L 3609 4666 
L 3609 4347 
z
" transform="scale(0.015625)"/>
       </defs>
       <use xlink:href="#DejaVuSerif-37" transform="translate(0 0.78125)"/>
       <use xlink:href="#DejaVuSerif-30" transform="translate(63.623047 0.78125)"/>
      </g>
     </g>
    </g>
    <g id="text_7">
     <!-- Young's Modulus (MPa) -->
     <g style="fill: #030303" transform="translate(137.42478 311.61875) scale(0.18 -0.18)">
      <defs>
       <path id="DejaVuSerif-59" d="M 1209 0 
L 1209 331 
L 1806 331 
L 1806 2009 
L 366 4331 
L -72 4331 
L -72 4666 
L 1663 4666 
L 1663 4331 
L 1119 4331 
L 2284 2444 
L 3450 4331 
L 2925 4331 
L 2925 4666 
L 4281 4666 
L 4281 4331 
L 3841 4331 
L 2438 2069 
L 2438 331 
L 3034 331 
L 3034 0 
L 1209 0 
z
" transform="scale(0.015625)"/>
       <path id="DejaVuSerif-6f" d="M 1925 219 
Q 2388 219 2623 584 
Q 2859 950 2859 1663 
Q 2859 2375 2623 2739 
Q 2388 3103 1925 3103 
Q 1463 3103 1227 2739 
Q 991 2375 991 1663 
Q 991 950 1228 584 
Q 1466 219 1925 219 
z
M 1925 -91 
Q 1200 -91 759 389 
Q 319 869 319 1663 
Q 319 2456 758 2934 
Q 1197 3413 1925 3413 
Q 2653 3413 3092 2934 
Q 3531 2456 3531 1663 
Q 3531 869 3092 389 
Q 2653 -91 1925 -91 
z
" transform="scale(0.015625)"/>
       <path id="DejaVuSerif-75" d="M 2266 3322 
L 3341 3322 
L 3341 331 
L 3884 331 
L 3884 0 
L 2766 0 
L 2766 588 
Q 2606 256 2353 82 
Q 2100 -91 1766 -91 
Q 1213 -91 952 223 
Q 691 538 691 1209 
L 691 2988 
L 172 2988 
L 172 3322 
L 1269 3322 
L 1269 1388 
Q 1269 781 1417 556 
Q 1566 331 1947 331 
Q 2347 331 2556 625 
Q 2766 919 2766 1478 
L 2766 2988 
L 2266 2988 
L 2266 3322 
z
" transform="scale(0.015625)"/>
       <path id="DejaVuSerif-6e" d="M 263 0 
L 263 331 
L 781 331 
L 781 2988 
L 231 2988 
L 231 3322 
L 1356 3322 
L 1356 2731 
Q 1516 3069 1770 3241 
Q 2025 3413 2363 3413 
Q 2913 3413 3172 3097 
Q 3431 2781 3431 2113 
L 3431 331 
L 3944 331 
L 3944 0 
L 2356 0 
L 2356 331 
L 2853 331 
L 2853 1931 
Q 2853 2541 2703 2767 
Q 2553 2994 2175 2994 
Q 1775 2994 1565 2701 
Q 1356 2409 1356 1850 
L 1356 331 
L 1856 331 
L 1856 0 
L 263 0 
z
" transform="scale(0.015625)"/>
       <path id="DejaVuSerif-67" d="M 3359 2988 
L 3359 72 
Q 3359 -644 2965 -1033 
Q 2572 -1422 1844 -1422 
Q 1516 -1422 1216 -1362 
Q 916 -1303 641 -1184 
L 641 -488 
L 941 -488 
Q 997 -813 1206 -963 
Q 1416 -1113 1806 -1113 
Q 2313 -1113 2548 -827 
Q 2784 -541 2784 72 
L 2784 519 
Q 2616 206 2355 57 
Q 2094 -91 1709 -91 
Q 1097 -91 708 395 
Q 319 881 319 1663 
Q 319 2444 706 2928 
Q 1094 3413 1709 3413 
Q 2094 3413 2355 3264 
Q 2616 3116 2784 2803 
L 2784 3322 
L 3909 3322 
L 3909 2988 
L 3359 2988 
z
M 2784 1825 
Q 2784 2422 2554 2737 
Q 2325 3053 1888 3053 
Q 1444 3053 1217 2703 
Q 991 2353 991 1663 
Q 991 975 1217 622 
Q 1444 269 1888 269 
Q 2325 269 2554 583 
Q 2784 897 2784 1497 
L 2784 1825 
z
" transform="scale(0.015625)"/>
       <path id="DejaVuSerif-27" d="M 1125 4666 
L 1125 2931 
L 628 2931 
L 628 4666 
L 1125 4666 
z
" transform="scale(0.015625)"/>
       <path id="DejaVuSerif-73" d="M 359 184 
L 359 959 
L 691 959 
Q 703 588 923 403 
Q 1144 219 1575 219 
Q 1963 219 2166 364 
Q 2369 509 2369 788 
Q 2369 1006 2220 1140 
Q 2072 1275 1594 1428 
L 1178 1569 
Q 750 1706 558 1912 
Q 366 2119 366 2438 
Q 366 2894 700 3153 
Q 1034 3413 1625 3413 
Q 1888 3413 2178 3344 
Q 2469 3275 2778 3144 
L 2778 2419 
L 2447 2419 
Q 2434 2741 2221 2922 
Q 2009 3103 1644 3103 
Q 1281 3103 1095 2975 
Q 909 2847 909 2591 
Q 909 2381 1050 2254 
Q 1191 2128 1613 1997 
L 2069 1856 
Q 2541 1709 2748 1489 
Q 2956 1269 2956 922 
Q 2956 450 2595 179 
Q 2234 -91 1600 -91 
Q 1278 -91 972 -22 
Q 666 47 359 184 
z
" transform="scale(0.015625)"/>
       <path id="DejaVuSerif-20" transform="scale(0.015625)"/>
       <path id="DejaVuSerif-4d" d="M 353 0 
L 353 331 
L 947 331 
L 947 4331 
L 319 4331 
L 319 4666 
L 1678 4666 
L 3316 1344 
L 4953 4666 
L 6228 4666 
L 6228 4331 
L 5606 4331 
L 5606 331 
L 6203 331 
L 6203 0 
L 4378 0 
L 4378 331 
L 4972 331 
L 4972 3938 
L 3372 684 
L 2931 684 
L 1331 3938 
L 1331 331 
L 1925 331 
L 1925 0 
L 353 0 
z
" transform="scale(0.015625)"/>
       <path id="DejaVuSerif-64" d="M 3359 331 
L 3909 331 
L 3909 0 
L 2784 0 
L 2784 519 
Q 2616 206 2355 57 
Q 2094 -91 1709 -91 
Q 1097 -91 708 395 
Q 319 881 319 1663 
Q 319 2444 706 2928 
Q 1094 3413 1709 3413 
Q 2094 3413 2355 3264 
Q 2616 3116 2784 2803 
L 2784 4531 
L 2241 4531 
L 2241 4863 
L 3359 4863 
L 3359 331 
z
M 2784 1497 
L 2784 1825 
Q 2784 2422 2554 2737 
Q 2325 3053 1888 3053 
Q 1444 3053 1217 2703 
Q 991 2353 991 1663 
Q 991 975 1217 622 
Q 1444 269 1888 269 
Q 2325 269 2554 583 
Q 2784 897 2784 1497 
z
" transform="scale(0.015625)"/>
       <path id="DejaVuSerif-6c" d="M 1313 331 
L 1856 331 
L 1856 0 
L 184 0 
L 184 331 
L 738 331 
L 738 4531 
L 184 4531 
L 184 4863 
L 1313 4863 
L 1313 331 
z
" transform="scale(0.015625)"/>
       <path id="DejaVuSerif-28" d="M 2041 -997 
Q 1281 -656 893 83 
Q 506 822 506 1931 
Q 506 3044 893 3783 
Q 1281 4522 2041 4863 
L 2041 4556 
Q 1559 4225 1350 3623 
Q 1141 3022 1141 1931 
Q 1141 844 1350 242 
Q 1559 -359 2041 -691 
L 2041 -997 
z
" transform="scale(0.015625)"/>
       <path id="DejaVuSerif-50" d="M 1581 2375 
L 2406 2375 
Q 2872 2375 3115 2626 
Q 3359 2878 3359 3353 
Q 3359 3831 3115 4081 
Q 2872 4331 2406 4331 
L 1581 4331 
L 1581 2375 
z
M 353 0 
L 353 331 
L 947 331 
L 947 4331 
L 353 4331 
L 353 4666 
L 2559 4666 
Q 3259 4666 3668 4311 
Q 4078 3956 4078 3353 
Q 4078 2753 3668 2397 
Q 3259 2041 2559 2041 
L 1581 2041 
L 1581 331 
L 2303 331 
L 2303 0 
L 353 0 
z
" transform="scale(0.015625)"/>
       <path id="DejaVuSerif-61" d="M 2547 1044 
L 2547 1747 
L 1806 1747 
Q 1378 1747 1168 1562 
Q 959 1378 959 997 
Q 959 650 1171 447 
Q 1384 244 1747 244 
Q 2106 244 2326 466 
Q 2547 688 2547 1044 
z
M 3122 2075 
L 3122 331 
L 3634 331 
L 3634 0 
L 2547 0 
L 2547 359 
Q 2356 128 2106 18 
Q 1856 -91 1522 -91 
Q 969 -91 644 203 
Q 319 497 319 997 
Q 319 1513 691 1797 
Q 1063 2081 1741 2081 
L 2547 2081 
L 2547 2309 
Q 2547 2688 2317 2895 
Q 2088 3103 1672 3103 
Q 1328 3103 1125 2947 
Q 922 2791 872 2484 
L 575 2484 
L 575 3156 
Q 875 3284 1158 3348 
Q 1441 3413 1709 3413 
Q 2400 3413 2761 3070 
Q 3122 2728 3122 2075 
z
" transform="scale(0.015625)"/>
       <path id="DejaVuSerif-29" d="M 453 -997 
L 453 -691 
Q 934 -359 1145 242 
Q 1356 844 1356 1931 
Q 1356 3022 1145 3623 
Q 934 4225 453 4556 
L 453 4863 
Q 1216 4522 1603 3783 
Q 1991 3044 1991 1931 
Q 1991 822 1603 83 
Q 1216 -656 453 -997 
z
" transform="scale(0.015625)"/>
      </defs>
      <use xlink:href="#DejaVuSerif-59"/>
      <use xlink:href="#DejaVuSerif-6f" transform="translate(57.265625 0)"/>
      <use xlink:href="#DejaVuSerif-75" transform="translate(117.470703 0)"/>
      <use xlink:href="#DejaVuSerif-6e" transform="translate(181.875 0)"/>
      <use xlink:href="#DejaVuSerif-67" transform="translate(246.279297 0)"/>
      <use xlink:href="#DejaVuSerif-27" transform="translate(310.292969 0)"/>
      <use xlink:href="#DejaVuSerif-73" transform="translate(337.783203 0)"/>
      <use xlink:href="#DejaVuSerif-20" transform="translate(389.101562 0)"/>
      <use xlink:href="#DejaVuSerif-4d" transform="translate(420.888672 0)"/>
      <use xlink:href="#DejaVuSerif-6f" transform="translate(523.28125 0)"/>
      <use xlink:href="#DejaVuSerif-64" transform="translate(583.486328 0)"/>
      <use xlink:href="#DejaVuSerif-75" transform="translate(647.5 0)"/>
      <use xlink:href="#DejaVuSerif-6c" transform="translate(711.904297 0)"/>
      <use xlink:href="#DejaVuSerif-75" transform="translate(743.886719 0)"/>
      <use xlink:href="#DejaVuSerif-73" transform="translate(808.291016 0)"/>
      <use xlink:href="#DejaVuSerif-20" transform="translate(859.609375 0)"/>
      <use xlink:href="#DejaVuSerif-28" transform="translate(891.396484 0)"/>
      <use xlink:href="#DejaVuSerif-4d" transform="translate(930.410156 0)"/>
      <use xlink:href="#DejaVuSerif-50" transform="translate(1032.802734 0)"/>
      <use xlink:href="#DejaVuSerif-61" transform="translate(1095.587891 0)"/>
      <use xlink:href="#DejaVuSerif-29" transform="translate(1155.207031 0)"/>
     </g>
    </g>
   </g>
   <g id="matplotlib.axis_2">
    <g id="ytick_1">
     <g id="line2d_7">
      <defs>
       <path id="m29397c63dd" d="M 0 0 
L -3.5 0 
" style="stroke: #030303; stroke-width: 0.8"/>
      </defs>
      <g>
       <use xlink:href="#m29397c63dd" x="68.606123" y="274.36" style="fill: #030303; stroke: #030303; stroke-width: 0.8"/>
      </g>
     </g>
     <g id="text_8">
      <!-- $\mathdefault{0.000}$ -->
      <g style="fill: #030303" transform="translate(24.296123 279.298984) scale(0.13 -0.13)">
       <defs>
        <path id="DejaVuSerif-2e" d="M 603 325 
Q 603 500 722 622 
Q 841 744 1019 744 
Q 1191 744 1312 622 
Q 1434 500 1434 325 
Q 1434 153 1312 31 
Q 1191 -91 1019 -91 
Q 841 -91 722 29 
Q 603 150 603 325 
z
" transform="scale(0.015625)"/>
       </defs>
       <use xlink:href="#DejaVuSerif-30" transform="translate(0 0.78125)"/>
       <use xlink:href="#DejaVuSerif-2e" transform="translate(63.623047 0.78125)"/>
       <use xlink:href="#DejaVuSerif-30" transform="translate(95.410156 0.78125)"/>
       <use xlink:href="#DejaVuSerif-30" transform="translate(159.033203 0.78125)"/>
       <use xlink:href="#DejaVuSerif-30" transform="translate(222.65625 0.78125)"/>
      </g>
     </g>
    </g>
    <g id="ytick_2">
     <g id="line2d_8">
      <g>
       <use xlink:href="#m29397c63dd" x="68.606123" y="242.90048" style="fill: #030303; stroke: #030303; stroke-width: 0.8"/>
      </g>
     </g>
     <g id="text_9">
      <!-- $\mathdefault{0.005}$ -->
      <g style="fill: #030303" transform="translate(24.296123 247.839464) scale(0.13 -0.13)">
       <use xlink:href="#DejaVuSerif-30" transform="translate(0 0.78125)"/>
       <use xlink:href="#DejaVuSerif-2e" transform="translate(63.623047 0.78125)"/>
       <use xlink:href="#DejaVuSerif-30" transform="translate(95.410156 0.78125)"/>
       <use xlink:href="#DejaVuSerif-30" transform="translate(159.033203 0.78125)"/>
       <use xlink:href="#DejaVuSerif-35" transform="translate(222.65625 0.78125)"/>
      </g>
     </g>
    </g>
    <g id="ytick_3">
     <g id="line2d_9">
      <g>
       <use xlink:href="#m29397c63dd" x="68.606123" y="211.440959" style="fill: #030303; stroke: #030303; stroke-width: 0.8"/>
      </g>
     </g>
     <g id="text_10">
      <!-- $\mathdefault{0.010}$ -->
      <g style="fill: #030303" transform="translate(24.296123 216.379944) scale(0.13 -0.13)">
       <defs>
        <path id="DejaVuSerif-31" d="M 909 0 
L 909 331 
L 1722 331 
L 1722 4213 
L 781 3603 
L 781 4013 
L 1919 4750 
L 2350 4750 
L 2350 331 
L 3163 331 
L 3163 0 
L 909 0 
z
" transform="scale(0.015625)"/>
       </defs>
       <use xlink:href="#DejaVuSerif-30" transform="translate(0 0.78125)"/>
       <use xlink:href="#DejaVuSerif-2e" transform="translate(63.623047 0.78125)"/>
       <use xlink:href="#DejaVuSerif-30" transform="translate(95.410156 0.78125)"/>
       <use xlink:href="#DejaVuSerif-31" transform="translate(159.033203 0.78125)"/>
       <use xlink:href="#DejaVuSerif-30" transform="translate(222.65625 0.78125)"/>
      </g>
     </g>
    </g>
    <g id="ytick_4">
     <g id="line2d_10">
      <g>
       <use xlink:href="#m29397c63dd" x="68.606123" y="179.981439" style="fill: #030303; stroke: #030303; stroke-width: 0.8"/>
      </g>
     </g>
     <g id="text_11">
      <!-- $\mathdefault{0.015}$ -->
      <g style="fill: #030303" transform="translate(24.296123 184.920423) scale(0.13 -0.13)">
       <use xlink:href="#DejaVuSerif-30" transform="translate(0 0.78125)"/>
       <use xlink:href="#DejaVuSerif-2e" transform="translate(63.623047 0.78125)"/>
       <use xlink:href="#DejaVuSerif-30" transform="translate(95.410156 0.78125)"/>
       <use xlink:href="#DejaVuSerif-31" transform="translate(159.033203 0.78125)"/>
       <use xlink:href="#DejaVuSerif-35" transform="translate(222.65625 0.78125)"/>
      </g>
     </g>
    </g>
    <g id="ytick_5">
     <g id="line2d_11">
      <g>
       <use xlink:href="#m29397c63dd" x="68.606123" y="148.521919" style="fill: #030303; stroke: #030303; stroke-width: 0.8"/>
      </g>
     </g>
     <g id="text_12">
      <!-- $\mathdefault{0.020}$ -->
      <g style="fill: #030303" transform="translate(24.296123 153.460903) scale(0.13 -0.13)">
       <use xlink:href="#DejaVuSerif-30" transform="translate(0 0.78125)"/>
       <use xlink:href="#DejaVuSerif-2e" transform="translate(63.623047 0.78125)"/>
       <use xlink:href="#DejaVuSerif-30" transform="translate(95.410156 0.78125)"/>
       <use xlink:href="#DejaVuSerif-32" transform="translate(159.033203 0.78125)"/>
       <use xlink:href="#DejaVuSerif-30" transform="translate(222.65625 0.78125)"/>
      </g>
     </g>
    </g>
    <g id="ytick_6">
     <g id="line2d_12">
      <g>
       <use xlink:href="#m29397c63dd" x="68.606123" y="117.062398" style="fill: #030303; stroke: #030303; stroke-width: 0.8"/>
      </g>
     </g>
     <g id="text_13">
      <!-- $\mathdefault{0.025}$ -->
      <g style="fill: #030303" transform="translate(24.296123 122.001383) scale(0.13 -0.13)">
       <use xlink:href="#DejaVuSerif-30" transform="translate(0 0.78125)"/>
       <use xlink:href="#DejaVuSerif-2e" transform="translate(63.623047 0.78125)"/>
       <use xlink:href="#DejaVuSerif-30" transform="translate(95.410156 0.78125)"/>
       <use xlink:href="#DejaVuSerif-32" transform="translate(159.033203 0.78125)"/>
       <use xlink:href="#DejaVuSerif-35" transform="translate(222.65625 0.78125)"/>
      </g>
     </g>
    </g>
    <g id="ytick_7">
     <g id="line2d_13">
      <g>
       <use xlink:href="#m29397c63dd" x="68.606123" y="85.602878" style="fill: #030303; stroke: #030303; stroke-width: 0.8"/>
      </g>
     </g>
     <g id="text_14">
      <!-- $\mathdefault{0.030}$ -->
      <g style="fill: #030303" transform="translate(24.296123 90.541862) scale(0.13 -0.13)">
       <use xlink:href="#DejaVuSerif-30" transform="translate(0 0.78125)"/>
       <use xlink:href="#DejaVuSerif-2e" transform="translate(63.623047 0.78125)"/>
       <use xlink:href="#DejaVuSerif-30" transform="translate(95.410156 0.78125)"/>
       <use xlink:href="#DejaVuSerif-33" transform="translate(159.033203 0.78125)"/>
       <use xlink:href="#DejaVuSerif-30" transform="translate(222.65625 0.78125)"/>
      </g>
     </g>
    </g>
    <g id="ytick_8">
     <g id="line2d_14">
      <g>
       <use xlink:href="#m29397c63dd" x="68.606123" y="54.143358" style="fill: #030303; stroke: #030303; stroke-width: 0.8"/>
      </g>
     </g>
     <g id="text_15">
      <!-- $\mathdefault{0.035}$ -->
      <g style="fill: #030303" transform="translate(24.296123 59.082342) scale(0.13 -0.13)">
       <use xlink:href="#DejaVuSerif-30" transform="translate(0 0.78125)"/>
       <use xlink:href="#DejaVuSerif-2e" transform="translate(63.623047 0.78125)"/>
       <use xlink:href="#DejaVuSerif-30" transform="translate(95.410156 0.78125)"/>
       <use xlink:href="#DejaVuSerif-33" transform="translate(159.033203 0.78125)"/>
       <use xlink:href="#DejaVuSerif-35" transform="translate(222.65625 0.78125)"/>
      </g>
     </g>
    </g>
    <g id="ytick_9">
     <g id="line2d_15">
      <g>
       <use xlink:href="#m29397c63dd" x="68.606123" y="22.683837" style="fill: #030303; stroke: #030303; stroke-width: 0.8"/>
      </g>
     </g>
     <g id="text_16">
      <!-- $\mathdefault{0.040}$ -->
      <g style="fill: #030303" transform="translate(24.296123 27.622822) scale(0.13 -0.13)">
       <use xlink:href="#DejaVuSerif-30" transform="translate(0 0.78125)"/>
       <use xlink:href="#DejaVuSerif-2e" transform="translate(63.623047 0.78125)"/>
       <use xlink:href="#DejaVuSerif-30" transform="translate(95.410156 0.78125)"/>
       <use xlink:href="#DejaVuSerif-34" transform="translate(159.033203 0.78125)"/>
       <use xlink:href="#DejaVuSerif-30" transform="translate(222.65625 0.78125)"/>
      </g>
     </g>
    </g>
    <g id="text_17">
     <!-- Probability Density -->
     <g style="fill: #030303" transform="translate(16.296748 229.979844) rotate(-90) scale(0.18 -0.18)">
      <defs>
       <path id="DejaVuSerif-72" d="M 3059 3328 
L 3059 2497 
L 2728 2497 
Q 2713 2744 2591 2866 
Q 2469 2988 2234 2988 
Q 1809 2988 1582 2694 
Q 1356 2400 1356 1850 
L 1356 331 
L 2022 331 
L 2022 0 
L 263 0 
L 263 331 
L 781 331 
L 781 2994 
L 231 2994 
L 231 3322 
L 1356 3322 
L 1356 2731 
Q 1525 3078 1790 3245 
Q 2056 3413 2438 3413 
Q 2578 3413 2733 3391 
Q 2888 3369 3059 3328 
z
" transform="scale(0.015625)"/>
       <path id="DejaVuSerif-62" d="M 738 331 
L 738 4531 
L 184 4531 
L 184 4863 
L 1313 4863 
L 1313 2803 
Q 1481 3116 1742 3264 
Q 2003 3413 2388 3413 
Q 3000 3413 3387 2928 
Q 3775 2444 3775 1663 
Q 3775 881 3387 395 
Q 3000 -91 2388 -91 
Q 2003 -91 1742 57 
Q 1481 206 1313 519 
L 1313 0 
L 184 0 
L 184 331 
L 738 331 
z
M 1313 1497 
Q 1313 897 1542 583 
Q 1772 269 2209 269 
Q 2650 269 2876 622 
Q 3103 975 3103 1663 
Q 3103 2353 2876 2703 
Q 2650 3053 2209 3053 
Q 1772 3053 1542 2737 
Q 1313 2422 1313 1825 
L 1313 1497 
z
" transform="scale(0.015625)"/>
       <path id="DejaVuSerif-69" d="M 622 4353 
Q 622 4497 726 4603 
Q 831 4709 978 4709 
Q 1122 4709 1226 4603 
Q 1331 4497 1331 4353 
Q 1331 4206 1228 4103 
Q 1125 4000 978 4000 
Q 831 4000 726 4103 
Q 622 4206 622 4353 
z
M 1356 331 
L 1900 331 
L 1900 0 
L 231 0 
L 231 331 
L 781 331 
L 781 2988 
L 231 2988 
L 231 3322 
L 1356 3322 
L 1356 331 
z
" transform="scale(0.015625)"/>
       <path id="DejaVuSerif-74" d="M 691 2988 
L 184 2988 
L 184 3322 
L 691 3322 
L 691 4353 
L 1269 4353 
L 1269 3322 
L 2350 3322 
L 2350 2988 
L 1269 2988 
L 1269 878 
Q 1269 456 1350 337 
Q 1431 219 1650 219 
Q 1875 219 1978 351 
Q 2081 484 2088 781 
L 2522 781 
Q 2497 328 2275 118 
Q 2053 -91 1600 -91 
Q 1103 -91 897 129 
Q 691 350 691 878 
L 691 2988 
z
" transform="scale(0.015625)"/>
       <path id="DejaVuSerif-79" d="M 1381 -609 
L 1600 -56 
L 359 2988 
L -19 2988 
L -19 3322 
L 1509 3322 
L 1509 2988 
L 978 2988 
L 1913 703 
L 2847 2988 
L 2350 2988 
L 2350 3322 
L 3597 3322 
L 3597 2988 
L 3225 2988 
L 1703 -750 
Q 1547 -1138 1356 -1280 
Q 1166 -1422 819 -1422 
Q 672 -1422 517 -1397 
Q 363 -1372 206 -1325 
L 206 -691 
L 500 -691 
Q 519 -903 608 -995 
Q 697 -1088 884 -1088 
Q 1056 -1088 1161 -992 
Q 1266 -897 1381 -609 
z
" transform="scale(0.015625)"/>
       <path id="DejaVuSerif-44" d="M 1581 331 
L 2163 331 
Q 3072 331 3558 850 
Q 4044 1369 4044 2338 
Q 4044 3306 3559 3818 
Q 3075 4331 2163 4331 
L 1581 4331 
L 1581 331 
z
M 353 0 
L 353 331 
L 947 331 
L 947 4331 
L 353 4331 
L 353 4666 
L 2209 4666 
Q 3416 4666 4089 4050 
Q 4763 3434 4763 2338 
Q 4763 1238 4088 619 
Q 3413 0 2209 0 
L 353 0 
z
" transform="scale(0.015625)"/>
       <path id="DejaVuSerif-65" d="M 3469 1600 
L 991 1600 
L 991 1575 
Q 991 903 1244 561 
Q 1497 219 1991 219 
Q 2369 219 2611 417 
Q 2853 616 2950 1006 
L 3413 1006 
Q 3275 459 2904 184 
Q 2534 -91 1931 -91 
Q 1203 -91 761 389 
Q 319 869 319 1663 
Q 319 2450 753 2931 
Q 1188 3413 1894 3413 
Q 2647 3413 3050 2948 
Q 3453 2484 3469 1600 
z
M 2791 1931 
Q 2772 2513 2545 2808 
Q 2319 3103 1894 3103 
Q 1497 3103 1269 2806 
Q 1041 2509 991 1931 
L 2791 1931 
z
" transform="scale(0.015625)"/>
      </defs>
      <use xlink:href="#DejaVuSerif-50"/>
      <use xlink:href="#DejaVuSerif-72" transform="translate(67.285156 0)"/>
      <use xlink:href="#DejaVuSerif-6f" transform="translate(115.087891 0)"/>
      <use xlink:href="#DejaVuSerif-62" transform="translate(175.292969 0)"/>
      <use xlink:href="#DejaVuSerif-61" transform="translate(239.306641 0)"/>
      <use xlink:href="#DejaVuSerif-62" transform="translate(298.925781 0)"/>
      <use xlink:href="#DejaVuSerif-69" transform="translate(362.939453 0)"/>
      <use xlink:href="#DejaVuSerif-6c" transform="translate(394.921875 0)"/>
      <use xlink:href="#DejaVuSerif-69" transform="translate(426.904297 0)"/>
      <use xlink:href="#DejaVuSerif-74" transform="translate(458.886719 0)"/>
      <use xlink:href="#DejaVuSerif-79" transform="translate(499.072266 0)"/>
      <use xlink:href="#DejaVuSerif-20" transform="translate(555.566406 0)"/>
      <use xlink:href="#DejaVuSerif-44" transform="translate(587.353516 0)"/>
      <use xlink:href="#DejaVuSerif-65" transform="translate(667.529297 0)"/>
      <use xlink:href="#DejaVuSerif-6e" transform="translate(726.708984 0)"/>
      <use xlink:href="#DejaVuSerif-73" transform="translate(791.113281 0)"/>
      <use xlink:href="#DejaVuSerif-69" transform="translate(842.431641 0)"/>
      <use xlink:href="#DejaVuSerif-74" transform="translate(874.414062 0)"/>
      <use xlink:href="#DejaVuSerif-79" transform="translate(914.599609 0)"/>
     </g>
    </g>
   </g>
   <g id="line2d_16">
    <path d="M 84.633117 271.571523 
L 89.766889 270.656914 
L 94.579801 269.569086 
L 98.75099 268.410124 
L 102.92218 267.015709 
L 106.772509 265.488277 
L 110.301977 263.858626 
L 113.831446 261.98376 
L 117.360914 259.837689 
L 120.569521 257.628902 
L 123.778129 255.153573 
L 126.986736 252.391413 
L 130.195344 249.322494 
L 133.403951 245.927606 
L 136.612559 242.188656 
L 139.821166 238.089096 
L 143.029774 233.614377 
L 146.238381 228.752428 
L 149.446989 223.494145 
L 152.655596 217.833882 
L 156.185064 211.141405 
L 159.714533 203.964494 
L 163.564862 195.595848 
L 167.415191 186.688915 
L 171.58638 176.475087 
L 176.078431 164.889836 
L 181.212203 151.033627 
L 187.950279 132.15823 
L 202.389012 91.476394 
L 207.201924 78.67913 
L 211.373113 68.223788 
L 214.902582 59.965088 
L 218.111189 53.010364 
L 220.998936 47.259924 
L 223.565822 42.592329 
L 226.132708 38.37423 
L 228.378733 35.074053 
L 230.624758 32.156206 
L 232.870783 29.63572 
L 234.795948 27.801542 
L 236.721112 26.275988 
L 238.646277 25.064938 
L 240.250581 24.299394 
L 241.854884 23.757596 
L 243.459188 23.441004 
L 245.063492 23.350476 
L 246.667796 23.486256 
L 248.272099 23.847977 
L 249.876403 24.434661 
L 251.480707 25.244725 
L 253.085011 26.275988 
L 255.010175 27.801542 
L 256.93534 29.63572 
L 258.860504 31.771482 
L 261.106529 34.633439 
L 263.352555 37.879988 
L 265.59858 41.494532 
L 268.165466 46.052505 
L 271.053213 51.688986 
L 273.940959 57.819933 
L 277.149567 65.152468 
L 280.679035 73.769271 
L 284.850225 84.567372 
L 289.983997 98.540276 
L 297.363794 119.371475 
L 308.59392 151.033627 
L 314.048553 165.735549 
L 318.861464 178.082434 
L 323.032654 188.20938 
L 327.203844 197.739642 
L 331.054173 205.969381 
L 334.583641 213.014959 
L 338.113109 219.574351 
L 341.642577 225.645463 
L 344.851185 230.74433 
L 348.059792 235.450118 
L 351.2684 239.773175 
L 354.477007 243.726622 
L 357.685615 247.325865 
L 360.894222 250.588123 
L 364.10283 253.531984 
L 367.311437 256.176993 
L 370.520045 258.543261 
L 373.728652 260.651132 
L 377.25812 262.695523 
L 380.787589 264.478261 
L 384.317057 266.024994 
L 388.167386 267.471957 
L 392.338576 268.790204 
L 396.830626 269.959265 
L 401.643537 270.96769 
L 405.173006 271.571523 
L 405.173006 271.571523 
" clip-path="url(#p0562089a74)" style="fill: none; stroke: #28b80b; stroke-width: 2; stroke-linecap: square"/>
   </g>
   <g id="patch_4">
    <path d="M 68.606123 274.36 
L 68.606123 10.8 
" style="fill: none; stroke: #030303; stroke-width: 1.5; stroke-linejoin: miter; stroke-linecap: square"/>
   </g>
   <g id="patch_5">
    <path d="M 68.606123 274.36 
L 421.2 274.36 
" style="fill: none; stroke: #030303; stroke-width: 1.5; stroke-linejoin: miter; stroke-linecap: square"/>
   </g>
   <g id="legend_1">
    <g id="patch_6">
     <path d="M 270.959375 48.15625 
L 414.2 48.15625 
Q 416.2 48.15625 416.2 46.15625 
L 416.2 17.8 
Q 416.2 15.8 414.2 15.8 
L 270.959375 15.8 
Q 268.959375 15.8 268.959375 17.8 
L 268.959375 46.15625 
Q 268.959375 48.15625 270.959375 48.15625 
z
" style="fill: #ffffff; opacity: 0.8; stroke: #cccccc; stroke-linejoin: miter"/>
    </g>
    <g id="line2d_17">
     <path d="M 272.959375 23.898438 
L 282.959375 23.898438 
L 292.959375 23.898438 
" style="fill: none; stroke: #28b80b; stroke-width: 2; stroke-linecap: square"/>
    </g>
    <g id="text_18">
     <!-- Expected Distribution -->
     <g style="fill: #030303" transform="translate(300.959375 27.398438) scale(0.1 -0.1)">
      <defs>
       <path id="DejaVuSerif-45" d="M 353 0 
L 353 331 
L 947 331 
L 947 4331 
L 353 4331 
L 353 4666 
L 4109 4666 
L 4109 3628 
L 3725 3628 
L 3725 4281 
L 1581 4281 
L 1581 2719 
L 3109 2719 
L 3109 3303 
L 3494 3303 
L 3494 1753 
L 3109 1753 
L 3109 2338 
L 1581 2338 
L 1581 384 
L 3775 384 
L 3775 1038 
L 4159 1038 
L 4159 0 
L 353 0 
z
" transform="scale(0.015625)"/>
       <path id="DejaVuSerif-78" d="M 1863 2028 
L 2559 2988 
L 2113 2988 
L 2113 3322 
L 3391 3322 
L 3391 2988 
L 2950 2988 
L 2059 1759 
L 3097 331 
L 3531 331 
L 3531 0 
L 1997 0 
L 1997 331 
L 2419 331 
L 1697 1325 
L 972 331 
L 1403 331 
L 1403 0 
L 141 0 
L 141 331 
L 581 331 
L 1497 1594 
L 488 2988 
L 78 2988 
L 78 3322 
L 1563 3322 
L 1563 2988 
L 1166 2988 
L 1863 2028 
z
" transform="scale(0.015625)"/>
       <path id="DejaVuSerif-70" d="M 1313 1825 
L 1313 1497 
Q 1313 897 1542 583 
Q 1772 269 2209 269 
Q 2650 269 2876 622 
Q 3103 975 3103 1663 
Q 3103 2353 2876 2703 
Q 2650 3053 2209 3053 
Q 1772 3053 1542 2737 
Q 1313 2422 1313 1825 
z
M 738 2988 
L 184 2988 
L 184 3322 
L 1313 3322 
L 1313 2803 
Q 1481 3116 1742 3264 
Q 2003 3413 2388 3413 
Q 3000 3413 3387 2928 
Q 3775 2444 3775 1663 
Q 3775 881 3387 395 
Q 3000 -91 2388 -91 
Q 2003 -91 1742 57 
Q 1481 206 1313 519 
L 1313 -997 
L 1856 -997 
L 1856 -1331 
L 184 -1331 
L 184 -997 
L 738 -997 
L 738 2988 
z
" transform="scale(0.015625)"/>
       <path id="DejaVuSerif-63" d="M 3291 997 
Q 3169 466 2822 187 
Q 2475 -91 1925 -91 
Q 1200 -91 759 389 
Q 319 869 319 1663 
Q 319 2459 759 2936 
Q 1200 3413 1925 3413 
Q 2241 3413 2553 3339 
Q 2866 3266 3181 3116 
L 3181 2266 
L 2847 2266 
Q 2781 2703 2561 2903 
Q 2341 3103 1931 3103 
Q 1466 3103 1228 2742 
Q 991 2381 991 1663 
Q 991 944 1227 581 
Q 1463 219 1931 219 
Q 2303 219 2525 412 
Q 2747 606 2828 997 
L 3291 997 
z
" transform="scale(0.015625)"/>
      </defs>
      <use xlink:href="#DejaVuSerif-45"/>
      <use xlink:href="#DejaVuSerif-78" transform="translate(72.998047 0)"/>
      <use xlink:href="#DejaVuSerif-70" transform="translate(129.394531 0)"/>
      <use xlink:href="#DejaVuSerif-65" transform="translate(193.408203 0)"/>
      <use xlink:href="#DejaVuSerif-63" transform="translate(252.587891 0)"/>
      <use xlink:href="#DejaVuSerif-74" transform="translate(308.59375 0)"/>
      <use xlink:href="#DejaVuSerif-65" transform="translate(348.779297 0)"/>
      <use xlink:href="#DejaVuSerif-64" transform="translate(407.958984 0)"/>
      <use xlink:href="#DejaVuSerif-20" transform="translate(471.972656 0)"/>
      <use xlink:href="#DejaVuSerif-44" transform="translate(503.759766 0)"/>
      <use xlink:href="#DejaVuSerif-69" transform="translate(583.935547 0)"/>
      <use xlink:href="#DejaVuSerif-73" transform="translate(615.917969 0)"/>
      <use xlink:href="#DejaVuSerif-74" transform="translate(667.236328 0)"/>
      <use xlink:href="#DejaVuSerif-72" transform="translate(707.421875 0)"/>
      <use xlink:href="#DejaVuSerif-69" transform="translate(755.224609 0)"/>
      <use xlink:href="#DejaVuSerif-62" transform="translate(787.207031 0)"/>
      <use xlink:href="#DejaVuSerif-75" transform="translate(851.220703 0)"/>
      <use xlink:href="#DejaVuSerif-74" transform="translate(915.625 0)"/>
      <use xlink:href="#DejaVuSerif-69" transform="translate(955.810547 0)"/>
      <use xlink:href="#DejaVuSerif-6f" transform="translate(987.792969 0)"/>
      <use xlink:href="#DejaVuSerif-6e" transform="translate(1047.998047 0)"/>
     </g>
    </g>
    <g id="patch_7">
     <path d="M 272.959375 42.076563 
L 292.959375 42.076563 
L 292.959375 35.076563 
L 272.959375 35.076563 
z
" style="fill: #28b80b; fill-opacity: 0.3; stroke: #28b80b; stroke-opacity: 0.3; stroke-linejoin: miter"/>
    </g>
    <g id="text_19">
     <!-- Area: X &gt; 55 -->
     <g style="fill: #030303" transform="translate(300.959375 42.076563) scale(0.1 -0.1)">
      <defs>
       <path id="DejaVuSerif-41" d="M 1281 1691 
L 2994 1691 
L 2138 3909 
L 1281 1691 
z
M -38 0 
L -38 331 
L 372 331 
L 2034 4666 
L 2559 4666 
L 4225 331 
L 4684 331 
L 4684 0 
L 2988 0 
L 2988 331 
L 3506 331 
L 3116 1356 
L 1153 1356 
L 763 331 
L 1275 331 
L 1275 0 
L -38 0 
z
" transform="scale(0.015625)"/>
       <path id="DejaVuSerif-3a" d="M 666 325 
Q 666 500 786 622 
Q 906 744 1081 744 
Q 1256 744 1376 622 
Q 1497 500 1497 325 
Q 1497 150 1378 29 
Q 1259 -91 1081 -91 
Q 903 -91 784 29 
Q 666 150 666 325 
z
M 666 2363 
Q 666 2538 786 2658 
Q 906 2778 1081 2778 
Q 1259 2778 1378 2659 
Q 1497 2541 1497 2363 
Q 1497 2184 1378 2065 
Q 1259 1947 1081 1947 
Q 906 1947 786 2067 
Q 666 2188 666 2363 
z
" transform="scale(0.015625)"/>
       <path id="DejaVuSerif-58" d="M 2119 1997 
L 978 331 
L 1581 331 
L 1581 0 
L 38 0 
L 38 331 
L 575 331 
L 1919 2291 
L 556 4331 
L 56 4331 
L 56 4666 
L 1906 4666 
L 1906 4331 
L 1356 4331 
L 2356 2828 
L 3384 4331 
L 2784 4331 
L 2784 4666 
L 4313 4666 
L 4313 4331 
L 3788 4331 
L 2553 2534 
L 4025 331 
L 4525 331 
L 4525 0 
L 2675 0 
L 2675 331 
L 3231 331 
L 2119 1997 
z
" transform="scale(0.015625)"/>
       <path id="DejaVuSerif-3e" d="M 678 3188 
L 678 3719 
L 4684 2266 
L 4684 1747 
L 678 294 
L 678 825 
L 3922 2003 
L 678 3188 
z
" transform="scale(0.015625)"/>
      </defs>
      <use xlink:href="#DejaVuSerif-41"/>
      <use xlink:href="#DejaVuSerif-72" transform="translate(72.216797 0)"/>
      <use xlink:href="#DejaVuSerif-65" transform="translate(120.019531 0)"/>
      <use xlink:href="#DejaVuSerif-61" transform="translate(179.199219 0)"/>
      <use xlink:href="#DejaVuSerif-3a" transform="translate(238.818359 0)"/>
      <use xlink:href="#DejaVuSerif-20" transform="translate(272.509766 0)"/>
      <use xlink:href="#DejaVuSerif-58" transform="translate(304.296875 0)"/>
      <use xlink:href="#DejaVuSerif-20" transform="translate(375.488281 0)"/>
      <use xlink:href="#DejaVuSerif-3e" transform="translate(407.275391 0)"/>
      <use xlink:href="#DejaVuSerif-20" transform="translate(491.064453 0)"/>
      <use xlink:href="#DejaVuSerif-35" transform="translate(522.851562 0)"/>
      <use xlink:href="#DejaVuSerif-35" transform="translate(586.474609 0)"/>
     </g>
    </g>
   </g>
  </g>
  <g id="axes_2">
   <g id="patch_8">
    <path d="M 68.606123 595.48 
L 421.2 595.48 
L 421.2 331.92 
L 68.606123 331.92 
L 68.606123 595.48 
z
" style="fill: none"/>
   </g>
   <g id="matplotlib.axis_3">
    <g id="xtick_7">
     <g id="line2d_18">
      <g>
       <use xlink:href="#m3c4fa5d2ac" x="74.457248" y="595.48" style="fill: #030303; stroke: #030303; stroke-width: 0.8"/>
      </g>
     </g>
     <g id="text_20">
      <!-- $\mathdefault{10}$ -->
      <g style="fill: #030303" transform="translate(66.137248 612.357969) scale(0.13 -0.13)">
       <use xlink:href="#DejaVuSerif-31" transform="translate(0 0.78125)"/>
       <use xlink:href="#DejaVuSerif-30" transform="translate(63.623047 0.78125)"/>
      </g>
     </g>
    </g>
    <g id="xtick_8">
     <g id="line2d_19">
      <g>
       <use xlink:href="#m3c4fa5d2ac" x="125.336595" y="595.48" style="fill: #030303; stroke: #030303; stroke-width: 0.8"/>
      </g>
     </g>
     <g id="text_21">
      <!-- $\mathdefault{20}$ -->
      <g style="fill: #030303" transform="translate(117.016595 612.357969) scale(0.13 -0.13)">
       <use xlink:href="#DejaVuSerif-32" transform="translate(0 0.78125)"/>
       <use xlink:href="#DejaVuSerif-30" transform="translate(63.623047 0.78125)"/>
      </g>
     </g>
    </g>
    <g id="xtick_9">
     <g id="line2d_20">
      <g>
       <use xlink:href="#m3c4fa5d2ac" x="176.215943" y="595.48" style="fill: #030303; stroke: #030303; stroke-width: 0.8"/>
      </g>
     </g>
     <g id="text_22">
      <!-- $\mathdefault{30}$ -->
      <g style="fill: #030303" transform="translate(167.895943 612.357969) scale(0.13 -0.13)">
       <use xlink:href="#DejaVuSerif-33" transform="translate(0 0.78125)"/>
       <use xlink:href="#DejaVuSerif-30" transform="translate(63.623047 0.78125)"/>
      </g>
     </g>
    </g>
    <g id="xtick_10">
     <g id="line2d_21">
      <g>
       <use xlink:href="#m3c4fa5d2ac" x="227.09529" y="595.48" style="fill: #030303; stroke: #030303; stroke-width: 0.8"/>
      </g>
     </g>
     <g id="text_23">
      <!-- $\mathdefault{40}$ -->
      <g style="fill: #030303" transform="translate(218.77529 612.357969) scale(0.13 -0.13)">
       <use xlink:href="#DejaVuSerif-34" transform="translate(0 0.78125)"/>
       <use xlink:href="#DejaVuSerif-30" transform="translate(63.623047 0.78125)"/>
      </g>
     </g>
    </g>
    <g id="xtick_11">
     <g id="line2d_22">
      <g>
       <use xlink:href="#m3c4fa5d2ac" x="277.974637" y="595.48" style="fill: #030303; stroke: #030303; stroke-width: 0.8"/>
      </g>
     </g>
     <g id="text_24">
      <!-- $\mathdefault{50}$ -->
      <g style="fill: #030303" transform="translate(269.654637 612.357969) scale(0.13 -0.13)">
       <use xlink:href="#DejaVuSerif-35" transform="translate(0 0.78125)"/>
       <use xlink:href="#DejaVuSerif-30" transform="translate(63.623047 0.78125)"/>
      </g>
     </g>
    </g>
    <g id="xtick_12">
     <g id="line2d_23">
      <g>
       <use xlink:href="#m3c4fa5d2ac" x="328.853985" y="595.48" style="fill: #030303; stroke: #030303; stroke-width: 0.8"/>
      </g>
     </g>
     <g id="text_25">
      <!-- $\mathdefault{60}$ -->
      <g style="fill: #030303" transform="translate(320.533985 612.357969) scale(0.13 -0.13)">
       <use xlink:href="#DejaVuSerif-36" transform="translate(0 0.78125)"/>
       <use xlink:href="#DejaVuSerif-30" transform="translate(63.623047 0.78125)"/>
      </g>
     </g>
    </g>
    <g id="xtick_13">
     <g id="line2d_24">
      <g>
       <use xlink:href="#m3c4fa5d2ac" x="379.733332" y="595.48" style="fill: #030303; stroke: #030303; stroke-width: 0.8"/>
      </g>
     </g>
     <g id="text_26">
      <!-- $\mathdefault{70}$ -->
      <g style="fill: #030303" transform="translate(371.413332 612.357969) scale(0.13 -0.13)">
       <use xlink:href="#DejaVuSerif-37" transform="translate(0 0.78125)"/>
       <use xlink:href="#DejaVuSerif-30" transform="translate(63.623047 0.78125)"/>
      </g>
     </g>
    </g>
    <g id="text_27">
     <!-- Young's Modulus (MPa) -->
     <g style="fill: #030303" transform="translate(137.42478 632.73875) scale(0.18 -0.18)">
      <use xlink:href="#DejaVuSerif-59"/>
      <use xlink:href="#DejaVuSerif-6f" transform="translate(57.265625 0)"/>
      <use xlink:href="#DejaVuSerif-75" transform="translate(117.470703 0)"/>
      <use xlink:href="#DejaVuSerif-6e" transform="translate(181.875 0)"/>
      <use xlink:href="#DejaVuSerif-67" transform="translate(246.279297 0)"/>
      <use xlink:href="#DejaVuSerif-27" transform="translate(310.292969 0)"/>
      <use xlink:href="#DejaVuSerif-73" transform="translate(337.783203 0)"/>
      <use xlink:href="#DejaVuSerif-20" transform="translate(389.101562 0)"/>
      <use xlink:href="#DejaVuSerif-4d" transform="translate(420.888672 0)"/>
      <use xlink:href="#DejaVuSerif-6f" transform="translate(523.28125 0)"/>
      <use xlink:href="#DejaVuSerif-64" transform="translate(583.486328 0)"/>
      <use xlink:href="#DejaVuSerif-75" transform="translate(647.5 0)"/>
      <use xlink:href="#DejaVuSerif-6c" transform="translate(711.904297 0)"/>
      <use xlink:href="#DejaVuSerif-75" transform="translate(743.886719 0)"/>
      <use xlink:href="#DejaVuSerif-73" transform="translate(808.291016 0)"/>
      <use xlink:href="#DejaVuSerif-20" transform="translate(859.609375 0)"/>
      <use xlink:href="#DejaVuSerif-28" transform="translate(891.396484 0)"/>
      <use xlink:href="#DejaVuSerif-4d" transform="translate(930.410156 0)"/>
      <use xlink:href="#DejaVuSerif-50" transform="translate(1032.802734 0)"/>
      <use xlink:href="#DejaVuSerif-61" transform="translate(1095.587891 0)"/>
      <use xlink:href="#DejaVuSerif-29" transform="translate(1155.207031 0)"/>
     </g>
    </g>
   </g>
   <g id="matplotlib.axis_4">
    <g id="ytick_10">
     <g id="line2d_25">
      <g>
       <use xlink:href="#m29397c63dd" x="68.606123" y="595.48" style="fill: #030303; stroke: #030303; stroke-width: 0.8"/>
      </g>
     </g>
     <g id="text_28">
      <!-- 0.00 -->
      <g style="fill: #030303" transform="translate(32.660811 600.418984) scale(0.13 -0.13)">
       <use xlink:href="#DejaVuSerif-30"/>
       <use xlink:href="#DejaVuSerif-2e" transform="translate(63.623047 0)"/>
       <use xlink:href="#DejaVuSerif-30" transform="translate(95.410156 0)"/>
       <use xlink:href="#DejaVuSerif-30" transform="translate(159.033203 0)"/>
      </g>
     </g>
    </g>
    <g id="ytick_11">
     <g id="line2d_26">
      <g>
       <use xlink:href="#m29397c63dd" x="68.606123" y="551.553333" style="fill: #030303; stroke: #030303; stroke-width: 0.8"/>
      </g>
     </g>
     <g id="text_29">
      <!-- 0.20 -->
      <g style="fill: #030303" transform="translate(32.660811 556.492318) scale(0.13 -0.13)">
       <use xlink:href="#DejaVuSerif-30"/>
       <use xlink:href="#DejaVuSerif-2e" transform="translate(63.623047 0)"/>
       <use xlink:href="#DejaVuSerif-32" transform="translate(95.410156 0)"/>
       <use xlink:href="#DejaVuSerif-30" transform="translate(159.033203 0)"/>
      </g>
     </g>
    </g>
    <g id="ytick_12">
     <g id="line2d_27">
      <g>
       <use xlink:href="#m29397c63dd" x="68.606123" y="507.626667" style="fill: #030303; stroke: #030303; stroke-width: 0.8"/>
      </g>
     </g>
     <g id="text_30">
      <!-- 0.40 -->
      <g style="fill: #030303" transform="translate(32.660811 512.565651) scale(0.13 -0.13)">
       <use xlink:href="#DejaVuSerif-30"/>
       <use xlink:href="#DejaVuSerif-2e" transform="translate(63.623047 0)"/>
       <use xlink:href="#DejaVuSerif-34" transform="translate(95.410156 0)"/>
       <use xlink:href="#DejaVuSerif-30" transform="translate(159.033203 0)"/>
      </g>
     </g>
    </g>
    <g id="ytick_13">
     <g id="line2d_28">
      <g>
       <use xlink:href="#m29397c63dd" x="68.606123" y="463.7" style="fill: #030303; stroke: #030303; stroke-width: 0.8"/>
      </g>
     </g>
     <g id="text_31">
      <!-- 0.60 -->
      <g style="fill: #030303" transform="translate(32.660811 468.638984) scale(0.13 -0.13)">
       <use xlink:href="#DejaVuSerif-30"/>
       <use xlink:href="#DejaVuSerif-2e" transform="translate(63.623047 0)"/>
       <use xlink:href="#DejaVuSerif-36" transform="translate(95.410156 0)"/>
       <use xlink:href="#DejaVuSerif-30" transform="translate(159.033203 0)"/>
      </g>
     </g>
    </g>
    <g id="ytick_14">
     <g id="line2d_29">
      <g>
       <use xlink:href="#m29397c63dd" x="68.606123" y="419.773333" style="fill: #030303; stroke: #030303; stroke-width: 0.8"/>
      </g>
     </g>
    </g>
    <g id="ytick_15">
     <g id="line2d_30">
      <g>
       <use xlink:href="#m29397c63dd" x="68.606123" y="375.846667" style="fill: #030303; stroke: #030303; stroke-width: 0.8"/>
      </g>
     </g>
     <g id="text_32">
      <!-- 1.00 -->
      <g style="fill: #030303" transform="translate(32.660811 380.785651) scale(0.13 -0.13)">
       <use xlink:href="#DejaVuSerif-31"/>
       <use xlink:href="#DejaVuSerif-2e" transform="translate(63.623047 0)"/>
       <use xlink:href="#DejaVuSerif-30" transform="translate(95.410156 0)"/>
       <use xlink:href="#DejaVuSerif-30" transform="translate(159.033203 0)"/>
      </g>
     </g>
    </g>
    <g id="ytick_16">
     <g id="line2d_31">
      <g>
       <use xlink:href="#m29397c63dd" x="68.606123" y="331.92" style="fill: #030303; stroke: #030303; stroke-width: 0.8"/>
      </g>
     </g>
     <g id="text_33">
      <!-- 1.20 -->
      <g style="fill: #030303" transform="translate(32.660811 336.858984) scale(0.13 -0.13)">
       <use xlink:href="#DejaVuSerif-31"/>
       <use xlink:href="#DejaVuSerif-2e" transform="translate(63.623047 0)"/>
       <use xlink:href="#DejaVuSerif-32" transform="translate(95.410156 0)"/>
       <use xlink:href="#DejaVuSerif-30" transform="translate(159.033203 0)"/>
      </g>
     </g>
    </g>
    <g id="ytick_17">
     <g id="line2d_32">
      <g>
       <use xlink:href="#m29397c63dd" x="68.606123" y="410.692649" style="fill: #030303; stroke: #030303; stroke-width: 0.8"/>
      </g>
     </g>
     <g id="text_34">
      <!-- 0.84 -->
      <g style="fill: #030303" transform="translate(32.660811 415.631633) scale(0.13 -0.13)">
       <defs>
        <path id="DejaVuSerif-38" d="M 2981 1275 
Q 2981 1775 2732 2051 
Q 2484 2328 2034 2328 
Q 1584 2328 1336 2051 
Q 1088 1775 1088 1275 
Q 1088 772 1336 495 
Q 1584 219 2034 219 
Q 2484 219 2732 495 
Q 2981 772 2981 1275 
z
M 2853 3541 
Q 2853 3966 2637 4203 
Q 2422 4441 2034 4441 
Q 1650 4441 1433 4203 
Q 1216 3966 1216 3541 
Q 1216 3113 1433 2875 
Q 1650 2638 2034 2638 
Q 2422 2638 2637 2875 
Q 2853 3113 2853 3541 
z
M 2516 2484 
Q 3047 2413 3344 2092 
Q 3641 1772 3641 1275 
Q 3641 619 3225 264 
Q 2809 -91 2034 -91 
Q 1263 -91 845 264 
Q 428 619 428 1275 
Q 428 1772 725 2092 
Q 1022 2413 1556 2484 
Q 1084 2569 832 2842 
Q 581 3116 581 3541 
Q 581 4103 968 4426 
Q 1356 4750 2034 4750 
Q 2713 4750 3100 4426 
Q 3488 4103 3488 3541 
Q 3488 3116 3236 2842 
Q 2984 2569 2516 2484 
z
" transform="scale(0.015625)"/>
       </defs>
       <use xlink:href="#DejaVuSerif-30"/>
       <use xlink:href="#DejaVuSerif-2e" transform="translate(63.623047 0)"/>
       <use xlink:href="#DejaVuSerif-38" transform="translate(95.410156 0)"/>
       <use xlink:href="#DejaVuSerif-34" transform="translate(159.033203 0)"/>
      </g>
     </g>
    </g>
    <g id="text_35">
     <!-- Cumulative Probability -->
     <g style="fill: #030303" transform="translate(24.661436 568.728594) rotate(-90) scale(0.18 -0.18)">
      <defs>
       <path id="DejaVuSerif-43" d="M 4513 1234 
Q 4306 581 3820 245 
Q 3334 -91 2591 -91 
Q 2134 -91 1743 65 
Q 1353 222 1050 525 
Q 700 875 529 1320 
Q 359 1766 359 2328 
Q 359 3416 987 4083 
Q 1616 4750 2644 4750 
Q 3025 4750 3456 4650 
Q 3888 4550 4384 4347 
L 4384 3272 
L 4031 3272 
Q 3916 3859 3567 4137 
Q 3219 4416 2591 4416 
Q 1844 4416 1459 3886 
Q 1075 3356 1075 2328 
Q 1075 1303 1459 773 
Q 1844 244 2591 244 
Q 3113 244 3450 492 
Q 3788 741 3938 1234 
L 4513 1234 
z
" transform="scale(0.015625)"/>
       <path id="DejaVuSerif-6d" d="M 3316 2675 
Q 3481 3041 3739 3227 
Q 3997 3413 4341 3413 
Q 4863 3413 5119 3089 
Q 5375 2766 5375 2113 
L 5375 331 
L 5894 331 
L 5894 0 
L 4300 0 
L 4300 331 
L 4800 331 
L 4800 2047 
Q 4800 2556 4650 2772 
Q 4500 2988 4153 2988 
Q 3769 2988 3567 2697 
Q 3366 2406 3366 1850 
L 3366 331 
L 3866 331 
L 3866 0 
L 2291 0 
L 2291 331 
L 2791 331 
L 2791 2069 
Q 2791 2566 2641 2777 
Q 2491 2988 2144 2988 
Q 1759 2988 1557 2697 
Q 1356 2406 1356 1850 
L 1356 331 
L 1856 331 
L 1856 0 
L 263 0 
L 263 331 
L 781 331 
L 781 2994 
L 231 2994 
L 231 3322 
L 1356 3322 
L 1356 2731 
Q 1516 3063 1762 3238 
Q 2009 3413 2322 3413 
Q 2709 3413 2968 3220 
Q 3228 3028 3316 2675 
z
" transform="scale(0.015625)"/>
       <path id="DejaVuSerif-76" d="M 1581 0 
L 359 2988 
L -19 2988 
L -19 3322 
L 1509 3322 
L 1509 2988 
L 978 2988 
L 1913 703 
L 2847 2988 
L 2350 2988 
L 2350 3322 
L 3597 3322 
L 3597 2988 
L 3225 2988 
L 2003 0 
L 1581 0 
z
" transform="scale(0.015625)"/>
      </defs>
      <use xlink:href="#DejaVuSerif-43"/>
      <use xlink:href="#DejaVuSerif-75" transform="translate(76.513672 0)"/>
      <use xlink:href="#DejaVuSerif-6d" transform="translate(140.917969 0)"/>
      <use xlink:href="#DejaVuSerif-75" transform="translate(235.742188 0)"/>
      <use xlink:href="#DejaVuSerif-6c" transform="translate(300.146484 0)"/>
      <use xlink:href="#DejaVuSerif-61" transform="translate(332.128906 0)"/>
      <use xlink:href="#DejaVuSerif-74" transform="translate(391.748047 0)"/>
      <use xlink:href="#DejaVuSerif-69" transform="translate(431.933594 0)"/>
      <use xlink:href="#DejaVuSerif-76" transform="translate(463.916016 0)"/>
      <use xlink:href="#DejaVuSerif-65" transform="translate(520.410156 0)"/>
      <use xlink:href="#DejaVuSerif-20" transform="translate(579.589844 0)"/>
      <use xlink:href="#DejaVuSerif-50" transform="translate(611.376953 0)"/>
      <use xlink:href="#DejaVuSerif-72" transform="translate(678.662109 0)"/>
      <use xlink:href="#DejaVuSerif-6f" transform="translate(726.464844 0)"/>
      <use xlink:href="#DejaVuSerif-62" transform="translate(786.669922 0)"/>
      <use xlink:href="#DejaVuSerif-61" transform="translate(850.683594 0)"/>
      <use xlink:href="#DejaVuSerif-62" transform="translate(910.302734 0)"/>
      <use xlink:href="#DejaVuSerif-69" transform="translate(974.316406 0)"/>
      <use xlink:href="#DejaVuSerif-6c" transform="translate(1006.298828 0)"/>
      <use xlink:href="#DejaVuSerif-69" transform="translate(1038.28125 0)"/>
      <use xlink:href="#DejaVuSerif-74" transform="translate(1070.263672 0)"/>
      <use xlink:href="#DejaVuSerif-79" transform="translate(1110.449219 0)"/>
     </g>
    </g>
   </g>
   <g id="line2d_33">
    <path d="M 99.896922 595.183517 
L 112.42577 594.833003 
L 121.898802 594.355314 
L 129.843925 593.734913 
L 136.566722 592.992601 
L 142.678355 592.093493 
L 148.178825 591.058564 
L 153.068131 589.924552 
L 157.651856 588.649365 
L 162.235581 587.141062 
L 166.513725 585.498116 
L 170.486286 583.748429 
L 174.458848 581.764096 
L 178.43141 579.52732 
L 182.403971 577.021301 
L 186.070951 574.455773 
L 189.737931 571.637085 
L 193.404911 568.556292 
L 197.377473 564.915 
L 201.350035 560.952247 
L 205.322596 556.665853 
L 209.295158 552.057549 
L 213.573301 546.741641 
L 217.851445 541.072403 
L 222.43517 534.627938 
L 227.324476 527.366168 
L 232.824946 518.776414 
L 238.93658 508.805726 
L 246.881703 495.379007 
L 267.966838 459.489489 
L 274.078471 449.641969 
L 279.578941 441.193129 
L 284.468248 434.076724 
L 289.051973 427.782412 
L 293.330116 422.262615 
L 297.608259 417.102485 
L 301.580821 412.642278 
L 305.553383 408.505285 
L 309.525944 404.691395 
L 313.498506 401.196731 
L 317.471068 398.014025 
L 321.443629 395.133038 
L 325.416191 392.541008 
L 329.388753 390.223119 
L 333.361314 388.162969 
L 337.333876 386.343021 
L 341.612019 384.630776 
L 345.890162 383.152788 
L 350.473887 381.802986 
L 355.363194 380.599267 
L 360.558082 379.552269 
L 366.364134 378.621826 
L 372.475767 377.8679 
L 379.504146 377.227956 
L 387.754851 376.710768 
L 397.533464 376.327003 
L 405.173006 376.143149 
L 405.173006 376.143149 
" clip-path="url(#paa5208dde7)" style="fill: none; stroke: #28b80b; stroke-width: 2; stroke-linecap: square"/>
   </g>
   <g id="line2d_34">
    <path d="M 84.633117 410.692649 
L 303.414311 410.692649 
" clip-path="url(#paa5208dde7)" style="fill: none; stroke-dasharray: 3.7,1.6; stroke-dashoffset: 0; stroke: #000000"/>
   </g>
   <g id="line2d_35">
    <path d="M 298.327865 416.005577 
L 308.500757 405.37972 
" clip-path="url(#paa5208dde7)" style="fill: none; stroke: #000000; stroke-linecap: square"/>
   </g>
   <g id="line2d_36">
    <path d="M 298.327105 406.974215 
L 308.501516 414.411083 
" clip-path="url(#paa5208dde7)" style="fill: none; stroke: #ff0000; stroke-width: 2; stroke-linecap: square"/>
   </g>
   <g id="patch_9">
    <path d="M 68.606123 595.48 
L 68.606123 331.92 
" style="fill: none; stroke: #030303; stroke-width: 1.5; stroke-linejoin: miter; stroke-linecap: square"/>
   </g>
   <g id="patch_10">
    <path d="M 68.606123 595.48 
L 421.2 595.48 
" style="fill: none; stroke: #030303; stroke-width: 1.5; stroke-linejoin: miter; stroke-linecap: square"/>
   </g>
   <g id="patch_11">
    <path d="M 334.868765 444.11507 
Q 326.232171 435.080151 317.595577 426.045231 
L 315.426992 428.118209 
Q 312.726838 422.399136 310.026685 416.680063 
Q 315.618285 419.635165 321.209886 422.590268 
L 319.041301 424.663246 
Q 327.677895 433.698165 336.314489 442.733085 
L 334.868765 444.11507 
z
" style="fill: #e04b4b; stroke: #000000; stroke-linecap: round"/>
   </g>
   <g id="text_36">
    <!-- $1-\text{CDF}(55)$ -->
    <g style="fill: #e04b4b" transform="translate(339.029854 454.619316) scale(0.1 -0.1)">
     <defs>
      <path id="DejaVuSans-31" d="M 794 531 
L 1825 531 
L 1825 4091 
L 703 3866 
L 703 4441 
L 1819 4666 
L 2450 4666 
L 2450 531 
L 3481 531 
L 3481 0 
L 794 0 
L 794 531 
z
" transform="scale(0.015625)"/>
      <path id="DejaVuSans-2212" d="M 678 2272 
L 4684 2272 
L 4684 1741 
L 678 1741 
L 678 2272 
z
" transform="scale(0.015625)"/>
      <path id="DejaVuSans-43" d="M 4122 4306 
L 4122 3641 
Q 3803 3938 3442 4084 
Q 3081 4231 2675 4231 
Q 1875 4231 1450 3742 
Q 1025 3253 1025 2328 
Q 1025 1406 1450 917 
Q 1875 428 2675 428 
Q 3081 428 3442 575 
Q 3803 722 4122 1019 
L 4122 359 
Q 3791 134 3420 21 
Q 3050 -91 2638 -91 
Q 1578 -91 968 557 
Q 359 1206 359 2328 
Q 359 3453 968 4101 
Q 1578 4750 2638 4750 
Q 3056 4750 3426 4639 
Q 3797 4528 4122 4306 
z
" transform="scale(0.015625)"/>
      <path id="DejaVuSans-44" d="M 1259 4147 
L 1259 519 
L 2022 519 
Q 2988 519 3436 956 
Q 3884 1394 3884 2338 
Q 3884 3275 3436 3711 
Q 2988 4147 2022 4147 
L 1259 4147 
z
M 628 4666 
L 1925 4666 
Q 3281 4666 3915 4102 
Q 4550 3538 4550 2338 
Q 4550 1131 3912 565 
Q 3275 0 1925 0 
L 628 0 
L 628 4666 
z
" transform="scale(0.015625)"/>
      <path id="DejaVuSans-46" d="M 628 4666 
L 3309 4666 
L 3309 4134 
L 1259 4134 
L 1259 2759 
L 3109 2759 
L 3109 2228 
L 1259 2228 
L 1259 0 
L 628 0 
L 628 4666 
z
" transform="scale(0.015625)"/>
      <path id="DejaVuSans-28" d="M 1984 4856 
Q 1566 4138 1362 3434 
Q 1159 2731 1159 2009 
Q 1159 1288 1364 580 
Q 1569 -128 1984 -844 
L 1484 -844 
Q 1016 -109 783 600 
Q 550 1309 550 2009 
Q 550 2706 781 3412 
Q 1013 4119 1484 4856 
L 1984 4856 
z
" transform="scale(0.015625)"/>
      <path id="DejaVuSans-35" d="M 691 4666 
L 3169 4666 
L 3169 4134 
L 1269 4134 
L 1269 2991 
Q 1406 3038 1543 3061 
Q 1681 3084 1819 3084 
Q 2600 3084 3056 2656 
Q 3513 2228 3513 1497 
Q 3513 744 3044 326 
Q 2575 -91 1722 -91 
Q 1428 -91 1123 -41 
Q 819 9 494 109 
L 494 744 
Q 775 591 1075 516 
Q 1375 441 1709 441 
Q 2250 441 2565 725 
Q 2881 1009 2881 1497 
Q 2881 1984 2565 2268 
Q 2250 2553 1709 2553 
Q 1456 2553 1204 2497 
Q 953 2441 691 2322 
L 691 4666 
z
" transform="scale(0.015625)"/>
      <path id="DejaVuSans-29" d="M 513 4856 
L 1013 4856 
Q 1481 4119 1714 3412 
Q 1947 2706 1947 2009 
Q 1947 1309 1714 600 
Q 1481 -109 1013 -844 
L 513 -844 
Q 928 -128 1133 580 
Q 1338 1288 1338 2009 
Q 1338 2731 1133 3434 
Q 928 4138 513 4856 
z
" transform="scale(0.015625)"/>
     </defs>
     <use xlink:href="#DejaVuSans-31" transform="translate(0 0.125)"/>
     <use xlink:href="#DejaVuSans-2212" transform="translate(83.105469 0.125)"/>
     <use xlink:href="#DejaVuSans-43" transform="translate(186.376953 0.125)"/>
     <use xlink:href="#DejaVuSans-44" transform="translate(256.201172 0.125)"/>
     <use xlink:href="#DejaVuSans-46" transform="translate(333.203125 0.125)"/>
     <use xlink:href="#DejaVuSans-28" transform="translate(390.722656 0.125)"/>
     <use xlink:href="#DejaVuSans-35" transform="translate(429.736328 0.125)"/>
     <use xlink:href="#DejaVuSans-35" transform="translate(493.359375 0.125)"/>
     <use xlink:href="#DejaVuSans-29" transform="translate(556.982422 0.125)"/>
    </g>
   </g>
  </g>
 </g>
 <defs>
  <clipPath id="p0562089a74">
   <rect x="68.606123" y="10.8" width="352.593877" height="263.56"/>
  </clipPath>
  <clipPath id="paa5208dde7">
   <rect x="68.606123" y="331.92" width="352.593877" height="263.56"/>
  </clipPath>
 </defs>
</svg>
