<?xml version="1.0" encoding="utf-8" standalone="no"?>
<!DOCTYPE svg PUBLIC "-//W3C//DTD SVG 1.1//EN"
  "http://www.w3.org/Graphics/SVG/1.1/DTD/svg11.dtd">
<svg xmlns:xlink="http://www.w3.org/1999/xlink" width="432pt" height="270pt" viewBox="0 0 432 270" xmlns="http://www.w3.org/2000/svg" version="1.1">
 <metadata>
  <rdf:RDF xmlns:dc="http://purl.org/dc/elements/1.1/" xmlns:cc="http://creativecommons.org/ns#" xmlns:rdf="http://www.w3.org/1999/02/22-rdf-syntax-ns#">
   <cc:Work>
    <dc:type rdf:resource="http://purl.org/dc/dcmitype/StillImage"/>
    <dc:date>2025-01-13T20:20:30.788360</dc:date>
    <dc:format>image/svg+xml</dc:format>
    <dc:creator>
     <cc:Agent>
      <dc:title>Matplotlib v3.10.0, https://matplotlib.org/</dc:title>
     </cc:Agent>
    </dc:creator>
   </cc:Work>
  </rdf:RDF>
 </metadata>
 <defs>
  <style type="text/css">*{stroke-linejoin: round; stroke-linecap: butt}</style>
 </defs>
 <g id="figure_1">
  <g id="patch_1">
   <path d="M 0 270 
L 432 270 
L 432 0 
L 0 0 
L 0 270 
z
" style="fill: none"/>
  </g>
  <g id="axes_1">
   <g id="patch_2">
    <path d="M 54 240.3 
L 388.8 240.3 
L 388.8 32.4 
L 54 32.4 
L 54 240.3 
z
" style="fill: none"/>
   </g>
   <g id="matplotlib.axis_1">
    <g id="xtick_1">
     <g id="line2d_1">
      <defs>
       <path id="m4360634bac" d="M 0 0 
L 0 3.5 
" style="stroke: #030303; stroke-width: 0.8"/>
      </defs>
      <g>
       <use xlink:href="#m4360634bac" x="94.581818" y="240.3" style="fill: #030303; stroke: #030303; stroke-width: 0.8"/>
      </g>
     </g>
     <g id="text_1">
      <!-- $\mathdefault{20}$ -->
      <g style="fill: #030303" transform="translate(86.261818 257.177969) scale(0.13 -0.13)">
       <defs>
        <path id="DejaVuSerif-32" d="M 819 3553 
L 469 3553 
L 469 4384 
Q 803 4563 1142 4656 
Q 1481 4750 1806 4750 
Q 2534 4750 2956 4397 
Q 3378 4044 3378 3438 
Q 3378 2753 2422 1800 
Q 2347 1728 2309 1691 
L 1131 513 
L 3078 513 
L 3078 1088 
L 3444 1088 
L 3444 0 
L 434 0 
L 434 341 
L 1850 1753 
Q 2319 2222 2519 2614 
Q 2719 3006 2719 3438 
Q 2719 3909 2473 4175 
Q 2228 4441 1797 4441 
Q 1350 4441 1106 4219 
Q 863 3997 819 3553 
z
" transform="scale(0.015625)"/>
        <path id="DejaVuSerif-30" d="M 2034 219 
Q 2513 219 2750 744 
Q 2988 1269 2988 2328 
Q 2988 3391 2750 3916 
Q 2513 4441 2034 4441 
Q 1556 4441 1318 3916 
Q 1081 3391 1081 2328 
Q 1081 1269 1318 744 
Q 1556 219 2034 219 
z
M 2034 -91 
Q 1275 -91 848 546 
Q 422 1184 422 2328 
Q 422 3475 848 4112 
Q 1275 4750 2034 4750 
Q 2797 4750 3222 4112 
Q 3647 3475 3647 2328 
Q 3647 1184 3222 546 
Q 2797 -91 2034 -91 
z
" transform="scale(0.015625)"/>
       </defs>
       <use xlink:href="#DejaVuSerif-32" transform="translate(0 0.78125)"/>
       <use xlink:href="#DejaVuSerif-30" transform="translate(63.623047 0.78125)"/>
      </g>
     </g>
    </g>
    <g id="xtick_2">
     <g id="line2d_2">
      <g>
       <use xlink:href="#m4360634bac" x="145.309091" y="240.3" style="fill: #030303; stroke: #030303; stroke-width: 0.8"/>
      </g>
     </g>
     <g id="text_2">
      <!-- $\mathdefault{30}$ -->
      <g style="fill: #030303" transform="translate(136.989091 257.177969) scale(0.13 -0.13)">
       <defs>
        <path id="DejaVuSerif-33" d="M 622 4469 
Q 988 4606 1323 4678 
Q 1659 4750 1953 4750 
Q 2638 4750 3022 4454 
Q 3406 4159 3406 3634 
Q 3406 3213 3140 2930 
Q 2875 2647 2388 2547 
Q 2963 2466 3280 2130 
Q 3597 1794 3597 1259 
Q 3597 606 3158 257 
Q 2719 -91 1894 -91 
Q 1528 -91 1179 -12 
Q 831 66 488 225 
L 488 1131 
L 838 1131 
Q 869 681 1141 450 
Q 1413 219 1906 219 
Q 2384 219 2661 495 
Q 2938 772 2938 1253 
Q 2938 1803 2653 2086 
Q 2369 2369 1819 2369 
L 1522 2369 
L 1522 2688 
L 1678 2688 
Q 2225 2688 2498 2914 
Q 2772 3141 2772 3597 
Q 2772 4006 2547 4223 
Q 2322 4441 1900 4441 
Q 1478 4441 1245 4241 
Q 1013 4041 972 3647 
L 622 3647 
L 622 4469 
z
" transform="scale(0.015625)"/>
       </defs>
       <use xlink:href="#DejaVuSerif-33" transform="translate(0 0.78125)"/>
       <use xlink:href="#DejaVuSerif-30" transform="translate(63.623047 0.78125)"/>
      </g>
     </g>
    </g>
    <g id="xtick_3">
     <g id="line2d_3">
      <g>
       <use xlink:href="#m4360634bac" x="196.036364" y="240.3" style="fill: #030303; stroke: #030303; stroke-width: 0.8"/>
      </g>
     </g>
     <g id="text_3">
      <!-- $\mathdefault{40}$ -->
      <g style="fill: #030303" transform="translate(187.716364 257.177969) scale(0.13 -0.13)">
       <defs>
        <path id="DejaVuSerif-34" d="M 2234 1581 
L 2234 4063 
L 641 1581 
L 2234 1581 
z
M 3609 0 
L 1484 0 
L 1484 331 
L 2234 331 
L 2234 1247 
L 197 1247 
L 197 1588 
L 2241 4750 
L 2859 4750 
L 2859 1581 
L 3750 1581 
L 3750 1247 
L 2859 1247 
L 2859 331 
L 3609 331 
L 3609 0 
z
" transform="scale(0.015625)"/>
       </defs>
       <use xlink:href="#DejaVuSerif-34" transform="translate(0 0.78125)"/>
       <use xlink:href="#DejaVuSerif-30" transform="translate(63.623047 0.78125)"/>
      </g>
     </g>
    </g>
    <g id="xtick_4">
     <g id="line2d_4">
      <g>
       <use xlink:href="#m4360634bac" x="246.763636" y="240.3" style="fill: #030303; stroke: #030303; stroke-width: 0.8"/>
      </g>
     </g>
     <g id="text_4">
      <!-- $\mathdefault{50}$ -->
      <g style="fill: #030303" transform="translate(238.443636 257.177969) scale(0.13 -0.13)">
       <defs>
        <path id="DejaVuSerif-35" d="M 3219 4666 
L 3219 4153 
L 1081 4153 
L 1081 2816 
Q 1244 2928 1461 2984 
Q 1678 3041 1947 3041 
Q 2703 3041 3140 2622 
Q 3578 2203 3578 1478 
Q 3578 738 3136 323 
Q 2694 -91 1894 -91 
Q 1572 -91 1234 -12 
Q 897 66 544 225 
L 544 1131 
L 897 1131 
Q 925 688 1179 453 
Q 1434 219 1894 219 
Q 2388 219 2653 544 
Q 2919 869 2919 1478 
Q 2919 2084 2655 2407 
Q 2391 2731 1894 2731 
Q 1613 2731 1398 2631 
Q 1184 2531 1019 2322 
L 750 2322 
L 750 4666 
L 3219 4666 
z
" transform="scale(0.015625)"/>
       </defs>
       <use xlink:href="#DejaVuSerif-35" transform="translate(0 0.78125)"/>
       <use xlink:href="#DejaVuSerif-30" transform="translate(63.623047 0.78125)"/>
      </g>
     </g>
    </g>
    <g id="xtick_5">
     <g id="line2d_5">
      <g>
       <use xlink:href="#m4360634bac" x="297.490909" y="240.3" style="fill: #030303; stroke: #030303; stroke-width: 0.8"/>
      </g>
     </g>
     <g id="text_5">
      <!-- $\mathdefault{60}$ -->
      <g style="fill: #030303" transform="translate(289.170909 257.177969) scale(0.13 -0.13)">
       <defs>
        <path id="DejaVuSerif-36" d="M 2094 219 
Q 2534 219 2771 542 
Q 3009 866 3009 1472 
Q 3009 2078 2771 2401 
Q 2534 2725 2094 2725 
Q 1647 2725 1412 2412 
Q 1178 2100 1178 1509 
Q 1178 888 1415 553 
Q 1653 219 2094 219 
z
M 1075 2569 
Q 1288 2803 1556 2918 
Q 1825 3034 2163 3034 
Q 2859 3034 3264 2615 
Q 3669 2197 3669 1472 
Q 3669 763 3233 336 
Q 2797 -91 2069 -91 
Q 1278 -91 853 498 
Q 428 1088 428 2181 
Q 428 3406 931 4078 
Q 1434 4750 2350 4750 
Q 2597 4750 2869 4703 
Q 3141 4656 3425 4563 
L 3425 3794 
L 3072 3794 
Q 3034 4109 2831 4275 
Q 2628 4441 2284 4441 
Q 1678 4441 1381 3981 
Q 1084 3522 1075 2569 
z
" transform="scale(0.015625)"/>
       </defs>
       <use xlink:href="#DejaVuSerif-36" transform="translate(0 0.78125)"/>
       <use xlink:href="#DejaVuSerif-30" transform="translate(63.623047 0.78125)"/>
      </g>
     </g>
    </g>
    <g id="xtick_6">
     <g id="line2d_6">
      <g>
       <use xlink:href="#m4360634bac" x="348.218182" y="240.3" style="fill: #030303; stroke: #030303; stroke-width: 0.8"/>
      </g>
     </g>
     <g id="text_6">
      <!-- $\mathdefault{70}$ -->
      <g style="fill: #030303" transform="translate(339.898182 257.177969) scale(0.13 -0.13)">
       <defs>
        <path id="DejaVuSerif-37" d="M 3609 4347 
L 1784 0 
L 1319 0 
L 3059 4153 
L 903 4153 
L 903 3578 
L 538 3578 
L 538 4666 
L 3609 4666 
L 3609 4347 
z
" transform="scale(0.015625)"/>
       </defs>
       <use xlink:href="#DejaVuSerif-37" transform="translate(0 0.78125)"/>
       <use xlink:href="#DejaVuSerif-30" transform="translate(63.623047 0.78125)"/>
      </g>
     </g>
    </g>
    <g id="text_7">
     <!-- Young's Modulus (MPa) -->
     <g style="fill: #030303" transform="translate(113.921719 277.55875) scale(0.18 -0.18)">
      <defs>
       <path id="DejaVuSerif-59" d="M 1209 0 
L 1209 331 
L 1806 331 
L 1806 2009 
L 366 4331 
L -72 4331 
L -72 4666 
L 1663 4666 
L 1663 4331 
L 1119 4331 
L 2284 2444 
L 3450 4331 
L 2925 4331 
L 2925 4666 
L 4281 4666 
L 4281 4331 
L 3841 4331 
L 2438 2069 
L 2438 331 
L 3034 331 
L 3034 0 
L 1209 0 
z
" transform="scale(0.015625)"/>
       <path id="DejaVuSerif-6f" d="M 1925 219 
Q 2388 219 2623 584 
Q 2859 950 2859 1663 
Q 2859 2375 2623 2739 
Q 2388 3103 1925 3103 
Q 1463 3103 1227 2739 
Q 991 2375 991 1663 
Q 991 950 1228 584 
Q 1466 219 1925 219 
z
M 1925 -91 
Q 1200 -91 759 389 
Q 319 869 319 1663 
Q 319 2456 758 2934 
Q 1197 3413 1925 3413 
Q 2653 3413 3092 2934 
Q 3531 2456 3531 1663 
Q 3531 869 3092 389 
Q 2653 -91 1925 -91 
z
" transform="scale(0.015625)"/>
       <path id="DejaVuSerif-75" d="M 2266 3322 
L 3341 3322 
L 3341 331 
L 3884 331 
L 3884 0 
L 2766 0 
L 2766 588 
Q 2606 256 2353 82 
Q 2100 -91 1766 -91 
Q 1213 -91 952 223 
Q 691 538 691 1209 
L 691 2988 
L 172 2988 
L 172 3322 
L 1269 3322 
L 1269 1388 
Q 1269 781 1417 556 
Q 1566 331 1947 331 
Q 2347 331 2556 625 
Q 2766 919 2766 1478 
L 2766 2988 
L 2266 2988 
L 2266 3322 
z
" transform="scale(0.015625)"/>
       <path id="DejaVuSerif-6e" d="M 263 0 
L 263 331 
L 781 331 
L 781 2988 
L 231 2988 
L 231 3322 
L 1356 3322 
L 1356 2731 
Q 1516 3069 1770 3241 
Q 2025 3413 2363 3413 
Q 2913 3413 3172 3097 
Q 3431 2781 3431 2113 
L 3431 331 
L 3944 331 
L 3944 0 
L 2356 0 
L 2356 331 
L 2853 331 
L 2853 1931 
Q 2853 2541 2703 2767 
Q 2553 2994 2175 2994 
Q 1775 2994 1565 2701 
Q 1356 2409 1356 1850 
L 1356 331 
L 1856 331 
L 1856 0 
L 263 0 
z
" transform="scale(0.015625)"/>
       <path id="DejaVuSerif-67" d="M 3359 2988 
L 3359 72 
Q 3359 -644 2965 -1033 
Q 2572 -1422 1844 -1422 
Q 1516 -1422 1216 -1362 
Q 916 -1303 641 -1184 
L 641 -488 
L 941 -488 
Q 997 -813 1206 -963 
Q 1416 -1113 1806 -1113 
Q 2313 -1113 2548 -827 
Q 2784 -541 2784 72 
L 2784 519 
Q 2616 206 2355 57 
Q 2094 -91 1709 -91 
Q 1097 -91 708 395 
Q 319 881 319 1663 
Q 319 2444 706 2928 
Q 1094 3413 1709 3413 
Q 2094 3413 2355 3264 
Q 2616 3116 2784 2803 
L 2784 3322 
L 3909 3322 
L 3909 2988 
L 3359 2988 
z
M 2784 1825 
Q 2784 2422 2554 2737 
Q 2325 3053 1888 3053 
Q 1444 3053 1217 2703 
Q 991 2353 991 1663 
Q 991 975 1217 622 
Q 1444 269 1888 269 
Q 2325 269 2554 583 
Q 2784 897 2784 1497 
L 2784 1825 
z
" transform="scale(0.015625)"/>
       <path id="DejaVuSerif-27" d="M 1125 4666 
L 1125 2931 
L 628 2931 
L 628 4666 
L 1125 4666 
z
" transform="scale(0.015625)"/>
       <path id="DejaVuSerif-73" d="M 359 184 
L 359 959 
L 691 959 
Q 703 588 923 403 
Q 1144 219 1575 219 
Q 1963 219 2166 364 
Q 2369 509 2369 788 
Q 2369 1006 2220 1140 
Q 2072 1275 1594 1428 
L 1178 1569 
Q 750 1706 558 1912 
Q 366 2119 366 2438 
Q 366 2894 700 3153 
Q 1034 3413 1625 3413 
Q 1888 3413 2178 3344 
Q 2469 3275 2778 3144 
L 2778 2419 
L 2447 2419 
Q 2434 2741 2221 2922 
Q 2009 3103 1644 3103 
Q 1281 3103 1095 2975 
Q 909 2847 909 2591 
Q 909 2381 1050 2254 
Q 1191 2128 1613 1997 
L 2069 1856 
Q 2541 1709 2748 1489 
Q 2956 1269 2956 922 
Q 2956 450 2595 179 
Q 2234 -91 1600 -91 
Q 1278 -91 972 -22 
Q 666 47 359 184 
z
" transform="scale(0.015625)"/>
       <path id="DejaVuSerif-20" transform="scale(0.015625)"/>
       <path id="DejaVuSerif-4d" d="M 353 0 
L 353 331 
L 947 331 
L 947 4331 
L 319 4331 
L 319 4666 
L 1678 4666 
L 3316 1344 
L 4953 4666 
L 6228 4666 
L 6228 4331 
L 5606 4331 
L 5606 331 
L 6203 331 
L 6203 0 
L 4378 0 
L 4378 331 
L 4972 331 
L 4972 3938 
L 3372 684 
L 2931 684 
L 1331 3938 
L 1331 331 
L 1925 331 
L 1925 0 
L 353 0 
z
" transform="scale(0.015625)"/>
       <path id="DejaVuSerif-64" d="M 3359 331 
L 3909 331 
L 3909 0 
L 2784 0 
L 2784 519 
Q 2616 206 2355 57 
Q 2094 -91 1709 -91 
Q 1097 -91 708 395 
Q 319 881 319 1663 
Q 319 2444 706 2928 
Q 1094 3413 1709 3413 
Q 2094 3413 2355 3264 
Q 2616 3116 2784 2803 
L 2784 4531 
L 2241 4531 
L 2241 4863 
L 3359 4863 
L 3359 331 
z
M 2784 1497 
L 2784 1825 
Q 2784 2422 2554 2737 
Q 2325 3053 1888 3053 
Q 1444 3053 1217 2703 
Q 991 2353 991 1663 
Q 991 975 1217 622 
Q 1444 269 1888 269 
Q 2325 269 2554 583 
Q 2784 897 2784 1497 
z
" transform="scale(0.015625)"/>
       <path id="DejaVuSerif-6c" d="M 1313 331 
L 1856 331 
L 1856 0 
L 184 0 
L 184 331 
L 738 331 
L 738 4531 
L 184 4531 
L 184 4863 
L 1313 4863 
L 1313 331 
z
" transform="scale(0.015625)"/>
       <path id="DejaVuSerif-28" d="M 2041 -997 
Q 1281 -656 893 83 
Q 506 822 506 1931 
Q 506 3044 893 3783 
Q 1281 4522 2041 4863 
L 2041 4556 
Q 1559 4225 1350 3623 
Q 1141 3022 1141 1931 
Q 1141 844 1350 242 
Q 1559 -359 2041 -691 
L 2041 -997 
z
" transform="scale(0.015625)"/>
       <path id="DejaVuSerif-50" d="M 1581 2375 
L 2406 2375 
Q 2872 2375 3115 2626 
Q 3359 2878 3359 3353 
Q 3359 3831 3115 4081 
Q 2872 4331 2406 4331 
L 1581 4331 
L 1581 2375 
z
M 353 0 
L 353 331 
L 947 331 
L 947 4331 
L 353 4331 
L 353 4666 
L 2559 4666 
Q 3259 4666 3668 4311 
Q 4078 3956 4078 3353 
Q 4078 2753 3668 2397 
Q 3259 2041 2559 2041 
L 1581 2041 
L 1581 331 
L 2303 331 
L 2303 0 
L 353 0 
z
" transform="scale(0.015625)"/>
       <path id="DejaVuSerif-61" d="M 2547 1044 
L 2547 1747 
L 1806 1747 
Q 1378 1747 1168 1562 
Q 959 1378 959 997 
Q 959 650 1171 447 
Q 1384 244 1747 244 
Q 2106 244 2326 466 
Q 2547 688 2547 1044 
z
M 3122 2075 
L 3122 331 
L 3634 331 
L 3634 0 
L 2547 0 
L 2547 359 
Q 2356 128 2106 18 
Q 1856 -91 1522 -91 
Q 969 -91 644 203 
Q 319 497 319 997 
Q 319 1513 691 1797 
Q 1063 2081 1741 2081 
L 2547 2081 
L 2547 2309 
Q 2547 2688 2317 2895 
Q 2088 3103 1672 3103 
Q 1328 3103 1125 2947 
Q 922 2791 872 2484 
L 575 2484 
L 575 3156 
Q 875 3284 1158 3348 
Q 1441 3413 1709 3413 
Q 2400 3413 2761 3070 
Q 3122 2728 3122 2075 
z
" transform="scale(0.015625)"/>
       <path id="DejaVuSerif-29" d="M 453 -997 
L 453 -691 
Q 934 -359 1145 242 
Q 1356 844 1356 1931 
Q 1356 3022 1145 3623 
Q 934 4225 453 4556 
L 453 4863 
Q 1216 4522 1603 3783 
Q 1991 3044 1991 1931 
Q 1991 822 1603 83 
Q 1216 -656 453 -997 
z
" transform="scale(0.015625)"/>
      </defs>
      <use xlink:href="#DejaVuSerif-59"/>
      <use xlink:href="#DejaVuSerif-6f" transform="translate(57.265625 0)"/>
      <use xlink:href="#DejaVuSerif-75" transform="translate(117.470703 0)"/>
      <use xlink:href="#DejaVuSerif-6e" transform="translate(181.875 0)"/>
      <use xlink:href="#DejaVuSerif-67" transform="translate(246.279297 0)"/>
      <use xlink:href="#DejaVuSerif-27" transform="translate(310.292969 0)"/>
      <use xlink:href="#DejaVuSerif-73" transform="translate(337.783203 0)"/>
      <use xlink:href="#DejaVuSerif-20" transform="translate(389.101562 0)"/>
      <use xlink:href="#DejaVuSerif-4d" transform="translate(420.888672 0)"/>
      <use xlink:href="#DejaVuSerif-6f" transform="translate(523.28125 0)"/>
      <use xlink:href="#DejaVuSerif-64" transform="translate(583.486328 0)"/>
      <use xlink:href="#DejaVuSerif-75" transform="translate(647.5 0)"/>
      <use xlink:href="#DejaVuSerif-6c" transform="translate(711.904297 0)"/>
      <use xlink:href="#DejaVuSerif-75" transform="translate(743.886719 0)"/>
      <use xlink:href="#DejaVuSerif-73" transform="translate(808.291016 0)"/>
      <use xlink:href="#DejaVuSerif-20" transform="translate(859.609375 0)"/>
      <use xlink:href="#DejaVuSerif-28" transform="translate(891.396484 0)"/>
      <use xlink:href="#DejaVuSerif-4d" transform="translate(930.410156 0)"/>
      <use xlink:href="#DejaVuSerif-50" transform="translate(1032.802734 0)"/>
      <use xlink:href="#DejaVuSerif-61" transform="translate(1095.587891 0)"/>
      <use xlink:href="#DejaVuSerif-29" transform="translate(1155.207031 0)"/>
     </g>
    </g>
   </g>
   <g id="matplotlib.axis_2">
    <g id="ytick_1">
     <g id="line2d_7">
      <defs>
       <path id="m50087713f1" d="M 0 0 
L -3.5 0 
" style="stroke: #030303; stroke-width: 0.8"/>
      </defs>
      <g>
       <use xlink:href="#m50087713f1" x="54" y="240.3" style="fill: #030303; stroke: #030303; stroke-width: 0.8"/>
      </g>
     </g>
     <g id="text_8">
      <!-- $\mathdefault{0.00}$ -->
      <g style="fill: #030303" transform="translate(18.01 245.238984) scale(0.13 -0.13)">
       <defs>
        <path id="DejaVuSerif-2e" d="M 603 325 
Q 603 500 722 622 
Q 841 744 1019 744 
Q 1191 744 1312 622 
Q 1434 500 1434 325 
Q 1434 153 1312 31 
Q 1191 -91 1019 -91 
Q 841 -91 722 29 
Q 603 150 603 325 
z
" transform="scale(0.015625)"/>
       </defs>
       <use xlink:href="#DejaVuSerif-30" transform="translate(0 0.78125)"/>
       <use xlink:href="#DejaVuSerif-2e" transform="translate(63.623047 0.78125)"/>
       <use xlink:href="#DejaVuSerif-30" transform="translate(95.410156 0.78125)"/>
       <use xlink:href="#DejaVuSerif-30" transform="translate(159.033203 0.78125)"/>
      </g>
     </g>
    </g>
    <g id="ytick_2">
     <g id="line2d_8">
      <g>
       <use xlink:href="#m50087713f1" x="54" y="190.642267" style="fill: #030303; stroke: #030303; stroke-width: 0.8"/>
      </g>
     </g>
     <g id="text_9">
      <!-- $\mathdefault{0.01}$ -->
      <g style="fill: #030303" transform="translate(18.01 195.581252) scale(0.13 -0.13)">
       <defs>
        <path id="DejaVuSerif-31" d="M 909 0 
L 909 331 
L 1722 331 
L 1722 4213 
L 781 3603 
L 781 4013 
L 1919 4750 
L 2350 4750 
L 2350 331 
L 3163 331 
L 3163 0 
L 909 0 
z
" transform="scale(0.015625)"/>
       </defs>
       <use xlink:href="#DejaVuSerif-30" transform="translate(0 0.78125)"/>
       <use xlink:href="#DejaVuSerif-2e" transform="translate(63.623047 0.78125)"/>
       <use xlink:href="#DejaVuSerif-30" transform="translate(95.410156 0.78125)"/>
       <use xlink:href="#DejaVuSerif-31" transform="translate(159.033203 0.78125)"/>
      </g>
     </g>
    </g>
    <g id="ytick_3">
     <g id="line2d_9">
      <g>
       <use xlink:href="#m50087713f1" x="54" y="140.984535" style="fill: #030303; stroke: #030303; stroke-width: 0.8"/>
      </g>
     </g>
     <g id="text_10">
      <!-- $\mathdefault{0.02}$ -->
      <g style="fill: #030303" transform="translate(18.01 145.923519) scale(0.13 -0.13)">
       <use xlink:href="#DejaVuSerif-30" transform="translate(0 0.78125)"/>
       <use xlink:href="#DejaVuSerif-2e" transform="translate(63.623047 0.78125)"/>
       <use xlink:href="#DejaVuSerif-30" transform="translate(95.410156 0.78125)"/>
       <use xlink:href="#DejaVuSerif-32" transform="translate(159.033203 0.78125)"/>
      </g>
     </g>
    </g>
    <g id="ytick_4">
     <g id="line2d_10">
      <g>
       <use xlink:href="#m50087713f1" x="54" y="91.326802" style="fill: #030303; stroke: #030303; stroke-width: 0.8"/>
      </g>
     </g>
     <g id="text_11">
      <!-- $\mathdefault{0.03}$ -->
      <g style="fill: #030303" transform="translate(18.01 96.265786) scale(0.13 -0.13)">
       <use xlink:href="#DejaVuSerif-30" transform="translate(0 0.78125)"/>
       <use xlink:href="#DejaVuSerif-2e" transform="translate(63.623047 0.78125)"/>
       <use xlink:href="#DejaVuSerif-30" transform="translate(95.410156 0.78125)"/>
       <use xlink:href="#DejaVuSerif-33" transform="translate(159.033203 0.78125)"/>
      </g>
     </g>
    </g>
    <g id="ytick_5">
     <g id="line2d_11">
      <g>
       <use xlink:href="#m50087713f1" x="54" y="41.669069" style="fill: #030303; stroke: #030303; stroke-width: 0.8"/>
      </g>
     </g>
     <g id="text_12">
      <!-- $\mathdefault{0.04}$ -->
      <g style="fill: #030303" transform="translate(18.01 46.608054) scale(0.13 -0.13)">
       <use xlink:href="#DejaVuSerif-30" transform="translate(0 0.78125)"/>
       <use xlink:href="#DejaVuSerif-2e" transform="translate(63.623047 0.78125)"/>
       <use xlink:href="#DejaVuSerif-30" transform="translate(95.410156 0.78125)"/>
       <use xlink:href="#DejaVuSerif-34" transform="translate(159.033203 0.78125)"/>
      </g>
     </g>
    </g>
    <g id="text_13">
     <!-- Probability Density -->
     <g style="fill: #030303" transform="translate(10.010625 223.749844) rotate(-90) scale(0.18 -0.18)">
      <defs>
       <path id="DejaVuSerif-72" d="M 3059 3328 
L 3059 2497 
L 2728 2497 
Q 2713 2744 2591 2866 
Q 2469 2988 2234 2988 
Q 1809 2988 1582 2694 
Q 1356 2400 1356 1850 
L 1356 331 
L 2022 331 
L 2022 0 
L 263 0 
L 263 331 
L 781 331 
L 781 2994 
L 231 2994 
L 231 3322 
L 1356 3322 
L 1356 2731 
Q 1525 3078 1790 3245 
Q 2056 3413 2438 3413 
Q 2578 3413 2733 3391 
Q 2888 3369 3059 3328 
z
" transform="scale(0.015625)"/>
       <path id="DejaVuSerif-62" d="M 738 331 
L 738 4531 
L 184 4531 
L 184 4863 
L 1313 4863 
L 1313 2803 
Q 1481 3116 1742 3264 
Q 2003 3413 2388 3413 
Q 3000 3413 3387 2928 
Q 3775 2444 3775 1663 
Q 3775 881 3387 395 
Q 3000 -91 2388 -91 
Q 2003 -91 1742 57 
Q 1481 206 1313 519 
L 1313 0 
L 184 0 
L 184 331 
L 738 331 
z
M 1313 1497 
Q 1313 897 1542 583 
Q 1772 269 2209 269 
Q 2650 269 2876 622 
Q 3103 975 3103 1663 
Q 3103 2353 2876 2703 
Q 2650 3053 2209 3053 
Q 1772 3053 1542 2737 
Q 1313 2422 1313 1825 
L 1313 1497 
z
" transform="scale(0.015625)"/>
       <path id="DejaVuSerif-69" d="M 622 4353 
Q 622 4497 726 4603 
Q 831 4709 978 4709 
Q 1122 4709 1226 4603 
Q 1331 4497 1331 4353 
Q 1331 4206 1228 4103 
Q 1125 4000 978 4000 
Q 831 4000 726 4103 
Q 622 4206 622 4353 
z
M 1356 331 
L 1900 331 
L 1900 0 
L 231 0 
L 231 331 
L 781 331 
L 781 2988 
L 231 2988 
L 231 3322 
L 1356 3322 
L 1356 331 
z
" transform="scale(0.015625)"/>
       <path id="DejaVuSerif-74" d="M 691 2988 
L 184 2988 
L 184 3322 
L 691 3322 
L 691 4353 
L 1269 4353 
L 1269 3322 
L 2350 3322 
L 2350 2988 
L 1269 2988 
L 1269 878 
Q 1269 456 1350 337 
Q 1431 219 1650 219 
Q 1875 219 1978 351 
Q 2081 484 2088 781 
L 2522 781 
Q 2497 328 2275 118 
Q 2053 -91 1600 -91 
Q 1103 -91 897 129 
Q 691 350 691 878 
L 691 2988 
z
" transform="scale(0.015625)"/>
       <path id="DejaVuSerif-79" d="M 1381 -609 
L 1600 -56 
L 359 2988 
L -19 2988 
L -19 3322 
L 1509 3322 
L 1509 2988 
L 978 2988 
L 1913 703 
L 2847 2988 
L 2350 2988 
L 2350 3322 
L 3597 3322 
L 3597 2988 
L 3225 2988 
L 1703 -750 
Q 1547 -1138 1356 -1280 
Q 1166 -1422 819 -1422 
Q 672 -1422 517 -1397 
Q 363 -1372 206 -1325 
L 206 -691 
L 500 -691 
Q 519 -903 608 -995 
Q 697 -1088 884 -1088 
Q 1056 -1088 1161 -992 
Q 1266 -897 1381 -609 
z
" transform="scale(0.015625)"/>
       <path id="DejaVuSerif-44" d="M 1581 331 
L 2163 331 
Q 3072 331 3558 850 
Q 4044 1369 4044 2338 
Q 4044 3306 3559 3818 
Q 3075 4331 2163 4331 
L 1581 4331 
L 1581 331 
z
M 353 0 
L 353 331 
L 947 331 
L 947 4331 
L 353 4331 
L 353 4666 
L 2209 4666 
Q 3416 4666 4089 4050 
Q 4763 3434 4763 2338 
Q 4763 1238 4088 619 
Q 3413 0 2209 0 
L 353 0 
z
" transform="scale(0.015625)"/>
       <path id="DejaVuSerif-65" d="M 3469 1600 
L 991 1600 
L 991 1575 
Q 991 903 1244 561 
Q 1497 219 1991 219 
Q 2369 219 2611 417 
Q 2853 616 2950 1006 
L 3413 1006 
Q 3275 459 2904 184 
Q 2534 -91 1931 -91 
Q 1203 -91 761 389 
Q 319 869 319 1663 
Q 319 2450 753 2931 
Q 1188 3413 1894 3413 
Q 2647 3413 3050 2948 
Q 3453 2484 3469 1600 
z
M 2791 1931 
Q 2772 2513 2545 2808 
Q 2319 3103 1894 3103 
Q 1497 3103 1269 2806 
Q 1041 2509 991 1931 
L 2791 1931 
z
" transform="scale(0.015625)"/>
      </defs>
      <use xlink:href="#DejaVuSerif-50"/>
      <use xlink:href="#DejaVuSerif-72" transform="translate(67.285156 0)"/>
      <use xlink:href="#DejaVuSerif-6f" transform="translate(115.087891 0)"/>
      <use xlink:href="#DejaVuSerif-62" transform="translate(175.292969 0)"/>
      <use xlink:href="#DejaVuSerif-61" transform="translate(239.306641 0)"/>
      <use xlink:href="#DejaVuSerif-62" transform="translate(298.925781 0)"/>
      <use xlink:href="#DejaVuSerif-69" transform="translate(362.939453 0)"/>
      <use xlink:href="#DejaVuSerif-6c" transform="translate(394.921875 0)"/>
      <use xlink:href="#DejaVuSerif-69" transform="translate(426.904297 0)"/>
      <use xlink:href="#DejaVuSerif-74" transform="translate(458.886719 0)"/>
      <use xlink:href="#DejaVuSerif-79" transform="translate(499.072266 0)"/>
      <use xlink:href="#DejaVuSerif-20" transform="translate(555.566406 0)"/>
      <use xlink:href="#DejaVuSerif-44" transform="translate(587.353516 0)"/>
      <use xlink:href="#DejaVuSerif-65" transform="translate(667.529297 0)"/>
      <use xlink:href="#DejaVuSerif-6e" transform="translate(726.708984 0)"/>
      <use xlink:href="#DejaVuSerif-73" transform="translate(791.113281 0)"/>
      <use xlink:href="#DejaVuSerif-69" transform="translate(842.431641 0)"/>
      <use xlink:href="#DejaVuSerif-74" transform="translate(874.414062 0)"/>
      <use xlink:href="#DejaVuSerif-79" transform="translate(914.599609 0)"/>
     </g>
    </g>
   </g>
   <g id="line2d_12">
    <path d="M 69.218182 238.099245 
L 74.702211 237.27388 
L 79.576904 236.322857 
L 84.146929 235.204392 
L 88.412285 233.925213 
L 92.372973 232.501013 
L 96.028993 230.956181 
L 99.685012 229.163345 
L 103.036364 227.278804 
L 106.387715 225.141669 
L 109.739066 222.730625 
L 113.090418 220.024776 
L 116.441769 217.004102 
L 119.488452 213.969128 
L 122.535135 210.645921 
L 125.886486 206.644493 
L 129.237838 202.269479 
L 132.589189 197.512903 
L 135.940541 192.371063 
L 139.59656 186.323921 
L 143.25258 179.828746 
L 147.213268 172.307157 
L 151.173956 164.314645 
L 155.74398 154.570086 
L 160.923342 142.966856 
L 167.626044 127.350929 
L 181.03145 95.96237 
L 185.906143 85.209185 
L 189.86683 76.99919 
L 193.218182 70.524039 
L 196.264865 65.079919 
L 199.00688 60.586232 
L 201.748894 56.515075 
L 204.186241 53.278219 
L 206.623587 50.423213 
L 208.756265 48.253393 
L 210.888943 46.401802 
L 212.716953 45.07536 
L 214.544963 43.99493 
L 216.372973 43.164686 
L 218.200983 42.587846 
L 220.028993 42.26665 
L 221.857002 42.202348 
L 223.685012 42.395191 
L 225.513022 42.844427 
L 227.341032 43.548311 
L 229.169042 44.50411 
L 230.997052 45.708127 
L 232.825061 47.155719 
L 234.95774 49.144968 
L 237.090418 51.447827 
L 239.527764 54.448393 
L 241.965111 57.823041 
L 244.707125 62.038926 
L 247.44914 66.665482 
L 250.495823 72.242302 
L 253.847174 78.844228 
L 257.807862 87.177031 
L 262.377887 97.345849 
L 268.471253 111.4981 
L 283.4 146.432229 
L 288.579361 157.875459 
L 293.149386 167.441689 
L 297.414742 175.839553 
L 301.37543 183.131455 
L 305.03145 189.404246 
L 308.687469 195.223512 
L 312.038821 200.155029 
L 315.390172 204.702734 
L 318.741523 208.872737 
L 322.092875 212.675088 
L 325.444226 216.123152 
L 328.795577 219.232992 
L 332.146929 222.022765 
L 335.49828 224.512167 
L 338.849631 226.7219 
L 342.200983 228.673209 
L 345.857002 230.532273 
L 349.513022 232.136597 
L 353.47371 233.61795 
L 357.434398 234.863734 
L 361.699754 235.976477 
L 366.269779 236.943683 
L 371.44914 237.805613 
L 373.581818 238.099245 
L 373.581818 238.099245 
" clip-path="url(#p5012220184)" style="fill: none; stroke: #28b80b; stroke-width: 1.5; stroke-linecap: square"/>
   </g>
   <g id="patch_3">
    <path d="M 54 240.3 
L 54 32.4 
" style="fill: none; stroke: #030303; stroke-width: 1.5; stroke-linejoin: miter; stroke-linecap: square"/>
   </g>
   <g id="patch_4">
    <path d="M 54 240.3 
L 388.8 240.3 
" style="fill: none; stroke: #030303; stroke-width: 1.5; stroke-linejoin: miter; stroke-linecap: square"/>
   </g>
  </g>
  <g id="axes_2">
   <g id="FillBetweenPolyCollection_1">
    <defs>
     <path id="mec4eb6e53b" d="M 272.431941 -29.7 
L 272.431941 -149.135519 
L 272.736609 -148.413915 
L 273.041278 -147.692415 
L 273.345946 -146.971069 
L 273.650614 -146.249928 
L 273.955283 -145.529044 
L 274.259951 -144.808467 
L 274.564619 -144.088246 
L 274.869287 -143.368431 
L 275.173956 -142.649071 
L 275.478624 -141.930215 
L 275.783292 -141.211912 
L 276.087961 -140.494209 
L 276.392629 -139.777155 
L 276.697297 -139.060797 
L 277.001966 -138.345181 
L 277.306634 -137.630355 
L 277.611302 -136.916365 
L 277.915971 -136.203255 
L 278.220639 -135.491073 
L 278.525307 -134.779862 
L 278.829975 -134.069668 
L 279.134644 -133.360535 
L 279.439312 -132.652506 
L 279.74398 -131.945624 
L 280.048649 -131.239933 
L 280.353317 -130.535476 
L 280.657985 -129.832294 
L 280.962654 -129.130428 
L 281.267322 -128.429921 
L 281.57199 -127.730813 
L 281.876658 -127.033144 
L 282.181327 -126.336955 
L 282.485995 -125.642284 
L 282.790663 -124.949171 
L 283.095332 -124.257654 
L 283.4 -123.567771 
L 283.704668 -122.879561 
L 284.009337 -122.19306 
L 284.314005 -121.508304 
L 284.618673 -120.825332 
L 284.923342 -120.144177 
L 285.22801 -119.464876 
L 285.532678 -118.787463 
L 285.837346 -118.111973 
L 286.142015 -117.43844 
L 286.446683 -116.766897 
L 286.751351 -116.097378 
L 287.05602 -115.429914 
L 287.360688 -114.764539 
L 287.665356 -114.101283 
L 287.970025 -113.440177 
L 288.274693 -112.781254 
L 288.579361 -112.124541 
L 288.884029 -111.47007 
L 289.188698 -110.81787 
L 289.493366 -110.167969 
L 289.798034 -109.520395 
L 290.102703 -108.875177 
L 290.407371 -108.232341 
L 290.712039 -107.591915 
L 291.016708 -106.953925 
L 291.321376 -106.318396 
L 291.626044 -105.685355 
L 291.930713 -105.054825 
L 292.235381 -104.426833 
L 292.540049 -103.801401 
L 292.844717 -103.178552 
L 293.149386 -102.558311 
L 293.454054 -101.9407 
L 293.758722 -101.32574 
L 294.063391 -100.713454 
L 294.368059 -100.103861 
L 294.672727 -99.496984 
L 294.977396 -98.892843 
L 295.282064 -98.291456 
L 295.586732 -97.692843 
L 295.8914 -97.097024 
L 296.196069 -96.504016 
L 296.500737 -95.913837 
L 296.805405 -95.326504 
L 297.110074 -94.742036 
L 297.414742 -94.160447 
L 297.71941 -93.581754 
L 298.024079 -93.005973 
L 298.328747 -92.433118 
L 298.633415 -91.863205 
L 298.938084 -91.296247 
L 299.242752 -90.732259 
L 299.54742 -90.171254 
L 299.852088 -89.613243 
L 300.156757 -89.058241 
L 300.461425 -88.506259 
L 300.766093 -87.957308 
L 301.070762 -87.4114 
L 301.37543 -86.868545 
L 301.680098 -86.328753 
L 301.984767 -85.792035 
L 302.289435 -85.2584 
L 302.594103 -84.727857 
L 302.898771 -84.200413 
L 303.20344 -83.676079 
L 303.508108 -83.15486 
L 303.812776 -82.636765 
L 304.117445 -82.121801 
L 304.422113 -81.609974 
L 304.726781 -81.101289 
L 305.03145 -80.595754 
L 305.336118 -80.093373 
L 305.640786 -79.59415 
L 305.945455 -79.098092 
L 306.250123 -78.605201 
L 306.554791 -78.115482 
L 306.859459 -77.628937 
L 307.164128 -77.145571 
L 307.468796 -76.665385 
L 307.773464 -76.188382 
L 308.078133 -75.714564 
L 308.382801 -75.243932 
L 308.687469 -74.776488 
L 308.992138 -74.312232 
L 309.296806 -73.851165 
L 309.601474 -73.393287 
L 309.906143 -72.938598 
L 310.210811 -72.487097 
L 310.515479 -72.038783 
L 310.820147 -71.593656 
L 311.124816 -71.151713 
L 311.429484 -70.712952 
L 311.734152 -70.277373 
L 312.038821 -69.844971 
L 312.343489 -69.415744 
L 312.648157 -68.989689 
L 312.952826 -68.566803 
L 313.257494 -68.147081 
L 313.562162 -67.730521 
L 313.86683 -67.317116 
L 314.171499 -66.906863 
L 314.476167 -66.499757 
L 314.780835 -66.095793 
L 315.085504 -65.694964 
L 315.390172 -65.297266 
L 315.69484 -64.902692 
L 315.999509 -64.511236 
L 316.304177 -64.122891 
L 316.608845 -63.73765 
L 316.913514 -63.355507 
L 317.218182 -62.976454 
L 317.52285 -62.600483 
L 317.827518 -62.227587 
L 318.132187 -61.857757 
L 318.436855 -61.490986 
L 318.741523 -61.127263 
L 319.046192 -60.766582 
L 319.35086 -60.408932 
L 319.655528 -60.054304 
L 319.960197 -59.70269 
L 320.264865 -59.354079 
L 320.569533 -59.008461 
L 320.874201 -58.665826 
L 321.17887 -58.326165 
L 321.483538 -57.989466 
L 321.788206 -57.655719 
L 322.092875 -57.324912 
L 322.397543 -56.997036 
L 322.702211 -56.672078 
L 323.00688 -56.350027 
L 323.311548 -56.030872 
L 323.616216 -55.7146 
L 323.920885 -55.4012 
L 324.225553 -55.09066 
L 324.530221 -54.782967 
L 324.834889 -54.478109 
L 325.139558 -54.176074 
L 325.444226 -53.876848 
L 325.748894 -53.580419 
L 326.053563 -53.286773 
L 326.358231 -52.995898 
L 326.662899 -52.70778 
L 326.967568 -52.422405 
L 327.272236 -52.139761 
L 327.576904 -51.859833 
L 327.881572 -51.582608 
L 328.186241 -51.308072 
L 328.490909 -51.03621 
L 328.795577 -50.767008 
L 329.100246 -50.500453 
L 329.404914 -50.23653 
L 329.709582 -49.975224 
L 330.014251 -49.716521 
L 330.318919 -49.460406 
L 330.623587 -49.206865 
L 330.928256 -48.955881 
L 331.232924 -48.707442 
L 331.537592 -48.461531 
L 331.84226 -48.218134 
L 332.146929 -47.977235 
L 332.451597 -47.738819 
L 332.756265 -47.502871 
L 333.060934 -47.269375 
L 333.365602 -47.038316 
L 333.67027 -46.809679 
L 333.974939 -46.583448 
L 334.279607 -46.359607 
L 334.584275 -46.138141 
L 334.888943 -45.919033 
L 335.193612 -45.70227 
L 335.49828 -45.487833 
L 335.802948 -45.275708 
L 336.107617 -45.06588 
L 336.412285 -44.858331 
L 336.716953 -44.653046 
L 337.021622 -44.450009 
L 337.32629 -44.249204 
L 337.630958 -44.050615 
L 337.935627 -43.854226 
L 338.240295 -43.660021 
L 338.544963 -43.467985 
L 338.849631 -43.2781 
L 339.1543 -43.090351 
L 339.458968 -42.904721 
L 339.763636 -42.721196 
L 340.068305 -42.539757 
L 340.372973 -42.360391 
L 340.677641 -42.18308 
L 340.98231 -42.007808 
L 341.286978 -41.834559 
L 341.591646 -41.663317 
L 341.896314 -41.494067 
L 342.200983 -41.326791 
L 342.505651 -41.161475 
L 342.810319 -40.998102 
L 343.114988 -40.836655 
L 343.419656 -40.67712 
L 343.724324 -40.51948 
L 344.028993 -40.363719 
L 344.333661 -40.209821 
L 344.638329 -40.05777 
L 344.942998 -39.907552 
L 345.247666 -39.759149 
L 345.552334 -39.612546 
L 345.857002 -39.467727 
L 346.161671 -39.324676 
L 346.466339 -39.183379 
L 346.771007 -39.043819 
L 347.075676 -38.905981 
L 347.380344 -38.769849 
L 347.685012 -38.635407 
L 347.989681 -38.502641 
L 348.294349 -38.371535 
L 348.599017 -38.242073 
L 348.903686 -38.114241 
L 349.208354 -37.988022 
L 349.513022 -37.863403 
L 349.81769 -37.740367 
L 350.122359 -37.6189 
L 350.427027 -37.498987 
L 350.731695 -37.380612 
L 351.036364 -37.263761 
L 351.341032 -37.14842 
L 351.6457 -37.034572 
L 351.950369 -36.922204 
L 352.255037 -36.811301 
L 352.559705 -36.701849 
L 352.864373 -36.593833 
L 353.169042 -36.487238 
L 353.47371 -36.38205 
L 353.778378 -36.278255 
L 354.083047 -36.175839 
L 354.387715 -36.074787 
L 354.692383 -35.975086 
L 354.997052 -35.876721 
L 355.30172 -35.779679 
L 355.606388 -35.683946 
L 355.911057 -35.589508 
L 356.215725 -35.496351 
L 356.520393 -35.404462 
L 356.825061 -35.313827 
L 357.12973 -35.224432 
L 357.434398 -35.136266 
L 357.739066 -35.049313 
L 358.043735 -34.963561 
L 358.348403 -34.878997 
L 358.653071 -34.795608 
L 358.95774 -34.713381 
L 359.262408 -34.632302 
L 359.567076 -34.55236 
L 359.871744 -34.473542 
L 360.176413 -34.395834 
L 360.481081 -34.319224 
L 360.785749 -34.243701 
L 361.090418 -34.169251 
L 361.395086 -34.095862 
L 361.699754 -34.023523 
L 362.004423 -33.95222 
L 362.309091 -33.881943 
L 362.613759 -33.812679 
L 362.918428 -33.744416 
L 363.223096 -33.677143 
L 363.527764 -33.610847 
L 363.832432 -33.545518 
L 364.137101 -33.481144 
L 364.441769 -33.417713 
L 364.746437 -33.355215 
L 365.051106 -33.293637 
L 365.355774 -33.23297 
L 365.660442 -33.173201 
L 365.965111 -33.114321 
L 366.269779 -33.056317 
L 366.574447 -32.99918 
L 366.879115 -32.942899 
L 367.183784 -32.887463 
L 367.488452 -32.832861 
L 367.79312 -32.779084 
L 368.097789 -32.72612 
L 368.402457 -32.673961 
L 368.707125 -32.622594 
L 369.011794 -32.572012 
L 369.316462 -32.522203 
L 369.62113 -32.473158 
L 369.925799 -32.424867 
L 370.230467 -32.377321 
L 370.535135 -32.330509 
L 370.839803 -32.284422 
L 371.144472 -32.239051 
L 371.44914 -32.194387 
L 371.753808 -32.15042 
L 372.058477 -32.107141 
L 372.363145 -32.064542 
L 372.667813 -32.022612 
L 372.972482 -31.981344 
L 373.27715 -31.940728 
L 373.581818 -31.900755 
L 373.581818 -29.7 
L 373.581818 -29.7 
L 373.27715 -29.7 
L 372.972482 -29.7 
L 372.667813 -29.7 
L 372.363145 -29.7 
L 372.058477 -29.7 
L 371.753808 -29.7 
L 371.44914 -29.7 
L 371.144472 -29.7 
L 370.839803 -29.7 
L 370.535135 -29.7 
L 370.230467 -29.7 
L 369.925799 -29.7 
L 369.62113 -29.7 
L 369.316462 -29.7 
L 369.011794 -29.7 
L 368.707125 -29.7 
L 368.402457 -29.7 
L 368.097789 -29.7 
L 367.79312 -29.7 
L 367.488452 -29.7 
L 367.183784 -29.7 
L 366.879115 -29.7 
L 366.574447 -29.7 
L 366.269779 -29.7 
L 365.965111 -29.7 
L 365.660442 -29.7 
L 365.355774 -29.7 
L 365.051106 -29.7 
L 364.746437 -29.7 
L 364.441769 -29.7 
L 364.137101 -29.7 
L 363.832432 -29.7 
L 363.527764 -29.7 
L 363.223096 -29.7 
L 362.918428 -29.7 
L 362.613759 -29.7 
L 362.309091 -29.7 
L 362.004423 -29.7 
L 361.699754 -29.7 
L 361.395086 -29.7 
L 361.090418 -29.7 
L 360.785749 -29.7 
L 360.481081 -29.7 
L 360.176413 -29.7 
L 359.871744 -29.7 
L 359.567076 -29.7 
L 359.262408 -29.7 
L 358.95774 -29.7 
L 358.653071 -29.7 
L 358.348403 -29.7 
L 358.043735 -29.7 
L 357.739066 -29.7 
L 357.434398 -29.7 
L 357.12973 -29.7 
L 356.825061 -29.7 
L 356.520393 -29.7 
L 356.215725 -29.7 
L 355.911057 -29.7 
L 355.606388 -29.7 
L 355.30172 -29.7 
L 354.997052 -29.7 
L 354.692383 -29.7 
L 354.387715 -29.7 
L 354.083047 -29.7 
L 353.778378 -29.7 
L 353.47371 -29.7 
L 353.169042 -29.7 
L 352.864373 -29.7 
L 352.559705 -29.7 
L 352.255037 -29.7 
L 351.950369 -29.7 
L 351.6457 -29.7 
L 351.341032 -29.7 
L 351.036364 -29.7 
L 350.731695 -29.7 
L 350.427027 -29.7 
L 350.122359 -29.7 
L 349.81769 -29.7 
L 349.513022 -29.7 
L 349.208354 -29.7 
L 348.903686 -29.7 
L 348.599017 -29.7 
L 348.294349 -29.7 
L 347.989681 -29.7 
L 347.685012 -29.7 
L 347.380344 -29.7 
L 347.075676 -29.7 
L 346.771007 -29.7 
L 346.466339 -29.7 
L 346.161671 -29.7 
L 345.857002 -29.7 
L 345.552334 -29.7 
L 345.247666 -29.7 
L 344.942998 -29.7 
L 344.638329 -29.7 
L 344.333661 -29.7 
L 344.028993 -29.7 
L 343.724324 -29.7 
L 343.419656 -29.7 
L 343.114988 -29.7 
L 342.810319 -29.7 
L 342.505651 -29.7 
L 342.200983 -29.7 
L 341.896314 -29.7 
L 341.591646 -29.7 
L 341.286978 -29.7 
L 340.98231 -29.7 
L 340.677641 -29.7 
L 340.372973 -29.7 
L 340.068305 -29.7 
L 339.763636 -29.7 
L 339.458968 -29.7 
L 339.1543 -29.7 
L 338.849631 -29.7 
L 338.544963 -29.7 
L 338.240295 -29.7 
L 337.935627 -29.7 
L 337.630958 -29.7 
L 337.32629 -29.7 
L 337.021622 -29.7 
L 336.716953 -29.7 
L 336.412285 -29.7 
L 336.107617 -29.7 
L 335.802948 -29.7 
L 335.49828 -29.7 
L 335.193612 -29.7 
L 334.888943 -29.7 
L 334.584275 -29.7 
L 334.279607 -29.7 
L 333.974939 -29.7 
L 333.67027 -29.7 
L 333.365602 -29.7 
L 333.060934 -29.7 
L 332.756265 -29.7 
L 332.451597 -29.7 
L 332.146929 -29.7 
L 331.84226 -29.7 
L 331.537592 -29.7 
L 331.232924 -29.7 
L 330.928256 -29.7 
L 330.623587 -29.7 
L 330.318919 -29.7 
L 330.014251 -29.7 
L 329.709582 -29.7 
L 329.404914 -29.7 
L 329.100246 -29.7 
L 328.795577 -29.7 
L 328.490909 -29.7 
L 328.186241 -29.7 
L 327.881572 -29.7 
L 327.576904 -29.7 
L 327.272236 -29.7 
L 326.967568 -29.7 
L 326.662899 -29.7 
L 326.358231 -29.7 
L 326.053563 -29.7 
L 325.748894 -29.7 
L 325.444226 -29.7 
L 325.139558 -29.7 
L 324.834889 -29.7 
L 324.530221 -29.7 
L 324.225553 -29.7 
L 323.920885 -29.7 
L 323.616216 -29.7 
L 323.311548 -29.7 
L 323.00688 -29.7 
L 322.702211 -29.7 
L 322.397543 -29.7 
L 322.092875 -29.7 
L 321.788206 -29.7 
L 321.483538 -29.7 
L 321.17887 -29.7 
L 320.874201 -29.7 
L 320.569533 -29.7 
L 320.264865 -29.7 
L 319.960197 -29.7 
L 319.655528 -29.7 
L 319.35086 -29.7 
L 319.046192 -29.7 
L 318.741523 -29.7 
L 318.436855 -29.7 
L 318.132187 -29.7 
L 317.827518 -29.7 
L 317.52285 -29.7 
L 317.218182 -29.7 
L 316.913514 -29.7 
L 316.608845 -29.7 
L 316.304177 -29.7 
L 315.999509 -29.7 
L 315.69484 -29.7 
L 315.390172 -29.7 
L 315.085504 -29.7 
L 314.780835 -29.7 
L 314.476167 -29.7 
L 314.171499 -29.7 
L 313.86683 -29.7 
L 313.562162 -29.7 
L 313.257494 -29.7 
L 312.952826 -29.7 
L 312.648157 -29.7 
L 312.343489 -29.7 
L 312.038821 -29.7 
L 311.734152 -29.7 
L 311.429484 -29.7 
L 311.124816 -29.7 
L 310.820147 -29.7 
L 310.515479 -29.7 
L 310.210811 -29.7 
L 309.906143 -29.7 
L 309.601474 -29.7 
L 309.296806 -29.7 
L 308.992138 -29.7 
L 308.687469 -29.7 
L 308.382801 -29.7 
L 308.078133 -29.7 
L 307.773464 -29.7 
L 307.468796 -29.7 
L 307.164128 -29.7 
L 306.859459 -29.7 
L 306.554791 -29.7 
L 306.250123 -29.7 
L 305.945455 -29.7 
L 305.640786 -29.7 
L 305.336118 -29.7 
L 305.03145 -29.7 
L 304.726781 -29.7 
L 304.422113 -29.7 
L 304.117445 -29.7 
L 303.812776 -29.7 
L 303.508108 -29.7 
L 303.20344 -29.7 
L 302.898771 -29.7 
L 302.594103 -29.7 
L 302.289435 -29.7 
L 301.984767 -29.7 
L 301.680098 -29.7 
L 301.37543 -29.7 
L 301.070762 -29.7 
L 300.766093 -29.7 
L 300.461425 -29.7 
L 300.156757 -29.7 
L 299.852088 -29.7 
L 299.54742 -29.7 
L 299.242752 -29.7 
L 298.938084 -29.7 
L 298.633415 -29.7 
L 298.328747 -29.7 
L 298.024079 -29.7 
L 297.71941 -29.7 
L 297.414742 -29.7 
L 297.110074 -29.7 
L 296.805405 -29.7 
L 296.500737 -29.7 
L 296.196069 -29.7 
L 295.8914 -29.7 
L 295.586732 -29.7 
L 295.282064 -29.7 
L 294.977396 -29.7 
L 294.672727 -29.7 
L 294.368059 -29.7 
L 294.063391 -29.7 
L 293.758722 -29.7 
L 293.454054 -29.7 
L 293.149386 -29.7 
L 292.844717 -29.7 
L 292.540049 -29.7 
L 292.235381 -29.7 
L 291.930713 -29.7 
L 291.626044 -29.7 
L 291.321376 -29.7 
L 291.016708 -29.7 
L 290.712039 -29.7 
L 290.407371 -29.7 
L 290.102703 -29.7 
L 289.798034 -29.7 
L 289.493366 -29.7 
L 289.188698 -29.7 
L 288.884029 -29.7 
L 288.579361 -29.7 
L 288.274693 -29.7 
L 287.970025 -29.7 
L 287.665356 -29.7 
L 287.360688 -29.7 
L 287.05602 -29.7 
L 286.751351 -29.7 
L 286.446683 -29.7 
L 286.142015 -29.7 
L 285.837346 -29.7 
L 285.532678 -29.7 
L 285.22801 -29.7 
L 284.923342 -29.7 
L 284.618673 -29.7 
L 284.314005 -29.7 
L 284.009337 -29.7 
L 283.704668 -29.7 
L 283.4 -29.7 
L 283.095332 -29.7 
L 282.790663 -29.7 
L 282.485995 -29.7 
L 282.181327 -29.7 
L 281.876658 -29.7 
L 281.57199 -29.7 
L 281.267322 -29.7 
L 280.962654 -29.7 
L 280.657985 -29.7 
L 280.353317 -29.7 
L 280.048649 -29.7 
L 279.74398 -29.7 
L 279.439312 -29.7 
L 279.134644 -29.7 
L 278.829975 -29.7 
L 278.525307 -29.7 
L 278.220639 -29.7 
L 277.915971 -29.7 
L 277.611302 -29.7 
L 277.306634 -29.7 
L 277.001966 -29.7 
L 276.697297 -29.7 
L 276.392629 -29.7 
L 276.087961 -29.7 
L 275.783292 -29.7 
L 275.478624 -29.7 
L 275.173956 -29.7 
L 274.869287 -29.7 
L 274.564619 -29.7 
L 274.259951 -29.7 
L 273.955283 -29.7 
L 273.650614 -29.7 
L 273.345946 -29.7 
L 273.041278 -29.7 
L 272.736609 -29.7 
L 272.431941 -29.7 
z
" style="stroke: #28b80b; stroke-opacity: 0.3"/>
    </defs>
    <g clip-path="url(#p5012220184)">
     <use xlink:href="#mec4eb6e53b" x="0" y="270" style="fill: #28b80b; fill-opacity: 0.3; stroke: #28b80b; stroke-opacity: 0.3"/>
    </g>
   </g>
   <g id="matplotlib.axis_3"/>
   <g id="patch_5">
    <path d="M 54 240.3 
L 388.8 240.3 
" style="fill: none; stroke: #030303; stroke-width: 1.5; stroke-linejoin: miter; stroke-linecap: square"/>
   </g>
  </g>
  <g id="axes_3">
   <g id="patch_6">
    <path d="M 272.127273 236.351536 
Q 272.127273 180.222823 272.127273 124.094109 
" clip-path="url(#p5012220184)" style="fill: none; stroke: #000000; stroke-width: 1.5; stroke-linecap: round"/>
    <path d="M 274.627273 230.351536 
L 272.127273 236.351536 
L 269.627273 230.351536 
z
" clip-path="url(#p5012220184)" style="stroke: #000000; stroke-width: 1.5; stroke-linecap: round"/>
    <path d="M 269.627273 130.094109 
L 272.127273 124.094109 
L 274.627273 130.094109 
z
" clip-path="url(#p5012220184)" style="stroke: #000000; stroke-width: 1.5; stroke-linecap: round"/>
   </g>
   <g id="matplotlib.axis_4"/>
   <g id="patch_7">
    <path d="M 54 240.3 
L 388.8 240.3 
" style="fill: none; stroke: #030303; stroke-width: 1.5; stroke-linejoin: miter; stroke-linecap: square"/>
   </g>
  </g>
 </g>
 <defs>
  <clipPath id="p5012220184">
   <rect x="54" y="32.4" width="334.8" height="207.9"/>
  </clipPath>
 </defs>
</svg>
