<?xml version="1.0" encoding="utf-8" standalone="no"?>
<!DOCTYPE svg PUBLIC "-//W3C//DTD SVG 1.1//EN"
  "http://www.w3.org/Graphics/SVG/1.1/DTD/svg11.dtd">
<svg xmlns:xlink="http://www.w3.org/1999/xlink" width="1001.063662pt" height="424.42225pt" viewBox="0 0 1001.063662 424.42225" xmlns="http://www.w3.org/2000/svg" version="1.1">
 <metadata>
  <rdf:RDF xmlns:dc="http://purl.org/dc/elements/1.1/" xmlns:cc="http://creativecommons.org/ns#" xmlns:rdf="http://www.w3.org/1999/02/22-rdf-syntax-ns#">
   <cc:Work>
    <dc:type rdf:resource="http://purl.org/dc/dcmitype/StillImage"/>
    <dc:date>2025-03-07T13:58:39.002853</dc:date>
    <dc:format>image/svg+xml</dc:format>
    <dc:creator>
     <cc:Agent>
      <dc:title>Matplotlib v3.10.0, https://matplotlib.org/</dc:title>
     </cc:Agent>
    </dc:creator>
   </cc:Work>
  </rdf:RDF>
 </metadata>
 <defs>
  <style type="text/css">*{stroke-linejoin: round; stroke-linecap: butt}</style>
 </defs>
 <g id="figure_1">
  <g id="patch_1">
   <path d="M 0 424.42225 
L 1001.063662 424.42225 
L 1001.063662 0 
L 0 0 
L 0 424.42225 
z
" style="fill: none"/>
  </g>
  <g id="axes_1">
   <g id="patch_2">
    <path d="M 58.020625 375.25225 
L 488.691868 375.25225 
L 488.691868 35.7555 
L 58.020625 35.7555 
L 58.020625 375.25225 
z
" style="fill: none"/>
   </g>
   <g id="matplotlib.axis_1">
    <g id="xtick_1">
     <g id="line2d_1">
      <path d="M 133.49909 375.25225 
L 133.49909 35.7555 
" clip-path="url(#pf9f10dd496)" style="fill: none; stroke: #a6a6a6; stroke-opacity: 0.3; stroke-width: 0.8; stroke-linecap: square"/>
     </g>
     <g id="line2d_2">
      <defs>
       <path id="mcf7a3d4e5a" d="M 0 0 
L 0 3.5 
" style="stroke: #030303; stroke-width: 0.8"/>
      </defs>
      <g>
       <use xlink:href="#mcf7a3d4e5a" x="133.49909" y="375.25225" style="fill: #030303; stroke: #030303; stroke-width: 0.8"/>
      </g>
     </g>
     <g id="text_1">
      <!-- $\mathdefault{20}$ -->
      <g style="fill: #030303" transform="translate(124.53909 392.890062) scale(0.14 -0.14)">
       <defs>
        <path id="DejaVuSerif-32" d="M 819 3553 
L 469 3553 
L 469 4384 
Q 803 4563 1142 4656 
Q 1481 4750 1806 4750 
Q 2534 4750 2956 4397 
Q 3378 4044 3378 3438 
Q 3378 2753 2422 1800 
Q 2347 1728 2309 1691 
L 1131 513 
L 3078 513 
L 3078 1088 
L 3444 1088 
L 3444 0 
L 434 0 
L 434 341 
L 1850 1753 
Q 2319 2222 2519 2614 
Q 2719 3006 2719 3438 
Q 2719 3909 2473 4175 
Q 2228 4441 1797 4441 
Q 1350 4441 1106 4219 
Q 863 3997 819 3553 
z
" transform="scale(0.015625)"/>
        <path id="DejaVuSerif-30" d="M 2034 219 
Q 2513 219 2750 744 
Q 2988 1269 2988 2328 
Q 2988 3391 2750 3916 
Q 2513 4441 2034 4441 
Q 1556 4441 1318 3916 
Q 1081 3391 1081 2328 
Q 1081 1269 1318 744 
Q 1556 219 2034 219 
z
M 2034 -91 
Q 1275 -91 848 546 
Q 422 1184 422 2328 
Q 422 3475 848 4112 
Q 1275 4750 2034 4750 
Q 2797 4750 3222 4112 
Q 3647 3475 3647 2328 
Q 3647 1184 3222 546 
Q 2797 -91 2034 -91 
z
" transform="scale(0.015625)"/>
       </defs>
       <use xlink:href="#DejaVuSerif-32" transform="translate(0 0.78125)"/>
       <use xlink:href="#DejaVuSerif-30" transform="translate(63.623047 0.78125)"/>
      </g>
     </g>
    </g>
    <g id="xtick_2">
     <g id="line2d_3">
      <path d="M 222.297285 375.25225 
L 222.297285 35.7555 
" clip-path="url(#pf9f10dd496)" style="fill: none; stroke: #a6a6a6; stroke-opacity: 0.3; stroke-width: 0.8; stroke-linecap: square"/>
     </g>
     <g id="line2d_4">
      <g>
       <use xlink:href="#mcf7a3d4e5a" x="222.297285" y="375.25225" style="fill: #030303; stroke: #030303; stroke-width: 0.8"/>
      </g>
     </g>
     <g id="text_2">
      <!-- $\mathdefault{40}$ -->
      <g style="fill: #030303" transform="translate(213.337285 392.890062) scale(0.14 -0.14)">
       <defs>
        <path id="DejaVuSerif-34" d="M 2234 1581 
L 2234 4063 
L 641 1581 
L 2234 1581 
z
M 3609 0 
L 1484 0 
L 1484 331 
L 2234 331 
L 2234 1247 
L 197 1247 
L 197 1588 
L 2241 4750 
L 2859 4750 
L 2859 1581 
L 3750 1581 
L 3750 1247 
L 2859 1247 
L 2859 331 
L 3609 331 
L 3609 0 
z
" transform="scale(0.015625)"/>
       </defs>
       <use xlink:href="#DejaVuSerif-34" transform="translate(0 0.78125)"/>
       <use xlink:href="#DejaVuSerif-30" transform="translate(63.623047 0.78125)"/>
      </g>
     </g>
    </g>
    <g id="xtick_3">
     <g id="line2d_5">
      <path d="M 311.095479 375.25225 
L 311.095479 35.7555 
" clip-path="url(#pf9f10dd496)" style="fill: none; stroke: #a6a6a6; stroke-opacity: 0.3; stroke-width: 0.8; stroke-linecap: square"/>
     </g>
     <g id="line2d_6">
      <g>
       <use xlink:href="#mcf7a3d4e5a" x="311.095479" y="375.25225" style="fill: #030303; stroke: #030303; stroke-width: 0.8"/>
      </g>
     </g>
     <g id="text_3">
      <!-- $\mathdefault{60}$ -->
      <g style="fill: #030303" transform="translate(302.135479 392.890062) scale(0.14 -0.14)">
       <defs>
        <path id="DejaVuSerif-36" d="M 2094 219 
Q 2534 219 2771 542 
Q 3009 866 3009 1472 
Q 3009 2078 2771 2401 
Q 2534 2725 2094 2725 
Q 1647 2725 1412 2412 
Q 1178 2100 1178 1509 
Q 1178 888 1415 553 
Q 1653 219 2094 219 
z
M 1075 2569 
Q 1288 2803 1556 2918 
Q 1825 3034 2163 3034 
Q 2859 3034 3264 2615 
Q 3669 2197 3669 1472 
Q 3669 763 3233 336 
Q 2797 -91 2069 -91 
Q 1278 -91 853 498 
Q 428 1088 428 2181 
Q 428 3406 931 4078 
Q 1434 4750 2350 4750 
Q 2597 4750 2869 4703 
Q 3141 4656 3425 4563 
L 3425 3794 
L 3072 3794 
Q 3034 4109 2831 4275 
Q 2628 4441 2284 4441 
Q 1678 4441 1381 3981 
Q 1084 3522 1075 2569 
z
" transform="scale(0.015625)"/>
       </defs>
       <use xlink:href="#DejaVuSerif-36" transform="translate(0 0.78125)"/>
       <use xlink:href="#DejaVuSerif-30" transform="translate(63.623047 0.78125)"/>
      </g>
     </g>
    </g>
    <g id="xtick_4">
     <g id="line2d_7">
      <path d="M 399.893673 375.25225 
L 399.893673 35.7555 
" clip-path="url(#pf9f10dd496)" style="fill: none; stroke: #a6a6a6; stroke-opacity: 0.3; stroke-width: 0.8; stroke-linecap: square"/>
     </g>
     <g id="line2d_8">
      <g>
       <use xlink:href="#mcf7a3d4e5a" x="399.893673" y="375.25225" style="fill: #030303; stroke: #030303; stroke-width: 0.8"/>
      </g>
     </g>
     <g id="text_4">
      <!-- $\mathdefault{80}$ -->
      <g style="fill: #030303" transform="translate(390.933673 392.890062) scale(0.14 -0.14)">
       <defs>
        <path id="DejaVuSerif-38" d="M 2981 1275 
Q 2981 1775 2732 2051 
Q 2484 2328 2034 2328 
Q 1584 2328 1336 2051 
Q 1088 1775 1088 1275 
Q 1088 772 1336 495 
Q 1584 219 2034 219 
Q 2484 219 2732 495 
Q 2981 772 2981 1275 
z
M 2853 3541 
Q 2853 3966 2637 4203 
Q 2422 4441 2034 4441 
Q 1650 4441 1433 4203 
Q 1216 3966 1216 3541 
Q 1216 3113 1433 2875 
Q 1650 2638 2034 2638 
Q 2422 2638 2637 2875 
Q 2853 3113 2853 3541 
z
M 2516 2484 
Q 3047 2413 3344 2092 
Q 3641 1772 3641 1275 
Q 3641 619 3225 264 
Q 2809 -91 2034 -91 
Q 1263 -91 845 264 
Q 428 619 428 1275 
Q 428 1772 725 2092 
Q 1022 2413 1556 2484 
Q 1084 2569 832 2842 
Q 581 3116 581 3541 
Q 581 4103 968 4426 
Q 1356 4750 2034 4750 
Q 2713 4750 3100 4426 
Q 3488 4103 3488 3541 
Q 3488 3116 3236 2842 
Q 2984 2569 2516 2484 
z
" transform="scale(0.015625)"/>
       </defs>
       <use xlink:href="#DejaVuSerif-38" transform="translate(0 0.78125)"/>
       <use xlink:href="#DejaVuSerif-30" transform="translate(63.623047 0.78125)"/>
      </g>
     </g>
    </g>
    <g id="xtick_5">
     <g id="line2d_9">
      <path d="M 488.691868 375.25225 
L 488.691868 35.7555 
" clip-path="url(#pf9f10dd496)" style="fill: none; stroke: #a6a6a6; stroke-opacity: 0.3; stroke-width: 0.8; stroke-linecap: square"/>
     </g>
     <g id="line2d_10">
      <g>
       <use xlink:href="#mcf7a3d4e5a" x="488.691868" y="375.25225" style="fill: #030303; stroke: #030303; stroke-width: 0.8"/>
      </g>
     </g>
     <g id="text_5">
      <!-- $\mathdefault{100}$ -->
      <g style="fill: #030303" transform="translate(475.321868 392.890062) scale(0.14 -0.14)">
       <defs>
        <path id="DejaVuSerif-31" d="M 909 0 
L 909 331 
L 1722 331 
L 1722 4213 
L 781 3603 
L 781 4013 
L 1919 4750 
L 2350 4750 
L 2350 331 
L 3163 331 
L 3163 0 
L 909 0 
z
" transform="scale(0.015625)"/>
       </defs>
       <use xlink:href="#DejaVuSerif-31" transform="translate(0 0.78125)"/>
       <use xlink:href="#DejaVuSerif-30" transform="translate(63.623047 0.78125)"/>
       <use xlink:href="#DejaVuSerif-30" transform="translate(127.246094 0.78125)"/>
      </g>
     </g>
    </g>
    <g id="text_6">
     <!-- Sample Size (N) -->
     <g style="fill: #030303" transform="translate(199.592809 413.478812) scale(0.18 -0.18)">
      <defs>
       <path id="DejaVuSerif-53" d="M 594 225 
L 594 1288 
L 953 1284 
Q 969 753 1261 498 
Q 1553 244 2150 244 
Q 2706 244 2998 464 
Q 3291 684 3291 1106 
Q 3291 1444 3114 1625 
Q 2938 1806 2369 1978 
L 1753 2163 
Q 1084 2366 811 2669 
Q 538 2972 538 3500 
Q 538 4094 959 4422 
Q 1381 4750 2144 4750 
Q 2469 4750 2856 4679 
Q 3244 4609 3681 4475 
L 3681 3481 
L 3328 3481 
Q 3275 3975 2998 4195 
Q 2722 4416 2156 4416 
Q 1663 4416 1405 4214 
Q 1147 4013 1147 3628 
Q 1147 3294 1340 3103 
Q 1534 2913 2163 2725 
L 2741 2553 
Q 3375 2363 3645 2067 
Q 3916 1772 3916 1275 
Q 3916 597 3481 253 
Q 3047 -91 2188 -91 
Q 1803 -91 1404 -12 
Q 1006 66 594 225 
z
" transform="scale(0.015625)"/>
       <path id="DejaVuSerif-61" d="M 2547 1044 
L 2547 1747 
L 1806 1747 
Q 1378 1747 1168 1562 
Q 959 1378 959 997 
Q 959 650 1171 447 
Q 1384 244 1747 244 
Q 2106 244 2326 466 
Q 2547 688 2547 1044 
z
M 3122 2075 
L 3122 331 
L 3634 331 
L 3634 0 
L 2547 0 
L 2547 359 
Q 2356 128 2106 18 
Q 1856 -91 1522 -91 
Q 969 -91 644 203 
Q 319 497 319 997 
Q 319 1513 691 1797 
Q 1063 2081 1741 2081 
L 2547 2081 
L 2547 2309 
Q 2547 2688 2317 2895 
Q 2088 3103 1672 3103 
Q 1328 3103 1125 2947 
Q 922 2791 872 2484 
L 575 2484 
L 575 3156 
Q 875 3284 1158 3348 
Q 1441 3413 1709 3413 
Q 2400 3413 2761 3070 
Q 3122 2728 3122 2075 
z
" transform="scale(0.015625)"/>
       <path id="DejaVuSerif-6d" d="M 3316 2675 
Q 3481 3041 3739 3227 
Q 3997 3413 4341 3413 
Q 4863 3413 5119 3089 
Q 5375 2766 5375 2113 
L 5375 331 
L 5894 331 
L 5894 0 
L 4300 0 
L 4300 331 
L 4800 331 
L 4800 2047 
Q 4800 2556 4650 2772 
Q 4500 2988 4153 2988 
Q 3769 2988 3567 2697 
Q 3366 2406 3366 1850 
L 3366 331 
L 3866 331 
L 3866 0 
L 2291 0 
L 2291 331 
L 2791 331 
L 2791 2069 
Q 2791 2566 2641 2777 
Q 2491 2988 2144 2988 
Q 1759 2988 1557 2697 
Q 1356 2406 1356 1850 
L 1356 331 
L 1856 331 
L 1856 0 
L 263 0 
L 263 331 
L 781 331 
L 781 2994 
L 231 2994 
L 231 3322 
L 1356 3322 
L 1356 2731 
Q 1516 3063 1762 3238 
Q 2009 3413 2322 3413 
Q 2709 3413 2968 3220 
Q 3228 3028 3316 2675 
z
" transform="scale(0.015625)"/>
       <path id="DejaVuSerif-70" d="M 1313 1825 
L 1313 1497 
Q 1313 897 1542 583 
Q 1772 269 2209 269 
Q 2650 269 2876 622 
Q 3103 975 3103 1663 
Q 3103 2353 2876 2703 
Q 2650 3053 2209 3053 
Q 1772 3053 1542 2737 
Q 1313 2422 1313 1825 
z
M 738 2988 
L 184 2988 
L 184 3322 
L 1313 3322 
L 1313 2803 
Q 1481 3116 1742 3264 
Q 2003 3413 2388 3413 
Q 3000 3413 3387 2928 
Q 3775 2444 3775 1663 
Q 3775 881 3387 395 
Q 3000 -91 2388 -91 
Q 2003 -91 1742 57 
Q 1481 206 1313 519 
L 1313 -997 
L 1856 -997 
L 1856 -1331 
L 184 -1331 
L 184 -997 
L 738 -997 
L 738 2988 
z
" transform="scale(0.015625)"/>
       <path id="DejaVuSerif-6c" d="M 1313 331 
L 1856 331 
L 1856 0 
L 184 0 
L 184 331 
L 738 331 
L 738 4531 
L 184 4531 
L 184 4863 
L 1313 4863 
L 1313 331 
z
" transform="scale(0.015625)"/>
       <path id="DejaVuSerif-65" d="M 3469 1600 
L 991 1600 
L 991 1575 
Q 991 903 1244 561 
Q 1497 219 1991 219 
Q 2369 219 2611 417 
Q 2853 616 2950 1006 
L 3413 1006 
Q 3275 459 2904 184 
Q 2534 -91 1931 -91 
Q 1203 -91 761 389 
Q 319 869 319 1663 
Q 319 2450 753 2931 
Q 1188 3413 1894 3413 
Q 2647 3413 3050 2948 
Q 3453 2484 3469 1600 
z
M 2791 1931 
Q 2772 2513 2545 2808 
Q 2319 3103 1894 3103 
Q 1497 3103 1269 2806 
Q 1041 2509 991 1931 
L 2791 1931 
z
" transform="scale(0.015625)"/>
       <path id="DejaVuSerif-20" transform="scale(0.015625)"/>
       <path id="DejaVuSerif-69" d="M 622 4353 
Q 622 4497 726 4603 
Q 831 4709 978 4709 
Q 1122 4709 1226 4603 
Q 1331 4497 1331 4353 
Q 1331 4206 1228 4103 
Q 1125 4000 978 4000 
Q 831 4000 726 4103 
Q 622 4206 622 4353 
z
M 1356 331 
L 1900 331 
L 1900 0 
L 231 0 
L 231 331 
L 781 331 
L 781 2988 
L 231 2988 
L 231 3322 
L 1356 3322 
L 1356 331 
z
" transform="scale(0.015625)"/>
       <path id="DejaVuSerif-7a" d="M 256 0 
L 256 269 
L 2338 2988 
L 691 2988 
L 691 2413 
L 359 2413 
L 359 3322 
L 3078 3322 
L 3078 3053 
L 997 331 
L 2803 331 
L 2803 934 
L 3138 934 
L 3138 0 
L 256 0 
z
" transform="scale(0.015625)"/>
       <path id="DejaVuSerif-28" d="M 2041 -997 
Q 1281 -656 893 83 
Q 506 822 506 1931 
Q 506 3044 893 3783 
Q 1281 4522 2041 4863 
L 2041 4556 
Q 1559 4225 1350 3623 
Q 1141 3022 1141 1931 
Q 1141 844 1350 242 
Q 1559 -359 2041 -691 
L 2041 -997 
z
" transform="scale(0.015625)"/>
       <path id="DejaVuSerif-4e" d="M 313 0 
L 313 331 
L 941 331 
L 941 4331 
L 313 4331 
L 313 4666 
L 1509 4666 
L 4306 984 
L 4306 4331 
L 3681 4331 
L 3681 4666 
L 5319 4666 
L 5319 4331 
L 4691 4331 
L 4691 -91 
L 4313 -91 
L 1325 3841 
L 1325 331 
L 1953 331 
L 1953 0 
L 313 0 
z
" transform="scale(0.015625)"/>
       <path id="DejaVuSerif-29" d="M 453 -997 
L 453 -691 
Q 934 -359 1145 242 
Q 1356 844 1356 1931 
Q 1356 3022 1145 3623 
Q 934 4225 453 4556 
L 453 4863 
Q 1216 4522 1603 3783 
Q 1991 3044 1991 1931 
Q 1991 822 1603 83 
Q 1216 -656 453 -997 
z
" transform="scale(0.015625)"/>
      </defs>
      <use xlink:href="#DejaVuSerif-53"/>
      <use xlink:href="#DejaVuSerif-61" transform="translate(68.505859 0)"/>
      <use xlink:href="#DejaVuSerif-6d" transform="translate(128.125 0)"/>
      <use xlink:href="#DejaVuSerif-70" transform="translate(222.949219 0)"/>
      <use xlink:href="#DejaVuSerif-6c" transform="translate(286.962891 0)"/>
      <use xlink:href="#DejaVuSerif-65" transform="translate(318.945312 0)"/>
      <use xlink:href="#DejaVuSerif-20" transform="translate(378.125 0)"/>
      <use xlink:href="#DejaVuSerif-53" transform="translate(409.912109 0)"/>
      <use xlink:href="#DejaVuSerif-69" transform="translate(478.417969 0)"/>
      <use xlink:href="#DejaVuSerif-7a" transform="translate(510.400391 0)"/>
      <use xlink:href="#DejaVuSerif-65" transform="translate(563.085938 0)"/>
      <use xlink:href="#DejaVuSerif-20" transform="translate(622.265625 0)"/>
      <use xlink:href="#DejaVuSerif-28" transform="translate(654.052734 0)"/>
      <use xlink:href="#DejaVuSerif-4e" transform="translate(693.066406 0)"/>
      <use xlink:href="#DejaVuSerif-29" transform="translate(780.566406 0)"/>
     </g>
    </g>
   </g>
   <g id="matplotlib.axis_2">
    <g id="ytick_1">
     <g id="line2d_11">
      <path d="M 58.020625 375.25225 
L 488.691868 375.25225 
" clip-path="url(#pf9f10dd496)" style="fill: none; stroke: #a6a6a6; stroke-opacity: 0.3; stroke-width: 0.8; stroke-linecap: square"/>
     </g>
     <g id="line2d_12">
      <defs>
       <path id="m3cc959bf60" d="M 0 0 
L -3.5 0 
" style="stroke: #030303; stroke-width: 0.8"/>
      </defs>
      <g>
       <use xlink:href="#m3cc959bf60" x="58.020625" y="375.25225" style="fill: #030303; stroke: #030303; stroke-width: 0.8"/>
      </g>
     </g>
     <g id="text_7">
      <!-- $\mathdefault{0.0}$ -->
      <g style="fill: #030303" transform="translate(28.620625 380.571156) scale(0.14 -0.14)">
       <defs>
        <path id="DejaVuSerif-2e" d="M 603 325 
Q 603 500 722 622 
Q 841 744 1019 744 
Q 1191 744 1312 622 
Q 1434 500 1434 325 
Q 1434 153 1312 31 
Q 1191 -91 1019 -91 
Q 841 -91 722 29 
Q 603 150 603 325 
z
" transform="scale(0.015625)"/>
       </defs>
       <use xlink:href="#DejaVuSerif-30" transform="translate(0 0.78125)"/>
       <use xlink:href="#DejaVuSerif-2e" transform="translate(63.623047 0.78125)"/>
       <use xlink:href="#DejaVuSerif-30" transform="translate(95.410156 0.78125)"/>
      </g>
     </g>
    </g>
    <g id="ytick_2">
     <g id="line2d_13">
      <path d="M 58.020625 307.3529 
L 488.691868 307.3529 
" clip-path="url(#pf9f10dd496)" style="fill: none; stroke: #a6a6a6; stroke-opacity: 0.3; stroke-width: 0.8; stroke-linecap: square"/>
     </g>
     <g id="line2d_14">
      <g>
       <use xlink:href="#m3cc959bf60" x="58.020625" y="307.3529" style="fill: #030303; stroke: #030303; stroke-width: 0.8"/>
      </g>
     </g>
     <g id="text_8">
      <!-- $\mathdefault{0.2}$ -->
      <g style="fill: #030303" transform="translate(29.040625 312.671806) scale(0.14 -0.14)">
       <use xlink:href="#DejaVuSerif-30" transform="translate(0 0.78125)"/>
       <use xlink:href="#DejaVuSerif-2e" transform="translate(63.623047 0.78125)"/>
       <use xlink:href="#DejaVuSerif-32" transform="translate(92.785156 0.78125)"/>
      </g>
     </g>
    </g>
    <g id="ytick_3">
     <g id="line2d_15">
      <path d="M 58.020625 239.45355 
L 488.691868 239.45355 
" clip-path="url(#pf9f10dd496)" style="fill: none; stroke: #a6a6a6; stroke-opacity: 0.3; stroke-width: 0.8; stroke-linecap: square"/>
     </g>
     <g id="line2d_16">
      <g>
       <use xlink:href="#m3cc959bf60" x="58.020625" y="239.45355" style="fill: #030303; stroke: #030303; stroke-width: 0.8"/>
      </g>
     </g>
     <g id="text_9">
      <!-- $\mathdefault{0.4}$ -->
      <g style="fill: #030303" transform="translate(28.620625 244.772456) scale(0.14 -0.14)">
       <use xlink:href="#DejaVuSerif-30" transform="translate(0 0.78125)"/>
       <use xlink:href="#DejaVuSerif-2e" transform="translate(63.623047 0.78125)"/>
       <use xlink:href="#DejaVuSerif-34" transform="translate(95.410156 0.78125)"/>
      </g>
     </g>
    </g>
    <g id="ytick_4">
     <g id="line2d_17">
      <path d="M 58.020625 171.5542 
L 488.691868 171.5542 
" clip-path="url(#pf9f10dd496)" style="fill: none; stroke: #a6a6a6; stroke-opacity: 0.3; stroke-width: 0.8; stroke-linecap: square"/>
     </g>
     <g id="line2d_18">
      <g>
       <use xlink:href="#m3cc959bf60" x="58.020625" y="171.5542" style="fill: #030303; stroke: #030303; stroke-width: 0.8"/>
      </g>
     </g>
     <g id="text_10">
      <!-- $\mathdefault{0.6}$ -->
      <g style="fill: #030303" transform="translate(28.620625 176.873106) scale(0.14 -0.14)">
       <use xlink:href="#DejaVuSerif-30" transform="translate(0 0.78125)"/>
       <use xlink:href="#DejaVuSerif-2e" transform="translate(63.623047 0.78125)"/>
       <use xlink:href="#DejaVuSerif-36" transform="translate(95.410156 0.78125)"/>
      </g>
     </g>
    </g>
    <g id="ytick_5">
     <g id="line2d_19">
      <path d="M 58.020625 103.65485 
L 488.691868 103.65485 
" clip-path="url(#pf9f10dd496)" style="fill: none; stroke: #a6a6a6; stroke-opacity: 0.3; stroke-width: 0.8; stroke-linecap: square"/>
     </g>
     <g id="line2d_20">
      <g>
       <use xlink:href="#m3cc959bf60" x="58.020625" y="103.65485" style="fill: #030303; stroke: #030303; stroke-width: 0.8"/>
      </g>
     </g>
     <g id="text_11">
      <!-- $\mathdefault{0.8}$ -->
      <g style="fill: #030303" transform="translate(29.180625 108.973756) scale(0.14 -0.14)">
       <use xlink:href="#DejaVuSerif-30" transform="translate(0 0.78125)"/>
       <use xlink:href="#DejaVuSerif-2e" transform="translate(63.623047 0.78125)"/>
       <use xlink:href="#DejaVuSerif-38" transform="translate(91.785156 0.78125)"/>
      </g>
     </g>
    </g>
    <g id="ytick_6">
     <g id="line2d_21">
      <path d="M 58.020625 35.7555 
L 488.691868 35.7555 
" clip-path="url(#pf9f10dd496)" style="fill: none; stroke: #a6a6a6; stroke-opacity: 0.3; stroke-width: 0.8; stroke-linecap: square"/>
     </g>
     <g id="line2d_22">
      <g>
       <use xlink:href="#m3cc959bf60" x="58.020625" y="35.7555" style="fill: #030303; stroke: #030303; stroke-width: 0.8"/>
      </g>
     </g>
     <g id="text_12">
      <!-- $\mathdefault{1.0}$ -->
      <g style="fill: #030303" transform="translate(28.620625 41.074406) scale(0.14 -0.14)">
       <use xlink:href="#DejaVuSerif-31" transform="translate(0 0.78125)"/>
       <use xlink:href="#DejaVuSerif-2e" transform="translate(63.623047 0.78125)"/>
       <use xlink:href="#DejaVuSerif-30" transform="translate(95.410156 0.78125)"/>
      </g>
     </g>
    </g>
    <g id="text_13">
     <!-- Power -->
     <g style="fill: #030303" transform="translate(20.877188 233.9495) rotate(-90) scale(0.18 -0.18)">
      <defs>
       <path id="DejaVuSerif-50" d="M 1581 2375 
L 2406 2375 
Q 2872 2375 3115 2626 
Q 3359 2878 3359 3353 
Q 3359 3831 3115 4081 
Q 2872 4331 2406 4331 
L 1581 4331 
L 1581 2375 
z
M 353 0 
L 353 331 
L 947 331 
L 947 4331 
L 353 4331 
L 353 4666 
L 2559 4666 
Q 3259 4666 3668 4311 
Q 4078 3956 4078 3353 
Q 4078 2753 3668 2397 
Q 3259 2041 2559 2041 
L 1581 2041 
L 1581 331 
L 2303 331 
L 2303 0 
L 353 0 
z
" transform="scale(0.015625)"/>
       <path id="DejaVuSerif-6f" d="M 1925 219 
Q 2388 219 2623 584 
Q 2859 950 2859 1663 
Q 2859 2375 2623 2739 
Q 2388 3103 1925 3103 
Q 1463 3103 1227 2739 
Q 991 2375 991 1663 
Q 991 950 1228 584 
Q 1466 219 1925 219 
z
M 1925 -91 
Q 1200 -91 759 389 
Q 319 869 319 1663 
Q 319 2456 758 2934 
Q 1197 3413 1925 3413 
Q 2653 3413 3092 2934 
Q 3531 2456 3531 1663 
Q 3531 869 3092 389 
Q 2653 -91 1925 -91 
z
" transform="scale(0.015625)"/>
       <path id="DejaVuSerif-77" d="M 3072 3322 
L 3922 728 
L 4672 2988 
L 4191 2988 
L 4191 3322 
L 5394 3322 
L 5394 2988 
L 5025 2988 
L 4038 0 
L 3559 0 
L 2741 2484 
L 1919 0 
L 1459 0 
L 475 2988 
L 103 2988 
L 103 3322 
L 1606 3322 
L 1606 2988 
L 1069 2988 
L 1813 728 
L 2669 3322 
L 3072 3322 
z
" transform="scale(0.015625)"/>
       <path id="DejaVuSerif-72" d="M 3059 3328 
L 3059 2497 
L 2728 2497 
Q 2713 2744 2591 2866 
Q 2469 2988 2234 2988 
Q 1809 2988 1582 2694 
Q 1356 2400 1356 1850 
L 1356 331 
L 2022 331 
L 2022 0 
L 263 0 
L 263 331 
L 781 331 
L 781 2994 
L 231 2994 
L 231 3322 
L 1356 3322 
L 1356 2731 
Q 1525 3078 1790 3245 
Q 2056 3413 2438 3413 
Q 2578 3413 2733 3391 
Q 2888 3369 3059 3328 
z
" transform="scale(0.015625)"/>
      </defs>
      <use xlink:href="#DejaVuSerif-50"/>
      <use xlink:href="#DejaVuSerif-6f" transform="translate(63.285156 0)"/>
      <use xlink:href="#DejaVuSerif-77" transform="translate(123.490234 0)"/>
      <use xlink:href="#DejaVuSerif-65" transform="translate(209.085938 0)"/>
      <use xlink:href="#DejaVuSerif-72" transform="translate(268.265625 0)"/>
     </g>
    </g>
   </g>
   <g id="line2d_23">
    <path d="M 58.020625 374.743005 
L 66.900444 375.25225 
L 75.780264 340.974395 
L 84.660083 324.339054 
L 133.49909 335.734828 
L 177.898187 293.625915 
L 244.496833 375.173034 
L 333.295028 316.519312 
L 399.893673 356.625195 
L 488.691868 373.317119 
" clip-path="url(#pf9f10dd496)" style="fill: none; stroke: #1f77b4; stroke-width: 1.5; stroke-linecap: square"/>
   </g>
   <g id="line2d_24">
    <path d="M 58.020625 374.946703 
L 66.900444 375.25225 
L 75.780264 321.011986 
L 84.660083 292.222662 
L 133.49909 281.007952 
L 177.898187 195.658469 
L 244.496833 373.882946 
L 333.295028 176.307154 
L 399.893673 254.595105 
L 488.691868 330.268931 
" clip-path="url(#pf9f10dd496)" style="fill: none; stroke: #ff7f0e; stroke-width: 1.5; stroke-linecap: square"/>
   </g>
   <g id="line2d_25">
    <path d="M 58.020625 370.691677 
L 66.900444 375.116451 
L 75.780264 293.399584 
L 84.660083 259.325426 
L 133.49909 194.50418 
L 177.898187 109.075481 
L 244.496833 362.860619 
L 333.295028 66.129143 
L 399.893673 101.697085 
L 488.691868 171.938963 
" clip-path="url(#pf9f10dd496)" style="fill: none; stroke: #2ca02c; stroke-width: 1.5; stroke-linecap: square"/>
   </g>
   <g id="line2d_26">
    <path d="M 58.020625 355.074826 
L 66.900444 374.335609 
L 75.780264 258.510634 
L 84.660083 221.403639 
L 133.49909 119.905428 
L 177.898187 56.317686 
L 244.496833 313.792022 
L 333.295028 38.494107 
L 399.893673 42.534118 
L 488.691868 54.246756 
" clip-path="url(#pf9f10dd496)" style="fill: none; stroke: #d62728; stroke-width: 1.5; stroke-linecap: square"/>
   </g>
   <g id="line2d_27">
    <path d="M 58.020625 353.626307 
L 66.900444 372.751291 
L 75.780264 229.698677 
L 84.660083 184.885106 
L 133.49909 67.532396 
L 177.898187 39.772878 
L 244.496833 212.271177 
L 333.295028 35.823399 
L 399.893673 36.004464 
L 488.691868 36.355278 
" clip-path="url(#pf9f10dd496)" style="fill: none; stroke: #9467bd; stroke-width: 1.5; stroke-linecap: square"/>
   </g>
   <g id="line2d_28">
    <path d="M 58.020625 329.340973 
L 66.900444 368.767862 
L 75.780264 196.541161 
L 84.660083 151.39941 
L 133.49909 45.544323 
L 177.898187 36.434493 
L 244.496833 110.716382 
L 333.295028 35.7555 
L 399.893673 35.7555 
L 488.691868 35.766817 
" clip-path="url(#pf9f10dd496)" style="fill: none; stroke: #8c564b; stroke-width: 1.5; stroke-linecap: square"/>
   </g>
   <g id="line2d_29">
    <path d="M 58.020625 306.481525 
L 66.900444 361.683697 
L 75.780264 165.352726 
L 84.660083 117.653433 
L 133.49909 37.667998 
L 177.898187 35.778133 
L 244.496833 54.495721 
L 333.295028 35.7555 
L 399.893673 35.7555 
L 488.691868 35.7555 
" clip-path="url(#pf9f10dd496)" style="fill: none; stroke: #e377c2; stroke-width: 1.5; stroke-linecap: square"/>
   </g>
   <g id="line2d_30">
    <path d="M 58.020625 267.677046 
L 66.900444 345.501018 
L 75.780264 136.7671 
L 84.660083 94.511071 
L 133.49909 36.128946 
L 177.898187 35.7555 
L 244.496833 38.629906 
L 333.295028 35.7555 
L 399.893673 35.7555 
L 488.691868 35.7555 
" clip-path="url(#pf9f10dd496)" style="fill: none; stroke: #7f7f7f; stroke-width: 1.5; stroke-linecap: square"/>
   </g>
   <g id="line2d_31">
    <path d="M 58.020625 248.359681 
L 66.900444 328.888311 
L 75.780264 111.938571 
L 84.660083 75.612418 
L 133.49909 35.823399 
L 177.898187 35.7555 
L 244.496833 35.981831 
L 333.295028 35.7555 
L 399.893673 35.7555 
L 488.691868 35.7555 
" clip-path="url(#pf9f10dd496)" style="fill: none; stroke: #bcbd22; stroke-width: 1.5; stroke-linecap: square"/>
   </g>
   <g id="line2d_32">
    <path d="M 58.020625 227.854078 
L 66.900444 299.352093 
L 75.780264 93.2323 
L 84.660083 61.727001 
L 133.49909 35.7555 
L 177.898187 35.7555 
L 244.496833 35.78945 
L 333.295028 35.7555 
L 399.893673 35.7555 
L 488.691868 35.7555 
" clip-path="url(#pf9f10dd496)" style="fill: none; stroke: #17becf; stroke-width: 1.5; stroke-linecap: square"/>
   </g>
   <g id="line2d_33">
    <path d="M 58.020625 192.784063 
L 66.900444 266.839621 
L 75.780264 78.090745 
L 84.660083 51.327084 
L 133.49909 35.7555 
L 177.898187 35.7555 
L 244.496833 35.7555 
L 333.295028 35.7555 
L 399.893673 35.7555 
L 488.691868 35.7555 
" clip-path="url(#pf9f10dd496)" style="fill: none; stroke: #1f77b4; stroke-width: 1.5; stroke-linecap: square"/>
   </g>
   <g id="line2d_34">
    <path d="M 58.020625 190.72445 
L 66.900444 233.331292 
L 75.780264 64.861688 
L 84.660083 44.910596 
L 133.49909 35.7555 
L 177.898187 35.7555 
L 244.496833 35.7555 
L 333.295028 35.7555 
L 399.893673 35.7555 
L 488.691868 35.7555 
" clip-path="url(#pf9f10dd496)" style="fill: none; stroke: #ff7f0e; stroke-width: 1.5; stroke-linecap: square"/>
   </g>
   <g id="line2d_35">
    <path d="M 58.020625 156.310796 
L 66.900444 190.860249 
L 75.780264 56.906148 
L 84.660083 40.859268 
L 133.49909 35.7555 
L 177.898187 35.7555 
L 244.496833 35.7555 
L 333.295028 35.7555 
L 399.893673 35.7555 
L 488.691868 35.7555 
" clip-path="url(#pf9f10dd496)" style="fill: none; stroke: #2ca02c; stroke-width: 1.5; stroke-linecap: square"/>
   </g>
   <g id="line2d_36">
    <path d="M 58.020625 130.361928 
L 66.900444 160.950585 
L 75.780264 49.969097 
L 84.660083 38.539373 
L 133.49909 35.7555 
L 177.898187 35.7555 
L 244.496833 35.7555 
L 333.295028 35.7555 
L 399.893673 35.7555 
L 488.691868 35.7555 
" clip-path="url(#pf9f10dd496)" style="fill: none; stroke: #d62728; stroke-width: 1.5; stroke-linecap: square"/>
   </g>
   <g id="patch_3">
    <path d="M 58.020625 375.25225 
L 58.020625 35.7555 
" style="fill: none; stroke: #030303; stroke-width: 1.5; stroke-linejoin: miter; stroke-linecap: square"/>
   </g>
   <g id="patch_4">
    <path d="M 58.020625 375.25225 
L 488.691868 375.25225 
" style="fill: none; stroke: #030303; stroke-width: 1.5; stroke-linejoin: miter; stroke-linecap: square"/>
   </g>
   <g id="text_14">
    <!-- Power vs Sample Size -->
    <g style="fill: #030303" transform="translate(206.773121 16.318125) scale(0.12 -0.12)">
     <defs>
      <path id="DejaVuSerif-76" d="M 1581 0 
L 359 2988 
L -19 2988 
L -19 3322 
L 1509 3322 
L 1509 2988 
L 978 2988 
L 1913 703 
L 2847 2988 
L 2350 2988 
L 2350 3322 
L 3597 3322 
L 3597 2988 
L 3225 2988 
L 2003 0 
L 1581 0 
z
" transform="scale(0.015625)"/>
      <path id="DejaVuSerif-73" d="M 359 184 
L 359 959 
L 691 959 
Q 703 588 923 403 
Q 1144 219 1575 219 
Q 1963 219 2166 364 
Q 2369 509 2369 788 
Q 2369 1006 2220 1140 
Q 2072 1275 1594 1428 
L 1178 1569 
Q 750 1706 558 1912 
Q 366 2119 366 2438 
Q 366 2894 700 3153 
Q 1034 3413 1625 3413 
Q 1888 3413 2178 3344 
Q 2469 3275 2778 3144 
L 2778 2419 
L 2447 2419 
Q 2434 2741 2221 2922 
Q 2009 3103 1644 3103 
Q 1281 3103 1095 2975 
Q 909 2847 909 2591 
Q 909 2381 1050 2254 
Q 1191 2128 1613 1997 
L 2069 1856 
Q 2541 1709 2748 1489 
Q 2956 1269 2956 922 
Q 2956 450 2595 179 
Q 2234 -91 1600 -91 
Q 1278 -91 972 -22 
Q 666 47 359 184 
z
" transform="scale(0.015625)"/>
     </defs>
     <use xlink:href="#DejaVuSerif-50"/>
     <use xlink:href="#DejaVuSerif-6f" transform="translate(63.285156 0)"/>
     <use xlink:href="#DejaVuSerif-77" transform="translate(123.490234 0)"/>
     <use xlink:href="#DejaVuSerif-65" transform="translate(209.085938 0)"/>
     <use xlink:href="#DejaVuSerif-72" transform="translate(268.265625 0)"/>
     <use xlink:href="#DejaVuSerif-20" transform="translate(316.068359 0)"/>
     <use xlink:href="#DejaVuSerif-76" transform="translate(347.855469 0)"/>
     <use xlink:href="#DejaVuSerif-73" transform="translate(404.349609 0)"/>
     <use xlink:href="#DejaVuSerif-20" transform="translate(455.667969 0)"/>
     <use xlink:href="#DejaVuSerif-53" transform="translate(487.455078 0)"/>
     <use xlink:href="#DejaVuSerif-61" transform="translate(555.960938 0)"/>
     <use xlink:href="#DejaVuSerif-6d" transform="translate(615.580078 0)"/>
     <use xlink:href="#DejaVuSerif-70" transform="translate(710.404297 0)"/>
     <use xlink:href="#DejaVuSerif-6c" transform="translate(774.417969 0)"/>
     <use xlink:href="#DejaVuSerif-65" transform="translate(806.400391 0)"/>
     <use xlink:href="#DejaVuSerif-20" transform="translate(865.580078 0)"/>
     <use xlink:href="#DejaVuSerif-53" transform="translate(897.367188 0)"/>
     <use xlink:href="#DejaVuSerif-69" transform="translate(965.873047 0)"/>
     <use xlink:href="#DejaVuSerif-7a" transform="translate(997.855469 0)"/>
     <use xlink:href="#DejaVuSerif-65" transform="translate(1050.541016 0)"/>
    </g>
    <!-- For All Effect Sizes -->
    <g style="fill: #030303" transform="translate(215.186246 29.7555) scale(0.12 -0.12)">
     <defs>
      <path id="DejaVuSerif-46" d="M 353 0 
L 353 331 
L 947 331 
L 947 4331 
L 353 4331 
L 353 4666 
L 4172 4666 
L 4172 3628 
L 3788 3628 
L 3788 4281 
L 1581 4281 
L 1581 2719 
L 3175 2719 
L 3175 3303 
L 3559 3303 
L 3559 1753 
L 3175 1753 
L 3175 2338 
L 1581 2338 
L 1581 331 
L 2328 331 
L 2328 0 
L 353 0 
z
" transform="scale(0.015625)"/>
      <path id="DejaVuSerif-41" d="M 1281 1691 
L 2994 1691 
L 2138 3909 
L 1281 1691 
z
M -38 0 
L -38 331 
L 372 331 
L 2034 4666 
L 2559 4666 
L 4225 331 
L 4684 331 
L 4684 0 
L 2988 0 
L 2988 331 
L 3506 331 
L 3116 1356 
L 1153 1356 
L 763 331 
L 1275 331 
L 1275 0 
L -38 0 
z
" transform="scale(0.015625)"/>
      <path id="DejaVuSerif-45" d="M 353 0 
L 353 331 
L 947 331 
L 947 4331 
L 353 4331 
L 353 4666 
L 4109 4666 
L 4109 3628 
L 3725 3628 
L 3725 4281 
L 1581 4281 
L 1581 2719 
L 3109 2719 
L 3109 3303 
L 3494 3303 
L 3494 1753 
L 3109 1753 
L 3109 2338 
L 1581 2338 
L 1581 384 
L 3775 384 
L 3775 1038 
L 4159 1038 
L 4159 0 
L 353 0 
z
" transform="scale(0.015625)"/>
      <path id="DejaVuSerif-66" d="M 2753 4078 
L 2450 4078 
Q 2447 4313 2317 4434 
Q 2188 4556 1941 4556 
Q 1619 4556 1487 4379 
Q 1356 4203 1356 3750 
L 1356 3322 
L 2284 3322 
L 2284 2988 
L 1356 2988 
L 1356 331 
L 2094 331 
L 2094 0 
L 231 0 
L 231 331 
L 781 331 
L 781 2988 
L 231 2988 
L 231 3322 
L 781 3322 
L 781 3738 
Q 781 4294 1070 4578 
Q 1359 4863 1919 4863 
Q 2128 4863 2337 4825 
Q 2547 4788 2753 4709 
L 2753 4078 
z
" transform="scale(0.015625)"/>
      <path id="DejaVuSerif-63" d="M 3291 997 
Q 3169 466 2822 187 
Q 2475 -91 1925 -91 
Q 1200 -91 759 389 
Q 319 869 319 1663 
Q 319 2459 759 2936 
Q 1200 3413 1925 3413 
Q 2241 3413 2553 3339 
Q 2866 3266 3181 3116 
L 3181 2266 
L 2847 2266 
Q 2781 2703 2561 2903 
Q 2341 3103 1931 3103 
Q 1466 3103 1228 2742 
Q 991 2381 991 1663 
Q 991 944 1227 581 
Q 1463 219 1931 219 
Q 2303 219 2525 412 
Q 2747 606 2828 997 
L 3291 997 
z
" transform="scale(0.015625)"/>
      <path id="DejaVuSerif-74" d="M 691 2988 
L 184 2988 
L 184 3322 
L 691 3322 
L 691 4353 
L 1269 4353 
L 1269 3322 
L 2350 3322 
L 2350 2988 
L 1269 2988 
L 1269 878 
Q 1269 456 1350 337 
Q 1431 219 1650 219 
Q 1875 219 1978 351 
Q 2081 484 2088 781 
L 2522 781 
Q 2497 328 2275 118 
Q 2053 -91 1600 -91 
Q 1103 -91 897 129 
Q 691 350 691 878 
L 691 2988 
z
" transform="scale(0.015625)"/>
     </defs>
     <use xlink:href="#DejaVuSerif-46"/>
     <use xlink:href="#DejaVuSerif-6f" transform="translate(63.884766 0)"/>
     <use xlink:href="#DejaVuSerif-72" transform="translate(124.089844 0)"/>
     <use xlink:href="#DejaVuSerif-20" transform="translate(171.892578 0)"/>
     <use xlink:href="#DejaVuSerif-41" transform="translate(203.679688 0)"/>
     <use xlink:href="#DejaVuSerif-6c" transform="translate(275.896484 0)"/>
     <use xlink:href="#DejaVuSerif-6c" transform="translate(307.878906 0)"/>
     <use xlink:href="#DejaVuSerif-20" transform="translate(339.861328 0)"/>
     <use xlink:href="#DejaVuSerif-45" transform="translate(371.648438 0)"/>
     <use xlink:href="#DejaVuSerif-66" transform="translate(444.646484 0)"/>
     <use xlink:href="#DejaVuSerif-66" transform="translate(481.658203 0)"/>
     <use xlink:href="#DejaVuSerif-65" transform="translate(518.669922 0)"/>
     <use xlink:href="#DejaVuSerif-63" transform="translate(577.849609 0)"/>
     <use xlink:href="#DejaVuSerif-74" transform="translate(633.855469 0)"/>
     <use xlink:href="#DejaVuSerif-20" transform="translate(674.041016 0)"/>
     <use xlink:href="#DejaVuSerif-53" transform="translate(705.828125 0)"/>
     <use xlink:href="#DejaVuSerif-69" transform="translate(774.333984 0)"/>
     <use xlink:href="#DejaVuSerif-7a" transform="translate(806.316406 0)"/>
     <use xlink:href="#DejaVuSerif-65" transform="translate(859.001953 0)"/>
     <use xlink:href="#DejaVuSerif-73" transform="translate(918.181641 0)"/>
    </g>
   </g>
  </g>
  <g id="axes_2">
   <g id="patch_5">
    <path d="M 563.192419 375.25225 
L 993.863662 375.25225 
L 993.863662 35.7555 
L 563.192419 35.7555 
L 563.192419 375.25225 
z
" style="fill: none"/>
   </g>
   <g id="matplotlib.axis_3">
    <g id="xtick_6">
     <g id="line2d_37">
      <path d="M 582.768385 375.25225 
L 582.768385 35.7555 
" clip-path="url(#pa0d86b4faa)" style="fill: none; stroke: #a6a6a6; stroke-opacity: 0.3; stroke-width: 0.8; stroke-linecap: square"/>
     </g>
     <g id="line2d_38">
      <g>
       <use xlink:href="#mcf7a3d4e5a" x="582.768385" y="375.25225" style="fill: #030303; stroke: #030303; stroke-width: 0.8"/>
      </g>
     </g>
     <g id="text_15">
      <!-- $\mathdefault{0.00}$ -->
      <g style="fill: #030303" transform="translate(567.158385 392.890062) scale(0.14 -0.14)">
       <use xlink:href="#DejaVuSerif-30" transform="translate(0 0.78125)"/>
       <use xlink:href="#DejaVuSerif-2e" transform="translate(63.623047 0.78125)"/>
       <use xlink:href="#DejaVuSerif-30" transform="translate(95.410156 0.78125)"/>
       <use xlink:href="#DejaVuSerif-30" transform="translate(159.033203 0.78125)"/>
      </g>
     </g>
    </g>
    <g id="xtick_7">
     <g id="line2d_39">
      <path d="M 643.002125 375.25225 
L 643.002125 35.7555 
" clip-path="url(#pa0d86b4faa)" style="fill: none; stroke: #a6a6a6; stroke-opacity: 0.3; stroke-width: 0.8; stroke-linecap: square"/>
     </g>
     <g id="line2d_40">
      <g>
       <use xlink:href="#mcf7a3d4e5a" x="643.002125" y="375.25225" style="fill: #030303; stroke: #030303; stroke-width: 0.8"/>
      </g>
     </g>
     <g id="text_16">
      <!-- $\mathdefault{0.05}$ -->
      <g style="fill: #030303" transform="translate(627.392125 392.890062) scale(0.14 -0.14)">
       <defs>
        <path id="DejaVuSerif-35" d="M 3219 4666 
L 3219 4153 
L 1081 4153 
L 1081 2816 
Q 1244 2928 1461 2984 
Q 1678 3041 1947 3041 
Q 2703 3041 3140 2622 
Q 3578 2203 3578 1478 
Q 3578 738 3136 323 
Q 2694 -91 1894 -91 
Q 1572 -91 1234 -12 
Q 897 66 544 225 
L 544 1131 
L 897 1131 
Q 925 688 1179 453 
Q 1434 219 1894 219 
Q 2388 219 2653 544 
Q 2919 869 2919 1478 
Q 2919 2084 2655 2407 
Q 2391 2731 1894 2731 
Q 1613 2731 1398 2631 
Q 1184 2531 1019 2322 
L 750 2322 
L 750 4666 
L 3219 4666 
z
" transform="scale(0.015625)"/>
       </defs>
       <use xlink:href="#DejaVuSerif-30" transform="translate(0 0.78125)"/>
       <use xlink:href="#DejaVuSerif-2e" transform="translate(63.623047 0.78125)"/>
       <use xlink:href="#DejaVuSerif-30" transform="translate(95.410156 0.78125)"/>
       <use xlink:href="#DejaVuSerif-35" transform="translate(159.033203 0.78125)"/>
      </g>
     </g>
    </g>
    <g id="xtick_8">
     <g id="line2d_41">
      <path d="M 703.235865 375.25225 
L 703.235865 35.7555 
" clip-path="url(#pa0d86b4faa)" style="fill: none; stroke: #a6a6a6; stroke-opacity: 0.3; stroke-width: 0.8; stroke-linecap: square"/>
     </g>
     <g id="line2d_42">
      <g>
       <use xlink:href="#mcf7a3d4e5a" x="703.235865" y="375.25225" style="fill: #030303; stroke: #030303; stroke-width: 0.8"/>
      </g>
     </g>
     <g id="text_17">
      <!-- $\mathdefault{0.10}$ -->
      <g style="fill: #030303" transform="translate(687.625865 392.890062) scale(0.14 -0.14)">
       <use xlink:href="#DejaVuSerif-30" transform="translate(0 0.78125)"/>
       <use xlink:href="#DejaVuSerif-2e" transform="translate(63.623047 0.78125)"/>
       <use xlink:href="#DejaVuSerif-31" transform="translate(95.410156 0.78125)"/>
       <use xlink:href="#DejaVuSerif-30" transform="translate(159.033203 0.78125)"/>
      </g>
     </g>
    </g>
    <g id="xtick_9">
     <g id="line2d_43">
      <path d="M 763.469606 375.25225 
L 763.469606 35.7555 
" clip-path="url(#pa0d86b4faa)" style="fill: none; stroke: #a6a6a6; stroke-opacity: 0.3; stroke-width: 0.8; stroke-linecap: square"/>
     </g>
     <g id="line2d_44">
      <g>
       <use xlink:href="#mcf7a3d4e5a" x="763.469606" y="375.25225" style="fill: #030303; stroke: #030303; stroke-width: 0.8"/>
      </g>
     </g>
     <g id="text_18">
      <!-- $\mathdefault{0.15}$ -->
      <g style="fill: #030303" transform="translate(747.859606 392.890062) scale(0.14 -0.14)">
       <use xlink:href="#DejaVuSerif-30" transform="translate(0 0.78125)"/>
       <use xlink:href="#DejaVuSerif-2e" transform="translate(63.623047 0.78125)"/>
       <use xlink:href="#DejaVuSerif-31" transform="translate(95.410156 0.78125)"/>
       <use xlink:href="#DejaVuSerif-35" transform="translate(159.033203 0.78125)"/>
      </g>
     </g>
    </g>
    <g id="xtick_10">
     <g id="line2d_45">
      <path d="M 823.703346 375.25225 
L 823.703346 35.7555 
" clip-path="url(#pa0d86b4faa)" style="fill: none; stroke: #a6a6a6; stroke-opacity: 0.3; stroke-width: 0.8; stroke-linecap: square"/>
     </g>
     <g id="line2d_46">
      <g>
       <use xlink:href="#mcf7a3d4e5a" x="823.703346" y="375.25225" style="fill: #030303; stroke: #030303; stroke-width: 0.8"/>
      </g>
     </g>
     <g id="text_19">
      <!-- $\mathdefault{0.20}$ -->
      <g style="fill: #030303" transform="translate(808.233346 392.890062) scale(0.14 -0.14)">
       <use xlink:href="#DejaVuSerif-30" transform="translate(0 0.78125)"/>
       <use xlink:href="#DejaVuSerif-2e" transform="translate(63.623047 0.78125)"/>
       <use xlink:href="#DejaVuSerif-32" transform="translate(92.785156 0.78125)"/>
       <use xlink:href="#DejaVuSerif-30" transform="translate(156.408203 0.78125)"/>
      </g>
     </g>
    </g>
    <g id="xtick_11">
     <g id="line2d_47">
      <path d="M 883.937086 375.25225 
L 883.937086 35.7555 
" clip-path="url(#pa0d86b4faa)" style="fill: none; stroke: #a6a6a6; stroke-opacity: 0.3; stroke-width: 0.8; stroke-linecap: square"/>
     </g>
     <g id="line2d_48">
      <g>
       <use xlink:href="#mcf7a3d4e5a" x="883.937086" y="375.25225" style="fill: #030303; stroke: #030303; stroke-width: 0.8"/>
      </g>
     </g>
     <g id="text_20">
      <!-- $\mathdefault{0.25}$ -->
      <g style="fill: #030303" transform="translate(868.467086 392.890062) scale(0.14 -0.14)">
       <use xlink:href="#DejaVuSerif-30" transform="translate(0 0.78125)"/>
       <use xlink:href="#DejaVuSerif-2e" transform="translate(63.623047 0.78125)"/>
       <use xlink:href="#DejaVuSerif-32" transform="translate(92.785156 0.78125)"/>
       <use xlink:href="#DejaVuSerif-35" transform="translate(156.408203 0.78125)"/>
      </g>
     </g>
    </g>
    <g id="xtick_12">
     <g id="line2d_49">
      <path d="M 944.170826 375.25225 
L 944.170826 35.7555 
" clip-path="url(#pa0d86b4faa)" style="fill: none; stroke: #a6a6a6; stroke-opacity: 0.3; stroke-width: 0.8; stroke-linecap: square"/>
     </g>
     <g id="line2d_50">
      <g>
       <use xlink:href="#mcf7a3d4e5a" x="944.170826" y="375.25225" style="fill: #030303; stroke: #030303; stroke-width: 0.8"/>
      </g>
     </g>
     <g id="text_21">
      <!-- $\mathdefault{0.30}$ -->
      <g style="fill: #030303" transform="translate(928.560826 392.890062) scale(0.14 -0.14)">
       <defs>
        <path id="DejaVuSerif-33" d="M 622 4469 
Q 988 4606 1323 4678 
Q 1659 4750 1953 4750 
Q 2638 4750 3022 4454 
Q 3406 4159 3406 3634 
Q 3406 3213 3140 2930 
Q 2875 2647 2388 2547 
Q 2963 2466 3280 2130 
Q 3597 1794 3597 1259 
Q 3597 606 3158 257 
Q 2719 -91 1894 -91 
Q 1528 -91 1179 -12 
Q 831 66 488 225 
L 488 1131 
L 838 1131 
Q 869 681 1141 450 
Q 1413 219 1906 219 
Q 2384 219 2661 495 
Q 2938 772 2938 1253 
Q 2938 1803 2653 2086 
Q 2369 2369 1819 2369 
L 1522 2369 
L 1522 2688 
L 1678 2688 
Q 2225 2688 2498 2914 
Q 2772 3141 2772 3597 
Q 2772 4006 2547 4223 
Q 2322 4441 1900 4441 
Q 1478 4441 1245 4241 
Q 1013 4041 972 3647 
L 622 3647 
L 622 4469 
z
" transform="scale(0.015625)"/>
       </defs>
       <use xlink:href="#DejaVuSerif-30" transform="translate(0 0.78125)"/>
       <use xlink:href="#DejaVuSerif-2e" transform="translate(63.623047 0.78125)"/>
       <use xlink:href="#DejaVuSerif-33" transform="translate(95.410156 0.78125)"/>
       <use xlink:href="#DejaVuSerif-30" transform="translate(159.033203 0.78125)"/>
      </g>
     </g>
    </g>
    <g id="text_22">
     <!-- Effect Size -->
     <g style="fill: #030303" transform="translate(729.338822 413.478812) scale(0.18 -0.18)">
      <use xlink:href="#DejaVuSerif-45"/>
      <use xlink:href="#DejaVuSerif-66" transform="translate(72.998047 0)"/>
      <use xlink:href="#DejaVuSerif-66" transform="translate(110.009766 0)"/>
      <use xlink:href="#DejaVuSerif-65" transform="translate(147.021484 0)"/>
      <use xlink:href="#DejaVuSerif-63" transform="translate(206.201172 0)"/>
      <use xlink:href="#DejaVuSerif-74" transform="translate(262.207031 0)"/>
      <use xlink:href="#DejaVuSerif-20" transform="translate(302.392578 0)"/>
      <use xlink:href="#DejaVuSerif-53" transform="translate(334.179688 0)"/>
      <use xlink:href="#DejaVuSerif-69" transform="translate(402.685547 0)"/>
      <use xlink:href="#DejaVuSerif-7a" transform="translate(434.667969 0)"/>
      <use xlink:href="#DejaVuSerif-65" transform="translate(487.353516 0)"/>
     </g>
    </g>
   </g>
   <g id="matplotlib.axis_4">
    <g id="ytick_7">
     <g id="line2d_51">
      <path d="M 563.192419 375.25225 
L 993.863662 375.25225 
" clip-path="url(#pa0d86b4faa)" style="fill: none; stroke: #a6a6a6; stroke-opacity: 0.3; stroke-width: 0.8; stroke-linecap: square"/>
     </g>
     <g id="line2d_52">
      <g>
       <use xlink:href="#m3cc959bf60" x="563.192419" y="375.25225" style="fill: #030303; stroke: #030303; stroke-width: 0.8"/>
      </g>
     </g>
     <g id="text_23">
      <!-- $\mathdefault{0.0}$ -->
      <g style="fill: #030303" transform="translate(533.792419 380.571156) scale(0.14 -0.14)">
       <use xlink:href="#DejaVuSerif-30" transform="translate(0 0.78125)"/>
       <use xlink:href="#DejaVuSerif-2e" transform="translate(63.623047 0.78125)"/>
       <use xlink:href="#DejaVuSerif-30" transform="translate(95.410156 0.78125)"/>
      </g>
     </g>
    </g>
    <g id="ytick_8">
     <g id="line2d_53">
      <path d="M 563.192419 307.3529 
L 993.863662 307.3529 
" clip-path="url(#pa0d86b4faa)" style="fill: none; stroke: #a6a6a6; stroke-opacity: 0.3; stroke-width: 0.8; stroke-linecap: square"/>
     </g>
     <g id="line2d_54">
      <g>
       <use xlink:href="#m3cc959bf60" x="563.192419" y="307.3529" style="fill: #030303; stroke: #030303; stroke-width: 0.8"/>
      </g>
     </g>
     <g id="text_24">
      <!-- $\mathdefault{0.2}$ -->
      <g style="fill: #030303" transform="translate(534.212419 312.671806) scale(0.14 -0.14)">
       <use xlink:href="#DejaVuSerif-30" transform="translate(0 0.78125)"/>
       <use xlink:href="#DejaVuSerif-2e" transform="translate(63.623047 0.78125)"/>
       <use xlink:href="#DejaVuSerif-32" transform="translate(92.785156 0.78125)"/>
      </g>
     </g>
    </g>
    <g id="ytick_9">
     <g id="line2d_55">
      <path d="M 563.192419 239.45355 
L 993.863662 239.45355 
" clip-path="url(#pa0d86b4faa)" style="fill: none; stroke: #a6a6a6; stroke-opacity: 0.3; stroke-width: 0.8; stroke-linecap: square"/>
     </g>
     <g id="line2d_56">
      <g>
       <use xlink:href="#m3cc959bf60" x="563.192419" y="239.45355" style="fill: #030303; stroke: #030303; stroke-width: 0.8"/>
      </g>
     </g>
     <g id="text_25">
      <!-- $\mathdefault{0.4}$ -->
      <g style="fill: #030303" transform="translate(533.792419 244.772456) scale(0.14 -0.14)">
       <use xlink:href="#DejaVuSerif-30" transform="translate(0 0.78125)"/>
       <use xlink:href="#DejaVuSerif-2e" transform="translate(63.623047 0.78125)"/>
       <use xlink:href="#DejaVuSerif-34" transform="translate(95.410156 0.78125)"/>
      </g>
     </g>
    </g>
    <g id="ytick_10">
     <g id="line2d_57">
      <path d="M 563.192419 171.5542 
L 993.863662 171.5542 
" clip-path="url(#pa0d86b4faa)" style="fill: none; stroke: #a6a6a6; stroke-opacity: 0.3; stroke-width: 0.8; stroke-linecap: square"/>
     </g>
     <g id="line2d_58">
      <g>
       <use xlink:href="#m3cc959bf60" x="563.192419" y="171.5542" style="fill: #030303; stroke: #030303; stroke-width: 0.8"/>
      </g>
     </g>
     <g id="text_26">
      <!-- $\mathdefault{0.6}$ -->
      <g style="fill: #030303" transform="translate(533.792419 176.873106) scale(0.14 -0.14)">
       <use xlink:href="#DejaVuSerif-30" transform="translate(0 0.78125)"/>
       <use xlink:href="#DejaVuSerif-2e" transform="translate(63.623047 0.78125)"/>
       <use xlink:href="#DejaVuSerif-36" transform="translate(95.410156 0.78125)"/>
      </g>
     </g>
    </g>
    <g id="ytick_11">
     <g id="line2d_59">
      <path d="M 563.192419 103.65485 
L 993.863662 103.65485 
" clip-path="url(#pa0d86b4faa)" style="fill: none; stroke: #a6a6a6; stroke-opacity: 0.3; stroke-width: 0.8; stroke-linecap: square"/>
     </g>
     <g id="line2d_60">
      <g>
       <use xlink:href="#m3cc959bf60" x="563.192419" y="103.65485" style="fill: #030303; stroke: #030303; stroke-width: 0.8"/>
      </g>
     </g>
     <g id="text_27">
      <!-- $\mathdefault{0.8}$ -->
      <g style="fill: #030303" transform="translate(534.352419 108.973756) scale(0.14 -0.14)">
       <use xlink:href="#DejaVuSerif-30" transform="translate(0 0.78125)"/>
       <use xlink:href="#DejaVuSerif-2e" transform="translate(63.623047 0.78125)"/>
       <use xlink:href="#DejaVuSerif-38" transform="translate(91.785156 0.78125)"/>
      </g>
     </g>
    </g>
    <g id="ytick_12">
     <g id="line2d_61">
      <path d="M 563.192419 35.7555 
L 993.863662 35.7555 
" clip-path="url(#pa0d86b4faa)" style="fill: none; stroke: #a6a6a6; stroke-opacity: 0.3; stroke-width: 0.8; stroke-linecap: square"/>
     </g>
     <g id="line2d_62">
      <g>
       <use xlink:href="#m3cc959bf60" x="563.192419" y="35.7555" style="fill: #030303; stroke: #030303; stroke-width: 0.8"/>
      </g>
     </g>
     <g id="text_28">
      <!-- $\mathdefault{1.0}$ -->
      <g style="fill: #030303" transform="translate(533.792419 41.074406) scale(0.14 -0.14)">
       <use xlink:href="#DejaVuSerif-31" transform="translate(0 0.78125)"/>
       <use xlink:href="#DejaVuSerif-2e" transform="translate(63.623047 0.78125)"/>
       <use xlink:href="#DejaVuSerif-30" transform="translate(95.410156 0.78125)"/>
      </g>
     </g>
    </g>
    <g id="text_29">
     <!-- Power -->
     <g style="fill: #030303" transform="translate(526.048982 233.9495) rotate(-90) scale(0.18 -0.18)">
      <use xlink:href="#DejaVuSerif-50"/>
      <use xlink:href="#DejaVuSerif-6f" transform="translate(63.285156 0)"/>
      <use xlink:href="#DejaVuSerif-77" transform="translate(123.490234 0)"/>
      <use xlink:href="#DejaVuSerif-65" transform="translate(209.085938 0)"/>
      <use xlink:href="#DejaVuSerif-72" transform="translate(268.265625 0)"/>
     </g>
    </g>
   </g>
   <g id="line2d_63">
    <path d="M 582.768385 374.743005 
L 612.885255 374.946703 
L 643.002125 370.691677 
L 673.118995 355.074826 
L 703.235865 353.626307 
L 733.352736 329.340973 
L 763.469606 306.481525 
L 793.586476 267.677046 
L 823.703346 248.359681 
L 853.820216 227.854078 
L 883.937086 192.784063 
L 914.053956 190.72445 
L 944.170826 156.310796 
L 974.287697 130.361928 
" clip-path="url(#pa0d86b4faa)" style="fill: none; stroke: #1f77b4; stroke-width: 1.5; stroke-linecap: square"/>
   </g>
   <g id="line2d_64">
    <path d="M 582.768385 375.25225 
L 612.885255 375.25225 
L 643.002125 375.116451 
L 673.118995 374.335609 
L 703.235865 372.751291 
L 733.352736 368.767862 
L 763.469606 361.683697 
L 793.586476 345.501018 
L 823.703346 328.888311 
L 853.820216 299.352093 
L 883.937086 266.839621 
L 914.053956 233.331292 
L 944.170826 190.860249 
L 974.287697 160.950585 
" clip-path="url(#pa0d86b4faa)" style="fill: none; stroke: #ff7f0e; stroke-width: 1.5; stroke-linecap: square"/>
   </g>
   <g id="line2d_65">
    <path d="M 582.768385 340.974395 
L 612.885255 321.011986 
L 643.002125 293.399584 
L 673.118995 258.510634 
L 703.235865 229.698677 
L 733.352736 196.541161 
L 763.469606 165.352726 
L 793.586476 136.7671 
L 823.703346 111.938571 
L 853.820216 93.2323 
L 883.937086 78.090745 
L 914.053956 64.861688 
L 944.170826 56.906148 
L 974.287697 49.969097 
" clip-path="url(#pa0d86b4faa)" style="fill: none; stroke: #2ca02c; stroke-width: 1.5; stroke-linecap: square"/>
   </g>
   <g id="line2d_66">
    <path d="M 582.768385 324.339054 
L 612.885255 292.222662 
L 643.002125 259.325426 
L 673.118995 221.403639 
L 703.235865 184.885106 
L 733.352736 151.39941 
L 763.469606 117.653433 
L 793.586476 94.511071 
L 823.703346 75.612418 
L 853.820216 61.727001 
L 883.937086 51.327084 
L 914.053956 44.910596 
L 944.170826 40.859268 
L 974.287697 38.539373 
" clip-path="url(#pa0d86b4faa)" style="fill: none; stroke: #d62728; stroke-width: 1.5; stroke-linecap: square"/>
   </g>
   <g id="line2d_67">
    <path d="M 582.768385 335.734828 
L 612.885255 281.007952 
L 643.002125 194.50418 
L 673.118995 119.905428 
L 703.235865 67.532396 
L 733.352736 45.544323 
L 763.469606 37.667998 
L 793.586476 36.128946 
L 823.703346 35.823399 
L 853.820216 35.7555 
L 883.937086 35.7555 
L 914.053956 35.7555 
L 944.170826 35.7555 
L 974.287697 35.7555 
" clip-path="url(#pa0d86b4faa)" style="fill: none; stroke: #9467bd; stroke-width: 1.5; stroke-linecap: square"/>
   </g>
   <g id="line2d_68">
    <path d="M 582.768385 293.625915 
L 612.885255 195.658469 
L 643.002125 109.075481 
L 673.118995 56.317686 
L 703.235865 39.772878 
L 733.352736 36.434493 
L 763.469606 35.778133 
L 793.586476 35.7555 
L 823.703346 35.7555 
L 853.820216 35.7555 
L 883.937086 35.7555 
L 914.053956 35.7555 
L 944.170826 35.7555 
L 974.287697 35.7555 
" clip-path="url(#pa0d86b4faa)" style="fill: none; stroke: #8c564b; stroke-width: 1.5; stroke-linecap: square"/>
   </g>
   <g id="line2d_69">
    <path d="M 582.768385 375.173034 
L 612.885255 373.882946 
L 643.002125 362.860619 
L 673.118995 313.792022 
L 703.235865 212.271177 
L 733.352736 110.716382 
L 763.469606 54.495721 
L 793.586476 38.629906 
L 823.703346 35.981831 
L 853.820216 35.78945 
L 883.937086 35.7555 
L 914.053956 35.7555 
L 944.170826 35.7555 
L 974.287697 35.7555 
" clip-path="url(#pa0d86b4faa)" style="fill: none; stroke: #e377c2; stroke-width: 1.5; stroke-linecap: square"/>
   </g>
   <g id="line2d_70">
    <path d="M 582.768385 316.519312 
L 612.885255 176.307154 
L 643.002125 66.129143 
L 673.118995 38.494107 
L 703.235865 35.823399 
L 733.352736 35.7555 
L 763.469606 35.7555 
L 793.586476 35.7555 
L 823.703346 35.7555 
L 853.820216 35.7555 
L 883.937086 35.7555 
L 914.053956 35.7555 
L 944.170826 35.7555 
L 974.287697 35.7555 
" clip-path="url(#pa0d86b4faa)" style="fill: none; stroke: #7f7f7f; stroke-width: 1.5; stroke-linecap: square"/>
   </g>
   <g id="line2d_71">
    <path d="M 582.768385 356.625195 
L 612.885255 254.595105 
L 643.002125 101.697085 
L 673.118995 42.534118 
L 703.235865 36.004464 
L 733.352736 35.7555 
L 763.469606 35.7555 
L 793.586476 35.7555 
L 823.703346 35.7555 
L 853.820216 35.7555 
L 883.937086 35.7555 
L 914.053956 35.7555 
L 944.170826 35.7555 
L 974.287697 35.7555 
" clip-path="url(#pa0d86b4faa)" style="fill: none; stroke: #bcbd22; stroke-width: 1.5; stroke-linecap: square"/>
   </g>
   <g id="line2d_72">
    <path d="M 582.768385 373.317119 
L 612.885255 330.268931 
L 643.002125 171.938963 
L 673.118995 54.246756 
L 703.235865 36.355278 
L 733.352736 35.766817 
L 763.469606 35.7555 
L 793.586476 35.7555 
L 823.703346 35.7555 
L 853.820216 35.7555 
L 883.937086 35.7555 
L 914.053956 35.7555 
L 944.170826 35.7555 
L 974.287697 35.7555 
" clip-path="url(#pa0d86b4faa)" style="fill: none; stroke: #17becf; stroke-width: 1.5; stroke-linecap: square"/>
   </g>
   <g id="patch_6">
    <path d="M 563.192419 375.25225 
L 563.192419 35.7555 
" style="fill: none; stroke: #030303; stroke-width: 1.5; stroke-linejoin: miter; stroke-linecap: square"/>
   </g>
   <g id="patch_7">
    <path d="M 563.192419 375.25225 
L 993.863662 375.25225 
" style="fill: none; stroke: #030303; stroke-width: 1.5; stroke-linejoin: miter; stroke-linecap: square"/>
   </g>
   <g id="text_30">
    <!-- Power vs Effect Size -->
    <g style="fill: #030303" transform="translate(716.488978 16.318125) scale(0.12 -0.12)">
     <use xlink:href="#DejaVuSerif-50"/>
     <use xlink:href="#DejaVuSerif-6f" transform="translate(63.285156 0)"/>
     <use xlink:href="#DejaVuSerif-77" transform="translate(123.490234 0)"/>
     <use xlink:href="#DejaVuSerif-65" transform="translate(209.085938 0)"/>
     <use xlink:href="#DejaVuSerif-72" transform="translate(268.265625 0)"/>
     <use xlink:href="#DejaVuSerif-20" transform="translate(316.068359 0)"/>
     <use xlink:href="#DejaVuSerif-76" transform="translate(347.855469 0)"/>
     <use xlink:href="#DejaVuSerif-73" transform="translate(404.349609 0)"/>
     <use xlink:href="#DejaVuSerif-20" transform="translate(455.667969 0)"/>
     <use xlink:href="#DejaVuSerif-45" transform="translate(487.455078 0)"/>
     <use xlink:href="#DejaVuSerif-66" transform="translate(560.453125 0)"/>
     <use xlink:href="#DejaVuSerif-66" transform="translate(597.464844 0)"/>
     <use xlink:href="#DejaVuSerif-65" transform="translate(634.476562 0)"/>
     <use xlink:href="#DejaVuSerif-63" transform="translate(693.65625 0)"/>
     <use xlink:href="#DejaVuSerif-74" transform="translate(749.662109 0)"/>
     <use xlink:href="#DejaVuSerif-20" transform="translate(789.847656 0)"/>
     <use xlink:href="#DejaVuSerif-53" transform="translate(821.634766 0)"/>
     <use xlink:href="#DejaVuSerif-69" transform="translate(890.140625 0)"/>
     <use xlink:href="#DejaVuSerif-7a" transform="translate(922.123047 0)"/>
     <use xlink:href="#DejaVuSerif-65" transform="translate(974.808594 0)"/>
    </g>
    <!-- For All Sample Sizes -->
    <g style="fill: #030303" transform="translate(715.813978 29.7555) scale(0.12 -0.12)">
     <use xlink:href="#DejaVuSerif-46"/>
     <use xlink:href="#DejaVuSerif-6f" transform="translate(63.884766 0)"/>
     <use xlink:href="#DejaVuSerif-72" transform="translate(124.089844 0)"/>
     <use xlink:href="#DejaVuSerif-20" transform="translate(171.892578 0)"/>
     <use xlink:href="#DejaVuSerif-41" transform="translate(203.679688 0)"/>
     <use xlink:href="#DejaVuSerif-6c" transform="translate(275.896484 0)"/>
     <use xlink:href="#DejaVuSerif-6c" transform="translate(307.878906 0)"/>
     <use xlink:href="#DejaVuSerif-20" transform="translate(339.861328 0)"/>
     <use xlink:href="#DejaVuSerif-53" transform="translate(371.648438 0)"/>
     <use xlink:href="#DejaVuSerif-61" transform="translate(440.154297 0)"/>
     <use xlink:href="#DejaVuSerif-6d" transform="translate(499.773438 0)"/>
     <use xlink:href="#DejaVuSerif-70" transform="translate(594.597656 0)"/>
     <use xlink:href="#DejaVuSerif-6c" transform="translate(658.611328 0)"/>
     <use xlink:href="#DejaVuSerif-65" transform="translate(690.59375 0)"/>
     <use xlink:href="#DejaVuSerif-20" transform="translate(749.773438 0)"/>
     <use xlink:href="#DejaVuSerif-53" transform="translate(781.560547 0)"/>
     <use xlink:href="#DejaVuSerif-69" transform="translate(850.066406 0)"/>
     <use xlink:href="#DejaVuSerif-7a" transform="translate(882.048828 0)"/>
     <use xlink:href="#DejaVuSerif-65" transform="translate(934.734375 0)"/>
     <use xlink:href="#DejaVuSerif-73" transform="translate(993.914062 0)"/>
    </g>
   </g>
   <g id="legend_1">
    <g id="patch_8">
     <path d="M 912.290225 370.25225 
L 986.863662 370.25225 
Q 988.863662 370.25225 988.863662 368.25225 
L 988.863662 222.471 
Q 988.863662 220.471 986.863662 220.471 
L 912.290225 220.471 
Q 910.290225 220.471 910.290225 222.471 
L 910.290225 368.25225 
Q 910.290225 370.25225 912.290225 370.25225 
z
" style="fill: #ffffff; opacity: 0.8; stroke: #cccccc; stroke-linejoin: miter"/>
    </g>
    <g id="line2d_73">
     <path d="M 914.290225 228.569437 
L 924.290225 228.569437 
L 934.290225 228.569437 
" style="fill: none; stroke: #1f77b4; stroke-width: 1.5; stroke-linecap: square"/>
    </g>
    <g id="text_31">
     <!-- N = 3 -->
     <g style="fill: #030303" transform="translate(942.290225 232.069437) scale(0.1 -0.1)">
      <defs>
       <path id="DejaVuSerif-3d" d="M 678 2894 
L 4684 2894 
L 4684 2394 
L 678 2394 
L 678 2894 
z
M 678 1619 
L 4684 1619 
L 4684 1119 
L 678 1119 
L 678 1619 
z
" transform="scale(0.015625)"/>
      </defs>
      <use xlink:href="#DejaVuSerif-4e"/>
      <use xlink:href="#DejaVuSerif-20" transform="translate(87.5 0)"/>
      <use xlink:href="#DejaVuSerif-3d" transform="translate(119.287109 0)"/>
      <use xlink:href="#DejaVuSerif-20" transform="translate(203.076172 0)"/>
      <use xlink:href="#DejaVuSerif-33" transform="translate(234.863281 0)"/>
     </g>
    </g>
    <g id="line2d_74">
     <path d="M 914.290225 243.247563 
L 924.290225 243.247563 
L 934.290225 243.247563 
" style="fill: none; stroke: #ff7f0e; stroke-width: 1.5; stroke-linecap: square"/>
    </g>
    <g id="text_32">
     <!-- N = 5 -->
     <g style="fill: #030303" transform="translate(942.290225 246.747563) scale(0.1 -0.1)">
      <use xlink:href="#DejaVuSerif-4e"/>
      <use xlink:href="#DejaVuSerif-20" transform="translate(87.5 0)"/>
      <use xlink:href="#DejaVuSerif-3d" transform="translate(119.287109 0)"/>
      <use xlink:href="#DejaVuSerif-20" transform="translate(203.076172 0)"/>
      <use xlink:href="#DejaVuSerif-35" transform="translate(234.863281 0)"/>
     </g>
    </g>
    <g id="line2d_75">
     <path d="M 914.290225 257.925687 
L 924.290225 257.925687 
L 934.290225 257.925687 
" style="fill: none; stroke: #2ca02c; stroke-width: 1.5; stroke-linecap: square"/>
    </g>
    <g id="text_33">
     <!-- N = 7 -->
     <g style="fill: #030303" transform="translate(942.290225 261.425687) scale(0.1 -0.1)">
      <defs>
       <path id="DejaVuSerif-37" d="M 3609 4347 
L 1784 0 
L 1319 0 
L 3059 4153 
L 903 4153 
L 903 3578 
L 538 3578 
L 538 4666 
L 3609 4666 
L 3609 4347 
z
" transform="scale(0.015625)"/>
      </defs>
      <use xlink:href="#DejaVuSerif-4e"/>
      <use xlink:href="#DejaVuSerif-20" transform="translate(87.5 0)"/>
      <use xlink:href="#DejaVuSerif-3d" transform="translate(119.287109 0)"/>
      <use xlink:href="#DejaVuSerif-20" transform="translate(203.076172 0)"/>
      <use xlink:href="#DejaVuSerif-37" transform="translate(234.863281 0)"/>
     </g>
    </g>
    <g id="line2d_76">
     <path d="M 914.290225 272.603813 
L 924.290225 272.603813 
L 934.290225 272.603813 
" style="fill: none; stroke: #d62728; stroke-width: 1.5; stroke-linecap: square"/>
    </g>
    <g id="text_34">
     <!-- N = 9 -->
     <g style="fill: #030303" transform="translate(942.290225 276.103813) scale(0.1 -0.1)">
      <defs>
       <path id="DejaVuSerif-39" d="M 2994 2091 
Q 2784 1856 2512 1740 
Q 2241 1625 1900 1625 
Q 1206 1625 804 2044 
Q 403 2463 403 3188 
Q 403 3897 839 4323 
Q 1275 4750 2003 4750 
Q 2794 4750 3217 4161 
Q 3641 3572 3641 2478 
Q 3641 1253 3137 581 
Q 2634 -91 1722 -91 
Q 1475 -91 1203 -44 
Q 931 3 647 97 
L 647 872 
L 997 872 
Q 1038 556 1241 387 
Q 1444 219 1784 219 
Q 2391 219 2687 676 
Q 2984 1134 2994 2091 
z
M 1978 4441 
Q 1534 4441 1298 4117 
Q 1063 3794 1063 3188 
Q 1063 2581 1298 2256 
Q 1534 1931 1978 1931 
Q 2422 1931 2658 2245 
Q 2894 2559 2894 3150 
Q 2894 3772 2656 4106 
Q 2419 4441 1978 4441 
z
" transform="scale(0.015625)"/>
      </defs>
      <use xlink:href="#DejaVuSerif-4e"/>
      <use xlink:href="#DejaVuSerif-20" transform="translate(87.5 0)"/>
      <use xlink:href="#DejaVuSerif-3d" transform="translate(119.287109 0)"/>
      <use xlink:href="#DejaVuSerif-20" transform="translate(203.076172 0)"/>
      <use xlink:href="#DejaVuSerif-39" transform="translate(234.863281 0)"/>
     </g>
    </g>
    <g id="line2d_77">
     <path d="M 914.290225 287.281938 
L 924.290225 287.281938 
L 934.290225 287.281938 
" style="fill: none; stroke: #9467bd; stroke-width: 1.5; stroke-linecap: square"/>
    </g>
    <g id="text_35">
     <!-- N = 20 -->
     <g style="fill: #030303" transform="translate(942.290225 290.781938) scale(0.1 -0.1)">
      <use xlink:href="#DejaVuSerif-4e"/>
      <use xlink:href="#DejaVuSerif-20" transform="translate(87.5 0)"/>
      <use xlink:href="#DejaVuSerif-3d" transform="translate(119.287109 0)"/>
      <use xlink:href="#DejaVuSerif-20" transform="translate(203.076172 0)"/>
      <use xlink:href="#DejaVuSerif-32" transform="translate(234.863281 0)"/>
      <use xlink:href="#DejaVuSerif-30" transform="translate(298.486328 0)"/>
     </g>
    </g>
    <g id="line2d_78">
     <path d="M 914.290225 301.960062 
L 924.290225 301.960062 
L 934.290225 301.960062 
" style="fill: none; stroke: #8c564b; stroke-width: 1.5; stroke-linecap: square"/>
    </g>
    <g id="text_36">
     <!-- N = 30 -->
     <g style="fill: #030303" transform="translate(942.290225 305.460062) scale(0.1 -0.1)">
      <use xlink:href="#DejaVuSerif-4e"/>
      <use xlink:href="#DejaVuSerif-20" transform="translate(87.5 0)"/>
      <use xlink:href="#DejaVuSerif-3d" transform="translate(119.287109 0)"/>
      <use xlink:href="#DejaVuSerif-20" transform="translate(203.076172 0)"/>
      <use xlink:href="#DejaVuSerif-33" transform="translate(234.863281 0)"/>
      <use xlink:href="#DejaVuSerif-30" transform="translate(298.486328 0)"/>
     </g>
    </g>
    <g id="line2d_79">
     <path d="M 914.290225 316.638188 
L 924.290225 316.638188 
L 934.290225 316.638188 
" style="fill: none; stroke: #e377c2; stroke-width: 1.5; stroke-linecap: square"/>
    </g>
    <g id="text_37">
     <!-- N = 45 -->
     <g style="fill: #030303" transform="translate(942.290225 320.138188) scale(0.1 -0.1)">
      <use xlink:href="#DejaVuSerif-4e"/>
      <use xlink:href="#DejaVuSerif-20" transform="translate(87.5 0)"/>
      <use xlink:href="#DejaVuSerif-3d" transform="translate(119.287109 0)"/>
      <use xlink:href="#DejaVuSerif-20" transform="translate(203.076172 0)"/>
      <use xlink:href="#DejaVuSerif-34" transform="translate(234.863281 0)"/>
      <use xlink:href="#DejaVuSerif-35" transform="translate(298.486328 0)"/>
     </g>
    </g>
    <g id="line2d_80">
     <path d="M 914.290225 331.316312 
L 924.290225 331.316312 
L 934.290225 331.316312 
" style="fill: none; stroke: #7f7f7f; stroke-width: 1.5; stroke-linecap: square"/>
    </g>
    <g id="text_38">
     <!-- N = 65 -->
     <g style="fill: #030303" transform="translate(942.290225 334.816312) scale(0.1 -0.1)">
      <use xlink:href="#DejaVuSerif-4e"/>
      <use xlink:href="#DejaVuSerif-20" transform="translate(87.5 0)"/>
      <use xlink:href="#DejaVuSerif-3d" transform="translate(119.287109 0)"/>
      <use xlink:href="#DejaVuSerif-20" transform="translate(203.076172 0)"/>
      <use xlink:href="#DejaVuSerif-36" transform="translate(234.863281 0)"/>
      <use xlink:href="#DejaVuSerif-35" transform="translate(298.486328 0)"/>
     </g>
    </g>
    <g id="line2d_81">
     <path d="M 914.290225 345.994438 
L 924.290225 345.994438 
L 934.290225 345.994438 
" style="fill: none; stroke: #bcbd22; stroke-width: 1.5; stroke-linecap: square"/>
    </g>
    <g id="text_39">
     <!-- N = 80 -->
     <g style="fill: #030303" transform="translate(942.290225 349.494438) scale(0.1 -0.1)">
      <use xlink:href="#DejaVuSerif-4e"/>
      <use xlink:href="#DejaVuSerif-20" transform="translate(87.5 0)"/>
      <use xlink:href="#DejaVuSerif-3d" transform="translate(119.287109 0)"/>
      <use xlink:href="#DejaVuSerif-20" transform="translate(203.076172 0)"/>
      <use xlink:href="#DejaVuSerif-38" transform="translate(234.863281 0)"/>
      <use xlink:href="#DejaVuSerif-30" transform="translate(298.486328 0)"/>
     </g>
    </g>
    <g id="line2d_82">
     <path d="M 914.290225 360.672562 
L 924.290225 360.672562 
L 934.290225 360.672562 
" style="fill: none; stroke: #17becf; stroke-width: 1.5; stroke-linecap: square"/>
    </g>
    <g id="text_40">
     <!-- N = 100 -->
     <g style="fill: #030303" transform="translate(942.290225 364.172562) scale(0.1 -0.1)">
      <use xlink:href="#DejaVuSerif-4e"/>
      <use xlink:href="#DejaVuSerif-20" transform="translate(87.5 0)"/>
      <use xlink:href="#DejaVuSerif-3d" transform="translate(119.287109 0)"/>
      <use xlink:href="#DejaVuSerif-20" transform="translate(203.076172 0)"/>
      <use xlink:href="#DejaVuSerif-31" transform="translate(234.863281 0)"/>
      <use xlink:href="#DejaVuSerif-30" transform="translate(298.486328 0)"/>
      <use xlink:href="#DejaVuSerif-30" transform="translate(362.109375 0)"/>
     </g>
    </g>
   </g>
  </g>
 </g>
 <defs>
  <clipPath id="pf9f10dd496">
   <rect x="58.020625" y="35.7555" width="430.671243" height="339.49675"/>
  </clipPath>
  <clipPath id="pa0d86b4faa">
   <rect x="563.192419" y="35.7555" width="430.671243" height="339.49675"/>
  </clipPath>
 </defs>
</svg>
