<?xml version="1.0" encoding="UTF-8"?><svg id="a" xmlns="http://www.w3.org/2000/svg" width="324" height="324" viewBox="0 0 324 324"><polygon points="17.52864 9.89222 17.52864 74.65596 114.67765 74.65596 114.67765 268.95736 179.4459 268.95736 179.4459 74.65596 276.59489 74.65596 276.59489 9.89222 17.52864 9.89222" style="fill:#acc2d9;"/><polygon points="17.52864 9.89222 17.52864 74.65596 114.67765 74.65596 114.67765 268.95736 179.4459 268.95736 179.4459 74.65596 276.59489 74.65596 276.59489 9.89222 17.52864 9.89222" style="fill:none; stroke:#000; stroke-width:2.25px;"/><path d="M203.00398,289.98378l6.80481,12.53261c-45.23678-8.23704-67.189-48.40653-65.86798-120.49825l-8.07701,5.2886c1.93271-7.94424,5.66537-16.11433,11.19796-24.51026,5.59388,8.29832,9.79298,16.00764,12.59389,23.13137l-8.56842-4.2377c7.84209,70.8513,27.63121,103.18208,59.35936,97.00259l-7.44262,11.29104Z" style="fill:green;"/><path d="M146.47164,82.01914l-11.34438,7.41311c4.6417-20.49502-6.251-34.54384-32.68148-42.13739l2.79298,8.99856c-5.44408-3.65208-12.52807-8.32103-21.24404-14.01251,8.95088-5.51104,17.68502-8.60929,26.19217-9.30157l-6.6187,7.25762c31.0495,1.56501,49.50966,17.77241,55.38271,48.62331l-12.47925-6.84113Z" style="fill:#333;"/><path d="M147.65079,82.01914l-12.48381,6.84113c5.87419-30.8509,24.33889-47.0583,55.38384-48.62331l-6.61869-7.25762c8.51169.69228,17.24013,3.79053,26.19557,9.30157-8.71937,5.69148-15.79996,10.36042-21.24859,14.01251l2.79752-8.99856c-26.43049,7.59355-37.32659,21.64238-32.68149,42.13739l-11.34436-7.41311Z" style="fill:#333;"/><path d="M41.21042,24.06475h6.09097l15.13491,39.71667h-5.5814l-3.6169-10.18679h-17.90178l-3.6169,10.18679h-5.66992l15.16101-39.71667ZM44.2474,29.36242l-7.29282,19.76301h14.60266l-7.30984-19.76301Z" style="fill:#fff;"/><path d="M236.46967,24.06475h13.72991c4.09583,0,7.24744.85117,9.46499,2.55351,2.21645,1.70234,3.32412,4.12309,3.32412,7.26105,0,2.43433-.56745,4.37159-1.70234,5.80837-1.13489,1.4311-2.80204,2.32653-5.00488,2.6772,2.64657.56745,4.69958,1.75567,6.16245,3.56017,1.46741,1.79994,2.1983,4.04702,2.1983,6.74238,0,3.54654-1.20527,6.28617-3.61691,8.21889s-5.84808,2.8951-10.29801,2.8951h-14.25763V24.06475ZM241.83885,28.48518v11.96402h7.95673c2.62499,0,4.57476-.48687,5.85605-1.47083,1.29036-.98508,1.93383-2.49222,1.93383-4.50893,0-2.00421-.64347-3.50227-1.93383-4.4953-1.28129-.99303-3.23105-1.48896-5.85605-1.48896h-7.95673ZM241.83885,44.81625v14.54932h8.62177c2.89057,0,5.02756-.5981,6.41895-1.7954,1.39704-1.20071,2.09273-3.02789,2.09273-5.49175,0-2.48768-.6957-4.31372-2.09273-5.48833-1.39139-1.18369-3.52839-1.77384-6.41895-1.77384h-8.62177Z" style="fill:red;"/><path d="M289.18426,234.0061c-.2077-.2565-.75811-.12371-.91247-.08852-1.25064.2928-2.7975,2.86447-3.01992,5.67446-.14983,1.8442.28826,3.64867,2.10181,7.04427,2.07005,3.72812,4.52142,7.22584,7.32346,10.43532,4.77903,5.79022,5.49741,5.88782,6.31793,8.14399,1.58659,4.3852.50504,8.50715,0,10.43645-.70134,2.65111-1.93837,7.36318-5.40435,9.24257-1.18369.59467-2.28793,1.33009-3.29457,2.19487-1.21434,1.06341-2.01217,1.77725-2.19376,2.93029-.23039,1.51168.49596,3.0052,1.83059,3.75424,1.71141.74107,3.81322-.9533,5.76298-2.56601,3.11188-2.40368,5.56889-5.55075,7.14187-9.15062,1.9906-4.38409,2.50017-9.30045,1.46288-14.00456-1.07702-4.44197-3.4444-7.44717-5.21711-9.69993-2.70898-3.43985-3.84387-3.4217-7.86933-8.41863-1.60928-2.09159-3.01882-4.33074-4.21158-6.67997-1.44927-2.60684-1.7466-3.5295-1.46288-4.48621.18612-.63441,1.05544-2.6999,1.55594-3.84389.07945-.18612.2928-.66958.08852-.91812Z" style="fill:#ffcfd4;"/><path d="M289.18426,234.0061c-.2077-.2565-.75811-.12371-.91247-.08852-1.25064.2928-2.7975,2.86447-3.01992,5.67446-.14983,1.8442.28826,3.64867,2.10181,7.04427,2.07005,3.72812,4.52142,7.22584,7.32346,10.43532,4.77903,5.79022,5.49741,5.88782,6.31793,8.14399,1.58659,4.3852.50504,8.50715,0,10.43645-.70134,2.65111-1.93837,7.36318-5.40435,9.24257-1.18369.59467-2.28793,1.33009-3.29457,2.19487-1.21434,1.06341-2.01217,1.77725-2.19376,2.93029-.23039,1.51168.49596,3.0052,1.83059,3.75424,1.71141.74107,3.81322-.9533,5.76298-2.56601,3.11188-2.40368,5.56889-5.55075,7.14187-9.15062,1.9906-4.38409,2.50017-9.30045,1.46288-14.00456-1.07702-4.44197-3.4444-7.44717-5.21711-9.69993-2.70898-3.43985-3.84387-3.4217-7.86933-8.41863-1.60928-2.09159-3.01882-4.33074-4.21158-6.67997-1.44927-2.60684-1.7466-3.5295-1.46288-4.48621.18612-.63441,1.05544-2.6999,1.55594-3.84389.07945-.18612.2928-.66958.08852-.91812Z" style="fill:none; stroke:#000; stroke-linejoin:round; stroke-width:1.2903px;"/><path d="M219.35324,290.75068c0,4.3852,3.11642,7.50615,6.13523,10.52497,3.14364,3.14707,6.28161,5.0446,10.33886,7.14187,11.24676,5.80725,19.21712,9.92577,30.11434,9.69992,3.13456.06584,6.25894-.39947,9.24257-1.37435,10.28097-3.542,14.84665-12.63021,15.46744-13.9115,2.56712-5.41342,3.33884-11.50439,2.19487-17.38766-.82959-4.73366-2.91668-9.15858-6.03763-12.81179-8.25065-9.41507-20.92512-9.27321-23.61595-9.24711-8.19278.09306-14.43468,3.20494-23.61141,7.77969-3.18224,1.62289-6.26802,3.42282-9.24257,5.39981-4.74838,3.07669-5.95818,4.35798-6.40645,4.85051-1.5775,1.73753-4.57929,5.03553-4.57929,9.33563Z" style="fill:#fff;"/><path d="M219.35324,290.75068c0,4.3852,3.11642,7.50615,6.13523,10.52497,3.14364,3.14707,6.28161,5.0446,10.33886,7.14187,11.24676,5.80725,19.21712,9.92577,30.11434,9.69992,3.13456.06584,6.25894-.39947,9.24257-1.37435,10.28097-3.542,14.84665-12.63021,15.46744-13.9115,2.56712-5.41342,3.33884-11.50439,2.19487-17.38766-.82959-4.73366-2.91668-9.15858-6.03763-12.81179-8.25065-9.41507-20.92512-9.27321-23.61595-9.24711-8.19278.09306-14.43468,3.20494-23.61141,7.77969-3.18224,1.62289-6.26802,3.42282-9.24257,5.39981-4.74838,3.07669-5.95818,4.35798-6.40645,4.85051-1.5775,1.73753-4.57929,5.03553-4.57929,9.33563Z" style="fill:none; stroke:#000; stroke-linejoin:round; stroke-width:1.2903px;"/><path d="M242.02044,271.62207c.04425-.68319.57991-7.65143,6.34743-11.10036,6.18062-3.48525,14.00004-1.65808,17.99938,4.20703,2.9927,4.59633,3.0052,11.25928-.97599,15.67967-4.47262,4.96969-11.2241,4.05157-11.77793,3.96758" style="fill:#fff;"/><path d="M242.02044,271.62207c.04425-.68319.57991-7.65143,6.34743-11.10036,6.18062-3.48525,14.00004-1.65808,17.99938,4.20703,2.9927,4.59633,3.0052,11.25928-.97599,15.67967-4.47262,4.96969-11.2241,4.05157-11.77793,3.96758" style="fill:none; stroke:#000; stroke-linejoin:round; stroke-width:1.2903px;"/><path d="M242.02044,309.68974c.04425.68662.57991,7.65598,6.34743,11.10492,6.18062,3.48413,14.00004,1.65354,17.99938-4.20704,2.9927-4.59744,3.0052-11.26039-.97599-15.68421-4.47262-4.96515-11.2241-4.04814-11.77793-3.96416" style="fill:#fff;"/><path d="M242.02044,309.68974c.04425.68662.57991,7.65598,6.34743,11.10492,6.18062,3.48413,14.00004,1.65354,17.99938-4.20704,2.9927-4.59744,3.0052-11.26039-.97599-15.68421-4.47262-4.96515-11.2241-4.04814-11.77793-3.96416" style="fill:none; stroke:#000; stroke-linejoin:round; stroke-width:1.2903px;"/><path d="M252.30028,262.01522c-.41651,1.14852,4.434,2.17672,6.77416,6.49951,2.92122,5.39074-.42558,11.57023,1.37435,12.35445,1.20184.52318,3.36949-1.93272,4.30011-3.298.1464-.21335,3.62145-5.4838.91812-10.52386-1.80447-3.35586-5.15581-4.3852-6.95575-4.94357-2.57165-.78876-6.06032-1.04183-6.41099-.08852Z" style="fill:#ffcfd4;"/><path d="M252.30028,319.86404c-.41651-1.15304,4.434-2.17672,6.77416-6.49951,2.92122-5.39527-.42558-11.57023,1.37435-12.35556,1.20184-.52318,3.36949,1.93272,4.30011,3.29457.1464.21678,3.62145,5.4838.91812,10.52386-1.80447,3.36041-5.15581,4.38863-6.95575,4.94357-2.57165.78876-6.06032,1.04526-6.41099.09306Z" style="fill:#ffcfd4;"/><path d="M222.31416,290.35686c.35069,1.31648,1.33464,2.37081,2.62047,2.82362.70023.3416,1.53438.26557,2.16311-.19974.74108-.5493,1.1746-3.53293.0976-4.51688-.47892-.3904-1.09063-.59013-1.70687-.55041-1.42771.17362-2.64203,1.10878-3.17431,2.4434Z"/><path d="M222.31416,290.35686c.35069,1.31648,1.33464,2.37081,2.62047,2.82362.70023.3416,1.53438.26557,2.16311-.19974.74108-.5493,1.1746-3.53293.0976-4.51688-.47892-.3904-1.09063-.59013-1.70687-.55041-1.42771.17362-2.64203,1.10878-3.17431,2.4434Z" style="fill:none; stroke:#000; stroke-linejoin:round; stroke-width:1.2903px;"/><path d="M227.16469,267.67153c.87728,1.2461,1.58659,2.60231,2.11885,4.02999.51865,1.4538.85571,2.96548,1.0021,4.50438.20429,1.5514.12825,3.12549-.22129,4.65078-.38132,1.51511-1.09972,2.93029-2.09729,4.13102l-.13277-.06241c.28372-1.51964.59808-2.93372.79781-4.36595.25195-1.42315.41651-2.85538.48348-4.30011-.01817-2.96205-.72747-5.87419-2.07573-8.51169l.12484-.07602Z"/><path d="M220.40414,269.4272c2.4423,1.49464,4.37047,3.70201,5.51899,6.32589.64688,1.30398,1.02822,2.72259,1.12126,4.17639.0715,1.44927-.20768,2.8951-.81484,4.21612l-.14186-.02611c-.1691-1.42315-.27919-2.7487-.50162-4.05722-.15095-1.31194-.40744-2.61027-.75811-3.8836-.86819-2.57962-2.42867-4.87209-4.50779-6.63119l.08397-.12028Z"/><path d="M216.40024,275.76217c1.20186,0,2.39462.1952,3.52951.57652,1.15645.41651,2.23461,1.03276,3.17884,1.82262.51409.40744.9567.89886,1.32102,1.44473.36316.57198.58447,1.21888.64234,1.893.1237,1.29036-.27465,2.57962-1.10426,3.57719l-.13731-.05787c.09304-1.10313.02269-2.21191-.20315-3.29346-.19066-1.00664-.64349-1.93726-1.31762-2.70898-.76606-.81487-1.66602-1.49807-2.66359-2.0031-1.0282-.52772-2.12338-.89997-3.25828-1.10424l.01249-.1464Z"/><path d="M214.94646,304.45791c2.37192.36882,4.77903-.38132,6.51654-2.03486.75357-.83756,1.36188-1.7954,1.80903-2.83269.50955-1.07248.91812-2.18922,1.22342-3.33773l.1464-.00454c.42558,1.26314.42558,2.62842-.01363,3.89267-.46076,1.26768-1.29378,2.37192-2.38894,3.16521-1.03276.81941-2.25617,1.36528-3.56015,1.58205-1.2586.19066-2.54897.09306-3.76331-.28826l.03065-.14186Z"/><path d="M218.82552,313.01043c2.91666-1.33463,5.27156-3.65321,6.65047-6.55285.54021-1.43676.85117-2.94844.91699-4.48169.09306-1.58316.0227-3.17429-.21678-4.74384l.13732-.05334c.97034,1.42315,1.50714,3.09938,1.54233,4.82329.00454,1.74206-.4517,3.45801-1.32555,4.96515-.82848,1.4901-1.9418,2.80204-3.2753,3.85748-1.31307,1.01914-2.79297,1.80447-4.37615,2.32312l-.05334-.13732Z"/><path d="M227.74123,314.85009c.59354-1.47649,1.04183-3.01085,1.33009-4.57586.30075-1.54686.42898-3.11642.39381-4.68939-.10669-1.55251-.28826-3.09938-.5493-4.63717-.20427-1.54344-.50162-3.07669-.74902-4.70865l.13277-.05334c.97034,1.3437,1.67056,2.86899,2.05188,4.4828.35523,1.62178.44829,3.28893.28372,4.93793-.11008,1.63993-.39381,3.26281-.85117,4.84144-.46985,1.55594-1.11219,3.054-1.91456,4.46808l-.12823-.06584Z"/><path d="M236.37661,296.83822c-1.38343,0-2.51378.09649-2.51378,1.23592.54133,2.74417,4.46921,2.74417,5.00941,0,0-1.13943-1.11221-1.23592-2.49563-1.23592Z"/><path d="M236.37661,296.83822c-1.38343,0-2.51378.09649-2.51378,1.23592.54133,2.74417,4.46921,2.74417,5.00941,0,0-1.13943-1.11221-1.23592-2.49563-1.23592Z" style="fill:none; stroke:#000; stroke-linejoin:round; stroke-width:1.2903px;"/><path d="M237.63975,299.192c-.38134.18612-.82848.04426-1.00212-.31548-.1725-.35864-.00339-.79783.37793-.98396.38018-.18159.82847-.03973,1.00098.31548.17364.35864.00454.79783-.37678.98396Z" style="fill:#fff;"/><path d="M237.00647,297.88005c.18612-.10667.39836-.15547.61171-.15094.24855.02158.46531.17251.57654.39382.21222.46188-.02724,1.00664-.51072,1.15758-.20313.06241-.42103.07038-.62871.01815-.22699-.04083-.42558-.16908-.55498-.35521-.12823-.20881-.11916-.47438.01363-.67866.12823-.16798.29733-.30076.49253-.38475ZM237.01895,297.9107c-.16342.08852-.27463.25307-.29165.44262-.01363.15094.00454.31095.0488.45734.03971.16798.15435.3053.31436.37225.17251.05787.36317.02611.50504-.07945.2667-.17816.36769-.51411.244-.80691-.06243-.13732-.16342-.25307-.2928-.33706-.15435-.10667-.3541-.12482-.52774-.0488Z" style="fill:#fff;"/><path d="M236.37661,284.02532c-1.38343,0-2.51378-.09649-2.51378-1.23592.54133-2.74417,4.46921-2.74417,5.00941,0,0,1.13943-1.11221,1.23592-2.49563,1.23592Z"/><path d="M236.37661,284.02532c-1.38343,0-2.51378-.09649-2.51378-1.23592.54133-2.74417,4.46921-2.74417,5.00941,0,0,1.13943-1.11221,1.23592-2.49563,1.23592Z" style="fill:none; stroke:#000; stroke-linejoin:round; stroke-width:1.2903px;"/><path d="M238.01654,282.65551c-.17251.35521-.6208.49707-1.00098.31548-.38132-.18612-.55042-.62532-.37793-.98396.17364-.35974.62078-.50161,1.00212-.31548.38132.18612.55042.62532.37678.98396Z" style="fill:#fff;"/><path d="M237.01895,282.95284c.17364.07602.37339.05787.52774-.0488.12938-.08399.23037-.19974.2928-.33706.1237-.29169.0227-.62875-.244-.80691-.14186-.10556-.33252-.13732-.50504-.07945-.16001.06695-.27465.20427-.31436.37225-.04426.1464-.06243.30641-.0488.45734.01702.19066.12823.3541.29165.44262ZM237.00647,282.9846c-.1952-.0851-.3643-.21788-.49253-.38586-.13279-.20427-.14186-.46985-.01363-.67866.12939-.18612.32799-.31437.55498-.3541.20768-.05334.42558-.04537.62871.01704.48348.15094.72294.6957.51072,1.15758-.11123.22131-.32799.37225-.57654.39382-.21335.00454-.42558-.04426-.61171-.14983Z" style="fill:#fff;"/></svg>