<?xml version="1.0" encoding="utf-8" standalone="no"?>
<!DOCTYPE svg PUBLIC "-//W3C//DTD SVG 1.1//EN"
  "http://www.w3.org/Graphics/SVG/1.1/DTD/svg11.dtd">
<svg xmlns:xlink="http://www.w3.org/1999/xlink" width="713.166724pt" height="388.825938pt" viewBox="0 0 713.166724 388.825938" xmlns="http://www.w3.org/2000/svg" version="1.1">
 <metadata>
  <rdf:RDF xmlns:dc="http://purl.org/dc/elements/1.1/" xmlns:cc="http://creativecommons.org/ns#" xmlns:rdf="http://www.w3.org/1999/02/22-rdf-syntax-ns#">
   <cc:Work>
    <dc:type rdf:resource="http://purl.org/dc/dcmitype/StillImage"/>
    <dc:date>2025-01-15T22:32:29.291558</dc:date>
    <dc:format>image/svg+xml</dc:format>
    <dc:creator>
     <cc:Agent>
      <dc:title>Matplotlib v3.10.0, https://matplotlib.org/</dc:title>
     </cc:Agent>
    </dc:creator>
   </cc:Work>
  </rdf:RDF>
 </metadata>
 <defs>
  <style type="text/css">*{stroke-linejoin: round; stroke-linecap: butt}</style>
 </defs>
 <g id="figure_1">
  <g id="patch_1">
   <path d="M 0 388.825938 
L 713.166724 388.825938 
L 713.166724 0 
L 0 0 
L 0 388.825938 
z
" style="fill: none"/>
  </g>
  <g id="axes_1">
   <g id="patch_2">
    <path d="M 68.770625 339.4 
L 705.966724 339.4 
L 705.966724 7.2 
L 68.770625 7.2 
L 68.770625 339.4 
z
" style="fill: none"/>
   </g>
   <g id="patch_3">
    <path d="M 68.770625 339.4 
L 80.669663 339.4 
L 80.669663 171.946118 
L 68.770625 171.946118 
z
" clip-path="url(#pe93d90d6ed)" style="fill: #2774ae; opacity: 0.7; stroke: #000000; stroke-linejoin: miter"/>
   </g>
   <g id="patch_4">
    <path d="M 80.669663 339.4 
L 92.568701 339.4 
L 92.568701 186.910082 
L 80.669663 186.910082 
z
" clip-path="url(#pe93d90d6ed)" style="fill: #2774ae; opacity: 0.7; stroke: #000000; stroke-linejoin: miter"/>
   </g>
   <g id="patch_5">
    <path d="M 92.568701 339.4 
L 104.46774 339.4 
L 104.46774 204.520733 
L 92.568701 204.520733 
z
" clip-path="url(#pe93d90d6ed)" style="fill: #2774ae; opacity: 0.7; stroke: #000000; stroke-linejoin: miter"/>
   </g>
   <g id="patch_6">
    <path d="M 104.46774 339.4 
L 116.366778 339.4 
L 116.366778 208.04965 
L 104.46774 208.04965 
z
" clip-path="url(#pe93d90d6ed)" style="fill: #2774ae; opacity: 0.7; stroke: #000000; stroke-linejoin: miter"/>
   </g>
   <g id="patch_7">
    <path d="M 116.366778 339.4 
L 128.265816 339.4 
L 128.265816 195.528782 
L 116.366778 195.528782 
z
" clip-path="url(#pe93d90d6ed)" style="fill: #2774ae; opacity: 0.7; stroke: #000000; stroke-linejoin: miter"/>
   </g>
   <g id="patch_8">
    <path d="M 128.265816 339.4 
L 140.164854 339.4 
L 140.164854 176.051876 
L 128.265816 176.051876 
z
" clip-path="url(#pe93d90d6ed)" style="fill: #2774ae; opacity: 0.7; stroke: #000000; stroke-linejoin: miter"/>
   </g>
   <g id="patch_9">
    <path d="M 140.164854 339.4 
L 152.063892 339.4 
L 152.063892 139.948344 
L 140.164854 139.948344 
z
" clip-path="url(#pe93d90d6ed)" style="fill: #2774ae; opacity: 0.7; stroke: #000000; stroke-linejoin: miter"/>
   </g>
   <g id="patch_10">
    <path d="M 152.063892 339.4 
L 163.962931 339.4 
L 163.962931 120.84469 
L 152.063892 120.84469 
z
" clip-path="url(#pe93d90d6ed)" style="fill: #2774ae; opacity: 0.7; stroke: #000000; stroke-linejoin: miter"/>
   </g>
   <g id="patch_11">
    <path d="M 163.962931 339.4 
L 175.861969 339.4 
L 175.861969 83.553541 
L 163.962931 83.553541 
z
" clip-path="url(#pe93d90d6ed)" style="fill: #2774ae; opacity: 0.7; stroke: #000000; stroke-linejoin: miter"/>
   </g>
   <g id="patch_12">
    <path d="M 175.861969 339.4 
L 187.761007 339.4 
L 187.761007 66.519732 
L 175.861969 66.519732 
z
" clip-path="url(#pe93d90d6ed)" style="fill: #2774ae; opacity: 0.7; stroke: #000000; stroke-linejoin: miter"/>
   </g>
   <g id="patch_13">
    <path d="M 187.761007 339.4 
L 199.660045 339.4 
L 199.660045 23.019048 
L 187.761007 23.019048 
z
" clip-path="url(#pe93d90d6ed)" style="fill: #2774ae; opacity: 0.7; stroke: #000000; stroke-linejoin: miter"/>
   </g>
   <g id="patch_14">
    <path d="M 199.660045 339.4 
L 211.559083 339.4 
L 211.559083 30.789451 
L 199.660045 30.789451 
z
" clip-path="url(#pe93d90d6ed)" style="fill: #2774ae; opacity: 0.7; stroke: #000000; stroke-linejoin: miter"/>
   </g>
   <g id="patch_15">
    <path d="M 211.559083 339.4 
L 223.458122 339.4 
L 223.458122 46.160597 
L 211.559083 46.160597 
z
" clip-path="url(#pe93d90d6ed)" style="fill: #2774ae; opacity: 0.7; stroke: #000000; stroke-linejoin: miter"/>
   </g>
   <g id="patch_16">
    <path d="M 223.458122 339.4 
L 235.35716 339.4 
L 235.35716 97.53348 
L 223.458122 97.53348 
z
" clip-path="url(#pe93d90d6ed)" style="fill: #2774ae; opacity: 0.7; stroke: #000000; stroke-linejoin: miter"/>
   </g>
   <g id="patch_17">
    <path d="M 235.35716 339.4 
L 247.256198 339.4 
L 247.256198 101.435648 
L 235.35716 101.435648 
z
" clip-path="url(#pe93d90d6ed)" style="fill: #2774ae; opacity: 0.7; stroke: #000000; stroke-linejoin: miter"/>
   </g>
   <g id="patch_18">
    <path d="M 247.256198 339.4 
L 259.155236 339.4 
L 259.155236 120.369643 
L 247.256198 120.369643 
z
" clip-path="url(#pe93d90d6ed)" style="fill: #2774ae; opacity: 0.7; stroke: #000000; stroke-linejoin: miter"/>
   </g>
   <g id="patch_19">
    <path d="M 259.155236 339.4 
L 271.054274 339.4 
L 271.054274 141.13596 
L 259.155236 141.13596 
z
" clip-path="url(#pe93d90d6ed)" style="fill: #2774ae; opacity: 0.7; stroke: #000000; stroke-linejoin: miter"/>
   </g>
   <g id="patch_20">
    <path d="M 271.054274 339.4 
L 282.953313 339.4 
L 282.953313 165.566922 
L 271.054274 165.566922 
z
" clip-path="url(#pe93d90d6ed)" style="fill: #2774ae; opacity: 0.7; stroke: #000000; stroke-linejoin: miter"/>
   </g>
   <g id="patch_21">
    <path d="M 282.953313 339.4 
L 294.852351 339.4 
L 294.852351 188.844199 
L 282.953313 188.844199 
z
" clip-path="url(#pe93d90d6ed)" style="fill: #2774ae; opacity: 0.7; stroke: #000000; stroke-linejoin: miter"/>
   </g>
   <g id="patch_22">
    <path d="M 294.852351 339.4 
L 306.751389 339.4 
L 306.751389 200.007791 
L 294.852351 200.007791 
z
" clip-path="url(#pe93d90d6ed)" style="fill: #2774ae; opacity: 0.7; stroke: #000000; stroke-linejoin: miter"/>
   </g>
   <g id="patch_23">
    <path d="M 306.751389 339.4 
L 318.650427 339.4 
L 318.650427 200.075655 
L 306.751389 200.075655 
z
" clip-path="url(#pe93d90d6ed)" style="fill: #2774ae; opacity: 0.7; stroke: #000000; stroke-linejoin: miter"/>
   </g>
   <g id="patch_24">
    <path d="M 318.650427 339.4 
L 330.549465 339.4 
L 330.549465 212.528659 
L 318.650427 212.528659 
z
" clip-path="url(#pe93d90d6ed)" style="fill: #2774ae; opacity: 0.7; stroke: #000000; stroke-linejoin: miter"/>
   </g>
   <g id="patch_25">
    <path d="M 330.549465 339.4 
L 342.448504 339.4 
L 342.448504 218.364945 
L 330.549465 218.364945 
z
" clip-path="url(#pe93d90d6ed)" style="fill: #2774ae; opacity: 0.7; stroke: #000000; stroke-linejoin: miter"/>
   </g>
   <g id="patch_26">
    <path d="M 342.448504 339.4 
L 354.347542 339.4 
L 354.347542 221.113428 
L 342.448504 221.113428 
z
" clip-path="url(#pe93d90d6ed)" style="fill: #2774ae; opacity: 0.7; stroke: #000000; stroke-linejoin: miter"/>
   </g>
   <g id="patch_27">
    <path d="M 354.347542 339.4 
L 366.24658 339.4 
L 366.24658 221.283087 
L 354.347542 221.283087 
z
" clip-path="url(#pe93d90d6ed)" style="fill: #2774ae; opacity: 0.7; stroke: #000000; stroke-linejoin: miter"/>
   </g>
   <g id="patch_28">
    <path d="M 366.24658 339.4 
L 378.145618 339.4 
L 378.145618 225.422778 
L 366.24658 225.422778 
z
" clip-path="url(#pe93d90d6ed)" style="fill: #2774ae; opacity: 0.7; stroke: #000000; stroke-linejoin: miter"/>
   </g>
   <g id="patch_29">
    <path d="M 378.145618 339.4 
L 390.044656 339.4 
L 390.044656 229.76606 
L 378.145618 229.76606 
z
" clip-path="url(#pe93d90d6ed)" style="fill: #2774ae; opacity: 0.7; stroke: #000000; stroke-linejoin: miter"/>
   </g>
   <g id="patch_30">
    <path d="M 390.044656 339.4 
L 401.943695 339.4 
L 401.943695 241.811881 
L 390.044656 241.811881 
z
" clip-path="url(#pe93d90d6ed)" style="fill: #2774ae; opacity: 0.7; stroke: #000000; stroke-linejoin: miter"/>
   </g>
   <g id="patch_31">
    <path d="M 401.943695 339.4 
L 413.842733 339.4 
L 413.842733 247.308848 
L 401.943695 247.308848 
z
" clip-path="url(#pe93d90d6ed)" style="fill: #2774ae; opacity: 0.7; stroke: #000000; stroke-linejoin: miter"/>
   </g>
   <g id="patch_32">
    <path d="M 413.842733 339.4 
L 425.741771 339.4 
L 425.741771 250.22699 
L 413.842733 250.22699 
z
" clip-path="url(#pe93d90d6ed)" style="fill: #2774ae; opacity: 0.7; stroke: #000000; stroke-linejoin: miter"/>
   </g>
   <g id="patch_33">
    <path d="M 425.741771 339.4 
L 437.640809 339.4 
L 437.640809 262.442471 
L 425.741771 262.442471 
z
" clip-path="url(#pe93d90d6ed)" style="fill: #2774ae; opacity: 0.7; stroke: #000000; stroke-linejoin: miter"/>
   </g>
   <g id="patch_34">
    <path d="M 437.640809 339.4 
L 449.539847 339.4 
L 449.539847 267.125072 
L 437.640809 267.125072 
z
" clip-path="url(#pe93d90d6ed)" style="fill: #2774ae; opacity: 0.7; stroke: #000000; stroke-linejoin: miter"/>
   </g>
   <g id="patch_35">
    <path d="M 449.539847 339.4 
L 461.438886 339.4 
L 461.438886 274.522224 
L 449.539847 274.522224 
z
" clip-path="url(#pe93d90d6ed)" style="fill: #2774ae; opacity: 0.7; stroke: #000000; stroke-linejoin: miter"/>
   </g>
   <g id="patch_36">
    <path d="M 461.438886 339.4 
L 473.337924 339.4 
L 473.337924 274.725816 
L 461.438886 274.725816 
z
" clip-path="url(#pe93d90d6ed)" style="fill: #2774ae; opacity: 0.7; stroke: #000000; stroke-linejoin: miter"/>
   </g>
   <g id="patch_37">
    <path d="M 473.337924 339.4 
L 485.236962 339.4 
L 485.236962 281.851513 
L 473.337924 281.851513 
z
" clip-path="url(#pe93d90d6ed)" style="fill: #2774ae; opacity: 0.7; stroke: #000000; stroke-linejoin: miter"/>
   </g>
   <g id="patch_38">
    <path d="M 485.236962 339.4 
L 497.136 339.4 
L 497.136 283.514175 
L 485.236962 283.514175 
z
" clip-path="url(#pe93d90d6ed)" style="fill: #2774ae; opacity: 0.7; stroke: #000000; stroke-linejoin: miter"/>
   </g>
   <g id="patch_39">
    <path d="M 497.136 339.4 
L 509.035038 339.4 
L 509.035038 286.025135 
L 497.136 286.025135 
z
" clip-path="url(#pe93d90d6ed)" style="fill: #2774ae; opacity: 0.7; stroke: #000000; stroke-linejoin: miter"/>
   </g>
   <g id="patch_40">
    <path d="M 509.035038 339.4 
L 520.934077 339.4 
L 520.934077 290.470213 
L 509.035038 290.470213 
z
" clip-path="url(#pe93d90d6ed)" style="fill: #2774ae; opacity: 0.7; stroke: #000000; stroke-linejoin: miter"/>
   </g>
   <g id="patch_41">
    <path d="M 520.934077 339.4 
L 532.833115 339.4 
L 532.833115 299.224641 
L 520.934077 299.224641 
z
" clip-path="url(#pe93d90d6ed)" style="fill: #2774ae; opacity: 0.7; stroke: #000000; stroke-linejoin: miter"/>
   </g>
   <g id="patch_42">
    <path d="M 532.833115 339.4 
L 544.732153 339.4 
L 544.732153 305.875292 
L 532.833115 305.875292 
z
" clip-path="url(#pe93d90d6ed)" style="fill: #2774ae; opacity: 0.7; stroke: #000000; stroke-linejoin: miter"/>
   </g>
   <g id="patch_43">
    <path d="M 544.732153 339.4 
L 556.631191 339.4 
L 556.631191 302.244579 
L 544.732153 302.244579 
z
" clip-path="url(#pe93d90d6ed)" style="fill: #2774ae; opacity: 0.7; stroke: #000000; stroke-linejoin: miter"/>
   </g>
   <g id="patch_44">
    <path d="M 556.631191 339.4 
L 568.530229 339.4 
L 568.530229 310.86328 
L 556.631191 310.86328 
z
" clip-path="url(#pe93d90d6ed)" style="fill: #2774ae; opacity: 0.7; stroke: #000000; stroke-linejoin: miter"/>
   </g>
   <g id="patch_45">
    <path d="M 568.530229 339.4 
L 580.429268 339.4 
L 580.429268 313.408171 
L 568.530229 313.408171 
z
" clip-path="url(#pe93d90d6ed)" style="fill: #2774ae; opacity: 0.7; stroke: #000000; stroke-linejoin: miter"/>
   </g>
   <g id="patch_46">
    <path d="M 580.429268 339.4 
L 592.328306 339.4 
L 592.328306 314.663651 
L 580.429268 314.663651 
z
" clip-path="url(#pe93d90d6ed)" style="fill: #2774ae; opacity: 0.7; stroke: #000000; stroke-linejoin: miter"/>
   </g>
   <g id="patch_47">
    <path d="M 592.328306 339.4 
L 604.227344 339.4 
L 604.227344 318.464023 
L 592.328306 318.464023 
z
" clip-path="url(#pe93d90d6ed)" style="fill: #2774ae; opacity: 0.7; stroke: #000000; stroke-linejoin: miter"/>
   </g>
   <g id="patch_48">
    <path d="M 604.227344 339.4 
L 616.126382 339.4 
L 616.126382 320.771392 
L 604.227344 320.771392 
z
" clip-path="url(#pe93d90d6ed)" style="fill: #2774ae; opacity: 0.7; stroke: #000000; stroke-linejoin: miter"/>
   </g>
   <g id="patch_49">
    <path d="M 616.126382 339.4 
L 628.02542 339.4 
L 628.02542 321.99294 
L 616.126382 321.99294 
z
" clip-path="url(#pe93d90d6ed)" style="fill: #2774ae; opacity: 0.7; stroke: #000000; stroke-linejoin: miter"/>
   </g>
   <g id="patch_50">
    <path d="M 628.02542 339.4 
L 639.924459 339.4 
L 639.924459 325.148606 
L 628.02542 325.148606 
z
" clip-path="url(#pe93d90d6ed)" style="fill: #2774ae; opacity: 0.7; stroke: #000000; stroke-linejoin: miter"/>
   </g>
   <g id="patch_51">
    <path d="M 639.924459 339.4 
L 651.823497 339.4 
L 651.823497 323.587739 
L 639.924459 323.587739 
z
" clip-path="url(#pe93d90d6ed)" style="fill: #2774ae; opacity: 0.7; stroke: #000000; stroke-linejoin: miter"/>
   </g>
   <g id="patch_52">
    <path d="M 651.823497 339.4 
L 663.722535 339.4 
L 663.722535 325.962971 
L 651.823497 325.962971 
z
" clip-path="url(#pe93d90d6ed)" style="fill: #2774ae; opacity: 0.7; stroke: #000000; stroke-linejoin: miter"/>
   </g>
   <g id="patch_53">
    <path d="M 663.722535 339.4 
L 675.624052 339.4 
L 675.624052 199.736336 
L 663.722535 199.736336 
z
" clip-path="url(#pe93d90d6ed)" style="fill: #2774ae; opacity: 0.7; stroke: #000000; stroke-linejoin: miter"/>
   </g>
   <g id="matplotlib.axis_1">
    <g id="xtick_1">
     <g id="line2d_1">
      <path d="M 167.92969 339.4 
L 167.92969 7.2 
" clip-path="url(#pe93d90d6ed)" style="fill: none; stroke: #a6a6a6; stroke-opacity: 0.6; stroke-width: 0.8; stroke-linecap: square"/>
     </g>
     <g id="line2d_2">
      <defs>
       <path id="mb72454a8bf" d="M 0 0 
L 0 3.5 
" style="stroke: #030303; stroke-width: 0.8"/>
      </defs>
      <g>
       <use xlink:href="#mb72454a8bf" x="167.92969" y="339.4" style="fill: #030303; stroke: #030303; stroke-width: 0.8"/>
      </g>
     </g>
     <g id="text_1">
      <!-- $50K -->
      <g style="fill: #030303" transform="translate(149.339221 357.037813) scale(0.14 -0.14)">
       <defs>
        <path id="DejaVuSerif-24" d="M 2156 213 
Q 2509 244 2695 416 
Q 2881 588 2881 884 
Q 2881 1153 2697 1340 
Q 2513 1528 2156 1625 
L 2156 213 
z
M 1844 3709 
Q 1522 3688 1344 3523 
Q 1166 3359 1166 3084 
Q 1166 2834 1330 2668 
Q 1494 2503 1844 2400 
L 1844 3709 
z
M 550 225 
L 550 1088 
L 888 1088 
Q 900 659 1137 440 
Q 1375 222 1844 213 
L 1844 1728 
Q 1125 1928 834 2189 
Q 544 2450 544 2881 
Q 544 3381 887 3684 
Q 1231 3988 1844 4025 
L 1844 4863 
L 2156 4863 
L 2156 4025 
Q 2472 4000 2764 3923 
Q 3056 3847 3334 3719 
L 3334 2900 
L 2994 2900 
Q 2956 3263 2740 3472 
Q 2525 3681 2156 3709 
L 2156 2297 
Q 2925 2088 3233 1817 
Q 3541 1547 3541 1094 
Q 3541 575 3178 262 
Q 2816 -50 2156 -97 
L 2156 -941 
L 1844 -941 
L 1844 -97 
Q 1544 -91 1222 -11 
Q 900 69 550 225 
z
" transform="scale(0.015625)"/>
        <path id="DejaVuSerif-35" d="M 3219 4666 
L 3219 4153 
L 1081 4153 
L 1081 2816 
Q 1244 2928 1461 2984 
Q 1678 3041 1947 3041 
Q 2703 3041 3140 2622 
Q 3578 2203 3578 1478 
Q 3578 738 3136 323 
Q 2694 -91 1894 -91 
Q 1572 -91 1234 -12 
Q 897 66 544 225 
L 544 1131 
L 897 1131 
Q 925 688 1179 453 
Q 1434 219 1894 219 
Q 2388 219 2653 544 
Q 2919 869 2919 1478 
Q 2919 2084 2655 2407 
Q 2391 2731 1894 2731 
Q 1613 2731 1398 2631 
Q 1184 2531 1019 2322 
L 750 2322 
L 750 4666 
L 3219 4666 
z
" transform="scale(0.015625)"/>
        <path id="DejaVuSerif-30" d="M 2034 219 
Q 2513 219 2750 744 
Q 2988 1269 2988 2328 
Q 2988 3391 2750 3916 
Q 2513 4441 2034 4441 
Q 1556 4441 1318 3916 
Q 1081 3391 1081 2328 
Q 1081 1269 1318 744 
Q 1556 219 2034 219 
z
M 2034 -91 
Q 1275 -91 848 546 
Q 422 1184 422 2328 
Q 422 3475 848 4112 
Q 1275 4750 2034 4750 
Q 2797 4750 3222 4112 
Q 3647 3475 3647 2328 
Q 3647 1184 3222 546 
Q 2797 -91 2034 -91 
z
" transform="scale(0.015625)"/>
        <path id="DejaVuSerif-4b" d="M 353 0 
L 353 331 
L 947 331 
L 947 4331 
L 353 4331 
L 353 4666 
L 2175 4666 
L 2175 4331 
L 1581 4331 
L 1581 2566 
L 3591 4331 
L 3084 4331 
L 3084 4666 
L 4634 4666 
L 4634 4331 
L 4109 4331 
L 2106 2572 
L 4347 331 
L 4878 331 
L 4878 0 
L 3794 0 
L 1581 2216 
L 1581 331 
L 2175 331 
L 2175 0 
L 353 0 
z
" transform="scale(0.015625)"/>
       </defs>
       <use xlink:href="#DejaVuSerif-24"/>
       <use xlink:href="#DejaVuSerif-35" transform="translate(63.623047 0)"/>
       <use xlink:href="#DejaVuSerif-30" transform="translate(127.246094 0)"/>
       <use xlink:href="#DejaVuSerif-4b" transform="translate(190.869141 0)"/>
      </g>
     </g>
    </g>
    <g id="xtick_2">
     <g id="line2d_3">
      <path d="M 291.878521 339.4 
L 291.878521 7.2 
" clip-path="url(#pe93d90d6ed)" style="fill: none; stroke: #a6a6a6; stroke-opacity: 0.6; stroke-width: 0.8; stroke-linecap: square"/>
     </g>
     <g id="line2d_4">
      <g>
       <use xlink:href="#mb72454a8bf" x="291.878521" y="339.4" style="fill: #030303; stroke: #030303; stroke-width: 0.8"/>
      </g>
     </g>
     <g id="text_2">
      <!-- $100K -->
      <g style="fill: #030303" transform="translate(268.834302 357.037813) scale(0.14 -0.14)">
       <defs>
        <path id="DejaVuSerif-31" d="M 909 0 
L 909 331 
L 1722 331 
L 1722 4213 
L 781 3603 
L 781 4013 
L 1919 4750 
L 2350 4750 
L 2350 331 
L 3163 331 
L 3163 0 
L 909 0 
z
" transform="scale(0.015625)"/>
       </defs>
       <use xlink:href="#DejaVuSerif-24"/>
       <use xlink:href="#DejaVuSerif-31" transform="translate(63.623047 0)"/>
       <use xlink:href="#DejaVuSerif-30" transform="translate(127.246094 0)"/>
       <use xlink:href="#DejaVuSerif-30" transform="translate(190.869141 0)"/>
       <use xlink:href="#DejaVuSerif-4b" transform="translate(254.492188 0)"/>
      </g>
     </g>
    </g>
    <g id="xtick_3">
     <g id="line2d_5">
      <path d="M 415.827352 339.4 
L 415.827352 7.2 
" clip-path="url(#pe93d90d6ed)" style="fill: none; stroke: #a6a6a6; stroke-opacity: 0.6; stroke-width: 0.8; stroke-linecap: square"/>
     </g>
     <g id="line2d_6">
      <g>
       <use xlink:href="#mb72454a8bf" x="415.827352" y="339.4" style="fill: #030303; stroke: #030303; stroke-width: 0.8"/>
      </g>
     </g>
     <g id="text_3">
      <!-- $150K -->
      <g style="fill: #030303" transform="translate(392.783133 357.037813) scale(0.14 -0.14)">
       <use xlink:href="#DejaVuSerif-24"/>
       <use xlink:href="#DejaVuSerif-31" transform="translate(63.623047 0)"/>
       <use xlink:href="#DejaVuSerif-35" transform="translate(127.246094 0)"/>
       <use xlink:href="#DejaVuSerif-30" transform="translate(190.869141 0)"/>
       <use xlink:href="#DejaVuSerif-4b" transform="translate(254.492188 0)"/>
      </g>
     </g>
    </g>
    <g id="xtick_4">
     <g id="line2d_7">
      <path d="M 539.776183 339.4 
L 539.776183 7.2 
" clip-path="url(#pe93d90d6ed)" style="fill: none; stroke: #a6a6a6; stroke-opacity: 0.6; stroke-width: 0.8; stroke-linecap: square"/>
     </g>
     <g id="line2d_8">
      <g>
       <use xlink:href="#mb72454a8bf" x="539.776183" y="339.4" style="fill: #030303; stroke: #030303; stroke-width: 0.8"/>
      </g>
     </g>
     <g id="text_4">
      <!-- $200K -->
      <g style="fill: #030303" transform="translate(516.731964 357.037813) scale(0.14 -0.14)">
       <defs>
        <path id="DejaVuSerif-32" d="M 819 3553 
L 469 3553 
L 469 4384 
Q 803 4563 1142 4656 
Q 1481 4750 1806 4750 
Q 2534 4750 2956 4397 
Q 3378 4044 3378 3438 
Q 3378 2753 2422 1800 
Q 2347 1728 2309 1691 
L 1131 513 
L 3078 513 
L 3078 1088 
L 3444 1088 
L 3444 0 
L 434 0 
L 434 341 
L 1850 1753 
Q 2319 2222 2519 2614 
Q 2719 3006 2719 3438 
Q 2719 3909 2473 4175 
Q 2228 4441 1797 4441 
Q 1350 4441 1106 4219 
Q 863 3997 819 3553 
z
" transform="scale(0.015625)"/>
       </defs>
       <use xlink:href="#DejaVuSerif-24"/>
       <use xlink:href="#DejaVuSerif-32" transform="translate(63.623047 0)"/>
       <use xlink:href="#DejaVuSerif-30" transform="translate(127.246094 0)"/>
       <use xlink:href="#DejaVuSerif-30" transform="translate(190.869141 0)"/>
       <use xlink:href="#DejaVuSerif-4b" transform="translate(254.492188 0)"/>
      </g>
     </g>
    </g>
    <g id="xtick_5">
     <g id="line2d_9">
      <path d="M 663.725014 339.4 
L 663.725014 7.2 
" clip-path="url(#pe93d90d6ed)" style="fill: none; stroke: #a6a6a6; stroke-opacity: 0.6; stroke-width: 0.8; stroke-linecap: square"/>
     </g>
     <g id="line2d_10">
      <g>
       <use xlink:href="#mb72454a8bf" x="663.725014" y="339.4" style="fill: #030303; stroke: #030303; stroke-width: 0.8"/>
      </g>
     </g>
     <g id="text_5">
      <!-- &gt;$250K -->
      <g style="fill: #030303" transform="translate(634.815014 357.037813) scale(0.14 -0.14)">
       <defs>
        <path id="DejaVuSerif-3e" d="M 678 3188 
L 678 3719 
L 4684 2266 
L 4684 1747 
L 678 294 
L 678 825 
L 3922 2003 
L 678 3188 
z
" transform="scale(0.015625)"/>
       </defs>
       <use xlink:href="#DejaVuSerif-3e"/>
       <use xlink:href="#DejaVuSerif-24" transform="translate(83.789062 0)"/>
       <use xlink:href="#DejaVuSerif-32" transform="translate(147.412109 0)"/>
       <use xlink:href="#DejaVuSerif-35" transform="translate(211.035156 0)"/>
       <use xlink:href="#DejaVuSerif-30" transform="translate(274.658203 0)"/>
       <use xlink:href="#DejaVuSerif-4b" transform="translate(338.28125 0)"/>
      </g>
     </g>
    </g>
    <g id="text_6">
     <!-- Salary (USD) -->
     <g style="fill: #030303" transform="translate(327.356956 377.626563) scale(0.18 -0.18)">
      <defs>
       <path id="DejaVuSerif-53" d="M 594 225 
L 594 1288 
L 953 1284 
Q 969 753 1261 498 
Q 1553 244 2150 244 
Q 2706 244 2998 464 
Q 3291 684 3291 1106 
Q 3291 1444 3114 1625 
Q 2938 1806 2369 1978 
L 1753 2163 
Q 1084 2366 811 2669 
Q 538 2972 538 3500 
Q 538 4094 959 4422 
Q 1381 4750 2144 4750 
Q 2469 4750 2856 4679 
Q 3244 4609 3681 4475 
L 3681 3481 
L 3328 3481 
Q 3275 3975 2998 4195 
Q 2722 4416 2156 4416 
Q 1663 4416 1405 4214 
Q 1147 4013 1147 3628 
Q 1147 3294 1340 3103 
Q 1534 2913 2163 2725 
L 2741 2553 
Q 3375 2363 3645 2067 
Q 3916 1772 3916 1275 
Q 3916 597 3481 253 
Q 3047 -91 2188 -91 
Q 1803 -91 1404 -12 
Q 1006 66 594 225 
z
" transform="scale(0.015625)"/>
       <path id="DejaVuSerif-61" d="M 2547 1044 
L 2547 1747 
L 1806 1747 
Q 1378 1747 1168 1562 
Q 959 1378 959 997 
Q 959 650 1171 447 
Q 1384 244 1747 244 
Q 2106 244 2326 466 
Q 2547 688 2547 1044 
z
M 3122 2075 
L 3122 331 
L 3634 331 
L 3634 0 
L 2547 0 
L 2547 359 
Q 2356 128 2106 18 
Q 1856 -91 1522 -91 
Q 969 -91 644 203 
Q 319 497 319 997 
Q 319 1513 691 1797 
Q 1063 2081 1741 2081 
L 2547 2081 
L 2547 2309 
Q 2547 2688 2317 2895 
Q 2088 3103 1672 3103 
Q 1328 3103 1125 2947 
Q 922 2791 872 2484 
L 575 2484 
L 575 3156 
Q 875 3284 1158 3348 
Q 1441 3413 1709 3413 
Q 2400 3413 2761 3070 
Q 3122 2728 3122 2075 
z
" transform="scale(0.015625)"/>
       <path id="DejaVuSerif-6c" d="M 1313 331 
L 1856 331 
L 1856 0 
L 184 0 
L 184 331 
L 738 331 
L 738 4531 
L 184 4531 
L 184 4863 
L 1313 4863 
L 1313 331 
z
" transform="scale(0.015625)"/>
       <path id="DejaVuSerif-72" d="M 3059 3328 
L 3059 2497 
L 2728 2497 
Q 2713 2744 2591 2866 
Q 2469 2988 2234 2988 
Q 1809 2988 1582 2694 
Q 1356 2400 1356 1850 
L 1356 331 
L 2022 331 
L 2022 0 
L 263 0 
L 263 331 
L 781 331 
L 781 2994 
L 231 2994 
L 231 3322 
L 1356 3322 
L 1356 2731 
Q 1525 3078 1790 3245 
Q 2056 3413 2438 3413 
Q 2578 3413 2733 3391 
Q 2888 3369 3059 3328 
z
" transform="scale(0.015625)"/>
       <path id="DejaVuSerif-79" d="M 1381 -609 
L 1600 -56 
L 359 2988 
L -19 2988 
L -19 3322 
L 1509 3322 
L 1509 2988 
L 978 2988 
L 1913 703 
L 2847 2988 
L 2350 2988 
L 2350 3322 
L 3597 3322 
L 3597 2988 
L 3225 2988 
L 1703 -750 
Q 1547 -1138 1356 -1280 
Q 1166 -1422 819 -1422 
Q 672 -1422 517 -1397 
Q 363 -1372 206 -1325 
L 206 -691 
L 500 -691 
Q 519 -903 608 -995 
Q 697 -1088 884 -1088 
Q 1056 -1088 1161 -992 
Q 1266 -897 1381 -609 
z
" transform="scale(0.015625)"/>
       <path id="DejaVuSerif-20" transform="scale(0.015625)"/>
       <path id="DejaVuSerif-28" d="M 2041 -997 
Q 1281 -656 893 83 
Q 506 822 506 1931 
Q 506 3044 893 3783 
Q 1281 4522 2041 4863 
L 2041 4556 
Q 1559 4225 1350 3623 
Q 1141 3022 1141 1931 
Q 1141 844 1350 242 
Q 1559 -359 2041 -691 
L 2041 -997 
z
" transform="scale(0.015625)"/>
       <path id="DejaVuSerif-55" d="M 897 4331 
L 300 4331 
L 300 4666 
L 2125 4666 
L 2125 4331 
L 1528 4331 
L 1528 1919 
Q 1528 1025 1820 672 
Q 2113 319 2828 319 
Q 3544 319 3836 672 
Q 4128 1025 4128 1919 
L 4128 4331 
L 3531 4331 
L 3531 4666 
L 5106 4666 
L 5106 4331 
L 4513 4331 
L 4513 1856 
Q 4513 791 4103 350 
Q 3694 -91 2713 -91 
Q 1731 -91 1314 353 
Q 897 797 897 1856 
L 897 4331 
z
" transform="scale(0.015625)"/>
       <path id="DejaVuSerif-44" d="M 1581 331 
L 2163 331 
Q 3072 331 3558 850 
Q 4044 1369 4044 2338 
Q 4044 3306 3559 3818 
Q 3075 4331 2163 4331 
L 1581 4331 
L 1581 331 
z
M 353 0 
L 353 331 
L 947 331 
L 947 4331 
L 353 4331 
L 353 4666 
L 2209 4666 
Q 3416 4666 4089 4050 
Q 4763 3434 4763 2338 
Q 4763 1238 4088 619 
Q 3413 0 2209 0 
L 353 0 
z
" transform="scale(0.015625)"/>
       <path id="DejaVuSerif-29" d="M 453 -997 
L 453 -691 
Q 934 -359 1145 242 
Q 1356 844 1356 1931 
Q 1356 3022 1145 3623 
Q 934 4225 453 4556 
L 453 4863 
Q 1216 4522 1603 3783 
Q 1991 3044 1991 1931 
Q 1991 822 1603 83 
Q 1216 -656 453 -997 
z
" transform="scale(0.015625)"/>
      </defs>
      <use xlink:href="#DejaVuSerif-53"/>
      <use xlink:href="#DejaVuSerif-61" transform="translate(68.505859 0)"/>
      <use xlink:href="#DejaVuSerif-6c" transform="translate(128.125 0)"/>
      <use xlink:href="#DejaVuSerif-61" transform="translate(160.107422 0)"/>
      <use xlink:href="#DejaVuSerif-72" transform="translate(219.726562 0)"/>
      <use xlink:href="#DejaVuSerif-79" transform="translate(267.529297 0)"/>
      <use xlink:href="#DejaVuSerif-20" transform="translate(324.023438 0)"/>
      <use xlink:href="#DejaVuSerif-28" transform="translate(355.810547 0)"/>
      <use xlink:href="#DejaVuSerif-55" transform="translate(394.824219 0)"/>
      <use xlink:href="#DejaVuSerif-53" transform="translate(479.101562 0)"/>
      <use xlink:href="#DejaVuSerif-44" transform="translate(547.607422 0)"/>
      <use xlink:href="#DejaVuSerif-29" transform="translate(627.783203 0)"/>
     </g>
    </g>
   </g>
   <g id="matplotlib.axis_2">
    <g id="ytick_1">
     <g id="line2d_11">
      <path d="M 68.770625 339.4 
L 705.966724 339.4 
" clip-path="url(#pe93d90d6ed)" style="fill: none; stroke: #a6a6a6; stroke-opacity: 0.6; stroke-width: 0.8; stroke-linecap: square"/>
     </g>
     <g id="line2d_12">
      <defs>
       <path id="mc1e2e5b14d" d="M 0 0 
L -3.5 0 
" style="stroke: #030303; stroke-width: 0.8"/>
      </defs>
      <g>
       <use xlink:href="#mc1e2e5b14d" x="68.770625" y="339.4" style="fill: #030303; stroke: #030303; stroke-width: 0.8"/>
      </g>
     </g>
     <g id="text_7">
      <!-- $\mathdefault{0}$ -->
      <g style="fill: #030303" transform="translate(53.450625 344.338984) scale(0.13 -0.13)">
       <use xlink:href="#DejaVuSerif-30" transform="translate(0 0.78125)"/>
      </g>
     </g>
    </g>
    <g id="ytick_2">
     <g id="line2d_13">
      <path d="M 68.770625 271.536218 
L 705.966724 271.536218 
" clip-path="url(#pe93d90d6ed)" style="fill: none; stroke: #a6a6a6; stroke-opacity: 0.6; stroke-width: 0.8; stroke-linecap: square"/>
     </g>
     <g id="line2d_14">
      <g>
       <use xlink:href="#mc1e2e5b14d" x="68.770625" y="271.536218" style="fill: #030303; stroke: #030303; stroke-width: 0.8"/>
      </g>
     </g>
     <g id="text_8">
      <!-- $\mathdefault{2000}$ -->
      <g style="fill: #030303" transform="translate(28.620625 276.475202) scale(0.13 -0.13)">
       <use xlink:href="#DejaVuSerif-32" transform="translate(0 0.78125)"/>
       <use xlink:href="#DejaVuSerif-30" transform="translate(63.623047 0.78125)"/>
       <use xlink:href="#DejaVuSerif-30" transform="translate(127.246094 0.78125)"/>
       <use xlink:href="#DejaVuSerif-30" transform="translate(190.869141 0.78125)"/>
      </g>
     </g>
    </g>
    <g id="ytick_3">
     <g id="line2d_15">
      <path d="M 68.770625 203.672436 
L 705.966724 203.672436 
" clip-path="url(#pe93d90d6ed)" style="fill: none; stroke: #a6a6a6; stroke-opacity: 0.6; stroke-width: 0.8; stroke-linecap: square"/>
     </g>
     <g id="line2d_16">
      <g>
       <use xlink:href="#mc1e2e5b14d" x="68.770625" y="203.672436" style="fill: #030303; stroke: #030303; stroke-width: 0.8"/>
      </g>
     </g>
     <g id="text_9">
      <!-- $\mathdefault{4000}$ -->
      <g style="fill: #030303" transform="translate(28.620625 208.61142) scale(0.13 -0.13)">
       <defs>
        <path id="DejaVuSerif-34" d="M 2234 1581 
L 2234 4063 
L 641 1581 
L 2234 1581 
z
M 3609 0 
L 1484 0 
L 1484 331 
L 2234 331 
L 2234 1247 
L 197 1247 
L 197 1588 
L 2241 4750 
L 2859 4750 
L 2859 1581 
L 3750 1581 
L 3750 1247 
L 2859 1247 
L 2859 331 
L 3609 331 
L 3609 0 
z
" transform="scale(0.015625)"/>
       </defs>
       <use xlink:href="#DejaVuSerif-34" transform="translate(0 0.78125)"/>
       <use xlink:href="#DejaVuSerif-30" transform="translate(63.623047 0.78125)"/>
       <use xlink:href="#DejaVuSerif-30" transform="translate(127.246094 0.78125)"/>
       <use xlink:href="#DejaVuSerif-30" transform="translate(190.869141 0.78125)"/>
      </g>
     </g>
    </g>
    <g id="ytick_4">
     <g id="line2d_17">
      <path d="M 68.770625 135.808654 
L 705.966724 135.808654 
" clip-path="url(#pe93d90d6ed)" style="fill: none; stroke: #a6a6a6; stroke-opacity: 0.6; stroke-width: 0.8; stroke-linecap: square"/>
     </g>
     <g id="line2d_18">
      <g>
       <use xlink:href="#mc1e2e5b14d" x="68.770625" y="135.808654" style="fill: #030303; stroke: #030303; stroke-width: 0.8"/>
      </g>
     </g>
     <g id="text_10">
      <!-- $\mathdefault{6000}$ -->
      <g style="fill: #030303" transform="translate(28.620625 140.747638) scale(0.13 -0.13)">
       <defs>
        <path id="DejaVuSerif-36" d="M 2094 219 
Q 2534 219 2771 542 
Q 3009 866 3009 1472 
Q 3009 2078 2771 2401 
Q 2534 2725 2094 2725 
Q 1647 2725 1412 2412 
Q 1178 2100 1178 1509 
Q 1178 888 1415 553 
Q 1653 219 2094 219 
z
M 1075 2569 
Q 1288 2803 1556 2918 
Q 1825 3034 2163 3034 
Q 2859 3034 3264 2615 
Q 3669 2197 3669 1472 
Q 3669 763 3233 336 
Q 2797 -91 2069 -91 
Q 1278 -91 853 498 
Q 428 1088 428 2181 
Q 428 3406 931 4078 
Q 1434 4750 2350 4750 
Q 2597 4750 2869 4703 
Q 3141 4656 3425 4563 
L 3425 3794 
L 3072 3794 
Q 3034 4109 2831 4275 
Q 2628 4441 2284 4441 
Q 1678 4441 1381 3981 
Q 1084 3522 1075 2569 
z
" transform="scale(0.015625)"/>
       </defs>
       <use xlink:href="#DejaVuSerif-36" transform="translate(0 0.78125)"/>
       <use xlink:href="#DejaVuSerif-30" transform="translate(63.623047 0.78125)"/>
       <use xlink:href="#DejaVuSerif-30" transform="translate(127.246094 0.78125)"/>
       <use xlink:href="#DejaVuSerif-30" transform="translate(190.869141 0.78125)"/>
      </g>
     </g>
    </g>
    <g id="ytick_5">
     <g id="line2d_19">
      <path d="M 68.770625 67.944871 
L 705.966724 67.944871 
" clip-path="url(#pe93d90d6ed)" style="fill: none; stroke: #a6a6a6; stroke-opacity: 0.6; stroke-width: 0.8; stroke-linecap: square"/>
     </g>
     <g id="line2d_20">
      <g>
       <use xlink:href="#mc1e2e5b14d" x="68.770625" y="67.944871" style="fill: #030303; stroke: #030303; stroke-width: 0.8"/>
      </g>
     </g>
     <g id="text_11">
      <!-- $\mathdefault{8000}$ -->
      <g style="fill: #030303" transform="translate(28.620625 72.883856) scale(0.13 -0.13)">
       <defs>
        <path id="DejaVuSerif-38" d="M 2981 1275 
Q 2981 1775 2732 2051 
Q 2484 2328 2034 2328 
Q 1584 2328 1336 2051 
Q 1088 1775 1088 1275 
Q 1088 772 1336 495 
Q 1584 219 2034 219 
Q 2484 219 2732 495 
Q 2981 772 2981 1275 
z
M 2853 3541 
Q 2853 3966 2637 4203 
Q 2422 4441 2034 4441 
Q 1650 4441 1433 4203 
Q 1216 3966 1216 3541 
Q 1216 3113 1433 2875 
Q 1650 2638 2034 2638 
Q 2422 2638 2637 2875 
Q 2853 3113 2853 3541 
z
M 2516 2484 
Q 3047 2413 3344 2092 
Q 3641 1772 3641 1275 
Q 3641 619 3225 264 
Q 2809 -91 2034 -91 
Q 1263 -91 845 264 
Q 428 619 428 1275 
Q 428 1772 725 2092 
Q 1022 2413 1556 2484 
Q 1084 2569 832 2842 
Q 581 3116 581 3541 
Q 581 4103 968 4426 
Q 1356 4750 2034 4750 
Q 2713 4750 3100 4426 
Q 3488 4103 3488 3541 
Q 3488 3116 3236 2842 
Q 2984 2569 2516 2484 
z
" transform="scale(0.015625)"/>
       </defs>
       <use xlink:href="#DejaVuSerif-38" transform="translate(0 0.78125)"/>
       <use xlink:href="#DejaVuSerif-30" transform="translate(63.623047 0.78125)"/>
       <use xlink:href="#DejaVuSerif-30" transform="translate(127.246094 0.78125)"/>
       <use xlink:href="#DejaVuSerif-30" transform="translate(190.869141 0.78125)"/>
      </g>
     </g>
    </g>
    <g id="text_12">
     <!-- Frequency -->
     <g style="fill: #030303" transform="translate(20.62125 221.980156) rotate(-90) scale(0.18 -0.18)">
      <defs>
       <path id="DejaVuSerif-46" d="M 353 0 
L 353 331 
L 947 331 
L 947 4331 
L 353 4331 
L 353 4666 
L 4172 4666 
L 4172 3628 
L 3788 3628 
L 3788 4281 
L 1581 4281 
L 1581 2719 
L 3175 2719 
L 3175 3303 
L 3559 3303 
L 3559 1753 
L 3175 1753 
L 3175 2338 
L 1581 2338 
L 1581 331 
L 2328 331 
L 2328 0 
L 353 0 
z
" transform="scale(0.015625)"/>
       <path id="DejaVuSerif-65" d="M 3469 1600 
L 991 1600 
L 991 1575 
Q 991 903 1244 561 
Q 1497 219 1991 219 
Q 2369 219 2611 417 
Q 2853 616 2950 1006 
L 3413 1006 
Q 3275 459 2904 184 
Q 2534 -91 1931 -91 
Q 1203 -91 761 389 
Q 319 869 319 1663 
Q 319 2450 753 2931 
Q 1188 3413 1894 3413 
Q 2647 3413 3050 2948 
Q 3453 2484 3469 1600 
z
M 2791 1931 
Q 2772 2513 2545 2808 
Q 2319 3103 1894 3103 
Q 1497 3103 1269 2806 
Q 1041 2509 991 1931 
L 2791 1931 
z
" transform="scale(0.015625)"/>
       <path id="DejaVuSerif-71" d="M 3359 2988 
L 3359 -997 
L 3909 -997 
L 3909 -1331 
L 2241 -1331 
L 2241 -997 
L 2784 -997 
L 2784 519 
Q 2616 206 2355 57 
Q 2094 -91 1709 -91 
Q 1097 -91 708 395 
Q 319 881 319 1663 
Q 319 2444 706 2928 
Q 1094 3413 1709 3413 
Q 2094 3413 2355 3264 
Q 2616 3116 2784 2803 
L 2784 3322 
L 3909 3322 
L 3909 2988 
L 3359 2988 
z
M 2784 1825 
Q 2784 2422 2554 2737 
Q 2325 3053 1888 3053 
Q 1444 3053 1217 2703 
Q 991 2353 991 1663 
Q 991 975 1217 622 
Q 1444 269 1888 269 
Q 2325 269 2554 583 
Q 2784 897 2784 1497 
L 2784 1825 
z
" transform="scale(0.015625)"/>
       <path id="DejaVuSerif-75" d="M 2266 3322 
L 3341 3322 
L 3341 331 
L 3884 331 
L 3884 0 
L 2766 0 
L 2766 588 
Q 2606 256 2353 82 
Q 2100 -91 1766 -91 
Q 1213 -91 952 223 
Q 691 538 691 1209 
L 691 2988 
L 172 2988 
L 172 3322 
L 1269 3322 
L 1269 1388 
Q 1269 781 1417 556 
Q 1566 331 1947 331 
Q 2347 331 2556 625 
Q 2766 919 2766 1478 
L 2766 2988 
L 2266 2988 
L 2266 3322 
z
" transform="scale(0.015625)"/>
       <path id="DejaVuSerif-6e" d="M 263 0 
L 263 331 
L 781 331 
L 781 2988 
L 231 2988 
L 231 3322 
L 1356 3322 
L 1356 2731 
Q 1516 3069 1770 3241 
Q 2025 3413 2363 3413 
Q 2913 3413 3172 3097 
Q 3431 2781 3431 2113 
L 3431 331 
L 3944 331 
L 3944 0 
L 2356 0 
L 2356 331 
L 2853 331 
L 2853 1931 
Q 2853 2541 2703 2767 
Q 2553 2994 2175 2994 
Q 1775 2994 1565 2701 
Q 1356 2409 1356 1850 
L 1356 331 
L 1856 331 
L 1856 0 
L 263 0 
z
" transform="scale(0.015625)"/>
       <path id="DejaVuSerif-63" d="M 3291 997 
Q 3169 466 2822 187 
Q 2475 -91 1925 -91 
Q 1200 -91 759 389 
Q 319 869 319 1663 
Q 319 2459 759 2936 
Q 1200 3413 1925 3413 
Q 2241 3413 2553 3339 
Q 2866 3266 3181 3116 
L 3181 2266 
L 2847 2266 
Q 2781 2703 2561 2903 
Q 2341 3103 1931 3103 
Q 1466 3103 1228 2742 
Q 991 2381 991 1663 
Q 991 944 1227 581 
Q 1463 219 1931 219 
Q 2303 219 2525 412 
Q 2747 606 2828 997 
L 3291 997 
z
" transform="scale(0.015625)"/>
      </defs>
      <use xlink:href="#DejaVuSerif-46"/>
      <use xlink:href="#DejaVuSerif-72" transform="translate(69.384766 0)"/>
      <use xlink:href="#DejaVuSerif-65" transform="translate(117.1875 0)"/>
      <use xlink:href="#DejaVuSerif-71" transform="translate(176.367188 0)"/>
      <use xlink:href="#DejaVuSerif-75" transform="translate(240.380859 0)"/>
      <use xlink:href="#DejaVuSerif-65" transform="translate(304.785156 0)"/>
      <use xlink:href="#DejaVuSerif-6e" transform="translate(363.964844 0)"/>
      <use xlink:href="#DejaVuSerif-63" transform="translate(428.369141 0)"/>
      <use xlink:href="#DejaVuSerif-79" transform="translate(484.375 0)"/>
     </g>
    </g>
   </g>
   <g id="patch_54">
    <path d="M 68.770625 339.4 
L 68.770625 7.2 
" style="fill: none; stroke: #030303; stroke-width: 1.5; stroke-linejoin: miter; stroke-linecap: square"/>
   </g>
   <g id="patch_55">
    <path d="M 68.770625 339.4 
L 705.966724 339.4 
" style="fill: none; stroke: #030303; stroke-width: 1.5; stroke-linejoin: miter; stroke-linecap: square"/>
   </g>
   <g id="legend_1">
    <g id="patch_56">
     <path d="M 550.466724 44.6 
L 698.966724 44.6 
Q 700.966724 44.6 700.966724 42.6 
L 700.966724 14.2 
Q 700.966724 12.2 698.966724 12.2 
L 550.466724 12.2 
Q 548.466724 12.2 548.466724 14.2 
L 548.466724 42.6 
Q 548.466724 44.6 550.466724 44.6 
z
" style="fill: #ffffff; opacity: 0.8; stroke: #cccccc; stroke-linejoin: miter"/>
    </g>
    <g id="line2d_21">
     <path d="M 552.466724 20.3 
L 572.466724 20.3 
" style="fill: none; stroke: #ffb81c; stroke-width: 2"/>
    </g>
    <g id="text_13">
     <!-- $\mu$ (Population Mean) -->
     <g style="fill: #030303" transform="translate(580.466724 23.8) scale(0.1 -0.1)">
      <defs>
       <path id="DejaVuSans-Oblique-3bc" d="M -84 -1331 
L 856 3500 
L 1434 3500 
L 1009 1322 
Q 997 1256 987 1175 
Q 978 1094 978 1013 
Q 978 722 1161 565 
Q 1344 409 1684 409 
Q 2147 409 2431 671 
Q 2716 934 2816 1459 
L 3213 3500 
L 3788 3500 
L 3266 809 
Q 3253 750 3248 706 
Q 3244 663 3244 628 
Q 3244 531 3283 486 
Q 3322 441 3406 441 
Q 3438 441 3492 456 
Q 3547 472 3647 513 
L 3559 50 
Q 3422 -19 3297 -55 
Q 3172 -91 3053 -91 
Q 2847 -91 2730 40 
Q 2613 172 2613 403 
Q 2438 153 2195 31 
Q 1953 -91 1625 -91 
Q 1334 -91 1117 43 
Q 900 178 831 397 
L 494 -1331 
L -84 -1331 
z
" transform="scale(0.015625)"/>
       <path id="DejaVuSerif-50" d="M 1581 2375 
L 2406 2375 
Q 2872 2375 3115 2626 
Q 3359 2878 3359 3353 
Q 3359 3831 3115 4081 
Q 2872 4331 2406 4331 
L 1581 4331 
L 1581 2375 
z
M 353 0 
L 353 331 
L 947 331 
L 947 4331 
L 353 4331 
L 353 4666 
L 2559 4666 
Q 3259 4666 3668 4311 
Q 4078 3956 4078 3353 
Q 4078 2753 3668 2397 
Q 3259 2041 2559 2041 
L 1581 2041 
L 1581 331 
L 2303 331 
L 2303 0 
L 353 0 
z
" transform="scale(0.015625)"/>
       <path id="DejaVuSerif-6f" d="M 1925 219 
Q 2388 219 2623 584 
Q 2859 950 2859 1663 
Q 2859 2375 2623 2739 
Q 2388 3103 1925 3103 
Q 1463 3103 1227 2739 
Q 991 2375 991 1663 
Q 991 950 1228 584 
Q 1466 219 1925 219 
z
M 1925 -91 
Q 1200 -91 759 389 
Q 319 869 319 1663 
Q 319 2456 758 2934 
Q 1197 3413 1925 3413 
Q 2653 3413 3092 2934 
Q 3531 2456 3531 1663 
Q 3531 869 3092 389 
Q 2653 -91 1925 -91 
z
" transform="scale(0.015625)"/>
       <path id="DejaVuSerif-70" d="M 1313 1825 
L 1313 1497 
Q 1313 897 1542 583 
Q 1772 269 2209 269 
Q 2650 269 2876 622 
Q 3103 975 3103 1663 
Q 3103 2353 2876 2703 
Q 2650 3053 2209 3053 
Q 1772 3053 1542 2737 
Q 1313 2422 1313 1825 
z
M 738 2988 
L 184 2988 
L 184 3322 
L 1313 3322 
L 1313 2803 
Q 1481 3116 1742 3264 
Q 2003 3413 2388 3413 
Q 3000 3413 3387 2928 
Q 3775 2444 3775 1663 
Q 3775 881 3387 395 
Q 3000 -91 2388 -91 
Q 2003 -91 1742 57 
Q 1481 206 1313 519 
L 1313 -997 
L 1856 -997 
L 1856 -1331 
L 184 -1331 
L 184 -997 
L 738 -997 
L 738 2988 
z
" transform="scale(0.015625)"/>
       <path id="DejaVuSerif-74" d="M 691 2988 
L 184 2988 
L 184 3322 
L 691 3322 
L 691 4353 
L 1269 4353 
L 1269 3322 
L 2350 3322 
L 2350 2988 
L 1269 2988 
L 1269 878 
Q 1269 456 1350 337 
Q 1431 219 1650 219 
Q 1875 219 1978 351 
Q 2081 484 2088 781 
L 2522 781 
Q 2497 328 2275 118 
Q 2053 -91 1600 -91 
Q 1103 -91 897 129 
Q 691 350 691 878 
L 691 2988 
z
" transform="scale(0.015625)"/>
       <path id="DejaVuSerif-69" d="M 622 4353 
Q 622 4497 726 4603 
Q 831 4709 978 4709 
Q 1122 4709 1226 4603 
Q 1331 4497 1331 4353 
Q 1331 4206 1228 4103 
Q 1125 4000 978 4000 
Q 831 4000 726 4103 
Q 622 4206 622 4353 
z
M 1356 331 
L 1900 331 
L 1900 0 
L 231 0 
L 231 331 
L 781 331 
L 781 2988 
L 231 2988 
L 231 3322 
L 1356 3322 
L 1356 331 
z
" transform="scale(0.015625)"/>
       <path id="DejaVuSerif-4d" d="M 353 0 
L 353 331 
L 947 331 
L 947 4331 
L 319 4331 
L 319 4666 
L 1678 4666 
L 3316 1344 
L 4953 4666 
L 6228 4666 
L 6228 4331 
L 5606 4331 
L 5606 331 
L 6203 331 
L 6203 0 
L 4378 0 
L 4378 331 
L 4972 331 
L 4972 3938 
L 3372 684 
L 2931 684 
L 1331 3938 
L 1331 331 
L 1925 331 
L 1925 0 
L 353 0 
z
" transform="scale(0.015625)"/>
      </defs>
      <use xlink:href="#DejaVuSans-Oblique-3bc" transform="translate(0 0.015625)"/>
      <use xlink:href="#DejaVuSerif-20" transform="translate(63.623047 0.015625)"/>
      <use xlink:href="#DejaVuSerif-28" transform="translate(95.410156 0.015625)"/>
      <use xlink:href="#DejaVuSerif-50" transform="translate(134.423828 0.015625)"/>
      <use xlink:href="#DejaVuSerif-6f" transform="translate(201.708984 0.015625)"/>
      <use xlink:href="#DejaVuSerif-70" transform="translate(261.914062 0.015625)"/>
      <use xlink:href="#DejaVuSerif-75" transform="translate(325.927734 0.015625)"/>
      <use xlink:href="#DejaVuSerif-6c" transform="translate(390.332031 0.015625)"/>
      <use xlink:href="#DejaVuSerif-61" transform="translate(422.314453 0.015625)"/>
      <use xlink:href="#DejaVuSerif-74" transform="translate(481.933594 0.015625)"/>
      <use xlink:href="#DejaVuSerif-69" transform="translate(522.119141 0.015625)"/>
      <use xlink:href="#DejaVuSerif-6f" transform="translate(554.101562 0.015625)"/>
      <use xlink:href="#DejaVuSerif-6e" transform="translate(614.306641 0.015625)"/>
      <use xlink:href="#DejaVuSerif-20" transform="translate(678.710938 0.015625)"/>
      <use xlink:href="#DejaVuSerif-4d" transform="translate(710.498047 0.015625)"/>
      <use xlink:href="#DejaVuSerif-65" transform="translate(812.890625 0.015625)"/>
      <use xlink:href="#DejaVuSerif-61" transform="translate(872.070312 0.015625)"/>
      <use xlink:href="#DejaVuSerif-6e" transform="translate(931.689453 0.015625)"/>
      <use xlink:href="#DejaVuSerif-29" transform="translate(996.09375 0.015625)"/>
     </g>
    </g>
    <g id="line2d_22">
     <path d="M 552.466724 35 
L 572.466724 35 
" style="fill: none; stroke: #005587; stroke-width: 2"/>
    </g>
    <g id="text_14">
     <!-- $m$ (Population Median) -->
     <g style="fill: #030303" transform="translate(580.466724 38.5) scale(0.1 -0.1)">
      <defs>
       <path id="DejaVuSans-Oblique-6d" d="M 5747 2113 
L 5338 0 
L 4763 0 
L 5166 2094 
Q 5191 2228 5203 2325 
Q 5216 2422 5216 2491 
Q 5216 2772 5059 2928 
Q 4903 3084 4622 3084 
Q 4203 3084 3875 2770 
Q 3547 2456 3450 1953 
L 3066 0 
L 2491 0 
L 2900 2094 
Q 2925 2209 2937 2307 
Q 2950 2406 2950 2484 
Q 2950 2769 2794 2926 
Q 2638 3084 2363 3084 
Q 1938 3084 1609 2770 
Q 1281 2456 1184 1953 
L 800 0 
L 225 0 
L 909 3500 
L 1484 3500 
L 1375 2956 
Q 1609 3263 1923 3423 
Q 2238 3584 2597 3584 
Q 2978 3584 3223 3384 
Q 3469 3184 3519 2828 
Q 3781 3197 4126 3390 
Q 4472 3584 4856 3584 
Q 5306 3584 5551 3325 
Q 5797 3066 5797 2591 
Q 5797 2488 5784 2364 
Q 5772 2241 5747 2113 
z
" transform="scale(0.015625)"/>
       <path id="DejaVuSerif-64" d="M 3359 331 
L 3909 331 
L 3909 0 
L 2784 0 
L 2784 519 
Q 2616 206 2355 57 
Q 2094 -91 1709 -91 
Q 1097 -91 708 395 
Q 319 881 319 1663 
Q 319 2444 706 2928 
Q 1094 3413 1709 3413 
Q 2094 3413 2355 3264 
Q 2616 3116 2784 2803 
L 2784 4531 
L 2241 4531 
L 2241 4863 
L 3359 4863 
L 3359 331 
z
M 2784 1497 
L 2784 1825 
Q 2784 2422 2554 2737 
Q 2325 3053 1888 3053 
Q 1444 3053 1217 2703 
Q 991 2353 991 1663 
Q 991 975 1217 622 
Q 1444 269 1888 269 
Q 2325 269 2554 583 
Q 2784 897 2784 1497 
z
" transform="scale(0.015625)"/>
      </defs>
      <use xlink:href="#DejaVuSans-Oblique-6d" transform="translate(0 0.015625)"/>
      <use xlink:href="#DejaVuSerif-20" transform="translate(97.412109 0.015625)"/>
      <use xlink:href="#DejaVuSerif-28" transform="translate(129.199219 0.015625)"/>
      <use xlink:href="#DejaVuSerif-50" transform="translate(168.212891 0.015625)"/>
      <use xlink:href="#DejaVuSerif-6f" transform="translate(235.498047 0.015625)"/>
      <use xlink:href="#DejaVuSerif-70" transform="translate(295.703125 0.015625)"/>
      <use xlink:href="#DejaVuSerif-75" transform="translate(359.716797 0.015625)"/>
      <use xlink:href="#DejaVuSerif-6c" transform="translate(424.121094 0.015625)"/>
      <use xlink:href="#DejaVuSerif-61" transform="translate(456.103516 0.015625)"/>
      <use xlink:href="#DejaVuSerif-74" transform="translate(515.722656 0.015625)"/>
      <use xlink:href="#DejaVuSerif-69" transform="translate(555.908203 0.015625)"/>
      <use xlink:href="#DejaVuSerif-6f" transform="translate(587.890625 0.015625)"/>
      <use xlink:href="#DejaVuSerif-6e" transform="translate(648.095703 0.015625)"/>
      <use xlink:href="#DejaVuSerif-20" transform="translate(712.5 0.015625)"/>
      <use xlink:href="#DejaVuSerif-4d" transform="translate(744.287109 0.015625)"/>
      <use xlink:href="#DejaVuSerif-65" transform="translate(846.679688 0.015625)"/>
      <use xlink:href="#DejaVuSerif-64" transform="translate(905.859375 0.015625)"/>
      <use xlink:href="#DejaVuSerif-69" transform="translate(969.873047 0.015625)"/>
      <use xlink:href="#DejaVuSerif-61" transform="translate(1001.855469 0.015625)"/>
      <use xlink:href="#DejaVuSerif-6e" transform="translate(1061.474609 0.015625)"/>
      <use xlink:href="#DejaVuSerif-29" transform="translate(1125.878906 0.015625)"/>
     </g>
    </g>
   </g>
  </g>
  <g id="axes_2">
   <g id="matplotlib.axis_3"/>
   <g id="LineCollection_1">
    <path d="M 278.037081 339.4 
L 278.037081 62.566667 
" clip-path="url(#pe93d90d6ed)" style="fill: none; stroke: #ffb81c; stroke-width: 2"/>
   </g>
   <g id="patch_57">
    <path d="M 68.770625 339.4 
L 68.770625 7.2 
" style="fill: none; stroke: #030303; stroke-width: 1.5; stroke-linejoin: miter; stroke-linecap: square"/>
   </g>
   <g id="patch_58">
    <path d="M 68.770625 339.4 
L 705.966724 339.4 
" style="fill: none; stroke: #030303; stroke-width: 1.5; stroke-linejoin: miter; stroke-linecap: square"/>
   </g>
   <g id="text_15">
    <!-- $\mu$ -->
    <g style="fill: #ffb81c" transform="translate(268.437081 42.425) scale(0.3 -0.3)">
     <use xlink:href="#DejaVuSans-Oblique-3bc" transform="translate(0 0.3125)"/>
    </g>
   </g>
  </g>
  <g id="axes_3">
   <g id="matplotlib.axis_4"/>
   <g id="LineCollection_2">
    <path d="M 239.626652 339.4 
L 239.626652 62.566667 
" clip-path="url(#pe93d90d6ed)" style="fill: none; stroke: #005587; stroke-width: 2"/>
   </g>
   <g id="patch_59">
    <path d="M 68.770625 339.4 
L 68.770625 7.2 
" style="fill: none; stroke: #030303; stroke-width: 1.5; stroke-linejoin: miter; stroke-linecap: square"/>
   </g>
   <g id="patch_60">
    <path d="M 68.770625 339.4 
L 705.966724 339.4 
" style="fill: none; stroke: #030303; stroke-width: 1.5; stroke-linejoin: miter; stroke-linecap: square"/>
   </g>
   <g id="text_16">
    <!-- $m$ -->
    <g style="fill: #005587" transform="translate(224.926652 42.485937) scale(0.3 -0.3)">
     <use xlink:href="#DejaVuSans-Oblique-6d"/>
    </g>
   </g>
  </g>
 </g>
 <defs>
  <clipPath id="pe93d90d6ed">
   <rect x="68.770625" y="7.2" width="637.196099" height="332.2"/>
  </clipPath>
 </defs>
</svg>
