<?xml version="1.0" encoding="utf-8" standalone="no"?>
<!DOCTYPE svg PUBLIC "-//W3C//DTD SVG 1.1//EN"
  "http://www.w3.org/Graphics/SVG/1.1/DTD/svg11.dtd">
<svg xmlns:xlink="http://www.w3.org/1999/xlink" width="469.708729pt" height="390.853175pt" viewBox="0 0 469.708729 390.853175" xmlns="http://www.w3.org/2000/svg" version="1.1">
 <metadata>
  <rdf:RDF xmlns:dc="http://purl.org/dc/elements/1.1/" xmlns:cc="http://creativecommons.org/ns#" xmlns:rdf="http://www.w3.org/1999/02/22-rdf-syntax-ns#">
   <cc:Work>
    <dc:type rdf:resource="http://purl.org/dc/dcmitype/StillImage"/>
    <dc:date>2025-01-28T07:32:25.568903</dc:date>
    <dc:format>image/svg+xml</dc:format>
    <dc:creator>
     <cc:Agent>
      <dc:title>Matplotlib v3.10.0, https://matplotlib.org/</dc:title>
     </cc:Agent>
    </dc:creator>
   </cc:Work>
  </rdf:RDF>
 </metadata>
 <defs>
  <style type="text/css">*{stroke-linejoin: round; stroke-linecap: butt}</style>
 </defs>
 <g id="figure_1">
  <g id="patch_1">
   <path d="M 0 390.853175 
L 469.708729 390.853175 
L 469.708729 0 
L 0 0 
L 0 390.853175 
z
" style="fill: none"/>
  </g>
  <g id="axes_1">
   <g id="patch_2">
    <path d="M 7.2 339.8438 
L 409.410983 339.8438 
L 409.410983 25.5598 
L 7.2 25.5598 
L 7.2 339.8438 
z
" style="fill: none"/>
   </g>
   <g id="patch_3">
    <path d="M 25.482317 339.8438 
L 44.726862 339.8438 
L 44.726862 339.702576 
L 25.482317 339.702576 
z
" clip-path="url(#pac65058160)" style="fill: #e04b4b; opacity: 0.3; stroke: #666666; stroke-linejoin: miter"/>
   </g>
   <g id="patch_4">
    <path d="M 44.726862 339.8438 
L 63.971407 339.8438 
L 63.971407 339.8438 
L 44.726862 339.8438 
z
" clip-path="url(#pac65058160)" style="fill: #e04b4b; opacity: 0.3; stroke: #666666; stroke-linejoin: miter"/>
   </g>
   <g id="patch_5">
    <path d="M 63.971407 339.8438 
L 83.215951 339.8438 
L 83.215951 338.431556 
L 63.971407 338.431556 
z
" clip-path="url(#pac65058160)" style="fill: #e04b4b; opacity: 0.3; stroke: #666666; stroke-linejoin: miter"/>
   </g>
   <g id="patch_6">
    <path d="M 83.215951 339.8438 
L 102.460496 339.8438 
L 102.460496 335.324619 
L 83.215951 335.324619 
z
" clip-path="url(#pac65058160)" style="fill: #e04b4b; opacity: 0.3; stroke: #666666; stroke-linejoin: miter"/>
   </g>
   <g id="patch_7">
    <path d="M 102.460496 339.8438 
L 121.705041 339.8438 
L 121.705041 321.767074 
L 102.460496 321.767074 
z
" clip-path="url(#pac65058160)" style="fill: #e04b4b; opacity: 0.3; stroke: #666666; stroke-linejoin: miter"/>
   </g>
   <g id="patch_8">
    <path d="M 121.705041 339.8438 
L 140.949585 339.8438 
L 140.949585 278.552402 
L 121.705041 278.552402 
z
" clip-path="url(#pac65058160)" style="fill: #e04b4b; opacity: 0.3; stroke: #666666; stroke-linejoin: miter"/>
   </g>
   <g id="patch_9">
    <path d="M 140.949585 339.8438 
L 160.19413 339.8438 
L 160.19413 217.684677 
L 140.949585 217.684677 
z
" clip-path="url(#pac65058160)" style="fill: #e04b4b; opacity: 0.3; stroke: #666666; stroke-linejoin: miter"/>
   </g>
   <g id="patch_10">
    <path d="M 160.19413 339.8438 
L 179.438674 339.8438 
L 179.438674 181.390002 
L 160.19413 181.390002 
z
" clip-path="url(#pac65058160)" style="fill: #e04b4b; opacity: 0.3; stroke: #666666; stroke-linejoin: miter"/>
   </g>
   <g id="patch_11">
    <path d="M 179.438674 339.8438 
L 198.683219 339.8438 
L 198.683219 134.644719 
L 179.438674 134.644719 
z
" clip-path="url(#pac65058160)" style="fill: #e04b4b; opacity: 0.3; stroke: #666666; stroke-linejoin: miter"/>
   </g>
   <g id="patch_12">
    <path d="M 198.683219 339.8438 
L 217.927764 339.8438 
L 217.927764 79.567195 
L 198.683219 79.567195 
z
" clip-path="url(#pac65058160)" style="fill: #e04b4b; opacity: 0.3; stroke: #666666; stroke-linejoin: miter"/>
   </g>
   <g id="patch_13">
    <path d="M 217.927764 339.8438 
L 237.172308 339.8438 
L 237.172308 134.644719 
L 217.927764 134.644719 
z
" clip-path="url(#pac65058160)" style="fill: #e04b4b; opacity: 0.3; stroke: #666666; stroke-linejoin: miter"/>
   </g>
   <g id="patch_14">
    <path d="M 237.172308 339.8438 
L 256.416853 339.8438 
L 256.416853 178.989187 
L 237.172308 178.989187 
z
" clip-path="url(#pac65058160)" style="fill: #e04b4b; opacity: 0.3; stroke: #666666; stroke-linejoin: miter"/>
   </g>
   <g id="patch_15">
    <path d="M 256.416853 339.8438 
L 275.661398 339.8438 
L 275.661398 218.108351 
L 256.416853 218.108351 
z
" clip-path="url(#pac65058160)" style="fill: #e04b4b; opacity: 0.3; stroke: #666666; stroke-linejoin: miter"/>
   </g>
   <g id="patch_16">
    <path d="M 275.661398 339.8438 
L 294.905942 339.8438 
L 294.905942 275.30424 
L 275.661398 275.30424 
z
" clip-path="url(#pac65058160)" style="fill: #e04b4b; opacity: 0.3; stroke: #666666; stroke-linejoin: miter"/>
   </g>
   <g id="patch_17">
    <path d="M 294.905942 339.8438 
L 314.150487 339.8438 
L 314.150487 316.259322 
L 294.905942 316.259322 
z
" clip-path="url(#pac65058160)" style="fill: #e04b4b; opacity: 0.3; stroke: #666666; stroke-linejoin: miter"/>
   </g>
   <g id="patch_18">
    <path d="M 314.150487 339.8438 
L 333.395032 339.8438 
L 333.395032 336.171965 
L 314.150487 336.171965 
z
" clip-path="url(#pac65058160)" style="fill: #e04b4b; opacity: 0.3; stroke: #666666; stroke-linejoin: miter"/>
   </g>
   <g id="patch_19">
    <path d="M 333.395032 339.8438 
L 352.639576 339.8438 
L 352.639576 339.420127 
L 333.395032 339.420127 
z
" clip-path="url(#pac65058160)" style="fill: #e04b4b; opacity: 0.3; stroke: #666666; stroke-linejoin: miter"/>
   </g>
   <g id="patch_20">
    <path d="M 352.639576 339.8438 
L 371.884121 339.8438 
L 371.884121 339.561351 
L 352.639576 339.561351 
z
" clip-path="url(#pac65058160)" style="fill: #e04b4b; opacity: 0.3; stroke: #666666; stroke-linejoin: miter"/>
   </g>
   <g id="patch_21">
    <path d="M 371.884121 339.8438 
L 391.128665 339.8438 
L 391.128665 339.420127 
L 371.884121 339.420127 
z
" clip-path="url(#pac65058160)" style="fill: #e04b4b; opacity: 0.3; stroke: #666666; stroke-linejoin: miter"/>
   </g>
   <g id="matplotlib.axis_1">
    <g id="xtick_1">
     <g id="line2d_1">
      <defs>
       <path id="mb19019b18a" d="M 0 0 
L 0 3.5 
" style="stroke: #030303; stroke-width: 0.8"/>
      </defs>
      <g>
       <use xlink:href="#mb19019b18a" x="50.918861" y="339.8438" style="fill: #030303; stroke: #030303; stroke-width: 0.8"/>
      </g>
     </g>
     <g id="text_1">
      <!-- $-40K -->
      <g style="fill: #030303" transform="translate(29.962611 357.481612) scale(0.14 -0.14)">
       <defs>
        <path id="DejaVuSerif-24" d="M 2156 213 
Q 2509 244 2695 416 
Q 2881 588 2881 884 
Q 2881 1153 2697 1340 
Q 2513 1528 2156 1625 
L 2156 213 
z
M 1844 3709 
Q 1522 3688 1344 3523 
Q 1166 3359 1166 3084 
Q 1166 2834 1330 2668 
Q 1494 2503 1844 2400 
L 1844 3709 
z
M 550 225 
L 550 1088 
L 888 1088 
Q 900 659 1137 440 
Q 1375 222 1844 213 
L 1844 1728 
Q 1125 1928 834 2189 
Q 544 2450 544 2881 
Q 544 3381 887 3684 
Q 1231 3988 1844 4025 
L 1844 4863 
L 2156 4863 
L 2156 4025 
Q 2472 4000 2764 3923 
Q 3056 3847 3334 3719 
L 3334 2900 
L 2994 2900 
Q 2956 3263 2740 3472 
Q 2525 3681 2156 3709 
L 2156 2297 
Q 2925 2088 3233 1817 
Q 3541 1547 3541 1094 
Q 3541 575 3178 262 
Q 2816 -50 2156 -97 
L 2156 -941 
L 1844 -941 
L 1844 -97 
Q 1544 -91 1222 -11 
Q 900 69 550 225 
z
" transform="scale(0.015625)"/>
        <path id="DejaVuSerif-2d" d="M 281 1959 
L 1881 1959 
L 1881 1472 
L 281 1472 
L 281 1959 
z
" transform="scale(0.015625)"/>
        <path id="DejaVuSerif-34" d="M 2234 1581 
L 2234 4063 
L 641 1581 
L 2234 1581 
z
M 3609 0 
L 1484 0 
L 1484 331 
L 2234 331 
L 2234 1247 
L 197 1247 
L 197 1588 
L 2241 4750 
L 2859 4750 
L 2859 1581 
L 3750 1581 
L 3750 1247 
L 2859 1247 
L 2859 331 
L 3609 331 
L 3609 0 
z
" transform="scale(0.015625)"/>
        <path id="DejaVuSerif-30" d="M 2034 219 
Q 2513 219 2750 744 
Q 2988 1269 2988 2328 
Q 2988 3391 2750 3916 
Q 2513 4441 2034 4441 
Q 1556 4441 1318 3916 
Q 1081 3391 1081 2328 
Q 1081 1269 1318 744 
Q 1556 219 2034 219 
z
M 2034 -91 
Q 1275 -91 848 546 
Q 422 1184 422 2328 
Q 422 3475 848 4112 
Q 1275 4750 2034 4750 
Q 2797 4750 3222 4112 
Q 3647 3475 3647 2328 
Q 3647 1184 3222 546 
Q 2797 -91 2034 -91 
z
" transform="scale(0.015625)"/>
        <path id="DejaVuSerif-4b" d="M 353 0 
L 353 331 
L 947 331 
L 947 4331 
L 353 4331 
L 353 4666 
L 2175 4666 
L 2175 4331 
L 1581 4331 
L 1581 2566 
L 3591 4331 
L 3084 4331 
L 3084 4666 
L 4634 4666 
L 4634 4331 
L 4109 4331 
L 2106 2572 
L 4347 331 
L 4878 331 
L 4878 0 
L 3794 0 
L 1581 2216 
L 1581 331 
L 2175 331 
L 2175 0 
L 353 0 
z
" transform="scale(0.015625)"/>
       </defs>
       <use xlink:href="#DejaVuSerif-24"/>
       <use xlink:href="#DejaVuSerif-2d" transform="translate(63.623047 0)"/>
       <use xlink:href="#DejaVuSerif-34" transform="translate(97.412109 0)"/>
       <use xlink:href="#DejaVuSerif-30" transform="translate(161.035156 0)"/>
       <use xlink:href="#DejaVuSerif-4b" transform="translate(224.658203 0)"/>
      </g>
     </g>
    </g>
    <g id="xtick_2">
     <g id="line2d_2">
      <g>
       <use xlink:href="#mb19019b18a" x="130.259297" y="339.8438" style="fill: #030303; stroke: #030303; stroke-width: 0.8"/>
      </g>
     </g>
     <g id="text_2">
      <!-- $-20K -->
      <g style="fill: #030303" transform="translate(109.303047 357.481612) scale(0.14 -0.14)">
       <defs>
        <path id="DejaVuSerif-32" d="M 819 3553 
L 469 3553 
L 469 4384 
Q 803 4563 1142 4656 
Q 1481 4750 1806 4750 
Q 2534 4750 2956 4397 
Q 3378 4044 3378 3438 
Q 3378 2753 2422 1800 
Q 2347 1728 2309 1691 
L 1131 513 
L 3078 513 
L 3078 1088 
L 3444 1088 
L 3444 0 
L 434 0 
L 434 341 
L 1850 1753 
Q 2319 2222 2519 2614 
Q 2719 3006 2719 3438 
Q 2719 3909 2473 4175 
Q 2228 4441 1797 4441 
Q 1350 4441 1106 4219 
Q 863 3997 819 3553 
z
" transform="scale(0.015625)"/>
       </defs>
       <use xlink:href="#DejaVuSerif-24"/>
       <use xlink:href="#DejaVuSerif-2d" transform="translate(63.623047 0)"/>
       <use xlink:href="#DejaVuSerif-32" transform="translate(97.412109 0)"/>
       <use xlink:href="#DejaVuSerif-30" transform="translate(161.035156 0)"/>
       <use xlink:href="#DejaVuSerif-4b" transform="translate(224.658203 0)"/>
      </g>
     </g>
    </g>
    <g id="xtick_3">
     <g id="line2d_3">
      <g>
       <use xlink:href="#mb19019b18a" x="209.599732" y="339.8438" style="fill: #030303; stroke: #030303; stroke-width: 0.8"/>
      </g>
     </g>
     <g id="text_3">
      <!-- $0K -->
      <g style="fill: #030303" transform="translate(195.463014 357.481612) scale(0.14 -0.14)">
       <use xlink:href="#DejaVuSerif-24"/>
       <use xlink:href="#DejaVuSerif-30" transform="translate(63.623047 0)"/>
       <use xlink:href="#DejaVuSerif-4b" transform="translate(127.246094 0)"/>
      </g>
     </g>
    </g>
    <g id="xtick_4">
     <g id="line2d_4">
      <g>
       <use xlink:href="#mb19019b18a" x="288.940168" y="339.8438" style="fill: #030303; stroke: #030303; stroke-width: 0.8"/>
      </g>
     </g>
     <g id="text_4">
      <!-- $20K -->
      <g style="fill: #030303" transform="translate(270.349699 357.481612) scale(0.14 -0.14)">
       <use xlink:href="#DejaVuSerif-24"/>
       <use xlink:href="#DejaVuSerif-32" transform="translate(63.623047 0)"/>
       <use xlink:href="#DejaVuSerif-30" transform="translate(127.246094 0)"/>
       <use xlink:href="#DejaVuSerif-4b" transform="translate(190.869141 0)"/>
      </g>
     </g>
    </g>
    <g id="xtick_5">
     <g id="line2d_5">
      <g>
       <use xlink:href="#mb19019b18a" x="368.280604" y="339.8438" style="fill: #030303; stroke: #030303; stroke-width: 0.8"/>
      </g>
     </g>
     <g id="text_5">
      <!-- $40K -->
      <g style="fill: #030303" transform="translate(349.690135 357.481612) scale(0.14 -0.14)">
       <use xlink:href="#DejaVuSerif-24"/>
       <use xlink:href="#DejaVuSerif-34" transform="translate(63.623047 0)"/>
       <use xlink:href="#DejaVuSerif-30" transform="translate(127.246094 0)"/>
       <use xlink:href="#DejaVuSerif-4b" transform="translate(190.869141 0)"/>
      </g>
     </g>
    </g>
    <g id="text_6">
     <!-- Null ($\Delta \tilde{X}$) -->
     <g style="fill: #030303" transform="translate(164.025491 379.909737) scale(0.18 -0.18)">
      <defs>
       <path id="DejaVuSerif-4e" d="M 313 0 
L 313 331 
L 941 331 
L 941 4331 
L 313 4331 
L 313 4666 
L 1509 4666 
L 4306 984 
L 4306 4331 
L 3681 4331 
L 3681 4666 
L 5319 4666 
L 5319 4331 
L 4691 4331 
L 4691 -91 
L 4313 -91 
L 1325 3841 
L 1325 331 
L 1953 331 
L 1953 0 
L 313 0 
z
" transform="scale(0.015625)"/>
       <path id="DejaVuSerif-75" d="M 2266 3322 
L 3341 3322 
L 3341 331 
L 3884 331 
L 3884 0 
L 2766 0 
L 2766 588 
Q 2606 256 2353 82 
Q 2100 -91 1766 -91 
Q 1213 -91 952 223 
Q 691 538 691 1209 
L 691 2988 
L 172 2988 
L 172 3322 
L 1269 3322 
L 1269 1388 
Q 1269 781 1417 556 
Q 1566 331 1947 331 
Q 2347 331 2556 625 
Q 2766 919 2766 1478 
L 2766 2988 
L 2266 2988 
L 2266 3322 
z
" transform="scale(0.015625)"/>
       <path id="DejaVuSerif-6c" d="M 1313 331 
L 1856 331 
L 1856 0 
L 184 0 
L 184 331 
L 738 331 
L 738 4531 
L 184 4531 
L 184 4863 
L 1313 4863 
L 1313 331 
z
" transform="scale(0.015625)"/>
       <path id="DejaVuSerif-20" transform="scale(0.015625)"/>
       <path id="DejaVuSerif-28" d="M 2041 -997 
Q 1281 -656 893 83 
Q 506 822 506 1931 
Q 506 3044 893 3783 
Q 1281 4522 2041 4863 
L 2041 4556 
Q 1559 4225 1350 3623 
Q 1141 3022 1141 1931 
Q 1141 844 1350 242 
Q 1559 -359 2041 -691 
L 2041 -997 
z
" transform="scale(0.015625)"/>
       <path id="Cmr10-a2" d="M 347 0 
Q 294 0 294 50 
Q 297 56 298 59 
Q 300 63 300 72 
L 2503 4513 
Q 2531 4581 2619 4581 
L 2706 4581 
Q 2794 4581 2822 4513 
L 5025 72 
Q 5028 66 5029 61 
Q 5031 56 5031 50 
Q 5031 0 4978 0 
L 347 0 
z
M 769 513 
L 4141 513 
L 2456 3909 
L 769 513 
z
" transform="scale(0.015625)"/>
       <path id="Cmr10-7e" d="M 531 3769 
L 716 3988 
Q 966 4275 1216 4275 
Q 1338 4275 1483 4203 
Q 1628 4131 1773 4059 
Q 1919 3988 2041 3988 
Q 2297 3988 2534 4275 
L 2663 4166 
L 2478 3950 
Q 2225 3659 1978 3659 
Q 1856 3659 1711 3732 
Q 1566 3806 1420 3878 
Q 1275 3950 1153 3950 
Q 897 3950 659 3659 
L 531 3769 
z
" transform="scale(0.015625)"/>
       <path id="Cmmi10-58" d="M 231 0 
Q 166 0 166 84 
Q 169 100 180 140 
Q 191 181 208 203 
Q 225 225 256 225 
Q 838 225 1253 659 
Q 1259 666 1267 669 
Q 1275 672 1275 672 
L 2675 2181 
L 1913 4019 
Q 1847 4103 1700 4125 
Q 1553 4147 1356 4147 
Q 1294 4147 1294 4231 
Q 1316 4313 1328 4342 
Q 1341 4372 1403 4372 
L 3003 4372 
Q 3066 4372 3066 4288 
Q 3063 4272 3052 4231 
Q 3041 4191 3023 4169 
Q 3006 4147 2975 4147 
Q 2856 4147 2729 4108 
Q 2603 4069 2553 3981 
L 3103 2656 
L 4153 3781 
Q 4163 3803 4197 3858 
Q 4231 3913 4231 3963 
Q 4231 4056 4150 4101 
Q 4069 4147 3956 4147 
Q 3891 4147 3891 4231 
Q 3913 4313 3925 4342 
Q 3938 4372 4000 4372 
L 5388 4372 
Q 5422 4372 5437 4347 
Q 5453 4322 5453 4288 
Q 5450 4272 5440 4234 
Q 5431 4197 5415 4172 
Q 5400 4147 5369 4147 
Q 5072 4147 4823 4039 
Q 4575 3931 4366 3713 
Q 4363 3709 4358 3707 
Q 4353 3706 4347 3700 
L 3188 2450 
L 4063 353 
Q 4166 225 4622 225 
Q 4684 225 4684 141 
Q 4663 56 4648 28 
Q 4634 0 4575 0 
L 2975 0 
Q 2913 0 2913 84 
Q 2916 100 2925 139 
Q 2934 178 2951 201 
Q 2969 225 2994 225 
Q 3119 225 3247 264 
Q 3375 303 3425 391 
L 2759 1984 
L 1466 588 
Q 1456 566 1422 512 
Q 1388 459 1388 409 
Q 1388 316 1475 270 
Q 1563 225 1663 225 
Q 1728 225 1728 141 
Q 1706 50 1693 25 
Q 1681 0 1619 0 
L 231 0 
z
" transform="scale(0.015625)"/>
       <path id="DejaVuSerif-29" d="M 453 -997 
L 453 -691 
Q 934 -359 1145 242 
Q 1356 844 1356 1931 
Q 1356 3022 1145 3623 
Q 934 4225 453 4556 
L 453 4863 
Q 1216 4522 1603 3783 
Q 1991 3044 1991 1931 
Q 1991 822 1603 83 
Q 1216 -656 453 -997 
z
" transform="scale(0.015625)"/>
      </defs>
      <use xlink:href="#DejaVuSerif-4e" transform="translate(0 0.5625)"/>
      <use xlink:href="#DejaVuSerif-75" transform="translate(87.5 0.5625)"/>
      <use xlink:href="#DejaVuSerif-6c" transform="translate(151.904297 0.5625)"/>
      <use xlink:href="#DejaVuSerif-6c" transform="translate(183.886719 0.5625)"/>
      <use xlink:href="#DejaVuSerif-20" transform="translate(215.869141 0.5625)"/>
      <use xlink:href="#DejaVuSerif-28" transform="translate(247.65625 0.5625)"/>
      <use xlink:href="#Cmr10-a2" transform="translate(286.669922 0.5625)"/>
      <use xlink:href="#Cmr10-7e" transform="translate(396.376953 24.203125)"/>
      <use xlink:href="#Cmmi10-58" transform="translate(369.970703 0.5625)"/>
      <use xlink:href="#DejaVuSerif-29" transform="translate(452.783203 0.5625)"/>
     </g>
    </g>
   </g>
   <g id="matplotlib.axis_2"/>
   <g id="patch_22">
    <path d="M 7.2 339.8438 
L 409.410983 339.8438 
" style="fill: none; stroke: #030303; stroke-width: 1.5; stroke-linejoin: miter; stroke-linecap: square"/>
   </g>
  </g>
  <g id="axes_2">
   <g id="matplotlib.axis_3"/>
   <g id="patch_23">
    <path d="M 7.2 339.8438 
L 409.410983 339.8438 
" style="fill: none; stroke: #030303; stroke-width: 1.5; stroke-linejoin: miter; stroke-linecap: square"/>
   </g>
   <g id="patch_24">
    <path d="M 151.89345 45.269426 
Q 151.89345 191.556509 151.89345 336.725559 
" style="fill: none; stroke: #784f9b; stroke-linecap: round"/>
    <path d="M 155.09345 330.325559 
L 151.89345 336.725559 
L 148.69345 330.325559 
" style="fill: none; stroke: #784f9b; stroke-linecap: round"/>
   </g>
   <g id="text_7">
    <!-- $\Delta \tilde{X}=$ -->
    <g style="fill: #784f9b" transform="translate(129.57345 19.3575) scale(0.16 -0.16)">
     <defs>
      <path id="Cmr10-3d" d="M 481 850 
Q 428 850 393 890 
Q 359 931 359 978 
Q 359 1031 393 1068 
Q 428 1106 481 1106 
L 4500 1106 
Q 4547 1106 4581 1068 
Q 4616 1031 4616 978 
Q 4616 931 4581 890 
Q 4547 850 4500 850 
L 481 850 
z
M 481 2094 
Q 428 2094 393 2131 
Q 359 2169 359 2222 
Q 359 2269 393 2309 
Q 428 2350 481 2350 
L 4500 2350 
Q 4547 2350 4581 2309 
Q 4616 2269 4616 2222 
Q 4616 2169 4581 2131 
Q 4547 2094 4500 2094 
L 481 2094 
z
" transform="scale(0.015625)"/>
     </defs>
     <use xlink:href="#Cmr10-a2" transform="translate(0 0.5625)"/>
     <use xlink:href="#Cmr10-7e" transform="translate(109.707031 24.203125)"/>
     <use xlink:href="#Cmmi10-58" transform="translate(83.300781 0.5625)"/>
     <use xlink:href="#Cmr10-3d" transform="translate(183.671875 0.5625)"/>
    </g>
    <!-- $-14.5K\, (-29.5K, 5.2K)$ -->
    <g style="fill: #784f9b" transform="translate(69.41345 37.274) scale(0.16 -0.16)">
     <defs>
      <path id="Cmsy10-a1" d="M 653 1472 
Q 600 1472 565 1512 
Q 531 1553 531 1600 
Q 531 1647 565 1687 
Q 600 1728 653 1728 
L 4325 1728 
Q 4375 1728 4408 1687 
Q 4441 1647 4441 1600 
Q 4441 1553 4408 1512 
Q 4375 1472 4325 1472 
L 653 1472 
z
" transform="scale(0.015625)"/>
      <path id="Cmr10-31" d="M 594 0 
L 594 225 
Q 1394 225 1394 428 
L 1394 3788 
Q 1063 3628 556 3628 
L 556 3853 
Q 1341 3853 1741 4263 
L 1831 4263 
Q 1853 4263 1873 4245 
Q 1894 4228 1894 4206 
L 1894 428 
Q 1894 225 2694 225 
L 2694 0 
L 594 0 
z
" transform="scale(0.015625)"/>
      <path id="Cmr10-34" d="M 178 1056 
L 178 1281 
L 2156 4231 
Q 2178 4263 2222 4263 
L 2316 4263 
Q 2388 4263 2388 4191 
L 2388 1281 
L 3016 1281 
L 3016 1056 
L 2388 1056 
L 2388 428 
Q 2388 297 2575 261 
Q 2763 225 3009 225 
L 3009 0 
L 1247 0 
L 1247 225 
Q 1494 225 1681 261 
Q 1869 297 1869 428 
L 1869 1056 
L 178 1056 
z
M 391 1281 
L 1906 1281 
L 1906 3547 
L 391 1281 
z
" transform="scale(0.015625)"/>
      <path id="Cmmi10-3a" d="M 538 353 
Q 538 497 644 600 
Q 750 703 891 703 
Q 978 703 1062 656 
Q 1147 609 1194 525 
Q 1241 441 1241 353 
Q 1241 213 1137 106 
Q 1034 0 891 0 
Q 750 0 644 106 
Q 538 213 538 353 
z
" transform="scale(0.015625)"/>
      <path id="Cmr10-35" d="M 556 728 
Q 622 541 758 387 
Q 894 234 1080 148 
Q 1266 63 1466 63 
Q 1928 63 2103 422 
Q 2278 781 2278 1294 
Q 2278 1516 2270 1667 
Q 2263 1819 2228 1959 
Q 2169 2184 2020 2353 
Q 1872 2522 1656 2522 
Q 1441 2522 1286 2456 
Q 1131 2391 1034 2303 
Q 938 2216 863 2119 
Q 788 2022 769 2016 
L 697 2016 
Q 681 2016 657 2036 
Q 634 2056 634 2075 
L 634 4213 
Q 634 4228 654 4245 
Q 675 4263 697 4263 
L 716 4263 
Q 1147 4056 1631 4056 
Q 2106 4056 2547 4263 
L 2566 4263 
Q 2588 4263 2606 4247 
Q 2625 4231 2625 4213 
L 2625 4153 
Q 2625 4122 2613 4122 
Q 2394 3831 2064 3668 
Q 1734 3506 1381 3506 
Q 1125 3506 856 3578 
L 856 2369 
Q 1069 2541 1236 2614 
Q 1403 2688 1663 2688 
Q 2016 2688 2295 2484 
Q 2575 2281 2725 1954 
Q 2875 1628 2875 1288 
Q 2875 903 2686 575 
Q 2497 247 2172 53 
Q 1847 -141 1466 -141 
Q 1150 -141 886 21 
Q 622 184 470 459 
Q 319 734 319 1044 
Q 319 1188 412 1278 
Q 506 1369 647 1369 
Q 788 1369 883 1276 
Q 978 1184 978 1044 
Q 978 906 883 811 
Q 788 716 647 716 
Q 625 716 597 720 
Q 569 725 556 728 
z
" transform="scale(0.015625)"/>
      <path id="Cmmi10-4b" d="M 300 0 
Q 238 0 238 84 
Q 241 100 250 139 
Q 259 178 276 201 
Q 294 225 319 225 
Q 709 225 863 269 
Q 947 297 984 441 
L 1863 3956 
Q 1875 4019 1875 4044 
Q 1875 4113 1797 4122 
Q 1678 4147 1338 4147 
Q 1275 4147 1275 4231 
Q 1297 4313 1309 4342 
Q 1322 4372 1381 4372 
L 3103 4372 
Q 3169 4372 3169 4288 
Q 3166 4272 3156 4234 
Q 3147 4197 3131 4172 
Q 3116 4147 3084 4147 
Q 2694 4147 2541 4103 
Q 2456 4072 2419 3928 
L 1900 1856 
L 4409 3794 
Q 4416 3806 4489 3879 
Q 4563 3953 4563 4025 
Q 4563 4147 4347 4147 
Q 4281 4147 4281 4231 
Q 4294 4281 4301 4309 
Q 4309 4338 4329 4355 
Q 4350 4372 4391 4372 
L 5631 4372 
Q 5666 4372 5681 4347 
Q 5697 4322 5697 4288 
Q 5694 4272 5683 4231 
Q 5672 4191 5655 4169 
Q 5638 4147 5606 4147 
Q 5138 4147 4581 3713 
Q 4578 3709 4572 3707 
Q 4566 3706 4559 3704 
Q 4553 3703 4550 3700 
L 3231 2675 
L 4191 428 
Q 4278 288 4378 256 
Q 4478 225 4684 225 
Q 4750 225 4750 141 
Q 4731 66 4712 33 
Q 4694 0 4641 0 
L 3156 0 
Q 3097 0 3097 84 
Q 3106 150 3118 187 
Q 3131 225 3181 225 
Q 3344 225 3458 258 
Q 3572 291 3572 409 
Q 3572 453 3566 475 
L 2772 2322 
L 1838 1600 
L 1544 416 
Q 1528 338 1528 325 
Q 1528 259 1606 250 
Q 1728 225 2069 225 
Q 2131 225 2131 141 
Q 2109 50 2096 25 
Q 2084 0 2022 0 
L 300 0 
z
" transform="scale(0.015625)"/>
      <path id="Cmr10-28" d="M 1984 -1588 
Q 1628 -1306 1370 -942 
Q 1113 -578 948 -165 
Q 784 247 703 697 
Q 622 1147 622 1600 
Q 622 2059 703 2509 
Q 784 2959 951 3375 
Q 1119 3791 1378 4153 
Q 1638 4516 1984 4788 
Q 1984 4800 2016 4800 
L 2075 4800 
Q 2094 4800 2109 4783 
Q 2125 4766 2125 4744 
Q 2125 4716 2113 4703 
Q 1800 4397 1592 4047 
Q 1384 3697 1257 3301 
Q 1131 2906 1075 2482 
Q 1019 2059 1019 1600 
Q 1019 -434 2106 -1491 
Q 2125 -1509 2125 -1544 
Q 2125 -1559 2108 -1579 
Q 2091 -1600 2075 -1600 
L 2016 -1600 
Q 1984 -1600 1984 -1588 
z
" transform="scale(0.015625)"/>
      <path id="Cmr10-32" d="M 319 0 
L 319 172 
Q 319 188 331 206 
L 1325 1306 
Q 1550 1550 1690 1715 
Q 1831 1881 1968 2097 
Q 2106 2313 2186 2536 
Q 2266 2759 2266 3009 
Q 2266 3272 2169 3511 
Q 2072 3750 1880 3894 
Q 1688 4038 1416 4038 
Q 1138 4038 916 3870 
Q 694 3703 603 3438 
Q 628 3444 672 3444 
Q 816 3444 917 3347 
Q 1019 3250 1019 3097 
Q 1019 2950 917 2848 
Q 816 2747 672 2747 
Q 522 2747 420 2851 
Q 319 2956 319 3097 
Q 319 3338 409 3548 
Q 500 3759 670 3923 
Q 841 4088 1055 4175 
Q 1269 4263 1509 4263 
Q 1875 4263 2190 4108 
Q 2506 3953 2690 3670 
Q 2875 3388 2875 3009 
Q 2875 2731 2753 2481 
Q 2631 2231 2440 2026 
Q 2250 1822 1953 1562 
Q 1656 1303 1563 1216 
L 838 519 
L 1453 519 
Q 1906 519 2211 526 
Q 2516 534 2534 550 
Q 2609 631 2688 1141 
L 2875 1141 
L 2694 0 
L 319 0 
z
" transform="scale(0.015625)"/>
      <path id="Cmr10-39" d="M 722 269 
Q 897 63 1331 63 
Q 1575 63 1786 228 
Q 1997 394 2113 634 
Q 2247 906 2284 1214 
Q 2322 1522 2322 1978 
Q 2213 1719 2008 1553 
Q 1803 1388 1538 1388 
Q 1166 1388 873 1589 
Q 581 1791 425 2120 
Q 269 2450 269 2822 
Q 269 3206 444 3539 
Q 619 3872 928 4067 
Q 1238 4263 1631 4263 
Q 2019 4263 2280 4052 
Q 2541 3841 2678 3508 
Q 2816 3175 2870 2803 
Q 2925 2431 2925 2069 
Q 2925 1575 2744 1061 
Q 2563 547 2202 203 
Q 1841 -141 1331 -141 
Q 953 -141 690 37 
Q 428 216 428 575 
Q 428 706 517 795 
Q 606 884 738 884 
Q 866 884 955 795 
Q 1044 706 1044 575 
Q 1044 450 953 359 
Q 863 269 738 269 
L 722 269 
z
M 1563 1556 
Q 1825 1556 1992 1732 
Q 2159 1909 2234 2171 
Q 2309 2434 2309 2694 
L 2309 2816 
L 2309 2841 
Q 2309 3322 2168 3700 
Q 2028 4078 1631 4078 
Q 1378 4078 1220 3967 
Q 1063 3856 988 3672 
Q 913 3488 892 3278 
Q 872 3069 872 2822 
Q 872 2459 906 2203 
Q 941 1947 1094 1751 
Q 1247 1556 1563 1556 
z
" transform="scale(0.015625)"/>
      <path id="Cmmi10-3b" d="M 634 -1153 
Q 634 -1125 659 -1100 
Q 891 -878 1019 -587 
Q 1147 -297 1147 25 
L 1147 103 
Q 1044 0 891 0 
Q 744 0 641 103 
Q 538 206 538 353 
Q 538 503 641 603 
Q 744 703 891 703 
Q 1119 703 1216 492 
Q 1313 281 1313 25 
Q 1313 -331 1170 -651 
Q 1028 -972 769 -1228 
Q 744 -1241 728 -1241 
Q 697 -1241 665 -1212 
Q 634 -1184 634 -1153 
z
" transform="scale(0.015625)"/>
      <path id="Cmr10-29" d="M 416 -1600 
Q 359 -1600 359 -1544 
Q 359 -1516 372 -1503 
Q 1466 -434 1466 1600 
Q 1466 3634 384 4691 
Q 359 4706 359 4744 
Q 359 4766 376 4783 
Q 394 4800 416 4800 
L 475 4800 
Q 494 4800 506 4788 
Q 966 4425 1272 3906 
Q 1578 3388 1720 2800 
Q 1863 2213 1863 1600 
Q 1863 1147 1786 708 
Q 1709 269 1542 -157 
Q 1375 -584 1119 -945 
Q 863 -1306 506 -1588 
Q 494 -1600 475 -1600 
L 416 -1600 
z
" transform="scale(0.015625)"/>
     </defs>
     <use xlink:href="#Cmsy10-a1"/>
     <use xlink:href="#Cmr10-31" transform="translate(77.685547 0)"/>
     <use xlink:href="#Cmr10-34" transform="translate(127.685547 0)"/>
     <use xlink:href="#Cmmi10-3a" transform="translate(177.685547 0)"/>
     <use xlink:href="#Cmr10-35" transform="translate(205.371094 0)"/>
     <use xlink:href="#Cmmi10-4b" transform="translate(255.371094 0)"/>
     <use xlink:href="#Cmr10-28" transform="translate(354.915657 0)"/>
     <use xlink:href="#Cmsy10-a1" transform="translate(393.734017 0)"/>
     <use xlink:href="#Cmr10-32" transform="translate(471.419563 0)"/>
     <use xlink:href="#Cmr10-39" transform="translate(521.419563 0)"/>
     <use xlink:href="#Cmmi10-3a" transform="translate(571.419563 0)"/>
     <use xlink:href="#Cmr10-35" transform="translate(599.10511 0)"/>
     <use xlink:href="#Cmmi10-4b" transform="translate(649.10511 0)"/>
     <use xlink:href="#Cmmi10-3b" transform="translate(734.01722 0)"/>
     <use xlink:href="#Cmr10-35" transform="translate(779.26136 0)"/>
     <use xlink:href="#Cmmi10-3a" transform="translate(829.26136 0)"/>
     <use xlink:href="#Cmr10-32" transform="translate(856.946907 0)"/>
     <use xlink:href="#Cmmi10-4b" transform="translate(906.946907 0)"/>
     <use xlink:href="#Cmr10-29" transform="translate(991.859017 0)"/>
    </g>
   </g>
   <g id="patch_25">
    <path d="M 267.306015 45.268159 
Q 267.306015 191.555872 267.306015 336.72555 
" style="fill: none; stroke: #784f9b; stroke-linecap: round"/>
    <path d="M 270.506015 330.32555 
L 267.306015 336.72555 
L 264.106015 330.32555 
" style="fill: none; stroke: #784f9b; stroke-linecap: round"/>
   </g>
   <g id="text_8">
    <!-- $|\Delta \tilde{X}|$ -->
    <g style="fill: #784f9b" transform="translate(249.546015 37.274) scale(0.16 -0.16)">
     <defs>
      <path id="Cmsy10-6a" d="M 763 -1484 
L 763 4684 
Q 763 4734 800 4767 
Q 838 4800 891 4800 
Q 938 4800 978 4767 
Q 1019 4734 1019 4684 
L 1019 -1484 
Q 1019 -1534 978 -1567 
Q 938 -1600 891 -1600 
Q 838 -1600 800 -1567 
Q 763 -1534 763 -1484 
z
" transform="scale(0.015625)"/>
     </defs>
     <use xlink:href="#Cmsy10-6a" transform="translate(0 0.5625)"/>
     <use xlink:href="#Cmr10-a2" transform="translate(27.685547 0.5625)"/>
     <use xlink:href="#Cmr10-7e" transform="translate(137.392578 24.203125)"/>
     <use xlink:href="#Cmmi10-58" transform="translate(110.986328 0.5625)"/>
     <use xlink:href="#Cmsy10-6a" transform="translate(193.798828 0.5625)"/>
    </g>
   </g>
   <g id="patch_26">
    <path d="M 209.599732 76.705053 
Q 209.599732 207.27264 209.599732 336.722192 
" style="fill: none; stroke: #dc143c; stroke-linecap: round"/>
    <path d="M 212.799732 330.322192 
L 209.599732 336.722192 
L 206.399732 330.322192 
" style="fill: none; stroke: #dc143c; stroke-linecap: round"/>
   </g>
   <g id="text_9">
    <!-- $H_0:\, \tilde{X}=0$ -->
    <g style="fill: #dc143c" transform="translate(173.759732 69.3749) scale(0.16 -0.16)">
     <defs>
      <path id="Cmmi10-48" d="M 300 0 
Q 238 0 238 84 
Q 241 100 250 139 
Q 259 178 276 201 
Q 294 225 319 225 
Q 709 225 863 269 
Q 947 297 984 441 
L 1863 3956 
Q 1875 4019 1875 4044 
Q 1875 4113 1797 4122 
Q 1678 4147 1338 4147 
Q 1275 4147 1275 4231 
Q 1297 4313 1309 4342 
Q 1322 4372 1381 4372 
L 3103 4372 
Q 3169 4372 3169 4288 
Q 3166 4272 3156 4234 
Q 3147 4197 3131 4172 
Q 3116 4147 3084 4147 
Q 2694 4147 2541 4103 
Q 2456 4072 2419 3928 
L 2034 2388 
L 3956 2388 
L 4347 3956 
Q 4359 4019 4359 4044 
Q 4359 4113 4281 4122 
Q 4159 4147 3822 4147 
Q 3756 4147 3756 4231 
Q 3778 4313 3790 4342 
Q 3803 4372 3866 4372 
L 5588 4372 
Q 5650 4372 5650 4288 
Q 5647 4272 5637 4233 
Q 5628 4194 5611 4170 
Q 5594 4147 5569 4147 
Q 5178 4147 5025 4103 
Q 4941 4075 4903 3928 
L 4025 416 
Q 4013 353 4013 325 
Q 4013 259 4091 250 
Q 4213 225 4550 225 
Q 4616 225 4616 141 
Q 4597 66 4578 33 
Q 4559 0 4506 0 
L 2784 0 
Q 2719 0 2719 84 
Q 2731 131 2737 153 
Q 2744 175 2761 200 
Q 2778 225 2803 225 
Q 3194 225 3347 269 
Q 3431 297 3469 441 
L 3897 2163 
L 1978 2163 
L 1544 416 
Q 1528 338 1528 325 
Q 1528 259 1606 250 
Q 1728 225 2069 225 
Q 2131 225 2131 141 
Q 2109 56 2095 28 
Q 2081 0 2022 0 
L 300 0 
z
" transform="scale(0.015625)"/>
      <path id="Cmr10-30" d="M 1600 -141 
Q 816 -141 533 504 
Q 250 1150 250 2041 
Q 250 2597 351 3087 
Q 453 3578 754 3920 
Q 1056 4263 1600 4263 
Q 2022 4263 2290 4056 
Q 2559 3850 2700 3523 
Q 2841 3197 2892 2823 
Q 2944 2450 2944 2041 
Q 2944 1491 2842 1011 
Q 2741 531 2444 195 
Q 2147 -141 1600 -141 
z
M 1600 25 
Q 1956 25 2131 390 
Q 2306 756 2347 1200 
Q 2388 1644 2388 2144 
Q 2388 2625 2347 3031 
Q 2306 3438 2132 3767 
Q 1959 4097 1600 4097 
Q 1238 4097 1063 3765 
Q 888 3434 847 3029 
Q 806 2625 806 2144 
Q 806 1788 823 1472 
Q 841 1156 916 820 
Q 991 484 1158 254 
Q 1325 25 1600 25 
z
" transform="scale(0.015625)"/>
      <path id="Cmr10-3a" d="M 538 353 
Q 538 497 644 600 
Q 750 703 891 703 
Q 978 703 1062 656 
Q 1147 609 1194 525 
Q 1241 441 1241 353 
Q 1241 213 1137 106 
Q 1034 0 891 0 
Q 750 0 644 106 
Q 538 213 538 353 
z
M 538 2406 
Q 538 2497 584 2578 
Q 631 2659 714 2709 
Q 797 2759 891 2759 
Q 981 2759 1064 2709 
Q 1147 2659 1194 2578 
Q 1241 2497 1241 2406 
Q 1241 2263 1139 2158 
Q 1038 2053 891 2053 
Q 747 2053 642 2158 
Q 538 2263 538 2406 
z
" transform="scale(0.015625)"/>
     </defs>
     <use xlink:href="#Cmmi10-48" transform="translate(0 0.5625)"/>
     <use xlink:href="#Cmr10-30" transform="translate(83.105469 -16.44375) scale(0.7)"/>
     <use xlink:href="#Cmr10-3a" transform="translate(142.041406 0.5625)"/>
     <use xlink:href="#Cmr10-7e" transform="translate(228.324251 24.203125)"/>
     <use xlink:href="#Cmmi10-58" transform="translate(201.918001 0.5625)"/>
     <use xlink:href="#Cmr10-3d" transform="translate(302.289095 0.5625)"/>
     <use xlink:href="#Cmr10-30" transform="translate(397.533235 0.5625)"/>
    </g>
   </g>
  </g>
  <g id="axes_3">
   <g id="matplotlib.axis_4"/>
   <g id="line2d_6">
    <path d="M 25.482317 339.807503 
L 43.856506 339.647445 
L 54.881019 339.347405 
L 62.230694 338.954835 
L 67.742951 338.493104 
L 73.255207 337.824176 
L 78.767464 336.871973 
L 82.442301 336.033209 
L 86.117139 334.99239 
L 89.791977 333.711121 
L 93.466814 332.146485 
L 97.141652 330.251229 
L 100.81649 327.974161 
L 104.491327 325.260804 
L 108.166165 322.054342 
L 111.841003 318.29687 
L 115.51584 313.930971 
L 119.190678 308.901614 
L 122.865516 303.158347 
L 126.540353 296.657746 
L 130.215191 289.366062 
L 133.890029 281.261964 
L 137.564866 272.339287 
L 141.239704 262.609649 
L 144.914542 252.104801 
L 148.589379 240.878555 
L 152.264217 229.008151 
L 157.776473 210.222986 
L 165.126149 184.064885 
L 172.475824 157.886476 
L 177.988081 139.190934 
L 181.662918 127.570192 
L 185.337756 116.870239 
L 189.012594 107.293197 
L 190.850013 102.984988 
L 192.687431 99.026155 
L 194.52485 95.436739 
L 196.362269 92.235115 
L 198.199688 89.437827 
L 200.037107 87.059454 
L 201.874526 85.112476 
L 203.711944 83.60717 
L 205.549363 82.55152 
L 207.386782 81.951139 
L 209.224201 81.809231 
L 211.06162 82.126551 
L 212.899039 82.901408 
L 214.736457 84.129672 
L 216.573876 85.804816 
L 218.411295 87.917973 
L 220.248714 90.45801 
L 222.086133 93.411632 
L 223.923552 96.763494 
L 225.76097 100.496333 
L 227.598389 104.59112 
L 229.435808 109.027217 
L 233.110646 118.833806 
L 236.785483 129.725658 
L 240.460321 141.498495 
L 244.135159 153.94053 
L 249.647415 173.393411 
L 260.671928 212.669066 
L 266.184185 231.321479 
L 269.859022 243.0759 
L 273.53386 254.169554 
L 277.208698 264.529751 
L 280.883535 274.107018 
L 284.558373 282.873617 
L 288.233211 290.821518 
L 291.908048 297.959991 
L 295.582886 304.312954 
L 299.257724 309.916216 
L 302.932561 314.814742 
L 306.607399 319.060042 
L 310.282237 322.707763 
L 313.957074 325.815552 
L 317.631912 328.441218 
L 321.30675 330.641217 
L 324.981587 332.469463 
L 328.656425 333.976437 
L 332.331263 335.208587 
L 336.0061 336.207974 
L 339.680938 337.012126 
L 345.193195 337.923347 
L 350.705451 338.562047 
L 358.055126 339.114602 
L 367.242221 339.497664 
L 378.266734 339.710322 
L 391.128665 339.803304 
L 391.128665 339.803304 
" clip-path="url(#pac65058160)" style="fill: none; stroke: #e04b4b; stroke-width: 2; stroke-linecap: square"/>
   </g>
   <g id="patch_27">
    <path d="M 7.2 339.8438 
L 409.410983 339.8438 
" style="fill: none; stroke: #030303; stroke-width: 1.5; stroke-linejoin: miter; stroke-linecap: square"/>
   </g>
   <g id="patch_28">
    <path d="M 369.797978 146.249993 
Q 371.777193 230.692544 306.598448 281.157323 
L 308.435055 283.529426 
Q 302.439789 285.639694 296.284346 287.43286 
Q 300.17873 282.335881 303.537438 277.203816 
L 305.374044 279.57592 
Q 369.754072 229.729549 367.798527 146.296857 
L 369.797978 146.249993 
z
" style="fill: #e04b4b"/>
   </g>
   <g id="text_10">
    <!-- t-Distribution KDE -->
    <g style="fill: #e04b4b" transform="translate(368.280604 133.416145) scale(0.1 -0.1)">
     <defs>
      <path id="DejaVuSerif-74" d="M 691 2988 
L 184 2988 
L 184 3322 
L 691 3322 
L 691 4353 
L 1269 4353 
L 1269 3322 
L 2350 3322 
L 2350 2988 
L 1269 2988 
L 1269 878 
Q 1269 456 1350 337 
Q 1431 219 1650 219 
Q 1875 219 1978 351 
Q 2081 484 2088 781 
L 2522 781 
Q 2497 328 2275 118 
Q 2053 -91 1600 -91 
Q 1103 -91 897 129 
Q 691 350 691 878 
L 691 2988 
z
" transform="scale(0.015625)"/>
      <path id="DejaVuSerif-44" d="M 1581 331 
L 2163 331 
Q 3072 331 3558 850 
Q 4044 1369 4044 2338 
Q 4044 3306 3559 3818 
Q 3075 4331 2163 4331 
L 1581 4331 
L 1581 331 
z
M 353 0 
L 353 331 
L 947 331 
L 947 4331 
L 353 4331 
L 353 4666 
L 2209 4666 
Q 3416 4666 4089 4050 
Q 4763 3434 4763 2338 
Q 4763 1238 4088 619 
Q 3413 0 2209 0 
L 353 0 
z
" transform="scale(0.015625)"/>
      <path id="DejaVuSerif-69" d="M 622 4353 
Q 622 4497 726 4603 
Q 831 4709 978 4709 
Q 1122 4709 1226 4603 
Q 1331 4497 1331 4353 
Q 1331 4206 1228 4103 
Q 1125 4000 978 4000 
Q 831 4000 726 4103 
Q 622 4206 622 4353 
z
M 1356 331 
L 1900 331 
L 1900 0 
L 231 0 
L 231 331 
L 781 331 
L 781 2988 
L 231 2988 
L 231 3322 
L 1356 3322 
L 1356 331 
z
" transform="scale(0.015625)"/>
      <path id="DejaVuSerif-73" d="M 359 184 
L 359 959 
L 691 959 
Q 703 588 923 403 
Q 1144 219 1575 219 
Q 1963 219 2166 364 
Q 2369 509 2369 788 
Q 2369 1006 2220 1140 
Q 2072 1275 1594 1428 
L 1178 1569 
Q 750 1706 558 1912 
Q 366 2119 366 2438 
Q 366 2894 700 3153 
Q 1034 3413 1625 3413 
Q 1888 3413 2178 3344 
Q 2469 3275 2778 3144 
L 2778 2419 
L 2447 2419 
Q 2434 2741 2221 2922 
Q 2009 3103 1644 3103 
Q 1281 3103 1095 2975 
Q 909 2847 909 2591 
Q 909 2381 1050 2254 
Q 1191 2128 1613 1997 
L 2069 1856 
Q 2541 1709 2748 1489 
Q 2956 1269 2956 922 
Q 2956 450 2595 179 
Q 2234 -91 1600 -91 
Q 1278 -91 972 -22 
Q 666 47 359 184 
z
" transform="scale(0.015625)"/>
      <path id="DejaVuSerif-72" d="M 3059 3328 
L 3059 2497 
L 2728 2497 
Q 2713 2744 2591 2866 
Q 2469 2988 2234 2988 
Q 1809 2988 1582 2694 
Q 1356 2400 1356 1850 
L 1356 331 
L 2022 331 
L 2022 0 
L 263 0 
L 263 331 
L 781 331 
L 781 2994 
L 231 2994 
L 231 3322 
L 1356 3322 
L 1356 2731 
Q 1525 3078 1790 3245 
Q 2056 3413 2438 3413 
Q 2578 3413 2733 3391 
Q 2888 3369 3059 3328 
z
" transform="scale(0.015625)"/>
      <path id="DejaVuSerif-62" d="M 738 331 
L 738 4531 
L 184 4531 
L 184 4863 
L 1313 4863 
L 1313 2803 
Q 1481 3116 1742 3264 
Q 2003 3413 2388 3413 
Q 3000 3413 3387 2928 
Q 3775 2444 3775 1663 
Q 3775 881 3387 395 
Q 3000 -91 2388 -91 
Q 2003 -91 1742 57 
Q 1481 206 1313 519 
L 1313 0 
L 184 0 
L 184 331 
L 738 331 
z
M 1313 1497 
Q 1313 897 1542 583 
Q 1772 269 2209 269 
Q 2650 269 2876 622 
Q 3103 975 3103 1663 
Q 3103 2353 2876 2703 
Q 2650 3053 2209 3053 
Q 1772 3053 1542 2737 
Q 1313 2422 1313 1825 
L 1313 1497 
z
" transform="scale(0.015625)"/>
      <path id="DejaVuSerif-6f" d="M 1925 219 
Q 2388 219 2623 584 
Q 2859 950 2859 1663 
Q 2859 2375 2623 2739 
Q 2388 3103 1925 3103 
Q 1463 3103 1227 2739 
Q 991 2375 991 1663 
Q 991 950 1228 584 
Q 1466 219 1925 219 
z
M 1925 -91 
Q 1200 -91 759 389 
Q 319 869 319 1663 
Q 319 2456 758 2934 
Q 1197 3413 1925 3413 
Q 2653 3413 3092 2934 
Q 3531 2456 3531 1663 
Q 3531 869 3092 389 
Q 2653 -91 1925 -91 
z
" transform="scale(0.015625)"/>
      <path id="DejaVuSerif-6e" d="M 263 0 
L 263 331 
L 781 331 
L 781 2988 
L 231 2988 
L 231 3322 
L 1356 3322 
L 1356 2731 
Q 1516 3069 1770 3241 
Q 2025 3413 2363 3413 
Q 2913 3413 3172 3097 
Q 3431 2781 3431 2113 
L 3431 331 
L 3944 331 
L 3944 0 
L 2356 0 
L 2356 331 
L 2853 331 
L 2853 1931 
Q 2853 2541 2703 2767 
Q 2553 2994 2175 2994 
Q 1775 2994 1565 2701 
Q 1356 2409 1356 1850 
L 1356 331 
L 1856 331 
L 1856 0 
L 263 0 
z
" transform="scale(0.015625)"/>
      <path id="DejaVuSerif-45" d="M 353 0 
L 353 331 
L 947 331 
L 947 4331 
L 353 4331 
L 353 4666 
L 4109 4666 
L 4109 3628 
L 3725 3628 
L 3725 4281 
L 1581 4281 
L 1581 2719 
L 3109 2719 
L 3109 3303 
L 3494 3303 
L 3494 1753 
L 3109 1753 
L 3109 2338 
L 1581 2338 
L 1581 384 
L 3775 384 
L 3775 1038 
L 4159 1038 
L 4159 0 
L 353 0 
z
" transform="scale(0.015625)"/>
     </defs>
     <use xlink:href="#DejaVuSerif-74"/>
     <use xlink:href="#DejaVuSerif-2d" transform="translate(40.185547 0)"/>
     <use xlink:href="#DejaVuSerif-44" transform="translate(73.974609 0)"/>
     <use xlink:href="#DejaVuSerif-69" transform="translate(154.150391 0)"/>
     <use xlink:href="#DejaVuSerif-73" transform="translate(186.132812 0)"/>
     <use xlink:href="#DejaVuSerif-74" transform="translate(237.451172 0)"/>
     <use xlink:href="#DejaVuSerif-72" transform="translate(277.636719 0)"/>
     <use xlink:href="#DejaVuSerif-69" transform="translate(325.439453 0)"/>
     <use xlink:href="#DejaVuSerif-62" transform="translate(357.421875 0)"/>
     <use xlink:href="#DejaVuSerif-75" transform="translate(421.435547 0)"/>
     <use xlink:href="#DejaVuSerif-74" transform="translate(485.839844 0)"/>
     <use xlink:href="#DejaVuSerif-69" transform="translate(526.025391 0)"/>
     <use xlink:href="#DejaVuSerif-6f" transform="translate(558.007812 0)"/>
     <use xlink:href="#DejaVuSerif-6e" transform="translate(618.212891 0)"/>
     <use xlink:href="#DejaVuSerif-20" transform="translate(682.617188 0)"/>
     <use xlink:href="#DejaVuSerif-4b" transform="translate(714.404297 0)"/>
     <use xlink:href="#DejaVuSerif-44" transform="translate(789.111328 0)"/>
     <use xlink:href="#DejaVuSerif-45" transform="translate(869.287109 0)"/>
    </g>
   </g>
  </g>
 </g>
 <defs>
  <clipPath id="pac65058160">
   <rect x="7.2" y="25.5598" width="402.210983" height="314.284"/>
  </clipPath>
 </defs>
</svg>
